<?xml version="1.0" encoding="iso-8859-1"?>
<!-- Generator: Adobe Illustrator 16.0.0, SVG Export Plug-In . SVG Version: 6.00 Build 0)  -->
<!DOCTYPE svg PUBLIC "-//W3C//DTD SVG 1.1//EN" "http://www.w3.org/Graphics/SVG/1.1/DTD/svg11.dtd">
<svg version="1.1" id="Capa_1" xmlns="http://www.w3.org/2000/svg" xmlns:xlink="http://www.w3.org/1999/xlink" x="0px" y="0px"
	 width="483.69px" height="483.69px" viewBox="0 0 483.69 483.69" style="enable-background:new 0 0 483.69 483.69;"
	 xml:space="preserve">
<g>
	<g>
		<path d="M419.93,213.933c-7.027-11.154-18.966-12.393-28.335-8.16c-4.453,1.815-8.45,4.971-11.273,9.272
			c-3.854,5.865-7.23,12.022-10.968,17.95c-1.26,1.252-2.463,2.641-3.52,4.337c-9.739,15.622-19.321,31.339-29.386,46.75
			c-12.005,11.705-6.901,38.38,15.198,39.172c8.125,0.289,16.254,0.487,24.379,0.65c3.839,26.172-2.6,37.222-25.227,65.338
			c-18.561,23.06-49.744,35.942-80.791,41.67c2.229-72.341,4.093-220.854,2.433-293.22c5.57-1.582,11.014-3.656,16.163-6.355
			c32.58-17.075,40.73-59.809,25.943-91.142C299.968,9.308,267.703-2.569,236.338,2.453c-6.296-3.083-13.967-3.583-21.906,0.376
			c-38.58,19.25-48.911,62.269-30.836,99.625c8.48,17.527,23.052,28.894,39.773,34.485c1.711,73.755-0.239,223.649-2.521,297.376
			c-76.438-4.738-118.083-44.28-119.025-114.574c3.77,0.005,7.541,0.015,11.316,0.015c1.237,0,2.397-0.111,3.524-0.269
			c2.922,0.224,5.854,0.264,8.731,0.269c2.308,0,4.502-0.462,6.609-1.137c3.336-0.092,6.779-1.006,10.212-3.017
			c9.486-5.556,15.432-20.84,7.998-30.499c-18.887-24.531-36.978-49.591-53.496-75.788c-7.036-11.154-18.969-12.391-28.335-8.158
			c-4.456,1.815-8.45,4.972-11.273,9.27c-3.852,5.865-7.226,12.022-10.966,17.951c-1.265,1.254-2.46,2.641-3.519,4.337
			c-9.745,15.619-19.324,31.341-29.391,46.753c-12,11.704-6.898,38.379,15.201,39.171c8.079,0.285,16.156,0.488,24.24,0.646
			c0.406,104.911,71.244,163.419,181.591,164.399c54.629,0.482,120.135-21.14,155.107-64.598
			c29.721-36.927,39.349-60.112,35.591-94.75c3.794,0.006,7.587,0.016,11.385,0.016c1.234,0,2.402-0.106,3.529-0.269
			c2.925,0.223,5.855,0.264,8.729,0.269c2.311,0,4.504-0.462,6.611-1.138c3.336-0.086,6.779-1.005,10.212-3.016
			c9.485-5.556,15.432-20.841,7.998-30.499C454.542,265.188,436.449,240.127,419.93,213.933z M68.867,274.973
			c2.907-4.677,5.807-9.364,8.713-14.046c3.278,4.738,6.579,9.455,9.938,14.137C81.3,275.033,75.08,275.049,68.867,274.973z
			 M227.353,55.17c1.907-0.208,3.9-0.635,5.979-1.374c15.178-5.375,28.876-5.745,36.29,6.111c5.94,9.494,4.463,20.051-3.25,27.523
			C245.667,107.485,213.62,76.38,227.353,55.17z M406.068,279.649c-3.058-0.645-6.317-0.65-9.562-0.046
			c-1.478-0.01-2.955-0.005-4.443-0.021c2.915-4.682,5.814-9.368,8.725-14.045c3.275,4.737,6.576,9.449,9.938,14.132
			C409.17,279.665,407.622,279.654,406.068,279.649z"/>
	</g>
</g>
<g>
</g>
<g>
</g>
<g>
</g>
<g>
</g>
<g>
</g>
<g>
</g>
<g>
</g>
<g>
</g>
<g>
</g>
<g>
</g>
<g>
</g>
<g>
</g>
<g>
</g>
<g>
</g>
<g>
</g>
</svg>
