<?xml version="1.0" encoding="iso-8859-1"?>
<!-- Generator: Adobe Illustrator 16.0.0, SVG Export Plug-In . SVG Version: 6.00 Build 0)  -->
<!DOCTYPE svg PUBLIC "-//W3C//DTD SVG 1.1//EN" "http://www.w3.org/Graphics/SVG/1.1/DTD/svg11.dtd">
<svg version="1.1" id="Capa_1" xmlns="http://www.w3.org/2000/svg" xmlns:xlink="http://www.w3.org/1999/xlink" x="0px" y="0px"
	 width="471.06px" height="471.06px" viewBox="0 0 471.06 471.06" style="enable-background:new 0 0 471.06 471.06;"
	 xml:space="preserve">
<g>
	<g>
		<path d="M325.51,42.077c6.57-6.342,12.862-12.946,18.696-19.997c3.61-4.361,4.291-10.415,0-14.706
			c-3.722-3.722-11.09-4.372-14.711,0c-6.281,7.602-13.106,14.675-20.23,21.464c-22.373-15.173-50.155-22.8-82.954-19.743
			c-19.355,1.806-37.564,7.546-53.804,16.369c-5.091-6.64-9.948-13.462-14.742-20.314c-3.245-4.634-9.039-6.776-14.226-3.735
			c-4.593,2.689-6.99,9.58-3.735,14.226c4.987,7.124,10.092,14.145,15.346,21.066c-2.367-3.121-33.197,35.998-35.437,39.836
			c-6.522,11.164-28.289,53.994-14.774,64.549c5.774,4.509,17.237,1.338,24.212,1.369c10.857,0.048,21.724,0.437,32.575,0.713
			c22.282,0.566,44.56,1.315,66.839,1.985c43.884,1.315,87.783,2.506,131.683,2.174c5.352-0.041,8.536-3.39,9.617-7.379
			c1.244-2.054,1.849-4.585,1.285-7.518C364.148,96.287,348.696,64.454,325.51,42.077z M124.374,121.558
			c9.141-49.756,51.577-84.944,101.943-91.672c66.583-8.886,107.288,38.001,122.211,96.634
			C273.775,126.644,199.099,122.833,124.374,121.558z"/>
		<path d="M360.253,157.718c-81.466-0.036-162.927-0.833-244.393-0.869c-5.558,0-8.777,3.578-9.729,7.76
			c-1.32,1.563-2.214,3.598-2.402,6.108c-3.915,51.93-1.231,104.007-3.468,155.995c-0.041,0.95,0.046,1.808,0.208,2.615
			c0.015,0.614,0.041,1.234,0.165,1.884c4.712,24.699,24.912,39.903,49.749,38.273c-3.578,0.233,0.185,61.225,0.576,65.038
			c1.368,13.33,4.644,28.341,18.418,33.927c15.858,6.438,34.657-2.585,45.067-14.666c18.771-21.784,17.097-54.791,15.516-81.623
			c5.134-0.213,10.281-0.284,15.419-0.314c-3.545,0.025-2.788,57.65-1.564,63.246c5.459,25.044,29.341,42.903,54.183,33.352
			c24.196-9.308,29.574-32.336,28.472-55.73c-0.624-13.223-0.984-26.888-2.508-40.029c8.154-0.722,16.112-3.021,22.84-7.938
			c11.345-8.297,15.687-21.048,16.915-34.565c0.051-0.584,0.011-1.117,0-1.731c4.185-52.202,5.9-104.484,6.048-156.844
			C371.643,165.548,368.485,157.724,360.253,157.718z M342.917,328.444c-0.045,0.559,0,1.062,0.031,1.569
			c-0.006,0.062-0.025,0.106-0.031,0.163c-1.7,18.59-15.254,23.146-32.066,21.667c-9.431-0.827-12.121,9.278-8.242,15.717
			c3.596,28.279,15.33,75.683-20.018,83.832c-34.357-10.658-16.438-62.55-15.935-89.148c0.152-7.806-6.819-11.029-12.735-9.75
			c-9.668,2.087-22.939-1.519-33.195-0.65c-0.749,0.066-1.478,0.198-2.184,0.376c-5.23-0.046-10.306,3.28-9.948,10.024
			c1.336,24.882,12.37,82.847-24.268,86.665c-0.307,0.031-0.571,0.127-0.868,0.178c-26.695-13.994-11.486-67.339-12.131-91.175
			c-0.178-6.398-5.027-9.719-9.999-9.998c-1.249-0.233-2.585-0.284-4.029-0.03c-7.917,1.401-16.785,2.066-24.252-1.509
			c-7.609-3.646-10.443-11.486-12.05-19.22c0.013-0.152,0.059-0.284,0.063-0.442c2.138-49.667-0.155-99.416,3.042-149.033
			c74.936,0.079,149.866,0.703,224.797,0.802C348.629,228.536,346.918,278.533,342.917,328.444z"/>
		<path d="M436.966,146.315c-0.798-1.076-1.812-2.028-3.006-2.777c-6.17-3.885-13.478-5.481-20.708-4.966
			c-1.133-0.432-2.342-0.721-3.605-0.79c-15.534-0.828-28.163,8.594-30.823,24.1c-0.152,0.863-0.193,1.722-0.178,2.57
			c-0.635,1.29-1.031,2.788-1.062,4.53c-0.782,40.215-0.625,80.349,2.6,120.465c0.006,0.106,0.041,0.188,0.051,0.294
			c-0.025,0.473-0.081,0.93-0.051,1.442c0.696,11.039,3.945,21.622,13.249,28.355c8.338,6.027,18.829,6.022,28.543,4.342
			c0.244-0.025,0.492-0.076,0.741-0.117c0.03-0.005,0.061-0.01,0.097-0.015c0.015-0.011,0.03-0.016,0.046-0.021
			c1.117-0.203,2.239-0.523,3.306-1.031c10.095-4.773,16.351-14.604,18.651-25.283c0.152-0.716,0.233-1.441,0.259-2.152
			c0.025-0.209,0.092-0.396,0.106-0.615c3.885-47.718,9.588-97.646-5.565-144.026C439.023,148.816,438.093,147.417,436.966,146.315z
			 M425.241,286.973c-0.289,1.6-0.67,3.52-1.213,5.479c-1.564,5.606-4.479,11.588-10.562,11.685
			c-23.054,0.376-14.777-89.637-15.295-104.731c-0.346-10.207-4.433-30.138,4.047-38.308c22.09-21.282,25.359,36.097,25.867,44.445
			C429.684,231.628,429.913,261.197,425.241,286.973z"/>
		<path d="M42.09,145.831c-22.254,9.943-20.358,34.388-20.528,54.86c-0.267,31.334,0.751,62.711,3.072,93.955
			c0.005,0.107,0.041,0.188,0.051,0.295c-0.025,0.473-0.081,0.93-0.051,1.438c2.521,39.674,55.863,46.986,64.628,6.235
			c0.157-0.716,0.236-1.442,0.261-2.153c0.025-0.208,0.094-0.396,0.109-0.614c3.884-47.718,9.587-97.647-5.571-144.026
			C77.984,137.216,55.913,139.658,42.09,145.831z M69.011,297.8c-0.366,1.563-0.759,3.102-1.295,4.625
			c-0.074,0.147-0.143,0.295-0.247,0.523c-0.452,0.944-1.013,1.828-1.574,2.712c-0.703,1.016-0.792,1.132-0.261,0.351
			c-0.602,0.716-1.305,1.346-2.001,1.97c-0.149,0.097-0.348,0.239-0.635,0.432c-0.254,0.173-0.546,0.279-0.815,0.432
			c-0.152,0.021-0.297,0.021-0.444,0.046c-4.958,0.909-8.991,0.706-12.426-1.442c-2.143-1.341-3.605-6.81-3.875-11.064
			c-0.005-0.062-0.025-0.112-0.03-0.183c0.025-0.503,0.076-0.996,0.03-1.549c-2.544-30.88-1.825-61.541-2.788-92.438
			c-0.302-9.635-4.327-29.059,4.42-36.384c22.937-19.212,25.011,37.188,25.593,46.185C74.533,240.642,71.365,269.286,69.011,297.8z"
			/>
		<path d="M178.258,72.789c-13.411,0-13.411,20.799,0,20.799C191.669,93.588,191.669,72.789,178.258,72.789z"/>
		<path d="M296.987,71.921c-13.416,0-13.416,20.799,0,20.799S310.403,71.921,296.987,71.921z"/>
	</g>
</g>
<g>
</g>
<g>
</g>
<g>
</g>
<g>
</g>
<g>
</g>
<g>
</g>
<g>
</g>
<g>
</g>
<g>
</g>
<g>
</g>
<g>
</g>
<g>
</g>
<g>
</g>
<g>
</g>
<g>
</g>
</svg>
