<?xml version="1.0" encoding="iso-8859-1"?>
<!-- Generator: Adobe Illustrator 16.0.0, SVG Export Plug-In . SVG Version: 6.00 Build 0)  -->
<!DOCTYPE svg PUBLIC "-//W3C//DTD SVG 1.1//EN" "http://www.w3.org/Graphics/SVG/1.1/DTD/svg11.dtd">
<svg version="1.1" id="Capa_1" xmlns="http://www.w3.org/2000/svg" xmlns:xlink="http://www.w3.org/1999/xlink" x="0px" y="0px"
	 width="473.104px" height="473.104px" viewBox="0 0 473.104 473.104" style="enable-background:new 0 0 473.104 473.104;"
	 xml:space="preserve">
<g>
	<g>
		<path d="M417.933,332.114c-25.812-12.735-42.162-36.987-44.864-66.536c-2.904-31.659,10.553-61.886,35.978-80.849
			c3.555-2.653,5.672-6.312,6.119-10.593c0.473-4.53-1.051-9.285-3.925-12.53c-0.544-0.762-1.168-1.508-1.93-2.227
			c-24.877-23.504-56.143-36.439-88.037-36.439l-1.351,0.005c-15.203,0.17-30.453,3.867-45.204,7.439
			c-14.919,3.616-30.341,7.353-45.504,7.353h-0.005c-6.224,0-11.984-0.607-17.596-1.851c-36.434-20.998-68.634-25.599-95.402-13.729
			c-26.07,11.57-45.514,37.158-57.79,76.055c-10.707,33.875-13.535,74.408-8.186,117.19c6.521,52.237,31.819,92.221,58.181,127.66
			c1.508,2.026,3.417,3.595,5.674,4.672c0.498,0.487,1.019,0.965,1.623,1.406c13.015,9.526,27.594,13.97,45.872,13.97
			c11.829,0,24.014-1.854,35.802-3.646c11.755-1.797,23.907-3.641,35.67-3.641c6.833,0,12.979,0.604,18.778,1.863
			c7.227,1.555,13.858,4.357,20.281,7.069c9.715,4.107,19.764,8.348,31.936,8.348c0.006,0,0.006,0,0.006,0
			c1.168,0,2.335-0.03,3.544-0.111c16.899-1.128,34.119-9.105,51.181-23.714c30.544-26.137,49.398-63.262,64.674-96.025
			c0.832-1.787,1.325-3.656,1.447-5.555C426.804,341.245,424.087,335.151,417.933,332.114z M344.643,273.616
			c3.752,32.813,20.581,60.261,47.483,77.546c-23.119,48.393-51.252,92.724-98.995,93.688c-18.118-12.685-36.511-18.605-57.8-18.605
			c-4.603,0-9.422,0.294-14.333,0.858c-7.632,0.889-15.188,2.355-22.493,3.772c-11.316,2.199-22,4.276-32.578,4.276
			c-13.55,0-24.658-3.515-34.979-11.065c-0.135-0.102-0.274-0.188-0.437-0.279c-24.521-33.316-42.294-63.003-49.355-99.355
			c-5.923-30.463-5.814-64.063,0.305-97.157c6.505-35.129,19.096-59.752,37.415-73.188c8.158-5.979,17.237-8.887,27.751-8.887
			c14.96,0,30.295,6.177,40.527,10.821c15.485,7.03,33.129,10.742,51.036,10.742c19.014,0,37.859-4.133,54.495-11.958
			c0.401-0.188,0.746-0.396,1.265-0.724c29.939-7.886,60.118-1.394,85.462,18.263C353.408,199.216,340.433,236.842,344.643,273.616z
			"/>
		<path d="M236.528,119.814c3.077,0,5.979-0.822,8.435-2.387c89.91-19.225,114.233-66.625,118.804-103.042
			c0.635-5.053-1.152-8.282-2.757-10.108C358.602,1.559,354.834,0,350.645,0c-2.057,0-4.174,0.383-5.646,0.944
			c-0.604,0-1.219,0.022-1.864,0.111c-54.705,7.688-99.701,45.311-120.375,100.648c-1.623,4.336-1.219,8.589,1.132,11.979
			C226.506,117.463,231.353,119.814,236.528,119.814z M265.675,81.377c15.335-22.458,36.795-38.517,62.637-46.852
			C318.375,54.91,297.346,70.64,265.675,81.377z"/>
	</g>
</g>
<g>
</g>
<g>
</g>
<g>
</g>
<g>
</g>
<g>
</g>
<g>
</g>
<g>
</g>
<g>
</g>
<g>
</g>
<g>
</g>
<g>
</g>
<g>
</g>
<g>
</g>
<g>
</g>
<g>
</g>
</svg>
