<?xml version="1.0" encoding="iso-8859-1"?>
<!-- Generator: Adobe Illustrator 16.0.0, SVG Export Plug-In . SVG Version: 6.00 Build 0)  -->
<!DOCTYPE svg PUBLIC "-//W3C//DTD SVG 1.1//EN" "http://www.w3.org/Graphics/SVG/1.1/DTD/svg11.dtd">
<svg version="1.1" id="Capa_1" xmlns="http://www.w3.org/2000/svg" xmlns:xlink="http://www.w3.org/1999/xlink" x="0px" y="0px"
	 width="445.926px" height="445.926px" viewBox="0 0 445.926 445.926" style="enable-background:new 0 0 445.926 445.926;"
	 xml:space="preserve">
<g>
	<g>
		<path d="M306.003,204.114c-57.914-1.711-115.795,0.967-173.714,1.191c-4.525,0.015-7.853,1.861-10.037,4.56
			c-2.76,2.179-4.659,5.538-4.659,10.136c0.005,15.458,0.109,30.91,1.135,46.342c0.551,8.384,7.165,12.7,13.721,13.005
			c1.836,1.03,4.009,1.69,6.619,1.69c58.399,0,116.796,0.066,175.183,1.128c3.164,0.056,5.738-0.803,7.754-2.214
			c3.631-2.012,6.165-5.774,5.81-11.35c-1.087-17.331-2.234-34.662-3.393-51.988C323.731,206.178,313.682,202.025,306.003,204.114z
			 M145.344,253.917c-0.269-7.195-0.299-14.401-0.394-21.597c51.107-0.482,102.194-2.427,153.299-1.254
			c0.519,7.937,1.036,15.868,1.555,23.811C248.318,254.074,196.835,253.926,145.344,253.917z"/>
		<path d="M436.183,105.685c0.046-1.584-0.203-3.295-0.914-5.141c-8.988-23.359-18.215-46.575-31.88-67.662
			c-3.103-4.783-7.703-6.51-12.156-6.197c-0.919-0.254-1.904-0.437-2.95-0.521c-106.09-8.059-212.435-5.215-318.72-5.086
			c-6.375,0.013-10.399,3.631-12.126,8.211C37.734,47.766,21.261,69.345,6.993,92.218c-0.473,0.754-0.805,1.503-1.112,2.252
			c-2.471,2.178-4.128,5.388-4.128,9.681c-0.005,15.861-0.218,31.669-1.696,47.469c-0.12,1.318-0.036,2.499,0.145,3.616
			c-0.051,0.487-0.145,0.957-0.145,1.47c0,6.812,6.192,14.332,13.561,13.563c7.909-0.828,15.828-1.239,23.755-1.458
			c0.343,87.359,4.466,149.128-1.717,237.108c-0.307,4.326,1.138,7.562,3.484,9.734c2.168,2.961,5.507,5.149,10.077,5.525
			c115.202,9.389,230.509,0.376,345.846,0c1.427-0.005,2.696-0.249,3.884-0.584c6.389-0.492,12.629-4.799,13.071-12.984
			c4.524-84.066,5.032-144.148,5.078-225.528c6.281-0.351,12.572-1.239,18.869-2.133c6.521-0.927,10.309-8.305,9.831-14.452
			c0.062-0.66,0.152-1.3,0.127-2.016c-0.681-19.37-3.433-37.554-8.957-56.157C436.777,106.696,436.432,106.249,436.183,105.685z
			 M76.893,48.177c102.334-0.241,204.716-2.643,306.865,4.824c8.033,13.5,14.538,27.665,20.393,42.203
			C284.509,81.809,164.095,80.945,43.896,86.046C53.735,72.48,64.556,59.719,76.893,48.177z M385.541,394.16
			c-107.43,0.772-214.837,8.298-322.149,0.909c5.085-83.481,1.523-139.938,1.132-223.512c108.278-3.25,216.451,3.011,324.704,5.179
			c0.243,0.229,0.478,0.462,0.736,0.675C389.933,258.583,389.506,312.922,385.541,394.16z M413.966,155.193
			c-2.158-3.029-5.596-5.192-10.42-5.271c-112.487-1.836-224.88-8.815-337.391-5.533c-2.11-1.79-4.908-2.945-8.46-2.945
			c-9.953,0-19.883,0.117-29.8,0.635c0.604-9.394,0.794-18.801,0.883-28.218c128.219-5.949,256.73-5.591,384.334,9.379
			c2.615,10.483,4.321,20.952,5.169,31.758C416.841,155.112,415.399,155.178,413.966,155.193z"/>
	</g>
</g>
<g>
</g>
<g>
</g>
<g>
</g>
<g>
</g>
<g>
</g>
<g>
</g>
<g>
</g>
<g>
</g>
<g>
</g>
<g>
</g>
<g>
</g>
<g>
</g>
<g>
</g>
<g>
</g>
<g>
</g>
</svg>
