<?xml version="1.0" encoding="iso-8859-1"?>
<!-- Generator: Adobe Illustrator 16.0.0, SVG Export Plug-In . SVG Version: 6.00 Build 0)  -->
<!DOCTYPE svg PUBLIC "-//W3C//DTD SVG 1.1//EN" "http://www.w3.org/Graphics/SVG/1.1/DTD/svg11.dtd">
<svg version="1.1" id="Capa_1" xmlns="http://www.w3.org/2000/svg" xmlns:xlink="http://www.w3.org/1999/xlink" x="0px" y="0px"
	 width="428.691px" height="428.691px" viewBox="0 0 428.691 428.691" style="enable-background:new 0 0 428.691 428.691;"
	 xml:space="preserve">
<g>
	<g>
		<path d="M414.971,250.181c-0.69-7.622-6.398-11.893-12.385-12.797c-4.58-2.549-10.4-2.635-15.249,2.139
			c-10.024,9.887-20.099,19.702-30.763,28.894c-11.481-10.964-38.044-38.146-53.197-55.998
			c19.119-17.362,44.514-42.051,56.579-53.865c7.587,7,14.894,14.284,22.15,21.637c2.823,2.859,6.017,3.994,9.114,3.966
			c8.064,3.91,19.891,0.203,19.592-11.372c-1.382-53.24-0.219-106.465,1.111-159.697c0.274-10.94-10.298-15.033-18.271-12.235
			C345.834,5.189,298,9.386,250.176,13.728c-7.617,0.69-11.893,6.4-12.797,12.385c-2.549,4.578-2.631,10.4,2.147,15.242
			c9.882,10.026,19.708,20.096,28.889,30.762c-10.729,11.248-37.054,36.991-54.905,52.286c-17.517-19.047-42.69-44.59-54.692-56.675
			c6.941-7.632,14.18-14.99,21.487-22.3c2.839-2.847,3.946-6.048,3.9-9.143c3.852-8.089,0.066-19.893-11.509-19.509
			c-53.225,1.751-106.459,0.962-159.697,0C2.058,16.577-1.961,27.174,0.89,35.126c4.664,47.791,9.201,95.593,13.873,143.384
			c0.742,7.612,6.482,11.844,12.474,12.708c4.59,2.519,10.415,2.56,15.229-2.25c9.953-9.953,19.959-19.845,30.554-29.104
			c11.273,10.613,37.034,36.577,52.468,54.314c-19.152,17.545-45.448,43.457-57.76,55.69c-7.635-6.941-14.993-14.178-22.302-21.485
			c-2.846-2.844-6.048-3.945-9.143-3.899c-8.094-3.85-19.893-0.066-19.51,11.507c1.747,53.232,0.962,106.465,0,159.707
			c-0.203,10.938,10.4,14.96,18.352,12.105c47.792-4.666,95.593-9.201,143.384-13.878c7.607-0.741,11.844-6.484,12.708-12.472
			c2.519-4.59,2.56-10.42-2.25-15.233c-9.953-9.953-19.842-19.956-29.104-30.56c10.832-11.512,37.658-38.095,55.403-53.399
			c17.405,19.235,42.825,45.382,54.87,57.686c-6.997,7.587-14.284,14.894-21.643,22.15c-2.858,2.823-3.991,6.022-3.966,9.12
			c-3.91,8.063-0.208,19.885,11.375,19.585c53.237-1.376,106.465-0.218,159.697,1.112c10.938,0.274,15.03-10.293,12.238-18.266
			C423.507,345.835,419.312,298,414.971,250.181z M296.283,81.684c6.886-7.488,3.169-17.179-3.438-21.312
			c-0.523-1.171-1.168-2.331-2.098-3.443c-5.301-6.36-10.877-12.474-16.569-18.481c36.831-3.311,73.661-6.588,110.492-9.915
			c-0.909,38.425-1.569,76.848-1.184,115.28c-4.377-4.156-8.815-8.247-13.405-12.185c-3.778-3.235-8.055-3.91-11.924-3.047
			c-3.336-0.29-6.845,0.787-9.947,3.849c-14.772,14.558-51.146,50.129-68.192,65.003c-0.782,0.213-1.528,0.492-2.265,0.814
			c-14.975-16.135-30.32-31.92-45.748-47.629c0-1.919-0.513-3.785-1.381-5.517C247.732,130.838,282.801,96.354,296.283,81.684z
			 M213.563,256.792c-14.125-14.178-28.147-28.446-41.906-42.975c14.289-14.231,28.673-28.371,43.315-42.233
			c14.129,14.394,28.15,28.886,41.896,43.64C242.589,229.245,228.208,243.148,213.563,256.792z M82.392,131.94
			c-7.536-6.833-17.202-3.046-21.29,3.583c-1.168,0.531-2.318,1.186-3.425,2.123c-6.325,5.35-12.403,10.966-18.367,16.697
			c-3.572-36.806-7.102-73.616-10.684-110.418c38.43,0.64,76.857,1.033,115.285,0.373c-4.124,4.405-8.186,8.876-12.086,13.495
			c-3.207,3.795-3.856,8.074-2.963,11.943c-0.267,3.333,0.833,6.837,3.915,9.922c14.226,14.236,48.441,48.73,64.155,66.239
			c0.147,1.633,0.556,3.21,1.176,4.695c-16.026,15.112-31.715,30.566-47.314,46.113c-1.459-0.02-2.894,0.249-4.263,0.754
			C132.305,180.575,97.242,145.41,82.392,131.94z M131.935,346.307c-6.833,7.536-3.047,17.204,3.583,21.292
			c0.536,1.168,1.186,2.315,2.123,3.423c5.35,6.327,10.961,12.405,16.696,18.367c-36.805,3.574-73.615,7.104-110.418,10.684
			c0.64-38.43,1.033-76.855,0.373-115.285c4.405,4.123,8.876,8.186,13.495,12.091c3.796,3.209,8.074,3.859,11.943,2.966
			c3.333,0.264,6.837-0.833,9.922-3.916c14.533-14.527,50.14-49.835,67.275-65.074c1.143-0.081,2.268-0.259,3.354-0.578
			c15.551,16.503,31.474,32.651,47.489,48.718c0.167,0.787,0.406,1.569,0.719,2.315C182.042,294.923,145.678,331.15,131.935,346.307
			z M284.883,383.499c4.154-4.377,8.247-8.82,12.188-13.411c3.229-3.772,3.91-8.049,3.047-11.923
			c0.289-3.326-0.787-6.846-3.844-9.948c-14.844-15.051-51.521-52.567-65.856-69.167c-0.087-0.345-0.127-0.695-0.233-1.03
			c16.625-15.422,32.88-31.235,49.053-47.129c1.198-0.279,2.346-0.777,3.438-1.387c13.635,16.646,49.349,52.994,64.344,66.775
			c7.49,6.886,17.179,3.169,21.312-3.438c1.178-0.523,2.33-1.168,3.442-2.092c6.368-5.307,12.477-10.878,18.483-16.575
			c3.312,36.831,6.587,73.661,9.913,110.487C361.743,383.767,323.323,383.102,284.883,383.499z"/>
	</g>
</g>
<g>
</g>
<g>
</g>
<g>
</g>
<g>
</g>
<g>
</g>
<g>
</g>
<g>
</g>
<g>
</g>
<g>
</g>
<g>
</g>
<g>
</g>
<g>
</g>
<g>
</g>
<g>
</g>
<g>
</g>
</svg>
