<?xml version="1.0" encoding="iso-8859-1"?>
<!-- Generator: Adobe Illustrator 16.0.0, SVG Export Plug-In . SVG Version: 6.00 Build 0)  -->
<!DOCTYPE svg PUBLIC "-//W3C//DTD SVG 1.1//EN" "http://www.w3.org/Graphics/SVG/1.1/DTD/svg11.dtd">
<svg version="1.1" id="Capa_1" xmlns="http://www.w3.org/2000/svg" xmlns:xlink="http://www.w3.org/1999/xlink" x="0px" y="0px"
	 width="429.66px" height="429.66px" viewBox="0 0 429.66 429.66" style="enable-background:new 0 0 429.66 429.66;"
	 xml:space="preserve">
<g>
	<g>
		<path d="M417.252,194.851l-1-0.447L253.584,13.661c-3.509-3.9-7.495-5.875-11.862-5.875c-9.354,0-18.382,9.164-18.956,19.22
			l-0.289,1.549c-0.168,0.686-0.351,1.368-0.427,2.123c-2.382,23.034-2.885,45.524-3.052,64.493l-0.046,5.152H21.736
			c-11.024,0-15.153,7.223-16.636,11.524l-0.328,0.967l-0.67,0.764C1.378,116.688,0,120.603,0,125.224v179.217
			c0,4.62,1.378,8.541,4.098,11.644l0.67,0.767l0.328,0.965c1.482,4.307,5.611,11.527,16.635,11.527h197.221l0.046,5.154
			c0.167,18.966,0.67,41.461,3.052,64.475c0.076,0.762,0.259,1.442,0.427,2.133l0.289,1.559c0.568,10.055,9.603,19.21,18.956,19.21
			c4.362,0,8.349-1.98,11.862-5.88l162.668-180.745l1-0.447c7.638-3.428,12.842-11.705,12.38-19.677l-0.021-0.294l0.021-0.302
			C430.094,206.556,424.89,198.283,417.252,194.851z M256.514,357.333l-0.219-13.223c-0.183-11.105-0.254-22.211-0.254-33.332
			c-0.01-12.278-9.333-17.783-18.58-17.783v-5.18l-0.116,5.18l-0.65,0.011l-0.619-0.157c-1.788-0.438-3.356-0.641-4.941-0.641
			H37.138V137.454h193.996c1.595,0,3.153-0.203,4.931-0.64l0.63-0.149h0.64c9.374,0,18.697-5.497,18.707-17.778
			c0-11.118,0.071-22.229,0.254-33.337l0.219-13.223l128.25,142.503L256.514,357.333z"/>
	</g>
</g>
<g>
</g>
<g>
</g>
<g>
</g>
<g>
</g>
<g>
</g>
<g>
</g>
<g>
</g>
<g>
</g>
<g>
</g>
<g>
</g>
<g>
</g>
<g>
</g>
<g>
</g>
<g>
</g>
<g>
</g>
</svg>
