<?xml version="1.0" encoding="iso-8859-1"?>
<!-- Generator: Adobe Illustrator 16.0.0, SVG Export Plug-In . SVG Version: 6.00 Build 0)  -->
<!DOCTYPE svg PUBLIC "-//W3C//DTD SVG 1.1//EN" "http://www.w3.org/Graphics/SVG/1.1/DTD/svg11.dtd">
<svg version="1.1" id="Capa_1" xmlns="http://www.w3.org/2000/svg" xmlns:xlink="http://www.w3.org/1999/xlink" x="0px" y="0px"
	 width="82.631px" height="82.631px" viewBox="0 0 82.631 82.631" style="enable-background:new 0 0 82.631 82.631;"
	 xml:space="preserve">
<g>
	<g>
		<path d="M77.438,42.842l-0.305-0.058c-0.131-0.032-0.261-0.067-0.403-0.082c-4.432-0.458-8.755-0.553-12.4-0.586l-0.991-0.009
			V4.179c0-2.119-1.389-2.914-2.217-3.198l-0.186-0.064l-0.147-0.129C60.19,0.266,59.437,0,58.548,0H24.083
			c-0.889,0-1.643,0.265-2.24,0.788l-0.148,0.129l-0.186,0.064c-0.828,0.285-2.217,1.079-2.217,3.198v37.928l-0.991,0.009
			c-3.646,0.033-7.97,0.128-12.399,0.586c-0.145,0.015-0.274,0.05-0.405,0.082l-0.304,0.058c-1.529,0.086-3.01,1.203-3.521,2.656
			c-0.294,0.835-0.366,2.079,0.956,3.27l34.76,31.283l0.086,0.191c0.658,1.467,2.211,2.48,3.784,2.382l0.057-0.004l0.058,0.004
			c1.567,0.099,3.126-0.915,3.784-2.382l0.086-0.191l0.157-0.142l34.603-31.142c1.322-1.19,1.25-2.436,0.956-3.271
			C80.447,44.045,78.966,42.928,77.438,42.842z M41.315,73.995L13.91,49.331l2.543-0.042c2.136-0.035,4.272-0.049,6.411-0.049
			c0.991,0,1.8-0.309,2.404-0.917c0.65-0.654,1.021-1.631,1.015-2.681l-0.001-0.123l0.029-0.119c0.084-0.344,0.123-0.645,0.123-0.95
			V7.141h29.762V44.45c0,0.306,0.039,0.606,0.123,0.95l0.029,0.119l-0.001,0.123c-0.007,1.05,0.363,2.025,1.015,2.681
			c0.604,0.608,1.413,0.917,2.404,0.917c2.139,0,4.274,0.014,6.41,0.049l2.543,0.042L41.315,73.995z"/>
	</g>
</g>
<g>
</g>
<g>
</g>
<g>
</g>
<g>
</g>
<g>
</g>
<g>
</g>
<g>
</g>
<g>
</g>
<g>
</g>
<g>
</g>
<g>
</g>
<g>
</g>
<g>
</g>
<g>
</g>
<g>
</g>
</svg>
