<?xml version="1.0" encoding="iso-8859-1"?>
<!-- Generator: Adobe Illustrator 16.0.0, SVG Export Plug-In . SVG Version: 6.00 Build 0)  -->
<!DOCTYPE svg PUBLIC "-//W3C//DTD SVG 1.1//EN" "http://www.w3.org/Graphics/SVG/1.1/DTD/svg11.dtd">
<svg version="1.1" id="Capa_1" xmlns="http://www.w3.org/2000/svg" xmlns:xlink="http://www.w3.org/1999/xlink" x="0px" y="0px"
	 width="462.739px" height="462.739px" viewBox="0 0 462.739 462.739" style="enable-background:new 0 0 462.739 462.739;"
	 xml:space="preserve">
<g>
	<g>
		<path d="M424.429,229.257c0.513-1.869,0.437-4.037-0.533-6.47c-21.5-54.009-46.327-106.546-70.025-159.605
			c-2.544-5.692-7.511-6.871-11.979-5.367c-1.106-0.27-2.311-0.422-3.671-0.32c-34.078,2.56-68.207,4.012-102.347,5.2V11.102
			c0-14.802-22.958-14.802-22.958,0v52.369c-32.209,1.046-64.429,2.016-96.614,3.59c-1.503,0.071-2.813,0.426-4.012,0.914
			c-3.768,0.696-7.271,3.047-8.973,7.515c-20.693,54.527-41.4,109.055-62.683,163.358c-5.286,2.742-8.82,9.044-5.032,15.742
			c15.935,28.143,37.983,50.531,71.132,54.71c31.499,3.966,56.762-22.652,71.127-47.053c1.955-3.32,2.036-6.545,0.995-9.292
			c-0.224-1.768-0.741-3.489-1.671-4.977c-0.035-0.112-0.041-0.209-0.081-0.32c-18.372-51.907-34.429-104.418-46.037-158.245
			c27.269-1.198,54.553-2.102,81.842-2.991v304.451c-30.65,4.687-60.169,18.768-84.162,42.543c-1.823,1.808-2.803,3.788-3.189,5.778
			c-4.758,6.043-4.154,16.062,5.382,17.707c69.396,11.969,138.548,2.371,208.223-1.025c12.232-0.6,14.319-16.474,6.23-21.455
			c-30.498-30.087-70.04-45.331-109.532-45.311V85.646c29.391-1.021,58.783-2.285,88.133-4.24
			c-10.323,51.115-21.068,102.134-33.205,152.857c-0.051,0.224-0.051,0.432-0.091,0.655c-2.936,4.067-3.469,9.76,1.132,14.345
			c19.987,19.896,43.082,35.404,72.193,35.054c27.081-0.32,47.733-20.855,62.53-41.203
			C430.537,237.655,428.557,232.339,424.429,229.257z M106.75,286.344c-15.914-0.366-28.929-11.594-38.892-24.421
			c26.568,2.037,53.156,3.301,79.795,3.799C137.446,278.071,124.523,286.75,106.75,286.344z M151.233,242.815
			c-28.731-0.457-57.407-1.813-86.046-4.062c16.214-41.478,32.108-83.076,47.926-124.71
			C123.391,157.662,136.532,200.439,151.233,242.815z M309.717,434.717c-50.271,3.483-100.635,8.414-150.745,3.057
			C203.811,404.117,263.832,403.635,309.717,434.717z M326.205,247.974c22.089-0.695,44.188-0.964,66.298-1.04
			C371.79,264.229,348.568,262.721,326.205,247.974z M316.42,225.372c9.958-42.568,19.037-85.33,27.756-128.163
			c19.018,42.036,38.304,83.939,55.543,126.751C371.947,224.031,344.176,224.336,316.42,225.372z"/>
	</g>
</g>
<g>
</g>
<g>
</g>
<g>
</g>
<g>
</g>
<g>
</g>
<g>
</g>
<g>
</g>
<g>
</g>
<g>
</g>
<g>
</g>
<g>
</g>
<g>
</g>
<g>
</g>
<g>
</g>
<g>
</g>
</svg>
