<?xml version="1.0" encoding="iso-8859-1"?>
<!-- Generator: Adobe Illustrator 16.0.0, SVG Export Plug-In . SVG Version: 6.00 Build 0)  -->
<!DOCTYPE svg PUBLIC "-//W3C//DTD SVG 1.1//EN" "http://www.w3.org/Graphics/SVG/1.1/DTD/svg11.dtd">
<svg version="1.1" id="Capa_1" xmlns="http://www.w3.org/2000/svg" xmlns:xlink="http://www.w3.org/1999/xlink" x="0px" y="0px"
	 width="495.65px" height="495.65px" viewBox="0 0 495.65 495.65" style="enable-background:new 0 0 495.65 495.65;"
	 xml:space="preserve">
<g>
	<g>
		<path d="M266.432,14.731c-1.087-0.328-2.234-0.562-3.474-0.645c-1.36-0.094-2.717-0.109-4.077-0.175
			c-20.025-2.148-40.027-3.064-59.491-2.986c-7.472,0.025-11.969,4.913-13.591,10.827C92.819,46.42,11.609,125.019,1.225,231.441
			c-11.634,119.16,60.801,219.476,167.446,245.733c91.018,22.409,194.842-5.885,263.592-73.504
			c75.159-73.92,85.65-210.802,19.799-295.649C406.127,48.832,336.605,23.437,266.432,14.731z M290.557,445.929
			C193.063,469.42,82.736,434.57,42.684,329.873c-57.366-149.958,73.743-286.37,209.304-284.539
			c102.969,11.443,203.959,60.796,213.201,186.772C473.588,346.701,387.146,422.652,290.557,445.929z"/>
		<path d="M353.037,356.384c-76.062-57.473-157.483-108.435-226.112-174.872c-1.803-1.742-3.737-2.836-5.698-3.464
			c-6.053-6.162-17.26-7.596-22.683,2.08c-37.019,66.023-19.972,141.828,34.761,192.801c59.689,55.588,153.724,57.056,218.29,9.343
			c0.233-0.178,0.406-0.386,0.629-0.568C359.603,376.773,362.619,363.631,353.037,356.384z M153.678,352.891
			c-42.244-35.982-57.094-92.577-37.699-142.447c63.097,58.914,135.785,106.287,205.249,157.534
			C267.559,398.593,202.079,394.114,153.678,352.891z"/>
		<path d="M337.91,120.076c-63.83-39.425-142.717-36.77-198.501,14.95c-8.173,7.581-3.971,17.897,3.605,22.125
			c1.107,1.706,2.661,3.28,4.829,4.56c82.522,48.804,153.002,113.65,228.553,171.783c9.521,7.316,21.713,1.173,24.725-7.084
			c0.121-0.26,0.289-0.473,0.4-0.747C432.406,252.276,407.519,163.076,337.91,120.076z M379.879,300.298
			c-67.771-53.385-132.541-110.812-206.28-156.221c44.277-30.913,103.694-30.872,149.66,0.396
			C375.914,180.295,396.641,241.559,379.879,300.298z"/>
	</g>
</g>
<g>
</g>
<g>
</g>
<g>
</g>
<g>
</g>
<g>
</g>
<g>
</g>
<g>
</g>
<g>
</g>
<g>
</g>
<g>
</g>
<g>
</g>
<g>
</g>
<g>
</g>
<g>
</g>
<g>
</g>
</svg>
