<?xml version="1.0" encoding="iso-8859-1"?>
<!-- Generator: Adobe Illustrator 16.0.0, SVG Export Plug-In . SVG Version: 6.00 Build 0)  -->
<!DOCTYPE svg PUBLIC "-//W3C//DTD SVG 1.1//EN" "http://www.w3.org/Graphics/SVG/1.1/DTD/svg11.dtd">
<svg version="1.1" id="Capa_1" xmlns="http://www.w3.org/2000/svg" xmlns:xlink="http://www.w3.org/1999/xlink" x="0px" y="0px"
	 width="419.943px" height="419.943px" viewBox="0 0 419.943 419.943" style="enable-background:new 0 0 419.943 419.943;"
	 xml:space="preserve">
<g>
	<g>
		<path d="M91.413,14.591c-2.026-1.737-4.72-2.864-8.158-2.864c-21.678,0-43.346,0.119-64.998,1.3
			C10.66,13.444,6.547,19.07,5.861,24.981c-0.328,1.125-0.574,2.311-0.604,3.646C3.833,90.969,1.383,153.289,0.416,215.639
			c-0.482,31.194-0.602,62.393-0.051,93.587c0.284,16.118,0.744,32.225,1.429,48.332c0.5,11.842-7.213,41.559,12.563,41.559
			c0.467,0,0.909-0.092,1.369-0.143c0.421,0.03,0.79,0.143,1.231,0.143c23.43-0.102,46.809-1.306,70.198-2.601
			c7.432-0.411,11.545-5.809,12.36-11.577c0.375-1.224,0.64-2.534,0.64-4.021c-0.036-118.297-1.264-236.594-1.3-354.89
			C98.854,20.114,95.6,16.333,91.413,14.591z M28.542,372.939c-5.715-111.478-0.328-222.979,2.455-334.464
			c13.954-0.516,27.916-0.65,41.883-0.698c0.109,111.146,1.155,222.288,1.25,333.436C58.941,372.01,43.751,372.66,28.542,372.939z"
			/>
		<path d="M209.049,102.471c-1.722-1.186-3.758-2.054-6.198-2.346c-21.256-2.56-42.363-3.558-63.698-1.3
			c-5.273,0.556-8.856,3.598-10.773,7.414c-1.265,1.854-2.112,4.118-2.227,6.886c-3.603,90.576,0.784,181.416-9.1,271.717
			c-2.735,25.354,58.711,15.574,72.798,15.574c8.518,0,12.682-6.703,12.553-13.305c0.193-0.736,0.368-1.478,0.447-2.295
			c8.599-89.936,4.451-180.545,14.297-270.392C217.895,107.655,214.015,103.712,209.049,102.471z M177.685,374.417h-33.586
			c8.138-83.269,4.913-167,7.686-250.53c12.807-0.622,25.558-0.206,38.331,0.912C181.979,207.783,184.756,291.352,177.685,374.417z"
			/>
		<path d="M310.914,182.495c-0.868-0.234-1.782-0.404-2.768-0.472c-18.677-1.335-37.323-2.798-55.898-5.2
			c-6.992-0.903-10.964,3.215-12.035,8.42c-1.335,1.896-2.204,4.268-2.265,7.18c-1.311,65.445-2.691,130.885-5.199,196.295
			c-0.392,10.231,9.13,14.167,16.767,11.907c1.539,0.676,3.306,1.082,5.332,1.092c16.042,0.092,32.058,1.219,48.099,1.3
			c7.17,0.036,11.248-4.702,12.289-10.141c1.178-1.828,1.955-4.057,2.011-6.759c1.371-63.724,3.899-127.411,6.5-191.094
			C324.096,186.488,317.535,182.335,310.914,182.495z M291.485,376.804c-10.76-0.315-21.521-0.828-32.291-1.006
			c2.067-57.198,3.356-114.406,4.51-171.63c11.166,1.234,22.354,2.158,33.555,3.016C294.963,263.712,292.795,320.24,291.485,376.804
			z"/>
		<path d="M406.917,291.813c-1.183-0.346-2.442-0.595-3.874-0.595c-12.792,0-25.583,0.092-38.334,1.158
			c-7.592-2.479-17.564,1.457-17.564,11.842v85.798c0,3.859,1.416,6.784,3.539,8.871c1.295,5.062,5.281,9.328,12.061,9.328h44.198
			c7.947,0,12.081-5.845,12.492-11.984c0.294-1.117,0.508-2.295,0.508-3.615c0-29.478-0.112-58.94-1.3-88.397
			C418.338,296.633,412.803,292.514,406.917,291.813z M373.144,382.217v-64.439c6.632-0.346,13.269-0.447,19.916-0.503
			c0.654,21.643,0.802,43.29,0.843,64.942H373.144z"/>
	</g>
</g>
<g>
</g>
<g>
</g>
<g>
</g>
<g>
</g>
<g>
</g>
<g>
</g>
<g>
</g>
<g>
</g>
<g>
</g>
<g>
</g>
<g>
</g>
<g>
</g>
<g>
</g>
<g>
</g>
<g>
</g>
</svg>
