<?xml version="1.0" encoding="iso-8859-1"?>
<!-- Generator: Adobe Illustrator 16.0.0, SVG Export Plug-In . SVG Version: 6.00 Build 0)  -->
<!DOCTYPE svg PUBLIC "-//W3C//DTD SVG 1.1//EN" "http://www.w3.org/Graphics/SVG/1.1/DTD/svg11.dtd">
<svg version="1.1" id="Capa_1" xmlns="http://www.w3.org/2000/svg" xmlns:xlink="http://www.w3.org/1999/xlink" x="0px" y="0px"
	 width="426.494px" height="426.494px" viewBox="0 0 426.494 426.494" style="enable-background:new 0 0 426.494 426.494;"
	 xml:space="preserve">
<g>
	<g>
		<path d="M33.288,356.276c-1.061-115.321,2.76-230.665-1.841-345.93C30.912-3.055,9.026-2.306,9.566,11.1
			c4.606,115.265,0.779,230.611,1.841,345.927C11.526,370.448,33.408,369.671,33.288,356.276z"/>
		<path d="M146.395,10.148c-0.536-13.401-22.422-12.657-21.881,0.754c4.608,115.265,0.774,230.616,1.841,345.927
			c0.124,13.427,22.005,12.645,21.886-0.751C147.174,240.766,150.996,125.413,146.395,10.148z"/>
		<path d="M235.816,355.925c-1.062-115.316,2.762-230.665-1.844-345.93c-0.533-13.398-22.419-12.649-21.878,0.754
			c4.608,115.265,0.777,230.616,1.841,345.933C214.057,370.098,235.938,369.321,235.816,355.925z"/>
		<path d="M191.229,356.205c-1.894-115.286-0.297-230.558-4.717-345.828c-0.513-13.401-16.125-12.87-15.61,0.536
			c4.42,115.27,2.823,230.545,4.717,345.831C175.837,370.164,191.447,369.595,191.229,356.205z"/>
		<path d="M414.606,9.686c-0.533-13.401-22.419-12.657-21.881,0.751c4.605,115.265,0.777,230.619,1.844,345.93
			c0.121,13.427,22.002,12.64,21.886-0.751C415.388,240.299,419.207,124.951,414.606,9.686z"/>
		<path d="M351.533,10.605c4.418,115.27,2.823,230.542,4.718,345.828c0.218,13.421,15.827,12.857,15.609-0.533
			c-1.895-115.286-0.295-230.561-4.718-345.831C366.629-3.332,351.02-2.806,351.533,10.605z"/>
		<path d="M104.443,356.154c-1.062-115.316,2.765-230.665-1.841-345.93c-0.541-13.398-49.79-12.604-49.259,0.802
			c4.608,115.265,0.779,230.619,1.841,345.929C55.319,370.377,104.573,369.544,104.443,356.154z"/>
		<path d="M328.865,355.762c-1.057-115.315,2.762-230.662-1.839-345.927c-0.538-13.4-71.681-12.568-71.147,0.838
			c4.606,115.265,0.777,230.611,1.839,345.927C257.844,370.027,328.992,369.159,328.865,355.762z"/>
		<path d="M40.021,380.807c-16.338-8.77-37.917,48.672,0.114,45.564c10.448-0.853,15.559-7.83,16.298-16.432
			c0.125-1.473,0.125-3.002,0-4.556C55.481,393.761,50.437,386.403,40.021,380.807z M39.58,410.635
			c-0.178,0.188-0.368,0.37-0.561,0.548c-0.015,0-0.02,0.006-0.02,0.006c0.145-0.234-0.203-0.107-0.396,0.005
			c-0.119-0.03-0.233-0.062-0.437-0.106c-1.186-0.26-1.716-0.519-2.549-0.97c-1.94-4.662-1.127-8.72,1.427-12.37
			c2.354,3.447,3.326,7.362,3.141,11.821C39.897,410.005,39.539,410.599,39.58,410.635z"/>
		<path d="M110.74,380.807c-16.333-8.77-37.917,48.672,0.114,45.564c10.446-0.853,15.564-7.83,16.301-16.432
			c0.127-1.473,0.119-3.002-0.005-4.556C126.2,393.761,121.16,386.403,110.74,380.807z M110.298,410.635
			c-0.183,0.188-0.376,0.37-0.562,0.548c-0.022,0-0.028,0.006-0.028,0.006c0.152-0.234-0.195-0.107-0.393,0.005
			c-0.12-0.03-0.234-0.062-0.437-0.106c-1.186-0.26-1.716-0.519-2.549-0.97c-1.939-4.662-1.127-8.72,1.425-12.37
			c2.356,3.447,3.328,7.362,3.146,11.821C110.616,410.005,110.25,410.599,110.298,410.635z"/>
		<path d="M181.463,380.807c-16.338-8.77-37.922,48.672,0.114,45.564c10.44-0.853,15.557-7.83,16.295-16.432
			c0.125-1.473,0.125-3.002,0-4.556C196.916,393.761,191.878,386.403,181.463,380.807z M181.017,410.635
			c-0.183,0.188-0.371,0.37-0.563,0.548c-0.015,0-0.021,0.006-0.021,0.006c0.147-0.234-0.203-0.107-0.398,0.005
			c-0.122-0.03-0.236-0.062-0.439-0.106c-1.183-0.26-1.708-0.519-2.546-0.97c-1.94-4.662-1.122-8.72,1.429-12.37
			c2.351,3.447,3.329,7.362,3.141,11.821C181.334,410.005,180.968,410.599,181.017,410.635z"/>
		<path d="M252.171,380.807c-16.335-8.77-37.919,48.672,0.117,45.564c10.445-0.853,15.559-7.83,16.295-16.432
			c0.127-1.473,0.127-3.002,0-4.556C267.634,393.761,262.592,386.403,252.171,380.807z M251.725,410.635
			c-0.173,0.188-0.366,0.37-0.559,0.548c-0.016,0-0.021,0.006-0.021,0.006c0.143-0.234-0.203-0.107-0.396,0.005
			c-0.127-0.03-0.234-0.062-0.438-0.106c-1.188-0.26-1.716-0.519-2.549-0.97c-1.939-4.662-1.127-8.72,1.427-12.37
			c2.356,3.447,3.326,7.362,3.139,11.821C252.05,410.005,251.689,410.599,251.725,410.635z"/>
		<path d="M322.893,380.807c-16.336-8.77-37.918,48.672,0.111,45.564c10.45-0.853,15.564-7.83,16.306-16.432
			c0.122-1.473,0.116-3.002-0.005-4.556C338.35,393.761,333.313,386.403,322.893,380.807z M322.446,410.635
			c-0.178,0.188-0.371,0.37-0.559,0.548c-0.021,0-0.025,0.006-0.025,0.006c0.152-0.234-0.198-0.107-0.396,0.005
			c-0.116-0.03-0.233-0.062-0.437-0.106c-1.183-0.26-1.716-0.519-2.544-0.97c-1.939-4.662-1.132-8.72,1.422-12.37
			c2.356,3.447,3.326,7.362,3.148,11.821C322.76,410.005,322.405,410.599,322.446,410.635z"/>
		<path d="M393.609,380.807c-16.336-8.77-37.923,48.672,0.116,45.564c10.44-0.853,15.56-7.83,16.296-16.432
			c0.127-1.473,0.127-3.002-0.005-4.556C409.066,393.761,404.024,386.403,393.609,380.807z M393.167,410.635
			c-0.183,0.188-0.365,0.37-0.559,0.548c-0.015,0-0.02,0.006-0.02,0.006c0.142-0.234-0.203-0.107-0.401,0.005
			c-0.122-0.03-0.233-0.062-0.437-0.106c-1.188-0.26-1.712-0.519-2.55-0.97c-1.939-4.662-1.122-8.72,1.433-12.37
			c2.346,3.447,3.326,7.362,3.138,11.821C393.487,410.005,393.122,410.599,393.167,410.635z"/>
	</g>
</g>
<g>
</g>
<g>
</g>
<g>
</g>
<g>
</g>
<g>
</g>
<g>
</g>
<g>
</g>
<g>
</g>
<g>
</g>
<g>
</g>
<g>
</g>
<g>
</g>
<g>
</g>
<g>
</g>
<g>
</g>
</svg>
