<?xml version="1.0" encoding="iso-8859-1"?>
<!-- Generator: Adobe Illustrator 16.0.0, SVG Export Plug-In . SVG Version: 6.00 Build 0)  -->
<!DOCTYPE svg PUBLIC "-//W3C//DTD SVG 1.1//EN" "http://www.w3.org/Graphics/SVG/1.1/DTD/svg11.dtd">
<svg version="1.1" id="Capa_1" xmlns="http://www.w3.org/2000/svg" xmlns:xlink="http://www.w3.org/1999/xlink" x="0px" y="0px"
	 width="476.65px" height="476.651px" viewBox="0 0 476.65 476.651" style="enable-background:new 0 0 476.65 476.651;"
	 xml:space="preserve">
<g>
	<g>
		<path d="M469.683,191.007c-1.828-3.956-5.534-6.972-11.228-6.972c-9.881,0-19.723,0.167-29.554,0.924
			c-0.269-2.904-0.482-5.819-0.776-8.724c-0.082-0.833-0.27-1.6-0.473-2.347c-0.249-6.296-4.397-12.4-12.527-12.39
			c-118.449,0.192-236.936,6.565-355.321,0c-2.973-0.168-5.388,0.543-7.299,1.782c-13.183,0.106-26.355,0.467-39.499,1.681
			c-8.366,0.771-12.527,7.8-12.454,14.365c-0.333,1.184-0.562,2.428-0.551,3.845c0.259,33.189,4.067,86.812,9.13,119.586
			c1.196,7.724,7.307,10.253,13.218,9.125c0.874,0.214,1.795,0.366,2.783,0.417c131.128,6.55,262.298,0.116,393.457-1.732
			c4.403-0.061,7.612-1.924,9.704-4.596c2.961-2.062,5.048-5.407,5.027-10.135c-0.015-3.773-0.178-7.531-0.238-11.294
			c10.217-0.076,20.418-0.37,30.569-1.706c7.027-0.924,13-5.215,13-13c0-0.538-0.097-1.086-0.184-1.635
			c0.082-0.604,0.184-1.178,0.184-1.828v-64.14C476.655,196.547,473.639,192.835,469.683,191.007z M32.896,286.6
			c-3.631-25.156-6.121-71.163-6.692-96.583c13.492-0.726,27.007-0.777,40.527-0.777c2.158,0,4.024-0.442,5.626-1.193
			c110.215,5.292,220.506,0.066,330.774-0.482c2.285,25.42,3.626,71.675,4.017,97.193C282.396,286.752,157.628,292.354,32.896,286.6
			z M450.656,257.996c-6.084,0.361-12.178,0.514-18.276,0.544c-0.381-8.983-0.812-38.761-1.417-47.733
			c6.557-0.446,13.122-0.604,19.693-0.686V257.996z"/>
	</g>
</g>
<g>
</g>
<g>
</g>
<g>
</g>
<g>
</g>
<g>
</g>
<g>
</g>
<g>
</g>
<g>
</g>
<g>
</g>
<g>
</g>
<g>
</g>
<g>
</g>
<g>
</g>
<g>
</g>
<g>
</g>
</svg>
