<?xml version="1.0" encoding="iso-8859-1"?>
<!-- Generator: Adobe Illustrator 16.0.0, SVG Export Plug-In . SVG Version: 6.00 Build 0)  -->
<!DOCTYPE svg PUBLIC "-//W3C//DTD SVG 1.1//EN" "http://www.w3.org/Graphics/SVG/1.1/DTD/svg11.dtd">
<svg version="1.1" id="Capa_1" xmlns="http://www.w3.org/2000/svg" xmlns:xlink="http://www.w3.org/1999/xlink" x="0px" y="0px"
	 width="476.65px" height="476.651px" viewBox="0 0 476.65 476.651" style="enable-background:new 0 0 476.65 476.651;"
	 xml:space="preserve">
<g>
	<g>
		<path d="M469.683,191.007c-1.828-3.956-5.534-6.972-11.228-6.972c-9.881,0-19.723,0.167-29.554,0.924
			c-0.269-2.904-0.482-5.819-0.776-8.724c-0.082-0.833-0.27-1.6-0.473-2.347c-0.249-6.296-4.397-12.4-12.527-12.39
			c-118.449,0.192-236.936,6.565-355.321,0c-2.973-0.168-5.388,0.543-7.299,1.782c-13.183,0.106-26.355,0.467-39.499,1.681
			c-8.366,0.771-12.527,7.8-12.454,14.365c-0.333,1.184-0.562,2.428-0.551,3.845c0.259,33.189,4.067,86.812,9.13,119.586
			c1.196,7.724,7.307,10.253,13.218,9.125c0.874,0.214,1.795,0.366,2.783,0.417c131.128,6.55,262.298,0.116,393.457-1.732
			c4.403-0.061,7.612-1.924,9.704-4.596c2.961-2.062,5.048-5.407,5.027-10.135c-0.015-3.773-0.178-7.531-0.238-11.294
			c10.217-0.076,20.418-0.37,30.569-1.706c7.027-0.924,13-5.215,13-13c0-0.538-0.097-1.086-0.184-1.635
			c0.082-0.604,0.184-1.178,0.184-1.828v-64.14C476.655,196.547,473.639,192.835,469.683,191.007z M32.896,286.6
			c-3.631-25.156-6.121-71.157-6.692-96.583c13.492-0.726,27.007-0.777,40.527-0.777c2.158,0,4.024-0.442,5.626-1.193
			c110.215,5.292,220.506,0.066,330.774-0.482c2.285,25.42,3.626,71.675,4.017,97.193C282.396,286.752,157.628,292.354,32.896,286.6
			z M450.656,257.996c-6.084,0.361-12.178,0.514-18.276,0.544c-0.381-8.983-0.812-38.761-1.417-47.733
			c6.557-0.446,13.122-0.604,19.693-0.686V257.996z"/>
		<path d="M129.347,199.203c-22.962,0.569-45.93,0.711-68.893,1.244c-7.536-2.651-17.867,1.28-18.205,11.755
			c-0.551,16.961,0.104,33.83,1.95,50.699c0.084,0.756,0.269,1.446,0.447,2.138c-0.083,6.561,4.088,13.055,12.553,12.812
			c24.049-0.696,48.083-1.808,72.148-1.3c4.268,0.086,7.437-1.534,9.526-4.002c4.4-1.66,7.914-5.51,8.023-11.598
			c0.307-17.56-2.669-34.855-5.012-52.207C141.135,203.215,134.526,199.071,129.347,199.203z M69.246,251.471
			c-0.645-8.384-1.097-16.763-1.152-25.167c16.681-0.33,33.367-0.579,50.048-0.898c1.123,8.348,2.115,16.691,2.542,25.095
			C103.53,250.394,86.39,250.917,69.246,251.471z"/>
		<path d="M254.143,199.203c-22.962,0.569-45.93,0.711-68.893,1.244c-7.536-2.651-17.867,1.28-18.204,11.755
			c-0.551,16.961,0.104,33.83,1.95,50.699c0.083,0.756,0.269,1.446,0.447,2.138c-0.084,6.561,4.088,13.055,12.553,12.812
			c24.049-0.696,48.083-1.808,72.147-1.3c4.271,0.086,7.439-1.534,9.527-4.002c4.402-1.66,7.916-5.51,8.022-11.598
			c0.31-17.56-2.666-34.855-5.012-52.207C265.935,203.215,259.322,199.071,254.143,199.203z M194.043,251.471
			c-0.645-8.384-1.097-16.763-1.153-25.167c16.681-0.33,33.367-0.579,50.048-0.898c1.122,8.348,2.115,16.691,2.542,25.095
			C228.327,250.394,211.186,250.917,194.043,251.471z"/>
	</g>
</g>
<g>
</g>
<g>
</g>
<g>
</g>
<g>
</g>
<g>
</g>
<g>
</g>
<g>
</g>
<g>
</g>
<g>
</g>
<g>
</g>
<g>
</g>
<g>
</g>
<g>
</g>
<g>
</g>
<g>
</g>
</svg>
