<?xml version="1.0" encoding="iso-8859-1"?>
<!-- Generator: Adobe Illustrator 16.0.0, SVG Export Plug-In . SVG Version: 6.00 Build 0)  -->
<!DOCTYPE svg PUBLIC "-//W3C//DTD SVG 1.1//EN" "http://www.w3.org/Graphics/SVG/1.1/DTD/svg11.dtd">
<svg version="1.1" id="Capa_1" xmlns="http://www.w3.org/2000/svg" xmlns:xlink="http://www.w3.org/1999/xlink" x="0px" y="0px"
	 width="476.645px" height="476.645px" viewBox="0 0 476.645 476.645" style="enable-background:new 0 0 476.645 476.645;"
	 xml:space="preserve">
<g>
	<g>
		<path d="M469.678,191.006c-1.828-3.956-5.535-6.972-11.228-6.972c-9.882,0-19.723,0.167-29.554,0.924
			c-0.27-2.904-0.482-5.819-0.777-8.724c-0.081-0.833-0.269-1.6-0.472-2.347c-0.249-6.296-4.397-12.4-12.527-12.39
			c-118.449,0.192-236.936,6.565-355.321,0c-2.973-0.168-5.388,0.543-7.3,1.782c-13.182,0.106-26.354,0.467-39.499,1.681
			c-8.366,0.771-12.527,7.8-12.454,14.365C0.219,180.5-0.015,181.749,0,183.16c0.259,33.19,4.067,86.813,9.13,119.587
			c1.196,7.724,7.307,10.252,13.218,9.125c0.874,0.213,1.795,0.36,2.783,0.416c131.124,6.561,262.292,0.127,393.452-1.722
			c4.403-0.061,7.612-1.924,9.704-4.596c2.961-2.062,5.048-5.407,5.027-10.135c-0.016-3.773-0.178-7.531-0.238-11.294
			c10.217-0.076,20.418-0.37,30.569-1.706c7.027-0.924,12.999-5.215,12.999-13c0-0.538-0.096-1.086-0.183-1.635
			c0.081-0.604,0.183-1.178,0.183-1.828v-64.14C476.65,196.546,473.634,192.834,469.678,191.006z M32.891,286.599
			c-3.631-25.156-6.122-71.157-6.693-96.583c13.492-0.726,27.007-0.777,40.527-0.777c2.158,0,4.024-0.442,5.626-1.193
			c110.215,5.292,220.506,0.066,330.774-0.482c2.285,25.42,3.626,71.675,4.017,97.193
			C282.392,286.751,157.624,292.353,32.891,286.599z M450.65,257.994c-6.083,0.361-12.177,0.514-18.275,0.544
			c-0.381-8.983-0.812-38.761-1.417-47.733c6.556-0.446,13.122-0.604,19.692-0.686V257.994z"/>
		<path d="M129.342,199.202c-22.963,0.569-45.931,0.711-68.893,1.244c-7.536-2.651-17.867,1.28-18.205,11.755
			c-0.551,16.961,0.104,33.83,1.95,50.699c0.083,0.756,0.269,1.446,0.447,2.138c-0.084,6.561,4.088,13.055,12.553,12.812
			c24.049-0.696,48.083-1.808,72.148-1.3c4.268,0.086,7.437-1.534,9.526-4.002c4.4-1.66,7.914-5.51,8.023-11.598
			c0.307-17.56-2.668-34.855-5.012-52.207C141.13,203.213,134.521,199.069,129.342,199.202z M69.241,251.47
			c-0.645-8.384-1.097-16.763-1.152-25.167c16.681-0.33,33.367-0.579,50.048-0.898c1.122,8.348,2.115,16.691,2.542,25.095
			C103.525,250.393,86.385,250.916,69.241,251.47z"/>
		<path d="M254.138,199.202c-22.962,0.569-45.93,0.711-68.893,1.244c-7.536-2.651-17.867,1.28-18.205,11.755
			c-0.551,16.961,0.104,33.83,1.95,50.699c0.084,0.756,0.27,1.446,0.447,2.138c-0.084,6.561,4.088,13.055,12.553,12.812
			c24.049-0.696,48.083-1.808,72.147-1.3c4.271,0.086,7.439-1.534,9.526-4.002c4.402-1.66,7.917-5.51,8.023-11.598
			c0.31-17.56-2.666-34.855-5.012-52.207C265.929,203.213,259.317,199.069,254.138,199.202z M194.038,251.47
			c-0.645-8.384-1.097-16.763-1.153-25.167c16.682-0.33,33.368-0.579,50.049-0.898c1.122,8.348,2.115,16.691,2.541,25.095
			C228.322,250.393,211.181,250.916,194.038,251.47z"/>
		<path d="M377.635,199.004c-22.963,0.573-45.931,0.711-68.894,1.244c-7.535-2.651-17.864,1.284-18.204,11.755
			c-0.549,16.96,0.106,33.83,1.95,50.699c0.086,0.756,0.269,1.452,0.446,2.138c-0.081,6.561,4.088,13.056,12.553,12.812
			c24.05-0.695,48.084-1.803,72.148-1.3c4.271,0.086,7.438-1.533,9.526-4.002c4.402-1.66,7.916-5.51,8.022-11.598
			c0.311-17.56-2.666-34.855-5.012-52.207C389.426,203.01,382.814,198.872,377.635,199.004z M317.537,251.271
			c-0.646-8.384-1.098-16.763-1.153-25.167c16.682-0.33,33.367-0.579,50.049-0.898c1.122,8.348,2.112,16.691,2.539,25.096
			C351.818,250.194,334.68,250.718,317.537,251.271z"/>
	</g>
</g>
<g>
</g>
<g>
</g>
<g>
</g>
<g>
</g>
<g>
</g>
<g>
</g>
<g>
</g>
<g>
</g>
<g>
</g>
<g>
</g>
<g>
</g>
<g>
</g>
<g>
</g>
<g>
</g>
<g>
</g>
</svg>
