<?xml version="1.0" encoding="iso-8859-1"?>
<!-- Generator: Adobe Illustrator 16.0.0, SVG Export Plug-In . SVG Version: 6.00 Build 0)  -->
<!DOCTYPE svg PUBLIC "-//W3C//DTD SVG 1.1//EN" "http://www.w3.org/Graphics/SVG/1.1/DTD/svg11.dtd">
<svg version="1.1" id="Capa_1" xmlns="http://www.w3.org/2000/svg" xmlns:xlink="http://www.w3.org/1999/xlink" x="0px" y="0px"
	 width="481.193px" height="481.193px" viewBox="0 0 481.193 481.193" style="enable-background:new 0 0 481.193 481.193;"
	 xml:space="preserve">
<g>
	<g>
		<path d="M354.253,184.193c0.172-6.505,0.34-13.01,0.462-19.515c0.005-0.218-0.046-0.401-0.051-0.609
			c9.323-11.585,15.36-26.263,18.134-40.367c5.361-27.175,1.208-57.805-17.972-78.851c-24.019-26.373-62.189-18.786-90.688-5.319
			c-0.478,0.224-0.944,0.49-1.411,0.719C220.916-29.604,124.823-0.985,91.242,68.434c-0.838,0.145-1.693,0.343-2.59,0.675
			c-17.976,6.647-33.194,16.254-40.776,34.444c-6.177,14.83,0.629,31.179,10.042,42.713c10.997,13.472,25.827,19.7,41.401,20.71
			c4.278,90.446-1.711,180.804-8.424,270.999c-0.094,1.219-0.015,2.331,0.155,3.377c-0.041,4.144,1.864,8.287,6.548,11.014
			c72.109,42.006,167.314,35.506,239.594-2.706c2.204-1.163,3.753-2.656,4.85-4.307c5.697-0.99,10.496-5.229,9.968-12.786
			c-0.894-12.878-1.427-25.761-1.817-38.639C461.632,404.014,465.314,161.345,354.253,184.193z M323.532,426.286
			c-61.419,32.469-142.479,39.151-205.204,6.459c0.412-5.565,0.808-11.141,1.211-16.717c67.413,25.116,140.081,17.626,203.79-14.538
			c0.299,8.13,0.716,16.255,1.218,24.38C324.207,426.022,323.872,426.104,323.532,426.286z M322.612,371.18
			c-61.433,34.764-134.975,45.234-201.1,16.737c5.078-74.596,8.48-149.293,4.746-224.056c7.02-2.006,13.759-4.946,20.062-8.48
			c15.671,14.683,34.896,25.558,57.041,25.116c18.771-0.376,32.339-11.705,41.193-26.469c21.891,20.784,50.079,38.433,80.486,30.237
			c0.746-0.203,1.447-0.473,2.173-0.701C325.587,246.109,321.896,308.64,322.612,371.18z M347.241,113.392
			c-1.595,10.89-4.575,19.656-9.893,28.5c-4.509,7.492-11.196,13.469-18.179,15.876c-24.669,8.496-52.979-18.809-69.894-37.831
			c-8.683-9.765-21.528-1.495-22.635,8.732c-12.007,37.112-44.095,24.57-65.321,3.506c-4.083-6.553-13.937-10.494-21.823-4.113
			c-16.412,13.269-41.261,17.902-58.412,3.196c-17.669-15.152-2.526-29.665,14.754-36.056c0.869-0.322,1.633-0.727,2.376-1.153
			c5.226,1.742,10.986,0.315,13.83-6.418C133.986,35.696,215.206-8.29,244.259,62.756c4.331,10.6,17.346,11.022,23.643,5.375
			c12.492-7.007,26.051-13.208,40.497-14.102c9.663-0.597,18.52,2.08,24.304,7.041C346.449,72.854,349.861,95.567,347.241,113.392z
			 M349.683,366.589c-0.411-51.409,1.995-102.818,3.732-154.233C431.906,189.508,425.812,376.542,349.683,366.589z"/>
		<path d="M151.769,213.384v131.233c0,17.453,27.061,17.453,27.061,0V213.384C178.83,195.934,151.769,195.934,151.769,213.384z"/>
		<path d="M211.295,218.792v131.233c0,17.452,27.061,17.452,27.061,0V218.792C238.356,201.347,211.295,201.347,211.295,218.792z"/>
		<path d="M265.419,218.792v131.233c0,17.452,27.061,17.452,27.061,0V218.792C292.48,201.347,265.419,201.347,265.419,218.792z"/>
	</g>
</g>
<g>
</g>
<g>
</g>
<g>
</g>
<g>
</g>
<g>
</g>
<g>
</g>
<g>
</g>
<g>
</g>
<g>
</g>
<g>
</g>
<g>
</g>
<g>
</g>
<g>
</g>
<g>
</g>
<g>
</g>
</svg>
