<?xml version="1.0" encoding="iso-8859-1"?>
<!-- Generator: Adobe Illustrator 16.0.0, SVG Export Plug-In . SVG Version: 6.00 Build 0)  -->
<!DOCTYPE svg PUBLIC "-//W3C//DTD SVG 1.1//EN" "http://www.w3.org/Graphics/SVG/1.1/DTD/svg11.dtd">
<svg version="1.1" id="Capa_1" xmlns="http://www.w3.org/2000/svg" xmlns:xlink="http://www.w3.org/1999/xlink" x="0px" y="0px"
	 width="485.865px" height="485.865px" viewBox="0 0 485.865 485.865" style="enable-background:new 0 0 485.865 485.865;"
	 xml:space="preserve">
<g>
	<g>
		<path d="M192.167,237.198c26.735-20.2,38.43-56.911,30.658-92.942C207.063,71.235,75.102,77.808,18.091,81.018
			c-0.333,0.021-0.63,0.086-0.947,0.129c-5.21-0.515-11.258,2.694-12.205,8.163c-1.072,6.183-0.312,12.266,2.529,17.44
			c-0.525,1.374-0.843,2.912-0.673,4.763c8.341,92.724-7.368,185.118-6.779,277.862c0.005,1.071,0.165,2.031,0.399,2.945
			c-0.15,5.764,3.471,11.669,10.9,11.74c45.633,0.396,142.747,5.743,188.225-0.406c0.213-0.03,0.378-0.106,0.582-0.143
			c2.252-0.162,4.545-1,6.655-2.767C261.75,354.854,251.878,263.36,192.167,237.198z M194.053,381.85
			c-0.178,0.015-0.337-0.005-0.521,0.021c-39.486,5.342-131.232,0.919-170.892-0.184c-0.625-0.015,9.199-194.24,9.176-212.19
			c-0.01-10.062-0.213-20.116-0.64-30.168c-0.353-8.295-2.587-18.314-0.973-26.484c2.613-13.2,14.384-11.443,24.888-11.09
			c38.582,1.29,77.332-3.676,113.955,12.007c10.156,4.347,19.857,10.425,25.677,20.155c22.234,37.173,0.417,92.703-44.501,96.197
			c-14.424,1.123-14.533,23.722,0,22.589c0.277-0.021,0.546-0.061,0.823-0.086c0.472,0.035,0.924,0.106,1.435,0.086
			C225.298,249.944,240.171,338.818,194.053,381.85z"/>
		<path d="M56.476,195.097c-0.063,1.019,0.015,1.95,0.173,2.829c-0.396,4.715,1.975,9.303,8.122,10.321
			c28.978,4.814,89.593,6.218,95.639-34.573c6.568-44.288-56.927-48.337-85.858-45.217c-5.314,0.571-8.668,4.05-10.062,8.114
			c-0.277,0.818-8.181,3.453-9.641,5.954c-2.653,4.524-1.102,8.846-0.327,13.667C56.585,169.069,57.265,182.069,56.476,195.097z
			 M125.358,154.983c7.701,2.902,13.088,8.914,12.974,14.472c-0.104,4.987-8.259,11.486-15.132,14.249
			c-13.723,5.51-29.239,5.688-43.945,3.946c0.234-12.35-0.79-24.595-2.902-36.775C92.865,149.202,109.625,149.058,125.358,154.983z"
			/>
		<path d="M70.031,273.033c-5.314,0.569-8.668,4.053-10.062,8.115c-6.302,0.568-12.639,5.997-10.996,14.086
			c2.993,14.736,3.895,29.438,2.983,44.438c-0.061,1.021,0.015,1.95,0.172,2.828c-0.401,4.718,1.97,9.303,8.123,10.323
			c28.978,4.814,116.699,6.221,122.747-34.57C189.572,273.963,98.968,269.91,70.031,273.033z M145.787,328.282
			c-13.721,5.51-56.345,5.688-71.048,3.945c0.233-12.35-0.792-24.588-2.902-36.774c16.509-1.671,60.38-1.818,76.109,4.107
			c7.701,2.905,13.088,8.912,12.974,14.473C160.815,319.024,152.663,325.52,145.787,328.282z"/>
		<path d="M354.571,170.979c-45.524,2.511-78.338,36.483-93.511,77.223c-14.401,38.674-12.243,87.636,12.121,121.871
			c30.985,43.544,86.508,41.487,131.692,24.09c0.416-0.162,0.751-0.381,1.127-0.568c0.757-0.076,1.519-0.254,2.26-0.559
			c14.143-5.9,28.376-11.694,41.102-20.342c1.93-1.311,3.198-2.936,4.011-4.672c2.321-3.174,3.255-7.435,1.168-11.913
			c-5.94-12.756-13.437-24.608-21.459-36.146c-2.91-4.189-7.236-5.453-11.253-4.859c-1.711,0.117-3.504,0.67-5.332,1.939
			c-27.157,18.85-63.688,24.466-76.124-6.962c44.468-4.717,89.18-6.2,133.784-9.262c5.987-0.411,9.471-4.545,10.507-9.161
			c0.381-1,0.675-2.066,0.787-3.26C491.889,216.295,422.168,167.252,354.571,170.979z M331.847,288.399
			c-1.569,0.183-2.936,0.65-4.164,1.279c-6.525,0.066-13.746,5.632-12.38,14.147c8.967,55.681,63.621,61.316,104.981,37.536
			c3.52,5.419,6.84,10.959,9.923,16.636c-8.942,5.145-18.403,9.277-27.944,13.254c-0.32,0.137-0.609,0.305-0.919,0.452
			c-0.787,0.127-1.615,0.35-2.474,0.675C363.569,385.973,321.869,392,294.326,360.68c-21.917-24.923-22.749-64.389-15.092-94.821
			c8.404-33.418,31.22-62.738,65.699-70.881c20.733-4.9,42.543,0.695,61.85,8.297c34.55,13.609,56.056,39.743,56.416,75.66
			C419.375,281.722,375.482,283.332,331.847,288.399z"/>
		<path d="M346.349,223.196c-23.206,3.519-35.673,24-34.459,46.379c0.432,7.927,7.394,11.512,13.482,10.771
			c0.868,0.011,1.757-0.065,2.696-0.254c19.931-4.062,40.04-6.495,60.245-8.627c2.295-0.249,4.185-1.066,5.748-2.204
			c5.256-2.65,9.104-9.039,5.891-15.925C390.436,232.966,368.998,219.763,346.349,223.196z M336.848,255.586
			c5.688-11.68,20.368-12.101,31.799-4.499C358.008,252.356,347.406,253.804,336.848,255.586z"/>
		<path d="M263.696,142.316c0.146,1.889,0.69,3.656,1.518,5.238c-1.462,6.5,2.006,14.043,10.537,13.586
			c53.699-2.864,107.414-2.902,161.14-0.754c3.777,0.152,6.55-1.275,8.363-3.448c3.331-2.402,5.388-6.452,4.032-11.601
			c-2.885-10.931-5.226-21.932-6.785-33.132c-0.31-2.27-1.579-4.141-3.311-5.524c-1.549-3.583-4.804-6.401-9.836-6.535
			c-51.979-1.399-103.931-0.666-155.873,1.508c-0.315,0.016-0.584,0.094-0.895,0.125c-1.249-0.094-2.482-0.036-3.61,0.277
			c-6.469,1.777-8.79,7.81-7.891,13.894C262.38,124.69,263.02,133.514,263.696,142.316z M421.432,122.606
			c0.787,4.943,1.682,9.861,2.737,14.751c-46.093-1.546-92.181-1.373-138.243,0.774c-0.391-4.763-0.827-9.526-1.335-14.274
			C330.192,122.142,375.807,121.565,421.432,122.606z"/>
	</g>
</g>
<g>
</g>
<g>
</g>
<g>
</g>
<g>
</g>
<g>
</g>
<g>
</g>
<g>
</g>
<g>
</g>
<g>
</g>
<g>
</g>
<g>
</g>
<g>
</g>
<g>
</g>
<g>
</g>
<g>
</g>
</svg>
