<?xml version="1.0" encoding="iso-8859-1"?>
<!-- Generator: Adobe Illustrator 16.0.0, SVG Export Plug-In . SVG Version: 6.00 Build 0)  -->
<!DOCTYPE svg PUBLIC "-//W3C//DTD SVG 1.1//EN" "http://www.w3.org/Graphics/SVG/1.1/DTD/svg11.dtd">
<svg version="1.1" id="Capa_1" xmlns="http://www.w3.org/2000/svg" xmlns:xlink="http://www.w3.org/1999/xlink" x="0px" y="0px"
	 width="480.684px" height="480.685px" viewBox="0 0 480.684 480.685" style="enable-background:new 0 0 480.684 480.685;"
	 xml:space="preserve">
<g>
	<g>
		<path d="M437.831,358.312c-2.752-3.087-5.789-5.885-9.008-8.479c1.188-1.696,2.057-3.824,2.493-6.414
			c9.547-57.081,4.626-153.146-33.51-199.643c-19.57-23.861-50.444-42.83-83.02-54.525c-0.133-0.749-0.27-1.508-0.549-2.305
			c-10.648-30.897-29.076-87.54-70.386-86.94c-37.092,0.541-54.24,53.969-63.231,85.427c-36.731,11.108-72.737,31.664-94.623,58.349
			c-38.136,46.496-43.059,142.562-33.507,199.643c0.302,1.813,0.883,3.326,1.577,4.702c-4.058,3.047-7.843,6.409-11.217,10.192
			c-12.817,14.36-6.447,29.589,4.882,40.694c-1.693,1.569-3.344,3.184-4.882,4.91c-18.423,20.647,2.778,43.107,21.398,52.491
			c53.38,26.894,111,20.8,168.843,23.694c1.508,0.432,3.141,0.67,4.977,0.543c0.759-0.051,1.518-0.081,2.272-0.127
			c0.759,0.046,1.514,0.076,2.272,0.127c1.836,0.127,3.469-0.111,4.977-0.543c57.844-2.89,115.463,3.199,168.843-23.694
			c18.626-9.379,39.826-31.844,21.398-52.491c-1.538-1.727-3.188-3.341-4.885-4.91C444.28,387.901,450.648,372.672,437.831,358.312z
			 M244.388,26.05c16.76-4.883,32.365,32.723,40.169,54.562c-14.757-3.146-29.274-4.684-42.65-4.341
			c-10.27-0.264-21.216,0.604-32.418,2.422C215.938,56.975,226.021,31.402,244.388,26.05z M107.323,169.307
			c22.138-33.56,78.44-54.339,116.134-59.242c1.016,0.051,2.059,0.045,3.199-0.104c5.032-0.67,10.128-0.952,15.246-1.003
			c5.116,0.051,10.212,0.338,15.244,1.003c1.138,0.149,2.184,0.155,3.199,0.104c37.699,4.903,93.998,25.682,116.134,59.242
			c26.02,39.446,31.062,117.873,23.582,164.305c-13.863-5.58-28.65-9.363-42.188-12.685c-38.236-9.379-77.337-9.323-116.699-10.055
			c-0.109,0-0.193-0.03-0.302-0.03c-0.178,0.005-0.358,0.005-0.536,0.016c-0.175-0.011-0.358-0.011-0.536-0.016
			c-0.109,0-0.198,0.03-0.302,0.03c-39.356,0.736-78.465,0.681-116.699,10.055c-12.583,3.088-26.238,6.576-39.232,11.532
			C76.353,285.895,81.512,208.436,107.323,169.307z M414.945,424.869c-8.42,8.125-21.815,12.4-32.646,15.924
			c-47.246,15.377-93.277,9.41-141.958,12.162c-48.685-2.752-94.719,3.215-141.955-12.162c-10.826-3.523-24.227-7.799-32.651-15.924
			c-3.9-3.763-0.815-5.048,4.916-9.344c0.493-0.371,1.062-0.67,1.564-1.031c36.686,16.184,75.248,18.043,114.412,18.789
			c-6.581-6.586-9.333-15.844-9.042-25.024c-0.074-0.686-0.074-1.36-0.059-2.036c-22.983-0.432-45.737-1.955-68.71-8.003
			c11.471-3.29,23.166-5.743,33.779-8.095c16.638-3.691,33.585-5.026,50.62-5.585c-0.421,1.01-0.82,2.03-1.206,3.062
			c-2.277,6.104-3.859,12.446-4.187,18.748c-0.384,7.475,0.972,14.868,5.091,21.683c1.19,1.971,2.5,3.783,3.922,5.434
			c9.854,11.517,24.803,15.569,40.111,14.944c11.974-0.487,24.867-5.824,33.515-14.69c2.336-2.396,4.434-4.997,6.033-7.892
			c3.539-6.388,5.108-12.918,5.199-19.407c0.112-7.541-1.792-15.026-4.915-22.166c-0.036-0.07-0.066-0.146-0.097-0.223
			c0.346,0.07,0.681,0.146,1.025,0.233c20.322,0.37,40.563,1.462,60.378,5.854c10.607,2.352,22.308,4.804,33.778,8.095
			c-27.508,7.236-54.705,7.978-82.35,8.15c0.213,8.886-1.671,17.65-6.551,25.486c-0.37,0.599-0.817,1.122-1.259,1.65
			c43.406-0.742,86.224-1.133,126.756-19.013c0.508,0.36,1.071,0.66,1.569,1.031C415.767,419.821,418.844,421.102,414.945,424.869z
			 M246.742,383.915c0.365,0.503,0.713,1.006,1.061,1.503c1.548,2.225,2.976,4.443,4.281,6.957c1.996,3.85,2.564,5.581,3.139,7.978
			c0.365,1.508,0.563,3.047,0.726,4.58c0.021,0.203,0.041,0.3,0.061,0.417c-0.04,0.192-0.081,0.584-0.137,1.386
			c0,0.016,0,0.021-0.005,0.036c-0.025,0.386-0.279,1.727-0.396,2.438c-0.381,1.224-0.812,2.432-1.351,3.59
			c1.717-3.702-4.418,5.021-1.544,2.082c-0.868,0.889-1.828,1.676-2.793,2.452c-0.457,0.36-0.924,0.696-1.404,1.031
			c-0.134,0.071-0.239,0.122-0.472,0.254c-1.825,1.03-3.765,1.812-5.735,2.523c-0.287,0.036-2.237,0.589-2.725,0.701
			c-1.597,0.34-3.225,0.548-4.847,0.716c-0.394,0.041-0.65,0.071-0.879,0.102c-0.104-0.005-0.249-0.016-0.51-0.021
			c-1.295-0.005-2.583-0.102-3.867-0.224c-1.201-0.106-2.392-0.314-3.577-0.527c-0.792-0.224-1.577-0.478-2.356-0.747
			c-0.749-0.264-1.462-0.604-2.184-0.935c-0.416-0.248-1.752-0.965-2.148-1.229c-0.292-0.198-0.993-0.803-1.498-1.229
			c-0.551-0.59-1.056-1.214-1.543-1.859c-0.277-0.497-0.993-1.665-1.196-2.107c-0.152-0.33-0.244-0.533-0.343-0.73
			c-0.01-0.102-0.043-0.265-0.104-0.533c-0.256-1.066-0.36-2.153-0.469-3.245c0.089,0.152,0.109-1.447,0.137-2.763
			c0.01-0.654,0.025-1.249,0.051-1.503c0.566-5.276,3.318-11.928,6.662-18.042c0.541-0.99,1.069-1.985,1.638-2.94
			c5.271-0.04,10.545-0.091,15.808-0.192c0.749-0.016,1.429-0.138,2.125-0.249c0.693,0.111,1.378,0.233,2.127,0.249
			C243.893,383.885,245.317,383.895,246.742,383.915z M357.878,366.538c-38.237-9.384-77.338-9.323-116.7-10.06
			c-0.109,0-0.193-0.025-0.302-0.025c-0.178,0.005-0.358,0.005-0.536,0.011c-0.175-0.006-0.357-0.006-0.535-0.011
			c-0.109,0-0.198,0.025-0.302,0.025c-39.357,0.736-78.465,0.681-116.7,10.06c-16.711,4.093-35.302,8.901-51.732,16.925
			c-1.909-1.289-3.735-2.66-5.337-4.204c-3.9-3.758-0.815-5.043,4.916-9.344c19.703-14.771,48.51-20.2,71.945-25.395
			c31.265-6.932,63.589-5.652,95.621-6.271c0.747-0.016,1.43-0.143,2.125-0.249c0.693,0.106,1.379,0.233,2.128,0.249
			c32.029,0.614,64.351-0.665,95.616,6.271c23.435,5.194,52.247,10.628,71.949,25.395c5.733,4.301,8.811,5.581,4.916,9.344
			c-1.6,1.544-3.428,2.915-5.332,4.204C393.18,375.439,374.589,370.631,357.878,366.538z"/>
	</g>
</g>
<g>
</g>
<g>
</g>
<g>
</g>
<g>
</g>
<g>
</g>
<g>
</g>
<g>
</g>
<g>
</g>
<g>
</g>
<g>
</g>
<g>
</g>
<g>
</g>
<g>
</g>
<g>
</g>
<g>
</g>
</svg>
