<?xml version="1.0" encoding="iso-8859-1"?>
<!-- Generator: Adobe Illustrator 16.0.0, SVG Export Plug-In . SVG Version: 6.00 Build 0)  -->
<!DOCTYPE svg PUBLIC "-//W3C//DTD SVG 1.1//EN" "http://www.w3.org/Graphics/SVG/1.1/DTD/svg11.dtd">
<svg version="1.1" id="Capa_1" xmlns="http://www.w3.org/2000/svg" xmlns:xlink="http://www.w3.org/1999/xlink" x="0px" y="0px"
	 width="447.42px" height="447.42px" viewBox="0 0 447.42 447.42" style="enable-background:new 0 0 447.42 447.42;"
	 xml:space="preserve">
<g>
	<g>
		<path d="M240.822,1.262C116.679-12.18,8.964,83.397,17.643,210.934c0.562,8.249,6.645,12.797,13.083,13.675
			c1.663,1.849,3.961,3.312,7.076,4.048c4.52,1.066,9.069,2.097,13.629,3.103c11.552,65.257,27.053,129.382,50.854,191.343
			c-0.432,5.937,2.595,11.624,10.364,12.817c74.847,11.517,149.495,17.016,224.513,3.839c5.758-1.006,8.917-4.459,9.988-8.607
			c2.457-1.574,4.529-3.931,5.819-7.201c24.836-62.946,38.023-128.884,42.619-196.273c6.154-2.092,12.278-4.304,18.337-6.695
			c2.625-1.033,4.605-2.61,6.124-4.446c5.484-1.523,10.095-5.916,10.196-13.274C431.815,95.676,345.241,12.573,240.822,1.262z
			 M326.641,412.458c-66.166,11.161-132.838,6.587-198.872-3.188c-20.83-55.629-35.155-112.965-46.035-171.271
			c8.767,1.666,17.613,3.174,26.494,4.596c0.059,0.325,0.051,0.625,0.125,0.96c7.576,32.185,15.246,64.333,24.948,95.959
			c5.431,17.691,33.218,10.141,27.759-7.658c-8.592-28-15.574-56.416-22.323-84.903c15.376,1.909,30.854,3.382,46.367,4.387
			c1.932,30.747,3.582,65.222,13.451,93.928c5.995,17.448,33.812,9.953,27.756-7.652c-8.975-26.116-10.598-56.944-12.339-84.99
			c18.471,0.452,36.935,0.122,55.286-1.036c3.174,30.661,1.534,61.2-2.128,91.764c-2.203,18.408,26.609,18.195,28.787,0
			c3.753-31.32,5.419-62.611,1.92-94.038c-0.01-0.102-0.051-0.193-0.061-0.295c23.104-2.646,45.955-6.703,68.299-12.562
			C361.176,296.904,348.536,355.804,326.641,412.458z M46.029,201.024C44.348,93.3,136.308,15.894,242.757,30.317
			c85.528,11.591,155.641,77.536,158.626,164.674C289.5,237.445,160.44,227.904,46.029,201.024z"/>
		<path d="M105.967,115.394c-5.512,9.384-9.839,19.4-15.351,28.785c-9.422,16.041,15.465,30.523,24.857,14.528
			c5.512-9.384,9.844-19.4,15.355-28.785C140.25,113.881,115.363,99.398,105.967,115.394z"/>
		<path d="M215.268,106.891c4.306-7.353,1.102-14.996-5.165-19.692c-7.394-5.542-14.792-11.105-23.028-15.353
			c-6.975-3.596-15.574-1.869-19.692,5.161c-3.806,6.495-1.805,16.105,5.164,19.692c8.237,4.243,15.64,9.813,23.029,15.356
			C201.867,116.771,211.645,113.079,215.268,106.891z"/>
		<path d="M302.226,91.038c-7.308-4.281-15.057-1.145-19.692,5.162c-5.469,7.442-9.882,15.584-15.356,23.031
			c-4.656,6.332-1.071,16.042,5.165,19.692c7.307,4.278,15.061,1.143,19.692-5.164c5.469-7.439,9.882-15.584,15.351-23.029
			C312.041,104.396,308.461,94.694,302.226,91.038z"/>
		<path d="M349.577,151.798c-1.279-0.579-2.549-1.181-3.809-1.805c-3.103-1.554-6.099-3.318-8.998-5.221
			c-6.575-4.301-15.884-1.348-19.692,5.165c-4.118,7.023-1.391,15.407,5.164,19.69c7.023,4.593,14.696,8.305,22.628,11.045
			c7.414,2.569,15.727-2.859,17.707-10.052c2.184-7.934-2.651-15.14-10.055-17.705C352.146,152.786,350.08,151.968,349.577,151.798z
			"/>
		<path d="M215.694,160.454c-1.919,1.919-3.836,3.839-5.756,5.758c-5.542,5.543-5.542,14.808,0,20.357
			c5.542,5.543,14.81,5.543,20.358,0c1.919-1.919,3.839-3.839,5.759-5.758c5.539-5.543,5.539-14.808,0-20.358
			C230.504,154.911,221.237,154.911,215.694,160.454z"/>
	</g>
</g>
<g>
</g>
<g>
</g>
<g>
</g>
<g>
</g>
<g>
</g>
<g>
</g>
<g>
</g>
<g>
</g>
<g>
</g>
<g>
</g>
<g>
</g>
<g>
</g>
<g>
</g>
<g>
</g>
<g>
</g>
</svg>
