<?xml version="1.0" encoding="iso-8859-1"?>
<!-- Generator: Adobe Illustrator 16.0.0, SVG Export Plug-In . SVG Version: 6.00 Build 0)  -->
<!DOCTYPE svg PUBLIC "-//W3C//DTD SVG 1.1//EN" "http://www.w3.org/Graphics/SVG/1.1/DTD/svg11.dtd">
<svg version="1.1" id="Capa_1" xmlns="http://www.w3.org/2000/svg" xmlns:xlink="http://www.w3.org/1999/xlink" x="0px" y="0px"
	 width="468.251px" height="468.251px" viewBox="0 0 468.251 468.251" style="enable-background:new 0 0 468.251 468.251;"
	 xml:space="preserve">
<g>
	<g>
		<path d="M349.33,0.002c-73.662,1.236-116.129,1.3-189.795,1.3c-13.416,0-13.416,20.8,0,20.8c12.875,0-5.449-0.011,7.427-0.025
			c-17.732,42.154-34.736,84.563-56.706,124.771c-4.639,8.49,3.407,16.27,10.671,15.557c0.305,0.025,0.586,0.094,0.909,0.094h45.092
			c-17.402,39.486-33.527,79.509-49.924,119.427c-2.339,5.707,0.667,9.887,5.07,11.588c1.67,1.884,4.187,3.062,7.561,2.879
			c18.448-1.005,36.914-1.224,55.377-1.279c-15.889,53.796-37.958,105.429-56.31,158.407c-2.808,8.114,4.365,13.233,11.055,12.608
			c3.672,2.772,8.811,3.271,12.83-1.188c66.506-73.722,122.181-156.016,182.325-234.798c5.195-6.804-0.294-13.451-7.022-14.662
			c-1.295-0.615-2.809-0.983-4.561-0.983h-43.066C305.888,179,332.1,143.945,357.013,107.944c5.57-8.054-2.479-15.708-10.187-15.069
			c-1.285-0.302-2.671-0.409-4.164-0.208c-11.572,1.586-23.141,2.351-34.729,2.087c15.509-25.268,31.169-50.445,46.886-75.585
			C362.334,14.271,360.547-0.186,349.33,0.002z M281.854,97.453c-2.498,4.091-1.782,8.028,0.432,10.913
			c1.539,3.052,4.388,5.507,8.546,6.032c12.02,1.523,23.902,1.519,35.79,0.66c-24.202,34.18-49.277,67.732-73.61,101.824
			c-6.165,5.444-3.986,18.41,6.621,18.41h45.524c-47.286,62.82-92.417,127.315-143.214,187.337
			c16.5-44.305,34.038-88.22,46.623-133.87c1.227-4.459-0.371-7.998-3.105-10.237c-1.638-2.468-4.352-4.226-8.226-4.226
			c-18.377,0-36.742,0.087-55.099,0.768c15.762-38.542,31.376-77.14,48.479-115.115c0.909-2.021,1.122-3.986,0.898-5.827
			c0.988-5.779-2.298-12.423-9.879-12.423h-45.176c19.822-38.849,35.784-79.397,52.856-119.551c0.015-0.036,0.015-0.071,0.031-0.109
			c46.595-0.087,93.188-0.323,139.778-0.978C313.271,46.463,297.443,71.886,281.854,97.453z"/>
	</g>
</g>
<g>
</g>
<g>
</g>
<g>
</g>
<g>
</g>
<g>
</g>
<g>
</g>
<g>
</g>
<g>
</g>
<g>
</g>
<g>
</g>
<g>
</g>
<g>
</g>
<g>
</g>
<g>
</g>
<g>
</g>
</svg>
