<?xml version="1.0" encoding="iso-8859-1"?>
<!-- Generator: Adobe Illustrator 16.0.0, SVG Export Plug-In . SVG Version: 6.00 Build 0)  -->
<!DOCTYPE svg PUBLIC "-//W3C//DTD SVG 1.1//EN" "http://www.w3.org/Graphics/SVG/1.1/DTD/svg11.dtd">
<svg version="1.1" id="Capa_1" xmlns="http://www.w3.org/2000/svg" xmlns:xlink="http://www.w3.org/1999/xlink" x="0px" y="0px"
	 width="486.957px" height="486.957px" viewBox="0 0 486.957 486.957" style="enable-background:new 0 0 486.957 486.957;"
	 xml:space="preserve">
<g>
	<g>
		<path d="M460.985,69.644h-33.728c1.645-14.645,3.057-29.312,4.392-43.996c1.376-15.077-22.104-14.939-23.465,0
			c-0.808,8.843-1.641,17.679-2.529,26.507C357.811-25.078,232.167-16.461,206.459,77.52c-22.167-0.249-44.445,1.742-66.838,5.741
			c-6.513,1.166-8.965,6.147-8.419,11.164c-0.015,0.038-0.043,0.059-0.059,0.094c-4.304,9.11-6.556,18.679-6.416,28.584
			c-28.479,8.366-54.562,22.937-72.688,46.943c-16.696,22.117-32.103,56.096-35.795,83.726
			C5.08,337.421,52.604,423.467,125.991,462.715c85.996,45.991,203.546,25.323,264.237-51.653
			c57.087-72.382,47.195-173.4-18.829-236.055c-19.967-18.949-52.161-33.944-77.789-44.072c1.325-9.615,1.315-19.261,0.192-29.036
			c-0.086-0.756-0.229-1.493-0.411-2.211c-0.142-4.52-2.625-8.907-8.206-10.57c-18.057-5.388-36.186-8.79-54.393-10.473
			C255.602,9.429,355.744,2.2,389.132,69.633h-36.668c-15.133,0-15.133,23.465,0,23.465h48.373
			c-1.041,7.333-2.22,14.65-3.509,21.955c-0.163,0.437-0.351,0.858-0.447,1.325c-1.392,6.857-3.012,13.67-4.397,20.535
			c-1.27,6.259,1.722,12.652,8.19,14.434c5.845,1.607,13.162-1.924,14.438-8.196c1.091-5.393,2.305-10.758,3.457-16.135
			c0.401-0.874,0.742-1.826,0.939-2.927c1.879-10.296,3.418-20.632,4.835-30.986h36.652
			C476.117,93.109,476.117,69.644,460.985,69.644z M359.359,195.925c32.383,30.732,47.799,73.811,45.159,117.923
			c-6.231,103.931-111.178,156.818-204.582,147.362C110.77,452.193,45.394,374.978,38.8,287.977
			c-5.126-67.621,36.554-133.855,106.14-144.989C218.423,131.229,303.776,143.19,359.359,195.925z M270.892,109.635
			c0.248,4.53,0.319,9.046-0.046,13.545c-22.265-6.36-45.382-9.501-68.594-9.76c-17.46-0.198-35.843,0.978-53.887,4.159
			c0.401-3.832,1.328-7.597,3.037-11.214c0.218-0.465,0.371-0.942,0.541-1.415C192.086,98.481,231.578,99.24,270.892,109.635z"/>
		<path d="M240.954,225.591c0.467,0.287,0.909,0.594,1.46,0.838c55.649,24.94,66.531,83.134,36.851,133.538
			c-4.372,7.429,0.3,14.427,6.546,16.712c12.821,9.684,26.984,15.157,43.183,17.071c3.702,0.438,7.028-1.66,9.196-4.615
			c0.863-0.736,1.691-1.579,2.402-2.666c50.018-76.119,15.386-176.919-65.806-214.042c-1.204-0.551-2.392-0.83-3.555-0.993
			c-1.757-1.277-4.001-2.074-6.764-2.074c-2.555,0-4.642,0.708-6.327,1.82c-1.696,0.521-3.361,1.503-4.9,3.085
			c-11.205,11.506-17.501,24.676-19.57,40.558C233.05,219.576,236.673,223.765,240.954,225.591z M266.605,194.485
			c65.582,32.321,94.831,110.649,57.041,174.779c-6.622-1.438-13.015-3.981-18.753-7.562
			c27.857-57.122,13.477-123.664-46.261-153.304C260.324,203.283,263.147,198.662,266.605,194.485z"/>
	</g>
</g>
<g>
</g>
<g>
</g>
<g>
</g>
<g>
</g>
<g>
</g>
<g>
</g>
<g>
</g>
<g>
</g>
<g>
</g>
<g>
</g>
<g>
</g>
<g>
</g>
<g>
</g>
<g>
</g>
<g>
</g>
</svg>
