<?xml version="1.0" encoding="iso-8859-1"?>
<!-- Generator: Adobe Illustrator 16.0.0, SVG Export Plug-In . SVG Version: 6.00 Build 0)  -->
<!DOCTYPE svg PUBLIC "-//W3C//DTD SVG 1.1//EN" "http://www.w3.org/Graphics/SVG/1.1/DTD/svg11.dtd">
<svg version="1.1" id="Capa_1" xmlns="http://www.w3.org/2000/svg" xmlns:xlink="http://www.w3.org/1999/xlink" x="0px" y="0px"
	 width="465.416px" height="465.417px" viewBox="0 0 465.416 465.417" style="enable-background:new 0 0 465.416 465.417;"
	 xml:space="preserve">
<g>
	<g>
		<path d="M406.854,82.06c0.462-3.1-0.406-6.432-3.291-9.344c-14.091-14.213-16.274-28.192-2.92-43.871
			c0.665-0.779,1.184-1.587,1.615-2.409c4.991-6.521,2.026-19.02-8.907-19.5c-84.396-3.712-186.422-4.034-270.846-6.814
			c-0.488-0.015-0.919,0.056-1.384,0.092c-0.19-0.021-0.363-0.076-0.566-0.092c-27.84-1.686-57.054,14.206-60.037,44.209
			c-0.328,3.316-0.224,6.421,0.129,9.384c-0.914,1.607-1.498,3.522-1.47,5.84c1.122,110.535-2.029,220.831-2.912,331.298
			c-0.109,0.889-0.132,1.833-0.01,2.868c3.9,33.805,24.859,58.661,59.245,63.887c1.12,0.173,2.168,0.157,3.189,0.061
			c0.602,0.147,1.201,0.3,1.866,0.36c81.014,7.409,162.294,6.86,243.563,6.825h24.395c6.784,2.052,15.523-1.498,15.549-10.72
			c0.294-123.761,9.252-247.455,2.925-371.189C406.971,82.621,406.885,82.357,406.854,82.06z M83.798,45.473
			c2.854-17.555,21.411-22.899,36.757-21.975c0.536,0.033,1.008-0.031,1.508-0.056c0.15,0.01,0.287,0.051,0.442,0.056
			c77.685,2.564,172.963,3.155,250.641,6.106c-5.743,13.02-5.981,26.258-0.513,38.963c-78.476-3.57-174.528-2.077-253.056-0.257
			c-0.259,0.005-0.467,0.069-0.724,0.089c-1.455-0.68-3.151-1.081-5.126-1.061C100.484,67.463,80.96,62.923,83.798,45.473z
			 M319.609,90.292c-1.858,28.122-3.605,56.241-4.905,84.394c-5.124-5.241-10.318-10.41-15.772-15.313
			c-3.849-3.463-8.409-3.354-11.979-1.427c-1.046,0.203-2.103,0.521-3.179,1.104c-9.39,5.065-18.951,9.602-28.787,13.581
			c1.798-27.596,2.976-55.218,4.017-82.855C279.361,89.766,299.684,89.916,319.609,90.292z M123.114,434.837
			c-0.853-0.076-1.711-0.127-2.564-0.203c-0.269-0.025-0.493,0.015-0.759,0.005c-22.208-3.996-37.465-17.509-40.164-40.924
			c-0.025-0.229-0.104-0.421-0.14-0.64c0.045-0.437,0.134-0.843,0.14-1.305c0.812-102.758,3.562-205.366,3.06-308.157
			c9.234,4.812,20.258,7.213,31.036,7.114c0.224,0,0.417-0.056,0.635-0.068c1.478,0.693,3.197,1.086,5.215,1.041
			c4.931-0.114,9.932-0.229,14.975-0.338C132.603,205.879,124.211,320.375,123.114,434.837z M380.81,441.454h-24.486
			c-0.021,0-0.036,0.005-0.056,0.005c-70.868,0.051-141.744,0.239-212.433-4.961c1.031-115.163,9.532-230.354,11.477-345.571
			c26.799-0.531,54.791-0.952,82.943-1.107c-1.224,32.565-2.595,65.123-4.999,97.627c-0.419,5.646,3.064,8.866,7.289,9.717
			c1.966,0.962,4.367,1.229,7.145,0.282c14.523-4.951,28.519-11.128,42.112-18.205c8.328,7.949,16.219,16.333,24.288,24.55
			c2.858,9.836,19.875,8.703,20.297-3.382c1.274-36.589,3.523-73.118,5.936-109.649c14.93,0.412,29.559,0.958,43.701,1.691
			C389.244,208.791,381.606,325.097,380.81,441.454z"/>
	</g>
</g>
<g>
</g>
<g>
</g>
<g>
</g>
<g>
</g>
<g>
</g>
<g>
</g>
<g>
</g>
<g>
</g>
<g>
</g>
<g>
</g>
<g>
</g>
<g>
</g>
<g>
</g>
<g>
</g>
<g>
</g>
</svg>
