<?xml version="1.0" encoding="iso-8859-1"?>
<!-- Generator: Adobe Illustrator 16.0.0, SVG Export Plug-In . SVG Version: 6.00 Build 0)  -->
<!DOCTYPE svg PUBLIC "-//W3C//DTD SVG 1.1//EN" "http://www.w3.org/Graphics/SVG/1.1/DTD/svg11.dtd">
<svg version="1.1" id="Capa_1" xmlns="http://www.w3.org/2000/svg" xmlns:xlink="http://www.w3.org/1999/xlink" x="0px" y="0px"
	 width="475.583px" height="475.583px" viewBox="0 0 475.583 475.583" style="enable-background:new 0 0 475.583 475.583;"
	 xml:space="preserve">
<g>
	<g>
		<path d="M325.973,0.017C271.71,2.878,217.416,3.074,163.107,3.079c-6.16,0-9.661,4.519-10.534,9.668
			c-0.363,1.236-0.612,2.572-0.597,4.105c1.366,133.127-2.956,304.247-10.841,437.122c-5.327,6.886-2.684,20.505,8.059,20.505
			c0.478,0,0.899-0.091,1.346-0.142c1.805,0.051,3.709-0.366,5.665-1.523c25.649-15.28,52.232-33.851,79.392-45.474
			c26.579,14.422,53.552,33.627,80.583,47.007c1.884,0.93,3.722,1.229,5.469,1.133c6.033,0.802,12.675-3.077,12.68-11.705
			c0.086-136.734,2.707-310.181,2.788-446.915c0-1.343-0.214-2.529-0.503-3.641C337.256,6.595,333.747-0.389,325.973,0.017z
			 M312.131,445.602c-22.48-11.192-44.88-28.284-66.999-40.324c-2.29-3.575-6.216-5.53-11.212-3.423
			c-23.711,10.019-47.047,26.664-69.782,39.05c7.19-125.061,11.159-288.089,10.161-413.36c46.85-0.045,93.688-0.411,140.503-2.572
			C314.629,152.945,312.404,317.626,312.131,445.602z"/>
	</g>
</g>
<g>
</g>
<g>
</g>
<g>
</g>
<g>
</g>
<g>
</g>
<g>
</g>
<g>
</g>
<g>
</g>
<g>
</g>
<g>
</g>
<g>
</g>
<g>
</g>
<g>
</g>
<g>
</g>
<g>
</g>
</svg>
