<?xml version="1.0" encoding="iso-8859-1"?>
<!-- Generator: Adobe Illustrator 16.0.0, SVG Export Plug-In . SVG Version: 6.00 Build 0)  -->
<!DOCTYPE svg PUBLIC "-//W3C//DTD SVG 1.1//EN" "http://www.w3.org/Graphics/SVG/1.1/DTD/svg11.dtd">
<svg version="1.1" id="Capa_1" xmlns="http://www.w3.org/2000/svg" xmlns:xlink="http://www.w3.org/1999/xlink" x="0px" y="0px"
	 width="489.205px" height="489.205px" viewBox="0 0 489.205 489.205" style="enable-background:new 0 0 489.205 489.205;"
	 xml:space="preserve">
<g>
	<g>
		<path d="M480.006,131.742c-3.651-5.527-8.917-12.053-17.382-14.731c-1.569-0.495-3.245-0.609-4.951-0.337
			c-40.131-7.15-79.638-12.914-117.474-17.144c-0.925-19.931-9.196-38.339-23.999-53.337c-2.681-2.719-6.104-3.955-9.501-3.503
			c-0.649-0.178-1.3-0.297-1.955-0.358c-32.961-3.273-66.584-3.547-98.205-3.557c-0.427,0-0.817,0.041-1.343,0.119
			c-0.531-0.074-1.107-0.152-1.892-0.119c-10.103,0.29-20.124,4.938-27.477,12.753c-1.912,2.028-3.072,4.385-3.458,7.005
			c-5.801,9.402-8.744,20.457-8.757,32.9c-50.074,1.465-98.282,6.477-143.333,14.896c-3.885,0.729-6.759,3.095-8.122,6.677
			c-1.361,2.06-2.303,3.946-3.212,6.454c-0.267,0.731-0.584,2.057-0.818,3.083c-0.099,0.432-0.175,0.794-0.188,0.848
			c-1.003,2.496-1.43,5.162-1.236,7.731c-9.917,79.625-8.836,151.885,3.285,220.904c1.348,7.668,6.807,10.096,11.44,9.74
			c-0.134,0.406-0.249,0.822-0.348,1.244c-7.363,31.112,1.082,57.482,24.125,74.555c2.118,3.539,5.497,5.54,9.584,5.662
			c112.109,3.249,239.173,6.936,363.446,7.058c0.229,0,0.447-0.021,0.736-0.051c0.675,0.132,1.36,0.203,2.046,0.203
			c1.25,0,2.52-0.224,3.778-0.681c20.881-7.484,32.393-25.501,30.798-48.18c-0.02-0.324-0.076-0.645-0.157-1.117
			c0.102-0.711,0.163-1.447,0.163-2.244c0-5.596-0.006-12.416-1.458-18.946l4.144,0.107c3.488,0.096,6.978,0.188,10.664,0.243
			c3.768,0,6.987-1.676,9.109-4.742c1.936-1.671,3.271-3.951,3.981-6.774c3.352-13.472,5.037-26.151,5.149-38.766
			c0-0.345-0.025-0.66-0.076-0.97l0.568-18.347c1.564-55.137,3.179-112.149-2.082-168.203
			C485.2,137.572,483.226,134.015,480.006,131.742z M463.091,328.607l-0.056,0.696c-0.071,7.643-0.898,15.432-2.539,23.744
			c-69.975-1.27-141.061-4.996-209.832-8.602c-71.701-3.758-145.824-7.643-218.79-8.749c-9.864-62.236-10.415-129.281-1.623-199.311
			c0.147-1.14,0.152-2.272,0.01-3.517l0.089-0.229c0.193-0.505,0.386-1.008,0.579-1.564c51.503-9.313,106.866-14.03,164.57-14.03
			c77.66,0,161.95,8.32,257.679,25.443c1.158,0.208,2.239,0.213,3.28,0.094c0.198,0.073,0.371,0.129,0.533,0.175
			c0.157,0.102,0.32,0.193,0.473,0.297c0.34,0.337,0.67,0.688,0.985,1.046c0.36,0.431,0.716,0.868,1.122,1.434
			c0.553,0.843,1.066,1.711,1.584,2.58l0.391,0.65c0.147,0.238,0.3,0.462,0.482,0.724c4.5,53.806,2.956,108.671,1.463,161.73
			l-0.452,16.275C463.03,327.846,463.051,328.166,463.091,328.607z M187.522,90.923c0.048-8.449,2.397-15.322,7.16-20.938
			c0.63-0.739,1.166-1.542,1.656-2.486c2.328-1.404,4.943-2.262,7.117-2.325c0.421-0.016,0.817-0.066,1.325-0.155
			c0.564,0.094,1.14,0.155,1.76,0.155c30.823,0.005,63.599,0.271,95.956,3.364c7.688,8.866,12.045,18.184,13.233,28.381
			c-41.909-3.999-82.436-6.025-120.516-6.025C192.648,90.897,190.086,90.908,187.522,90.923z M266.269,379.981
			c-17.44,0.696-34.751-0.076-53.979-2.33l-0.021-8.78l54.654,2.834C266.822,374.219,266.645,377.077,266.269,379.981z
			 M44.381,369.902c0.993-1.925,1.498-4.078,1.503-6.414c0-0.37,0-0.726,0.005-1.066c41.967,0.823,87.316,2.483,142.247,5.205
			v20.008c0,2.768,0.675,5.25,1.82,7.007c1.892,4.413,5.499,7.303,9.889,7.933c26.878,3.833,50.656,4.976,73.197,3.554
			c0.817-0.051,1.625-0.188,2.442-0.416c5.804,0.365,10.521-3.29,12.207-9.257c1.925-6.83,3.017-14.351,3.397-23.491
			c55.69,2.859,98.808,4.637,138.883,5.729c-0.27,1.833-0.162,3.671,0.319,5.388c0.265,0.944,0.488,1.873,0.686,2.798l0.184,0.99
			c0.005,0.142,0.03,0.482,0.086,1.066c0.208,2.63,0.198,5.28,0.193,7.911v1.381c0,0.285,0.02,0.544,0.065,0.945
			c-0.097,0.868-0.127,1.782-0.061,2.772c0.792,11.272-3.123,18.29-12.319,22.013c-0.284-0.035-0.574-0.061-0.884-0.061
			c-123.588-0.127-248.227-3.732-358.314-6.927c-0.602-0.67-1.221-1.233-1.902-1.731C44.138,405.112,39.659,390.377,44.381,369.902z
			"/>
	</g>
</g>
<g>
</g>
<g>
</g>
<g>
</g>
<g>
</g>
<g>
</g>
<g>
</g>
<g>
</g>
<g>
</g>
<g>
</g>
<g>
</g>
<g>
</g>
<g>
</g>
<g>
</g>
<g>
</g>
<g>
</g>
</svg>
