<?xml version="1.0" encoding="iso-8859-1"?>
<!-- Generator: Adobe Illustrator 16.0.0, SVG Export Plug-In . SVG Version: 6.00 Build 0)  -->
<!DOCTYPE svg PUBLIC "-//W3C//DTD SVG 1.1//EN" "http://www.w3.org/Graphics/SVG/1.1/DTD/svg11.dtd">
<svg version="1.1" id="Capa_1" xmlns="http://www.w3.org/2000/svg" xmlns:xlink="http://www.w3.org/1999/xlink" x="0px" y="0px"
	 width="502.23px" height="502.23px" viewBox="0 0 502.23 502.23" style="enable-background:new 0 0 502.23 502.23;"
	 xml:space="preserve">
<g>
	<g>
		<path d="M375.19,390.085c4.972-16.574,8.313-34.027,9.807-51.831c30.021-2.65,59.899-6.398,89.646-11.273
			c14.533-2.381,8.348-24.425-6.084-22.063c-27.421,4.483-54.943,7.896-82.613,10.364c0-28.203-4.266-56.406-12.883-82.042
			c45.174-11.784,74.514-51.016,71.838-99.109c-0.817-14.673-23.704-14.751-22.887,0c2.209,39.674-20.611,68.634-57.492,77.65
			c-15.509-33.421-39.467-60.313-71.788-73.829c22.531-13.071,43.844-33.68,40.31-61.357c-4.199-32.857-26.629-55.409-52.272-74.4
			c-3.763-2.788-7.47-2.684-10.415-0.987c-4.891,0.784-9.08,4.4-8.714,10.867c1.392,24.202-3.679,47.001-15.404,68.223
			c-0.485,0.417-0.912,0.962-1.354,1.472c-0.441-0.51-0.868-1.056-1.351-1.472c-11.725-21.221-16.795-44.021-15.406-68.223
			c0.368-6.461-3.819-10.083-8.717-10.867c-2.942-1.701-6.649-1.8-10.41,0.987c-25.646,18.992-48.078,41.543-52.273,74.4
			c-3.63,28.401,18.9,49.33,42.061,62.334c-31.069,13.776-54.205,40.085-69.345,72.58c-35.375-10.793-57.292-40.177-62.149-77.373
			c-1.886-14.419-24.793-14.602-22.884,0c6.042,46.258,32.073,84.711,76.495,98.741c-7.66,22.638-11.913,47.291-12.83,72.193
			c-26.715-1.665-53.245-4.748-79.696-9.054c-14.429-2.347-20.624,19.702-6.083,22.068c28.49,4.642,57.084,8.074,85.874,9.867
			c0.967,21.043,4.354,41.867,10.146,61.407c-50.663,9.217-97.543,32.733-98.068,91.876c-0.132,14.762,22.754,14.752,22.884,0
			c0.427-47.956,41.99-63.957,82.792-70.284c20.218,48.876,57.421,85.803,111.652,90.698c1.028,0.31,2.115,0.543,3.349,0.568
			c2.034,0.041,4.009-0.021,5.995-0.061c1.985,0.04,3.968,0.102,5.994,0.061c1.234-0.025,2.326-0.254,3.349-0.568
			c53.854-4.86,90.883-41.346,111.19-89.723c41.903,5.123,91.713,19.605,97.787,68.039c1.808,14.442,24.719,14.619,22.886,0
			C480.604,419.872,428.479,397.89,375.19,390.085z M262.755,95.821c1.152-0.884,2.198-2.052,3.052-3.593
			c10.155-18.23,16.386-37.884,18.311-58.295c14.274,12.682,27.782,29.244,26.157,47.588c-2.031,22.849-22.988,34.86-42.016,43.379
			c-3.788-1.572-9.211-4.248-11.451-8.267c0.475-3.054,0.355-6.152-0.125-9.242C257.917,103.243,260.267,99.432,262.755,95.821z
			 M179.509,81.521c-1.628-18.339,11.875-34.906,26.154-47.588c1.919,20.411,8.155,40.065,18.309,58.295
			c0.858,1.541,1.904,2.709,3.052,3.593c2.485,3.61,4.836,7.416,6.081,11.57c-0.48,3.09-0.599,6.188-0.127,9.242
			c-2.239,4.019-7.663,6.69-11.448,8.267C202.497,116.377,181.542,104.37,179.509,81.521z M130.369,318.938
			c0.089-0.96,0.083-1.935-0.041-2.899c-0.172-39.675,9.031-79.384,27.543-109.875c6.505,61.619,26.807,121.731,60.89,172.532
			c-12.984,23.546-28.188,45.483-45.648,65.855C145.372,413.814,131.118,366.589,130.369,318.938z M246.924,479.259
			c-22.125-0.69-41.073-7.774-56.896-19.367c16.291-19.007,30.798-39.339,43.419-60.945c18.895,24.003,41.201,45.442,67.027,63.276
			C285.352,472.424,267.513,478.614,246.924,479.259z M318.43,447.06c-0.214-0.162-0.376-0.345-0.609-0.497
			c-88.903-58.306-134.625-162.831-139.061-266.767c17.813-17.088,40.522-27.769,68.164-28.419
			C372.932,154.342,396.895,364.969,318.43,447.06z"/>
	</g>
</g>
<g>
</g>
<g>
</g>
<g>
</g>
<g>
</g>
<g>
</g>
<g>
</g>
<g>
</g>
<g>
</g>
<g>
</g>
<g>
</g>
<g>
</g>
<g>
</g>
<g>
</g>
<g>
</g>
<g>
</g>
</svg>
