<?xml version="1.0" encoding="iso-8859-1"?>
<!-- Generator: Adobe Illustrator 16.0.0, SVG Export Plug-In . SVG Version: 6.00 Build 0)  -->
<!DOCTYPE svg PUBLIC "-//W3C//DTD SVG 1.1//EN" "http://www.w3.org/Graphics/SVG/1.1/DTD/svg11.dtd">
<svg version="1.1" id="Capa_1" xmlns="http://www.w3.org/2000/svg" xmlns:xlink="http://www.w3.org/1999/xlink" x="0px" y="0px"
	 width="503.168px" height="503.168px" viewBox="0 0 503.168 503.168" style="enable-background:new 0 0 503.168 503.168;"
	 xml:space="preserve">
<g>
	<g>
		<path d="M486.353,226.804l-1.005,0.028c-10.126,0.516-20.257,0.93-30.393,1.3c-17.452-96.405-92.647-167.758-189.113-178.526
			c-0.097-0.01-0.193-0.02-0.29-0.028c-0.467-0.19-0.949-0.358-1.432-0.513l0.01-8.94c0-9.945-7.637-17.445-17.77-17.445
			c-10.13,0-17.773,7.5-17.773,17.445l-0.005,7.655C141.307,55.341,63.091,134.46,46.196,203.592
			c-3.639,14.884-5.721,30.097-6.213,45.339c-7.993-0.287-15.1-0.714-21.935-1.305c-10.143-0.869-17.605,6.142-18.032,16.043
			c-0.374,8.694,5.345,18.464,16.686,19.449c7.8,0.681,15.907,1.138,25.111,1.417c7.825,54.512,37.968,100.208,85.421,129.198
			c30.722,18.769,70.569,29.407,112.67,30.153c0.787,6.754,1.617,13.508,2.46,20.271c1.343,10.72,10.544,16.33,18.946,16.33
			c5.088,0,9.754-1.99,12.816-5.463c2.976-3.362,4.275-7.912,3.661-12.808c-0.838-6.672-1.65-13.34-2.433-20.007
			c90.805-10.217,184.844-67.578,183.539-172.804c-0.021-1.889-0.071-3.823-0.152-5.859c9.13-0.351,18.265-0.731,27.396-1.188
			c9.963-0.508,17.28-8.572,17.021-18.758C502.912,233.873,495.849,226.804,486.353,226.804z M271.818,407.133
			c-1.899-23.304-2.356-43.041-1.457-61.586c0.233-4.829-1.336-9.283-4.434-12.533c-3.194-3.351-7.876-5.271-12.84-5.271
			c-8.658,0-17.704,5.854-18.25,17.047c-0.942,19.316-0.465,39.816,1.508,63.941c-89.21-3.153-143.064-57.314-157.121-111.009
			c-1.086-4.145-1.906-8.547-2.452-13.152c29.195-0.858,60.915-3.859,98.962-9.338c8.798-1.27,14.508-8.283,13.878-17.053
			c-0.68-9.49-8.952-19.39-21.406-17.625c-34.111,4.913-63.126,7.642-90.446,8.485c12.053-75.373,81.07-152.914,149.349-165.71
			c0.459-0.084,0.921-0.165,1.394-0.239c-0.14,32.763-0.502,58.564-1.165,82.746c-0.13,4.804,1.518,9.219,4.649,12.431
			c3.229,3.319,7.909,5.223,12.85,5.223c10.016,0,17.77-7.406,18.044-17.227c0.65-23.895,1.011-49.284,1.158-81.321
			c0.021,0,0.046,0.005,0.065,0.005c79.074,8.828,144.276,68.878,158.199,144.321c-25.252,0.868-51.165,1.861-76.799,3.806
			c-11.35,0.858-17.118,10.552-16.793,19.24c0.376,9.958,7.79,17.032,17.966,16.266c25.989-1.966,52.491-2.961,78.297-3.845
			c-0.381,12.563-2.127,25.126-5.209,37.445C404.206,364.376,335.572,399.166,271.818,407.133z"/>
	</g>
</g>
<g>
</g>
<g>
</g>
<g>
</g>
<g>
</g>
<g>
</g>
<g>
</g>
<g>
</g>
<g>
</g>
<g>
</g>
<g>
</g>
<g>
</g>
<g>
</g>
<g>
</g>
<g>
</g>
<g>
</g>
</svg>
