<?xml version="1.0" encoding="iso-8859-1"?>
<!-- Generator: Adobe Illustrator 16.0.0, SVG Export Plug-In . SVG Version: 6.00 Build 0)  -->
<!DOCTYPE svg PUBLIC "-//W3C//DTD SVG 1.1//EN" "http://www.w3.org/Graphics/SVG/1.1/DTD/svg11.dtd">
<svg version="1.1" id="Capa_1" xmlns="http://www.w3.org/2000/svg" xmlns:xlink="http://www.w3.org/1999/xlink" x="0px" y="0px"
	 width="481.355px" height="481.354px" viewBox="0 0 481.355 481.354" style="enable-background:new 0 0 481.355 481.354;"
	 xml:space="preserve">
<g>
	<g>
		<path d="M410.855,34.062c-4.194-16.989-18.072-27.935-34.622-31.85c-1.686-0.401-3.392-0.467-5.047-0.292
			c-0.473-0.061-0.909-0.18-1.407-0.2c-84.056-3.781-168.121-0.178-252.202,0c-0.442,0-0.823,0.091-1.239,0.124
			c-0.513-0.043-0.988-0.137-1.534-0.124c-11.715,0.206-24.11,3.399-31.795,12.888c-7.884,9.734-9.844,22.018-8.389,34.221
			c0.224,1.868,0.681,3.656,1.379,5.304c-0.021,18.859-0.208,37.699-1.051,56.538c-0.213,1.026-0.333,2.112-0.322,3.293
			c0.01,1.361-0.005,2.725,0.005,4.085c-0.005,0.023-0.005,0.048-0.005,0.069c0,0.025,0.005,0.045,0.005,0.073
			c0.833,106.711-6.541,213.313-4.164,320.032c0.016,0.716,0.145,1.351,0.244,2.011c-0.099,1.457-0.056,2.95,0.249,4.443
			c4.271,20.865,21.696,33.321,42.467,33.732c0.584,0.011,1.099-0.086,1.645-0.132c0.383,0.03,0.726,0.127,1.127,0.132
			c81.293,1.377,162.584,2.707,243.888,2.773c0.939,0,1.808-0.117,2.65-0.265c0.503,0.092,0.99,0.208,1.503,0.265
			c15.062,1.503,29.295-7.028,35.521-20.724c0.976-2.128,1.478-4.352,1.59-6.546c0.111-0.604,0.269-1.183,0.31-1.838
			c9.369-137.004,7.068-274.353,9.704-411.56c0.01-0.709-0.092-1.338-0.157-1.988C411.287,37.058,411.22,35.555,410.855,34.062z
			 M383.632,40.517c-2.615,136.453-0.387,273.048-9.577,409.3c-0.274,0.437-0.554,0.879-0.635,1.051
			c-0.305,0.336-0.595,0.691-0.93,1.011c-0.173,0.178-0.238,0.259-0.345,0.386c-0.152,0.087-0.29,0.163-0.539,0.325
			c-0.386,0.233-0.797,0.422-1.193,0.635c0.691-0.416-0.914,0.152-1.731,0.411c-0.147,0.011-0.243,0.016-0.427,0.036
			c-1.351,0.076-2.701-0.071-4.026-0.203c-0.98-0.102-1.939-0.046-2.874,0.127c-0.432-0.036-0.828-0.127-1.279-0.127
			c-81.309-0.066-162.6-1.396-243.888-2.772c-0.589-0.011-1.097,0.086-1.638,0.132c-0.386-0.036-0.734-0.122-1.135-0.132
			c-4.357-0.087-6.942-0.706-10.549-3.002c0.307,0.107-0.704-0.792-1.379-1.371c-0.094-0.254-1.574-2.102-1.638-2.208
			c-0.614-1.021-1.221-2.778-1.747-4.937c0.011-0.324,0.079-0.609,0.074-0.949c-2.377-106.765,5.007-213.415,4.164-320.174
			c1.237-22.597,1.384-45.202,1.384-67.832c0-2.734-0.708-5.002-1.815-6.898c-0.051-1.854-0.02-3.704,0.114-5.575
			c0.084,0.327,0.64-2.605,0.65-2.651c0.109-0.317,0.188-0.531,0.254-0.734c0.226-0.421,0.47-0.828,0.714-1.234
			c-0.224,0.459,0.457-0.399,1.003-1.074c-0.1,0.432,3.397-1.988,1.224-1.1c3.613-1.475,5.599-1.46,8.937-1.523
			c0.442-0.01,0.833-0.104,1.254-0.145c0.508,0.045,0.978,0.149,1.519,0.145c84.081-0.175,168.146-3.78,252.202,0
			c0.224,0.01,0.412-0.036,0.63-0.036c1.422,0.391,2.854,0.78,4.245,1.27c0.229,0.16,2.148,1.003,2.29,1.082
			c0.858,0.457,1.641,1.019,2.442,1.569c-0.365-0.155,1.555,1.457,1.747,1.647c0.208,0.214,0.32,0.308,0.452,0.432
			c0.106,0.183,0.233,0.391,0.457,0.734c0.106,0.145,0.894,1.752,1.147,2.138c0.193,0.561,0.355,1.132,0.513,1.711
			C383.683,40.166,383.637,40.323,383.632,40.517z"/>
		<path d="M341.307,65.673c-66.05-2.45-132.132-1.425-198.201-2.641c-5.792-0.112-9.567,2.895-11.418,6.893
			c-2.034,2.113-3.308,5.065-3.12,8.965c1.221,25.095,1.325,50.198,1.325,75.319c0,4.519,1.884,7.799,4.608,9.922
			c2.127,2.729,5.413,4.611,9.927,4.611h191.597c5.738,0,9.501-3.021,11.375-6.992c1.66-1.955,2.833-4.466,3.163-7.546
			c2.58-24.159,3.864-48.38,3.961-72.678c0.005-1.465-0.238-2.76-0.594-3.977C353.214,71.568,349.031,65.957,341.307,65.673z
			 M325.246,142.307H156.304c-0.041-17.564-0.229-35.119-0.874-52.674c57.511,0.838,115.028,0.302,172.526,2.049
			C327.637,108.592,326.753,125.466,325.246,142.307z"/>
		<path d="M182.387,193.303h-40.299c-1.821,0-3.4,0.353-4.827,0.898c-5.126,1.259-9.473,5.258-9.473,12.101
			c0,14.32-0.104,28.62-1.3,42.899c-0.282,3.32,0.551,5.951,2.034,7.941c1.871,3.966,5.512,7.15,10.966,7.658
			c12.979,1.198,25.979,1.3,38.999,1.3c1.965,0,3.682-0.386,5.185-1.016c5.205-1.285,9.844-5.251,10.415-11.984
			c1.145-13.416,1.3-26.842,1.3-40.299c0-1.488-0.264-2.793-0.635-4.014C195.958,201.574,191.839,193.303,182.387,193.303z
			 M168.887,240.038c-5.261-0.051-10.514-0.15-15.77-0.374c0.358-6.781,0.502-13.57,0.576-20.362h15.648
			C169.293,226.218,169.189,233.134,168.887,240.038z"/>
		<path d="M260.384,193.303h-40.299c-1.82,0-3.399,0.353-4.827,0.898c-5.126,1.259-9.473,5.258-9.473,12.101
			c0,14.32-0.104,28.62-1.3,42.899c-0.282,3.32,0.551,5.951,2.034,7.941c1.872,3.966,5.512,7.15,10.966,7.658
			c12.979,1.198,25.979,1.3,38.998,1.3c1.966,0,3.682-0.386,5.186-1.016c5.205-1.285,9.841-5.251,10.414-11.984
			c1.143-13.416,1.301-26.842,1.301-40.299c0-1.488-0.265-2.793-0.635-4.014C273.953,201.574,269.834,193.303,260.384,193.303z
			 M246.882,240.038c-5.259-0.051-10.512-0.15-15.768-0.374c0.358-6.781,0.503-13.57,0.576-20.362h15.648
			C247.289,226.218,247.187,233.134,246.882,240.038z"/>
		<path d="M338.382,193.303h-40.299c-1.823,0-3.402,0.353-4.829,0.898c-5.124,1.259-9.471,5.258-9.471,12.101
			c0,14.32-0.106,28.62-1.3,42.899c-0.284,3.32,0.548,5.951,2.031,7.941c1.873,3.966,5.515,7.15,10.968,7.658
			c12.979,1.198,25.979,1.3,38.999,1.3c1.965,0,3.682-0.386,5.185-1.016c5.205-1.285,9.842-5.251,10.415-11.984
			c1.143-13.416,1.3-26.842,1.3-40.299c0-1.488-0.264-2.793-0.635-4.014C351.951,201.574,347.833,193.303,338.382,193.303z
			 M324.879,240.038c-5.261-0.051-10.511-0.15-15.767-0.374c0.355-6.781,0.502-13.57,0.573-20.362h15.65
			C325.286,226.218,325.184,233.134,324.879,240.038z"/>
		<path d="M182.387,276.5h-40.299c-1.821,0-3.4,0.351-4.827,0.898c-5.126,1.26-9.473,5.256-9.473,12.102
			c0,14.319-0.104,28.619-1.3,42.898c-0.282,3.321,0.551,5.951,2.034,7.941c1.871,3.967,5.512,7.15,10.966,7.658
			c12.979,1.198,25.979,1.3,38.999,1.3c1.965,0,3.682-0.386,5.185-1.016c5.205-1.284,9.844-5.251,10.415-11.984
			c1.145-13.416,1.3-26.842,1.3-40.299c0-1.487-0.264-2.792-0.635-4.017C195.958,284.771,191.839,276.5,182.387,276.5z
			 M168.887,323.232c-5.261-0.051-10.514-0.147-15.77-0.37c0.358-6.784,0.502-13.574,0.576-20.363h15.648
			C169.293,309.415,169.189,316.332,168.887,323.232z"/>
		<path d="M260.384,276.5h-40.299c-1.82,0-3.399,0.351-4.827,0.898c-5.126,1.26-9.473,5.256-9.473,12.102
			c0,14.319-0.104,28.619-1.3,42.898c-0.282,3.321,0.551,5.951,2.034,7.941c1.872,3.967,5.512,7.15,10.966,7.658
			c12.979,1.198,25.979,1.3,38.998,1.3c1.966,0,3.682-0.386,5.186-1.016c5.205-1.284,9.841-5.251,10.414-11.984
			c1.143-13.416,1.301-26.842,1.301-40.299c0-1.487-0.265-2.792-0.635-4.017C273.953,284.771,269.834,276.5,260.384,276.5z
			 M246.882,323.232c-5.259-0.051-10.512-0.147-15.768-0.37c0.358-6.784,0.503-13.574,0.576-20.363h15.648
			C247.289,309.415,247.187,316.332,246.882,323.232z"/>
		<path d="M338.382,276.5h-40.299c-1.823,0-3.402,0.351-4.829,0.898c-5.124,1.26-9.471,5.256-9.471,12.102
			c0,14.319-0.106,28.619-1.3,42.898c-0.284,3.321,0.548,5.951,2.031,7.941c1.873,3.967,5.515,7.15,10.968,7.658
			c12.979,1.198,25.979,1.3,38.999,1.3c1.965,0,3.682-0.386,5.185-1.016c5.205-1.284,9.842-5.251,10.415-11.984
			c1.143-13.416,1.3-26.842,1.3-40.299c0-1.487-0.264-2.792-0.635-4.017C351.951,284.771,347.833,276.5,338.382,276.5z
			 M324.879,323.232c-5.261-0.051-10.511-0.147-15.767-0.37c0.355-6.784,0.502-13.574,0.573-20.363h15.65
			C325.286,309.415,325.184,316.332,324.879,323.232z"/>
		<path d="M182.387,359.697h-40.299c-1.821,0-3.4,0.351-4.827,0.899c-5.126,1.259-9.473,5.255-9.473,12.101
			c0,14.32-0.104,28.619-1.3,42.898c-0.282,3.321,0.551,5.951,2.034,7.942c1.871,3.966,5.512,7.149,10.966,7.657
			c12.979,1.198,25.979,1.3,38.999,1.3c1.965,0,3.682-0.386,5.185-1.016c5.205-1.284,9.844-5.25,10.415-11.983
			c1.145-13.416,1.3-26.843,1.3-40.299c0-1.488-0.264-2.793-0.635-4.017C195.958,367.97,191.839,359.697,182.387,359.697z
			 M168.887,406.43c-5.261-0.051-10.514-0.146-15.77-0.37c0.358-6.784,0.502-13.573,0.576-20.362h15.648
			C169.293,392.613,169.189,399.529,168.887,406.43z"/>
		<path d="M260.384,359.697h-40.299c-1.82,0-3.399,0.351-4.827,0.899c-5.126,1.259-9.473,5.255-9.473,12.101
			c0,14.32-0.104,28.619-1.3,42.898c-0.282,3.321,0.551,5.951,2.034,7.942c1.872,3.966,5.512,7.149,10.966,7.657
			c12.979,1.198,25.979,1.3,38.998,1.3c1.966,0,3.682-0.386,5.186-1.016c5.205-1.284,9.841-5.25,10.414-11.983
			c1.143-13.416,1.301-26.843,1.301-40.299c0-1.488-0.265-2.793-0.635-4.017C273.953,367.97,269.834,359.697,260.384,359.697z
			 M246.882,406.43c-5.259-0.051-10.512-0.146-15.768-0.37c0.358-6.784,0.503-13.573,0.576-20.362h15.648
			C247.289,392.613,247.187,399.529,246.882,406.43z"/>
		<path d="M338.382,359.697h-40.299c-1.823,0-3.402,0.351-4.829,0.899c-5.124,1.259-9.471,5.255-9.471,12.101
			c0,14.32-0.106,28.619-1.3,42.898c-0.284,3.321,0.548,5.951,2.031,7.942c1.873,3.966,5.515,7.149,10.968,7.657
			c12.979,1.198,25.979,1.3,38.999,1.3c1.965,0,3.682-0.386,5.185-1.016c5.205-1.284,9.842-5.25,10.415-11.983
			c1.143-13.416,1.3-26.843,1.3-40.299c0-1.488-0.264-2.793-0.635-4.017C351.951,367.97,347.833,359.697,338.382,359.697z
			 M324.879,406.43c-5.261-0.051-10.511-0.146-15.767-0.37c0.355-6.784,0.502-13.573,0.573-20.362h15.65
			C325.286,392.613,325.184,399.529,324.879,406.43z"/>
	</g>
</g>
<g>
</g>
<g>
</g>
<g>
</g>
<g>
</g>
<g>
</g>
<g>
</g>
<g>
</g>
<g>
</g>
<g>
</g>
<g>
</g>
<g>
</g>
<g>
</g>
<g>
</g>
<g>
</g>
<g>
</g>
</svg>
