<?xml version="1.0" encoding="iso-8859-1"?>
<!-- Generator: Adobe Illustrator 16.0.0, SVG Export Plug-In . SVG Version: 6.00 Build 0)  -->
<!DOCTYPE svg PUBLIC "-//W3C//DTD SVG 1.1//EN" "http://www.w3.org/Graphics/SVG/1.1/DTD/svg11.dtd">
<svg version="1.1" id="Capa_1" xmlns="http://www.w3.org/2000/svg" xmlns:xlink="http://www.w3.org/1999/xlink" x="0px" y="0px"
	 width="461.077px" height="461.077px" viewBox="0 0 461.077 461.077" style="enable-background:new 0 0 461.077 461.077;"
	 xml:space="preserve">
<g>
	<g>
		<path d="M441.012,90.885c-0.985-5.225-4.205-8.028-8.014-8.99c-1.518-0.63-3.163-0.993-4.885-0.993h-4.332
			c-1.371,0-2.676,0.279-3.92,0.686c-0.746-0.129-1.473-0.284-2.305-0.284c-17.174-0.01-34.358-0.099-51.531-0.147
			c-0.361-5.73-0.615-11.476-0.66-17.252c-0.127-16.821-26.229-16.836-26.096,0c0.045,5.735,0.264,11.461,0.614,17.176
			c-15.133-0.053-30.265-0.068-45.393-0.132c-0.482-6.378-0.838-12.776-0.889-19.223c-0.132-16.821-26.228-16.836-26.101,0
			c0.056,6.396,0.381,12.766,0.843,19.121c-14.96-0.063-29.917-0.132-44.881-0.183c-0.432-7.046-0.912-14.086-1.627-21.112
			c-1.691-16.572-27.805-16.74-26.099,0c0.711,7,1.196,14.013,1.623,21.033c-15.391-0.035-30.783-0.145-46.169-0.14
			c-1.3-5.934-2.564-11.877-3.765-17.841c-3.324-16.488-28.475-9.496-25.167,6.937c0.736,3.667,1.518,7.323,2.292,10.976
			c-14.348,0.038-28.693,0.023-43.033,0.122c-1.071-4.599-2.262-9.168-3.687-13.688c-5.045-15.988-30.245-9.156-25.169,6.937
			c0.729,2.316,1.249,4.665,1.871,6.995C42.883,81,31.229,81.115,19.577,81.292c-3.255,0.051-5.865,1.082-7.858,2.691
			C5.575,84.405-0.184,88.552,0.004,96.517c2.08,89.25,2.6,199.338,10.872,288.3c0.109,1.152,0.361,2.214,0.688,3.209
			c0.81,5.834,4.923,11.39,12.365,12.015c141.12,11.786,288.356,27.426,427.558-6.987c7.165-1.772,9.846-7.612,9.227-13.264
			c0.249-1.133,0.411-2.326,0.351-3.667C456.926,287.654,457.57,178.241,441.012,90.885z M26.326,107.327
			c11.189-0.162,22.381-0.162,33.57-0.271c1.285,8.762,2.277,17.583,3.166,26.449c1.666,16.582,27.779,16.742,26.099,0
			c-0.894-8.892-1.806-17.801-2.983-26.66c14.787-0.102,29.577-0.089,44.358-0.122c2.138,8.673,4.405,17.316,6.937,25.895
			c4.753,16.104,29.94,9.247,25.167-6.937c-1.866-6.317-3.572-12.667-5.215-19.03c13.817-0.005,27.632,0.082,41.449,0.114
			c0.333,5.294,0.711,10.58,1.206,15.864c1.539,16.612,27.652,16.76,26.098,0c-0.49-5.256-0.868-10.524-1.201-15.792
			c15.424,0.048,30.856,0.109,46.283,0.167c0.944,6.38,1.995,12.746,3.234,19.093c3.204,16.511,28.36,9.5,25.167-6.937
			c-0.782-4.019-1.458-8.039-2.103-12.063c15.021,0.056,30.036,0.066,45.047,0.114c1.016,7.051,2.168,14.082,3.656,21.059
			c3.498,16.458,28.654,9.476,25.166-6.937c-0.99-4.674-1.849-9.358-2.59-14.053c16.239,0.041,32.479,0.112,48.719,0.125
			c3.401,19.486,5.926,39.044,7.891,58.653c-132.616-1.707-265.189,2.143-397.732,6.34
			C27.225,150.703,26.806,129.016,26.326,107.327z M36.154,374.995c-4.494-51.831-6.5-124.558-7.83-176.525
			c133.089-4.212,266.203-8.074,399.373-6.297c3.976,52.222,4.707,125.518,7.013,177.922
			C304.906,399.867,167.715,386.151,36.154,374.995z"/>
		<path d="M252.618,224.573c-20.119,0-20.119,33.106,0,33.106C272.737,257.679,272.737,224.573,252.618,224.573z"/>
		<path d="M316.316,223.196c-20.119,0-20.119,33.106,0,33.106S336.436,223.196,316.316,223.196z"/>
		<path d="M380.015,220.434c-20.119,0-20.119,33.106,0,33.106S400.134,220.434,380.015,220.434z"/>
		<path d="M252.618,274.238c-20.119,0-20.119,33.103,0,33.103C272.737,307.341,272.737,274.238,252.618,274.238z"/>
		<path d="M316.316,272.856c-20.119,0-20.119,33.108,0,33.108S336.436,272.856,316.316,272.856z"/>
		<path d="M380.015,270.094c-20.119,0-20.119,33.109,0,33.109S400.134,270.094,380.015,270.094z"/>
		<path d="M71.035,272.323c-20.109-0.609-20.998,32.489-0.884,33.094C90.263,306.021,91.146,272.933,71.035,272.323z"/>
		<path d="M134.749,272.861c-20.114-0.609-20.998,32.489-0.884,33.099C153.971,306.564,154.857,273.466,134.749,272.861z"/>
		<path d="M198.492,272.019c-20.111-0.604-20.995,32.489-0.884,33.099C217.718,305.727,218.601,272.628,198.492,272.019z"/>
		<path d="M71.035,321.986c-20.109-0.609-20.998,32.488-0.884,33.098C90.263,355.688,91.146,322.596,71.035,321.986z"/>
		<path d="M134.749,322.524c-20.114-0.604-20.998,32.489-0.884,33.099C153.971,356.227,154.857,323.129,134.749,322.524z"/>
		<path d="M198.492,321.687c-20.111-0.609-20.995,32.483-0.884,33.093C217.718,355.389,218.601,322.291,198.492,321.687z"/>
	</g>
</g>
<g>
</g>
<g>
</g>
<g>
</g>
<g>
</g>
<g>
</g>
<g>
</g>
<g>
</g>
<g>
</g>
<g>
</g>
<g>
</g>
<g>
</g>
<g>
</g>
<g>
</g>
<g>
</g>
<g>
</g>
</svg>
