<?xml version="1.0" encoding="iso-8859-1"?>
<!-- Generator: Adobe Illustrator 16.0.0, SVG Export Plug-In . SVG Version: 6.00 Build 0)  -->
<!DOCTYPE svg PUBLIC "-//W3C//DTD SVG 1.1//EN" "http://www.w3.org/Graphics/SVG/1.1/DTD/svg11.dtd">
<svg version="1.1" id="Capa_1" xmlns="http://www.w3.org/2000/svg" xmlns:xlink="http://www.w3.org/1999/xlink" x="0px" y="0px"
	 width="415.154px" height="415.154px" viewBox="0 0 415.154 415.154" style="enable-background:new 0 0 415.154 415.154;"
	 xml:space="preserve">
<g>
	<g>
		<path d="M383.605,65.133c-0.345-7.32,1.488-20.244,1.442-32.659C384.997,15.777,381.534,0,364.782,0
			c-0.482,0-0.939,0.109-1.407,0.145c-1.898-0.12-3.879-0.046-6.032,0.505C238.909,30.986,131.387,95.339,36.026,170.424
			c-5.36,4.223-6.889,9.372-6.025,14.211c-0.371,2.575-0.599,5.149-0.604,7.759c-0.005,5.86,2.928,11.1,7.343,14.444
			c0.577,0.787,1.143,1.572,1.887,2.323c85.564,86.296,185.217,163.39,300.518,204.876c3.747,1.346,7.089,1.382,10.019,0.604
			c6.87-0.111,13.66-0.635,20.469-1.904c8.577-1.595,13.787-10.785,13.244-19.058c0.01-0.37,0.106-0.7,0.106-1.092
			C382.981,283.402,388.791,174.289,383.605,65.133z M346.658,378.112c-105.606-38.517-197.16-109.954-276.208-188.665
			C152.918,125.7,245.515,71.123,345.866,41.579C353.208,153.66,347.338,265.914,346.658,378.112z"/>
	</g>
</g>
<g>
</g>
<g>
</g>
<g>
</g>
<g>
</g>
<g>
</g>
<g>
</g>
<g>
</g>
<g>
</g>
<g>
</g>
<g>
</g>
<g>
</g>
<g>
</g>
<g>
</g>
<g>
</g>
<g>
</g>
</svg>
