<?xml version="1.0" encoding="iso-8859-1"?>
<!-- Generator: Adobe Illustrator 16.0.0, SVG Export Plug-In . SVG Version: 6.00 Build 0)  -->
<!DOCTYPE svg PUBLIC "-//W3C//DTD SVG 1.1//EN" "http://www.w3.org/Graphics/SVG/1.1/DTD/svg11.dtd">
<svg version="1.1" id="Capa_1" xmlns="http://www.w3.org/2000/svg" xmlns:xlink="http://www.w3.org/1999/xlink" x="0px" y="0px"
	 width="415.153px" height="415.153px" viewBox="0 0 415.153 415.153" style="enable-background:new 0 0 415.153 415.153;"
	 xml:space="preserve">
<g>
	<g>
		<path d="M412.738,45.531c-1.595-8.579-10.786-13.789-19.058-13.249c-0.376-0.02-0.706-0.109-1.092-0.109
			c-109.187,0-218.3-5.81-327.456-0.625c-7.32,0.348-20.243-1.493-32.659-1.444C15.775,30.16,0,33.623,0,50.373
			c0,0.482,0.109,0.942,0.145,1.409c-0.119,1.896-0.045,3.88,0.505,6.027c30.336,118.437,94.689,225.957,169.775,321.322
			c4.222,5.356,9.371,6.886,14.21,6.022c2.575,0.37,5.149,0.599,7.759,0.604c5.86,0.006,11.101-2.925,14.444-7.343
			c0.784-0.573,1.571-1.143,2.323-1.884c86.295-85.563,163.389-185.216,204.876-300.522c1.346-3.745,1.381-7.083,0.6-10.016
			C414.53,59.125,414.008,52.337,412.738,45.531z M189.447,344.712C125.7,262.241,71.122,169.642,41.579,69.291
			c112.081-7.348,224.33-1.478,336.533-0.792C339.595,174.103,268.158,265.659,189.447,344.712z"/>
	</g>
</g>
<g>
</g>
<g>
</g>
<g>
</g>
<g>
</g>
<g>
</g>
<g>
</g>
<g>
</g>
<g>
</g>
<g>
</g>
<g>
</g>
<g>
</g>
<g>
</g>
<g>
</g>
<g>
</g>
<g>
</g>
</svg>
