<?xml version="1.0" encoding="iso-8859-1"?>
<!-- Generator: Adobe Illustrator 16.0.0, SVG Export Plug-In . SVG Version: 6.00 Build 0)  -->
<!DOCTYPE svg PUBLIC "-//W3C//DTD SVG 1.1//EN" "http://www.w3.org/Graphics/SVG/1.1/DTD/svg11.dtd">
<svg version="1.1" id="Capa_1" xmlns="http://www.w3.org/2000/svg" xmlns:xlink="http://www.w3.org/1999/xlink" x="0px" y="0px"
	 width="479.629px" height="479.63px" viewBox="0 0 479.629 479.63" style="enable-background:new 0 0 479.629 479.63;"
	 xml:space="preserve">
<g>
	<g>
		<path d="M334.486,183.267c-0.752-0.218-1.533-0.401-2.382-0.487c-20.048-2.097-69.354-2.808-89.486-3.021
			c-0.378-9.336-0.391-23.379-0.328-32.728c0.025-3.641-1.3-6.408-3.295-8.373c-2.659-7.666-12.601-12.857-19.812-5.256
			c-33.192,34.951-67.994,63.566-102.916,96.778c-7.175,6.83-3.031,16.209,3.857,19.52c33.377,27.833,66.679,65.166,100.062,92.993
			c5.314,4.428,11.705,3.514,16.115,0.254c4.555-1.29,8.341-4.966,8.381-11.126c0.094-12.74,0.249-25.466,1.196-38.171
			c17.318-0.406,63.833,0.249,80.981,3.026c8.571,1.392,14.446-5.312,15.279-11.923c0.879-1.604,1.442-3.504,1.457-5.779
			c0.198-27.989,0.488-55.974,1.809-83.938C345.759,187.489,340.315,183.589,334.486,183.267z M319.348,271.372
			c-18.591-2.036-66.374-2.473-85.186-1.681c-9.199,0.386-13.02,8.968-11.44,15.844c-0.414,1.086-0.742,2.234-0.863,3.544
			c-0.676,7.465-1.023,14.944-1.221,22.435c-25.687-21.449-51.354-52.339-77.051-73.778c25.171-24.008,50.183-43.47,74.529-68.316
			c0.14,5.459,0.363,15.625,0.785,21.082c0.343,4.481,2.648,7.653,5.68,9.582c1.945,2.313,4.882,3.875,8.823,3.905
			c19.377,0.14,67.918,0.684,87.225,2.174C319.816,227.892,319.526,249.634,319.348,271.372z"/>
		<path d="M476.42,290.206c-2.26-33.321-2.021-67.442-1.793-100.435c0.092-11.783,0.168-23.572,0.143-35.373
			c-0.016-6.553,0.351-14.343,0.746-22.594c1.752-36.861,3.936-82.741-21.221-109.118c-11.969-12.553-28.508-18.918-49.175-18.918
			c-8.643,0-17.291,0.045-25.938,0.094c-8.597,0.045-17.204,0.094-25.796,0.094l-8.217-0.016
			c-9.028-0.038-18.057-0.053-27.075-0.053l-57.991,0.068c-39.938,0-82.732-0.241-125.096-1.998l-1.825-0.076
			c-8.257-0.346-17.623-0.734-27.418-0.734c-69.142,0-104.2,24.273-104.206,72.138c-0.005,37.943-0.406,76.55-0.784,113.886
			c-0.351,34.589-0.719,70.363-0.77,105.579c-0.053,33.896,0.389,61.905,1.401,88.158l0.137,3.748
			c0.795,22.048,1.788,49.489,19.296,70.146c18.677,22.028,44.592,22.541,69.091,22.171c2.59-0.036,5.172-0.071,7.731-0.071h1.554
			c34.254,0,69.19,0.396,102.979,0.792c33.908,0.386,68.984,0.787,103.489,0.787c35.617,0,66.913-0.432,95.695-1.33
			c25.969-0.812,59.584-13.01,72.295-66.501c8.678-36.526,6.032-73.895,3.473-110.035L476.42,290.206z M445.845,404.045
			c-9.14,38.491-29.046,44.016-45.361,44.519c-28.482,0.889-59.488,1.32-94.801,1.32c-34.342,0-69.332-0.401-103.167-0.787
			c-33.868-0.396-68.888-0.793-103.301-0.793h-1.564c-2.684,0-5.393,0.036-8.117,0.076c-2.635,0.036-5.278,0.076-7.909,0.076
			c-18.169,0-30.372-1.99-38.974-12.136c-11.101-13.106-11.824-33.23-12.525-52.689l-0.142-3.809
			c-0.993-25.867-1.43-53.521-1.381-87.026c0.056-35.088,0.419-70.794,0.77-105.322c0.378-37.407,0.774-76.091,0.779-114.178
			c0-21.533,8.991-43.544,75.606-43.544c9.204,0,18.25,0.378,26.233,0.711l1.831,0.079c42.884,1.777,86.042,2.023,126.281,2.023
			l57.986-0.059c8.982,0,17.971,0.01,26.959,0.054l8.338,0.015c8.643,0,17.295-0.048,25.948-0.094
			c8.597-0.046,17.199-0.094,25.786-0.094c12.71,0,22.023,3.288,28.482,10.057c16.706,17.519,14.767,58.27,13.35,88.021
			c-0.406,8.612-0.792,16.75-0.777,24.009c0.025,11.715-0.056,23.42-0.142,35.114c-0.233,33.52-0.473,68.18,1.854,102.567
			l0.736,10.501C451.025,336.63,453.519,371.779,445.845,404.045z"/>
		<path d="M427.052,145.896c0.33-26.504,0.746-59.491-18.819-79.303c-9.76-9.879-22.998-14.891-39.354-14.891
			c-6.753,0-13.512,0.036-20.266,0.071c-6.703,0.036-13.416,0.074-20.119,0.074l-6.591-0.011c-7.049-0.027-14.097-0.038-21.14-0.038
			l-45.605,0.049c-31.255,0-64.737-0.193-97.881-1.567l-1.424-0.061c-6.505-0.271-13.883-0.579-21.632-0.579
			c-56.246,0-84.771,20.068-84.771,59.644c-0.005,29.76-0.312,60.047-0.609,89.34c-0.279,27.091-0.561,55.104-0.607,82.687
			c-0.043,26.568,0.312,48.576,1.102,69.233l0.109,2.936c0.645,17.757,1.439,39.852,15.858,56.873
			c15.5,18.296,36.617,18.748,56.581,18.464c2.011-0.031,4.015-0.062,5.995-0.062h1.106c26.842,0,54.235,0.32,80.717,0.62
			c26.604,0.314,54.114,0.629,81.2,0.629c27.964,0,52.547-0.345,75.153-1.046c32.316-1.011,53.207-20.819,58.823-55.781
			c1.066-6.657,1.585-13.909,1.523-21.536c-0.259-30.717,0.051-62.012,0.336-92.267c0.324-33.281,0.649-67.687,0.254-101.605
			C426.941,154.068,426.997,150.077,427.052,145.896z M398.133,259.099c-0.29,30.387-0.595,61.799-0.335,92.765
			c0.045,6.043-0.341,11.68-1.163,16.777c-4.402,27.391-19.134,31.342-31.483,31.728c-22.308,0.701-46.596,1.036-74.261,1.036
			c-26.918,0-54.347-0.32-80.872-0.62c-26.565-0.314-54.042-0.629-81.05-0.629h-1.122c-2.107,0-4.238,0.03-6.38,0.065
			c-2.064,0.03-4.146,0.056-6.216,0.056c-13.309,0-22.18-1.381-28.145-8.408c-8.013-9.456-8.559-24.689-9.095-39.416l-0.109-3.006
			c-0.777-20.267-1.125-41.908-1.082-68.096c0.045-27.451,0.327-55.408,0.602-82.438c0.302-29.358,0.609-59.725,0.614-89.629
			c0-16.125,6.807-31.044,56.173-31.044c7.149,0,14.213,0.297,20.441,0.559l1.429,0.056c33.669,1.399,67.509,1.592,99.072,1.592
			l45.604-0.048c7.008,0,14.011,0.01,21.023,0.038l6.708,0.01c6.759,0,13.518-0.038,20.271-0.073
			c6.708-0.036,13.411-0.074,20.113-0.074c8.541,0,14.762,2.092,19.007,6.391c11.162,11.311,10.821,38.786,10.567,58.849
			c-0.061,4.423-0.111,8.653-0.065,12.563C398.783,191.717,398.458,225.968,398.133,259.099z"/>
	</g>
</g>
<g>
</g>
<g>
</g>
<g>
</g>
<g>
</g>
<g>
</g>
<g>
</g>
<g>
</g>
<g>
</g>
<g>
</g>
<g>
</g>
<g>
</g>
<g>
</g>
<g>
</g>
<g>
</g>
<g>
</g>
</svg>
