<?xml version="1.0" encoding="iso-8859-1"?>
<!-- Generator: Adobe Illustrator 16.0.0, SVG Export Plug-In . SVG Version: 6.00 Build 0)  -->
<!DOCTYPE svg PUBLIC "-//W3C//DTD SVG 1.1//EN" "http://www.w3.org/Graphics/SVG/1.1/DTD/svg11.dtd">
<svg version="1.1" id="Capa_1" xmlns="http://www.w3.org/2000/svg" xmlns:xlink="http://www.w3.org/1999/xlink" x="0px" y="0px"
	 width="415.155px" height="415.154px" viewBox="0 0 415.155 415.154" style="enable-background:new 0 0 415.155 415.154;"
	 xml:space="preserve">
<g>
	<g>
		<path d="M414.505,357.34c-30.336-118.434-94.689-225.955-169.777-321.316c-4.22-5.36-9.369-6.889-14.208-6.025
			c-2.575-0.37-5.149-0.599-7.76-0.604c-5.859-0.005-11.1,2.927-14.444,7.343c-0.785,0.576-1.572,1.145-2.326,1.886
			C119.701,124.187,42.602,223.84,1.117,339.141c-1.346,3.747-1.384,7.089-0.602,10.019c0.109,6.87,0.632,13.66,1.902,20.47
			c1.597,8.576,10.786,13.786,19.058,13.243c0.376,0.021,0.704,0.111,1.092,0.111c109.187,0,218.297,5.81,327.454,0.625
			c7.322-0.351,20.245,1.493,32.661,1.447c16.696-0.062,32.474-3.524,32.474-20.271c0-0.482-0.111-0.944-0.147-1.411
			C415.129,361.474,415.053,359.493,414.505,357.34z M37.044,346.666C75.563,241.055,146.995,149.501,225.706,70.452
			c63.749,82.471,118.327,175.07,147.871,275.422C261.496,353.217,149.247,347.347,37.044,346.666z"/>
	</g>
</g>
<g>
</g>
<g>
</g>
<g>
</g>
<g>
</g>
<g>
</g>
<g>
</g>
<g>
</g>
<g>
</g>
<g>
</g>
<g>
</g>
<g>
</g>
<g>
</g>
<g>
</g>
<g>
</g>
<g>
</g>
</svg>
