<?xml version="1.0" encoding="iso-8859-1"?>
<!-- Generator: Adobe Illustrator 16.0.0, SVG Export Plug-In . SVG Version: 6.00 Build 0)  -->
<!DOCTYPE svg PUBLIC "-//W3C//DTD SVG 1.1//EN" "http://www.w3.org/Graphics/SVG/1.1/DTD/svg11.dtd">
<svg version="1.1" id="Capa_1" xmlns="http://www.w3.org/2000/svg" xmlns:xlink="http://www.w3.org/1999/xlink" x="0px" y="0px"
	 width="479.625px" height="479.625px" viewBox="0 0 479.625 479.625" style="enable-background:new 0 0 479.625 479.625;"
	 xml:space="preserve">
<g>
	<g>
		<path d="M331.816,234.945c-12.741-0.089-25.472-0.249-38.172-1.196c-0.406-17.315,0.249-63.833,3.026-80.983
			c1.387-8.569-5.312-14.444-11.923-15.277c-1.609-0.883-3.504-1.449-5.778-1.465c-27.99-0.198-55.978-0.485-83.942-1.805
			c-7.546-0.353-11.446,5.085-11.768,10.915c-0.218,0.754-0.401,1.534-0.487,2.381c-2.098,20.056-2.813,69.355-3.021,89.495
			c-9.333,0.381-23.379,0.391-32.728,0.328c-3.641-0.025-6.406,1.3-8.374,3.298c-7.663,2.656-12.857,12.599-5.255,19.81
			c34.952,33.194,63.569,67.994,96.779,102.91c6.822,7.175,16.216,3.031,19.522-3.854c27.827-33.383,65.165-66.684,92.987-100.066
			c4.434-5.312,3.514-11.699,0.259-16.112C341.642,238.766,337.971,234.985,331.816,234.945z M237.729,336.04
			c-24.009-25.172-43.47-50.181-68.316-74.529c5.461-0.138,15.627-0.36,21.081-0.787c4.486-0.346,7.655-2.641,9.582-5.678
			c2.316-1.939,3.88-4.88,3.905-8.825c0.142-19.383,0.683-67.923,2.173-87.234c21.731,0.82,43.47,1.102,65.219,1.284
			c-2.031,18.593-2.469,66.375-1.682,85.188c0.387,9.201,8.974,13.02,15.839,11.44c1.081,0.417,2.239,0.741,3.55,0.863
			c7.464,0.676,14.944,1.021,22.424,1.224C290.055,284.676,259.17,310.346,237.729,336.04z"/>
		<path d="M410.651,5.948C393.808,1.944,375.064,0,353.342,0c-17.773,0-35.536,1.259-52.71,2.476l-10.43,0.729
			c-25.304,1.716-50.483,1.935-69.597,1.935c-0.005,0-0.01,0-0.01,0c-10.25,0-20.492-0.074-30.747-0.142
			c-10.326-0.071-20.665-0.14-31.006-0.14l-4.801,0.005c-6.472,0-14.132-0.363-22.234-0.749c-9.422-0.447-20.101-0.957-30.709-0.957
			c-24.07,0-97.333,0-97.333,71.353c0,8.643,0.049,17.291,0.1,25.938c0.063,11.339,0.119,22.681,0.078,34.018
			c-0.078,18.691-0.053,37.374-0.02,56.063C4,241.092,4.073,293.369,1.945,344.627l-0.076,1.828
			c-1.404,33.778-3.526,84.827,23.207,112.705c12.038,12.543,28.256,18.911,48.208,18.911c37.872,0.01,76.406,0.396,113.678,0.776
			c34.657,0.355,70.502,0.716,105.785,0.771l5.88,0.006c31.266,0,57.412-0.447,82.284-1.401l3.742-0.138
			c22.054-0.797,49.495-1.792,70.152-19.301c22.851-19.368,22.47-46.937,22.17-69.092c-0.035-2.59-0.07-5.169-0.07-7.729
			c-0.011-34.773,0.391-70.229,0.787-104.524c0.756-65.313,1.528-132.843-0.539-199.199C476.34,52.28,464.143,18.656,410.651,5.948z
			 M449.087,277.11c-0.396,34.378-0.798,69.929-0.787,104.865c0,2.681,0.035,5.393,0.076,8.114
			c0.31,22.546-0.351,36.952-12.07,46.89c-13.097,11.101-33.226,11.822-52.689,12.528l-3.804,0.137
			c-24.506,0.949-50.302,1.386-81.187,1.386l-5.834-0.005c-35.16-0.061-70.945-0.416-105.539-0.771
			c-37.341-0.376-75.949-0.767-113.97-0.771c-12.022,0-21.038-3.312-27.563-10.111c-18.293-19.072-16.476-62.794-15.267-91.723
			l0.076-1.839c2.153-51.861,2.069-104.459,1.998-155.322c-0.033-18.631-0.058-37.268,0.021-55.906
			c0.046-11.428-0.015-22.855-0.079-34.286C32.418,91.7,32.37,83.104,32.37,74.514c0-25.661,11.689-42.754,68.733-42.754
			c9.925,0,19.807,0.47,29.353,0.927c8.455,0.406,16.44,0.779,24.006,0.779l4.39-0.005c10.28,0,20.543,0.074,30.808,0.14
			c10.316,0.074,20.634,0.143,30.945,0.143c0.005,0,0.005,0,0.01,0c19.563,0,45.37-0.224,71.526-1.999l10.517-0.734
			c16.681-1.178,33.926-2.401,50.688-2.401c19.464,0,36.048,1.696,50.693,5.174c38.496,9.141,44.021,29.046,44.523,45.364
			C450.61,144.885,449.844,212.102,449.087,277.11z"/>
		<path d="M373.176,54.756c-6.286-1.011-13.111-1.523-20.276-1.523l-1.265,0.005c-30.727,0.249-61.458-0.043-92.195-0.346
			c-33.9-0.319-67.791-0.649-101.679-0.254l-2.922,0.016c-2.856,0-5.85-0.036-8.95-0.076c-3.443-0.043-7.01-0.089-10.633-0.089
			c-22.854,0-83.556,0-83.556,58.257c0,6.741,0.036,13.485,0.071,20.233c0.053,8.919,0.099,17.836,0.063,26.753
			c-0.063,14.627-0.036,29.249-0.015,43.871c0.061,39.631,0.125,80.61-1.543,120.762l-0.059,1.427
			c-1.127,26.999-2.829,67.812,19.042,90.616c10.039,10.471,23.508,15.777,40.017,15.777c29.764,0.01,60.06,0.314,89.354,0.609
			c27.086,0.279,55.096,0.559,82.669,0.604l4.657,0.005c24.155,0,45.275-0.355,64.576-1.102l2.94-0.107
			c17.758-0.649,39.856-1.441,56.863-15.863c19.021-16.122,18.722-38.552,18.474-56.568c-0.025-2.016-0.062-4.017-0.062-6.013
			c-0.01-27.202,0.315-54.969,0.62-81.816c0.594-51.249,1.208-104.246-0.422-156.354C427.937,81.258,408.128,60.367,373.176,54.756z
			 M400.77,269.609c-0.31,26.934-0.635,54.781-0.624,82.162c0,2.112,0.035,4.245,0.065,6.388
			c0.229,16.717-0.061,27.314-8.368,34.363c-9.45,8.008-24.674,8.556-39.405,9.089l-3.001,0.107
			c-18.931,0.73-39.694,1.081-63.479,1.081l-4.616-0.005c-27.457-0.046-55.401-0.325-82.428-0.6
			c-29.363-0.305-59.732-0.609-89.642-0.609c-11.377,0-16.508-3.985-19.385-6.977c-13.426-14-12.027-47.479-11.105-69.64
			l0.061-1.432c1.691-40.756,1.623-82.045,1.566-121.98c-0.023-14.571-0.048-29.141,0.015-43.711
			c0.036-9.006-0.01-18.017-0.063-27.022c-0.035-6.693-0.071-13.386-0.071-20.079c0-19.232,8.759-29.658,54.957-29.658
			c3.503,0,6.946,0.041,10.275,0.083c3.222,0.041,6.342,0.082,9.308,0.082l3.26-0.015c33.685-0.396,67.38-0.066,101.067,0.254
			c30.909,0.302,61.819,0.599,92.714,0.345l1.025-0.005c5.646,0,10.943,0.389,15.742,1.163c27.38,4.395,31.336,19.137,31.717,31.486
			C401.968,165.968,401.364,218.655,400.77,269.609z"/>
	</g>
</g>
<g>
</g>
<g>
</g>
<g>
</g>
<g>
</g>
<g>
</g>
<g>
</g>
<g>
</g>
<g>
</g>
<g>
</g>
<g>
</g>
<g>
</g>
<g>
</g>
<g>
</g>
<g>
</g>
<g>
</g>
</svg>
