<?xml version="1.0" encoding="iso-8859-1"?>
<!-- Generator: Adobe Illustrator 16.0.0, SVG Export Plug-In . SVG Version: 6.00 Build 0)  -->
<!DOCTYPE svg PUBLIC "-//W3C//DTD SVG 1.1//EN" "http://www.w3.org/Graphics/SVG/1.1/DTD/svg11.dtd">
<svg version="1.1" id="Capa_1" xmlns="http://www.w3.org/2000/svg" xmlns:xlink="http://www.w3.org/1999/xlink" x="0px" y="0px"
	 width="479.63px" height="479.63px" viewBox="0 0 479.63 479.63" style="enable-background:new 0 0 479.63 479.63;"
	 xml:space="preserve">
<g>
	<g>
		<path d="M249.694,120.127c-3.315-6.889-12.692-11.034-19.52-3.856c-33.212,34.916-61.827,69.723-96.781,102.91
			c-7.602,7.216-2.402,17.153,5.264,19.809c1.965,2.001,4.732,3.321,8.371,3.301c9.351-0.065,23.394-0.056,32.728,0.325
			c0.213,20.135,0.932,69.437,3.021,89.494c0.089,0.848,0.271,1.625,0.49,2.382c0.323,5.829,4.222,11.268,11.771,10.912
			c27.967-1.32,55.946-1.604,83.941-1.803c2.27-0.015,4.169-0.583,5.778-1.467c6.612-0.833,13.31-6.703,11.923-15.274
			c-2.777-17.154-3.433-63.668-3.026-80.984c12.7-0.944,25.431-1.106,38.172-1.198c6.154-0.04,9.831-3.818,11.126-8.378
			c3.255-4.411,4.169-10.801-0.26-16.115C314.855,186.806,277.522,153.504,249.694,120.127z M289.069,221.867
			c-1.305,0.12-2.458,0.447-3.545,0.863c-6.87-1.58-15.452,2.242-15.838,11.441c-0.787,18.813-0.355,66.598,1.681,85.188
			c-21.749,0.178-43.485,0.462-65.216,1.285c-1.493-19.307-2.034-67.853-2.173-87.232c-0.025-3.942-1.592-6.88-3.905-8.83
			c-1.93-3.032-5.096-5.335-9.58-5.678c-5.454-0.421-15.62-0.645-21.084-0.784c24.844-24.347,44.308-49.358,68.314-74.529
			c21.437,25.697,52.327,51.363,73.776,77.051C304.013,220.844,296.539,221.191,289.069,221.867z"/>
		<path d="M476.893,97.665c0-2.549,0.041-5.124,0.076-7.706c0.31-22.168,0.69-49.749-22.171-69.122
			C434.136,3.328,406.69,2.341,384.647,1.543l-3.743-0.14C355.992,0.446,329.758,0,298.362,0l-5.622,0.005
			c-35.185,0.059-70.916,0.421-105.469,0.777c-37.371,0.378-76.012,0.774-113.988,0.78c-19.951,0-36.168,6.362-48.208,18.915
			C-1.661,48.354,0.47,99.416,1.879,133.2l0.074,1.808c2.127,51.237,2.049,103.499,1.97,154.046
			c-0.03,18.702-0.056,37.409,0.021,56.111c0.048,11.35-0.015,22.684-0.076,34.022c-0.053,8.647-0.099,17.296-0.099,25.938
			c0,71.351,73.265,71.351,97.339,71.351c10.603,0,21.279-0.503,30.696-0.955c8.1-0.381,15.745-0.751,22.582-0.751
			c0.005,0,0.01,0,0.01,0l4.222,0.01c10.39,0,20.774-0.076,31.153-0.147c10.301-0.076,20.596-0.142,30.892-0.142
			c19.088,0,44.239,0.218,69.532,1.935l10.415,0.731c17.185,1.208,34.952,2.473,52.729,2.473c0.006,0,0.006,0,0.006,0
			c21.713,0,40.456-1.945,57.305-5.946c53.486-12.71,65.688-46.332,66.501-72.295c2.067-66.41,1.295-133.993,0.538-199.349
			C477.29,167.789,476.883,132.377,476.893,97.665z M448.563,400.489c-0.513,16.315-6.027,36.222-44.523,45.362
			c-14.65,3.483-31.229,5.174-50.688,5.174c0,0,0,0-0.005,0c-16.768,0-34.022-1.219-50.709-2.401l-10.501-0.736
			c-26.152-1.772-51.928-2.001-71.468-2.001c-10.364,0-20.726,0.071-31.09,0.143c-10.311,0.076-20.632,0.142-30.956,0.142h-4.58
			c-7.155,0-15.138,0.376-23.592,0.777c-9.542,0.452-19.411,0.919-29.338,0.919c-57.051,0-68.741-17.082-68.741-42.752
			c0-8.587,0.045-17.188,0.099-25.78c0.061-11.431,0.119-22.861,0.076-34.297c-0.076-18.656-0.051-37.303-0.021-55.959
			c0.079-50.844,0.157-103.424-1.99-155.265l-0.079-1.82c-1.206-28.932-3.037-72.663,15.262-91.736
			c6.525-6.807,15.542-10.115,27.571-10.115c38.118-0.005,76.832-0.398,114.274-0.779c34.502-0.353,70.173-0.716,105.231-0.77
			l5.57-0.005c31.031,0,56.903,0.437,81.445,1.384l3.799,0.14c19.469,0.703,39.603,1.429,52.699,12.532
			c11.72,9.933,12.375,24.347,12.065,46.908c-0.041,2.709-0.082,5.413-0.082,8.091c-0.01,34.886,0.401,70.383,0.798,104.713
			C449.837,267.426,450.615,334.694,448.563,400.489z"/>
		<path d="M428.749,127.871c0-1.993,0.03-3.999,0.056-6.013c0.254-18.017,0.554-40.438-18.468-56.568
			c-17.007-14.414-39.116-15.216-56.879-15.854l-2.925-0.109c-19.606-0.754-40.202-1.104-64.82-1.104h-4.413
			c-27.619,0.043-55.654,0.328-82.771,0.609c-29.267,0.297-59.529,0.604-89.26,0.609c-16.517,0-29.978,5.309-40.02,15.774
			c-21.866,22.798-20.165,63.612-19.038,90.614l0.058,1.435c1.658,40.075,1.603,80.994,1.544,120.562
			c-0.025,14.686-0.046,29.376,0.015,44.071c0.038,8.887-0.01,17.778-0.061,26.67c-0.043,6.774-0.079,13.543-0.079,20.307
			c0,58.255,60.697,58.255,83.541,58.255c3.636,0,7.208-0.041,10.661-0.087c3.103-0.04,6.109-0.076,8.963-0.076l2.907,0.016
			c11.174,0.127,22.356,0.178,33.53,0.178c22.729,0,45.456-0.214,68.185-0.437c30.728-0.295,61.424-0.59,92.16-0.336l1.204,0.006
			c7.175,0,14.01-0.514,20.337-1.528c34.957-5.616,54.756-26.508,55.771-58.823c1.625-52.105,1.016-105.094,0.421-156.346
			C429.063,182.848,428.739,155.086,428.749,127.871z M400.358,365.157c-0.381,12.35-4.337,27.075-31.717,31.479
			c-4.824,0.776-10.136,1.168-15.803,1.168l-0.98-0.006c-30.874-0.238-61.769,0.051-92.658,0.341
			c-33.7,0.319-67.412,0.655-101.107,0.254l-3.239-0.016c-2.968,0-6.094,0.036-9.323,0.076c-3.336,0.046-6.784,0.087-10.296,0.087
			c-46.189,0-54.941-10.421-54.941-29.65c0-6.714,0.038-13.441,0.079-20.155c0.051-8.987,0.099-17.966,0.061-26.953
			c-0.061-14.63-0.041-29.27-0.015-43.904c0.058-39.865,0.119-81.098-1.564-121.783l-0.063-1.445
			c-0.924-22.152-2.318-55.629,11.108-69.626c2.869-2.994,8.003-6.972,19.38-6.972c29.879-0.005,60.215-0.312,89.55-0.614
			c27.055-0.277,55.035-0.562,82.527-0.602h4.367c24.242,0,44.488,0.343,63.724,1.082l2.986,0.107
			c14.73,0.531,29.97,1.082,39.42,9.094c8.312,7.049,8.597,17.649,8.363,34.363c-0.03,2.14-0.061,4.278-0.061,6.391
			c-0.011,27.38,0.314,55.235,0.624,82.172C401.363,260.978,401.972,313.666,400.358,365.157z"/>
	</g>
</g>
<g>
</g>
<g>
</g>
<g>
</g>
<g>
</g>
<g>
</g>
<g>
</g>
<g>
</g>
<g>
</g>
<g>
</g>
<g>
</g>
<g>
</g>
<g>
</g>
<g>
</g>
<g>
</g>
<g>
</g>
</svg>
