<?xml version="1.0" encoding="iso-8859-1"?>
<!-- Generator: Adobe Illustrator 16.0.0, SVG Export Plug-In . SVG Version: 6.00 Build 0)  -->
<!DOCTYPE svg PUBLIC "-//W3C//DTD SVG 1.1//EN" "http://www.w3.org/Graphics/SVG/1.1/DTD/svg11.dtd">
<svg version="1.1" id="Capa_1" xmlns="http://www.w3.org/2000/svg" xmlns:xlink="http://www.w3.org/1999/xlink" x="0px" y="0px"
	 width="479.629px" height="479.629px" viewBox="0 0 479.629 479.629" style="enable-background:new 0 0 479.629 479.629;"
	 xml:space="preserve">
<g>
	<g>
		<path d="M260.459,133.398c-7.221-7.604-17.156-2.404-19.819,5.256c-1.996,1.965-3.316,4.732-3.295,8.371
			c0.061,9.351,0.051,23.394-0.323,32.73c-20.139,0.213-69.438,0.93-89.494,3.019c-0.848,0.089-1.627,0.272-2.381,0.49
			c-5.83,0.323-11.268,4.228-10.915,11.773c1.32,27.965,1.607,55.949,1.805,83.944c0.015,2.265,0.581,4.164,1.465,5.773
			c0.833,6.616,6.713,13.31,15.277,11.923c17.15-2.777,63.667-3.433,80.983-3.026c0.944,12.7,1.102,25.436,1.196,38.171
			c0.046,6.155,3.821,9.831,8.381,11.131c4.41,3.25,10.803,4.164,16.115-0.264c33.382-27.822,66.684-65.16,100.062-92.988
			c6.891-3.311,11.034-12.694,3.854-19.52C328.454,196.964,293.644,168.35,260.459,133.398z M258.998,311.511
			c-0.203-7.485-0.549-14.96-1.225-22.43c-0.116-1.305-0.446-2.463-0.863-3.549c1.58-6.866-2.239-15.452-11.44-15.833
			c-18.816-0.793-66.598-0.355-85.188,1.676c-0.175-21.744-0.457-43.486-1.282-65.212c19.307-1.49,67.852-2.034,87.227-2.173
			c3.945-0.025,6.881-1.584,8.83-3.905c3.027-1.93,5.332-5.096,5.678-9.582c0.422-5.457,0.645-15.628,0.782-21.082
			c24.349,24.847,49.357,44.303,74.534,68.317C310.356,259.177,284.692,290.062,258.998,311.511z"/>
		<path d="M478.077,73.288c0-47.87-35.059-72.143-104.205-72.143c-9.801,0-19.165,0.389-27.422,0.739l-1.827,0.076
			c-42.361,1.757-85.158,1.998-125.094,1.998l-57.988-0.059c-9.021,0-18.05,0.011-27.07,0.054l-8.222,0.015
			c-8.594,0-17.199-0.048-25.796-0.094C91.805,3.829,83.152,3.78,74.512,3.78c-20.665,0-37.207,6.365-49.175,18.918
			C0.18,49.076,2.364,94.96,4.116,131.821c0.396,8.242,0.764,16.031,0.754,22.584c-0.025,11.829,0.056,23.643,0.135,35.452
			c0.229,32.967,0.462,67.055-1.792,100.346l-0.729,10.415c-2.559,36.141-5.205,73.515,3.474,110.035
			c12.708,53.491,46.324,65.688,72.292,66.501c28.782,0.898,60.085,1.33,95.695,1.33c34.515,0,69.583-0.4,103.497-0.792
			c33.783-0.386,68.72-0.792,102.971-0.792h1.554c2.56,0,5.139,0.041,7.733,0.076c24.445,0.36,50.415-0.127,69.092-22.176
			c17.509-20.657,18.499-48.099,19.296-70.142l0.137-3.742c1.006-26.254,1.453-54.273,1.402-88.164
			c-0.057-35.211-0.422-70.985-0.772-105.574C478.483,149.838,478.082,111.23,478.077,73.288z M449.655,379.819l-0.142,3.809
			c-0.701,19.459-1.422,39.583-12.522,52.689c-8.603,10.146-20.81,12.136-38.969,12.136c-2.641,0-5.286-0.04-7.917-0.076
			c-2.717-0.04-5.433-0.076-8.119-0.076h-1.564c-34.408,0-69.436,0.396-103.296,0.793c-33.837,0.386-68.822,0.787-103.172,0.787
			c-35.307,0-66.321-0.432-94.798-1.32c-16.318-0.513-36.224-6.027-45.364-44.519c-7.67-32.266-5.18-67.415-2.772-101.407
			l0.739-10.502c2.323-34.357,2.084-68.991,1.851-102.479c-0.084-11.72-0.16-23.452-0.135-35.198
			c0.015-7.259-0.371-15.391-0.779-23.999c-1.415-29.757-3.359-70.513,13.347-88.032c6.447-6.766,15.765-10.057,28.48-10.057
			c8.589,0,17.189,0.049,25.786,0.094c8.652,0.045,17.306,0.094,25.951,0.094l8.341-0.016c8.985-0.038,17.971-0.053,26.957-0.053
			l57.982,0.058c40.251,0,83.403-0.246,126.282-2.023l1.833-0.079c7.973-0.323,17.016-0.696,26.218-0.696
			c66.623,0,75.605,22.011,75.605,43.544c0.005,38.087,0.401,76.769,0.777,114.178c0.351,34.533,0.721,70.234,0.771,105.322
			C451.087,326.298,450.65,353.952,449.655,379.819z"/>
		<path d="M430.191,109.28c0-39.575-28.523-59.644-84.776-59.644c-7.744,0-15.117,0.308-21.628,0.579l-1.427,0.061
			c-33.139,1.374-66.623,1.567-97.875,1.567l-45.603-0.049c-7.045,0-14.091,0.011-21.142,0.038l-6.589,0.011
			c-6.708,0-13.421-0.038-20.129-0.074c-6.759-0.035-13.513-0.073-20.264-0.073c-16.358,0-29.592,5.015-39.352,14.894
			c-19.568,19.817-19.157,52.798-18.819,79.303c0.054,4.182,0.109,8.173,0.063,11.865c-0.396,33.931-0.063,68.342,0.259,101.623
			c0.292,30.255,0.589,61.546,0.337,92.247c-0.066,7.606,0.45,14.858,1.519,21.546c5.611,34.962,26.51,54.756,58.826,55.771
			c22.61,0.711,47.19,1.056,75.154,1.056c27.081,0,54.593-0.324,81.199-0.629c26.487-0.311,53.873-0.62,80.715-0.62h1.102
			c1.986,0,3.992,0.03,6.003,0.051c19.946,0.29,41.07-0.162,56.583-18.464c14.417-17.021,15.214-39.136,15.854-56.908l0.107-2.89
			c0.792-20.546,1.147-42.554,1.106-69.238c-0.051-27.64-0.33-55.718-0.609-82.865C430.511,169.203,430.196,138.977,430.191,109.28z
			 M401.729,349.443l-0.106,2.96c-0.533,14.742-1.082,29.985-9.1,39.451c-5.957,7.038-14.844,8.414-28.147,8.414
			c-2.072,0-4.148-0.025-6.216-0.056c-2.133-0.03-4.266-0.061-6.383-0.061h-1.117c-27.01,0-54.481,0.314-81.05,0.619
			c-26.524,0.31-53.948,0.63-80.869,0.63c-27.662,0-51.95-0.346-74.258-1.046c-12.35-0.376-27.086-4.337-31.491-31.718
			c-0.817-5.098-1.201-10.745-1.155-16.777c0.251-30.966-0.051-62.378-0.343-92.754c-0.317-33.137-0.645-67.393-0.254-101.019
			c0.045-3.905-0.005-8.135-0.063-12.563c-0.254-20.063-0.597-47.537,10.567-58.849c4.243-4.299,10.466-6.391,19.004-6.391
			c6.703,0,13.406,0.038,20.109,0.074c6.764,0.036,13.525,0.074,20.284,0.074l6.708-0.01c7.01-0.028,14.013-0.038,21.022-0.038
			l45.603,0.048c31.552,0,65.397-0.193,99.069-1.592l1.427-0.056c6.226-0.261,13.294-0.559,20.444-0.559
			c49.368,0,56.172,14.919,56.172,31.044c0.005,29.841,0.315,60.146,0.614,89.453c0.274,27.086,0.554,55.097,0.604,82.614
			C402.856,307.651,402.505,329.283,401.729,349.443z"/>
	</g>
</g>
<g>
</g>
<g>
</g>
<g>
</g>
<g>
</g>
<g>
</g>
<g>
</g>
<g>
</g>
<g>
</g>
<g>
</g>
<g>
</g>
<g>
</g>
<g>
</g>
<g>
</g>
<g>
</g>
<g>
</g>
</svg>
