<?xml version="1.0" encoding="iso-8859-1"?>
<!-- Generator: Adobe Illustrator 16.0.0, SVG Export Plug-In . SVG Version: 6.00 Build 0)  -->
<!DOCTYPE svg PUBLIC "-//W3C//DTD SVG 1.1//EN" "http://www.w3.org/Graphics/SVG/1.1/DTD/svg11.dtd">
<svg version="1.1" id="Capa_1" xmlns="http://www.w3.org/2000/svg" xmlns:xlink="http://www.w3.org/1999/xlink" x="0px" y="0px"
	 width="469.933px" height="469.933px" viewBox="0 0 469.933 469.933" style="enable-background:new 0 0 469.933 469.933;"
	 xml:space="preserve">
<g>
	<g>
		<path d="M429.281,44.605c-3.265-5.763-8.479-8.939-14.681-8.939c-3.482,0-6.997,1.018-9.912,2.818
			c-2.046,0.967-3.783,2.178-5.306,3.702c-92.628,92.594-171.423,169.412-254.288,242.798l-43.498-52.811
			c-4.222-5.126-8.927-6.203-12.126-6.203c-3.846,0-7.782,1.559-10.778,4.154l-0.708,0.375
			c-23.564,15.15-45.603,27.865-67.362,38.864c-5.799,2.925-9.178,7.982-9.335,13.939c-2.687,6.586-1.117,13.533,4.25,18.661
			c19.466,18.626,37.567,39.212,55.076,59.123c19.142,21.77,38.93,44.285,60.651,64.399c0.77,0.726,1.618,1.376,2.569,2.006
			c3.227,4.315,7.751,6.773,12.474,6.773c3.359,0,6.649-1.198,9.785-3.564c60.715-45.809,114.879-97.518,155.29-137.445
			c11.856-11.726,23.77-23.436,35.692-35.146c41.757-41.032,84.935-83.464,125.782-126.53c2.234-2.349,3.752-5.073,4.514-8.094
			c3.575-5.545,3.407-12.056-0.492-17.941C452.772,84.295,440.468,64.359,429.281,44.605z M429.103,114.131
			c-30.087,31.392-61.616,62.472-92.114,92.549c-16.103,15.868-32.194,31.739-48.145,47.705
			c-45.552,45.59-95.318,93.673-150.745,136.77c-18.121-17.701-35.15-37.013-51.633-55.705c-12.86-14.584-26.131-29.625-39.9-43.894
			c12.438-6.784,25.06-14.178,38.433-22.501l45.125,54.781c4.228,5.144,8.948,6.221,12.162,6.221c4.108,0,8.221-1.737,11.626-4.885
			c1.206-0.686,2.288-1.452,3.288-2.326c88.613-77.637,173.7-160.949,252.53-239.566C415.433,92.75,421.801,102.891,429.103,114.131
			z"/>
	</g>
</g>
<g>
</g>
<g>
</g>
<g>
</g>
<g>
</g>
<g>
</g>
<g>
</g>
<g>
</g>
<g>
</g>
<g>
</g>
<g>
</g>
<g>
</g>
<g>
</g>
<g>
</g>
<g>
</g>
<g>
</g>
</svg>
