<?xml version="1.0" encoding="iso-8859-1"?>
<!-- Generator: Adobe Illustrator 16.0.0, SVG Export Plug-In . SVG Version: 6.00 Build 0)  -->
<!DOCTYPE svg PUBLIC "-//W3C//DTD SVG 1.1//EN" "http://www.w3.org/Graphics/SVG/1.1/DTD/svg11.dtd">
<svg version="1.1" id="Capa_1" xmlns="http://www.w3.org/2000/svg" xmlns:xlink="http://www.w3.org/1999/xlink" x="0px" y="0px"
	 width="462.847px" height="462.847px" viewBox="0 0 462.847 462.847" style="enable-background:new 0 0 462.847 462.847;"
	 xml:space="preserve">
<g>
	<g>
		<path d="M458.176,149.319c-17.61-21.018-36.12-41.228-55.467-60.666c-8.323-8.369-19.297-4.226-24.136,3.488
			c-48.362,40.649-96.253,87.067-144.667,127.66C187.644,173.75,135.234,129.363,87.25,85.184
			c-5.382-4.956-11.73-5.154-16.919-2.777c-4.936,0.375-9.458,3.361-12.781,7.663c-15.615,20.215-32.078,39.75-49.234,58.676
			c-7.815,4.763-12.124,15.884-3.791,24.358c66.496,67.639,141.437,126.848,201.065,201.062c1.632,2.036,3.425,3.407,5.276,4.261
			c5.586,4.25,13.65,5.321,20.254-0.797c74.753-69.213,153.913-133.546,227.057-204.521c4.961-4.809,5.561-10.542,3.701-15.462
			C461.522,154.819,460.4,151.964,458.176,149.319z M221.286,344.41C166.159,277.893,99.123,223.051,37.905,162.385
			c13.086-14.833,25.692-30.042,37.948-45.56c47.073,42.152,97.576,85.615,141.874,130.819c2.308,2.356,4.834,3.656,7.374,4.25
			c5.578,3.783,13.347,4.677,19.882-0.782c49.13-41.015,97.63-87.976,146.561-129.219c11.999,12.446,23.577,25.293,34.901,38.364
			C359.999,223.772,289.125,282.403,221.286,344.41z"/>
	</g>
</g>
<g>
</g>
<g>
</g>
<g>
</g>
<g>
</g>
<g>
</g>
<g>
</g>
<g>
</g>
<g>
</g>
<g>
</g>
<g>
</g>
<g>
</g>
<g>
</g>
<g>
</g>
<g>
</g>
<g>
</g>
</svg>
