<?xml version="1.0" encoding="iso-8859-1"?>
<!-- Generator: Adobe Illustrator 16.0.0, SVG Export Plug-In . SVG Version: 6.00 Build 0)  -->
<!DOCTYPE svg PUBLIC "-//W3C//DTD SVG 1.1//EN" "http://www.w3.org/Graphics/SVG/1.1/DTD/svg11.dtd">
<svg version="1.1" id="Capa_1" xmlns="http://www.w3.org/2000/svg" xmlns:xlink="http://www.w3.org/1999/xlink" x="0px" y="0px"
	 width="462.846px" height="462.845px" viewBox="0 0 462.846 462.845" style="enable-background:new 0 0 462.846 462.845;"
	 xml:space="preserve">
<g>
	<g>
		<path d="M173.113,4.671c-4.812-4.961-10.544-5.561-15.465-3.705c-2.829,0.366-5.683,1.488-8.331,3.705
			c-21.018,17.61-41.223,36.122-60.667,55.467c-8.366,8.322-4.223,19.296,3.488,24.136c40.654,48.365,87.067,96.255,127.663,144.666
			c-46.05,46.266-90.437,98.67-134.62,146.657c-4.956,5.383-5.152,11.73-2.775,16.92c0.378,4.936,3.364,9.455,7.663,12.781
			c20.218,15.614,39.748,32.077,58.676,49.23c4.763,7.815,15.886,12.127,24.362,3.788c67.631-66.49,126.845-141.432,201.06-201.057
			c2.036-1.636,3.407-3.428,4.261-5.281c4.245-5.586,5.316-13.649-0.798-20.251C308.419,156.975,244.086,77.817,173.113,4.671z
			 M162.386,424.945c-14.83-13.086-30.039-25.689-45.562-37.942c42.155-47.078,85.617-97.578,130.822-141.879
			c2.355-2.306,3.656-4.834,4.25-7.373c3.783-5.576,4.672-13.345-0.782-19.88c-41.015-49.129-87.973-97.629-129.219-146.558
			c12.448-12.002,25.293-23.577,38.364-34.903c63.518,66.445,122.146,137.313,184.153,205.15
			C277.899,296.685,223.053,363.73,162.386,424.945z"/>
	</g>
</g>
<g>
</g>
<g>
</g>
<g>
</g>
<g>
</g>
<g>
</g>
<g>
</g>
<g>
</g>
<g>
</g>
<g>
</g>
<g>
</g>
<g>
</g>
<g>
</g>
<g>
</g>
<g>
</g>
<g>
</g>
</svg>
