<?xml version="1.0" encoding="iso-8859-1"?>
<!-- Generator: Adobe Illustrator 16.0.0, SVG Export Plug-In . SVG Version: 6.00 Build 0)  -->
<!DOCTYPE svg PUBLIC "-//W3C//DTD SVG 1.1//EN" "http://www.w3.org/Graphics/SVG/1.1/DTD/svg11.dtd">
<svg version="1.1" id="Capa_1" xmlns="http://www.w3.org/2000/svg" xmlns:xlink="http://www.w3.org/1999/xlink" x="0px" y="0px"
	 width="486.165px" height="486.165px" viewBox="0 0 486.165 486.165" style="enable-background:new 0 0 486.165 486.165;"
	 xml:space="preserve">
<g>
	<g>
		<path d="M405.644,87.057l0.046-0.962c0.188-3.994-1.122-7.868-3.504-10.364c-2.097-2.193-4.89-3.313-8.303-3.313h-57.34
			l-0.025-2.572c-0.041-3.458-0.066-6.911-0.071-10.37c0-1.155-0.147-2.298-0.478-3.607l-0.091-0.376l0.015-0.383
			c0.203-4.004-1.102-7.894-3.488-10.4c-2.098-2.206-4.896-3.323-8.312-3.323c-10.832,0-21.668-0.046-32.499-0.094l-2.544-0.011
			l-0.057-2.541c-0.213-11.248-0.939-20.64-2.285-29.557c-0.857-5.69-6.865-9.09-12.182-9.09l-0.731,0.005l-0.635-0.074L222.501,0
			c-3.76,0-6.858,1.409-8.97,4.083c-2.546,3.217-3.473,7.992-2.422,12.454l0.183,0.769l-0.277,0.744
			c-0.576,1.539-0.868,3.077-0.868,4.57v17.511l-2.679-0.082c-11.027-0.337-22.051-0.724-33.076-1.259l-0.546-0.016
			c-1.041,0-2.069,0.145-3.25,0.457l-0.343,0.094l-0.353-0.005l0,0c-6.162,0-12.621,3.885-12.71,12.418
			c-0.046,4.373-0.219,8.734-0.478,13.081l-0.147,2.44l-2.438,0.005c-18.918,0.051-39.171,0.396-59.08,2.542
			c-0.683,0.074-1.294,0.251-1.914,0.417l-0.795,0.114c-6.215,0-12.423,3.834-12.423,12.403v49.132c0,2.762,0.69,5.195,2.054,7.229
			l0.437,0.655v0.79c-0.015,110.388-0.401,210.068-4.981,312.125c-0.058,1.239,0.069,2.474,0.396,3.87l0.12,0.527l-0.094,0.533
			c-0.619,3.407-0.068,6.521,1.544,8.771c1.462,2.036,3.75,3.3,6.797,3.752c99.894,14.817,198.457,16.031,307.71,16.041
			c7.901,0,10.486-6.012,11.228-8.597l0.167-0.573l0.412-0.457c2.021-2.22,3.047-5.068,3.047-8.46V95.682
			c0-3.092-0.844-5.74-2.499-7.865L405.644,87.057z M234.866,25.845h29.087l0.122,2.468c0.167,3.364,0.264,6.741,0.289,10.11
			l0.016,2.641l-9.445-0.1c-5.84-0.056-11.674-0.114-17.509-0.218l-2.554-0.046V25.845H234.866z M177.876,120.107
			c0.921-6.99,1.8-23.92,2.506-37.519c0.328-6.312,0.614-11.834,0.843-15.173l0.178-2.526l2.532,0.109
			c43.092,1.846,85.676,2.148,125.269,2.194h2.569l0.025,2.569c0.294,27.782,0.843,47.174,1.544,54.598l0.279,2.963l-2.976-0.12
			c-22.633-0.924-45.667-1.569-67.936-2.193c-20.79-0.582-41.574-1.166-62.358-1.97l-2.849-0.109L177.876,120.107z M243.146,150.869
			c25.753,0.681,52.382,1.389,78.569,2.59l0.676,0.016c3.717,0,6.139-1.415,7.749-3.184c2.229-0.919,4.159-2.557,5.296-4.755
			c0.112-0.221,0.203-0.444,0.3-0.673c0.219-0.526,0.432-1.054,0.554-1.628c0.243-1.071,0.391-2.143,0.554-3.214
			c1.289-1.729,1.99-3.628,2.071-5.543c0.889-0.149,1.782-0.274,2.682-0.373c0.832-0.094,1.665-0.157,2.503-0.213
			c0.772-0.051,1.549-0.12,2.321-0.158c-4.932,59.634-4.819,151.826-5.632,211.641c-20.886,0.005-41.767,0.102-62.622,1.351
			c-6.484,0.381-9.805,5.687-9.988,10.942c-0.213,0.787-0.36,1.631-0.411,2.534c-1.117,20.14-1.265,40.299-1.29,60.458
			c-39.461-0.502-78.906-1.97-118.37-2.33c-0.825-84.625,1.498-201.657-5.588-286.05h5.22h2.615h2.605
			c-0.65,4.177,0.396,8.605,2.823,11.654c2.138,2.682,5.21,4.189,8.886,4.357C190.815,149.485,217.416,150.187,243.146,150.869z
			 M332.76,366.965c-15.112,16.412-30.366,32.692-45.469,49.125c0.041-16.098,0.229-32.185,0.939-48.262
			C303.063,367.184,317.912,366.995,332.76,366.965z M384.021,460.318h-2.6c-98.111-0.061-186.656-1.127-276.717-13.497l-2.346-0.32
			l0.104-2.366c4.296-100.589,4.649-200.922,4.654-312.25c0-2.762-0.69-5.2-2.054-7.234l-0.437-0.655V94.753l2.407-0.178
			c16.016-1.181,31.87-1.399,43.897-1.45l2.96-0.01l-0.371,2.947c-0.114,0.919-0.253,7.8-0.368,13.333
			c-0.01,0.462-0.015,0.863-0.025,1.305h-2.6h-2.6h-11.451c-1.3,0-2.536,0.284-3.691,0.754c-5.995-1.29-12.662,2.011-11.908,10.037
			c8.513,90.606,5.388,213.919,6.5,304.795c0.01,0.965,0.145,1.854,0.343,2.687c0.01,5.388,3.359,10.771,10.057,10.801
			c48.978,0.173,97.919,2.519,146.896,2.696c0.361,0,0.671-0.071,1.011-0.097c2.95,0.695,6.186-0.03,8.942-3.067
			c20.622-22.652,41.781-44.772,62.398-67.425c1.203-1.32,1.976-2.732,2.427-4.164c1.148-1.604,1.874-3.646,1.92-6.165
			c1.168-67.938,0.355-168.294,6.5-236.017c0.157-1.736-0.031-3.25-0.482-4.545c-0.681-4.712-3.977-8.944-9.918-8.939
			c-4.691,0-9.363,0.084-14.015,0.411c-0.868,0.063-1.731,0.135-2.595,0.219c-0.863,0.083-1.732,0.152-2.595,0.254
			c-0.133-5.33-0.265-10.524-0.376-11.845l-0.244-2.823h46.377V460.318z"/>
		<path d="M184.574,211.848c36.825,1.221,73.656,1.346,110.497,1.346c13.416,0,13.416-21.579,0-21.579
			c-36.841,0-73.672-0.125-110.497-1.349C171.153,189.825,171.194,211.406,184.574,211.848z"/>
		<path d="M296.371,237.472c-35.566-1.254-71.082-1.166-106.597,1.346c-13.307,0.942-13.396,22.525,0,21.581
			c35.516-2.519,71.031-2.604,106.597-1.351C309.792,259.525,309.746,237.944,296.371,237.472z"/>
		<path d="M295.071,291.42c-33.805,0.097-67.593,1.249-101.397,1.346c-13.411,0.041-13.416,21.617,0,21.581
			c33.804-0.102,67.593-1.249,101.397-1.351C308.482,312.956,308.487,291.38,295.071,291.42z"/>
	</g>
</g>
<g>
</g>
<g>
</g>
<g>
</g>
<g>
</g>
<g>
</g>
<g>
</g>
<g>
</g>
<g>
</g>
<g>
</g>
<g>
</g>
<g>
</g>
<g>
</g>
<g>
</g>
<g>
</g>
<g>
</g>
</svg>
