<?xml version="1.0" encoding="iso-8859-1"?>
<!-- Generator: Adobe Illustrator 16.0.0, SVG Export Plug-In . SVG Version: 6.00 Build 0)  -->
<!DOCTYPE svg PUBLIC "-//W3C//DTD SVG 1.1//EN" "http://www.w3.org/Graphics/SVG/1.1/DTD/svg11.dtd">
<svg version="1.1" id="Capa_1" xmlns="http://www.w3.org/2000/svg" xmlns:xlink="http://www.w3.org/1999/xlink" x="0px" y="0px"
	 width="471.44px" height="471.44px" viewBox="0 0 471.44 471.44" style="enable-background:new 0 0 471.44 471.44;"
	 xml:space="preserve">
<g>
	<g>
		<path d="M334.502,367.407c10.679-1.188,16.676-9.303,17.951-17.752c0.654-1.93,1.117-4.012,1.122-6.409
			c0.37-99.264,7.383-198.308,10.171-297.506c0.005-0.223-0.046-0.411-0.046-0.629c5.129-11.055-0.345-27.845-16.483-28.615
			c-101.655-4.842-203.396-5.08-305.145-5.085c-13.386,0-19.428,11.293-18.243,21.594c-0.452,1.577-0.774,3.245-0.833,5.108
			C20.086,140.16,10.263,241.718,0.112,343.246c-1.274,12.767,8.503,18.743,18.486,18.169c1.737,0.519,3.583,0.895,5.672,0.904
			C127.811,363.132,231.079,378.884,334.502,367.407z M40.127,324.433c9.077-91.462,17.516-182.962,20.601-274.848
			c88.225,0.041,176.447,0.597,264.603,4.243c-2.803,92.437-8.932,184.752-9.765,277.242
			C223.759,338.442,132.038,326.402,40.127,324.433z"/>
		<path d="M450.326,114.966l-0.539-0.073c-0.635-0.087-1.264-0.165-1.949-0.165h-53.975c-12.426,0-18.92,9.795-18.92,19.466
			c0,9.678,6.5,19.469,18.92,19.469h35.968c-14.98,100.419-22.531,184.872-23.72,265.296c-45.996,1.463-95.303,2.117-159.382,2.117
			c-27.439,0-54.878-0.116-82.317-0.229c-18.417-0.081-36.831-0.157-55.243-0.197c-0.447-6.495-1.221-11.989-2.397-17.123
			c-1.904-8.333-9.902-14.376-19.012-14.376c-1.699,0-3.364,0.224-4.966,0.66c-10.227,2.813-16.087,13.065-13.622,23.836
			c1.622,7.099,1.607,15.528,1.584,23.688l-0.005,2.737c0,5.261,1.836,9.856,5.149,13.121l1.066,1.077
			c3.44,3.442,8.023,5.271,13.253,5.271c25.39,0.021,50.788,0.127,76.172,0.244c27.959,0.116,55.914,0.243,83.875,0.243
			c70.889,0,124.913-0.843,175.17-2.736c12.314-0.462,18.312-10.151,18.737-19.063c0.432-1.716,0.635-3.275,0.641-4.88
			c0.437-88.95,8.81-182.462,26.359-294.266c0.939-6.007-0.64-11.789-4.448-16.283C462.665,118.018,456.282,115.009,450.326,114.966
			z"/>
	</g>
</g>
<g>
</g>
<g>
</g>
<g>
</g>
<g>
</g>
<g>
</g>
<g>
</g>
<g>
</g>
<g>
</g>
<g>
</g>
<g>
</g>
<g>
</g>
<g>
</g>
<g>
</g>
<g>
</g>
<g>
</g>
</svg>
