<?xml version="1.0" encoding="iso-8859-1"?>
<!-- Generator: Adobe Illustrator 16.0.0, SVG Export Plug-In . SVG Version: 6.00 Build 0)  -->
<!DOCTYPE svg PUBLIC "-//W3C//DTD SVG 1.1//EN" "http://www.w3.org/Graphics/SVG/1.1/DTD/svg11.dtd">
<svg version="1.1" id="Capa_1" xmlns="http://www.w3.org/2000/svg" xmlns:xlink="http://www.w3.org/1999/xlink" x="0px" y="0px"
	 width="491.979px" height="491.979px" viewBox="0 0 491.979 491.979" style="enable-background:new 0 0 491.979 491.979;"
	 xml:space="preserve">
<g>
	<g>
		<path d="M370.449,169.027c-22.911,0-44.549,7.353-62.835,21.305c-14.081-59.055-69.769-101.496-134.063-101.496
			c-5.205,0-10.473,0.287-15.663,0.853c-36.815,4.014-65.747,24.065-81.466,56.444c-16.521,34.038-14.861,75.2,4.103,108.6
			c-41.969-0.808-74.316,26.716-79.849,68.091c-2.564,19.169,2.173,35.795,14.086,49.398c19.951,22.795,54.807,30.92,80.772,30.92
			c5.977,0,11.822-0.406,16.989-1.158c0.495,0.062,0.993,0.122,1.534,0.122c87.671,0,187.037,0,284.996-1.351
			c0.955-0.01,1.925-0.127,2.93-0.36c1.387,0.192,2.823,0.208,4.397-0.062c32.524-5.651,58.479-23.952,73.077-51.546
			c16.453-31.088,16.702-70.777,0.676-106.155C460.188,198.609,416.11,169.027,370.449,169.027z M109.025,285.617
			c6.132,0.976,12.647-2.955,15.018-8.937c1.912-4.81,0.696-9.912-3.255-13.645c-27.426-25.896-36.686-62.597-24.166-95.771
			c11.758-31.156,39.723-50.496,74.806-51.732c61.654-2.133,112.777,45.52,112.899,104.37c0.021,8.554,6.743,13.025,13.38,13.025
			c5.978,0,10.872-3.306,12.649-8.48c16.758-18.715,37.882-28.599,61.129-28.599c36.312,0,70.854,24.758,85.944,61.606
			c11.289,27.553,10.705,56.27-1.604,78.774c-11.009,20.124-29.939,33.216-54.771,37.867c-0.614-0.081-1.265-0.138-2.052-0.138
			c-0.005,0-0.01,0-0.016,0c-97.908,1.356-197.264,1.356-284.925,1.356c-0.944,0-1.871,0.091-2.818,0.284
			c-1.008-0.062-2.054-0.041-3.166,0.132c-5.162,0.828-10.509,1.249-15.896,1.249c-29.811,0-64.717-13.035-64.98-49.764
			c-0.084-11.842,4.019-22.282,11.865-30.188c9.635-9.694,24.356-15.27,40.388-15.27c6.033,0,11.928,0.797,17.529,2.387
			c0.973,0.273,1.976,0.426,3.052,0.477C102.729,285.947,105.74,286.369,109.025,285.617z"/>
	</g>
</g>
<g>
</g>
<g>
</g>
<g>
</g>
<g>
</g>
<g>
</g>
<g>
</g>
<g>
</g>
<g>
</g>
<g>
</g>
<g>
</g>
<g>
</g>
<g>
</g>
<g>
</g>
<g>
</g>
<g>
</g>
</svg>
