<?xml version="1.0" encoding="iso-8859-1"?>
<!-- Generator: Adobe Illustrator 16.0.0, SVG Export Plug-In . SVG Version: 6.00 Build 0)  -->
<!DOCTYPE svg PUBLIC "-//W3C//DTD SVG 1.1//EN" "http://www.w3.org/Graphics/SVG/1.1/DTD/svg11.dtd">
<svg version="1.1" id="Capa_1" xmlns="http://www.w3.org/2000/svg" xmlns:xlink="http://www.w3.org/1999/xlink" x="0px" y="0px"
	 width="491.979px" height="491.979px" viewBox="0 0 491.979 491.979" style="enable-background:new 0 0 491.979 491.979;"
	 xml:space="preserve">
<g>
	<g>
		<path d="M370.454,169.027c-22.911,0-44.549,7.353-62.834,21.305c-14.087-59.06-69.767-101.496-134.064-101.496
			c-5.205,0-10.479,0.287-15.663,0.853c-36.813,4.014-65.745,24.065-81.466,56.444c-16.523,34.038-14.866,75.2,4.098,108.6
			c-0.645-0.01-1.29-0.021-1.935-0.021c-41.157,0-72.47,27.37-77.914,68.111c-2.564,19.169,2.173,35.784,14.086,49.398
			c19.951,22.795,54.807,30.92,80.775,30.92c5.974,0,11.819-0.406,16.993-1.158c0.493,0.062,0.988,0.122,1.528,0.122
			c87.669,0,187.04,0,284.999-1.351c0.955-0.01,1.925-0.127,2.936-0.36c1.381,0.192,2.823,0.208,4.392-0.062
			c32.525-5.651,58.479-23.952,73.072-51.546c16.453-31.088,16.702-70.767,0.676-106.155
			C460.192,198.609,416.11,169.027,370.454,169.027z M109.025,285.617c6.137,0.976,12.647-2.955,15.023-8.937
			c1.915-4.81,0.69-9.912-3.26-13.645c-27.423-25.896-36.681-62.597-24.164-95.771c11.755-31.156,39.715-50.496,74.804-51.732
			c61.708-2.133,112.777,45.52,112.909,104.37c0.016,8.554,6.744,13.025,13.376,13.025c5.972,0,10.866-3.306,12.654-8.48
			c16.752-18.715,37.882-28.599,61.123-28.599c36.312,0,70.854,24.758,85.939,61.606c11.294,27.553,10.71,56.27-1.599,78.77
			c-11.01,20.129-29.94,33.221-54.776,37.872c-0.614-0.081-1.153-0.152-2.067-0.138c-97.908,1.356-197.269,1.356-284.922,1.356
			c-0.947,0-1.871,0.091-2.818,0.284c-1.01-0.071-2.059-0.041-3.166,0.132c-5.165,0.828-10.509,1.249-15.896,1.249
			c-29.811,0-64.719-13.035-64.983-49.764c-0.084-11.842,4.014-22.282,11.859-30.184c9.636-9.699,24.356-15.274,40.388-15.274
			c6.033,0,11.923,0.797,17.529,2.387c0.973,0.273,1.976,0.426,3.047,0.477C102.729,285.947,105.74,286.369,109.025,285.617z"/>
		<path d="M152.033,367.038c8.046,0,15.876-3.22,22.048-9.069c10.202-9.668,20.865-19.794,31.631-30.209
			c11.164,10.385,21.063,19.383,30.435,27.67c6.03,5.332,13.218,8.155,20.774,8.155c13.254,0,25.111-8.688,30.204-22.135
			c5.235-13.808,1.604-28.919-9.237-38.507c-7.819-6.916-15.868-14.218-25.009-22.678c5.322-5.596,10.095-10.745,14.676-15.812
			c9.389-10.4,11.653-24.89,5.905-37.826c-5.494-12.375-17.138-20.373-29.66-20.373c-8.673,0-16.877,3.791-23.103,10.682
			c-4.992,5.527-10.265,11.189-16.265,17.461c-3.428-3.288-6.848-6.568-10.271-9.854l-7.975-7.66
			c-6.34-6.079-14.561-9.432-23.141-9.432h-0.005c-14.086,0-27.065,8.741-32.296,21.751c-4.857,12.073-1.871,25.329,7.79,34.592
			l10.659,10.231c2.664,2.555,5.329,5.114,7.993,7.673c-9.491,9.161-18.814,18.017-27.7,26.446
			c-10.306,9.76-13.447,24.009-8.199,37.176C126.46,358.314,138.82,367.038,152.033,367.038z M143.786,323.24
			c14.543-13.776,29.041-27.608,43.341-41.654c-11.413-10.907-22.795-21.861-34.192-32.794c-8.996-8.63,0.145-20.532,10.112-20.532
			c2.996,0,6.068,1.076,8.742,3.641c11.055,10.608,22.099,21.229,33.174,31.806c10.572-10.739,21.033-21.599,31.173-32.821
			c2.433-2.691,5.101-3.821,7.663-3.821c9.044,0,16.803,14.061,8.322,23.455c-9.414,10.41-19.101,20.516-28.898,30.514
			c13.469,12.68,27.035,25.253,40.878,37.501c9.719,8.592,2.401,24.258-7.186,24.258c-2.27,0-4.672-0.879-6.992-2.94
			c-15.082-13.335-29.856-27.035-44.509-40.868c-15.033,14.828-30.326,29.382-45.643,43.895c-2.501,2.366-5.18,3.367-7.744,3.367
			C142.408,346.238,134.428,332.111,143.786,323.24z"/>
	</g>
</g>
<g>
</g>
<g>
</g>
<g>
</g>
<g>
</g>
<g>
</g>
<g>
</g>
<g>
</g>
<g>
</g>
<g>
</g>
<g>
</g>
<g>
</g>
<g>
</g>
<g>
</g>
<g>
</g>
<g>
</g>
</svg>
