<?xml version="1.0" encoding="iso-8859-1"?>
<!-- Generator: Adobe Illustrator 16.0.0, SVG Export Plug-In . SVG Version: 6.00 Build 0)  -->
<!DOCTYPE svg PUBLIC "-//W3C//DTD SVG 1.1//EN" "http://www.w3.org/Graphics/SVG/1.1/DTD/svg11.dtd">
<svg version="1.1" id="Capa_1" xmlns="http://www.w3.org/2000/svg" xmlns:xlink="http://www.w3.org/1999/xlink" x="0px" y="0px"
	 width="491.979px" height="491.979px" viewBox="0 0 491.979 491.979" style="enable-background:new 0 0 491.979 491.979;"
	 xml:space="preserve">
<g>
	<g>
		<path d="M370.454,169.027c-22.911,0-44.549,7.353-62.834,21.305c-14.087-59.06-69.767-101.496-134.064-101.496
			c-5.205,0-10.479,0.287-15.663,0.853c-36.813,4.014-65.745,24.065-81.466,56.444c-16.523,34.038-14.866,75.2,4.098,108.6
			c-0.645-0.01-1.29-0.021-1.935-0.021c-41.157,0-72.47,27.37-77.914,68.111c-2.564,19.169,2.173,35.784,14.086,49.398
			c19.951,22.795,54.807,30.92,80.775,30.92c5.974,0,11.819-0.406,16.993-1.158c0.493,0.062,0.988,0.122,1.528,0.122
			c87.669,0,187.04,0,284.999-1.351c0.955-0.01,1.925-0.127,2.936-0.36c1.381,0.192,2.823,0.208,4.392-0.062
			c32.525-5.651,58.479-23.952,73.072-51.546c16.453-31.088,16.702-70.767,0.676-106.155
			C460.192,198.609,416.11,169.027,370.454,169.027z M109.025,285.617c6.126,0.976,12.647-2.955,15.023-8.937
			c1.915-4.81,0.69-9.912-3.26-13.645c-27.423-25.896-36.681-62.597-24.164-95.771c11.755-31.156,39.715-50.496,74.804-51.732
			c61.682-2.133,112.777,45.52,112.909,104.37c0.016,8.554,6.744,13.025,13.376,13.025c5.972,0,10.866-3.306,12.654-8.48
			c16.752-18.715,37.882-28.599,61.123-28.599c36.312,0,70.854,24.758,85.939,61.606c11.294,27.553,10.71,56.27-1.599,78.77
			c-11.01,20.129-29.94,33.221-54.776,37.872c-0.614-0.081-1.295-0.152-2.067-0.138c-97.908,1.356-197.269,1.356-284.922,1.356
			c-0.947,0-1.871,0.091-2.818,0.284c-1.01-0.071-2.059-0.041-3.166,0.132c-5.165,0.828-10.509,1.249-15.896,1.249
			c-29.811,0-64.719-13.035-64.983-49.764c-0.084-11.842,4.014-22.282,11.859-30.184c9.636-9.699,24.356-15.274,40.388-15.274
			c6.033,0,11.923,0.797,17.529,2.387c0.973,0.273,1.976,0.426,3.047,0.477C102.729,285.947,105.74,286.369,109.025,285.617z"/>
		<path d="M167.825,284.658c15.153-26.269,46.421-38.766,65.798-20.267c-1.856-0.294-3.717-0.543-5.568-0.873
			c-0.069-0.011-0.14-0.011-0.214-0.021c-1.487-0.731-3.219-1.178-5.25-1.178c-14,0-15.013,20.058-3.1,23.049
			c0.729,0.355,1.498,0.624,2.331,0.767c8.312,1.473,16.707,2.442,25.021,3.91c8.879,1.574,17.212,1.076,21.219-7.714
			c0.076-0.157,0.167-0.31,0.243-0.477c3.834-9.156,7.892-18.21,11.726-27.365c2.473-5.911-2.62-12.898-8.191-14.427
			c-6.764-1.861-11.958,2.298-14.426,8.19c-0.787,1.879-1.604,3.742-2.407,5.621c-28.787-35.261-82.136-24.902-107.43,18.946
			C140.006,285.942,160.274,297.754,167.825,284.658z"/>
		<path d="M258.754,310.708c-15.15,26.269-46.417,38.766-65.797,20.267c1.856,0.294,3.717,0.543,5.568,0.873
			c0.074,0.01,0.142,0.01,0.213,0.021c1.488,0.731,3.219,1.178,5.253,1.178c13.998,0,15.018-20.058,3.1-23.049
			c-0.729-0.355-1.498-0.625-2.331-0.767c-9.927-1.757-20.056-2.569-30.054-3.839c-7.69-0.976-12.824,0.254-16.193,7.642
			c-0.074,0.158-0.165,0.311-0.239,0.478c-3.832,9.156-7.894,18.21-11.725,27.365c-2.476,5.911,2.62,12.898,8.188,14.427
			c6.766,1.863,11.961-2.301,14.429-8.19c0.787-1.879,1.607-3.743,2.41-5.622c28.785,35.262,82.136,24.902,107.429-18.945
			C286.581,309.418,266.311,297.612,258.754,310.708z"/>
	</g>
</g>
<g>
</g>
<g>
</g>
<g>
</g>
<g>
</g>
<g>
</g>
<g>
</g>
<g>
</g>
<g>
</g>
<g>
</g>
<g>
</g>
<g>
</g>
<g>
</g>
<g>
</g>
<g>
</g>
<g>
</g>
</svg>
