<?xml version="1.0" encoding="iso-8859-1"?>
<!-- Generator: Adobe Illustrator 16.0.0, SVG Export Plug-In . SVG Version: 6.00 Build 0)  -->
<!DOCTYPE svg PUBLIC "-//W3C//DTD SVG 1.1//EN" "http://www.w3.org/Graphics/SVG/1.1/DTD/svg11.dtd">
<svg version="1.1" id="Capa_1" xmlns="http://www.w3.org/2000/svg" xmlns:xlink="http://www.w3.org/1999/xlink" x="0px" y="0px"
	 width="491.974px" height="491.974px" viewBox="0 0 491.974 491.974" style="enable-background:new 0 0 491.974 491.974;"
	 xml:space="preserve">
<g>
	<g>
		<path d="M370.454,169.025c-22.911,0-44.549,7.353-62.834,21.305c-14.087-59.06-69.767-101.496-134.064-101.496
			c-5.205,0-10.479,0.287-15.663,0.853c-36.813,4.014-65.745,24.065-81.466,56.444c-16.523,34.038-14.866,75.2,4.098,108.6
			c-0.645-0.01-1.29-0.021-1.935-0.021c-41.157,0-72.47,27.37-77.914,68.111c-2.564,19.169,2.173,35.784,14.086,49.398
			c19.951,22.795,54.807,30.92,80.775,30.92c5.974,0,11.819-0.406,16.993-1.158c0.493,0.062,0.988,0.122,1.528,0.122
			c21.152,0,43.013,0,65.341-0.021v-1.178c3.151,0.543,6.505,0.061,9.297-1.438c1.231-0.665,2.323-1.549,3.266-2.604
			c1.831-2.031,3.031-4.773,3.042-8.298c0.01-2.701,0.125-5.402,0.16-8.104c0.013-0.868,0.038-1.736,0.054-2.609
			c0.015-0.863,0.035-1.727,0.051-2.59c0.127-6.084,0.236-12.172,0.47-18.251c0.289-7.678,0.617-15.36,0.998-23.043
			c0.021-0.417-0.045-0.782-0.058-1.184c0.013-0.183,0.058-0.36,0.058-0.554c0-7.465-5.934-12.491-13-12.999
			c-2.001-0.138-4.004-0.203-6.005-0.305c20.34-19.896,40.845-39.634,61.299-59.418c19.007,19.027,37.318,38.72,55.619,58.422
			c-4.326,0.122-8.658,0.203-12.979,0.438c-2.772,0.146-5.042,1.035-6.9,2.346c-5.723,0.771-10.761,4.875-10.436,12.391
			c0.543,12.177,0.822,24.363,1.163,36.551c0.051,1.808,0.111,3.615,0.167,5.424c0.031,0.857,0.057,1.721,0.087,2.584
			c0.03,0.868,0.051,1.742,0.081,2.615c0.092,2.468,0.127,4.946,0.233,7.424c0.157,3.504,1.463,6.236,3.372,8.277
			c0.152,0.249,0.376,0.447,0.543,0.686c0.711,0.98,1.579,1.844,2.585,2.564c1.925,1.406,4.331,2.336,7.368,2.336h25.131v0.106
			c31.199-0.198,62.652-0.482,93.988-0.909c0.955-0.02,1.925-0.132,2.936-0.365c1.381,0.193,2.823,0.208,4.392-0.061
			c32.524-5.657,58.479-23.958,73.072-51.547c16.453-31.093,16.702-70.771,0.676-106.155
			C460.192,198.607,416.11,169.025,370.454,169.025z M291.07,356.585c-0.127-4.175-0.254-8.349-0.386-12.527
			c10.313-0.361,20.632-0.523,30.955-0.533c1.56,0.284,3.108,0.213,4.605-0.147c13.152-1.112,14.803-18.986,4.967-24.339
			c-27.086-28.935-53.613-58.392-81.951-86.128c-3.161-3.092-6.761-4.049-10.141-3.633c-3.326-0.366-6.863,0.612-9.978,3.633
			c-29.78,28.858-59.892,57.387-89.266,86.666c-5.71,5.688-4.4,12.857-0.218,17.494c2.282,3.717,6.444,6.067,11.144,6.434
			c6.484,0.497,12.979,0.767,19.474,1.046c-0.47,10.237-0.807,20.489-1.031,30.742c-18.776,0.01-37.277,0.021-55.19,0.021
			c-0.947,0-1.874,0.091-2.818,0.284c-1.005-0.071-2.059-0.041-3.168,0.132c-5.162,0.828-10.509,1.249-15.894,1.249
			c-29.811,0-64.719-13.035-64.983-49.764c-0.083-11.842,4.014-22.282,11.86-30.184c9.635-9.699,24.356-15.274,40.388-15.274
			c6.032,0,11.923,0.797,17.529,2.387c0.973,0.273,1.976,0.426,3.047,0.477c2.699,1.325,5.71,1.747,8.991,0.995
			c6.126,0.976,12.646-2.955,15.023-8.937c1.912-4.81,0.691-9.912-3.26-13.645c-27.423-25.896-36.681-62.597-24.163-95.771
			c11.755-31.156,39.715-50.496,74.804-51.732c61.763-2.133,112.776,45.52,112.903,104.37c0.021,8.554,6.749,13.025,13.381,13.025
			c5.972,0,10.867-3.306,12.654-8.48c16.752-18.715,37.877-28.599,61.123-28.599c36.312,0,70.854,24.758,85.94,61.606
			c11.288,27.553,10.709,56.27-1.6,78.77c-11.01,20.129-29.94,33.221-54.776,37.872c-0.614-0.081-1.274-0.152-2.066-0.138
			c-31.312,0.432-62.738,0.717-93.918,0.92v0.69h-13.421c-0.005-0.203-0.01-0.406-0.021-0.609
			C291.426,368.833,291.248,362.709,291.07,356.585z"/>
		<path d="M247.04,375.47c0.068-0.106,0.142-0.213,0.213-0.32c-0.17,0-0.338,0-0.508,0
			C246.836,375.262,246.945,375.364,247.04,375.47z"/>
	</g>
</g>
<g>
</g>
<g>
</g>
<g>
</g>
<g>
</g>
<g>
</g>
<g>
</g>
<g>
</g>
<g>
</g>
<g>
</g>
<g>
</g>
<g>
</g>
<g>
</g>
<g>
</g>
<g>
</g>
<g>
</g>
</svg>
