<?xml version="1.0" encoding="iso-8859-1"?>
<!-- Generator: Adobe Illustrator 16.0.0, SVG Export Plug-In . SVG Version: 6.00 Build 0)  -->
<!DOCTYPE svg PUBLIC "-//W3C//DTD SVG 1.1//EN" "http://www.w3.org/Graphics/SVG/1.1/DTD/svg11.dtd">
<svg version="1.1" id="Capa_1" xmlns="http://www.w3.org/2000/svg" xmlns:xlink="http://www.w3.org/1999/xlink" x="0px" y="0px"
	 width="440.251px" height="440.251px" viewBox="0 0 440.251 440.251" style="enable-background:new 0 0 440.251 440.251;"
	 xml:space="preserve">
<g>
	<g>
		<path d="M419.451,15.466c-6.429,0-12.106,2.98-15.914,7.561c-1.224-0.371-2.529-0.635-4.017-0.629
			c-37.806,0.089-96.355,1.221-134.095,3.29c0-2.386,0.041-4.778,0.198-7.19c0.213-3.209-0.584-5.786-1.996-7.759
			c-1.904-3.722-5.555-6.51-11.004-6.541c-14.97-0.083-29.853-1.061-44.64-3.438c-7.69-1.236-13.281,3.636-15.381,9.412
			c-1.676,2.034-2.663,4.773-2.371,8.32c0.109,1.346,0.079,2.694,0.124,4.045c-0.482-0.041-0.924-0.14-1.429-0.14
			c-42.045-0.099-104.871-1.325-146.896-2.6c-1.472-0.045-2.772,0.178-3.983,0.505C34.31,14.771,27.98,11.129,20.8,11.129
			c-11.487,0-20.8,9.313-20.8,20.8s9.313,20.799,20.8,20.799c6.645,0,12.489-3.171,16.295-8.018
			c1.452,0.619,3.075,1.031,4.936,1.087c42.025,1.274,104.851,2.501,146.896,2.6c0.391,0,0.724-0.079,1.097-0.104
			c0.021,2.199,0.021,4.405,0.203,6.604c0.442,5.383,3.438,10.91,9.042,12.375c-64.354,57.63-144.56,133.767-131.794,224.873
			c7.036,50.231,55.769,89.692,100.395,106.181c53.869,19.905,115.605,13.232,171.854,15.36c0.224,0.011,0.406-0.035,0.625-0.035
			c-0.147,3.042-0.346,6.089-0.625,9.135c-0.34,3.697,1.447,7.059,4.154,9.445c1.741,4.194,5.52,7.454,11.445,7.454h42.898
			c1.331,0,2.514-0.213,3.642-0.513c6.505,0.025,12.664-4.118,11.958-12.486c-1.173-13.853-1.3-27.711-1.3-41.599
			c0-3.433-1.122-6.119-2.854-8.146c-1.742-4.194-5.52-7.454-11.446-7.454h-37.698c-0.473,0-0.889,0.091-1.336,0.132
			c-0.421-0.041-0.833-0.132-1.265-0.132h-5.199c-1.92,0-3.742,0.462-5.393,1.238c-4.616,1.447-8.161,5.317-7.607,11.761
			c0.147,1.752,0.229,3.499,0.34,5.246c-0.116-0.005-0.213-0.041-0.34-0.046c-85.498-3.229-224.441,9.628-247.181-102.453
			c-8.653-42.64,21.747-87.252,46.639-118.68c27.678-34.955,61.04-65.25,94.163-94.908c7.242,0.15,14.452-0.292,21.435-1.607
			c4.261-0.808,8.063-4.992,9.079-9.08c0.768-3.1,1.204-6.182,1.479-9.262c37.77-2.074,96.359-3.212,134.186-3.301
			c1.021,0,1.965-0.109,2.858-0.292c3.758,5.403,9.993,8.955,17.072,8.955c11.486,0,20.8-9.313,20.8-20.799
			C440.251,24.779,430.938,15.466,419.451,15.466z M366.412,395.486h20.175c0.061,6.068,0.167,12.137,0.437,18.199h-20.683
			C366.635,407.618,366.604,401.555,366.412,395.486z M239.976,45.837c-7.851,0.427-16.123-0.398-23.974-1.708
			c0.109-5.398,0.421-10.795,0.478-16.199c7.719,0.899,15.452,1.577,23.211,1.93C239.935,35.204,240.295,40.551,239.976,45.837z"/>
	</g>
</g>
<g>
</g>
<g>
</g>
<g>
</g>
<g>
</g>
<g>
</g>
<g>
</g>
<g>
</g>
<g>
</g>
<g>
</g>
<g>
</g>
<g>
</g>
<g>
</g>
<g>
</g>
<g>
</g>
<g>
</g>
</svg>
