<?xml version="1.0" encoding="iso-8859-1"?>
<!-- Generator: Adobe Illustrator 16.0.0, SVG Export Plug-In . SVG Version: 6.00 Build 0)  -->
<!DOCTYPE svg PUBLIC "-//W3C//DTD SVG 1.1//EN" "http://www.w3.org/Graphics/SVG/1.1/DTD/svg11.dtd">
<svg version="1.1" id="Capa_1" xmlns="http://www.w3.org/2000/svg" xmlns:xlink="http://www.w3.org/1999/xlink" x="0px" y="0px"
	 width="490.869px" height="490.868px" viewBox="0 0 490.869 490.868" style="enable-background:new 0 0 490.869 490.868;"
	 xml:space="preserve">
<g>
	<g>
		<path d="M161.251,379.462c-22.282-42.67-40.781-87.188-64.028-129.366c-0.061-0.106-0.132-0.178-0.193-0.279
			c25.141-43.216,41.939-90.279,62.911-135.549c3.199-6.906-3.783-13.14-9.207-11.769c-0.066-0.005-0.117-0.025-0.178-0.03
			c-18.275-1.295-36.602-1.404-54.888-2.615c-3.499-0.233-5.748,1.519-6.814,3.905c-0.955,0.599-1.843,1.429-2.564,2.59
			c-28.29,45.321-54.624,91.866-84.935,135.902c-1.213,1.77-1.528,3.504-1.274,5.073c-0.254,1.568,0.061,3.301,1.274,5.067
			c30.311,44.036,56.645,90.581,84.939,135.897c0.721,1.162,1.61,2,2.564,2.589c1.066,2.392,3.316,4.144,6.814,3.905
			c18.281-1.209,36.607-1.315,54.888-2.615c1.213-0.086,2.28-0.396,3.204-0.873C159.007,391.35,164.486,385.652,161.251,379.462z
			 M98.945,378.934C71.59,335.04,45.992,290.06,16.809,247.323c29.178-42.734,54.776-87.717,82.136-131.611
			c14.117,0.838,28.264,1.15,42.386,1.899c-19.342,43.262-35.84,87.752-60.26,128.563c-2.321,3.87-0.909,7.566,1.813,9.729
			c0.167,0.696,0.406,1.392,0.797,2.103c21.368,38.771,38.76,79.496,58.727,118.962C127.925,377.766,113.422,378.07,98.945,378.934z
			"/>
		<path d="M489.507,242.25c-30.311-44.036-56.635-90.581-84.939-135.896c-0.721-1.161-1.604-1.996-2.569-2.59
			c-1.066-2.392-3.316-4.139-6.814-3.905c-18.281,1.211-36.607,1.315-54.883,2.615c-0.066,0.005-0.117,0.025-0.178,0.03
			c-5.424-1.371-12.411,4.862-9.212,11.769c20.978,45.27,37.775,92.328,62.916,135.549c-0.065,0.102-0.137,0.173-0.192,0.279
			c-23.237,42.168-41.736,86.691-64.019,129.361c-3.234,6.19,2.25,11.893,7.485,11.842c0.924,0.478,1.985,0.787,3.204,0.873
			c18.271,1.295,36.597,1.407,54.883,2.615c3.499,0.239,5.748-1.518,6.814-3.904c0.965-0.595,1.844-1.427,2.569-2.585
			c28.3-45.326,54.629-91.86,84.939-135.901c1.219-1.768,1.528-3.499,1.274-5.068C491.036,245.754,490.726,244.02,489.507,242.25z
			 M391.929,378.934c-14.482-0.863-28.985-1.168-43.468-1.965c19.967-39.471,37.363-80.196,58.727-118.962
			c0.391-0.711,0.63-1.406,0.797-2.103c2.723-2.163,4.134-5.859,1.813-9.729c-24.415-40.812-40.919-85.302-60.261-128.563
			c14.122-0.749,28.27-1.062,42.392-1.899c27.35,43.899,52.947,88.877,82.131,131.611
			C444.876,290.054,419.279,335.04,391.929,378.934z"/>
		<path d="M314.225,33.213c-0.314-0.043-0.609-0.114-0.949-0.125l-45.523-1.528c-5.561-0.188-8.349,4.205-8.283,8.569
			c-14.553,55.538-26.618,111.728-38.612,167.865c-12.045,56.437-24.171,112.863-38.055,168.883
			c-3.879,15.65-7.972,31.261-12.304,46.794c-1.813,6.489-2.874,13.614-6.165,19.57c-3.159,5.738-7.688,15.569,3.407,15.879
			c18.9,0.538,37.765-0.137,56.66-0.858c0.391-0.015,0.747-0.091,1.112-0.147c3.555,0.503,7.257-1.086,8.45-5.61
			c35.546-134.749,63.784-271.672,89.707-408.574C324.894,37.425,319.171,33.024,314.225,33.213z M219.598,441.896
			c-12.406,0.457-24.801,0.843-37.211,0.843c36.825-129.92,58.417-263.687,92.068-394.386l31.397,1.056
			C280.838,180.918,253.549,312.392,219.598,441.896z"/>
	</g>
</g>
<g>
</g>
<g>
</g>
<g>
</g>
<g>
</g>
<g>
</g>
<g>
</g>
<g>
</g>
<g>
</g>
<g>
</g>
<g>
</g>
<g>
</g>
<g>
</g>
<g>
</g>
<g>
</g>
<g>
</g>
</svg>
