<?xml version="1.0" encoding="iso-8859-1"?>
<!-- Generator: Adobe Illustrator 16.0.0, SVG Export Plug-In . SVG Version: 6.00 Build 0)  -->
<!DOCTYPE svg PUBLIC "-//W3C//DTD SVG 1.1//EN" "http://www.w3.org/Graphics/SVG/1.1/DTD/svg11.dtd">
<svg version="1.1" id="Capa_1" xmlns="http://www.w3.org/2000/svg" xmlns:xlink="http://www.w3.org/1999/xlink" x="0px" y="0px"
	 width="467.953px" height="467.953px" viewBox="0 0 467.953 467.953" style="enable-background:new 0 0 467.953 467.953;"
	 xml:space="preserve">
<g>
	<g>
		<path d="M460.76,365.581c-1.427-0.625-2.98-0.985-4.611-0.985h-12.689c-1.239,0-2.412,0.254-3.534,0.619
			c-1.27-0.416-2.656-0.69-4.271-0.619c-29.904,1.33-59.813,2.681-89.729,3.92c9.415-5.148,18.413-11.08,26.822-17.955
			c5.906-4.824,11.05-10.187,15.544-15.95c90.733,17.158,99.848-127.863,20.997-134.706c-2.188-11.062-4.986-21.731-8.211-31.653
			c-1.869-5.761-6.657-8.163-11.405-8.09c-1.147-0.332-2.376-0.551-3.788-0.51c-120.322,3.821-240.701,4.821-361.082,3.905
			c-3.92-0.031-6.802,1.539-8.684,3.864c-2.658,1.866-4.639,4.784-4.977,8.823c-5.085,60.936-4.524,128.158,41.625,174.2
			c9.194,9.176,20.04,16.493,31.869,22.46c-14.152-0.305-28.307-0.752-42.462-1.305c-0.571-0.076-1.127-0.173-1.752-0.173H14.066
			c-1.806,0-3.38,0.351-4.753,0.939c-6.221,1.117-11.373,6.316-8.493,13.883c12.189,32.037,47.373,44.879,77.952,53.146
			c50.985,13.781,105.787,15.569,158.278,15.193c49.515-0.355,99.757-4.017,148.323-14.011c35.81-7.373,75.037-21.82,81.852-60.682
			c0.376-1.138,0.635-2.331,0.635-3.59C468.57,370.263,465.167,366.729,460.76,365.581z M412.976,224.599
			c39.263,11.564,37.471,88.263-11.334,87.866C413.585,286.044,416.008,254.759,412.976,224.599z M69.324,333.89
			c-40.111-34.998-39.375-97.025-35.62-146.871c115.826,0.79,231.655-0.208,347.428-3.813
			c15.457,53.599,16.747,120.109-31.732,156.103c-27.995,20.779-63.835,29.422-99.122,32.575
			c-18.816,0.522-37.641,0.949-56.459,1.229C150.305,371.299,101.844,362.26,69.324,333.89z M361.196,421.378
			c-40.867,7.048-82.735,9.222-124.151,9.79c-43.846,0.599-88.12-1.63-131.281-9.679c-20.393-3.798-53.766-9.963-71.914-26.639
			h2.658c53.22,2.203,106.429,2.447,159.636,1.635c7.777,0.295,15.374,0.416,22.633,0.427c11.425,0,22.995-0.554,34.553-1.691
			c60.789-1.727,121.567-4.483,182.319-7.195c1.377-0.061,2.575-0.376,3.692-0.797c0.391,0.147,0.792,0.269,1.203,0.381
			C427.317,410.825,384.352,417.381,361.196,421.378z"/>
		<path d="M320.973,331.894c34.525-29.609,47.368-70.441,40.096-114.841c-2.442-14.876-25.009-8.544-22.586,6.223
			c5.956,36.354-6.267,68.213-34.074,92.054C292.922,325.181,309.574,341.663,320.973,331.894z"/>
		<path d="M120.401,82.235c4.451,7.739,8.658,15.043,10.324,22.978c1.559,7.441-2.366,14.863-12.007,22.698
			c-3.625,2.943-4.981,7.612-3.458,11.897c1.623,4.561,6.157,7.747,11.029,7.747l0,0c2.63,0,5.126-0.894,7.21-2.588
			c11.946-9.709,18.413-19.921,19.771-31.211c1.48-12.312-2.917-23.158-7.417-32.138c-1.826-3.646-3.94-7.323-5.984-10.88
			c-9.829-17.08-15.188-28.297-6.749-39.986c2.453-3.4,2.818-7.582,0.972-11.189c-1.94-3.791-6.022-6.236-10.4-6.236
			c-3.702,0-7.078,1.737-9.262,4.763c-17.108,23.707-3.072,48.312,4.474,61.53L120.401,82.235z"/>
		<path d="M178.958,82.235c4.451,7.739,8.658,15.043,10.321,22.978c1.562,7.441-2.366,14.863-12.007,22.698
			c-3.623,2.943-4.981,7.612-3.458,11.897c1.622,4.561,6.157,7.747,11.029,7.747c2.638,0,5.129-0.894,7.213-2.588
			c11.943-9.709,18.413-19.921,19.769-31.211c1.483-12.312-2.917-23.158-7.414-32.138c-1.826-3.646-3.943-7.323-5.984-10.88
			c-9.829-17.08-15.191-28.297-6.751-39.986c2.456-3.4,2.818-7.582,0.973-11.189c-1.939-3.791-6.02-6.236-10.405-6.236
			c-3.702,0-7.076,1.737-9.26,4.763c-17.107,23.707-3.075,48.312,4.471,61.53L178.958,82.235z"/>
		<path d="M237.507,82.229c4.454,7.739,8.658,15.049,10.324,22.983c1.559,7.441-2.366,14.863-12.007,22.698
			c-3.626,2.943-4.981,7.612-3.458,11.897c1.623,4.561,6.157,7.747,11.038,7.747c2.635,0,5.123-0.894,7.21-2.588
			c11.943-9.709,18.413-19.921,19.769-31.211c1.483-12.312-2.914-23.153-7.414-32.138c-1.822-3.646-3.939-7.323-5.986-10.88
			c-9.826-17.085-15.188-28.297-6.749-39.992c2.453-3.4,2.813-7.582,0.97-11.189c-1.939-3.791-6.021-6.236-10.399-6.236
			c-3.704,0-7.081,1.737-9.265,4.764c-17.107,23.706-3.072,48.312,4.474,61.529L237.507,82.229z"/>
	</g>
</g>
<g>
</g>
<g>
</g>
<g>
</g>
<g>
</g>
<g>
</g>
<g>
</g>
<g>
</g>
<g>
</g>
<g>
</g>
<g>
</g>
<g>
</g>
<g>
</g>
<g>
</g>
<g>
</g>
<g>
</g>
</svg>
