<?xml version="1.0" encoding="iso-8859-1"?>
<!-- Generator: Adobe Illustrator 16.0.0, SVG Export Plug-In . SVG Version: 6.00 Build 0)  -->
<!DOCTYPE svg PUBLIC "-//W3C//DTD SVG 1.1//EN" "http://www.w3.org/Graphics/SVG/1.1/DTD/svg11.dtd">
<svg version="1.1" id="Capa_1" xmlns="http://www.w3.org/2000/svg" xmlns:xlink="http://www.w3.org/1999/xlink" x="0px" y="0px"
	 width="500.004px" height="500.004px" viewBox="0 0 500.004 500.004" style="enable-background:new 0 0 500.004 500.004;"
	 xml:space="preserve">
<g>
	<g>
		<path d="M245.824,336.902L245.824,336.902c6,0,11.987-0.432,17.786-1.285c27.781-4.077,53.685-20.489,69.304-43.909
			c13.319-19.992,17.591-43.071,12.01-65.003c-9.861-38.755-45.753-63.792-91.452-63.792c-10.575,0-21.038,1.371-31.1,4.085
			c-1.361,0.104-2.636,0.36-3.89,0.792c-2.803,0.973-5.672,2.095-8.653,3.39c-4.159,1.668-8.048,3.509-11.562,5.459
			c-0.932,0.516-1.815,1.135-2.684,1.874c-32.837,19.987-48.723,52.648-43.589,89.685
			C158.574,315.656,203.859,336.902,245.824,336.902z M214.223,203.084c11.923-6.391,25.37-9.766,38.89-9.766
			c24.917,0,54.664,12.261,63.413,46.675c3.007,11.809,0.681,23.125-6.905,33.642c-14.087,19.534-43.265,31.641-63.564,33.108
			c-2.059,0.146-4.078,0.218-6.038,0.218c-32.545,0-49.429-19.997-54.38-38.709C180.043,247.092,186.746,218.711,214.223,203.084z"
			/>
		<path d="M479.651,184.824c-4.062-12.507-8.13-25.012-11.994-37.58c-0.482-1.569-1.188-3.057-2.138-4.509l-0.005-0.021
			c-1.701-7.134-7.038-12.067-14.051-13.099c-1.051-0.472-2.133-0.805-3.229-0.992c-14.879-2.636-29.406-5.939-45.361-9.661
			c-0.401-13.063-0.828-26.113-1.306-39.182c-0.04-1.066-0.213-2.13-0.518-3.25c-0.523-3.831-2.677-7.135-6.104-9.333
			c-23.659-15.184-48.516-26.898-73.87-34.812c-3.052-0.962-6.144-0.853-8.927,0.27c-2.3,0.5-4.393,1.587-6.23,3.234
			c-4.443,4.004-8.841,8.049-13.188,12.142c-7.892-9.473-16.057-19.469-23.725-29.711c-0.67-0.878-1.447-1.686-2.325-2.402
			c-4.048-5.769-10.943-8.346-18.009-6.652c-0.01,0.005-0.025,0.005-0.041,0.011c-1.557-0.186-3.204-0.181-4.981,0.122
			c-12.964,2.209-25.959,4.22-38.953,6.223c-21.589,3.333-43.912,6.781-65.763,11.164c-7.327,1.467-12.35,6.688-13.362,13.769
			c-0.787,1.488-1.333,3.026-1.671,4.674l-1.191,5.825c-2.184,10.653-4.436,21.627-6.167,32.639
			c-15.709-0.749-31.989-1.971-49.607-3.723c-7.269-0.754-12.713,3.771-13.883,10.57c-0.109,0.226-0.219,0.459-0.317,0.708
			c-10.093,25.304-22.402,48.738-33.101,68.332c-2.788,5.091-2.216,10.877,1.439,15.282c0.432,0.838,0.914,1.602,1.473,2.303
			c6.604,8.351,13.418,17.301,20.761,27.249c-9.607,6.817-18.88,14.157-27.88,21.292l-5.05,3.994
			c-1.32,1.046-2.442,2.232-3.415,3.588c-5.865,4.098-8.264,10.94-6.276,18.138c5.944,21.49,12.926,42.98,19.68,63.764
			c4.062,12.497,8.123,24.994,11.992,37.552c0.484,1.579,1.186,3.057,2.138,4.504l0.005,0.021
			c1.696,7.14,7.036,12.081,14.056,13.102c1.039,0.467,2.115,0.797,3.222,0.995c13.873,2.463,27.825,5.586,42.036,8.892
			c-0.338,4.697-0.67,9.404-0.998,14.097c-0.749,10.653-1.493,21.312-2.396,31.955c-0.473,5.551,2.084,10.223,6.875,12.589
			c0.328,0.233,0.665,0.446,1.008,0.629c22.661,12.07,45.94,21.501,69.19,28.005c0.909,0.249,1.841,0.417,2.78,0.488
			c2.955,0.467,6.073-0.219,8.881-2.026c7.462-4.834,14.894-9.714,22.318-14.589l3.463-2.28
			c9.011,10.796,17.778,21.465,26.058,32.524c0.666,0.884,1.45,1.696,2.339,2.422c3.209,4.576,8.122,7.186,13.629,7.186
			c1.439,0,2.922-0.178,4.385-0.533c0.01-0.005,0.021-0.005,0.031-0.01c1.564,0.188,3.209,0.183,4.992-0.122
			c12.964-2.209,25.958-4.22,38.953-6.221c21.592-3.341,43.914-6.789,65.765-11.166c7.322-1.468,12.35-6.693,13.36-13.771
			c0.787-1.488,1.33-3.026,1.665-4.672l1.193-5.854c2.077-10.131,4.221-20.562,5.916-31.021c14.939,1.843,29.203,2.219,42.828,1.143
			c2.036-0.163,3.955-0.736,5.718-1.701c1.767-0.787,3.341-2.006,4.687-3.605c15.742-18.834,35.135-44.396,45.402-75.205
			c1.016-3.047,0.97-6.104-0.111-8.901c-0.514-2.397-1.671-4.565-3.459-6.439c-8.622-9.1-15.736-18.153-21.642-27.558
			c9.643-6.835,18.945-14.203,27.979-21.358l4.997-3.956c1.32-1.046,2.447-2.234,3.422-3.6c5.86-4.098,8.263-10.938,6.276-18.131
			C493.388,227.078,486.405,205.598,479.651,184.824z M121.136,359.286c-1.369-6.104-5.824-10.446-12.329-11.964
			c-14.81-3.464-29.338-6.8-43.97-9.506c-3.235-10.344-6.568-20.657-9.899-30.971c-5.705-17.631-11.585-35.825-16.839-53.918
			l2.308-1.844c9.069-7.221,18.446-14.688,28.201-21.147c6.713-4.441,9.572-12.078,7.581-19.822c0.754-3.311-0.02-6.812-2.231-9.859
			c-8.734-12.083-17.59-23.901-26.353-35.154c11.347-21.165,20.185-39.436,27.553-56.975c17.029,1.554,32.781,2.59,48.005,3.166
			c2.539,1.31,5.451,1.996,8.513,1.996c8.074,0,17.356-5.067,18.672-16.181c1.368-11.585,3.801-23.29,6.157-34.604l0.62-2.991
			c18.567-3.479,37.516-6.432,55.873-9.293c10.659-1.663,21.312-3.326,31.958-5.091c9.021,11.853,18.542,23.311,28.303,34.97
			c3.311,3.945,7.708,6.121,12.385,6.121c4.474,0,9.023-2.013,12.202-5.253c0.325-0.259,0.65-0.53,0.95-0.838
			c6.769-6.916,14.005-13.602,20.499-19.499c18.723,6.385,37.277,15.157,55.243,26.108c0.59,16.422,1.179,32.836,1.62,49.269
			c0.122,4.41,2.128,8.257,5.556,10.743c2.265,2.956,5.52,4.994,9.496,5.923c14.797,3.463,29.314,6.797,43.97,9.511
			c3.22,10.306,6.54,20.581,9.861,30.856c5.713,17.664,11.613,35.899,16.874,54.038l-2.371,1.881
			c-9.054,7.213-18.413,14.663-28.137,21.111c-5.027,3.326-7.978,8.552-8.171,14.417c-0.695,2.991-0.34,6.078,1.031,8.978
			c7.048,14.803,16.625,28.909,29.243,43.036c-6.891,17.783-17.641,35.129-34.443,55.578c-13.432,0.589-27.03-0.249-40.786-2.478
			c-2.839-1.849-6.338-2.859-10.004-2.859c-8.044,0-17.306,5.058-18.61,16.153c-1.361,11.567-3.799,23.268-6.155,34.57l-0.619,3.021
			c-18.565,3.474-37.496,6.429-55.848,9.288c-10.664,1.665-21.338,3.331-31.986,5.098c-9.033-11.867-18.547-23.317-28.302-34.967
			c-1.305-1.563-2.846-2.874-4.578-3.899c-4.227-3.656-10.163-4.037-15.079-0.863c-7.025,4.545-14.018,9.141-21.013,13.741
			c-5.474,3.595-10.95,7.195-16.442,10.765c-17.491-5.25-34.733-12.142-51.32-20.515c0.566-7.353,1.076-14.711,1.584-22.074
			c0.719-10.385,1.438-20.769,2.326-31.138C122.431,363.55,122.061,361.327,121.136,359.286z M57.723,92.875L57.723,92.875
			l-0.015-0.005L57.723,92.875z"/>
	</g>
</g>
<g>
</g>
<g>
</g>
<g>
</g>
<g>
</g>
<g>
</g>
<g>
</g>
<g>
</g>
<g>
</g>
<g>
</g>
<g>
</g>
<g>
</g>
<g>
</g>
<g>
</g>
<g>
</g>
<g>
</g>
</svg>
