<?xml version="1.0" encoding="iso-8859-1"?>
<!-- Generator: Adobe Illustrator 16.0.0, SVG Export Plug-In . SVG Version: 6.00 Build 0)  -->
<!DOCTYPE svg PUBLIC "-//W3C//DTD SVG 1.1//EN" "http://www.w3.org/Graphics/SVG/1.1/DTD/svg11.dtd">
<svg version="1.1" id="Capa_1" xmlns="http://www.w3.org/2000/svg" xmlns:xlink="http://www.w3.org/1999/xlink" x="0px" y="0px"
	 width="486.87px" height="486.87px" viewBox="0 0 486.87 486.87" style="enable-background:new 0 0 486.87 486.87;"
	 xml:space="preserve">
<g>
	<g>
		<path d="M387.434,318.093c-0.635-40.934-39.456-62.606-74.712-61.642c-0.939-0.138-1.965-0.178-3.012-0.076
			c-2.249,0.223-4.448,0.543-6.474,0.908c-3.153,0.468-6.149,1.103-8.877,1.869c-0.797,0.219-1.559,0.513-2.32,0.898
			c-25.969,8.45-42.31,28.442-44.858,54.924c-1.371,14.274,2.787,27.695,12.024,38.821c12.167,14.64,32.361,24.531,54.009,26.446
			c1.986,0.178,3.977,0.264,5.972,0.264l0,0c18.992,0,38.146-7.941,51.242-21.236C381.782,347.732,387.667,333.494,387.434,318.093z
			 M362.917,322.571c0.112,7.099-2.437,13.35-7.57,18.56c-8.542,8.674-24.35,14.279-40.279,14.279c-3.082,0-6.002-0.223-8.683-0.66
			c-23.268-3.788-32.434-19.489-33.256-32.915c-0.889-14.6,7.708-33.099,28.568-39.177c4.605-1.208,9.384-1.828,14.203-1.828
			C338.954,280.83,362.506,295.165,362.917,322.571z"/>
		<path d="M481.768,278.86c-0.076-1.198-0.315-2.372-0.722-3.565c-0.096-5.575-3.188-10.176-8.19-12.242
			c-0.675-0.498-1.406-0.92-2.168-1.25c-9.282-4.021-18.215-8.403-27.939-13.258c1.742-8.499,3.474-16.994,5.18-25.502
			c0.163-0.817,0.229-1.653,0.203-2.549c0.274-3.108-0.802-6.083-3.067-8.432c-13.654-14.18-28.686-26.187-44.665-35.693
			c-2.189-1.3-4.581-1.797-7.003-1.475h-0.046c-1.849,0-3.641,0.462-5.332,1.381c-3.158,1.727-6.302,3.479-9.43,5.269
			c-3.575-7.233-7.205-14.771-10.476-22.308c-0.325-0.759-0.752-1.493-1.249-2.173c-2.077-5.007-6.678-8.103-12.264-8.191
			c-1.178-0.398-2.351-0.632-3.544-0.716c-9.105-0.589-18.2-1.328-27.289-2.059c-15.153-1.224-30.829-2.486-46.347-3.042
			l-0.559-0.01c-5.521,0-10.064,2.999-12.116,7.919c-0.787,0.934-1.427,1.944-1.945,3.057l-1.706,3.666
			c-3.011,6.472-6.114,13.124-8.942,19.898c-10.029-2.92-20.375-6.233-31.488-10.075c-5.289-1.833-10.722,0.612-12.969,5.568
			c-0.091,0.109-0.18,0.229-0.264,0.353c-10.856,15.427-22.899,29.234-33.253,40.705c-3.115,3.458-3.775,8.053-1.805,12.177
			c0.178,0.67,0.401,1.3,0.688,1.919c2.902,6.236,5.86,12.891,8.996,20.23c-7.134,2.926-14.119,6.181-20.914,9.359l-3.994,1.854
			c-1.117,0.522-2.127,1.162-3.052,1.939c-5.118,2.133-8.122,6.886-7.909,12.68c0.556,15.503,1.818,31.169,3.042,46.316
			c0.734,9.1,1.465,18.199,2.059,27.314c0.076,1.198,0.317,2.381,0.721,3.56c0.094,5.586,3.194,10.182,8.196,12.253
			c0.686,0.503,1.409,0.919,2.168,1.244c8.584,3.732,17.082,7.861,25.692,12.137c-0.868,2.742-1.727,5.484-2.584,8.221
			c-2.199,7.033-4.403,14.057-6.708,21.043c-1.402,4.24-0.234,8.511,3.039,11.273l0.617,0.625
			c13.456,11.877,27.769,22.059,42.525,30.249c0.645,0.36,1.33,0.66,2.044,0.894c2.312,0.925,4.913,0.95,7.398,0.057
			c5.766-2.042,11.515-4.124,17.272-6.201l1.549-0.559c4.123,8.313,8.109,16.514,11.715,24.837c0.33,0.757,0.757,1.487,1.255,2.173
			c2.071,5.002,6.667,8.095,12.242,8.191c1.188,0.396,2.356,0.635,3.565,0.716c9.1,0.589,18.189,1.325,27.278,2.057
			c15.158,1.224,30.829,2.493,46.353,3.042l0.568,0.015c5.524,0,10.06-3.001,12.105-7.916c0.787-0.93,1.428-1.945,1.95-3.062
			l1.757-3.783c2.828-6.073,5.743-12.313,8.42-18.656c9.419,3.428,18.509,5.799,27.67,7.231c0.609,0.091,1.193,0.127,1.767,0.127
			c0.995,0,1.985-0.127,2.95-0.387c1.544-0.305,3.006-0.965,4.342-1.965c13.776-10.277,31.139-24.562,43.188-43.955
			c1.351-2.184,1.904-4.58,1.6-6.977c0.021-1.93-0.503-3.85-1.519-5.611c-4.027-6.962-7.181-13.68-9.572-20.414
			c7.16-2.93,14.183-6.199,21.003-9.384l4.042-1.879c1.112-0.518,2.123-1.157,3.052-1.944c5.124-2.128,8.12-6.886,7.911-12.68
			c-0.553-15.504-1.817-31.159-3.036-46.302C483.093,297.085,482.361,287.98,481.768,278.86z M347.658,455.467
			c-12.771-0.64-25.694-1.665-38.222-2.66c-7.14-0.564-14.274-1.128-21.414-1.631c-4.104-9.19-8.566-18.204-13.146-27.37
			c-0.686-1.386-1.585-2.625-2.677-3.707c-2.691-3.646-7.317-5.067-11.801-3.468c-5.444,1.93-10.877,3.899-16.311,5.865
			c-4.08,1.482-8.168,2.955-12.256,4.423c-10.379-6.068-20.353-13.092-29.711-20.911c1.449-4.535,2.869-9.074,4.286-13.614
			c2.163-6.911,4.319-13.822,6.591-20.703c0.589-1.782,0.724-3.564,0.411-5.302c-0.005-4.839-2.684-9.038-7.284-11.349
			c-9.204-4.596-18.24-9.064-27.383-13.142c-0.502-7.181-1.071-14.355-1.638-21.536c-0.988-12.492-2.013-25.38-2.65-38.105
			l0.939-0.437c7.249-3.402,14.741-6.921,22.297-9.684c3.983-1.463,6.937-4.108,8.539-7.652c2.298-5.088,1.805-11.689-1.508-20.2
			c-0.452-1.158-1.473-3.037-3.39-6.525c-1.736-3.166-5.466-9.948-6.771-13.264c10.951-12.345,19.797-23.166,27.518-33.688
			c4.441,1.318,13.104,4.339,17.28,5.794c3.021,1.052,5.335,1.852,6.051,2.06c1.233,0.358,2.646,0.927,4.148,1.513
			c4.042,1.586,8.622,3.375,13.152,3.375c5.966,0,10.425-3.197,12.558-9.006c2.752-7.508,6.251-14.97,9.633-22.188l0.492-1.046
			c12.716,0.64,25.588,1.66,38.07,2.653c7.186,0.566,14.375,1.14,21.565,1.638c4.104,9.198,8.557,18.209,13.147,27.388
			c2.315,4.644,6.454,7.3,11.35,7.3c2.62,0,5.255-0.779,7.195-2.021l0.975-0.52c5.398-3.395,11.004-6.574,16.092-9.381
			c11.015,7.025,21.576,15.49,31.469,25.225c-2.184,10.92-4.377,21.827-6.662,32.72c-0.711,3.412,0.102,6.754,2.229,9.334
			c1.214,2.604,3.312,4.696,6.104,6.093c9.176,4.586,18.194,9.049,27.385,13.147c0.508,7.19,1.071,14.37,1.641,21.551
			c0.985,12.486,2.006,25.364,2.65,38.09l-0.939,0.437c-7.251,3.402-14.741,6.921-22.297,9.688
			c-4.378,1.605-7.546,4.997-8.785,9.359c-1.062,2.203-1.336,4.651-0.803,7.129c2.352,11.01,6.46,21.952,12.527,33.362
			c-7.256,10.313-16.914,19.86-30.762,30.438c-8.653-1.716-17.337-4.362-25.867-7.881c-2.631-2.636-6.435-4.174-10.445-4.174
			c-6.181,0-11.324,3.574-13.437,9.343c-2.768,7.552-6.287,15.052-9.694,22.303L347.658,455.467z M356.189,478.552v-0.056l0,0
			V478.552z"/>
		<path d="M111.509,69.751c-7.838,0-15.731,1.831-22.858,5.289c-0.693,0.208-1.333,0.493-1.958,0.854
			c-1.216,0.706-2.387,1.46-3.39,2.158c-1.653,1.066-3.207,2.208-4.59,3.369c-0.437,0.363-0.848,0.769-1.234,1.236
			c-12.66,11.669-16.791,27.434-11.324,43.335c5.091,14.81,18.88,23.643,36.881,23.648l0,0c6.126,0,12.403-1.074,18.154-3.103
			c11.854-4.187,21.823-13.619,26.67-25.25c4.191-10.067,4.067-20.749-0.348-30.077C141.058,77.571,127.929,69.751,111.509,69.751z
			 M84.792,119.244c-3.084-8.311-0.521-17.596,6.431-23.577c5.482-4.477,12.558-7.046,19.418-7.046
			c9.349,0,16.945,4.708,20.835,12.911c1.805,3.803,1.752,7.66-0.145,11.788c-3.823,8.311-13.901,14.97-21.444,17.019
			C98.292,133.49,88.399,128.963,84.792,119.244z"/>
		<path d="M176.792,181.632c0.193-0.779,0.297-1.587,0.302-2.392l0.021-2.491c0.03-3.422,0.063-6.917,0-10.438
			c5.403-0.528,10.474-1.46,15.381-2.838c1.191-0.333,2.272-0.894,3.219-1.663c1.003-0.734,1.826-1.676,2.438-2.798
			c5.07-9.219,11.123-21.589,12.929-35.551c0.254-1.96-0.12-3.826-1.082-5.443c-0.624-1.348-1.602-2.514-2.861-3.412
			c-3.24-2.303-6.093-4.664-8.653-7.15c2.737-2.978,5.347-6.038,7.899-9.016l1.701-1.99c0.525-0.615,0.973-1.28,1.335-1.993
			c2.658-3.037,3.184-7.239,1.295-11.007c-4.184-8.389-8.782-16.661-13.233-24.658c-2.661-4.789-5.329-9.585-7.919-14.419
			c-0.378-0.704-0.833-1.354-1.378-1.966c-1.777-3.496-5.101-5.56-8.98-5.56c-0.036,0-0.076,0-0.114,0
			c-0.528-0.094-1.191-0.051-1.704-0.134c-5.581,0.109-11.113-0.046-16.884-0.234c-1.046-4.57-2.098-9.135-3.161-13.695
			c-0.143-0.604-0.351-1.199-0.635-1.795c-0.838-2.262-2.61-4.055-4.931-4.971c-11.169-4.431-22.562-7.295-33.865-8.544l-1-0.056
			c-1.579,0-3.087,0.421-4.402,1.221c-1.28,0.597-2.397,1.519-3.275,2.684c-0.868,1.153-1.727,2.313-2.58,3.479
			c-3.194-2.625-6.429-5.357-9.521-8.15c-0.421-0.373-0.873-0.71-1.373-1.002C92.914,3.11,88.895,2.42,85.259,3.865
			c-0.81,0.109-1.584,0.302-2.344,0.586c-5.134,1.945-10.29,3.806-15.455,5.675c-8.604,3.107-17.504,6.322-26.154,9.889
			c-3.9,1.607-6.261,5.111-6.261,9.146c-0.178,0.782-0.277,1.577-0.282,2.397l-0.021,2.45c-0.03,3.707-0.068,7.502,0.01,11.321
			c-5.637,0.784-11.507,1.46-17.809,2.059c-2.295,0.218-4.321,1.256-5.705,2.938c-1.191,1.44-1.841,3.24-1.881,5.162l-0.023,0.109
			C7.261,66.611,4.13,77.109,1.34,85.912c-1.072,3.374-0.079,6.896,2.536,9.199c0.307,0.358,0.63,0.693,0.983,0.998
			c2.823,2.42,5.611,4.883,8.366,7.379c-2.656,2.907-5.2,5.883-7.69,8.79l-1.767,2.064c-0.541,0.622-0.982,1.282-1.351,2.005
			c-2.653,3.042-3.179,7.244-1.295,11.004c4.194,8.401,8.802,16.686,13.258,24.699c2.656,4.778,5.314,9.557,7.894,14.366
			c0.378,0.713,0.837,1.368,1.378,1.982c1.797,3.52,5.017,5.454,9.087,5.558c0.541,0.094,1.115-0.005,1.722,0.14
			c5.06-0.099,10.135,0.01,15.206,0.183l0.417,3.404c0.541,4.375,1.087,8.747,1.564,13.124c0.374,3.486,2.585,6.175,5.819,7.14
			l0.602,0.219c10.468,3.194,20.982,5.232,31.224,6.043l0.739,0.03c0.322,0,0.64-0.016,0.947-0.046
			c1.986-0.109,3.827-0.929,5.345-2.387c2.445-2.356,4.873-4.732,7.302-7.104c3.791,3.1,7.498,6.2,11.07,9.425
			c0.427,0.383,0.889,0.731,1.394,1.028c1.851,1.648,4.164,2.546,6.609,2.546l0,0c1.31,0,2.62-0.259,3.9-0.774
			c0.8-0.104,1.569-0.294,2.328-0.576c5.134-1.945,10.296-3.806,15.46-5.672c8.6-3.11,17.499-6.325,26.162-9.897
			C174.436,189.178,176.792,185.667,176.792,181.632z M158.77,152.319c-1.988,2.148-2.958,4.981-2.729,7.988
			c0.342,4.481,0.312,8.955,0.254,13.66c-6.724,2.636-13.604,5.126-20.279,7.551c-3.646,1.32-7.292,2.646-10.93,3.994
			c-4.281-3.745-8.668-7.322-13.167-10.958c-0.858-0.686-1.797-1.226-2.808-1.62c-3.113-1.655-6.998-1.095-9.618,1.435
			c-2.584,2.49-5.149,5.002-7.708,7.508l-4.674,4.565c-6.297-0.691-12.604-1.872-18.822-3.519c-0.287-2.402-0.589-4.812-0.891-7.213
			c-0.536-4.283-1.071-8.564-1.534-12.865c-0.149-1.381-0.612-2.676-1.34-3.791c-1.567-3.291-4.712-5.309-8.559-5.449
			c-5.7-0.203-11.41-0.368-17.103-0.378c-1.861-3.422-3.75-6.83-5.637-10.239c-3.438-6.193-6.972-12.578-10.306-18.964
			c3.052-3.583,5.959-6.978,9.161-10.131c2.222-2.193,3.392-4.88,3.387-7.787c-0.013-3.943-2.133-7.914-6.484-12.164
			c-0.485-0.472-1.904-1.574-3.677-2.895c-1.399-1.046-4.182-3.12-5.888-4.578c2.564-8.412,4.509-15.78,6.022-22.759
			c2.902-0.343,7.259-0.744,9.501-0.952c1.891-0.17,3.338-0.31,3.801-0.374c0.711-0.104,1.564-0.134,2.47-0.188
			c3.821-0.208,9.062-0.492,12.292-4.174c1.216-1.384,2.6-3.811,2.32-7.536c-0.34-4.486-0.307-8.96-0.256-13.659
			c6.677-2.615,13.5-5.091,20.129-7.498c3.691-1.34,7.388-2.684,11.075-4.047c4.248,3.72,8.653,7.302,13.147,10.943
			c4.537,3.676,11.121,2.595,14.47-2.143l0.437-0.584c1.826-2.775,3.796-5.522,5.662-8.048c6.886,1.056,13.863,2.838,20.812,5.309
			c1.435,6.142,2.859,12.281,4.243,18.438c0.582,2.595,2.168,4.669,4.425,5.855c1.638,1.323,3.664,2.059,5.921,2.133
			c5.705,0.213,11.415,0.391,17.107,0.386c1.884,3.461,3.796,6.909,5.71,10.356c3.41,6.157,6.927,12.492,10.237,18.839
			c-3.047,3.583-5.959,6.972-9.166,10.141c-2.435,2.401-3.542,5.616-3.095,8.917c-0.005,1.861,0.589,3.646,1.737,5.199
			c3.915,5.289,8.693,10.131,14.551,14.747c-1.399,6.634-4.052,13.5-8.353,21.662c-4.636,1.031-9.478,1.648-14.424,1.846
			C166.288,148.031,161.594,149.268,158.77,152.319z"/>
	</g>
</g>
<g>
</g>
<g>
</g>
<g>
</g>
<g>
</g>
<g>
</g>
<g>
</g>
<g>
</g>
<g>
</g>
<g>
</g>
<g>
</g>
<g>
</g>
<g>
</g>
<g>
</g>
<g>
</g>
<g>
</g>
</svg>
