<?xml version="1.0" encoding="iso-8859-1"?>
<!-- Generator: Adobe Illustrator 16.0.0, SVG Export Plug-In . SVG Version: 6.00 Build 0)  -->
<!DOCTYPE svg PUBLIC "-//W3C//DTD SVG 1.1//EN" "http://www.w3.org/Graphics/SVG/1.1/DTD/svg11.dtd">
<svg version="1.1" id="Capa_1" xmlns="http://www.w3.org/2000/svg" xmlns:xlink="http://www.w3.org/1999/xlink" x="0px" y="0px"
	 width="488.157px" height="488.157px" viewBox="0 0 488.157 488.157" style="enable-background:new 0 0 488.157 488.157;"
	 xml:space="preserve">
<g>
	<g>
		<path d="M203.71,257.006c-47.786,4.672-95.595,9.206-143.387,13.878c-7.607,0.746-11.844,6.484-12.708,12.477
			c-2.517,4.591-2.56,10.42,2.252,15.229c9.95,9.953,19.842,19.957,29.102,30.56c-13.119,13.939-49.721,50.028-65.211,61.362
			c-7.736,5.667-7.036,15.487-2.476,21.271c0.579,1.94,1.635,3.854,3.407,5.632c21.871,21.871,43.663,43.808,64.645,66.542
			c5.657,6.134,12.952,4.874,17.725,0.543c0.759-0.427,1.508-0.898,2.236-1.498c17.207-14.152,56.018-52.379,71.811-68.06
			c7.632,6.941,14.99,14.183,22.302,21.484c2.844,2.849,6.045,3.956,9.141,3.9c8.092,3.854,19.896,0.07,19.509-11.507
			c-1.747-53.228-0.962-106.46,0-159.703C222.257,258.179,211.66,254.158,203.71,257.006z M194.542,400.028
			c-4.405-4.124-8.876-8.182-13.492-12.086c-3.795-3.209-8.076-3.859-11.946-2.966c-3.331-0.264-6.837,0.833-9.92,3.915
			c-15.147,15.138-53.232,52.907-69.388,66.943c-16.458-17.504-33.342-34.597-50.308-51.603
			c16.026-13.051,53.438-50.303,67.41-65.72c6.833-7.53,3.047-17.198-3.583-21.286c-0.536-1.168-1.186-2.315-2.123-3.428
			c-5.35-6.322-10.961-12.4-16.696-18.362c36.805-3.574,73.615-7.104,110.42-10.689
			C194.278,323.177,193.881,361.602,194.542,400.028z"/>
		<path d="M473.572,71.253c-21.714-22.025-43.356-44.109-64.176-66.988c-5.616-6.172-12.918-4.972-17.728-0.67
			c-0.751,0.421-1.508,0.889-2.239,1.48c-17.306,14.036-56.386,51.994-72.285,67.562C309.558,65.64,302.25,58.353,294.995,51
			c-2.823-2.859-6.022-3.991-9.115-3.966c-8.063-3.91-19.891-0.203-19.596,11.372c1.386,53.24,0.218,106.467-1.112,159.697
			c-0.274,10.94,10.298,15.033,18.271,12.235c47.819-4.337,95.653-8.534,143.479-12.875c7.616-0.69,11.893-6.401,12.796-12.385
			c2.55-4.578,2.626-10.399-2.147-15.247c-9.882-10.024-19.708-20.099-28.889-30.762c13.213-13.848,50.063-49.678,65.638-60.905
			c7.779-5.611,7.145-15.435,2.62-21.251C476.375,74.968,475.329,73.043,473.572,71.253z M380.817,149.513
			c-6.891,7.487-3.169,17.179,3.438,21.312c0.522,1.17,1.168,2.331,2.097,3.443c5.302,6.365,10.877,12.477,16.569,18.481
			c-36.83,3.313-73.666,6.589-110.491,9.915c0.903-38.425,1.569-76.847,1.183-115.28c4.372,4.156,8.815,8.246,13.406,12.185
			c3.777,3.234,8.054,3.91,11.923,3.046c3.336,0.292,6.845-0.785,9.948-3.849c15.254-15.031,53.603-52.534,69.857-66.453
			c16.331,17.618,33.098,34.822,49.947,51.958C432.572,97.202,394.898,134.193,380.817,149.513z"/>
	</g>
</g>
<g>
</g>
<g>
</g>
<g>
</g>
<g>
</g>
<g>
</g>
<g>
</g>
<g>
</g>
<g>
</g>
<g>
</g>
<g>
</g>
<g>
</g>
<g>
</g>
<g>
</g>
<g>
</g>
<g>
</g>
</svg>
