<?xml version="1.0" encoding="iso-8859-1"?>
<!-- Generator: Adobe Illustrator 16.0.0, SVG Export Plug-In . SVG Version: 6.00 Build 0)  -->
<!DOCTYPE svg PUBLIC "-//W3C//DTD SVG 1.1//EN" "http://www.w3.org/Graphics/SVG/1.1/DTD/svg11.dtd">
<svg version="1.1" id="Capa_1" xmlns="http://www.w3.org/2000/svg" xmlns:xlink="http://www.w3.org/1999/xlink" x="0px" y="0px"
	 width="473.514px" height="473.514px" viewBox="0 0 473.514 473.514" style="enable-background:new 0 0 473.514 473.514;"
	 xml:space="preserve">
<g>
	<g>
		<path d="M115.494,425.082c37.303,19.865,77.041,29.935,118.109,29.935c0.005,0,0.005,0,0.01,0
			c68.776,0,133.881-28.406,183.32-79.983c76.129-79.414,75.342-203.429-1.793-282.333
			c-53.512-54.738-117.321-79.366-190.022-73.303c-1.341-0.31-2.689-0.462-4.253-0.462c-0.015,0-0.033,0-0.043,0
			C116.721,21.146,32.744,85.898,6.874,183.905C-18.105,278.561,26.556,377.729,115.494,425.082z M35.369,221.891
			c6.236-90.779,80.1-161.264,175.807-167.934c2.471,0.731,4.957,0.944,7.64,0.581c8.886-1.226,18.032-1.846,27.178-1.846
			c62.87,0,123.15,28.625,157.315,74.712c21.602,29.137,42.822,78.813,21.216,149.953c-26.146,86.046-102.307,141.65-194.024,141.65
			c-11.035,0-22.209-0.854-33.218-2.539C96.779,401.087,28.689,319.256,35.369,221.891z"/>
		<path d="M159.096,289.154c0.66,8.801,7.211,13.573,13.716,14.574c54.936,25.842,115.917,31.899,168.81,35.546
			c0.391,0.03,0.776,0.046,1.147,0.046c1.549,0,3.052-0.219,4.484-0.655c7.891-1.158,12.862-7.435,12.141-15.438
			c-4.29-47.591-18.732-96.474-46.839-158.488c-1.401-3.088-3.55-5.469-6.235-6.927c-1.529-1.186-3.291-2.079-5.241-2.666
			c-16.544-4.986-33.896-9.127-50.668-13.126c-35.192-8.386-71.586-17.064-103.037-34.167c-2.412-1.31-4.933-1.975-7.482-1.975
			c-6.484,0-12.509,4.55-14.771,11.105c-1.478,3.272-1.597,6.937-0.348,10.623C143.958,184.362,155.184,237.207,159.096,289.154z
			 M257.835,222.661c4.92,9.214,2.224,20.151-6.566,26.611c-7.932,5.829-18.753,5.017-24.902-2.036
			c-6.289-7.217-4.682-16.875,0.224-23.11c0.701-0.587,1.335-1.257,1.901-2.006c3.821-5.045,10.115-8.305,16.034-8.305
			C250.228,213.815,254.707,216.791,257.835,222.661z M219.168,272.508c6.033,3.352,12.944,5.189,20.249,5.189
			c4.25,0,8.485-0.63,12.588-1.879c20.495-6.256,33.957-25.029,33.5-46.722c-0.122-5.606-1.382-10.892-3.54-15.688
			c4.672-3.618,9.009-7.254,13.102-10.946c15.559,37.505,25.766,71.915,30.94,104.428c-40.197-3.204-81.918-8.606-120.519-23.12
			C210.059,279.648,214.593,275.916,219.168,272.508z M258.526,192.106c-3.981-1.363-8.237-2.158-12.69-2.206h-0.645
			c-13.855,0-25.319,5.055-34.096,15.028c-0.267,0.233-0.526,0.479-0.777,0.739c-11.23,11.715-14.871,27.835-10.445,42.488
			c-4.395,3.32-8.638,6.759-12.718,10.298c-4.426-35.563-11.972-71.823-22.584-108.202c24.387,9.564,50.648,15.678,76.152,21.612
			c10.831,2.521,21.896,5.111,32.753,7.95C268.636,184.187,263.674,188.356,258.526,192.106z"/>
	</g>
</g>
<g>
</g>
<g>
</g>
<g>
</g>
<g>
</g>
<g>
</g>
<g>
</g>
<g>
</g>
<g>
</g>
<g>
</g>
<g>
</g>
<g>
</g>
<g>
</g>
<g>
</g>
<g>
</g>
<g>
</g>
</svg>
