<?xml version="1.0" encoding="iso-8859-1"?>
<!-- Generator: Adobe Illustrator 16.0.0, SVG Export Plug-In . SVG Version: 6.00 Build 0)  -->
<!DOCTYPE svg PUBLIC "-//W3C//DTD SVG 1.1//EN" "http://www.w3.org/Graphics/SVG/1.1/DTD/svg11.dtd">
<svg version="1.1" id="Capa_1" xmlns="http://www.w3.org/2000/svg" xmlns:xlink="http://www.w3.org/1999/xlink" x="0px" y="0px"
	 width="444.347px" height="444.347px" viewBox="0 0 444.347 444.347" style="enable-background:new 0 0 444.347 444.347;"
	 xml:space="preserve">
<g>
	<g>
		<path d="M211.103,20.295c-3.479-18.674-31.885-10.745-28.421,7.835c3.575,19.197-0.883,34.012-12.146,45.29
			c-0.051-17.877-0.137-35.749-0.172-53.631c-0.031-19.007-29.508-19.012-29.478,0c0.031,17.144,0.132,34.287,0.203,51.427
			c-7.861-15.356-10.227-32.776-7.571-52.9c2.478-18.801-27.03-18.562-29.478,0c-5.169,39.161,7.582,74.108,36.953,99.709
			c-0.152,19.286-0.462,44.468-1.275,63.749c-1.345,1.643-2.341,3.765-2.727,6.541c-9.821,70.492-27.898,158.936-17.687,230.393
			c0.742,5.159,3.453,8.231,6.901,9.679c1.711,1.757,3.824,3.088,6.342,3.565c8.17,1.538,16.27,1.995,24.557,2
			c0.254,0,0.487-0.065,0.736-0.081c0.249,0.011,0.482,0.081,0.741,0.081c8.231-0.005,16.483-0.157,24.552-2
			c1.503-0.346,2.833-1.011,4.067-1.813c4.362-2.158,7.79-6.271,8.226-12.4c5.226-73.412-10.125-163.958-25.583-235.318
			c-0.158-0.711-0.371-1.355-0.589-1.99c0.838-20.218,1.127-46.332,1.26-66.555c0.452-1.414,0.523-2.874,0.411-4.342
			C204.786,91.031,218.273,58.784,211.103,20.295z M166.661,404.378c-2.701,0.082-5.398,0.097-8.089,0.097
			c-0.254,0-0.493,0.062-0.742,0.076c-0.249-0.015-0.482-0.076-0.736-0.076c-2.965,0-5.931-0.015-8.896-0.116
			c-0.417-0.016-0.833-0.057-1.25-0.082c-4.925-42.665,1.168-103.388,8.333-146.007C163.01,300.712,168.275,361.19,166.661,404.378z
			"/>
		<path d="M320.97,15.25c0.122-0.988,0.117-1.98-0.016-2.978c-0.137-7.033-4.936-11.009-10.399-11.888
			c-2.788-0.703-5.9-0.511-9.115,1.152c-72.011,37.227-68.019,147.833-11.729,197.211c1.254,1.102,2.579,1.836,3.915,2.387
			c-0.229,11.662-0.498,23.32-0.884,34.97c-1.904,1.523-3.306,3.859-3.772,7.195c-8.663,62.18-24.604,124.578-15.6,187.605
			c0.649,4.55,3.041,7.257,6.088,8.536c1.503,1.549,3.367,2.728,5.591,3.144c7.211,1.355,14.351,1.762,21.658,1.762
			c0.223,0,0.432-0.061,0.649-0.07c0.219,0.01,0.427,0.07,0.65,0.07c7.262,0,14.538-0.137,21.657-1.762
			c1.325-0.305,2.504-0.889,3.59-1.6c3.85-1.904,6.876-5.53,7.257-10.933c4.54-63.729-8.506-126.985-21.922-188.972
			C321.229,165.922,320.021,90.45,320.97,15.25z M294.138,164.825c-26.08-36.409-29.768-93.292,0.594-125.827
			C294.417,80.909,294.549,122.881,294.138,164.825z M315.135,418.267c-2.376,0.076-4.763,0.086-7.14,0.086
			c-0.223,0-0.432,0.057-0.649,0.066c-0.219-0.01-0.427-0.066-0.65-0.066c-2.615,0-5.23-0.015-7.845-0.106
			c-0.371-0.01-0.731-0.051-1.103-0.071c-4.342-37.633,1.031-75.591,7.353-113.173C311.917,342.427,316.563,380.177,315.135,418.267
			z"/>
	</g>
</g>
<g>
</g>
<g>
</g>
<g>
</g>
<g>
</g>
<g>
</g>
<g>
</g>
<g>
</g>
<g>
</g>
<g>
</g>
<g>
</g>
<g>
</g>
<g>
</g>
<g>
</g>
<g>
</g>
<g>
</g>
</svg>
