<?xml version="1.0" encoding="iso-8859-1"?>
<!-- Generator: Adobe Illustrator 16.0.0, SVG Export Plug-In . SVG Version: 6.00 Build 0)  -->
<!DOCTYPE svg PUBLIC "-//W3C//DTD SVG 1.1//EN" "http://www.w3.org/Graphics/SVG/1.1/DTD/svg11.dtd">
<svg version="1.1" id="Capa_1" xmlns="http://www.w3.org/2000/svg" xmlns:xlink="http://www.w3.org/1999/xlink" x="0px" y="0px"
	 width="476.774px" height="476.774px" viewBox="0 0 476.774 476.774" style="enable-background:new 0 0 476.774 476.774;"
	 xml:space="preserve">
<g>
	<g>
		<path d="M368.67,46.44C326.675,15.071,278.835-1.199,228.741,3.163C7.524-34.272-60.358,270.147,75.975,411.158
			c91.805,94.948,245.216,82.288,333.791-8.597C510.909,298.782,479.766,129.43,368.67,46.44z M121.428,413.946
			c-31.742-20.759-54.857-50.541-69.792-84.488c53.313,0.625,106.551,3.896,159.87,4.129c3.25,0.016,5.733-1.163,7.521-2.94
			c16.28,9.537,35.109,14.138,52.847,5.378c3.926-1.939,6.967-4.408,9.395-7.195c0.929,0.269,1.909,0.467,3.001,0.497
			c47.215,1.422,94.364,4.52,141.6,4.403C372.925,447.612,223.765,480.894,121.428,413.946z M183.918,192.287
			c23.521,29.638,46.519,59.707,72.843,86.93c0.574,0.6,1.179,1.082,1.782,1.514c5.703,10.547,14.711,30.752,1.184,36.135
			c-14.432,5.743-31.295-5.322-42.411-15.071c0.005-1.204-0.137-2.463-0.609-3.834C204.783,263.044,194.435,227.645,183.918,192.287
			z M442.468,221.617c1.041,8.409,0.695,89.261-7.693,89.353c-48.799,0.559-97.497-2.61-146.256-4.185
			c-0.218-32.534-26.232-53.786-45.442-76.649c-26.122-31.095-50.135-63.965-76.83-94.58c-0.736-0.848-1.523-1.487-2.321-2.023
			c-7.536-5.845-21.409,0.188-17.783,11.644c16.701,52.788,31.057,106.31,48.941,158.719c-0.716,2.144-0.782,4.469,0.106,6.729
			c-50.739-0.767-101.417-3.646-152.167-3.95c-5.165-0.036-11.689-69.868-11.938-77.054c-0.904-25.598,2.656-51.046,10.151-75.491
			c9.679-31.552,24.187-61.596,47.256-85.312c25.918-26.654,61.875-33.223,97.172-35.033c4.261-0.219,8.506-0.368,12.726-0.473
			c43.056-1.097,88.661-4.405,127.935,16.839c39.248,21.231,73.412,56.574,93.023,97.048
			C430.225,169.629,439.396,196.71,442.468,221.617z"/>
		<path d="M91.174,217.951c-6.469,0-13,0.013-19.413-0.998c-6.018-0.947-12.015,1.447-13.767,7.823
			c-1.478,5.375,1.783,12.816,7.82,13.766c8.455,1.331,16.818,1.798,25.359,1.798C105.616,240.34,105.616,217.956,91.174,217.951z"
			/>
		<path d="M116.412,111.74c-6.851-3.428-13.757-6.645-20.86-9.526c-5.667-2.293-12.294,2.45-13.767,7.82
			c-1.757,6.4,2.168,11.481,7.815,13.769c4.682,1.899,10.456,4.738,15.513,7.27c5.454,2.731,12.085,1.503,15.315-4.012
			C123.363,122.051,121.87,114.465,116.412,111.74z"/>
		<path d="M195.714,62.461c-3.961-13.857-25.568-7.96-21.587,5.954c2.844,9.948,5.799,19.827,9.795,29.384
			c2.356,5.626,7.317,9.595,13.771,7.822c5.312-1.462,10.182-8.13,7.815-13.771C201.513,82.288,198.563,72.409,195.714,62.461z"/>
		<path d="M302.504,65.566c-4.946-2.902-12.654-1.478-15.311,4.014c-4.758,9.834-7.932,20.186-10.928,30.658
			c-3.977,13.909,17.631,19.807,21.592,5.954c2.447-8.559,4.773-17.268,8.668-25.313C309.181,75.387,308.075,68.826,302.504,65.566z
			"/>
		<path d="M363.104,130.277c-2.468,2.465-4.94,4.931-7.464,7.338c-1.224,1.17-2.479,2.308-3.732,3.438
			c-0.614,0.546-1.234,1.087-1.864,1.623c0.127-0.117-2.955,2.376-1.467,1.242c-4.84,3.696-7.389,9.562-4.017,15.312
			c2.798,4.778,10.455,7.729,15.314,4.017c6.846-5.228,12.979-11.067,19.058-17.146c4.316-4.309,4.316-11.517,0-15.828
			C374.622,125.966,367.416,125.966,363.104,130.277z"/>
		<path d="M364.018,233.345c0,5.487,5.135,11.997,11.197,11.194c10.222-1.36,20.495-1.401,30.783-1.401
			c14.441-0.005,14.441-22.389,0-22.384c-10.288,0-20.562,0.043-30.783,1.399C369.167,222.956,364.018,226.632,364.018,233.345z"/>
		<path d="M242.721,307.064c13.903,0,13.903-21.551,0-21.551C228.823,285.514,228.823,307.064,242.721,307.064z"/>
	</g>
</g>
<g>
</g>
<g>
</g>
<g>
</g>
<g>
</g>
<g>
</g>
<g>
</g>
<g>
</g>
<g>
</g>
<g>
</g>
<g>
</g>
<g>
</g>
<g>
</g>
<g>
</g>
<g>
</g>
<g>
</g>
</svg>
