<?xml version="1.0" encoding="iso-8859-1"?>
<!-- Generator: Adobe Illustrator 16.0.0, SVG Export Plug-In . SVG Version: 6.00 Build 0)  -->
<!DOCTYPE svg PUBLIC "-//W3C//DTD SVG 1.1//EN" "http://www.w3.org/Graphics/SVG/1.1/DTD/svg11.dtd">
<svg version="1.1" id="Capa_1" xmlns="http://www.w3.org/2000/svg" xmlns:xlink="http://www.w3.org/1999/xlink" x="0px" y="0px"
	 width="459.694px" height="459.694px" viewBox="0 0 459.694 459.694" style="enable-background:new 0 0 459.694 459.694;"
	 xml:space="preserve">
<g>
	<g>
		<path d="M366.287,30.564c-23.806-9.983-49.76-16.577-74.261-22.213C267.936,2.809,242.973,0,217.836,0
			c-25.639,0-51.432,2.923-76.659,8.674c-27.134,6.188-55.589,17.247-82.289,31.983c-8.818,4.862-9.069,12.434-8.429,16.511
			l0.068,0.427l-0.079,0.427c-0.239,1.378-0.338,2.661-0.292,3.925c3.755,104.602,4.067,208.365,4.073,323.447
			c0,1.812,0.287,3.59,0.904,5.581l0.109,0.589c0.267,3.909,2.277,7.343,5.969,10.227c47.273,36.795,110.263,57.904,172.814,57.904
			c32.667,0,63.393-5.683,91.333-16.895c25.547-10.258,51.074-24.811,71.884-41.01c3.696-2.884,5.713-6.317,5.977-10.227
			l0.106-0.579c0.615-2.011,0.904-3.778,0.904-5.591c0-86.392,0.152-170.856,2.057-254.43c0.173-7.513,0.853-15.335,1.568-23.618
			c1.352-15.541,2.742-31.621,0.544-45.499C406.956,52.712,391.214,41.018,366.287,30.564z M105.329,57.688
			c35.622-14.851,73.666-22.386,113.079-22.386c42.962,0,85.698,8.835,127.019,26.261l4.742,2l-4.423,2.63
			c-31.737,18.87-70.3,28.843-111.507,28.843c-44.283,0-90.147-11.593-129.146-32.659l-4.793-2.589L105.329,57.688z M368.85,352.574
			c-0.04,8.439-0.086,16.869-0.086,25.309c0,4.672-6.881,10.821-40.436,25.664l-1.971,0.884
			c-15.274,6.886-31.366,11.893-47.814,14.858c-13.385,2.406-26.974,3.864-40.38,4.347c-3.293,0.111-6.594,0.173-9.884,0.173
			c-18.159,0-36.006-1.809-53.045-5.362c-15.033-3.144-29.546-7.841-43.143-13.975l-1.66-0.741
			c-35.8-15.899-40.736-21.815-40.736-25.853c0-8.14-0.045-16.274-0.094-24.41l-0.086-21.733l3.728,1.798
			c44.953,21.525,93.354,32.895,139.969,32.895c47.19,0,91.556-11.171,131.87-33.22l3.859-2.112L368.85,352.574z M369.226,258.175
			c-0.04,5.51-0.051,11.009-0.065,16.514l-0.051,14.624l-1.158,0.762c-40.934,27.229-86.63,41.051-135.831,41.051
			c-45.796,0-93.135-12.532-136.897-36.252c-1.285-0.695-2.595-1.224-4.004-1.63l-1.871-0.538l-0.074-18.992
			c-0.021-7.616-0.041-15.238-0.104-22.855l-0.025-3.651l3.458,1.168c56.013,18.891,108.725,28.473,156.666,28.473
			c41.37,0,80.537-7.099,116.413-21.109l3.569-1.396L369.226,258.175z M370.12,175.163c-0.127,7.947-0.203,15.897-0.269,23.841
			l-0.168,16.536l-1.462,0.696c-35.627,16.968-75.393,25.573-118.186,25.573c-47.669,0-99.876-10.341-159.61-31.608l-1.706-0.609
			l-0.17-16.384c-0.069-7.79-0.137-15.579-0.277-23.363l-0.079-4.39l3.885,2.039c42.909,22.521,91.888,34.424,141.64,34.424
			c45.653,0,91.543-10.083,132.705-29.155l3.768-1.742L370.12,175.163z M371.877,95.637c-0.214,7.368-0.366,14.731-0.528,22.099
			l-0.279,12.781l-1.3,0.724c-41.559,23.062-88.58,35.249-135.986,35.254c-0.005,0-0.01,0-0.01,0
			c-50.907,0-100.262-14.002-142.75-40.497c-0.569-0.353-1.135-0.597-1.696-0.853l-2.079-0.955l-0.262-11.654
			c-0.104-5.002-0.208-10.009-0.353-15.019l-0.124-4.496l3.96,2.138c42.333,22.825,90.729,34.891,139.959,34.896
			c50.216,0,97.771-12.7,137.506-36.721l4.083-2.47L371.877,95.637z"/>
	</g>
</g>
<g>
</g>
<g>
</g>
<g>
</g>
<g>
</g>
<g>
</g>
<g>
</g>
<g>
</g>
<g>
</g>
<g>
</g>
<g>
</g>
<g>
</g>
<g>
</g>
<g>
</g>
<g>
</g>
<g>
</g>
</svg>
