<?xml version="1.0" encoding="iso-8859-1"?>
<!-- Generator: Adobe Illustrator 16.0.0, SVG Export Plug-In . SVG Version: 6.00 Build 0)  -->
<!DOCTYPE svg PUBLIC "-//W3C//DTD SVG 1.1//EN" "http://www.w3.org/Graphics/SVG/1.1/DTD/svg11.dtd">
<svg version="1.1" id="Capa_1" xmlns="http://www.w3.org/2000/svg" xmlns:xlink="http://www.w3.org/1999/xlink" x="0px" y="0px"
	 width="488.791px" height="488.791px" viewBox="0 0 488.791 488.791" style="enable-background:new 0 0 488.791 488.791;"
	 xml:space="preserve">
<g>
	<g>
		<path d="M488.044,45.972c0.163-8.455-5.153-17.601-15.924-18.677C323.919,12.518,174.989,21.47,26.385,18.964
			c-3.339-0.056-6.096,0.764-8.394,2.084C10.28,21.762,2.98,27.051,2.777,37.014C0.059,172.621,0,308.249,0,443.877
			c0,5.164,1.955,9.059,4.882,11.745c2.61,4.164,6.962,7.297,13.172,7.693c147.949,9.465,296.201,6.987,444.351,5.555
			c5.733-0.056,9.893-2.508,12.563-6.012c4.098-2.59,6.992-7.028,6.881-13.432c-2.438-132.905,6.682-265.637,6.941-398.524
			C488.785,49.087,488.48,47.479,488.044,45.972z M246.935,256.626c5.02-0.071,10.036-0.162,15.054-0.243
			c-5.114,4.397-10.304,8.703-15.567,12.923C246.592,265.076,246.754,260.856,246.935,256.626z M244.979,312.078
			c19.938-14.406,38.849-30.088,57.022-46.662c3.307-3.016,4.824-6.424,5.145-9.79c7.505-0.138,15-0.254,22.506-0.392
			c-27.817,23.989-55.097,48.546-84.942,69.854C244.804,320.751,244.86,316.414,244.979,312.078z M210.64,52.035
			c-0.493,0.51-1.008,0.975-1.465,1.566c-43.061,56.127-76.256,119.523-129.311,167.423c-0.467,0.422-0.79,0.879-1.191,1.315
			c-8.308-0.264-16.618-0.493-24.922-0.846c54.771-47.507,98.172-103.103,129.595-169.287
			C192.445,52.146,201.54,52.093,210.64,52.035z M35.863,52.405c5.035,0.066,10.067,0.061,15.099,0.109
			c-5.21,6.043-10.306,12.177-15.369,18.344C35.69,64.709,35.749,58.558,35.863,52.405z M34.944,114.763
			c4.403,0.125,8.772-1.333,11.553-4.87C61.555,90.8,77.254,72.258,93.711,54.35c0.49-0.536,0.833-1.097,1.236-1.643
			c1.214,0,2.425-0.018,3.636-0.018c-19.271,28.3-39.56,55.452-63.817,79.366C34.84,126.29,34.865,120.524,34.944,114.763z
			 M34.324,176.79c0.825-0.482,1.653-0.978,2.456-1.627c40.126-32.733,69.863-74.499,98.416-117.235
			c1.227-1.841,1.935-3.651,2.367-5.429c2.838-0.015,5.682-0.038,8.523-0.053c-28.594,54.717-65.861,101.237-111.939,142.018
			C34.215,188.568,34.266,182.676,34.324,176.79z M212.003,436.509c-59.585-0.63-119.155-2.214-178.671-5.692
			c0-58.94,0.061-117.886,0.343-176.825c59.953,3.097,119.929,3.569,179.915,3.031C211.015,316.815,209.626,376.624,212.003,436.509
			z M215.133,223.683c-8.736,0.084-17.465,0.069-26.202,0.094c9.795-11.382,19.093-23.161,28.023-35.223
			C216.339,200.263,215.71,211.973,215.133,223.683z M219.947,129.529c-2.473,1.242-4.773,3.141-6.609,5.995
			c-18.958,29.482-40.085,57.119-64.046,82.72c-1.607,1.717-2.684,3.534-3.438,5.38c-7.013-0.061-14.033-0.076-21.048-0.185
			c37.147-39.837,65.325-86.765,96.986-131.131C221.242,104.721,220.577,117.127,219.947,129.529z M244.18,365.609
			c44.482-28.472,82.756-64.871,123.085-98.802c4.423-3.717,5.886-8.12,5.429-12.319c7.062-0.106,14.127-0.188,21.185-0.284
			c-48.637,44.214-101.306,83.807-149.604,128.387C244.248,376.924,244.159,371.262,244.18,365.609z M399.748,436.148
			c15.895-14.249,31.961-28.295,48.505-41.767c-0.04,13.767-0.025,27.527,0.143,41.299
			C432.187,435.838,415.968,435.996,399.748,436.148z M448.639,352.123c-0.533,0.33-1.061,0.584-1.594,0.99
			c-31.088,23.927-60.316,49.962-89.464,76.199c-2.488,2.24-3.921,4.703-4.672,7.206c-11.05,0.076-22.1,0.173-33.149,0.229
			c45.469-37.907,88.032-79.084,129.555-121.308C449.045,327.662,448.822,339.895,448.639,352.123z M450.376,273.038
			c-1.94,0.803-3.758,1.966-5.312,3.524c-0.224,0.224-0.406,0.487-0.63,0.716c-3.118,0.442-6.256,1.94-9.09,4.839
			c-53.318,54.594-108.09,107.801-168.386,154.711c-7.205-0.01-14.411,0.011-21.614-0.02c-0.124-3.159-0.157-6.312-0.261-9.471
			c0.942-0.625,1.869-1.346,2.762-2.229c59.677-58.798,128.534-107.14,188.85-165.242c2.001-1.93,3.326-4.002,4.124-6.119
			c3.366-0.021,6.723-0.061,10.09-0.071C450.721,260.125,450.549,266.584,450.376,273.038z M451.904,220.339
			c-67.807,0.198-135.617,1.976-203.429,2.943c2.818-57.125,6.307-114.239,8.271-171.387c66.288,0.048,132.53,1.409,198.636,7.223
			C455.139,112.874,453.534,166.604,451.904,220.339z"/>
	</g>
</g>
<g>
</g>
<g>
</g>
<g>
</g>
<g>
</g>
<g>
</g>
<g>
</g>
<g>
</g>
<g>
</g>
<g>
</g>
<g>
</g>
<g>
</g>
<g>
</g>
<g>
</g>
<g>
</g>
<g>
</g>
</svg>
