<?xml version="1.0" encoding="iso-8859-1"?>
<!-- Generator: Adobe Illustrator 16.0.0, SVG Export Plug-In . SVG Version: 6.00 Build 0)  -->
<!DOCTYPE svg PUBLIC "-//W3C//DTD SVG 1.1//EN" "http://www.w3.org/Graphics/SVG/1.1/DTD/svg11.dtd">
<svg version="1.1" id="Capa_1" xmlns="http://www.w3.org/2000/svg" xmlns:xlink="http://www.w3.org/1999/xlink" x="0px" y="0px"
	 width="478.783px" height="478.783px" viewBox="0 0 478.783 478.783" style="enable-background:new 0 0 478.783 478.783;"
	 xml:space="preserve">
<g>
	<g>
		<path d="M476.183,68.965c0.574-6.655-3.382-13.611-11.979-13.317c-150.278,5.175-302.419-19.535-452.252-5.21
			C2.293,51.364-1.517,60.937,0.542,67.982c6.101,90.972,10.265,182.043,12.449,273.192c0.025,1.193,0.229,2.27,0.51,3.285
			c0.493,5.819,4.461,11.294,11.997,11.299c53.844,0.061,107.684,0.898,161.518,1.838v49.227c0,0.37,0.076,0.686,0.104,1.041
			h-17.301c-16.13,0-16.13,25.009,0,25.009h171.94c16.128,0,16.128-25.009,0-25.009H330.42c-1.255-15.996-1.59-32.012-1.656-48.049
			c45.139,0.503,90.281,0.686,135.436,0.112c1.254-0.016,2.376-0.224,3.432-0.519c5.77-0.538,11.151-4.504,11.151-11.983
			c0-91.708-0.086-183.417-2.081-275.107C476.686,71.103,476.478,70.006,476.183,68.965z M211.923,407.869
			c0.025-0.355,0.102-0.671,0.102-1.041v-48.795c30.577,0.538,61.157,1.031,91.731,1.447c0.066,16.153,0.396,32.276,1.66,48.384
			h-93.493V407.869z M55.328,314.368c-1.757-74.21-4.908-148.358-9.432-222.436c113.351-9.771,278.796,8.658,392.451,5.73
			c1.392,73.433,1.539,146.878,1.549,220.325C328.542,319.223,166.678,314.759,55.328,314.368z"/>
		<path d="M425.926,129.913c0-4.529-2.046-8.355-5.646-10.613c-2.306-3.115-5.794-4.877-9.882-4.986
			c-100.306-2.656-203.048-7.904-305.369-15.595c-4.717-0.337-8.465,1.463-10.748,4.987c-2.305,3.578-2.658,8.529-0.937,12.771
			c0.084,1.94,0.582,3.812,1.498,5.581c27.563,53.349,72.59,82.321,145.995,93.927l11.738,1.833
			c58.939,9.115,114.62,17.72,147.708,73.806c0.584,2.554,1.909,4.763,3.869,6.424c2.301,3.047,5.606,4.728,9.339,4.728
			c4.666,0,9.308-2.641,11.801-6.719c2.199-3.601,2.428-7.87,0.63-11.806V129.913H425.926z M399.927,139.99v108.268
			c-26.192-27.134-61.85-43.566-111.548-51.521l-11.354-1.795c-61.25-9.617-114.376-17.966-149.341-68.626
			C219.316,132.871,310.865,137.469,399.927,139.99z"/>
	</g>
</g>
<g>
</g>
<g>
</g>
<g>
</g>
<g>
</g>
<g>
</g>
<g>
</g>
<g>
</g>
<g>
</g>
<g>
</g>
<g>
</g>
<g>
</g>
<g>
</g>
<g>
</g>
<g>
</g>
<g>
</g>
</svg>
