<?xml version="1.0" encoding="iso-8859-1"?>
<!-- Generator: Adobe Illustrator 16.0.0, SVG Export Plug-In . SVG Version: 6.00 Build 0)  -->
<!DOCTYPE svg PUBLIC "-//W3C//DTD SVG 1.1//EN" "http://www.w3.org/Graphics/SVG/1.1/DTD/svg11.dtd">
<svg version="1.1" id="Capa_1" xmlns="http://www.w3.org/2000/svg" xmlns:xlink="http://www.w3.org/1999/xlink" x="0px" y="0px"
	 width="484.122px" height="484.122px" viewBox="0 0 484.122 484.122" style="enable-background:new 0 0 484.122 484.122;"
	 xml:space="preserve">
<g>
	<g>
		<path d="M482.946,298.804c-19.388-58.488-32.819-118.784-50.039-177.904c-3.138-10.765-4.361-22.142-9.063-32.428
			c-3.758-8.221-13.219-21.178-23.009-21.2c-24.988-0.051-49.982-0.414-74.966-0.899c-2.712-1.279-5.83-1.597-8.78-0.992
			c-0.868,0.178-1.711,0.437-2.523,0.759c-5.205,2.069-9.079,7.066-7.47,14.17c1.351,5.954,2.153,12.543,2.712,19.4
			c0.624,7.76,0.924,15.859,1.233,23.897c0.452,11.529,0.965,22.871,2.661,32.636c0.635,3.634,2.387,6.149,4.661,7.785
			c1.945,2.146,4.718,3.671,8.46,3.905c7.069,0.447,14.122,0.93,21.165,1.56c-22.77,28.421-51.917,49.221-84.573,65.633
			c-30.539-20.259-59.715-42.165-84.878-68.586c6.454,0.312,12.9,0.686,19.354,1.092c7.978,0.5,12.479-5.144,13.238-11.293
			c0.353-1.061,0.625-2.191,0.719-3.458c0.988-13.916,2.699-27.73,4.689-41.504c0.66-4.555,1.331-9.11,2.049-13.66
			c1.034-6.589,2.105-13.172,3.187-19.756c1.541-9.382-6.139-13.904-13.576-13.083c0.139-0.363,0.287-0.726,0.426-1.097
			c-26.619-0.535-53.24-0.939-79.869-0.998c-12.458-0.02-19.697,14.805-24.044,24.064c-6.058,12.906-13.188,25.169-19.796,37.793
			c-17.326,33.075-33.02,66.963-49.444,100.488c-4.431,9.042-8.851,18.096-13.381,27.094c-2.272,4.509-8.183,22.257-12.677,24.253
			c-6.157,2.731-9.09,9.566-8.777,16.3c-0.482,1.787-0.749,3.753-0.586,6.013c2.026,28.457,1.881,56.878,0,85.345
			c-0.198,2.991,0.269,5.521,1.153,7.684c-2.209,9.79,2.549,20.535,14.545,20.393c146.452-1.787,293.568,10.613,445.795,8.988
			c10.146-0.111,15.204-8.633,15.179-17.082c6.484-31.931,8.479-64.155,6.875-96.741
			C484.083,304.827,484.001,301.978,482.946,298.804z M137.717,96.574c18.263,0.089,36.521,0.337,54.776,0.65
			c-2.242,14.523-4.268,29.066-5.651,43.704c-11.269-0.635-22.536-1.059-33.83-0.95c-10.187-2.991-21.935,10.618-13.441,21.475
			c16.341,20.889,35.418,39.456,55.875,56.282c17.067,14.041,40.243,36.784,61.316,44.117c17.722,6.17,49.302-20.489,62.724-30.191
			c22.637-16.354,42.771-36.112,58.665-59.128c1.763-2.554,2.453-5.121,2.366-7.528c2.793-7.213-0.508-17.603-10.628-19.101
			c-10.72-1.589-21.484-2.541-32.28-3.3c-2.265-12.241-1.965-27.726-2.458-42.401c19.545,0.34,39.091,0.604,58.641,0.688
			c17.666,53.454,34.708,133.143,52.257,186.642c-133.073-9.06-266.405-10.126-399.697-11.913
			C75.179,223.499,105.733,146.549,137.717,96.574z M447.735,387.527c-141.523,0.233-282.079-10.745-415.97-9.933
			c1.28-22.841,1.415-45.65,0.203-68.481c140.287,1.955,280.637,2.722,420.688,12.537
			C453.046,343.791,451.569,365.692,447.735,387.527z"/>
		<path d="M276.775,98.684c-0.031,0.112-0.092,0.198-0.122,0.307c0.106,0,0.213,0.005,0.314,0.005
			C276.907,98.892,276.84,98.788,276.775,98.684z"/>
	</g>
</g>
<g>
</g>
<g>
</g>
<g>
</g>
<g>
</g>
<g>
</g>
<g>
</g>
<g>
</g>
<g>
</g>
<g>
</g>
<g>
</g>
<g>
</g>
<g>
</g>
<g>
</g>
<g>
</g>
<g>
</g>
</svg>
