<?xml version="1.0" encoding="iso-8859-1"?>
<!-- Generator: Adobe Illustrator 16.0.0, SVG Export Plug-In . SVG Version: 6.00 Build 0)  -->
<!DOCTYPE svg PUBLIC "-//W3C//DTD SVG 1.1//EN" "http://www.w3.org/Graphics/SVG/1.1/DTD/svg11.dtd">
<svg version="1.1" id="Capa_1" xmlns="http://www.w3.org/2000/svg" xmlns:xlink="http://www.w3.org/1999/xlink" x="0px" y="0px"
	 width="487.888px" height="487.888px" viewBox="0 0 487.888 487.888" style="enable-background:new 0 0 487.888 487.888;"
	 xml:space="preserve">
<g>
	<g>
		<path d="M295.523,27.854c-2.402-3.395-6.074-5.781-10.553-6.812c-18.042-4.144-36.287-6.243-54.228-6.243
			c-49.782,0-97.03,15.973-136.725,46.21c-6.251,0.977-11.169,5.04-13.342,11.004c-13.238,11.704-25.359,25.021-36.036,39.601
			c-53.537,73.1-59.481,172.44-14.792,247.198c42.135,70.487,126.777,114.274,220.913,114.279c0.005,0,0.005,0,0.01,0
			c20.373,0,40.426-2.158,59.596-6.402c103.596-22.994,178.257-110.411,177.516-207.867c-0.396-53.017-20.932-103.665-59.397-146.47
			C394.162,74.154,347.004,44.197,295.523,27.854z M237.769,52.04c1.8,0.81,3.618,1.33,5.538,1.579
			c49.215,6.365,92.419,25.215,128.488,56.065c-22.617,24.672-47.707,46.413-74.687,64.732
			c-40.208-50.907-92.671-88.344-146.203-104.604C178.1,57.212,207.885,51.093,237.769,52.04z M49.035,182.498
			c11.299-32.583,31.042-61.568,57.168-83.952c55.472,5.21,114.402,40.596,159.05,95.359
			c-52.438,28.797-109.377,43.985-165.042,43.985c-20.657,0-41.396-2.064-61.71-6.142C39.857,215.297,43.399,198.753,49.035,182.498
			z M39.243,269.692c19.979,3.452,40.312,5.199,60.542,5.199c63.703,0,128.394-17.458,187.416-50.551
			c10.064,15.843,18.509,32.245,25.156,48.875c-63.404,27.594-122.821,74.58-172.324,136.293
			C83.053,379.854,46.694,329.348,39.243,269.692z M315.429,426.307c-21.246,6.022-43.559,9.074-66.356,9.074
			c-25.032,0-50.252-3.834-73.4-11.136c42.742-51.552,93.694-91.292,148.028-115.442
			C333.887,351.478,331.054,391.929,315.429,426.307z M437.528,324.89c-15.33,35.068-41.756,63.556-76.799,82.948
			c8.327-34.824,7.51-73.274-2.433-112.208c29.655-9.425,60.215-14.441,90.997-14.97
			C447.604,296.017,443.657,310.874,437.528,324.89z M346.801,260.262c-7.476-18.958-16.92-37.539-28.163-55.37
			c28.798-19.565,55.518-42.71,79.547-68.903c7.916,9.168,15.265,18.997,21.886,29.277c15.615,24.23,25.537,51.13,28.858,78.138
			C414.348,243.946,380.035,249.604,346.801,260.262z"/>
	</g>
</g>
<g>
</g>
<g>
</g>
<g>
</g>
<g>
</g>
<g>
</g>
<g>
</g>
<g>
</g>
<g>
</g>
<g>
</g>
<g>
</g>
<g>
</g>
<g>
</g>
<g>
</g>
<g>
</g>
<g>
</g>
</svg>
