<?xml version="1.0" encoding="iso-8859-1"?>
<!-- Generator: Adobe Illustrator 16.0.0, SVG Export Plug-In . SVG Version: 6.00 Build 0)  -->
<!DOCTYPE svg PUBLIC "-//W3C//DTD SVG 1.1//EN" "http://www.w3.org/Graphics/SVG/1.1/DTD/svg11.dtd">
<svg version="1.1" id="Capa_1" xmlns="http://www.w3.org/2000/svg" xmlns:xlink="http://www.w3.org/1999/xlink" x="0px" y="0px"
	 width="456.805px" height="456.805px" viewBox="0 0 456.805 456.805" style="enable-background:new 0 0 456.805 456.805;"
	 xml:space="preserve">
<g>
	<g>
		<path d="M437.94,356.024c-1.437-0.361-2.95-0.604-4.615-0.635c-136.729-2.402-273.48-2.474-410.225-2.474
			c-0.978,0-1.841,0.152-2.74,0.274c-2.46-0.325-4.916-0.219-7.129,0.386c-10.676,2.94-14.34,12.807-12.949,22.806
			c2.529,18.021,3.771,36.246,1.815,54.385c-0.681,6.343,3.171,12.04,8.435,15.392c2.864,4.692,7.845,8.079,15.043,8.084
			c135.93,0.081,271.877,2.214,407.754-2.468c6.825-0.233,11.634-3.488,14.559-7.922c5.139-2.762,8.917-7.927,8.917-15.559v-54.365
			C456.805,361.833,447.314,355.882,437.94,356.024z M419.736,415.091c-126.548,3.945-253.155,2.311-379.741,2.112
			c0.213-9.089-0.239-18.158-1.102-27.207c126.95,0.01,253.904,0.183,380.848,2.274v22.82H419.736z"/>
		<path d="M23.105,320.793c133.49,0.427,267.178,11.618,400.338-2.468c2.274-0.238,4.26-0.884,6.094-1.701
			c13.37,0.3,25.974-18.397,14.426-32.413C373.389,198.604,307.558,109.26,238.483,22.459c-0.736-5.169-3.377-10.001-7.919-12.855
			c-2.913-4.431-7.77-7.597-14.706-7.597c-8.932,0-14.523,5.18-16.778,11.664c-0.421,0.409-0.863,0.701-1.269,1.173
			C125.366,99.129,76.498,199.681,9.57,287.964c-2.09,2.758-3.11,5.484-3.443,8.104C2.836,306.839,8.468,320.747,23.105,320.793z
			 M214.89,52.026c60.991,76.789,119.586,155.455,181.183,231.759c-112.473,9.109-225.287,2.005-338.003,0.294
			C112.132,207.899,155.498,124.313,214.89,52.026z"/>
	</g>
</g>
<g>
</g>
<g>
</g>
<g>
</g>
<g>
</g>
<g>
</g>
<g>
</g>
<g>
</g>
<g>
</g>
<g>
</g>
<g>
</g>
<g>
</g>
<g>
</g>
<g>
</g>
<g>
</g>
<g>
</g>
</svg>
