<?xml version="1.0" encoding="iso-8859-1"?>
<!-- Generator: Adobe Illustrator 16.0.0, SVG Export Plug-In . SVG Version: 6.00 Build 0)  -->
<!DOCTYPE svg PUBLIC "-//W3C//DTD SVG 1.1//EN" "http://www.w3.org/Graphics/SVG/1.1/DTD/svg11.dtd">
<svg version="1.1" id="Capa_1" xmlns="http://www.w3.org/2000/svg" xmlns:xlink="http://www.w3.org/1999/xlink" x="0px" y="0px"
	 width="465.924px" height="465.923px" viewBox="0 0 465.924 465.923" style="enable-background:new 0 0 465.924 465.923;"
	 xml:space="preserve">
<g>
	<g>
		<path d="M457.393,70.325c-0.279-7.988-5.529-15.595-15.854-15.252C298.122,59.791,154.388,44.226,11.876,66.638
			c-12.096,1.904-14.139,13.264-9.77,21.916c0.041,0.158,0.086,0.312,0.13,0.47C1.393,91.073,0.961,93.45,1.16,96.23
			c7.086,98.965,17.773,197.6,27.439,296.33c0.104,1.057,0.337,2.031,0.594,2.986c-0.172,8.363,5.091,16.635,15.869,16.219
			c133.543-5.2,267.417-0.609,400.597-13.721c1.142-0.111,2.198-0.355,3.224-0.64c7.887-0.432,15.63-5.678,15.98-15.823
			c3.545-102.545-2.574-204.884-6.854-307.307C457.946,72.864,457.718,71.551,457.393,70.325z M432.354,266.728
			c-22.293-32.078-47.5-61.982-73.971-90.894c23.887-16.15,46.915-33.565,68.842-52.544
			C429.348,171.102,431.414,218.906,432.354,266.728z M416.673,88.524c-52.182,47.345-110.857,84.998-173.997,116.212
			C179.16,173.105,121.551,131.885,62.382,93.053C179.909,80.491,298.595,90.52,416.673,88.524z M35.563,114.788
			c31.636,20.515,62.692,41.929,94.308,62.403c-26.456,43.851-55.368,86.338-76.579,132.65
			C46.831,244.873,40.506,179.897,35.563,114.788z M432.293,366.236c-123.146,11.07-246.861,8.003-370.332,12.091
			c1.325-1.641,2.401-3.641,3.095-6.083c18.37-65.258,57.899-120.171,92.646-177.45c23.534,14.523,47.532,28.287,72.49,40.497
			c0.292,0.137,0.576,0.197,0.863,0.319c4.712,4.037,11.438,5.819,18.496,2.428c27.808-13.365,54.746-28.066,80.781-44.112
			c37.993,41.116,73.387,83.964,101.107,132.859c0.422,0.747,0.914,1.336,1.392,1.966
			C432.755,341.248,432.612,353.744,432.293,366.236z"/>
	</g>
</g>
<g>
</g>
<g>
</g>
<g>
</g>
<g>
</g>
<g>
</g>
<g>
</g>
<g>
</g>
<g>
</g>
<g>
</g>
<g>
</g>
<g>
</g>
<g>
</g>
<g>
</g>
<g>
</g>
<g>
</g>
</svg>
