<?xml version="1.0" encoding="iso-8859-1"?>
<!-- Generator: Adobe Illustrator 16.0.0, SVG Export Plug-In . SVG Version: 6.00 Build 0)  -->
<!DOCTYPE svg PUBLIC "-//W3C//DTD SVG 1.1//EN" "http://www.w3.org/Graphics/SVG/1.1/DTD/svg11.dtd">
<svg version="1.1" id="Capa_1" xmlns="http://www.w3.org/2000/svg" xmlns:xlink="http://www.w3.org/1999/xlink" x="0px" y="0px"
	 width="470.845px" height="470.846px" viewBox="0 0 470.845 470.846" style="enable-background:new 0 0 470.845 470.846;"
	 xml:space="preserve">
<g>
	<g>
		<path d="M420.476,354.296c-4.042,0-8.19,0.487-12.339,1.447c-32.845,7.587-61.475,11.283-87.529,11.283
			c-32.356,0-60.545-5.637-85.579-17.163c23.095-5.719,35.276-26.792,35.485-47.652c0.254-25.228-16.483-51.104-48.944-51.744
			c-17.938-0.351-35.879-0.396-53.816-0.244c-0.361-7.089-0.241-14.337,0.368-21.66l2.896-0.058
			c11.87-0.229,23.737-0.452,35.615-0.726c32.481-0.749,49.185-26.708,48.891-51.958c-0.244-21.122-12.817-42.478-36.58-47.723
			c6.22-5.035,12.839-9.328,19.822-12.845c17.601-8.871,39.634-13.175,67.359-13.175c24.974,0,50.805,3.555,73.057,6.888
			c3.423,0.515,6.855,0.774,10.217,0.774c24.867,0,44.148-13.923,50.312-36.335c3.748-13.599,0.96-29.895-7.261-42.531
			c-7.171-11.019-17.651-18.057-29.498-19.832c-37.384-5.598-65.866-8.097-92.379-8.097c-45.818,0-85.358,7.922-120.884,24.223
			c-40.845,18.74-73.895,54.062-95.953,102.422c-16.727,0.632-31.697,1.396-45.555,2.329c-32.395,2.178-48.987,29.878-48.152,54.832
			c0.917,27.164,19.839,46.133,46.024,46.133c1.265,0,2.549-0.04,3.87-0.129c5.324-0.361,10.832-0.688,16.765-1.006
			c-0.625,7.2-0.863,14.427-0.708,21.643c-5.085,0.254-10.161,0.528-15.247,0.848c-32.377,2.036-49.018,29.625-48.228,54.553
			c0.858,27.319,19.87,46.408,46.237,46.408c1.191,0,2.392-0.041,3.625-0.117c13.066-0.822,27.043-1.533,42.528-2.184
			c14.876,25.024,35.333,47.875,59.539,66.461c41.957,32.204,96.518,48.54,162.16,48.54c0.01,0,0.01,0,0.021,0
			c35.892,0,75.357-4.91,117.296-14.609c24.761-5.718,39.461-26.553,36.572-51.836C467.87,378.589,449.461,354.296,420.476,354.296z
			 M428.053,427.957c-40.02,9.247-77.511,13.939-111.441,13.939c-0.006,0-0.016,0-0.016,0c-59.788,0-109.019-14.523-146.332-43.168
			c-23.618-18.129-43.181-40.726-56.568-65.349c-2.278-4.194-6.667-6.789-11.42-6.789c-0.165,0-0.333,0.005-0.503,0.01
			c-18.887,0.736-35.584,1.559-51.039,2.523c-0.675,0.046-1.341,0.071-1.996,0.071c-18.641,0-20.139-17.682-20.253-21.226
			c-0.396-12.634,6.906-26.721,23.884-27.787c7.805-0.497,15.615-0.873,23.425-1.249l4.524-0.224
			c3.534-0.173,6.843-1.782,9.171-4.448c2.321-2.676,3.453-6.175,3.141-9.699c-1.147-12.71-0.878-25.593,0.803-38.277
			c0.18-1.368,0.398-2.745,0.617-4.123l0.345-2.188c0.582-3.85-0.579-7.76-3.184-10.656c-2.6-2.89-6.381-4.431-10.255-4.299
			c-12.51,0.562-22.925,1.133-32.778,1.793c-0.729,0.048-1.43,0.073-2.128,0.073c-18.397,0-19.921-17.499-20.04-21.008
			c-0.427-12.687,6.875-26.872,23.915-28.022c15.788-1.059,33.081-1.902,52.877-2.58c5.07-0.17,9.58-3.275,11.545-7.95
			c13.545-32.207,39.497-75.101,86.186-96.524c32.047-14.706,68.042-21.856,110.037-21.856c25.166,0,52.466,2.41,88.52,7.81
			c5.631,0.843,9.394,4.981,11.552,8.305c4.164,6.391,5.769,15.019,4.002,21.455c-4.129,14.992-17.596,17.231-25.248,17.231
			c-2.066,0-4.215-0.165-6.362-0.482c-23.182-3.473-50.155-7.18-76.911-7.18c-31.885,0-57.747,5.22-79.059,15.957
			c-18.403,9.27-34.663,22.795-48.327,40.195c-3.1,3.95-3.646,9.333-1.409,13.832c2.247,4.491,6.663,7.221,11.898,7.195
			l18.164-0.381c16.141,0,22.011,12.522,22.135,23.245c0.109,9.329-4.718,25.235-23.499,25.667c-11.834,0.27-23.676,0.5-35.51,0.729
			l-14.216,0.274c-6.312,0.125-11.621,4.769-12.588,11.015c-0.49,3.15-0.901,6.307-1.219,9.482
			c-1.409,14.224-1.236,28.27,0.505,41.741c0.843,6.484,6.37,11.329,12.891,11.329c0.063,0,0.114,0,0.172,0
			c21.653-0.274,43.32-0.314,64.993,0.111c18.714,0.366,23.554,16.199,23.462,25.492c-0.106,10.801-6.007,23.419-22.294,23.419
			l-0.65-0.01c-7.892-0.152-15.78-0.193-23.664-0.244l-4.977-0.025c-0.025,0-0.051,0-0.079,0c-5.339,0-10.143,3.271-12.098,8.247
			c-1.965,5.002-0.65,10.699,3.311,14.335c6.38,5.85,12.928,10.801,20.04,15.127c33.421,20.338,71.528,30.22,116.509,30.22
			c28.046,0,58.595-3.91,93.384-11.954c2.225-0.513,4.408-0.771,6.479-0.771c14.062,0,22.811,12.126,24.172,24.1
			C445.303,410.174,445.008,424.037,428.053,427.957z"/>
	</g>
</g>
<g>
</g>
<g>
</g>
<g>
</g>
<g>
</g>
<g>
</g>
<g>
</g>
<g>
</g>
<g>
</g>
<g>
</g>
<g>
</g>
<g>
</g>
<g>
</g>
<g>
</g>
<g>
</g>
<g>
</g>
</svg>
