<?xml version="1.0" encoding="iso-8859-1"?>
<!-- Generator: Adobe Illustrator 16.0.0, SVG Export Plug-In . SVG Version: 6.00 Build 0)  -->
<!DOCTYPE svg PUBLIC "-//W3C//DTD SVG 1.1//EN" "http://www.w3.org/Graphics/SVG/1.1/DTD/svg11.dtd">
<svg version="1.1" id="Capa_1" xmlns="http://www.w3.org/2000/svg" xmlns:xlink="http://www.w3.org/1999/xlink" x="0px" y="0px"
	 width="444.389px" height="444.389px" viewBox="0 0 444.389 444.389" style="enable-background:new 0 0 444.389 444.389;"
	 xml:space="preserve">
<g>
	<g>
		<path d="M27.399,161.809c90.2,0.173,220.021,4.161,310.195,2.44c-9.714,9.8-19.316,19.718-28.624,29.924
			c-24.552,26.921,15.386,67.088,40.045,40.048c27.248-29.876,56.441-57.795,86.371-84.952c14.122-12.809,9.968-29.765-1.051-39.628
			c-1.899-2.798-4.352-5.408-7.511-7.68c-27.822-20.005-54.491-41.396-80.644-63.539c-27.685-23.45-67.953,16.412-40.045,40.05
			c11.629,9.849,23.41,19.504,35.287,29.036c-91.454,1.909-222.56-2.158-314.029-2.333C-9.129,105.101-9.124,161.738,27.399,161.809
			z"/>
		<path d="M416.994,275.083c-91.475,0.178-222.578,4.24-314.032,2.336c11.878-9.531,23.661-19.189,35.287-29.036
			c27.909-23.643-12.365-63.502-40.045-40.05c-26.144,22.14-52.818,43.533-80.644,63.535c-3.156,2.271-5.616,4.881-7.508,7.679
			c-11.019,9.866-15.173,26.821-1.051,39.628c29.935,27.162,59.123,55.081,86.369,84.955c24.659,27.04,64.597-13.127,40.045-40.045
			c-9.308-10.217-18.913-20.124-28.629-29.93c90.18,1.722,220.003-2.265,310.203-2.438
			C453.516,331.652,453.521,275.012,416.994,275.083z"/>
	</g>
</g>
<g>
</g>
<g>
</g>
<g>
</g>
<g>
</g>
<g>
</g>
<g>
</g>
<g>
</g>
<g>
</g>
<g>
</g>
<g>
</g>
<g>
</g>
<g>
</g>
<g>
</g>
<g>
</g>
<g>
</g>
</svg>
