<?xml version="1.0" encoding="iso-8859-1"?>
<!-- Generator: Adobe Illustrator 16.0.0, SVG Export Plug-In . SVG Version: 6.00 Build 0)  -->
<!DOCTYPE svg PUBLIC "-//W3C//DTD SVG 1.1//EN" "http://www.w3.org/Graphics/SVG/1.1/DTD/svg11.dtd">
<svg version="1.1" id="Capa_1" xmlns="http://www.w3.org/2000/svg" xmlns:xlink="http://www.w3.org/1999/xlink" x="0px" y="0px"
	 width="428.694px" height="428.694px" viewBox="0 0 428.694 428.694" style="enable-background:new 0 0 428.694 428.694;"
	 xml:space="preserve">
<g>
	<g>
		<path d="M224.146,267.406c-21.871-21.871-43.663-43.812-64.645-66.544c-5.657-6.137-12.951-4.877-17.725-0.546
			c-0.759,0.426-1.508,0.899-2.237,1.498c-17.207,14.152-56.018,52.384-71.81,68.06c-7.632-6.941-14.99-14.183-22.303-21.484
			c-2.843-2.844-6.045-3.946-9.14-3.9c-8.092-3.854-19.896-0.071-19.51,11.507c1.752,53.232,0.962,106.46,0,159.702
			c-0.198,10.938,10.4,14.96,18.35,12.111c47.791-4.672,95.595-9.207,143.387-13.879c7.612-0.746,11.844-6.484,12.708-12.477
			c2.516-4.59,2.559-10.42-2.252-15.229c-9.951-9.958-19.842-19.956-29.102-30.559c13.119-13.939,49.721-50.028,65.209-61.363
			c7.738-5.661,7.038-15.487,2.478-21.271C226.976,271.097,225.919,269.178,224.146,267.406z M131.938,346.302
			c-6.833,7.53-3.047,17.199,3.583,21.287c0.536,1.168,1.186,2.32,2.123,3.428c5.35,6.321,10.966,12.4,16.696,18.361
			c-36.805,3.575-73.615,7.104-110.416,10.689c0.64-38.436,1.036-76.86,0.375-115.285c4.405,4.123,8.876,8.181,13.495,12.091
			c3.796,3.204,8.074,3.854,11.943,2.96c3.333,0.265,6.837-0.833,9.92-3.915c15.147-15.138,53.237-52.907,69.388-66.943
			c16.458,17.504,33.342,34.597,50.308,51.603C183.328,293.638,145.916,330.89,131.938,346.302z"/>
		<path d="M393.654,0.85c-47.824,4.336-95.653,8.533-143.478,12.875c-7.612,0.69-11.893,6.401-12.792,12.385
			c-2.549,4.576-2.63,10.4,2.144,15.242c9.882,10.024,19.707,20.096,28.889,30.762c-13.219,13.845-50.067,49.678-65.636,60.905
			c-7.779,5.611-7.14,15.432-2.62,21.251c0.566,1.945,1.607,3.875,3.369,5.657c21.714,22.028,43.355,44.11,64.176,66.991
			c5.616,6.17,12.913,4.972,17.722,0.671c0.757-0.422,1.514-0.889,2.244-1.482c17.307-14.033,56.387-51.994,72.285-67.561
			c7.582,6.998,14.889,14.282,22.146,21.635c2.823,2.861,6.022,3.994,9.114,3.969c8.064,3.91,19.896,0.203,19.592-11.372
			c-1.377-53.243-0.219-106.468,1.111-159.697C412.199,2.15,401.627-1.943,393.654,0.85z M383.494,143.808
			c-4.378-4.154-8.815-8.247-13.411-12.183c-3.773-3.234-8.044-3.91-11.923-3.047c-3.326-0.292-6.841,0.785-9.948,3.85
			c-15.249,15.03-53.604,52.531-69.853,66.453c-16.336-17.618-33.104-34.822-49.952-51.953
			c16.117-12.937,53.791-49.929,67.872-65.247c6.891-7.487,3.164-17.181-3.438-21.314c-0.528-1.168-1.163-2.329-2.098-3.443
			c-5.307-6.357-10.877-12.474-16.569-18.479c36.831-3.313,73.661-6.589,110.487-9.917
			C383.768,66.95,383.098,105.377,383.494,143.808z"/>
	</g>
</g>
<g>
</g>
<g>
</g>
<g>
</g>
<g>
</g>
<g>
</g>
<g>
</g>
<g>
</g>
<g>
</g>
<g>
</g>
<g>
</g>
<g>
</g>
<g>
</g>
<g>
</g>
<g>
</g>
<g>
</g>
</svg>
