<?xml version="1.0" encoding="iso-8859-1"?>
<!-- Generator: Adobe Illustrator 16.0.0, SVG Export Plug-In . SVG Version: 6.00 Build 0)  -->
<!DOCTYPE svg PUBLIC "-//W3C//DTD SVG 1.1//EN" "http://www.w3.org/Graphics/SVG/1.1/DTD/svg11.dtd">
<svg version="1.1" id="Capa_1" xmlns="http://www.w3.org/2000/svg" xmlns:xlink="http://www.w3.org/1999/xlink" x="0px" y="0px"
	 width="481.172px" height="481.171px" viewBox="0 0 481.172 481.171" style="enable-background:new 0 0 481.172 481.171;"
	 xml:space="preserve">
<g>
	<g>
		<path d="M218.918,101.812c-96.52,4.677-186.707,59.737-218,153.542c-0.863,2.575-0.968,4.911-0.597,7.019
			c-0.734,3.168-0.282,6.728,2.095,10.358c106,162.419,358.221,123.948,473.1-8.871c0.808-0.939,1.468-1.904,2.011-2.89
			c3.626-4.22,5.118-10.263,1.798-16.584C428.585,147.987,325.898,96.638,218.918,101.812z M30.39,261.047
			c23.775-68.293,83.411-109.349,150.984-124.039c-42.274,16.854-76.048,53.105-80.92,101.046
			c-4.124,40.619,13.952,78.414,43.419,103.312C99.144,328.94,59.094,303.23,30.39,261.047z M223.056,343.494
			c-53.408,3.107-97.591-48.464-95.572-99.406c1.663-42.066,35.02-72.839,73.067-84.554c12.522-0.939,25.006-0.883,37.534,0.27
			c1.196,0.111,2.293,0.066,3.332-0.071c45.174,12.4,80.922,51.912,73.874,102.601C309.049,307.166,266.912,340.94,223.056,343.494z
			 M304.875,336.268c20.038-19.475,34.089-45.204,37.872-72.382c9.236-66.415-40.726-118.637-100.945-132.367
			c-0.125-0.173-0.233-0.355-0.363-0.519c84.495,1.433,163.534,45.25,206.732,118.8
			C411.441,289.231,360.078,319.627,304.875,336.268z"/>
		<path d="M280.653,239.425c-5.113-14.817-12.888-27.812-26.599-36.059c-3.219-1.935-6.646-3.311-10.189-4.291
			c-4.367-1.808-8.901-2.925-13.49-3.479c0.381,0.609,0.782,1.193,1.115,1.848c3.687,7.323,4.425,14.727,3.23,22.739
			c-0.896,5.972-4.162,12.721-8.856,16.646c-6.995,5.84-15.663,8.227-24.62,5.678c-9.288-2.646-17.078-9.176-23.379-16.26
			c-1.399-1.574-2.409-3.362-3.064-5.235c-12.535,14.995-15.01,35.19-0.305,53.593c17.763,22.216,51.338,29.655,77.401,19.51
			c0.392-0.152,0.701-0.371,1.071-0.544c2.59-0.472,4.992-1.589,6.906-3.412c1.28-0.776,2.539-1.69,3.728-2.94
			c10.055-10.485,18.59-23.363,17.783-38.501c-0.011-0.254-0.082-0.482-0.102-0.736
			C281.816,245.428,281.745,242.584,280.653,239.425z"/>
	</g>
</g>
<g>
</g>
<g>
</g>
<g>
</g>
<g>
</g>
<g>
</g>
<g>
</g>
<g>
</g>
<g>
</g>
<g>
</g>
<g>
</g>
<g>
</g>
<g>
</g>
<g>
</g>
<g>
</g>
<g>
</g>
</svg>
