<?xml version="1.0" encoding="iso-8859-1"?>
<!-- Generator: Adobe Illustrator 16.0.0, SVG Export Plug-In . SVG Version: 6.00 Build 0)  -->
<!DOCTYPE svg PUBLIC "-//W3C//DTD SVG 1.1//EN" "http://www.w3.org/Graphics/SVG/1.1/DTD/svg11.dtd">
<svg version="1.1" id="Capa_1" xmlns="http://www.w3.org/2000/svg" xmlns:xlink="http://www.w3.org/1999/xlink" x="0px" y="0px"
	 width="489.97px" height="489.97px" viewBox="0 0 489.97 489.97" style="enable-background:new 0 0 489.97 489.97;"
	 xml:space="preserve">
<g>
	<g>
		<path d="M459.364,25.383L440.722,9.352c-6.108-5.258-13.578-8.434-21.586-9.183c-12.467-1.171-24.786,3.795-32.946,13.286
			L306.922,105.6l-2.62-2.089c-4.768-3.796-9.541-7.592-14.284-11.431c-4.007-3.237-8.846-3.722-13.076-1.356
			c-2.361,0.307-4.641,1.201-6.631,2.621c-9.456,6.733-16.234,16.557-19.073,27.654c-1.343,5.256-0.152,10.341,2.996,13.414
			l0.437,0.589c2.555,2.907,5.159,5.75,7.784,8.579C205.447,220.949,133.403,286.8,63.723,350.498l-18.74,17.144
			c-0.645,0.589-1.231,1.254-1.788,2.011c-3.026,2.006-4.925,5.037-5.522,8.805c-2.933,18.769-4.837,37.729-6.51,55.594
			c-0.921,1.041-1.711,2.199-2.356,3.459c-0.942,1.828-1.996,3.707-3.067,5.626c-6.583,11.766-14.774,26.416-1.348,38.918
			c0.63,0.584,1.234,1.219,1.841,1.854c2.57,2.676,5.487,5.707,10.176,5.966c1.026,0.057,2.097,0.097,3.199,0.097
			c3.316,0,6.926-0.365,10.488-1.762c3.888-1.523,6.764-4.007,9.547-6.398c1.554-1.341,3.037-2.62,4.877-3.869
			c20.528,0.335,42.106-1.082,65.98-4.276c2.671-0.36,5.002-1.416,6.79-3.071c2.569-0.625,4.877-1.986,6.723-3.972
			c41.959-45.123,80.587-94.268,117.954-141.792c28.259-35.952,57.468-73.107,87.91-108.257c5.337,3.306,9.963,6.03,14.416,8.5
			c1.122,0.625,2.341,1.076,3.717,1.379c3.662,1.607,7.48,1.487,10.522-0.328c12.72-7.586,21.556-16.904,27.822-29.338
			c2.655-5.269,0.197-10.996-3.296-14.269c-0.833-1.424-1.976-2.699-3.397-3.801l-12.624-9.943l76.429-88.849
			C477.37,63.752,475.532,39.287,459.364,25.383z M277.41,263.741l-17.656-17.661c-9.491-9.491-24.202,5.215-14.706,14.705
			c6.068,6.068,12.132,12.132,18.199,18.2c0.396,0.396,0.808,0.681,1.209,0.995c-7.84,9.902-15.622,19.783-23.318,29.569
			c-7.874,10.009-15.813,20.093-23.816,30.198c-7.071-4.758-13.853-9.663-19.967-15.671c-9.572-9.399-24.288,5.302-14.706,14.706
			c6.629,6.51,14.061,12.02,21.711,17.24c-12.438,15.533-25.08,31.026-37.981,46.321c-0.083-0.092-0.134-0.184-0.223-0.27
			c-7.457-7.322-15.942-13.477-23.399-20.8c-9.572-9.398-24.288,5.302-14.706,14.706c7.457,7.322,15.942,13.478,23.399,20.8
			c0.5,0.487,1.016,0.873,1.534,1.233c-8.843,10.207-17.798,20.308-26.923,30.188c-23.973,3.21-44,4.489-63.086,3.981
			c-1.856-0.035-3.727,0.279-5.423,0.97c-1.503,0.193-2.854,0.65-4.019,1.382c-2.501,1.563-5.708,3.655-8.866,6.321
			c1.092-2.452,2.628-4.818,4.245-7.312c1.32-2.047,2.687-4.149,3.811-6.343c0.374-0.731,0.645-1.503,0.825-2.387
			c1.846-1.976,2.965-4.52,3.245-7.434c1.78-18.916,3.448-34.855,5.789-50.882l17.402-15.919
			C150.161,306.416,222.7,240.09,280.665,162.367c15.173,14.736,31.153,28.132,47.57,39.867
			C310.894,222.307,294,243.002,277.41,263.741z M377.603,194.244c-1.69,1.97-3.601,3.795-5.708,5.458
			c-33.936-19.827-65.435-45.757-93.647-77.104c0.858-1.612,1.868-3.082,3.047-4.446
			C311.483,142.504,343.038,167.432,377.603,194.244z M443.926,63.107l-74.824,86.979l-38.186-32.847l74.813-86.978
			c4.464-5.185,12.943-5.87,18.179-1.369l18.642,16.037C447.938,49.562,448.552,57.72,443.926,63.107z"/>
	</g>
</g>
<g>
</g>
<g>
</g>
<g>
</g>
<g>
</g>
<g>
</g>
<g>
</g>
<g>
</g>
<g>
</g>
<g>
</g>
<g>
</g>
<g>
</g>
<g>
</g>
<g>
</g>
<g>
</g>
<g>
</g>
</svg>
