<?xml version="1.0" encoding="iso-8859-1"?>
<!-- Generator: Adobe Illustrator 16.0.0, SVG Export Plug-In . SVG Version: 6.00 Build 0)  -->
<!DOCTYPE svg PUBLIC "-//W3C//DTD SVG 1.1//EN" "http://www.w3.org/Graphics/SVG/1.1/DTD/svg11.dtd">
<svg version="1.1" id="Capa_1" xmlns="http://www.w3.org/2000/svg" xmlns:xlink="http://www.w3.org/1999/xlink" x="0px" y="0px"
	 width="465.981px" height="465.981px" viewBox="0 0 465.981 465.981" style="enable-background:new 0 0 465.981 465.981;"
	 xml:space="preserve">
<g>
	<g>
		<path d="M445.911,19.65c3.529-7.487-0.127-18.756-11.024-19.025C313.274-2.437,155.918,6.993,34.311,2.332
			c-3.839-0.147-6.739,1.157-8.788,3.201c-4.162,1.696-7.406,5.429-7.406,11.283C18.061,161.44,11.95,309.564,32.208,453.19
			c0.65,4.595,3.11,7.286,6.216,8.49c2.054,2.574,5.21,4.326,9.526,4.301c23.306-0.122,56.802-1.579,80.113-1.706
			c4.981-0.025,8.43-2.396,10.4-5.662c3.359-1.95,5.794-5.448,5.794-10.531V303.197c0-0.641-0.104-1.209-0.178-1.803
			c0.079-0.539,0.178-1.082,0.178-1.61c0-7.667-5.878-11.867-12.781-12.786c-9.46-1.26-24.06-1.584-33.571-1.671
			c-0.515-3.017-1.092-11.131-1.627-14.142c8.684-2.113,22.691-2.854,31.786-2.936c1.458-0.01,2.729-0.279,3.925-0.655
			c6.718,0.417,13.251-3.569,12.269-12.131c-4.743-41.188-4.877-77.195-1.76-118.51c17.146-41.251,62.294-55.919,104.033-50.684
			v20.068c-74.882,2.77-89.243,76.256-72.839,140.594c0.412,1.61,1.077,2.936,1.856,4.099c0.906,5.504,4.961,10.399,12.174,10.399
			h31.537v20.499c-10.43,5.394-21.424,3.875-33.232,5.525c-0.14,0.021-0.254,0.086-0.389,0.111
			c-6.647-0.324-13.152,3.707-12.403,12.218c3.189,36.308,5.081,108.491,6.817,144.896c0.302,6.332,4.301,10.206,9.044,11.658
			c1.554,0.717,3.364,1.128,5.443,1.128c82.393,0.061,154.582,1.523,236.941-1.706c4.778-0.188,8.125-2.514,10.136-5.657
			c3.412-1.95,5.94-5.459,6.053-10.542c3.209-139.781-1.585-279.55-1.701-419.332C445.977,20.026,445.921,19.854,445.911,19.65z
			 M422.258,430.486c-75.784,2.656-141.371,1.584-217.185,1.432c-1.424-35.383-3.052-92.18-5.383-121.008
			c13.713-2.813,26.812-3.057,38.806-10.313c4.103-2.483,5.87-6.124,6.037-9.82c0.193-0.909,0.295-1.884,0.295-2.925v-39.207
			c0-8.282-6.454-12.396-12.873-12.36c-1.028-0.254-2.115-0.427-3.321-0.427h-31.321c-11.517-49.599-5.012-106.449,58.595-103.984
			c6.489,0.251,10.374-3.567,11.756-8.308c2.63-2.054,4.438-5.228,4.438-9.59V74.769c0-8.325-6.515-12.433-12.969-12.35
			c-59.25-10.024-118.355,10.791-141.693,68.614c-1.102,2.729-1.191,5.162-0.602,7.262c-2.709,36.706-2.813,68.156,0.591,104.748
			c-11.501,0.716-28.117,2.61-38.791,6.906c-6,2.412-10.217,7.632-9.194,14.203c-0.01,1.066,0.046,2.143,0.259,3.225
			c1.899,9.628,3.501,24.42,5.113,34.094c1.003,6.017,7.559,9.643,13.327,9.317c0.239,0.011,0.452,0.066,0.706,0.066
			c8.251,0,21.606,0.065,29.828,0.554v127.457c-17.469,0.32-45.151,1.106-62.617,1.401C37.69,304.73,43.273,164.715,43.639,28.179
			c115.519,3.728,263.06-4.237,376.791-2.262C420.668,160.78,425.025,295.631,422.258,430.486z"/>
	</g>
</g>
<g>
</g>
<g>
</g>
<g>
</g>
<g>
</g>
<g>
</g>
<g>
</g>
<g>
</g>
<g>
</g>
<g>
</g>
<g>
</g>
<g>
</g>
<g>
</g>
<g>
</g>
<g>
</g>
<g>
</g>
</svg>
