<?xml version="1.0" encoding="iso-8859-1"?>
<!-- Generator: Adobe Illustrator 16.0.0, SVG Export Plug-In . SVG Version: 6.00 Build 0)  -->
<!DOCTYPE svg PUBLIC "-//W3C//DTD SVG 1.1//EN" "http://www.w3.org/Graphics/SVG/1.1/DTD/svg11.dtd">
<svg version="1.1" id="Capa_1" xmlns="http://www.w3.org/2000/svg" xmlns:xlink="http://www.w3.org/1999/xlink" x="0px" y="0px"
	 width="493.24px" height="493.24px" viewBox="0 0 493.24 493.24" style="enable-background:new 0 0 493.24 493.24;"
	 xml:space="preserve">
<g>
	<g>
		<path d="M441.926,103.935c-42.26-69.32-116.144-90.677-192.813-76.139C163.122-7.557,81.032,19.382,35.086,100.675
			c-21.31,37.704-31.034,81.431-33.804,124.299c-4.509,69.73,3.867,143.453,9.775,212.96c0.198,2.321,1.008,4.23,2.153,5.784
			c0.269,4.052,2.63,7.896,7.7,9.318c60.854,17.103,122.057,21.997,183.762,6.545c1.432-0.173,2.866-0.594,4.222-1.265
			c1.333-0.66,2.689-1.264,4.037-1.884c-0.183,3.499-0.47,6.998-0.962,10.491c-1.955,13.792,19.119,19.738,21.094,5.814
			c2.361-16.646,2.143-32.788-0.338-49.17c20.723,3.006,41.896,3.691,61.802,3.423c2.59-0.036,4.691-0.812,6.327-2.037
			c2.812-0.132,5.529-0.406,8.211-0.746c2.382,15.65,9.774,29.438,20.57,41.508c9.425,10.536,24.842-4.987,15.473-15.473
			c-8.068-9.014-13.527-19.408-14.736-31.321c18.479-7.114,32.987-19.987,44.123-36.439c42.868,6.713,84.452-5.012,115.539-36.171
			c3.311-3.315,3.783-7.216,2.62-10.603c0.34-1.066,0.579-2.204,0.584-3.509C493.345,254.426,483.144,171.538,441.926,103.935z
			 M297.264,403.297c-2.442,0.03-4.423,0.741-6.018,1.844c-52.31,0.482-112.545-4.875-144.854-51.491
			c-27.673-39.928-30.024-54.258-32.55-95.501c90.109-2.702,185.473-24.436,261.912-71.58c0.066,0.584,0.127,1.173,0.29,1.788
			C393.036,252.146,390.084,402.104,297.264,403.297z M385.906,362.104c23.227-50.729,23.846-121.211,13.73-168.904
			c5.779,3.58,11.689,6.942,17.89,9.897c12.665,6.033,23.771-12.822,11.04-18.89c-13.137-6.256-25.491-13.974-36.983-22.902
			c-1.132-0.878-2.355-1.594-3.615-2.122c-2.904-1.874-6.672-2.194-10.547,0.411c-77.754,52.395-178.465,75.256-272.449,76.886
			c-2.376-0.66-4.931-0.64-7.19,0.102c-5.535,0.03-11.055,0.021-16.537-0.086c-14.117-0.29-14.086,21.586,0,21.875
			c3.567,0.071,7.17,0.041,10.758,0.057c3.075,47.605,6.787,64.82,38.055,109.948c19.416,28.01,48.322,42.97,79.935,50.779
			c0.038,0.533,0.048,1.066,0.158,1.63c0.82,4.124,1.455,8.272,1.95,12.426c-3.859,1.585-7.716,3.179-11.491,4.951
			c-0.348,0.056-0.683,0.066-1.046,0.152c-56.3,14.239-111.51,10.044-166.951-4.799c-4.733-57.269-6.838-114.686-9.255-172.098
			c-1.79-42.477,3.425-83.339,18.319-123.303c13.977-37.521,39.014-71.442,74.083-91.378c40.291-22.906,87.872-14.38,128.47,2.514
			c2.867,1.188,5.342,1.041,7.376,0.112c0.394-0.041,0.769-0.036,1.173-0.112c74.341-14.736,137.903,9.151,176.125,75.637
			c35.257,61.327,42.554,137.979,42.457,207.313c0,0.538,0.092,1.025,0.152,1.528C447.949,355.676,417.592,365.359,385.906,362.104z
			"/>
		<path d="M193.354,282.07c-0.714-5.916-4.441-10.938-10.94-10.938c-5.423,0-11.649,5.001-10.94,10.938
			c1.043,8.724,2.823,17.189,4.951,25.694c3.415,13.681,24.511,7.871,21.094-5.814C195.88,295.396,194.154,288.788,193.354,282.07z"
			/>
		<path d="M326.956,284.63c-1.59-6.561-2.509-13.183-3.255-19.881c-0.665-5.921-4.474-10.933-10.943-10.933
			c-5.459,0-11.603,5.002-10.938,10.933c0.965,8.623,1.995,17.256,4.031,25.695C309.167,304.154,330.261,298.34,326.956,284.63z"/>
		<path d="M237.052,324.324c12.061,7.851,26.977,8.963,40.332,3.839c5.561-2.133,9.333-7.281,7.638-13.457
			c-1.458-5.326-7.882-9.774-13.452-7.637c-8.328,3.189-15.858,3.326-23.478-1.635C236.232,297.716,225.282,316.667,237.052,324.324
			z"/>
		<path d="M314.144,340.873c-24.212,20.77-56.944,19.124-84.277,5.576c-12.593-6.236-23.686,12.629-11.04,18.895
			c36.741,18.205,78.676,18.54,110.783-9.003C340.336,347.145,324.788,331.743,314.144,340.873z"/>
	</g>
</g>
<g>
</g>
<g>
</g>
<g>
</g>
<g>
</g>
<g>
</g>
<g>
</g>
<g>
</g>
<g>
</g>
<g>
</g>
<g>
</g>
<g>
</g>
<g>
</g>
<g>
</g>
<g>
</g>
<g>
</g>
</svg>
