<?xml version="1.0" encoding="iso-8859-1"?>
<!-- Generator: Adobe Illustrator 16.0.0, SVG Export Plug-In . SVG Version: 6.00 Build 0)  -->
<!DOCTYPE svg PUBLIC "-//W3C//DTD SVG 1.1//EN" "http://www.w3.org/Graphics/SVG/1.1/DTD/svg11.dtd">
<svg version="1.1" id="Capa_1" xmlns="http://www.w3.org/2000/svg" xmlns:xlink="http://www.w3.org/1999/xlink" x="0px" y="0px"
	 width="446.296px" height="446.297px" viewBox="0 0 446.296 446.297" style="enable-background:new 0 0 446.296 446.297;"
	 xml:space="preserve">
<g>
	<g>
		<path d="M381.902,113.195c-0.939-28.551-1.467-67.126-1.183-95.697c0.015-1.274-0.188-2.396-0.482-3.453
			c0.559-6.226-3.098-12.796-11.075-12.588C268.526,4.098,167.906,0.157,67.268,0c-8.371-0.016-12.037,7.343-11.009,13.802
			c-0.333,1.122-0.566,2.328-0.551,3.702c1.519,120.089,5.647,292.639,5.779,412.749c0,2.696,0.764,4.88,1.985,6.616
			c0.744,5.088,4.4,9.587,11.02,9.425c43.5-1.082,87.014-1.777,130.479-3.91c38.74-1.899,87.016,0.645,124.05-11.994
			c13.106-4.479,24.831-11.101,34.891-20.683c18.377-17.519,24.653-41.035,26.233-65.815c1.518-23.806-1.285-48.774-1.844-70.706
			C386.874,216.532,383.771,169.838,381.902,113.195z M318.224,327.397c-7.084,0.04-13.924,5.57-10.76,14.065
			c6.367,17.088,9.277,38.304-0.514,54.649c-11.836,19.764-32.955,19.226-53.039,21.759c-12.278,1.549-25.339,0.727-37.714,1.077
			c-9.631,0.269-131.629,3.244-131.629,3.722c-0.287-115.605-4.108-283.668-5.652-399.266c92.915,0.401,185.805,3.593,278.717,1.607
			c-0.355,94.913,8.059,232.117,8.557,307.128c-14.411-4.55-29.311-6.469-44.691-5.438
			C320.301,326.777,319.235,327.052,318.224,327.397z M327.304,406.416c9.328-15.899,11.658-35.409,6.804-56.559
			c11.237,0.437,22.318,2.604,32.814,7.053c0.04,0.127,0.076,0.264,0.116,0.396C363.642,382.366,347.783,397.742,327.304,406.416z"
			/>
		<path d="M116.339,157.201c-13.233,1.566-14.394,14.919-13.79,25.725c0.869,15.542,1.247,31.167,2.433,46.7
			c0.203,2.61,1.071,4.763,2.303,6.54c1.234,5.018,5.165,9.212,11.898,9.08c17.003-0.336,34.269-7.333,44.323-21.399
			c10.968-15.338,9.1-39.938-2.849-54.723C150.445,156.49,131.055,155.459,116.339,157.201z M129.844,217.906
			c-0.569-11.923-0.66-23.864-0.688-35.807C152.555,183.216,148.104,211.833,129.844,217.906z"/>
		<path d="M254.724,169.556c-24.893-26.301-74.458-5.484-76.616,29.719c-2.06,33.479,48.316,53.761,71.396,31.144
			c7.362-7.208,15.37-23.239,15.833-33.578c0.051-0.274,0.04-0.566,0.065-0.848c0-0.155,0.03-0.294,0.03-0.452
			c0-0.099-0.02-0.175-0.02-0.27c0-0.386,0.07-0.759,0.02-1.15C264.291,184.658,261.381,176.586,254.724,169.556z M203.67,199.274
			c-0.924-15.102,34.362-22.901,36.429-3.755c0.021,0.145,0.031,0.297,0.046,0.447C241.897,218.096,204.96,220.354,203.67,199.274z"
			/>
		<path d="M339.283,223.948c0-6.583-5.824-13.286-12.781-12.783c-10.471,0.759-21.993-3.456-22.663-15.146
			c-0.746-12.943,12.055-19.979,23.531-17.971c6.855,1.201,13.746-1.737,15.722-8.93c1.716-6.223-2.057-14.518-8.922-15.719
			c-18.824-3.296-39.862,2.641-50.268,19.316c-19.25,30.846,8.871,66.461,42.604,64.008
			C333.448,236.217,339.283,231.291,339.283,223.948z"/>
	</g>
</g>
<g>
</g>
<g>
</g>
<g>
</g>
<g>
</g>
<g>
</g>
<g>
</g>
<g>
</g>
<g>
</g>
<g>
</g>
<g>
</g>
<g>
</g>
<g>
</g>
<g>
</g>
<g>
</g>
<g>
</g>
</svg>
