<?xml version="1.0" encoding="iso-8859-1"?>
<!-- Generator: Adobe Illustrator 16.0.0, SVG Export Plug-In . SVG Version: 6.00 Build 0)  -->
<!DOCTYPE svg PUBLIC "-//W3C//DTD SVG 1.1//EN" "http://www.w3.org/Graphics/SVG/1.1/DTD/svg11.dtd">
<svg version="1.1" id="Capa_1" xmlns="http://www.w3.org/2000/svg" xmlns:xlink="http://www.w3.org/1999/xlink" x="0px" y="0px"
	 width="446.296px" height="446.297px" viewBox="0 0 446.296 446.297" style="enable-background:new 0 0 446.296 446.297;"
	 xml:space="preserve">
<g>
	<g>
		<path d="M381.902,113.195c-0.944-28.551-1.467-67.126-1.188-95.697c0.01-1.274-0.193-2.396-0.482-3.453
			c0.553-6.226-3.098-12.796-11.07-12.588C268.521,4.098,167.903,0.157,67.266,0c-8.371-0.016-12.038,7.343-11.006,13.802
			c-0.333,1.122-0.566,2.328-0.551,3.702c1.519,120.089,5.647,292.639,5.776,412.749c0,2.696,0.764,4.88,1.985,6.616
			c0.739,5.088,4.4,9.587,11.019,9.425c43.498-1.082,87.014-1.777,130.479-3.91c38.743-1.899,87.018,0.645,124.047-11.994
			c13.106-4.479,24.836-11.101,34.891-20.683c18.377-17.519,24.648-41.035,26.238-65.815c1.518-23.806-1.285-48.774-1.844-70.706
			C386.869,216.532,383.76,169.838,381.902,113.195z M318.224,327.397c-7.084,0.04-13.929,5.57-10.766,14.065
			c6.368,17.088,9.278,38.304-0.508,54.649c-11.836,19.764-32.955,19.226-53.039,21.759c-12.278,1.549-25.334,0.727-37.717,1.077
			c-9.635,0.269-131.628,3.244-131.628,3.722c-0.287-115.605-4.108-283.668-5.652-399.266c92.917,0.401,185.808,3.593,278.725,1.607
			c-0.355,94.913,8.06,232.117,8.557,307.128c-14.411-4.55-29.31-6.469-44.691-5.438
			C320.291,326.777,319.219,327.052,318.224,327.397z M327.298,406.416c9.334-15.899,11.659-35.409,6.81-56.559
			c11.237,0.437,22.318,2.604,32.804,7.053c0.051,0.127,0.082,0.264,0.127,0.396C363.631,382.366,347.783,397.742,327.298,406.416z"
			/>
		<path d="M130.06,144.717c-5.924-0.625-9.443,2.664-10.669,6.941c-1.17,1.717-1.904,3.859-1.899,6.49
			c0.114,35.317,1.249,70.553-2.6,105.729c-1.643,14.99,21.777,14.832,23.399,0c1.673-15.28,2.376-30.574,2.663-45.88
			c18.745-0.571,37.338-8.744,36.29-31.344C176.099,162.002,152.327,147.068,130.06,144.717z M152.596,192.3
			c-3.166,2.435-7.328,3.095-11.471,3.027c-0.02-7.97-0.089-15.948-0.149-23.925c6.332,3.255,11.339,8.653,12.921,15.684
			C154.229,188.562,153.5,191.604,152.596,192.3z"/>
		<path d="M205.968,143.401c-7.198-1.929-12.334,2.59-13.961,8.128c-2.098,1.881-3.484,4.659-3.448,8.355
			c0.317,31.854,4.06,63.51,5.2,95.329c0.15,4.25,2.158,7.256,4.898,9.109c2.539,3.164,6.568,5.104,11.644,3.905
			C275.508,252.797,265.606,159.385,205.968,143.401z M216.457,240.503c-1.3-22.942-3.458-45.832-4.235-68.799
			C235.473,187.542,240.283,225.238,216.457,240.503z"/>
		<path d="M308.586,144.717c-9.222,0.848-18.479,0.863-27.731,0.868c-5.799,0-9.343,3.463-10.684,7.716
			c-0.771,1.582-1.198,3.458-1.016,5.72c2.605,32.38,4.773,64.633,1.731,97.065c-1.406,15.026,22.003,14.894,23.399,0
			c1.152-12.283,1.523-24.531,1.442-36.785c0.624-0.145,1.229-0.358,1.854-0.482c0.36-0.074,0.563-0.12,0.757-0.16
			c0.178-0.018,0.31-0.028,0.594-0.059c1.482-0.163,2.966-0.193,4.453-0.213c6.378-0.079,11.7-5.261,11.7-11.7
			c0-6.317-5.317-11.778-11.7-11.7c-2.793,0.031-5.58,0.282-8.348,0.675c-0.442-8.917-1.031-17.839-1.712-26.769
			c5.089-0.099,10.182-0.302,15.26-0.769c6.353-0.582,11.699-4.882,11.699-11.7C320.286,150.478,314.954,144.13,308.586,144.717z"/>
	</g>
</g>
<g>
</g>
<g>
</g>
<g>
</g>
<g>
</g>
<g>
</g>
<g>
</g>
<g>
</g>
<g>
</g>
<g>
</g>
<g>
</g>
<g>
</g>
<g>
</g>
<g>
</g>
<g>
</g>
<g>
</g>
</svg>
