<?xml version="1.0" encoding="iso-8859-1"?>
<!-- Generator: Adobe Illustrator 16.0.0, SVG Export Plug-In . SVG Version: 6.00 Build 0)  -->
<!DOCTYPE svg PUBLIC "-//W3C//DTD SVG 1.1//EN" "http://www.w3.org/Graphics/SVG/1.1/DTD/svg11.dtd">
<svg version="1.1" id="Capa_1" xmlns="http://www.w3.org/2000/svg" xmlns:xlink="http://www.w3.org/1999/xlink" x="0px" y="0px"
	 width="446.296px" height="446.297px" viewBox="0 0 446.296 446.297" style="enable-background:new 0 0 446.296 446.297;"
	 xml:space="preserve">
<g>
	<g>
		<path d="M381.902,113.195c-0.944-28.551-1.467-67.126-1.188-95.697c0.01-1.274-0.193-2.396-0.482-3.453
			c0.553-6.226-3.098-12.796-11.07-12.588C268.521,4.098,167.903,0.157,67.266,0c-8.371-0.016-12.038,7.343-11.006,13.802
			c-0.333,1.122-0.566,2.328-0.551,3.702c1.519,120.089,5.647,292.639,5.776,412.749c0,2.696,0.764,4.88,1.985,6.616
			c0.739,5.088,4.4,9.587,11.019,9.425c43.498-1.082,87.014-1.777,130.479-3.91c38.743-1.899,87.018,0.645,124.047-11.994
			c13.106-4.479,24.836-11.101,34.891-20.683c18.377-17.519,24.648-41.035,26.238-65.815c1.518-23.806-1.285-48.774-1.844-70.706
			C386.869,216.532,383.76,169.838,381.902,113.195z M318.224,327.397c-7.084,0.04-13.929,5.57-10.766,14.065
			c6.368,17.088,9.278,38.304-0.508,54.649c-11.836,19.764-32.955,19.226-53.039,21.759c-12.278,1.549-25.334,0.727-37.717,1.077
			c-9.635,0.269-131.628,3.244-131.628,3.722c-0.287-115.605-4.108-283.668-5.652-399.266c92.917,0.401,185.808,3.593,278.725,1.607
			c-0.355,94.913,8.06,232.117,8.557,307.128c-14.411-4.55-29.31-6.469-44.691-5.438
			C320.291,326.777,319.219,327.052,318.224,327.397z M327.298,406.416c9.334-15.899,11.659-35.409,6.81-56.559
			c11.237,0.437,22.318,2.604,32.804,7.053c0.051,0.127,0.082,0.264,0.127,0.396C363.631,382.366,347.783,397.742,327.298,406.416z"
			/>
		<path d="M119.66,136.699c-4.311,0.442-7.348,2.75-9.168,5.73c-2.267,1.886-3.806,4.733-3.831,8.569
			c-0.219,31.329,4.723,62.051,10.171,92.806c2.625,14.843,25.172,8.536,22.562-6.216c-1.896-10.725-3.707-21.424-5.215-32.153
			c18.458-0.805,35.812-10.154,35.769-31.956C169.892,147.437,142.399,134.368,119.66,136.699z M146.294,176.203
			c-0.371,1.543-0.625,2.021-2.539,3.852c-2.151,2.059-7.409,2.663-12.271,2.43c-0.681-7.457-1.132-14.939-1.315-22.465
			c3.301,0.416,6.505,1.363,9.595,3.156c3.992,2.326,5.631,5.322,6.604,9.199c-0.109-0.084,0.175,2.128,0.175,2.288
			c0,0.282,0.01,0.421,0.015,0.599C146.497,175.434,146.414,175.698,146.294,176.203z"/>
		<path d="M262.006,135.399c0.914-15.079-22.491-14.99-23.399,0c-0.823,13.52-0.406,26.941,0.573,40.329
			c-10.369,1.086-20.743,2.178-31.123,3.219c-0.15,0.016-0.292,0.056-0.442,0.079c-2.079-13.927-4.555-27.784-7.779-41.538
			c-3.438-14.688-26-8.46-22.562,6.221c6.629,28.322,10.082,57.056,13.228,85.938c1.618,14.838,25.032,14.99,23.399,0
			c-1.003-9.204-2.039-18.398-3.166-27.574c10.196-1.031,20.396-2.097,30.592-3.168c1.208,11.103,2.579,22.203,3.778,33.342
			c1.6,14.838,25.014,14.995,23.398,0C265.038,199.96,260.031,167.961,262.006,135.399z"/>
		<path d="M337.302,160.078c-3.631-22.65-26.486-35.595-47.997-34.429c-5.606,0.302-9.12,3.76-10.547,7.924
			c-0.701,1.445-1.128,3.131-1.153,5.075c-0.406,29.389,2.017,58.555,5.2,87.748c1.625,14.827,25.04,14.99,23.399,0
			c-0.985-9.064-1.849-18.121-2.631-27.19C323.734,196.497,340.968,182.941,337.302,160.078z M301.939,175.926
			c-0.472-8.485-0.741-16.989-0.827-25.504c6.073,1.95,11.095,6.015,13.07,12.951C316.417,171.231,309.496,174.799,301.939,175.926z
			"/>
	</g>
</g>
<g>
</g>
<g>
</g>
<g>
</g>
<g>
</g>
<g>
</g>
<g>
</g>
<g>
</g>
<g>
</g>
<g>
</g>
<g>
</g>
<g>
</g>
<g>
</g>
<g>
</g>
<g>
</g>
<g>
</g>
</svg>
