<?xml version="1.0" encoding="iso-8859-1"?>
<!-- Generator: Adobe Illustrator 16.0.0, SVG Export Plug-In . SVG Version: 6.00 Build 0)  -->
<!DOCTYPE svg PUBLIC "-//W3C//DTD SVG 1.1//EN" "http://www.w3.org/Graphics/SVG/1.1/DTD/svg11.dtd">
<svg version="1.1" id="Capa_1" xmlns="http://www.w3.org/2000/svg" xmlns:xlink="http://www.w3.org/1999/xlink" x="0px" y="0px"
	 width="446.296px" height="446.297px" viewBox="0 0 446.296 446.297" style="enable-background:new 0 0 446.296 446.297;"
	 xml:space="preserve">
<g>
	<g>
		<path d="M381.907,113.195c-0.944-28.551-1.467-67.126-1.188-95.697c0.01-1.274-0.193-2.396-0.482-3.453
			c0.554-6.226-3.098-12.796-11.07-12.588C268.526,4.098,167.909,0.157,67.266,0c-8.371-0.016-12.038,7.343-11.006,13.802
			c-0.333,1.122-0.569,2.328-0.551,3.702c1.519,120.089,5.647,292.639,5.776,412.749c0,2.696,0.764,4.88,1.985,6.616
			c0.739,5.088,4.4,9.587,11.019,9.425c43.496-1.082,87.019-1.777,130.479-3.91c38.743-1.899,87.018,0.645,124.042-11.994
			c13.111-4.479,24.841-11.101,34.896-20.683c18.377-17.519,24.648-41.035,26.238-65.815c1.518-23.806-1.285-48.774-1.844-70.706
			C386.874,216.532,383.765,169.838,381.907,113.195z M318.229,327.397c-7.083,0.04-13.934,5.57-10.76,14.065
			c6.362,17.088,9.277,38.304-0.513,54.649c-11.837,19.764-32.961,19.226-53.04,21.759c-12.278,1.549-25.334,0.727-37.716,1.077
			c-9.636,0.269-131.629,3.244-131.629,3.722c-0.287-115.605-4.108-283.668-5.652-399.266c92.917,0.401,185.809,3.593,278.72,1.607
			c-0.351,94.913,8.064,232.117,8.557,307.128c-14.411-4.55-29.31-6.469-44.696-5.438
			C320.296,326.777,319.23,327.052,318.229,327.397z M327.304,406.416c9.333-15.899,11.653-35.409,6.809-56.559
			c11.238,0.437,22.313,2.604,32.81,7.053c0.051,0.127,0.081,0.264,0.122,0.396C363.636,382.366,347.783,397.742,327.304,406.416z"
			/>
		<path d="M139.353,203.522c0.099-0.511,0.15-1.018,0.259-1.528c0.432-2.029,0.348-4.058-0.109-5.949
			c2.476-18.864,12.626-35.332,34.766-36.592c15.003-0.853,15.079-24.257,0-23.399c-38.636,2.204-59.158,33.857-58.826,69.647
			c-0.719,5.829-0.957,11.694-0.597,17.585c-0.917,15.003,1.942,29.403,12.047,41.718c12.52,15.27,34.449,16.123,52.222,12.761
			c1.221-0.233,2.252-0.64,3.191-1.112c2.148-0.843,4.108-2.462,5.527-5.133c9.158-17.164,10.91-34.846-1.404-50.76
			C175.98,207.25,156.029,203.464,139.353,203.522z M169.526,255.727c-9.587,1.3-19.119,0.203-26.098-7.267
			c-4.596-4.926-5.87-12.309-5.781-19.469c0.259-0.676,0.452-1.376,0.551-2.103c9.859-0.137,19.484,1.274,27.998,6.779
			C174.218,238.867,172.76,248.12,169.526,255.727z"/>
		<path d="M240.562,147.749c0.559-15.094-22.844-15.043-23.399,0c-1.415,38.13,0.614,76.255,0,114.397
			c-0.244,15.091,23.155,15.071,23.399,0C241.176,224.004,239.15,185.879,240.562,147.749z"/>
		<path d="M323.84,131.266c-12.913-1.826-25.639-2.143-38.648-1.285c-6.576,0.432-10.277,5.195-11.09,10.311
			c-0.31,0.967-0.538,1.988-0.609,3.125c-2.372,39.55-1.788,79.13-1.731,118.729c0.02,15.091,23.419,15.091,23.398,0
			c-0.02-15.742-0.086-31.494-0.03-47.23h12.599c15.087,0,15.087-23.399,0-23.399h-12.365c0.198-12.88,0.498-25.761,1.123-38.641
			c7.068-0.181,14.157-0.031,21.129,0.957c6.312,0.894,12.543-1.439,14.391-8.168C333.535,140.116,330.163,132.159,323.84,131.266z"
			/>
	</g>
</g>
<g>
</g>
<g>
</g>
<g>
</g>
<g>
</g>
<g>
</g>
<g>
</g>
<g>
</g>
<g>
</g>
<g>
</g>
<g>
</g>
<g>
</g>
<g>
</g>
<g>
</g>
<g>
</g>
<g>
</g>
</svg>
