<?xml version="1.0" encoding="iso-8859-1"?>
<!-- Generator: Adobe Illustrator 16.0.0, SVG Export Plug-In . SVG Version: 6.00 Build 0)  -->
<!DOCTYPE svg PUBLIC "-//W3C//DTD SVG 1.1//EN" "http://www.w3.org/Graphics/SVG/1.1/DTD/svg11.dtd">
<svg version="1.1" id="Capa_1" xmlns="http://www.w3.org/2000/svg" xmlns:xlink="http://www.w3.org/1999/xlink" x="0px" y="0px"
	 width="446.296px" height="446.297px" viewBox="0 0 446.296 446.297" style="enable-background:new 0 0 446.296 446.297;"
	 xml:space="preserve">
<g>
	<g>
		<path d="M381.902,113.195c-0.944-28.551-1.467-67.126-1.188-95.697c0.01-1.274-0.193-2.396-0.482-3.453
			c0.553-6.226-3.098-12.796-11.07-12.588C268.521,4.098,167.903,0.157,67.266,0c-8.371-0.016-12.038,7.343-11.006,13.802
			c-0.333,1.122-0.566,2.328-0.551,3.702c1.519,120.089,5.647,292.639,5.776,412.749c0,2.696,0.764,4.88,1.985,6.616
			c0.739,5.088,4.4,9.587,11.019,9.425c43.498-1.082,87.014-1.777,130.479-3.91c38.743-1.899,87.018,0.645,124.047-11.994
			c13.106-4.479,24.836-11.101,34.891-20.683c18.377-17.519,24.648-41.035,26.238-65.815c1.518-23.806-1.285-48.774-1.844-70.706
			C386.869,216.532,383.76,169.838,381.902,113.195z M318.224,327.397c-7.084,0.04-13.929,5.57-10.766,14.065
			c6.368,17.088,9.278,38.304-0.508,54.649c-11.836,19.764-32.955,19.226-53.039,21.759c-12.278,1.549-25.334,0.727-37.717,1.077
			c-9.635,0.269-131.628,3.244-131.628,3.722c-0.287-115.605-4.108-283.668-5.652-399.266c92.917,0.401,185.808,3.593,278.725,1.607
			c-0.355,94.913,8.06,232.117,8.557,307.128c-14.411-4.55-29.31-6.469-44.691-5.438
			C320.291,326.777,319.219,327.052,318.224,327.397z M327.298,406.416c9.334-15.899,11.659-35.409,6.81-56.559
			c11.237,0.437,22.318,2.604,32.804,7.053c0.051,0.127,0.082,0.264,0.127,0.396C363.631,382.366,347.783,397.742,327.298,406.416z"
			/>
		<path d="M167.327,142.98c-11.575-0.947-23.087-2.521-34.667-3.469c-1.15-0.094-2.178,0-3.156,0.173
			c-6.667-2.087-15.719,1.47-16.344,10.664c-2.445,36.086-3.344,72.168-2.6,108.328c0.03,1.569,0.363,2.93,0.843,4.174
			c1.117,4.708,4.715,8.877,10.857,9.258c12.413,0.771,24.829,0.863,37.267,0.868c15.089,0,15.089-23.399,0-23.399
			c-8.559,0-17.108-0.137-25.657-0.416c-0.134-10.847-0.083-21.684,0.063-32.515h15.188c6.38,0,11.7-5.319,11.7-11.7
			s-5.319-11.7-11.7-11.7h-14.658c0.323-10.009,0.795-20.015,1.351-30.019c10.514,0.957,20.987,2.293,31.511,3.151
			C182.375,167.611,182.256,144.201,167.327,142.98z"/>
		<path d="M214.827,141.982c-10.356-4.674-19.68,5.817-17.57,13.858c-0.482,1.211-0.831,2.531-0.899,4.044
			c-1.559,34.949-1.16,69.944-3.468,104.865c-0.998,15.066,22.412,14.975,23.399,0c0.614-9.277,1.023-18.56,1.34-27.843
			c20.881-6.042,37.42-20.588,36.76-43.711C253.734,170.112,234.661,150.93,214.827,141.982z M218.323,211.695
			c0.274-12.697,0.566-25.395,0.978-38.087C231.507,185.998,236.174,202.928,218.323,211.695z"/>
		<path d="M317.254,141.249c-17.128-2.214-37.272-3.384-48.565,12.063c-8.552,11.699-1.072,29.079,4.082,40.377
			c6.871,15.069,16.742,28.703,23.069,44.021c6.688,16.198-2.971,13.73-18.804,11.42c-14.751-2.147-21.109,20.394-6.221,22.562
			c14.945,2.179,38.161,5.561,47.662-10.054c8.028-13.193,0.985-28.899-5.032-41.345c-7.19-14.845-17.011-28.559-22.806-44.059
			c-6.926-18.527,12.903-13.363,26.619-11.591C332.189,166.578,332,143.158,317.254,141.249z"/>
	</g>
</g>
<g>
</g>
<g>
</g>
<g>
</g>
<g>
</g>
<g>
</g>
<g>
</g>
<g>
</g>
<g>
</g>
<g>
</g>
<g>
</g>
<g>
</g>
<g>
</g>
<g>
</g>
<g>
</g>
<g>
</g>
</svg>
