<?xml version="1.0" encoding="iso-8859-1"?>
<!-- Generator: Adobe Illustrator 16.0.0, SVG Export Plug-In . SVG Version: 6.00 Build 0)  -->
<!DOCTYPE svg PUBLIC "-//W3C//DTD SVG 1.1//EN" "http://www.w3.org/Graphics/SVG/1.1/DTD/svg11.dtd">
<svg version="1.1" id="Capa_1" xmlns="http://www.w3.org/2000/svg" xmlns:xlink="http://www.w3.org/1999/xlink" x="0px" y="0px"
	 width="474.754px" height="474.754px" viewBox="0 0 474.754 474.754" style="enable-background:new 0 0 474.754 474.754;"
	 xml:space="preserve">
<g>
	<g>
		<path d="M419.032,105.267c-0.873-26.55-1.361-62.423-1.097-88.989c0.01-1.186-0.183-2.232-0.447-3.214
			c0.519-5.786-2.879-11.903-10.298-11.705C313.604,3.814,220.039,0.147,126.454,0c-7.784-0.01-11.197,6.83-10.234,12.835
			c-0.312,1.046-0.525,2.163-0.51,3.443c1.414,111.672,5.253,272.131,5.373,383.827c0,2.509,0.713,4.539,1.846,6.154
			c0.686,4.732,4.088,8.917,10.245,8.765c40.449-1.006,80.92-1.655,121.338-3.636c36.023-1.763,80.918,0.599,115.352-11.161
			c12.192-4.159,23.1-10.318,32.448-19.226c17.093-16.29,22.927-38.166,24.399-61.21c1.412-22.135-1.193-45.352-1.717-65.744
			C423.653,201.36,420.764,157.94,419.032,105.267z M359.817,304.455c-6.586,0.041-12.953,5.18-10.008,13.081
			c5.921,15.89,8.632,35.617-0.478,50.82c-11.009,18.372-30.646,17.88-49.317,20.231c-11.421,1.441-23.562,0.675-35.074,0.995
			c-8.962,0.254-122.409,3.016-122.409,3.463c-0.269-107.506-3.821-263.791-5.258-371.284c86.402,0.376,172.786,3.339,259.187,1.493
			c-0.329,88.263,7.501,215.853,7.963,285.608c-13.406-4.23-27.259-6.018-41.563-5.058
			C361.742,303.882,360.747,304.131,359.817,304.455z M368.258,377.934c8.678-14.787,10.841-32.926,6.327-52.593
			c10.455,0.406,20.753,2.423,30.514,6.556c0.04,0.122,0.07,0.254,0.111,0.376C402.046,355.58,387.305,369.87,368.258,377.934z"/>
		<path d="M320.626,421.574c-7.084,0-13,5.91-13,12.999v9.202c-75.532,7.586-151.425,4.387-227.234,3.869
			c-1.872-110.964-6.228-221.877-6.685-332.861h21.589c16.77,0,16.77-26,0-26H64.097c-1.226,0-2.336,0.178-3.384,0.432
			c-6.533-0.041-13.094,4.138-13.083,12.568c0.15,118.479,5.096,236.867,6.937,355.321c0.015,1.173,0.188,2.239,0.437,3.245
			c-0.083,6.561,4.098,13.197,12.563,13.218c84.419,0.198,168.98,4.687,253.061-5.2c5.21-0.614,8.78-3.65,10.709-7.449
			c1.438-2.087,2.291-4.601,2.291-7.281v-19.068C333.626,427.484,327.71,421.574,320.626,421.574z"/>
		<path d="M344.894,144.245c16.534-1.582,16.691-27.596,0-25.999c-52.455,5.017-105.048,6.822-157.727,6.932
			c-16.765,0.035-16.77,26.035,0,25.999C239.846,151.067,292.438,149.268,344.894,144.245z"/>
		<path d="M339.694,168.513c-46.124,5.056-92.293,6.673-138.665,5.2c-16.775-0.531-16.722,25.469,0,25.999
			c46.367,1.473,92.541-0.145,138.665-5.2C356.172,192.707,356.35,166.688,339.694,168.513z"/>
		<path d="M351.835,217.511c-51.1,8.201-102.59,11.623-154.273,13.4c-16.717,0.576-16.775,26.573,0,25.999
			c54.029-1.863,107.774-5.764,161.185-14.33C375.265,239.925,368.232,214.88,351.835,217.511z"/>
	</g>
</g>
<g>
</g>
<g>
</g>
<g>
</g>
<g>
</g>
<g>
</g>
<g>
</g>
<g>
</g>
<g>
</g>
<g>
</g>
<g>
</g>
<g>
</g>
<g>
</g>
<g>
</g>
<g>
</g>
<g>
</g>
</svg>
