<?xml version="1.0" encoding="iso-8859-1"?>
<!-- Generator: Adobe Illustrator 16.0.0, SVG Export Plug-In . SVG Version: 6.00 Build 0)  -->
<!DOCTYPE svg PUBLIC "-//W3C//DTD SVG 1.1//EN" "http://www.w3.org/Graphics/SVG/1.1/DTD/svg11.dtd">
<svg version="1.1" id="Capa_1" xmlns="http://www.w3.org/2000/svg" xmlns:xlink="http://www.w3.org/1999/xlink" x="0px" y="0px"
	 width="453.079px" height="453.079px" viewBox="0 0 453.079 453.079" style="enable-background:new 0 0 453.079 453.079;"
	 xml:space="preserve">
<g>
	<g>
		<path d="M363.074,7.065c-0.995-0.264-2.047-0.447-3.179-0.515C267.821,0.758,175.673-2.7,83.49,2.68
			c-8.663,0.505-13.256,7.083-13.858,13.842c-1.592,2.169-2.574,4.956-2.574,8.389c0.099,142.018,3.697,255,5.695,396.997
			c-3.656,8.389,0.561,20.859,12.665,21.484c73.428,3.773,129.534,5.891,202.959,9.669c1.854,0.091,3.474-0.173,4.956-0.609
			c3.088-0.092,6.267-1.147,9.161-3.636c27.385-23.471,54.537-47.134,79.257-73.453c3.036-3.234,4.153-6.851,3.986-10.313
			c0.218-1.179,0.34-2.423,0.259-3.799c-7.505-122.927-5.921-217.113-7.729-340.193C378.125,11.496,370.477,6.852,363.074,7.065z
			 M297.416,414.936c-1.311-15.355-2.834-30.686-4.799-45.971c19.088-3.316,38.404-4.042,57.808-3.158
			C333.458,382.935,315.61,399.118,297.416,414.936z M272.924,343.397c-8.354,1.955-11.197,8.892-10.12,15.427
			c-0.173,1.376-0.224,2.808,0,4.342c2.939,19.885,4.712,39.893,6.296,59.92c-58.688-2.936-106.033-4.961-167.469-7.932
			c-1.98-137.689-5.365-246.358-5.558-384.065c84.492-4.207,168.959-1.295,253.36,3.831c1.412,110.398,0.584,191.864,6.307,302.145
			C327.944,335.395,300.086,337.034,272.924,343.397z"/>
	</g>
</g>
<g>
</g>
<g>
</g>
<g>
</g>
<g>
</g>
<g>
</g>
<g>
</g>
<g>
</g>
<g>
</g>
<g>
</g>
<g>
</g>
<g>
</g>
<g>
</g>
<g>
</g>
<g>
</g>
<g>
</g>
</svg>
