<?xml version="1.0" encoding="iso-8859-1"?>
<!-- Generator: Adobe Illustrator 16.0.0, SVG Export Plug-In . SVG Version: 6.00 Build 0)  -->
<!DOCTYPE svg PUBLIC "-//W3C//DTD SVG 1.1//EN" "http://www.w3.org/Graphics/SVG/1.1/DTD/svg11.dtd">
<svg version="1.1" id="Capa_1" xmlns="http://www.w3.org/2000/svg" xmlns:xlink="http://www.w3.org/1999/xlink" x="0px" y="0px"
	 width="446.297px" height="446.297px" viewBox="0 0 446.297 446.297" style="enable-background:new 0 0 446.297 446.297;"
	 xml:space="preserve">
<g>
	<g>
		<path d="M381.903,113.195c-0.945-28.551-1.468-67.126-1.188-95.697c0.01-1.274-0.193-2.396-0.482-3.453
			c0.559-6.226-3.098-12.796-11.07-12.588C268.521,4.098,167.906,0.157,67.269,0c-8.374-0.016-12.038,7.343-11.009,13.802
			c-0.333,1.122-0.566,2.328-0.551,3.702c1.519,120.089,5.646,292.639,5.776,412.749c0,2.696,0.764,4.88,1.988,6.616
			c0.736,5.088,4.397,9.587,11.017,9.425c43.498-1.082,87.016-1.777,130.481-3.91c38.74-1.899,87.017,0.645,124.05-11.994
			c13.106-4.479,24.832-11.101,34.891-20.683c18.378-17.519,24.654-41.035,26.233-65.815c1.519-23.806-1.285-48.774-1.844-70.706
			C386.874,216.532,383.766,169.838,381.903,113.195z M318.225,327.397c-7.084,0.04-13.924,5.57-10.761,14.065
			c6.368,17.088,9.277,38.304-0.513,54.649c-11.837,19.764-32.956,19.226-53.04,21.759c-12.283,1.549-25.339,0.727-37.716,1.077
			c-9.635,0.269-131.629,3.244-131.629,3.722c-0.284-115.605-4.108-283.668-5.652-399.266c92.912,0.401,185.809,3.593,278.721,1.607
			c-0.355,94.913,8.059,232.117,8.556,307.128c-14.411-4.55-29.31-6.469-44.691-5.438
			C320.296,326.777,319.235,327.052,318.225,327.397z M327.304,406.416c9.328-15.899,11.659-35.409,6.805-56.559
			c11.237,0.437,22.317,2.604,32.813,7.053c0.041,0.127,0.076,0.264,0.117,0.396C363.637,382.366,347.784,397.742,327.304,406.416z"
			/>
		<path d="M132.843,141.249c-7.383-0.888-11.065,4.367-11.138,10.136c-0.308,1.013-0.531,2.089-0.562,3.301
			c-0.868,32.743-2.039,65.399-6.068,97.928c-1.851,14.95,21.569,14.772,23.399,0c1.618-13.04,2.689-26.105,3.547-39.187
			c1.34,0.054,2.775-0.119,4.332-0.66c18.521-6.51,34.355-19.789,30.465-41.119C173.205,151.798,150.085,143.328,132.843,141.249z
			 M143.357,188.966c0.302-7.112,0.571-14.236,0.79-21.36c4.327,1.851,8.166,4.619,9.679,8.686
			C156.143,182.52,148.91,186.669,143.357,188.966z"/>
		<path d="M217.112,182.426c-0.609-0.919-2.193-3.92-2.506-4.445c0.665-0.412,1.513-0.927,2.344-1.176
			c4.479-1.341,9.193-1.528,13.827-1.757c15.021-0.734,15.092-24.139,0-23.399c-14.18,0.69-33.18,2.442-38.953,17.94
			c-4.57,12.276,4.555,24.423,11.628,33.537c7.21,9.298,16.171,17.4,22.28,27.516c-6.348,1.767-17.377,0.279-23.554-0.127
			c-15.069-0.99-14.975,22.419,0,23.399c14.325,0.939,35.693,2.899,45.194-10.669c7.308-10.431,0.213-22.985-6.398-31.596
			C233.321,201.692,224.059,192.909,217.112,182.426z"/>
		<path d="M277.22,151.201c-10.613-1.924-16.798,9.179-13.949,16.577v77.036c0,11.166,12.802,14.045,19.464,8.683
			c23.933-7.297,41.888-25.913,42.396-52.014C325.654,174.263,301.833,155.667,277.22,151.201z M286.675,226.406v-47.428
			c8.317,4.463,14.452,11.585,15.062,22.5C302.372,212.835,295.572,221.123,286.675,226.406z"/>
	</g>
</g>
<g>
</g>
<g>
</g>
<g>
</g>
<g>
</g>
<g>
</g>
<g>
</g>
<g>
</g>
<g>
</g>
<g>
</g>
<g>
</g>
<g>
</g>
<g>
</g>
<g>
</g>
<g>
</g>
<g>
</g>
</svg>
