<?xml version="1.0" encoding="iso-8859-1"?>
<!-- Generator: Adobe Illustrator 16.0.0, SVG Export Plug-In . SVG Version: 6.00 Build 0)  -->
<!DOCTYPE svg PUBLIC "-//W3C//DTD SVG 1.1//EN" "http://www.w3.org/Graphics/SVG/1.1/DTD/svg11.dtd">
<svg version="1.1" id="Capa_1" xmlns="http://www.w3.org/2000/svg" xmlns:xlink="http://www.w3.org/1999/xlink" x="0px" y="0px"
	 width="446.296px" height="446.297px" viewBox="0 0 446.296 446.297" style="enable-background:new 0 0 446.296 446.297;"
	 xml:space="preserve">
<g>
	<g>
		<path d="M381.902,113.195c-0.944-28.551-1.467-67.126-1.188-95.697c0.01-1.274-0.193-2.396-0.482-3.453
			c0.553-6.226-3.098-12.796-11.07-12.588C268.521,4.098,167.903,0.157,67.266,0c-8.371-0.016-12.038,7.343-11.006,13.802
			c-0.333,1.122-0.566,2.328-0.551,3.702c1.519,120.089,5.647,292.639,5.776,412.749c0,2.696,0.764,4.88,1.985,6.616
			c0.739,5.088,4.4,9.587,11.019,9.425c43.498-1.082,87.014-1.777,130.479-3.91c38.743-1.899,87.018,0.645,124.047-11.994
			c13.106-4.479,24.836-11.101,34.891-20.683c18.377-17.519,24.648-41.035,26.238-65.815c1.518-23.806-1.285-48.774-1.844-70.706
			C386.869,216.532,383.76,169.838,381.902,113.195z M318.224,327.397c-7.084,0.04-13.929,5.57-10.766,14.065
			c6.368,17.088,9.278,38.304-0.508,54.649c-11.836,19.764-32.955,19.226-53.039,21.759c-12.278,1.549-25.334,0.727-37.717,1.077
			c-9.635,0.269-131.628,3.244-131.628,3.722c-0.287-115.605-4.108-283.668-5.652-399.266c92.917,0.401,185.808,3.593,278.725,1.607
			c-0.355,94.913,8.06,232.117,8.557,307.128c-14.411-4.55-29.31-6.469-44.691-5.438
			C320.291,326.777,319.219,327.052,318.224,327.397z M327.298,406.416c9.334-15.899,11.659-35.409,6.81-56.559
			c11.237,0.437,22.318,2.604,32.804,7.053c0.051,0.127,0.082,0.264,0.127,0.396C363.631,382.366,347.783,397.742,327.298,406.416z"
			/>
		<path d="M184.673,119.507c-3.755-11.695-19.52-9.732-22.635-0.759c-0.279,0.525-0.577,1.031-0.795,1.628
			c-15.331,41.111-29.79,82.521-49.086,122.006c-6.599,13.497,13.576,25.364,20.205,11.806
			c6.386-13.061,12.195-26.359,17.768-39.745c12.85,0.935,25.626,2.328,38.349,4.393c1.686,0.277,3.245,0.188,4.692-0.119
			c3.222,9.447,6.446,18.897,9.671,28.348c4.842,14.198,27.446,8.104,22.562-6.216C211.64,200.453,197.721,160.129,184.673,119.507z
			 M159.304,191.729c4.466-11.44,8.846-22.917,13.125-34.438c4.153,12.522,8.389,25.021,12.626,37.516
			C176.496,193.569,167.909,192.528,159.304,191.729z"/>
		<path d="M252.688,171.147c0.919,22.257,2.544,44.473,3.468,66.729c0.625,15.036,24.024,15.098,23.399,0
			c-0.919-22.256-2.549-44.473-3.468-66.729C275.467,156.114,252.063,156.054,252.688,171.147z"/>
		<path d="M260.056,124.781c-15.087,0-15.087,23.399,0,23.399C275.148,148.18,275.148,124.781,260.056,124.781z"/>
	</g>
</g>
<g>
</g>
<g>
</g>
<g>
</g>
<g>
</g>
<g>
</g>
<g>
</g>
<g>
</g>
<g>
</g>
<g>
</g>
<g>
</g>
<g>
</g>
<g>
</g>
<g>
</g>
<g>
</g>
<g>
</g>
</svg>
