<?xml version="1.0" encoding="iso-8859-1"?>
<!-- Generator: Adobe Illustrator 16.0.0, SVG Export Plug-In . SVG Version: 6.00 Build 0)  -->
<!DOCTYPE svg PUBLIC "-//W3C//DTD SVG 1.1//EN" "http://www.w3.org/Graphics/SVG/1.1/DTD/svg11.dtd">
<svg version="1.1" id="Capa_1" xmlns="http://www.w3.org/2000/svg" xmlns:xlink="http://www.w3.org/1999/xlink" x="0px" y="0px"
	 width="446.297px" height="446.297px" viewBox="0 0 446.297 446.297" style="enable-background:new 0 0 446.297 446.297;"
	 xml:space="preserve">
<g>
	<g>
		<path d="M381.903,113.195c-0.945-28.551-1.468-67.126-1.188-95.697c0.01-1.274-0.193-2.396-0.482-3.453
			c0.559-6.226-3.098-12.796-11.07-12.588C268.521,4.098,167.906,0.157,67.269,0c-8.374-0.016-12.038,7.343-11.009,13.802
			c-0.333,1.122-0.566,2.328-0.551,3.702c1.519,120.089,5.646,292.639,5.776,412.749c0,2.696,0.764,4.88,1.988,6.616
			c0.736,5.088,4.397,9.587,11.017,9.425c43.498-1.082,87.016-1.777,130.481-3.91c38.74-1.899,87.017,0.645,124.05-11.994
			c13.106-4.479,24.832-11.101,34.891-20.683c18.378-17.519,24.654-41.035,26.233-65.815c1.519-23.806-1.285-48.774-1.844-70.706
			C386.874,216.532,383.766,169.838,381.903,113.195z M318.225,327.397c-7.084,0.04-13.924,5.57-10.761,14.065
			c6.368,17.088,9.277,38.304-0.513,54.649c-11.837,19.764-32.956,19.226-53.04,21.759c-12.283,1.549-25.339,0.727-37.716,1.077
			c-9.635,0.269-131.629,3.244-131.629,3.722c-0.284-115.605-4.108-283.668-5.652-399.266c92.912,0.401,185.809,3.593,278.721,1.607
			c-0.355,94.913,8.059,232.117,8.556,307.128c-14.411-4.55-29.31-6.469-44.691-5.438
			C320.296,326.777,319.235,327.052,318.225,327.397z M327.304,406.416c9.328-15.899,11.659-35.409,6.805-56.559
			c11.237,0.437,22.317,2.604,32.813,7.053c0.041,0.127,0.076,0.264,0.117,0.396C363.637,382.366,347.784,397.742,327.304,406.416z"
			/>
		<path d="M122.09,127.802c-10.89-1.889-17.151,9.884-13.729,17.227c-0.16,0.848-0.238,1.752-0.213,2.725
			c0.754,28.629-1.445,57.188-1.732,85.797c-0.15,15.097,23.25,15.077,23.399,0c0.099-9.572,0.417-19.141,0.754-28.708
			c18.324-2.351,35.322-12.469,35.119-33.626C165.466,148.096,142.951,131.415,122.09,127.802z M131.314,181.273
			c0.239-8.389,0.328-16.775,0.264-25.169c4.857,3.1,8.716,7.446,10.415,13.451C144.101,176.972,138.048,180.055,131.314,181.273z"
			/>
		<path d="M229.477,138.217c0.525,17.913,0.952,35.823,1.086,53.735c-11.194-16.96-21.756-34.335-32.151-51.836
			c-6.817-11.476-23.43-3.552-21.777,7.439c-0.005,0.068-0.02,0.124-0.025,0.198c-0.68,28.073,0.904,56.056,2.6,84.065
			c0.909,14.99,24.313,15.082,23.399,0c-0.878-14.487-1.711-28.967-2.227-43.46c9.669,15.376,19.713,30.501,30.691,45.029
			c0.165,0.219,0.358,0.376,0.536,0.579c4.768,9.109,21.826,7.246,22.135-5.616c0.731-30.055,0.01-60.085-0.868-90.129
			C252.434,123.158,229.035,123.118,229.477,138.217z"/>
		<path d="M345.184,191.437c-0.021-0.109-0.076-0.195-0.097-0.307c-0.655-5.235-4.362-10.019-11.182-10.019h-34.668
			c-1.406,0-2.646,0.259-3.793,0.635c-1.895-14.424,4.438-29.734,20.774-35.718c14.04-5.146,7.977-27.767-6.221-22.562
			c-51.872,19.004-50.648,99.592,6.068,110.959c0.502,0.096,0.97,0.106,1.457,0.146c3.087,1.798,7.002,2.062,11.029-0.457
			C343.716,224.608,348.439,208.451,345.184,191.437z M319.89,211.16c-4.804-1.335-8.876-3.697-12.345-6.65h15.254
			C322.414,206.971,321.51,209.248,319.89,211.16z"/>
	</g>
</g>
<g>
</g>
<g>
</g>
<g>
</g>
<g>
</g>
<g>
</g>
<g>
</g>
<g>
</g>
<g>
</g>
<g>
</g>
<g>
</g>
<g>
</g>
<g>
</g>
<g>
</g>
<g>
</g>
<g>
</g>
</svg>
