<?xml version="1.0" encoding="iso-8859-1"?>
<!-- Generator: Adobe Illustrator 16.0.0, SVG Export Plug-In . SVG Version: 6.00 Build 0)  -->
<!DOCTYPE svg PUBLIC "-//W3C//DTD SVG 1.1//EN" "http://www.w3.org/Graphics/SVG/1.1/DTD/svg11.dtd">
<svg version="1.1" id="Capa_1" xmlns="http://www.w3.org/2000/svg" xmlns:xlink="http://www.w3.org/1999/xlink" x="0px" y="0px"
	 width="446.296px" height="446.297px" viewBox="0 0 446.296 446.297" style="enable-background:new 0 0 446.296 446.297;"
	 xml:space="preserve">
<g>
	<g>
		<path d="M381.905,113.195c-0.939-28.551-1.467-67.126-1.188-95.697c0.015-1.274-0.188-2.396-0.482-3.453
			c0.559-6.226-3.098-12.796-11.07-12.588C268.529,4.098,167.909,0.157,67.266,0c-8.371-0.016-12.038,7.343-11.004,13.802
			c-0.338,1.122-0.566,2.328-0.551,3.702c1.519,120.089,5.647,292.639,5.779,412.749c0,2.696,0.764,4.88,1.985,6.616
			c0.739,5.088,4.4,9.587,11.014,9.425c43.5-1.082,87.019-1.777,130.484-3.91c38.74-1.899,87.016,0.645,124.045-11.994
			c13.106-4.479,24.836-11.101,34.891-20.683c18.382-17.519,24.653-41.035,26.232-65.815c1.519-23.806-1.284-48.774-1.843-70.706
			C386.872,216.532,383.768,169.838,381.905,113.195z M318.227,327.397c-7.084,0.04-13.924,5.57-10.766,14.065
			c6.368,17.088,9.278,38.304-0.508,54.649c-11.836,19.764-32.955,19.226-53.039,21.759c-12.273,1.549-25.334,0.727-37.714,1.077
			c-9.636,0.269-131.629,3.244-131.629,3.722c-0.287-115.605-4.108-283.668-5.652-399.266c92.915,0.401,185.805,3.593,278.717,1.607
			c-0.351,94.913,8.064,232.117,8.557,307.128c-14.411-4.55-29.311-6.469-44.691-5.438
			C320.299,326.777,319.233,327.052,318.227,327.397z M327.301,406.416c9.334-15.899,11.664-35.409,6.81-56.559
			c11.237,0.437,22.318,2.604,32.81,7.053c0.045,0.127,0.076,0.264,0.121,0.396C363.639,382.366,347.781,397.742,327.301,406.416z"
			/>
		<path d="M139.939,166.687c-0.353,11.784-0.65,23.56-0.785,35.333c-4.786-0.041-9.559-0.213-14.327-0.597
			c-0.815-11.477-2.044-22.933-3.613-34.398c-1.96-14.31-23.628-8.196-21.678,5.979c3.047,22.224,4.377,44.541,3.765,66.971
			c-0.401,14.503,22.086,14.473,22.483,0c0.145-5.353,0.124-10.684,0.035-16.006c4.449,0.325,8.904,0.492,13.36,0.533
			c0.119,7.652,0.338,15.311,0.759,22.963c0.8,14.421,23.29,14.497,22.488,0c-1.49-26.929-0.81-53.842,0-80.783
			C162.864,152.179,140.376,152.22,139.939,166.687z"/>
		<path d="M210.312,155.444c-11.125,0.738-22.208-0.036-33.309-0.833c-14.482-1.033-14.378,21.462,0,22.49
			c0.909,0.068,1.82,0.125,2.729,0.188c1.612,21.975,1.841,43.98,1.846,66.021c0,14.503,22.491,14.503,22.491,0
			c-0.005-21.733-0.229-43.429-1.78-65.097c2.673-0.021,5.347-0.104,8.023-0.279C224.706,176.978,224.8,154.487,210.312,155.444z"/>
		<path d="M285.093,154.284c-3.772-0.338-7.703,1.046-10.364,5.065c-4.245,6.436-8.221,13.048-12.116,19.698
			c-5.732-6.678-11.466-13.353-16.863-20.312c-3.769-4.849-11.979-3.925-15.904,0c-1.854,1.856-2.809,3.954-3.09,6.111
			c-0.155,0.833-0.233,1.717-0.208,2.671c0.78,24.425,0.907,48.865,1.668,73.291c0.446,14.472,22.932,14.513,22.479,0
			c-0.437-14.097-0.69-28.206-0.949-42.315c1.976,2.316,3.956,4.628,5.911,6.959c1.127,1.351,2.604,2.209,4.209,2.724
			c4.769,2.351,10.888,1.783,14.29-4.167c1.213-2.13,2.457-4.242,3.681-6.37c0.95,14.389,1.885,28.782,2.844,43.168
			c0.96,14.391,23.45,14.482,22.491,0c-1.687-25.258-3.367-50.519-5.002-75.784C297.687,157.331,291.04,153.766,285.093,154.284z"/>
		<path d="M355.647,235.811c0-5.596-5.145-11.943-11.243-11.242c-3.742,0.437-7.51,0.686-11.268,0.944
			c-1.463-20.208-3.144-40.388-5.81-60.484c-1.879-14.16-24.39-14.343-22.49,0c3.199,24.064,4.986,48.244,6.668,72.453
			c0.375,5.403,3.777,8.79,7.835,10.146c1.538,0.838,3.25,1.311,5.078,1.097c6.642-0.767,13.34-0.894,19.986-1.66
			C350.493,246.353,355.647,242.473,355.647,235.811z"/>
	</g>
</g>
<g>
</g>
<g>
</g>
<g>
</g>
<g>
</g>
<g>
</g>
<g>
</g>
<g>
</g>
<g>
</g>
<g>
</g>
<g>
</g>
<g>
</g>
<g>
</g>
<g>
</g>
<g>
</g>
<g>
</g>
</svg>
