<?xml version="1.0" encoding="iso-8859-1"?>
<!-- Generator: Adobe Illustrator 16.0.0, SVG Export Plug-In . SVG Version: 6.00 Build 0)  -->
<!DOCTYPE svg PUBLIC "-//W3C//DTD SVG 1.1//EN" "http://www.w3.org/Graphics/SVG/1.1/DTD/svg11.dtd">
<svg version="1.1" id="Capa_1" xmlns="http://www.w3.org/2000/svg" xmlns:xlink="http://www.w3.org/1999/xlink" x="0px" y="0px"
	 width="446.297px" height="446.297px" viewBox="0 0 446.297 446.297" style="enable-background:new 0 0 446.297 446.297;"
	 xml:space="preserve">
<g>
	<g>
		<path d="M381.903,113.195c-0.945-28.551-1.468-67.126-1.188-95.697c0.01-1.274-0.193-2.396-0.482-3.453
			c0.559-6.226-3.098-12.796-11.07-12.588C268.521,4.098,167.906,0.157,67.269,0c-8.374-0.016-12.038,7.343-11.009,13.802
			c-0.333,1.122-0.566,2.328-0.551,3.702c1.519,120.089,5.646,292.639,5.776,412.749c0,2.696,0.764,4.88,1.988,6.616
			c0.736,5.088,4.397,9.587,11.017,9.425c43.498-1.082,87.016-1.777,130.481-3.91c38.74-1.899,87.017,0.645,124.05-11.994
			c13.106-4.479,24.832-11.101,34.891-20.683c18.378-17.519,24.654-41.035,26.233-65.815c1.519-23.806-1.285-48.774-1.844-70.706
			C386.874,216.532,383.766,169.838,381.903,113.195z M318.225,327.397c-7.084,0.04-13.924,5.57-10.761,14.065
			c6.368,17.088,9.277,38.304-0.513,54.649c-11.837,19.764-32.956,19.226-53.04,21.759c-12.283,1.549-25.339,0.727-37.716,1.077
			c-9.635,0.269-131.629,3.244-131.629,3.722c-0.284-115.605-4.108-283.668-5.652-399.266c92.912,0.401,185.809,3.593,278.721,1.607
			c-0.355,94.913,8.059,232.117,8.556,307.128c-14.411-4.55-29.31-6.469-44.691-5.438
			C320.296,326.777,319.235,327.052,318.225,327.397z M327.304,406.416c9.328-15.899,11.659-35.409,6.805-56.559
			c11.237,0.437,22.317,2.604,32.813,7.053c0.041,0.127,0.076,0.264,0.117,0.396C363.637,382.366,347.784,397.742,327.304,406.416z"
			/>
		<path d="M154.242,222.105c6.165-9.572,12.073-19.302,17.303-29.452c6.896-13.389-13.294-25.228-20.205-11.807
			c-3.859,7.487-8.107,14.736-12.527,21.876c-5.151-6.86-10.181-13.822-14.939-21.008c-8.282-12.522-28.556-0.817-20.205,11.807
			c6.822,10.308,14.102,20.271,21.678,30c-6.111,9.146-12.299,18.246-18.209,27.528c-8.138,12.761,12.121,24.491,20.205,11.807
			c4.38-6.876,8.912-13.65,13.452-20.419c5.149,5.967,10.405,11.852,15.836,17.585c10.392,10.979,26.913-5.596,16.544-16.544
			C166.622,236.542,160.355,229.382,154.242,222.105z"/>
		<path d="M242.04,238.314c-10.499,0.563-20.954,0.259-31.397-0.609c-1.31-17.56-2.292-35.135-3.702-52.689
			c-1.201-14.935-24.605-15.054-23.399,0c1.643,20.497,2.62,41.045,4.332,61.53c0.02,0.233,0.089,0.427,0.119,0.655
			c-0.036,0.36-0.119,0.726-0.119,1.081c0,6.952,5.373,10.938,11.7,11.7c14.117,1.695,28.256,2.487,42.467,1.731
			C257.055,260.906,257.126,237.507,242.04,238.314z"/>
		<path d="M287.396,198.079c4.067-2.976,7.906-2.826,12.71-2.232c6.348,0.779,11.7-5.914,11.7-11.7c0-6.967-5.373-10.92-11.694-11.7
			c-22.109-2.724-55.65,26.119-27.686,44.094c0.767,0.8,1.635,1.514,2.712,1.971c8.733,3.729,17.59,5.883,27.075,6.086
			c5.733,12.136-12.395,11.893-19.662,12.938c-4.991,0.721-10.617,0.543-13.573,5.21c-3.666,5.784,0.346,15.61,7.222,16.813
			c14.889,2.595,36.281-0.188,45.909-13.432c1.971-2.711,3.352-5.85,4.164-9.191c2.423-9.901,0.062-22.746-7.561-30.016
			C309.678,198.302,297.338,204.099,287.396,198.079z"/>
	</g>
</g>
<g>
</g>
<g>
</g>
<g>
</g>
<g>
</g>
<g>
</g>
<g>
</g>
<g>
</g>
<g>
</g>
<g>
</g>
<g>
</g>
<g>
</g>
<g>
</g>
<g>
</g>
<g>
</g>
<g>
</g>
</svg>
