<?xml version="1.0" encoding="iso-8859-1"?>
<!-- Generator: Adobe Illustrator 16.0.0, SVG Export Plug-In . SVG Version: 6.00 Build 0)  -->
<!DOCTYPE svg PUBLIC "-//W3C//DTD SVG 1.1//EN" "http://www.w3.org/Graphics/SVG/1.1/DTD/svg11.dtd">
<svg version="1.1" id="Capa_1" xmlns="http://www.w3.org/2000/svg" xmlns:xlink="http://www.w3.org/1999/xlink" x="0px" y="0px"
	 width="446.296px" height="446.297px" viewBox="0 0 446.296 446.297" style="enable-background:new 0 0 446.296 446.297;"
	 xml:space="preserve">
<g>
	<g>
		<path d="M381.902,113.195c-0.944-28.551-1.467-67.126-1.188-95.697c0.01-1.274-0.193-2.396-0.482-3.453
			c0.553-6.226-3.098-12.796-11.07-12.588C268.521,4.098,167.903,0.157,67.266,0c-8.371-0.016-12.038,7.343-11.006,13.802
			c-0.333,1.122-0.566,2.328-0.551,3.702c1.519,120.089,5.647,292.639,5.776,412.749c0,2.696,0.764,4.88,1.985,6.616
			c0.739,5.088,4.4,9.587,11.019,9.425c43.498-1.082,87.014-1.777,130.479-3.91c38.743-1.899,87.018,0.645,124.047-11.994
			c13.106-4.479,24.836-11.101,34.891-20.683c18.377-17.519,24.648-41.035,26.238-65.815c1.518-23.806-1.285-48.774-1.844-70.706
			C386.869,216.532,383.76,169.838,381.902,113.195z M318.224,327.397c-7.084,0.04-13.929,5.57-10.766,14.065
			c6.368,17.088,9.278,38.304-0.508,54.649c-11.836,19.764-32.955,19.226-53.039,21.759c-12.278,1.549-25.334,0.727-37.717,1.077
			c-9.635,0.269-131.628,3.244-131.628,3.722c-0.287-115.605-4.108-283.668-5.652-399.266c92.917,0.401,185.808,3.593,278.725,1.607
			c-0.355,94.913,8.06,232.117,8.557,307.128c-14.411-4.55-29.31-6.469-44.691-5.438
			C320.291,326.777,319.219,327.052,318.224,327.397z M327.298,406.416c9.334-15.899,11.659-35.409,6.81-56.559
			c11.237,0.437,22.318,2.604,32.804,7.053c0.051,0.127,0.082,0.264,0.127,0.396C363.631,382.366,347.783,397.742,327.298,406.416z"
			/>
		<path d="M214.125,138.648c-23.97,0.858-47.936,1.668-71.929,1.732c-15.089,0.041-15.089,23.44,0,23.399
			c10.135-0.025,20.258-0.238,30.389-0.482c4.293,17.194,7.16,34.713,6.794,52.481c-0.134,6.495-0.7,15.219-5.096,20.459
			c-5.037,5.997-16.841-0.716-21.848-3.26c-13.421-6.825-25.263,13.36-11.809,20.2c24.298,12.359,50.396,11.745,59.476-17.718
			c6.941-22.525,1.965-49.83-3.585-72.846c5.873-0.19,11.743-0.358,17.613-0.571C229.171,161.512,229.222,138.108,214.125,138.648z"
			/>
		<path d="M265.052,167.228c-2.259-4.687-1.219-8.186-2.803-7.084c6.82-4.763,20.724-1.589,28.143-0.695
			c14.959,1.8,14.792-21.622,0-23.399c-15.63-1.876-39.472-4.014-48.338,12.708c-7.124,13.431,1.696,29.364,8.587,40.908
			c8.491,14.226,19.108,27.226,26.304,42.216c0.59,1.224,1.412,4.265,1.696,5.361c-7.276,3.819-22.855-0.619-30.203-1.979
			c-14.747-2.732-21.049,19.824-6.221,22.562c15.868,2.939,42.081,9.079,54.649-5.307c10.755-12.314,2.66-29.033-4.276-41.002
			C283.867,196.477,272.634,182.941,265.052,167.228z"/>
	</g>
</g>
<g>
</g>
<g>
</g>
<g>
</g>
<g>
</g>
<g>
</g>
<g>
</g>
<g>
</g>
<g>
</g>
<g>
</g>
<g>
</g>
<g>
</g>
<g>
</g>
<g>
</g>
<g>
</g>
<g>
</g>
</svg>
