<?xml version="1.0" encoding="iso-8859-1"?>
<!-- Generator: Adobe Illustrator 16.0.0, SVG Export Plug-In . SVG Version: 6.00 Build 0)  -->
<!DOCTYPE svg PUBLIC "-//W3C//DTD SVG 1.1//EN" "http://www.w3.org/Graphics/SVG/1.1/DTD/svg11.dtd">
<svg version="1.1" id="Capa_1" xmlns="http://www.w3.org/2000/svg" xmlns:xlink="http://www.w3.org/1999/xlink" x="0px" y="0px"
	 width="446.297px" height="446.297px" viewBox="0 0 446.297 446.297" style="enable-background:new 0 0 446.297 446.297;"
	 xml:space="preserve">
<g>
	<g>
		<path d="M381.903,113.195c-0.945-28.551-1.468-67.126-1.188-95.697c0.01-1.274-0.193-2.396-0.482-3.453
			c0.559-6.226-3.098-12.796-11.07-12.588C268.521,4.098,167.906,0.157,67.269,0c-8.374-0.016-12.038,7.343-11.009,13.802
			c-0.333,1.122-0.566,2.328-0.551,3.702c1.519,120.089,5.646,292.639,5.776,412.749c0,2.696,0.764,4.88,1.988,6.616
			c0.736,5.088,4.397,9.587,11.017,9.425c43.498-1.082,87.016-1.777,130.481-3.91c38.74-1.899,87.017,0.645,124.05-11.994
			c13.106-4.479,24.832-11.101,34.891-20.683c18.378-17.519,24.654-41.035,26.233-65.815c1.519-23.806-1.285-48.774-1.844-70.706
			C386.874,216.532,383.766,169.838,381.903,113.195z M318.225,327.397c-7.084,0.04-13.924,5.57-10.761,14.065
			c6.368,17.088,9.277,38.304-0.513,54.649c-11.837,19.764-32.956,19.226-53.04,21.759c-12.283,1.549-25.339,0.727-37.716,1.077
			c-9.635,0.269-131.629,3.244-131.629,3.722c-0.284-115.605-4.108-283.668-5.652-399.266c92.912,0.401,185.809,3.593,278.721,1.607
			c-0.355,94.913,8.059,232.117,8.556,307.128c-14.411-4.55-29.31-6.469-44.691-5.438
			C320.296,326.777,319.235,327.052,318.225,327.397z M327.304,406.416c9.328-15.899,11.659-35.409,6.805-56.559
			c11.237,0.437,22.317,2.604,32.813,7.053c0.041,0.127,0.076,0.264,0.117,0.396C363.637,382.366,347.784,397.742,327.304,406.416z"
			/>
		<path d="M170.979,241.777c-35.62,2.057-48.495-66.367-12.131-71.066c14.747-1.904,14.935-25.329,0-23.399
			c-66.979,8.653-53.558,121.648,12.131,117.865C185.974,264.313,186.058,240.909,170.979,241.777z"/>
		<path d="M227.491,185.76c-6.479-11.337-4.624-15.247,8.13-18.934c14.462-4.184,8.307-26.763-6.224-22.562
			c-27.611,7.983-35.487,28.442-22.109,53.304c5.456,10.141,12.741,19.177,18.263,29.285c6.584,12.06-3.194,11.856-15.574,13.188
			c-14.84,1.6-14.99,25.019,0,23.398c27.741-2.99,50.667-16.274,36.775-46.425C241.644,205.935,233.529,196.334,227.491,185.76z"/>
		<path d="M289.889,185.76c-6.479-11.337-4.621-15.247,8.13-18.934c14.462-4.184,8.308-26.763-6.22-22.562
			c-27.614,7.983-35.49,28.442-22.11,53.304c5.454,10.141,12.741,19.177,18.261,29.285c6.586,12.06-3.194,11.856-15.574,13.188
			c-14.838,1.6-14.99,25.019,0,23.398c27.741-2.99,50.668-16.274,36.774-46.425C304.042,205.935,295.927,196.334,289.889,185.76z"/>
	</g>
</g>
<g>
</g>
<g>
</g>
<g>
</g>
<g>
</g>
<g>
</g>
<g>
</g>
<g>
</g>
<g>
</g>
<g>
</g>
<g>
</g>
<g>
</g>
<g>
</g>
<g>
</g>
<g>
</g>
<g>
</g>
</svg>
