<?xml version="1.0" encoding="iso-8859-1"?>
<!-- Generator: Adobe Illustrator 16.0.0, SVG Export Plug-In . SVG Version: 6.00 Build 0)  -->
<!DOCTYPE svg PUBLIC "-//W3C//DTD SVG 1.1//EN" "http://www.w3.org/Graphics/SVG/1.1/DTD/svg11.dtd">
<svg version="1.1" id="Capa_1" xmlns="http://www.w3.org/2000/svg" xmlns:xlink="http://www.w3.org/1999/xlink" x="0px" y="0px"
	 width="446.296px" height="446.297px" viewBox="0 0 446.296 446.297" style="enable-background:new 0 0 446.296 446.297;"
	 xml:space="preserve">
<g>
	<g>
		<path d="M381.905,113.195c-0.939-28.551-1.467-67.126-1.188-95.697c0.015-1.274-0.188-2.396-0.482-3.453
			c0.559-6.226-3.098-12.796-11.07-12.588C268.529,4.098,167.909,0.157,67.266,0c-8.371-0.016-12.038,7.343-11.004,13.802
			c-0.338,1.122-0.566,2.328-0.551,3.702c1.519,120.089,5.647,292.639,5.779,412.749c0,2.696,0.764,4.88,1.985,6.616
			c0.739,5.088,4.4,9.587,11.014,9.425c43.5-1.082,87.019-1.777,130.484-3.91c38.74-1.899,87.016,0.645,124.045-11.994
			c13.106-4.479,24.836-11.101,34.891-20.683c18.382-17.519,24.653-41.035,26.232-65.815c1.519-23.806-1.284-48.774-1.843-70.706
			C386.872,216.532,383.768,169.838,381.905,113.195z M318.227,327.397c-7.084,0.04-13.924,5.57-10.766,14.065
			c6.368,17.088,9.278,38.304-0.508,54.649c-11.836,19.764-32.955,19.226-53.039,21.759c-12.273,1.549-25.334,0.727-37.714,1.077
			c-9.636,0.269-131.629,3.244-131.629,3.722c-0.287-115.605-4.108-283.668-5.652-399.266c92.915,0.401,185.805,3.593,278.717,1.607
			c-0.351,94.913,8.064,232.117,8.557,307.128c-14.411-4.55-29.311-6.469-44.691-5.438
			C320.299,326.777,319.233,327.052,318.227,327.397z M327.301,406.416c9.334-15.899,11.664-35.409,6.81-56.559
			c11.237,0.437,22.318,2.604,32.81,7.053c0.045,0.127,0.076,0.264,0.121,0.396C363.639,382.366,347.781,397.742,327.301,406.416z"
			/>
		<path d="M157.687,144.395c-1.077-0.317-2.227-0.546-3.532-0.546h-36.399c-15.089,0-15.089,23.399,0,23.399h29.041
			c0.957,14.231,1.368,28.5,0.437,42.754c-0.521,7.98-1.559,16.729-5.309,23.91c-3.478,6.662-12.746-3.271-15.907-6.038
			c-11.298-9.897-27.916,6.586-16.544,16.544c20.596,18.042,45.435,21.805,56.479-7.46c9.323-24.679,5.538-55.733,3.364-81.41
			C168.719,148.518,163.214,144.821,157.687,144.395z"/>
		<path d="M201.817,145.58c-5.05,0.487-8.355,3.519-9.993,7.239c-1.051,1.668-1.722,3.707-1.706,6.193
			c0.172,27.865,2.282,55.903-2.179,83.553c-2.382,14.762,20.16,21.089,22.562,6.226c2.242-13.853,3.062-27.683,3.313-41.535
			c19.316-2.928,41.883-12.812,38.536-35.868C249.081,148.886,220.032,143.823,201.817,145.58z M229.22,176.259
			c-0.127-0.01-0.604,0.922-0.432,0.906c-0.681,0.757-1.417,1.476-2.184,2.141c-2.719,2.381-7.909,3.755-12.776,4.54
			c-0.063-5.007-0.135-10.019-0.203-15.043c3.115,0.256,6.203,0.777,9.313,1.78c2.336,0.759,0.437,0.089,2.465,1.17
			c-0.109-0.059,3.262,2.303,1.803,1.097c1.846,1.529,1.947,1.856,2.155,2.585C229.322,175.594,229.271,175.911,229.22,176.259z"/>
		<path d="M337.797,240.391c0.904-2.752,1.438-5.616,1.712-8.546c0.868-5.454,1.366-10.971,1.411-16.503
			c0.025-3.329-1.127-5.875-2.889-7.731c-0.976-1.879-2.463-3.507-4.281-4.654c-1.863-1.83-4.504-2.971-7.998-2.777
			c-14.726,0.8-29.457,0.863-44.198,0.868c-0.366,0-0.676,0.074-1.021,0.099c-1.895-15.958,4.393-31.636,21.819-33.898
			c14.741-1.92,14.935-25.339,0-23.399c-67.598,8.787-54.09,118.581,12.132,116.996c0.599-0.015,1.132-0.121,1.69-0.208
			c3.483,0.442,7.12-0.756,10.05-3.219c5.072-4.261,8.576-9.369,10.78-14.95C337.335,241.818,337.6,241.122,337.797,240.391z
			 M315.337,233.901c0,0.011,0,0.025-0.005,0.036c-0.559,1.203-1.233,2.366-2.143,3.468c-9.771-0.214-17.813-5.464-23.511-13.005
			c8.82-0.025,17.636-0.193,26.445-0.503c0.041,0.214,0.031,0.417,0.082,0.63c0.229,1.107,0.299,2.123,0.335,3.123
			C316.221,229.717,315.845,231.784,315.337,233.901z"/>
	</g>
</g>
<g>
</g>
<g>
</g>
<g>
</g>
<g>
</g>
<g>
</g>
<g>
</g>
<g>
</g>
<g>
</g>
<g>
</g>
<g>
</g>
<g>
</g>
<g>
</g>
<g>
</g>
<g>
</g>
<g>
</g>
</svg>
