<?xml version="1.0" encoding="iso-8859-1"?>
<!-- Generator: Adobe Illustrator 16.0.0, SVG Export Plug-In . SVG Version: 6.00 Build 0)  -->
<!DOCTYPE svg PUBLIC "-//W3C//DTD SVG 1.1//EN" "http://www.w3.org/Graphics/SVG/1.1/DTD/svg11.dtd">
<svg version="1.1" id="Capa_1" xmlns="http://www.w3.org/2000/svg" xmlns:xlink="http://www.w3.org/1999/xlink" x="0px" y="0px"
	 width="467.098px" height="467.098px" viewBox="0 0 467.098 467.098" style="enable-background:new 0 0 467.098 467.098;"
	 xml:space="preserve">
<g>
	<g>
		<path d="M399.697,108.075c-0.985-29.884-1.533-59.857-1.239-89.756c0.011-1.331-0.203-2.506-0.503-3.613
			c0.59-6.515-3.244-13.396-11.593-13.177C281.035,4.291,175.733,0.168,70.401,0C61.634-0.015,57.8,7.686,58.881,14.439
			c-0.353,1.176-0.591,2.44-0.577,3.88c1.592,125.685,5.909,306.275,6.048,431.985c0,2.813,0.799,5.109,2.079,6.917
			c0.774,5.331,4.604,10.044,11.527,9.871c45.526-1.127,91.071-1.863,136.564-4.093c40.542-1.985,91.074,0.676,129.824-12.558
			c13.721-4.688,25.999-11.613,36.521-21.643c19.235-18.337,25.802-42.949,27.457-68.888c1.594-24.912-1.341-51.039-1.925-73.991
			C404.897,226.625,401.647,167.357,399.697,108.075z M333.049,342.662c-7.408,0.041-14.574,5.83-11.263,14.716
			c6.662,17.885,9.709,40.096-0.533,57.198c-12.391,20.683-34.495,20.119-55.508,22.77c-12.857,1.62-26.517,0.762-39.476,1.133
			c-10.077,0.284-137.763,3.397-137.763,3.895c-0.302-120.998-4.301-296.891-5.918-417.871c97.248,0.421,194.466,3.76,291.709,1.681
			c-0.33,88.933,8.364,232.535,8.958,321.436c-15.087-4.753-30.676-6.769-46.778-5.692
			C335.217,342.002,334.1,342.291,333.049,342.662z M342.55,425.352c9.765-16.635,12.207-37.063,7.124-59.193
			c11.761,0.457,23.359,2.727,34.343,7.383c0.046,0.143,0.076,0.29,0.127,0.422C380.584,400.19,363.989,416.283,342.55,425.352z"/>
		<path d="M321.064,222.418H142.927c-18.567,0-18.567,29.074,0,29.074h178.138C339.641,251.492,339.641,222.418,321.064,222.418z"/>
		<path d="M321.064,286.383H142.927c-18.567,0-18.567,29.071,0,29.071h178.138C339.641,315.454,339.641,286.383,321.064,286.383z"/>
		<path d="M321.064,164.268H135.731c-18.57,0-18.57,29.074,0,29.074H321.07C339.641,193.342,339.641,164.268,321.064,164.268z"/>
		<path d="M134.289,126.473c33.104-1.343,152.21-1.453,185.339-1.458c18.565,0,18.57-29.077,0-29.072
			c-33.129,0.005-152.235,0.109-185.339,1.455C115.79,98.147,115.717,127.224,134.289,126.473z"/>
	</g>
</g>
<g>
</g>
<g>
</g>
<g>
</g>
<g>
</g>
<g>
</g>
<g>
</g>
<g>
</g>
<g>
</g>
<g>
</g>
<g>
</g>
<g>
</g>
<g>
</g>
<g>
</g>
<g>
</g>
<g>
</g>
</svg>
