<?xml version="1.0" encoding="iso-8859-1"?>
<!-- Generator: Adobe Illustrator 16.0.0, SVG Export Plug-In . SVG Version: 6.00 Build 0)  -->
<!DOCTYPE svg PUBLIC "-//W3C//DTD SVG 1.1//EN" "http://www.w3.org/Graphics/SVG/1.1/DTD/svg11.dtd">
<svg version="1.1" id="Capa_1" xmlns="http://www.w3.org/2000/svg" xmlns:xlink="http://www.w3.org/1999/xlink" x="0px" y="0px"
	 width="446.297px" height="446.297px" viewBox="0 0 446.297 446.297" style="enable-background:new 0 0 446.297 446.297;"
	 xml:space="preserve">
<g>
	<g>
		<path d="M381.903,113.195c-0.945-28.551-1.468-67.126-1.188-95.697c0.01-1.274-0.193-2.396-0.482-3.453
			c0.559-6.226-3.098-12.796-11.07-12.588C268.521,4.098,167.906,0.157,67.269,0c-8.374-0.016-12.038,7.343-11.009,13.802
			c-0.333,1.122-0.566,2.328-0.551,3.702c1.519,120.089,5.646,292.639,5.776,412.749c0,2.696,0.764,4.88,1.988,6.616
			c0.736,5.088,4.397,9.587,11.017,9.425c43.498-1.082,87.016-1.777,130.481-3.91c38.74-1.899,87.017,0.645,124.05-11.994
			c13.106-4.479,24.832-11.101,34.891-20.683c18.378-17.519,24.654-41.035,26.233-65.815c1.519-23.806-1.285-48.774-1.844-70.706
			C386.874,216.532,383.766,169.838,381.903,113.195z M318.225,327.397c-7.084,0.04-13.924,5.57-10.761,14.065
			c6.368,17.088,9.277,38.304-0.513,54.649c-11.837,19.764-32.956,19.226-53.04,21.759c-12.283,1.549-25.339,0.727-37.716,1.077
			c-9.635,0.269-131.629,3.244-131.629,3.722c-0.284-115.605-4.108-283.668-5.652-399.266c92.912,0.401,185.809,3.593,278.721,1.607
			c-0.355,94.913,8.059,232.117,8.556,307.128c-14.411-4.55-29.31-6.469-44.691-5.438
			C320.296,326.777,319.235,327.052,318.225,327.397z M327.304,406.416c9.328-15.899,11.659-35.409,6.805-56.559
			c11.237,0.437,22.317,2.604,32.813,7.053c0.041,0.127,0.076,0.264,0.117,0.396C363.637,382.366,347.784,397.742,327.304,406.416z"
			/>
		<path d="M180.51,240.046c-9.25,0.457-18.463,0.284-27.672-0.254c10.415-20.708,20.596-41.528,31.712-61.875
			c5.086-9.313-3.39-17.875-11.387-17.56c-0.155-0.005-0.292-0.046-0.447-0.046h-41.599c-15.089,0-15.089,23.399,0,23.399h23.895
			c-9.978,19.245-19.449,38.75-29.353,58.041c-4.827,6.256-1.826,18.809,8.922,19.956c15.287,1.636,30.564,2.499,45.93,1.731
			C195.528,262.704,195.599,239.294,180.51,240.046z"/>
		<path d="M209.541,168.548c0.914,27.444,2.417,54.862,1.731,82.329c-0.373,15.097,23.029,15.066,23.399,0
			c0.686-27.467-0.817-54.885-1.731-82.329C232.44,153.499,209.036,153.454,209.541,168.548z"/>
		<rect x="291.966" y="186.945" width="0.021" height="0.041"/>
		<path d="M268.907,156.848c-6.84-0.099-10.547,4.664-11.182,9.917c-0.254,0.825-0.432,1.704-0.518,2.65
			c-2.483,27.116-3.341,54.248-2.6,81.466c0.411,15.062,23.811,15.103,23.399,0c-0.295-10.811-0.265-21.602-0.051-32.385
			c17.687-3.656,40.726-14.284,36.973-35.982C311.446,162.34,285.695,157.087,268.907,156.848z M291.982,186.991
			c-0.011,0.03-0.025,0.059-0.041,0.084l0,0l0,0c-0.36,0.724-0.63,1.155-1.899,2.1c-3.331,2.48-7.2,3.983-11.201,5.108
			c0.238-4.321,0.543-8.643,0.857-12.959c2.493,0.482,4.972,1.117,7.47,2.044c0.731,0.274,3.829,2.46,3.413,2.104
			c0.106,0.089,0.924,1.102,1.32,1.562c0.01-0.013,0.045-0.063,0.061-0.084c-0.056-0.083-0.097-0.147-0.183-0.281
			c0.086,0.129,0.122,0.172,0.192,0.267c0.021-0.033,0.046-0.059,0.076-0.114c0,0.01,0,0.025,0,0.035
			c-0.02,0.036-0.035,0.068-0.051,0.109c0.016,0.025,0.036,0.051,0.051,0.073c0,0.016,0.011,0.051,0.016,0.071
			C292.042,187.09,292.002,187.029,291.982,186.991z"/>
		<polygon points="291.936,187.075 291.895,187.039 291.885,187.055 		"/>
	</g>
</g>
<g>
</g>
<g>
</g>
<g>
</g>
<g>
</g>
<g>
</g>
<g>
</g>
<g>
</g>
<g>
</g>
<g>
</g>
<g>
</g>
<g>
</g>
<g>
</g>
<g>
</g>
<g>
</g>
<g>
</g>
</svg>
