<?xml version="1.0" encoding="iso-8859-1"?>
<!-- Generator: Adobe Illustrator 16.0.0, SVG Export Plug-In . SVG Version: 6.00 Build 0)  -->
<!DOCTYPE svg PUBLIC "-//W3C//DTD SVG 1.1//EN" "http://www.w3.org/Graphics/SVG/1.1/DTD/svg11.dtd">
<svg version="1.1" id="Capa_1" xmlns="http://www.w3.org/2000/svg" xmlns:xlink="http://www.w3.org/1999/xlink" x="0px" y="0px"
	 width="477.189px" height="477.189px" viewBox="0 0 477.189 477.189" style="enable-background:new 0 0 477.189 477.189;"
	 xml:space="preserve">
<g>
	<g>
		<path d="M477.02,36.097c-0.015-1.181-0.188-2.257-0.441-3.271c0.086-6.568-4.093-13.197-12.558-13.197h-32.932
			c-0.635,0-1.203,0.104-1.787,0.178c-3.595-0.693-7.5,0.186-10.867,3.628c-7.586,7.749-14.04,16.517-19.859,25.657h-17.026
			c-4.708-6.282-8.79-13.041-12.832-19.763c-1.188-5.228-5.216-9.704-12.157-9.704H141.63c-0.711,0-1.346,0.109-1.996,0.198
			c-3.969-0.569-8.138,0.412-10.659,3.608c-6.391,8.112-11.7,16.433-15.803,25.656H90.822c-3.405-7.19-6.729-14.424-10.768-21.294
			c-0.348-0.587-0.749-1.059-1.14-1.564c-1.544-4.623-5.479-8.34-11.829-8.34c-14.731,0-38.057-4.862-51.752-0.5
			C-9.445,25.276,3.054,61.507,3.872,79.801c1.242,27.83,0.229,55.937,0.378,83.797c0.343,63.375,0.987,126.756,1.815,190.125
			c0.373,28.752,0.706,57.493,1.236,86.229c0.074,4.094,1.696,7.171,4.083,9.263c0.884,5.637,5.007,10.669,12.385,10.669
			c12.741-0.005,25.481-0.066,38.131-1.731c0.99-0.127,1.939-0.341,2.871-0.604c5.403,0.229,10.956-2.407,13.129-8.938
			c2.569-7.713,4.867-15.447,6.203-23.389h25.215c2.211,5.199,3.587,10.639,3.712,16.468c0.048,2.128,0.516,3.981,1.28,5.565
			c1.566,4.712,5.477,8.688,11.72,9.166c62.888,4.844,157.087,5.194,220.125,5.199c1.238,0,2.351-0.178,3.407-0.441
			c5.327,0.193,10.689-2.493,12.599-9.104c2.432-8.435,5.108-16.783,7.846-25.121h18.529c3.402,6.489,6.805,12.989,9.217,19.921
			c0.324,0.919,0.735,1.787,1.208,2.61c1.727,4.392,5.474,8.063,11.324,8.663c15.568,1.604,31.163,1.731,46.798,1.731
			c1.27,0,2.407-0.188,3.484-0.462c6.621,0.162,13.232-3.997,12.984-12.538C470.515,342.85,478.426,140.135,477.02,36.097z
			 M447.33,433.802c-9.095-0.082-18.185-0.249-27.254-0.854c-3.666-8.739-8.146-17.077-12.431-25.553
			c-2.387-4.728-7.892-6.896-12.949-6.266c-0.573-0.066-1.122-0.173-1.741-0.173h-32.931c-7.521,0-11.64,5.235-12.411,11.004
			c-0.041,0.097-0.092,0.173-0.127,0.274c-2.59,7.77-5.083,15.559-7.484,23.384c-56.99-0.03-145.139-0.497-202-4.372
			c-1.543-8.982-4.768-17.56-9.407-25.578c-2.917-5.037-7.523-6.692-11.954-6.164c-0.863-0.168-1.765-0.274-2.742-0.274H72.3
			c-7.597,0-11.71,5.342-12.426,11.177c-0.312,1.097-0.541,2.254-0.574,3.555c-0.15,6.479-1.709,12.72-3.608,18.875
			c-7.478,0.7-14.985,0.944-22.5,1.021c-1.709-94.445-3.301-287.686-3.359-382.151c0-2.61-0.665-4.789-1.731-6.583v-1.216h31.143
			c4.456,8.059,8.148,16.508,12.235,24.763c2.148,4.341,6.962,6.452,11.646,6.307c0.442,0.04,0.848,0.129,1.31,0.129h36.399
			c4.634,0,7.942-2.016,10.017-4.893c1.892-1.647,3.374-3.841,4.253-6.38c2.242-6.469,5.537-12.568,9.48-18.189h203.637
			c5.099,8.257,10.445,16.27,16.483,23.925c1.366,1.736,3.25,2.765,5.291,3.318c1.925,1.366,4.362,2.219,7.363,2.219h29.468
			c6.916,0,10.928-4.436,12.141-9.635c4.316-7.015,8.973-13.685,14.401-19.827h17.692
			C451.859,142.118,445.333,337.31,447.33,433.802z"/>
		<path d="M117.362,104.563H72.295c-9.567,0-13.65,8.46-12.302,15.729c-0.411,1.274-0.698,2.644-0.698,4.207v23.529
			c-3.488,7.7,0.229,18.938,11.268,18.938c15.049-0.005,30.097-0.01,45.067-1.732c0.907-0.104,1.79-0.274,2.648-0.497
			c6.177-0.381,12.083-4.515,12.083-12.502v-29.473c0-1.369-0.224-2.585-0.546-3.728
			C130.504,112.082,126.386,104.563,117.362,104.563z M104.363,140.193c-6.348,0.406-12.703,0.602-19.068,0.681v-10.311h19.068
			V140.193z"/>
		<path d="M117.362,208.561H72.295c-9.567,0-13.65,8.46-12.302,15.729c-0.411,1.274-0.698,2.643-0.698,4.207v23.529
			c-3.488,7.698,0.229,18.936,11.268,18.936c15.049-0.005,30.097-0.011,45.067-1.731c0.907-0.102,1.79-0.274,2.648-0.498
			c6.177-0.381,12.083-4.515,12.083-12.502v-29.47c0-1.369-0.224-2.585-0.546-3.728
			C130.504,216.079,126.386,208.561,117.362,208.561z M104.363,244.19c-6.348,0.406-12.703,0.6-19.068,0.681V234.56h19.068V244.19z"
			/>
		<path d="M117.362,312.555H72.295c-9.567,0-13.65,8.46-12.302,15.731c-0.411,1.274-0.698,2.641-0.698,4.204v23.532
			c-3.488,7.697,0.229,18.936,11.268,18.936c15.049-0.006,30.097-0.011,45.067-1.732c0.907-0.102,1.79-0.273,2.648-0.497
			c6.177-0.381,12.083-4.515,12.083-12.502v-29.473c0-1.366-0.224-2.585-0.546-3.728
			C130.504,320.076,126.386,312.555,117.362,312.555z M104.363,348.187c-6.348,0.406-12.703,0.6-19.068,0.681v-10.313h19.068
			V348.187z"/>
		<path d="M398.154,104.563h-45.066c-9.567,0-13.65,8.46-12.305,15.729c-0.411,1.274-0.695,2.644-0.695,4.207v23.529
			c-3.488,7.7,0.229,18.938,11.268,18.938c15.047-0.005,30.098-0.01,45.067-1.732c0.904-0.104,1.787-0.274,2.646-0.497
			c6.18-0.381,12.086-4.515,12.086-12.502v-29.473c0-1.369-0.224-2.585-0.549-3.728
			C411.296,112.082,407.177,104.563,398.154,104.563z M385.155,140.193c-6.348,0.406-12.705,0.602-19.068,0.681v-10.311h19.068
			V140.193z"/>
		<path d="M398.154,208.561h-45.066c-9.567,0-13.65,8.46-12.305,15.729c-0.411,1.274-0.695,2.643-0.695,4.207v23.529
			c-3.488,7.698,0.229,18.936,11.268,18.936c15.047-0.005,30.098-0.011,45.067-1.731c0.904-0.102,1.787-0.274,2.646-0.498
			c6.18-0.381,12.086-4.515,12.086-12.502v-29.47c0-1.369-0.224-2.585-0.549-3.728C411.296,216.079,407.177,208.561,398.154,208.561
			z M385.155,244.19c-6.348,0.406-12.705,0.6-19.068,0.681V234.56h19.068V244.19z"/>
		<path d="M398.154,312.555h-45.066c-9.567,0-13.65,8.46-12.305,15.731c-0.411,1.274-0.695,2.641-0.695,4.204v23.532
			c-3.488,7.697,0.229,18.936,11.268,18.936c15.047-0.006,30.098-0.011,45.067-1.732c0.904-0.102,1.787-0.273,2.646-0.497
			c6.18-0.381,12.086-4.515,12.086-12.502v-29.473c0-1.366-0.224-2.585-0.549-3.728
			C411.296,320.076,407.177,312.555,398.154,312.555z M385.155,348.187c-6.348,0.406-12.705,0.6-19.068,0.681v-10.313h19.068
			V348.187z"/>
	</g>
</g>
<g>
</g>
<g>
</g>
<g>
</g>
<g>
</g>
<g>
</g>
<g>
</g>
<g>
</g>
<g>
</g>
<g>
</g>
<g>
</g>
<g>
</g>
<g>
</g>
<g>
</g>
<g>
</g>
<g>
</g>
</svg>
