<?xml version="1.0" encoding="iso-8859-1"?>
<!-- Generator: Adobe Illustrator 16.0.0, SVG Export Plug-In . SVG Version: 6.00 Build 0)  -->
<!DOCTYPE svg PUBLIC "-//W3C//DTD SVG 1.1//EN" "http://www.w3.org/Graphics/SVG/1.1/DTD/svg11.dtd">
<svg version="1.1" id="Capa_1" xmlns="http://www.w3.org/2000/svg" xmlns:xlink="http://www.w3.org/1999/xlink" x="0px" y="0px"
	 width="465.88px" height="465.88px" viewBox="0 0 465.88 465.88" style="enable-background:new 0 0 465.88 465.88;"
	 xml:space="preserve">
<g>
	<g>
		<path d="M435.893,43.572c-0.736-0.739-1.573-1.308-2.447-1.795c-0.944-1.3-2.29-2.455-4.158-3.333
			C367.005,9.257,296.813,0.475,228.641,0.015C161.985-0.432,91.028,8.95,31.217,39.872c-6.962,3.598-6.914,10.821-3.425,15.823
			c0.175,2.182,0.947,4.396,2.542,6.459c42.629,55.114,89.746,107.054,125.5,167.129c17.197,28.886,29.742,59.917,38.141,92.421
			c10.956,42.417,7.711,85.604,9.08,128.885c0.071,2.295,0.736,4.194,1.731,5.778c1.823,7.698,11.928,13.457,19.253,6.14
			c17.034-17.037,34.122-34.013,52.494-49.633c0.269-0.233,0.451-0.482,0.695-0.721c0.152-0.122,0.264-0.289,0.411-0.427
			c0.233-0.254,0.519-0.503,0.722-0.767c1.503-1.782,2.478-4.139,2.482-7.135c0.016-60.55,13.33-114.387,42.544-167.421
			c33.829-61.451,78.495-116.438,115.255-176.091c2.432-3.951,2.133-7.769,0.365-10.786C438.6,47.329,437.559,45.24,435.893,43.572z
			 M63.193,50.242c51.821-21.396,109.997-26.952,165.448-27.32c54.786-0.363,112.482,5.949,164.547,25.116
			c-107.42,28.338-219.745,22.655-328.581,2.676C64.127,50.559,63.66,50.401,63.193,50.242z M257.992,398.758
			c-11.187,9.653-21.947,19.764-32.507,30.087c-0.391-25.288-0.505-50.312-3.125-75.372c13.144-4.048,26.496-7.181,39.974-9.902
			C259.617,361.643,258.21,380.051,257.992,398.758z M299.59,232.117c-15.422,27.997-26.065,57.14-32.748,87.263
			c-16.082,3.082-32.039,6.475-47.712,11.12c-0.358-2.041-0.665-4.082-1.071-6.129c-6.962-34.921-21.302-68.156-38.25-99.284
			c-29.711-54.568-71.175-102.11-110.403-150.39c111.86,19.556,227.133,24.283,337.092-6.475
			C371.033,122.971,331.104,174.908,299.59,232.117z"/>
	</g>
</g>
<g>
</g>
<g>
</g>
<g>
</g>
<g>
</g>
<g>
</g>
<g>
</g>
<g>
</g>
<g>
</g>
<g>
</g>
<g>
</g>
<g>
</g>
<g>
</g>
<g>
</g>
<g>
</g>
<g>
</g>
</svg>
