<?xml version="1.0" encoding="iso-8859-1"?>
<!-- Generator: Adobe Illustrator 16.0.0, SVG Export Plug-In . SVG Version: 6.00 Build 0)  -->
<!DOCTYPE svg PUBLIC "-//W3C//DTD SVG 1.1//EN" "http://www.w3.org/Graphics/SVG/1.1/DTD/svg11.dtd">
<svg version="1.1" id="Capa_1" xmlns="http://www.w3.org/2000/svg" xmlns:xlink="http://www.w3.org/1999/xlink" x="0px" y="0px"
	 width="489.246px" height="489.245px" viewBox="0 0 489.246 489.245" style="enable-background:new 0 0 489.246 489.245;"
	 xml:space="preserve">
<g>
	<g>
		<path d="M427.197,175.171c-24.369,0.442-47.378,5.487-68.177,15.765c12.618-44.96-0.03-90.561-36.933-125.7
			c-0.934-1.247-2.006-2.184-3.174-2.844c-10.892-7.83-25.628,7.447-15.32,17.258c7.109,14.096,16.062,47.984-4.067,56.33
			c-9.358,3.885-19.667-12.989-23.333-18.911c-17.209-27.789-19.312-65.19-4.479-94.206c0.254-0.188,0.487-0.401,0.741-0.587
			c11.253-8.155,1.828-26.354-9.399-21.449c-3.347,0.165-6.622,1.788-8.851,5.52c-0.27,0.46-0.487,0.958-0.757,1.422
			c-51.014,41.271-71.666,106.488-46.974,169.328c0.535,1.355,1.269,2.47,2.092,3.458c4.639,11.913,10.367,33.809-5.164,39.402
			c-25.385,9.138-34.533-29.98-42.343-45.658c-15.143-30.385-47.205-50.168-77.602-62.731
			c-11.934-4.936-17.997,11.035-10.758,19.192c17.735,52.39-4.073,96.608-16.359,147.226c-8.721,35.927-7.51,74.078,6.165,108.558
			c24.991,63.018,88.778,96.131,153.434,101.864c68.896,6.108,160.162-20.957,191.884-87.483
			c30.393-63.744,6.449-139.726,27.904-206.382C441.222,187.863,438.404,174.968,427.197,175.171z M175.25,309.417
			c7.561,5.637,13.431,12.563,17.405,20.389l0.193,0.726c4.103,11.812,13.967,25.608,28.267,25.608c2.13,0,4.319-0.319,6.5-0.935
			c5.782-1.64,10.187-5.306,12.738-10.612c4.441-9.242,2.407-21.114-0.686-28.468c-0.256-0.609-0.576-1.178-0.998-1.757
			c-5.632-15.152-5.348-31.077,0.597-45.031c1.269,15.909,8.028,30.244,18.717,38.918c8.435,6.829,19.322,6.474,26.64-0.976
			c2.031-2.057,3.682-4.372,4.971-6.921c2.596,12.187,0.021,25.024-7.611,37.557c-0.178,0.294-0.31,0.568-0.462,0.914
			c-1.63,2.392-1.818,5.353-0.482,8.008c2.498,4.966,9.48,6.565,13.614,2.631c8.332-7.947,18.483-13.056,30.213-15.209
			c-2.944,13.568-3.229,27.441-3.503,40.898c-0.295,14.197-0.589,28.883-4.073,42.868c-7.724,31.047-45.631,44.95-79.765,44.95
			c-2.476,0-4.893-0.076-7.249-0.219c-33.581-2.066-60.86-23.638-67.882-53.679c-4.489-19.2,1.48-38.41,7.259-56.985
			C174.783,335.559,176.576,322.107,175.25,309.417z M393.276,372.821c-9.395,37.739-38.791,62.154-74.077,76.423
			c4.103-4.555,7.621-9.612,10.308-15.249c8.622-18.088,8.846-38.141,9.064-57.533c0.178-15.681,0.355-31.89,5.042-46.743
			c1.854-2.574,2.184-6.169,0.798-9.104c-1.331-2.833-4.067-4.515-7.48-4.515c0,0,0,0-0.005,0
			c-11.055,0.203-21.353,2.229-30.681,6.033c4.367-22.171-2.976-44.092-20.358-60.601c-0.67-0.894-1.478-1.62-2.168-1.991
			c-4.407-3.153-11.075-0.863-13.061,4.104c-1.163,2.895-0.543,5.951,1.646,8.271c2.534,5.221,5.037,14.752,2.925,20.435
			c-0.752,2.016-2.001,3.366-4.291,4.22c-1.279,0-3.712-1.478-8.145-8.628c-8.155-13.167-9.105-31.001-2.418-44.582
			c3.032-2.298,4.221-6.139,3.017-9.841c-1.462-4.515-5.981-7.074-10.054-5.561c-2.564,0.271-4.718,1.686-6.104,4.02l-0.198,0.36
			c-27.05,22.155-36.528,56.751-24.133,88.296c0.297,0.741,0.686,1.427,1.191,2.087c2.252,5.931,2.818,10.918,1.539,13.721
			c-0.546,1.198-1.419,1.985-2.75,2.463c-0.988,0.355-1.94,0.538-2.818,0.538c-6.251,0-10.151-9.684-13-16.763
			c-0.854-2.122-1.638-4.062-2.397-5.58c-6.751-13.538-20.406-24.628-40.585-32.972c-4.009-1.65-8.049-0.005-9.78,3.839
			c-1.419,3.153-0.993,6.917,1.033,9.552c6.568,19.886,1.404,37.638-4.06,56.427c-1.519,5.226-3.09,10.618-4.431,16.143
			c-4.763,19.611-3.646,39.146,3.229,56.482c4.535,11.426,11.71,21.373,20.949,29.514c-45.697-15.955-82.434-51.562-94.003-101.047
			c-9.13-39.055,2.917-78.287,14.447-115.369c9.953-32.02,15.043-62.122,9.254-93.648c19.5,12.106,35.396,28.392,46.093,49.658
			c0.099,0.406,0.145,0.792,0.289,1.208c9.044,26.03,31.377,54.337,62.472,45.519c30.747-8.721,30.549-46.425,20.498-70.33
			c-0.478-1.133-1.102-2.085-1.788-2.953c-14.79-39.154-10.316-79.422,10.788-111.911c-2.506,34.911,8.701,71.846,35.195,93.328
			c14.462,11.725,32.489,11.974,45.763-1.528c7.638-7.774,11.888-17.062,13.711-26.906c11.796,29.462,8.419,62.055-10.882,93.742
			c-0.346,0.563-0.564,1.115-0.803,1.666c-7.663,10.347,7.627,24.57,17.92,14.767c19.946-19.009,43.752-29.239,70.036-32.593
			C395.439,256.505,407.433,315.896,393.276,372.821z"/>
	</g>
</g>
<g>
</g>
<g>
</g>
<g>
</g>
<g>
</g>
<g>
</g>
<g>
</g>
<g>
</g>
<g>
</g>
<g>
</g>
<g>
</g>
<g>
</g>
<g>
</g>
<g>
</g>
<g>
</g>
<g>
</g>
</svg>
