<?xml version="1.0" encoding="iso-8859-1"?>
<!-- Generator: Adobe Illustrator 16.0.0, SVG Export Plug-In . SVG Version: 6.00 Build 0)  -->
<!DOCTYPE svg PUBLIC "-//W3C//DTD SVG 1.1//EN" "http://www.w3.org/Graphics/SVG/1.1/DTD/svg11.dtd">
<svg version="1.1" id="Capa_1" xmlns="http://www.w3.org/2000/svg" xmlns:xlink="http://www.w3.org/1999/xlink" x="0px" y="0px"
	 width="473.93px" height="473.93px" viewBox="0 0 473.93 473.93" style="enable-background:new 0 0 473.93 473.93;"
	 xml:space="preserve">
<g>
	<g>
		<path d="M446.916,27.924c-3.463,5.246-6.728,10.578-9.906,15.937c-36.491-13.705-70.152-24.772-109.74-19.38
			c-31.601,4.306-59.402,22.942-80.852,45.646c-12.439,13.165-22.854,27.871-32.032,43.465
			c-39.852,1.95-78.742-1.696-117.606-10.986c-2.349-0.564-4.512-0.549-6.472-0.138c-4.618-0.274-9.341,1.597-12.471,6.683
			C40.826,169.282,10.972,234.558,0.87,304.933c-0.244,1.696-0.145,3.271,0.099,4.773c-2.209,5.713-0.874,12.284,6.446,15.6
			c65.91,29.828,139.373,34.957,209.06,15.691c0.208-0.056,0.366-0.157,0.566-0.219c4.723-0.792,9.034-3.823,10.811-9.734
			c7.919-26.309,16.079-52.607,27.065-77.82c0.523-1.208,0.843-2.392,1.051-3.564c2.818,0.265,5.465,0.549,7.841,0.822
			c34.692,4.037,68.634,12.858,102.489,21.236c-7.968,54.563-13.041,109.715-20.576,162.901
			c-2.544,17.972,24.912,25.715,27.481,7.576c19.027-134.322,21.114-282.924,98.32-399.883
			C481.686,26.916,456.996,12.657,446.916,27.924z M29.707,304.05c10.311-61.673,35.678-118.69,67.672-172.134
			c33.555,7.404,67.38,11.101,101.646,10.659c-17.222,35.848-30.476,74.275-47.091,109.08c-0.556,1.162-0.909,2.31-1.158,3.438
			c-7.071,20.454,3.598,38.618,17.311,55.375c0.686,1.96,1.731,3.834,3.176,5.479c1.419,1.62,2.907,3.163,4.425,4.672
			C126.56,328.23,75.965,323.138,29.707,304.05z M205.228,307.767c-3.587-2.179-6.848-4.829-9.889-7.866
			c-0.592-1.401-1.356-2.787-2.496-4.107c-33.304-38.588-0.307-47.18,33.601-47.52C218.415,267.782,211.532,287.658,205.228,307.767
			z M370.731,243.464c-50.439-12.458-101.895-25.496-154.099-23.973c-6.429,0.188-13.411,0.762-20.368,2.003
			c16.598-39.306,32.608-78.944,56.77-114.298c16.904-24.734,40.116-43.762,68.929-52.445
			c34.779-10.483,68.826,1.813,101.336,14.231C395.984,123.472,380.938,182.812,370.731,243.464z"/>
	</g>
</g>
<g>
</g>
<g>
</g>
<g>
</g>
<g>
</g>
<g>
</g>
<g>
</g>
<g>
</g>
<g>
</g>
<g>
</g>
<g>
</g>
<g>
</g>
<g>
</g>
<g>
</g>
<g>
</g>
<g>
</g>
</svg>
