<?xml version="1.0" encoding="iso-8859-1"?>
<!-- Generator: Adobe Illustrator 16.0.0, SVG Export Plug-In . SVG Version: 6.00 Build 0)  -->
<!DOCTYPE svg PUBLIC "-//W3C//DTD SVG 1.1//EN" "http://www.w3.org/Graphics/SVG/1.1/DTD/svg11.dtd">
<svg version="1.1" id="Capa_1" xmlns="http://www.w3.org/2000/svg" xmlns:xlink="http://www.w3.org/1999/xlink" x="0px" y="0px"
	 width="468.161px" height="468.161px" viewBox="0 0 468.161 468.161" style="enable-background:new 0 0 468.161 468.161;"
	 xml:space="preserve">
<g>
	<g>
		<path d="M433.03,384.074c-0.173-1.478-0.722-3.032-1.763-4.626c-42.802-65.831-86.279-131.24-125.943-199.044
			c-0.031-0.165-0.016-0.317-0.046-0.488c-7.084-36.78-11.624-73.661-12.162-111.152c-0.01-0.967-0.137-1.874-0.335-2.727
			c4.332-0.239,8.668-0.473,13.005-0.721c0.289-0.015,0.543-0.094,0.822-0.129c0.655,0.16,1.331,0.284,2.031,0.322
			c20.668,1.008,35.871-19.037,31.601-38.344c-6.83-30.904-46.067-23.229-69.146-23.755c-25.294-0.571-78.94,0.109-79.415,0.063
			c-19.202-1.909-38.316-4.997-57.627-2.6c-41.693,5.185-40.839,48.436-2.465,59.179c-0.025,0.223-0.089,0.416-0.104,0.645
			c-2.232,36.062-1.592,71.968,1.721,107.94c0.099,1.081,0.343,2.026,0.655,2.899c-13.261,84.119-59.395,157.171-93.869,233.655
			c-0.208,0.284-0.447,0.528-0.617,0.838c-7.909,14.274-9.927,29.858-1.577,44.493c0.541,0.949,1.176,1.736,1.846,2.438
			c0.328,0.523,0.681,1.046,1.112,1.519c6.538,7.099,15.173,10.023,24.61,10.771c0.282,0.02,0.546-0.031,0.822-0.025
			c0.208,0.035,0.391,0.102,0.604,0.121c111.183,10.694,219.973-11.339,329.322-28.365c1.31-0.203,2.417-0.619,3.422-1.112
			c0.32-0.01,0.635,0.005,0.96-0.025c12.096-1.152,22.541-7.886,29.585-17.625c0.705-0.98,1.168-1.966,1.528-2.94
			c0.538-0.771,1.041-1.584,1.427-2.473c3.859-8.852,3.229-18.561,0.432-27.604C433.349,384.81,433.177,384.45,433.03,384.074z
			 M126.843,31.87c-2.069-3.207-2.112-6.883-1.369-10.587c19.573-2.049,39.108-2.179,58.712-0.582
			c0.083,0.01,0.147,0.041,0.229,0.045c41.568,4.5,83.164,6.409,124.966,5.581c0.32-0.005,0.609-0.084,0.914-0.109
			c0.325,0.079,0.65,0.181,0.99,0.239c0.188,0.031,0.265,0.043,0.406,0.063c0.163,0.056,0.422,0.145,0.914,0.285
			c0.666,0.192,1.301,0.475,1.94,0.733c0.045,0.084,1.325,0.744,1.6,0.927c0.157,0.119,0.238,0.181,0.345,0.264
			c0.274,0.287,0.554,0.566,0.812,0.874c0.127,0.14,0.183,0.193,0.27,0.287c0.056,0.094,0.07,0.134,0.142,0.259
			c0.295,0.495,0.493,1.036,0.727,1.562c-0.005,0.14,0.452,1.528,0.522,1.838c0.107,0.521,0.401,4.573,0.315,2.062
			c0.01,0.315,0.071,0.617,0.102,0.925c-0.106,0.353-0.198,0.708-0.32,1.056c-0.056,0.183-0.528,1.138-0.751,1.628
			c-0.244,0.388-0.519,0.764-0.798,1.132c-0.025-0.035-0.411,0.338-0.776,0.709c-0.355,0.229-1.112,0.769-1.387,0.903
			c-0.183,0.094-0.259,0.143-0.376,0.203c-0.142,0.031-0.259,0.054-0.492,0.12c-0.686,0.188-1.396,0.261-2.097,0.353
			c0.015-0.071-1.885,0.018-2.169,0.005c-0.884-0.165-1.828-0.254-2.879-0.19c-54.924,3.136-109.857,6.188-164.331-3.458
			c-0.924-0.167-1.792-0.218-2.615-0.188C135.386,37.662,129.412,35.859,126.843,31.87z M140.805,236.543h42.071
			c13.525,0,13.525-20.967,0-20.967h-35.597c3.014-10.752,5.637-21.658,7.711-32.766h31.811c13.525,0,13.525-20.964,0-20.964
			h-31.313c-1.191-13.546-1.882-27.086-2.204-40.626h34.83c13.522,0,13.522-20.967,0-20.967h-34.975
			c0.094-12.151,0.398-24.308,1.127-36.479c38.506,5.458,77.224,5.146,115.983,3.409c0,0.016,0,0.025,0,0.041
			c0.554,38.517,4.896,76.518,12.03,114.336c-0.422,2.184-0.092,4.623,1.406,7.18c9.231,15.813,18.688,31.481,28.279,47.068
			c-55.299,30.818-118.622,45.082-179.867,24.709C135.183,252.589,138.111,244.607,140.805,236.543z M411.509,404.914
			c-0.122,0.157-0.265,0.27-0.387,0.432c-0.426,0.614-0.873,1.214-1.335,1.792c-0.111,0.122-0.224,0.234-0.391,0.406
			c-0.549,0.549-1.117,1.066-1.712,1.569c0.021-0.01-1.777,1.27-1.833,1.376c-3.372,2.047-5.52,2.483-9.938,2.905
			c-1.184,0.116-2.255,0.533-3.255,1.076c-0.376,0.025-0.731,0-1.127,0.066c-107.354,16.717-214.027,38.46-323.193,27.964
			c-0.307-0.035-0.576,0.011-0.874,0c-0.188-0.03-0.366-0.086-0.551-0.102c-1.155-0.086-2.298-0.238-3.443-0.396
			c0.135-0.051-2.247-0.584-2.658-0.722c-0.305-0.111-0.592-0.243-0.889-0.37c-0.13-0.081-0.328-0.203-0.612-0.366
			c-0.271-0.183-0.521-0.386-0.782-0.584c-0.104-0.116-0.264-0.284-0.513-0.543c-0.094-0.092-0.198-0.162-0.287-0.254
			c-3.499-6.835-3.27-13.269,0.599-20.251c0.442-0.808,0.785-1.646,1.069-2.493c0.713-0.848,1.374-1.782,1.889-2.92
			c20.19-44.91,43.767-88.402,62.909-133.521c67.197,23.395,138.171,7.657,198.859-26.339
			c28.589,45.737,58.29,90.778,87.701,136.008c0.106,0.158,0.233,0.279,0.34,0.432C412.717,395.357,413.622,399.785,411.509,404.914
			z"/>
	</g>
</g>
<g>
</g>
<g>
</g>
<g>
</g>
<g>
</g>
<g>
</g>
<g>
</g>
<g>
</g>
<g>
</g>
<g>
</g>
<g>
</g>
<g>
</g>
<g>
</g>
<g>
</g>
<g>
</g>
<g>
</g>
</svg>
