<?xml version="1.0" encoding="iso-8859-1"?>
<!-- Generator: Adobe Illustrator 16.0.0, SVG Export Plug-In . SVG Version: 6.00 Build 0)  -->
<!DOCTYPE svg PUBLIC "-//W3C//DTD SVG 1.1//EN" "http://www.w3.org/Graphics/SVG/1.1/DTD/svg11.dtd">
<svg version="1.1" id="Capa_1" xmlns="http://www.w3.org/2000/svg" xmlns:xlink="http://www.w3.org/1999/xlink" x="0px" y="0px"
	 width="445.668px" height="445.668px" viewBox="0 0 445.668 445.668" style="enable-background:new 0 0 445.668 445.668;"
	 xml:space="preserve">
<g>
	<g>
		<path d="M441.962,129.973c-0.508-2.526-1.574-5.04-3.493-7.378c-26.183-31.933-55.716-62.835-79.166-97.279
			C346.074,5.882,332.852,9.741,311.758,8.396c-22.582-1.442-45.271-1.404-67.883-2.013c-45.493-1.227-90.997-1.658-136.496-2.76
			c-25.89-0.635-51.78-1.661-77.645-3.135c-0.305-0.018-0.566,0.045-0.868,0.045c-8.198-2.242-18.25,2.643-18.25,14.767
			c0,136.524,3.062,273.586-10.514,409.524c-0.993,9.973,5.408,14.97,12.423,15.127c1.186,0.391,2.438,0.681,3.826,0.741
			c137.266,6.135,274.638,5.281,411.981,4.23c8.373-0.062,12.918-6.622,13.705-13.762c0.341-1.305,0.589-2.691,0.635-4.225
			c2.859-96.634,4.55-193.304,0.955-289.942C443.526,134.284,442.912,131.958,441.962,129.973z M249.634,38.3
			c6.022,0.145,12.04,0.333,18.062,0.498c-0.69,29.198-0.838,58.399-0.868,87.607H248.09
			C248.979,97.042,249.954,67.689,249.634,38.3z M110.063,35.388c36.955,0.993,73.925,1.519,110.893,2.252
			c0.398,34.198-0.982,68.345-1.955,102.524c-0.074,2.59,0.322,4.842,1.069,6.774c1.478,6.106,5.863,11.217,13.274,11.217h46.834
			c6.119,0,10.171-3.499,12.238-8.152c1.858-2.465,3.052-5.715,3.052-9.839c0-33.486,0.111-66.963,0.894-100.435
			c7.333,0.264,14.67,0.511,22.008,0.848c-0.624,48.596,0.056,97.165,1.488,145.73c-70.208-2.325-140.559,2.521-210.528-5.189
			C110.53,132.547,110.183,83.969,110.063,35.388z M316.587,413.834c-0.198-5.397-0.213-10.796,0.005-16.193
			c12.259-1.798,25.461-0.563,37.531,2.325c0.727,4.551,1.326,9.12,1.96,13.69C342.916,413.728,329.754,413.799,316.587,413.834z
			 M414.373,413.275c-10.719,0.081-21.438,0.152-32.153,0.219c-1.559-9.115-2.341-18.347-4.286-27.411
			c-0.954-4.458-4.91-7.789-9.079-9.079c-21.054-6.495-46.646-8.831-68.009-2.601c-5.973,1.742-8.974,6.622-9.542,12.538
			c-0.868,8.988-1.046,17.956-0.716,26.929c-86.813,0.081-173.619-0.803-260.389-4.383c11.367-125.131,9.323-251.154,9.12-376.793
			c14.018,0.733,28.043,1.305,42.066,1.797c0.129,52.87,0.625,105.736-0.988,158.585c-0.149,4.945,1.424,8.663,3.885,11.212
			c2.277,3.488,5.746,6.129,10.458,6.774c79.057,10.826,158.646,3.687,238.01,7.412c1.92,0.089,3.59-0.239,5.113-0.785
			c6.119-1.125,11.426-6.146,11.137-15.091c-1.595-48.363-2.402-96.715-2.072-145.096c22.577,28.053,45.326,55.934,68.156,83.738
			C418.309,231.911,416.948,322.608,414.373,413.275z"/>
		<path d="M59.91,342.742c0,13.457-0.154,26.883-1.3,40.299c-1.419,16.712,24.59,16.575,26,0c1.145-13.416,1.3-26.842,1.3-40.299
			C85.91,325.976,59.91,325.976,59.91,342.742z"/>
	</g>
</g>
<g>
</g>
<g>
</g>
<g>
</g>
<g>
</g>
<g>
</g>
<g>
</g>
<g>
</g>
<g>
</g>
<g>
</g>
<g>
</g>
<g>
</g>
<g>
</g>
<g>
</g>
<g>
</g>
<g>
</g>
</svg>
