<?xml version="1.0" encoding="iso-8859-1"?>
<!-- Generator: Adobe Illustrator 16.0.0, SVG Export Plug-In . SVG Version: 6.00 Build 0)  -->
<!DOCTYPE svg PUBLIC "-//W3C//DTD SVG 1.1//EN" "http://www.w3.org/Graphics/SVG/1.1/DTD/svg11.dtd">
<svg version="1.1" id="Capa_1" xmlns="http://www.w3.org/2000/svg" xmlns:xlink="http://www.w3.org/1999/xlink" x="0px" y="0px"
	 width="466.626px" height="466.626px" viewBox="0 0 466.626 466.626" style="enable-background:new 0 0 466.626 466.626;"
	 xml:space="preserve">
<g>
	<g>
		<path d="M464.101,119.643c-0.355-4.822-3.25-7.925-6.794-9.372c-1.463-0.838-3.199-1.371-5.297-1.371
			c-5.565-0.005-11.136-0.058-16.706-0.073c-0.594-8.201-2.001-16.328-3.95-24.326c-1.377-5.651-5.941-7.8-10.4-7.363
			c-0.69-0.149-1.427-0.249-2.214-0.264c-65.795-1.285-131.591-2.376-197.378-0.079c-1.94-5.037-3.9-9.727-5.875-13.258
			c-1.531-2.734-3.671-4.248-5.977-4.887c-1.579-1.092-3.555-1.78-5.984-1.78c-45.608,0-118.073-0.124-163.666-1.054
			c-1.638-1.016-3.534-1.635-5.568-1.635H15.492c-5.157,0-9.557,3.793-10.534,8.696c-0.8,1.34-1.379,2.897-1.554,4.735
			c-8.737,91.259,2.204,219.866,1.34,311.25c-0.066,7.297,5.85,10.709,11.497,10.323c0.62,0.173,1.249,0.341,1.935,0.417
			c135.112,15.833,298.055,17.56,433.84,22.835c6.149,0.239,9.541-3.859,10.227-8.536c1.178-1.609,1.884-3.687,1.858-6.235
			C463.131,313.914,470.24,203.318,464.101,119.643z M412.936,97.543c0.695,3.707,1.244,7.424,1.559,11.184
			c-60.667-0.353-121.328-1.331-181.984-2.412c-1.161-2.544-2.372-5.642-3.616-8.976C290.236,95.436,351.588,96.358,412.936,97.543z
			 M442.601,390.606c-129.96-4.905-287.012-6.967-416.348-21.581c0.045-85-9.044-207.212-2.133-292.096
			c0.259,0.023,0.495,0.089,0.769,0.094c49.14,1.206,125.149,1.333,174.304,1.344c5.522,9.711,11.212,29.767,15.465,40.11
			c0.843,2.044,2.049,3.85,3.562,5.221c1.727,2.311,4.416,3.948,8.143,4.009c72.303,1.29,144.608,2.501,216.928,2.648
			C447.988,208.106,442.108,312.776,442.601,390.606z"/>
		<path d="M330.764,306.484c-15.265-16.869-30.428-33.809-45.077-51.206l44.295-44.295c4.921-4.921,3.356-11.212-0.6-14.871
			c-0.345-0.609-0.751-1.211-1.254-1.79c-10.806-12.604-22.511-24.361-34.251-36.102c-10.562-10.572-21.571,10.092-28.162,16.219
			c-13.432,12.489-17.397,15.998-30.824,28.49c-12.398-12.492-28.475-28.929-40.223-42.03c-2.806-3.131-6.165-3.844-9.191-3.055
			c-2.519-0.129-5.149,0.729-7.473,3.055l-30.549,30.549c-4.743,4.74-3.474,10.768,0.165,14.48c0.447,0.749,0.982,1.483,1.686,2.186
			c13.368,13.368,25.245,30.655,38.011,44.595c-16.11,17.367-27.447,34.332-43.439,51.806c-5.82,6.353-1.859,14.686,4.133,17.285
			c9.224,10.755,19.177,20.83,29.191,30.854c3.707,3.706,8.195,3.717,11.753,1.817c1.381-0.513,2.734-1.376,3.986-2.742
			c15.704-17.225,32.037-33.819,48.485-50.312c14.005,16.798,28.538,33.124,43.163,49.389c3.899,4.326,8.851,4.021,12.517,1.478
			c1.731-0.32,3.463-1.041,5.078-2.407c11.689-9.876,18.804-16.772,30.427-26.726c5.378-4.601,3.829-10.811-0.299-14.457
			C331.9,307.937,331.408,307.195,330.764,306.484z M293.628,329.539c-14.731-16.412-29.341-32.931-43.29-50.028
			c-2.874-3.52-6.434-4.129-9.592-3.042c-2.392-0.021-4.872,0.843-7.066,3.042c-16.661,16.666-33.243,33.403-49.279,50.663
			c-6.157-6.23-12.154-12.624-17.971-19.18c15.874-17.031,26.918-33.718,42.607-50.922c4.456-4.896,3.141-10.958-0.417-14.686
			c-0.383-0.681-0.858-1.341-1.435-1.98c-12.537-13.995-24.272-31.237-37.521-44.544l16.399-16.399
			c12.708,13.814,29.706,31.001,43.003,44.298c14.777,14.731,53.552-50.153,59.092-44.534c6.779,6.881,13.492,13.817,19.937,21.013
			l-42.143,42.138c-0.909,0.908-1.533,1.878-2.026,2.854c-2.798,3.777-3.59,9.231,0.178,13.812
			c14.899,18.067,30.468,35.552,46.149,52.934C303.429,321.093,300.499,323.47,293.628,329.539z"/>
	</g>
</g>
<g>
</g>
<g>
</g>
<g>
</g>
<g>
</g>
<g>
</g>
<g>
</g>
<g>
</g>
<g>
</g>
<g>
</g>
<g>
</g>
<g>
</g>
<g>
</g>
<g>
</g>
<g>
</g>
<g>
</g>
</svg>
