<?xml version="1.0" encoding="iso-8859-1"?>
<!-- Generator: Adobe Illustrator 16.0.0, SVG Export Plug-In . SVG Version: 6.00 Build 0)  -->
<!DOCTYPE svg PUBLIC "-//W3C//DTD SVG 1.1//EN" "http://www.w3.org/Graphics/SVG/1.1/DTD/svg11.dtd">
<svg version="1.1" id="Capa_1" xmlns="http://www.w3.org/2000/svg" xmlns:xlink="http://www.w3.org/1999/xlink" x="0px" y="0px"
	 width="466.625px" height="466.626px" viewBox="0 0 466.625 466.626" style="enable-background:new 0 0 466.625 466.626;"
	 xml:space="preserve">
<g>
	<g>
		<path d="M464.097,119.641c-0.351-4.822-3.25-7.925-6.789-9.372c-1.463-0.838-3.204-1.371-5.302-1.371
			c-5.565-0.005-11.136-0.058-16.701-0.073c-0.589-8.201-2.001-16.328-3.95-24.326c-1.382-5.651-5.937-7.8-10.4-7.363
			c-0.695-0.149-1.422-0.249-2.214-0.264c-65.795-1.285-131.586-2.376-197.373-0.079c-1.938-5.037-3.9-9.727-5.875-13.258
			c-1.528-2.734-3.671-4.248-5.974-4.887c-1.582-1.092-3.557-1.78-5.984-1.78c-45.608,0-118.073-0.124-163.666-1.054
			c-1.638-1.016-3.537-1.635-5.568-1.635H15.491c-5.16,0-9.552,3.793-10.535,8.696c-0.797,1.351-1.378,2.907-1.556,4.74
			c-8.729,91.259,2.207,219.867,1.343,311.25c-0.069,7.302,5.854,10.71,11.501,10.318c0.62,0.183,1.242,0.346,1.935,0.427
			c135.107,15.823,298.052,17.55,433.837,22.83c6.145,0.239,9.541-3.858,10.231-8.53c1.168-1.615,1.879-3.687,1.854-6.246
			C463.127,313.911,470.242,203.315,464.097,119.641z M412.937,97.541c0.7,3.707,1.244,7.424,1.559,11.184
			c-60.667-0.353-121.328-1.331-181.984-2.412c-1.158-2.544-2.372-5.642-3.613-8.976C290.232,95.434,351.584,96.355,412.937,97.541z
			 M442.602,390.604c-129.955-4.905-287.012-6.967-416.343-21.581c0.048-85-9.042-207.212-2.13-292.096
			c0.259,0.023,0.493,0.089,0.765,0.094c49.137,1.206,125.149,1.333,174.304,1.344c5.522,9.711,11.21,29.767,15.465,40.11
			c0.84,2.044,2.046,3.85,3.56,5.221c1.727,2.311,4.416,3.948,8.145,4.009c72.306,1.29,144.605,2.501,216.932,2.648
			C447.985,208.104,442.105,312.773,442.602,390.604z"/>
		<path d="M315.84,235.258c-1.711-1.32-3.828-2.039-6.286-2.127l-1.655-0.056c-2.666-0.094-2.666-0.094-3.275-19.758
			c-0.203-6.47-0.452-14.518-0.63-15.727c-1.858-12.753-7.246-29.846-22.303-38.847c-7.307-4.375-16.503-6.5-28.091-6.5
			c-6.307,0-12.553,0.571-19.992,1.43c-16.052,1.851-27.35,4.04-37.739,17.019c-10.862,13.566-16.951,29.79-17.605,46.918
			c-0.361,9.313-1.155,13.749-4.733,13.79l-2.45,0.043c-3.027,0.094-5.522,1.132-7.394,3.092c-2.859,2.999-3.266,7.417-3.423,9.072
			c0,0.046-0.061,0.589-0.066,0.63c-0.074,0.492-0.109,0.985-0.109,1.513v98.061c0,1.661,0.294,3.174,0.874,4.505
			c5.631,12.842,15.427,13.472,28.993,14.335l2.778,0.183c13.495,0.925,26.997,1.701,40.507,2.397
			c13.484,0.695,26.977,1.31,40.469,1.894c3.402,0.152,6.622,0.427,9.679,0.701c14,1.208,23.796,2.401,32.402-12.762
			c0.782-1.386,1.265-2.976,1.412-4.712c3.107-35.094,3.366-70.919,3.372-104.602c0-0.853-0.082-1.66-0.224-2.422
			C320.05,241.829,318.669,237.446,315.84,235.258z M210.61,187.545c4.171-5.972,13.698-10.641,20.129-11.544
			c9.669-1.364,19.713-2.09,29.854-2.168c0.127-0.015,0.478-0.053,0.604-0.053c1.005,0,5.199,0.822,9.084,3.328
			c3.58,2.316,6.571,5.939,6.83,7.254c6.022,14.379,7.734,28.544,5.145,43.036c-0.057,0.338-0.097,0.681-0.122,1.018
			c-0.183,2.635-2.682,3.4-11.121,3.4c-0.909,0-1.858-0.016-2.839-0.041c-20.027-0.551-37.673-0.843-53.938-0.878
			c-4.004-0.005-7.853-1.687-10.562-4.608c-2.442-2.636-3.646-5.979-3.39-9.417C201.094,206.072,204.567,196.203,210.61,187.545z
			 M296.63,332.42c-0.467,7.404-6.678,13.213-14.142,13.213c-0.036,0-0.563-0.01-0.6-0.01c-34.932-1.463-61.545-2.854-86.295-4.499
			c-7.536-0.508-13.662-7.068-13.662-14.63V266.93c0-7.652,6.205-13.944,13.832-14.021c5.408-0.061,10.816-0.092,16.219-0.092
			c21.381,0,44.551,0.422,72.932,1.331c7.617,0.254,13.767,6.646,13.716,14.259C298.439,293.482,297.804,313.824,296.63,332.42z"/>
		<path d="M243.093,269.483c-20.53,0-23.102,27.848-7.716,34.825c-0.094,0.508-0.124,1.036-0.083,1.574
			c0.477,6.104,0.134,12.065-1.018,18.077c-0.808,4.164,1.112,8.399,5.446,9.588c3.849,1.066,8.784-1.265,9.592-5.444
			c1.422-7.362,2.168-14.735,1.579-22.226c-0.04-0.523-0.116-1.026-0.238-1.519C266.204,297.504,263.69,269.483,243.093,269.483z"/>
	</g>
</g>
<g>
</g>
<g>
</g>
<g>
</g>
<g>
</g>
<g>
</g>
<g>
</g>
<g>
</g>
<g>
</g>
<g>
</g>
<g>
</g>
<g>
</g>
<g>
</g>
<g>
</g>
<g>
</g>
<g>
</g>
</svg>
