<?xml version="1.0" encoding="iso-8859-1"?>
<!-- Generator: Adobe Illustrator 16.0.0, SVG Export Plug-In . SVG Version: 6.00 Build 0)  -->
<!DOCTYPE svg PUBLIC "-//W3C//DTD SVG 1.1//EN" "http://www.w3.org/Graphics/SVG/1.1/DTD/svg11.dtd">
<svg version="1.1" id="Capa_1" xmlns="http://www.w3.org/2000/svg" xmlns:xlink="http://www.w3.org/1999/xlink" x="0px" y="0px"
	 width="466.625px" height="466.625px" viewBox="0 0 466.625 466.625" style="enable-background:new 0 0 466.625 466.625;"
	 xml:space="preserve">
<g>
	<g>
		<path d="M464.101,119.64c-0.355-4.822-3.25-7.925-6.799-9.372c-1.458-0.838-3.194-1.371-5.292-1.371
			c-5.57-0.005-11.141-0.058-16.706-0.073c-0.589-8.201-2.001-16.328-3.95-24.326c-1.382-5.651-5.941-7.8-10.396-7.363
			c-0.7-0.149-1.432-0.249-2.219-0.264c-65.79-1.285-131.586-2.376-197.368-0.079c-1.94-5.037-3.905-9.727-5.88-13.258
			c-1.528-2.734-3.671-4.248-5.974-4.887c-1.582-1.092-3.557-1.78-5.987-1.78c-45.608,0-118.071-0.124-163.668-1.054
			c-1.638-1.016-3.537-1.635-5.57-1.635H15.49c-5.16,0-9.554,3.793-10.537,8.696c-0.794,1.351-1.371,2.907-1.548,4.74
			c-8.737,91.259,2.204,219.867,1.343,311.25c-0.068,7.302,5.85,10.71,11.497,10.318c0.617,0.183,1.247,0.346,1.932,0.427
			c135.115,15.823,298.049,17.55,433.84,22.83c6.145,0.239,9.541-3.858,10.231-8.53c1.173-1.615,1.884-3.687,1.858-6.246
			C463.126,313.911,470.24,203.315,464.101,119.64z M412.936,97.541c0.695,3.707,1.238,7.424,1.559,11.184
			c-60.667-0.353-121.328-1.331-181.984-2.412c-1.161-2.544-2.372-5.642-3.613-8.976C290.23,95.433,351.583,96.355,412.936,97.541z
			 M442.596,390.603c-129.955-4.905-287.007-6.967-416.343-21.581c0.045-85-9.042-207.212-2.133-292.096
			c0.261,0.023,0.495,0.089,0.769,0.094c49.14,1.206,125.152,1.333,174.304,1.344c5.522,9.711,11.212,29.767,15.465,40.11
			c0.843,2.044,2.049,3.85,3.562,5.221c1.727,2.311,4.416,3.948,8.143,4.009c72.303,1.29,144.608,2.501,216.928,2.648
			C447.983,208.103,442.104,312.773,442.596,390.603z"/>
		<path d="M324.34,235.814c-0.771-0.224-1.59-0.389-2.493-0.432c-21.262-1.066-42.508-2.242-63.714-4.055v-65.791
			c0-6.51-5.194-9.638-10.237-9.448c-0.635-0.17-1.3-0.302-2.021-0.353c-15.493-1.186-31.019-1.222-46.555-1.227
			c-13.987,0-7.597,20.959-7.904,29.368c-0.625,17.154-0.927,29.255-1.541,46.413c-16.468-0.061-37.983-0.302-54.436-1.196
			c-3.925-0.213-6.624,1.534-8.107,4.068c-1.752,1.579-2.922,3.892-2.922,6.959v40.436c0,6.276,4.832,9.43,9.694,9.476
			c0.79,0.198,1.633,0.33,2.557,0.33c17.697,0,40.434,0.137,58.11,0.914c0.831,22.155,1.112,44.326,2.09,66.48
			c0.353,8.055,8.49,10.948,14.175,8.704c13.223,1.011,26.477,1.097,39.74,1.097c4.905,0,7.881-2.96,8.982-6.57
			c0.574-1.26,0.899-2.728,0.817-4.459c-1-21.789-1.178-43.589-1.208-65.389c20.383,1.854,40.807,3.041,61.25,4.118
			c5.449,0.284,8.521-3.199,9.263-7.303c0.939-1.351,1.604-2.976,1.762-4.956c1.198-14.269,1.351-23.541,2.453-37.82
			C334.612,238.579,329.479,235.491,324.34,235.814z M312.539,275.211c-20.612-1.117-41.208-2.377-61.754-4.459
			c-4.229-0.426-6.992,1.529-8.358,4.337c-1.604,1.569-2.671,3.778-2.671,6.692c0,22.049,0.111,44.098,0.914,66.141
			c-8.196-0.051-16.392-0.31-24.577-0.797c-0.765-21.779-1.059-43.574-2.064-65.344c-0.284-6.189-5.167-9.333-9.988-9.444
			c-0.701-0.183-1.455-0.315-2.262-0.355c-17.549-0.965-40.174-1.168-57.75-1.209V249.07c17.555,0.726,40.18,0.853,57.77,0.858
			c19.533-0.036,2.257-75.789,9.641-75.733c9.039,0.069,18.075,0.213,27.099,0.714v62.929c0,1.208,0.224,2.255,0.546,3.234
			c0.647,4.347,3.735,8.485,9.255,9.023c21.82,2.098,43.686,3.362,65.566,4.484C313.433,263.141,313.071,266.655,312.539,275.211z"
			/>
	</g>
</g>
<g>
</g>
<g>
</g>
<g>
</g>
<g>
</g>
<g>
</g>
<g>
</g>
<g>
</g>
<g>
</g>
<g>
</g>
<g>
</g>
<g>
</g>
<g>
</g>
<g>
</g>
<g>
</g>
<g>
</g>
</svg>
