<?xml version="1.0" encoding="iso-8859-1"?>
<!-- Generator: Adobe Illustrator 16.0.0, SVG Export Plug-In . SVG Version: 6.00 Build 0)  -->
<!DOCTYPE svg PUBLIC "-//W3C//DTD SVG 1.1//EN" "http://www.w3.org/Graphics/SVG/1.1/DTD/svg11.dtd">
<svg version="1.1" id="Capa_1" xmlns="http://www.w3.org/2000/svg" xmlns:xlink="http://www.w3.org/1999/xlink" x="0px" y="0px"
	 width="466.623px" height="466.622px" viewBox="0 0 466.623 466.622" style="enable-background:new 0 0 466.623 466.622;"
	 xml:space="preserve">
<g>
	<g>
		<path d="M464.1,119.639c-0.355-4.822-3.25-7.925-6.799-9.372c-1.458-0.838-3.194-1.371-5.292-1.371
			c-5.57-0.005-11.136-0.058-16.706-0.073c-0.594-8.201-2.001-16.328-3.95-24.326c-1.382-5.651-5.941-7.8-10.4-7.363
			c-0.695-0.149-1.427-0.249-2.219-0.264c-65.79-1.285-131.586-2.376-197.368-0.079c-1.938-5.037-3.9-9.727-5.875-13.258
			c-1.528-2.734-3.671-4.248-5.974-4.887c-1.582-1.092-3.557-1.78-5.984-1.78c-45.608,0-118.073-0.124-163.666-1.054
			c-1.638-1.016-3.537-1.635-5.568-1.635H15.489c-5.16,0-9.557,3.793-10.535,8.696c-0.797,1.351-1.378,2.907-1.551,4.74
			c-8.734,91.259,2.201,219.867,1.343,311.25c-0.068,7.302,5.85,10.71,11.497,10.318c0.62,0.183,1.242,0.346,1.935,0.427
			c135.112,15.823,298.046,17.55,433.837,22.83c6.145,0.239,9.541-3.858,10.227-8.53c1.178-1.615,1.884-3.687,1.858-6.246
			C463.125,313.909,470.235,203.313,464.1,119.639z M412.935,97.539c0.7,3.707,1.238,7.424,1.559,11.184
			c-60.667-0.353-121.328-1.331-181.984-2.412c-1.158-2.544-2.372-5.642-3.613-8.976C290.225,95.432,351.578,96.354,412.935,97.539z
			 M442.6,390.602c-129.955-4.905-287.007-6.967-416.343-21.581c0.048-85-9.042-207.212-2.13-292.096
			c0.259,0.023,0.493,0.089,0.77,0.094c49.137,1.206,125.145,1.333,174.299,1.344c5.522,9.711,11.215,29.767,15.465,40.11
			c0.84,2.044,2.046,3.85,3.56,5.221c1.727,2.311,4.416,3.948,8.145,4.009c72.301,1.29,144.605,2.501,216.926,2.648
			C447.983,208.102,442.097,312.771,442.6,390.602z"/>
		<path d="M352.492,218.58c-0.93-0.259-1.914-0.447-3.021-0.447H124.577c-8.6,0-11.659,8.539-9.224,14.675
			c-0.256,1.496-0.163,3.156,0.498,4.986c3.463,9.648-0.213,19.586,0.932,29.731c0.634,5.632,4.252,10.4,10.399,10.4
			c0.447,0,0.899-0.076,1.346-0.147c0.417,0.051,0.808,0.142,1.254,0.147c71.93,1.36,149.044,3.783,220.993,3.899
			c6.668,0.011,10.014-5.124,10.05-10.293c0.208-0.833,0.351-1.727,0.351-2.706c0-13.457,0.152-26.883,1.3-40.299
			C363.048,221.665,357.843,218.377,352.492,218.58z M340.426,260.94c-66.318-0.3-137.806-2.355-204.114-3.666
			c-0.835-6.19,3.298-12.324,1.666-18.342h202.998C340.594,246.266,340.477,253.598,340.426,260.94z"/>
	</g>
</g>
<g>
</g>
<g>
</g>
<g>
</g>
<g>
</g>
<g>
</g>
<g>
</g>
<g>
</g>
<g>
</g>
<g>
</g>
<g>
</g>
<g>
</g>
<g>
</g>
<g>
</g>
<g>
</g>
<g>
</g>
</svg>
