<?xml version="1.0" encoding="iso-8859-1"?>
<!-- Generator: Adobe Illustrator 16.0.0, SVG Export Plug-In . SVG Version: 6.00 Build 0)  -->
<!DOCTYPE svg PUBLIC "-//W3C//DTD SVG 1.1//EN" "http://www.w3.org/Graphics/SVG/1.1/DTD/svg11.dtd">
<svg version="1.1" id="Capa_1" xmlns="http://www.w3.org/2000/svg" xmlns:xlink="http://www.w3.org/1999/xlink" x="0px" y="0px"
	 width="486.302px" height="486.302px" viewBox="0 0 486.302 486.302" style="enable-background:new 0 0 486.302 486.302;"
	 xml:space="preserve">
<g>
	<g>
		<path d="M298.58,386.622c-28.381-101.793-64.739-200.458-96.151-301.081c-0.759-2.432-2.054-4.179-3.603-5.334
			c-2.907-2.153-6.744-1.93-7.472-2.085c-0.427-0.089-0.869-0.152-1.335-0.173c-25.558-1.097-50.996,0.104-76.459,2.585
			c-0.734,0.074-1.419,0.219-2.06,0.437c-1.107,0.368-3.958,1.077-5.746,2.59c-0.957,0.805-1.815,1.92-2.506,3.385
			C57.432,183.599,25.692,287.717,0.358,393.085c-0.635,2.646-0.386,4.977,0.437,6.901c1.528,3.569,5.824,6.129,7.541,6.84
			c0.968,0.401,2.059,0.63,3.28,0.64c20.472,0.102,51.328,1.204,71.8,1.295c2.635,0.011,4.689-0.985,6.157-2.549
			c2.593-2.758,3.057-6.754,3.405-7.505c0.203-0.438,0.378-0.899,0.53-1.407l12.624-42.249c1.646-5.499,7.625-10.227,13.36-10.598
			c16.171-1.035,32.336-2.279,48.51-3.315c5.733-0.366,12.124,3.691,14.371,8.978c4.793,11.299,9.922,22.395,15.549,33.2
			c2.651,5.093,4.784,12.02,6.749,14.513c1.087,1.376,2.689,2.402,4.867,2.818c19.505,3.722,31.578,5.605,48.814,4.712
			c5.738-0.294,10.893-0.649,11.553-0.554c0.386,0.057,0.782,0.087,1.203,0.087c7.074-0.005,14.3-0.157,21.003-2.95
			c2.076-0.868,3.864-2.315,5.078-4.164c2.031-3.067,1.914-7.398,1.822-8.739C298.946,388.261,298.808,387.459,298.58,386.622z
			 M277.466,382.874c-0.188,0-0.366,0.011-0.564,0.036c-19.377,2.763-31.244,2.636-48.113,0.157
			c-5.685-0.838-12.538-5.733-15.186-10.826c-7.97-15.351-14.965-31.275-21.401-47.525c-0.863-2.178-2.08-3.615-3.474-4.453
			c-2.719-1.64-5.834-0.624-6.192-0.649c-0.213-0.016-0.427-0.025-0.655-0.016c-26.276,1.422-52.499,3.799-78.774,5.164
			c-1.439,0.076-2.709,0.452-3.796,1.036c-1.927,1.046-4.095,3.488-5.022,4.972c-0.516,0.827-0.947,1.782-1.275,2.874
			c-4.417,14.787-8.833,29.569-13.248,44.346c-1.643,5.5-7.632,9.902-13.373,9.801c-10.92-0.193-23.983-0.457-34.903-0.665
			c-5.741-0.106-9.295-4.713-7.904-10.288c22.844-91.557,50.902-181.802,89.677-266.528c2.392-5.22,9.011-9.874,14.736-10.315
			c16.173-1.244,32.349-1.889,48.563-1.686c5.741,0.074,11.792,4.689,13.533,10.166c28.071,88.255,59.306,175.258,85.081,264.408
			C276.765,378.395,277.781,382.874,277.466,382.874z"/>
		<path d="M159.718,194.087c-0.681-2.001-1.727-3.529-2.973-4.639c-2.306-2.044-5.71-2.562-6.614-2.765
			c-0.541-0.12-1.094-0.188-1.666-0.188c-4.327,0.005-8.724,0.239-12.89,1.658c-0.521,0.178-1.008,0.406-1.476,0.678
			c-0.777,0.447-3.572,1.503-5.258,3.545c-0.904,1.097-1.623,2.519-2.06,4.291c-7.195,29.181-15.152,58.084-24.331,86.577
			c-1.5,4.667,0.018,8.339,2.732,10.472c4.517,3.554,10.055,1.294,10.332,1.314c0.162,0.011,0.327,0.016,0.505,0.005
			c17.768-1.243,35.531-2.559,53.288-3.874c0.736-0.056,1.415-0.208,2.042-0.427c1.094-0.381,2.387-0.929,3.001-1.03
			c0.614-0.107,6.142,0.116,9.323-3.981c1.696-2.184,2.486-5.24,1.523-8.933C177.887,248.77,169,221.356,159.718,194.087z
			 M153.817,271.625c-6.152,0.452-12.299,0.898-18.445,1.341c-5.73,0.411-9.001-3.702-7.368-9.206
			c4.55-15.356,8.792-30.809,12.796-46.357c1.432-5.562,2.798-10.098,3.095-10.112c0.297-0.016,2.024,4.382,3.827,9.838
			c4.791,14.48,9.381,29.041,13.634,43.722C162.942,266.37,159.54,271.204,153.817,271.625z"/>
		<path d="M287.236,165.067c-1.666,0.244-3.026,0.787-4.098,1.539c-1.996,1.407-4.626,5.185-5.434,8.125
			c-0.473,1.719-0.538,3.593-0.157,5.459c1.208,5.975,2.62,11.908,3.828,17.882c0.112,0.536,0.284,1.046,0.498,1.523
			c0.36,0.805,0.538,2.445,0.533,3.766c0,0.784,0.076,1.579,0.243,2.376c0.655,3.092,1.555,6.119,2.621,9.089
			c1.767,4.923,4.088,13.259,7.937,16.346c2.163,1.732,5.022,2.679,8.404,2.133c29.519-4.799,60.92-8.704,87.092,2.689
			c5.267,2.292,4.545,4.788-1.188,5.235c-42.959,3.341-88.204,26.207-91.977,71.812c-2.387,28.848,14.533,49.952,36.276,66.734
			c23.974,18.515,56.265,20.303,85.356,13.838c5.611-1.249,10.217-0.93,10.49,1.102c0.27,2.042,0.27,7.755,3.271,10.989
			c1.641,1.772,4.032,2.94,7.181,2.94h30.65c0.543,0,1.046-0.051,1.533-0.122c0.844-0.132,5.287-0.442,8.268-3.347
			c1.655-1.614,2.793-3.859,2.971-6.748c3.717-59.651,14.178-128.438-16.336-183.115
			C430.297,152.765,347.836,156.206,287.236,165.067z M462.629,377.841c-0.468,5.729-4.058,10.369-8.049,10.369
			c-3.996,0-7.444-2.569-7.495-5.743c-0.035-1.919-0.03-3.839-0.03-5.753c0-4.515-2.397-7.479-5.556-8.901
			c-5.235-2.356-14.406,2-19.931,3.6c-20.475,5.916-41.162,6.846-62.145,0.438c-24.521-7.496-47.759-34.449-42.954-60.824
			c8.18-44.89,69.994-56.249,106.154-47.068c5.916,1.504,10.242-1.904,11.924-6.316c2.057-5.367-1.25-11.096-1.869-12.396
			c-0.355-0.747-0.812-1.483-1.392-2.196c-29.284-36.051-72.574-37.653-114.808-32.4c-5.697,0.709-11.426-1.14-12.492-4.382
			c-0.629-1.92-1.183-3.89-1.625-5.964c-0.106-0.536-0.284-1.041-0.502-1.523c-0.371-0.808-0.549-2.456-0.544-3.771
			c0.005-0.787-0.065-1.577-0.229-2.372c-0.294-1.467-0.609-2.927-0.919-4.395c-0.523-2.422,3.656-5.012,9.363-5.642
			c56.93-6.256,122.354-1.528,145.789,59.435C471.307,283.65,466.286,332.942,462.629,377.841z"/>
		<path d="M406.706,291.105c-12.73-7.12-28.173-4.845-39.726,3.321c-13.954,9.876-16.955,29.716-7.19,43.229
			c8.633,11.948,26.762,17.066,41.061,14.781c19.043-3.036,26.543-18.209,24.608-33.245
			C424.042,308.131,417.511,297.142,406.706,291.105z M404.714,325.528c-0.121,0.452-0.259,0.884-0.411,1.29
			c-4.179,11.02-20.601,4.194-27.903-0.563c-3.585-2.331,0.274-10.537,2.006-12.594c2.945-3.483,8.582-6.271,13.178-6.058
			C400.323,308.009,406.873,317.307,404.714,325.528z"/>
	</g>
</g>
<g>
</g>
<g>
</g>
<g>
</g>
<g>
</g>
<g>
</g>
<g>
</g>
<g>
</g>
<g>
</g>
<g>
</g>
<g>
</g>
<g>
</g>
<g>
</g>
<g>
</g>
<g>
</g>
<g>
</g>
</svg>
