<?xml version="1.0" encoding="iso-8859-1"?>
<!-- Generator: Adobe Illustrator 16.0.0, SVG Export Plug-In . SVG Version: 6.00 Build 0)  -->
<!DOCTYPE svg PUBLIC "-//W3C//DTD SVG 1.1//EN" "http://www.w3.org/Graphics/SVG/1.1/DTD/svg11.dtd">
<svg version="1.1" id="Capa_1" xmlns="http://www.w3.org/2000/svg" xmlns:xlink="http://www.w3.org/1999/xlink" x="0px" y="0px"
	 width="467.276px" height="467.276px" viewBox="0 0 467.276 467.276" style="enable-background:new 0 0 467.276 467.276;"
	 xml:space="preserve">
<g>
	<g>
		<path d="M379.284,51.144C348.258,24.297,309.568,13.46,269.579,8.672C163.069-25.3,68.062,44.959,26.578,142.38
			c-44.712,105.002-23.435,222.217,73.516,287.698c98.98,66.846,235.022,39.369,310.942-48.627
			C494.021,285.274,473.541,132.719,379.284,51.144z M196.853,432.703c-56.157-7.993-110.636-42.543-139.091-91.805
			c-25.438-44.047-25.225-99.203-13.82-147.312c17.527-73.96,70.566-140.71,139.886-156.686c0.104,0.005,0.193,0.035,0.297,0.035
			c24.943,0.739,51.291,0.782,77.045,3.567c2.438,0.764,4.875,1.523,7.333,2.42c4.058,1.48,7.611,1.29,10.582,0.071
			c27.787,4.677,54.319,13.579,76.957,31.392c50.079,39.405,76.479,110.461,75.032,172.696
			C428.353,364.389,307.974,448.516,196.853,432.703z"/>
		<path d="M169.279,211.913c23.28,0,23.28-36.104,0-36.104C145.999,175.808,145.999,211.913,169.279,211.913z"/>
		<path d="M293.832,213.715c23.287,0,23.287-36.102,0-36.102C270.555,177.613,270.555,213.715,293.832,213.715z"/>
		<path d="M134.855,300.254c-17.034,15.935,8.549,41.411,25.532,25.527c43.302-40.497,99.102-44.783,142.351-1.803
			c16.524,16.422,42.062-9.1,25.527-25.532C270.92,241.467,192.476,246.372,134.855,300.254z"/>
	</g>
</g>
<g>
</g>
<g>
</g>
<g>
</g>
<g>
</g>
<g>
</g>
<g>
</g>
<g>
</g>
<g>
</g>
<g>
</g>
<g>
</g>
<g>
</g>
<g>
</g>
<g>
</g>
<g>
</g>
<g>
</g>
</svg>
