<?xml version="1.0" encoding="iso-8859-1"?>
<!-- Generator: Adobe Illustrator 16.0.0, SVG Export Plug-In . SVG Version: 6.00 Build 0)  -->
<!DOCTYPE svg PUBLIC "-//W3C//DTD SVG 1.1//EN" "http://www.w3.org/Graphics/SVG/1.1/DTD/svg11.dtd">
<svg version="1.1" id="Capa_1" xmlns="http://www.w3.org/2000/svg" xmlns:xlink="http://www.w3.org/1999/xlink" x="0px" y="0px"
	 width="482.999px" height="482.999px" viewBox="0 0 482.999 482.999" style="enable-background:new 0 0 482.999 482.999;"
	 xml:space="preserve">
<g>
	<g>
		<path d="M333.061,31.202C210.965-14.337,68.279,50.148,20.465,169.302C8.902,198.115,0.727,232.645,0.047,263.819
			c-2.549,117.189,99.467,197.6,209.38,202.408c101.265,4.428,210.421-52.553,254.803-145.246
			C519.325,205.919,446.396,73.476,333.061,31.202z M322.569,62.741c18.189,6.282,35.566,15.133,51.668,26.817
			c-0.903,0.817-1.797,1.64-2.711,2.432c-0.438,0.375-0.879,0.747-1.315,1.117c-16.885-1.411-33.773-2.812-50.658-4.225
			C320.554,80.173,321.554,71.46,322.569,62.741z M183.412,61.436c-2.788,7.338-5.321,14.757-7.47,22.308
			c-12.695-0.447-25.207-1.711-37.612-3.839C152.498,71.693,167.635,65.422,183.412,61.436z M44.261,324.175
			c-3.545-8.835-6.479-18.103-8.577-27.924c-7.2-33.748-3.427-69.121,8.501-102.037c14.32,11.705,29.229,22.673,44.183,33.565
			c1.097,16.986,1.285,33.987,1.3,51.008C75.17,294.555,60.028,309.688,44.261,324.175z M239.996,432.606
			c-17.295,1.635-34.611,1.244-51.476-1.184c-3.148-22.186-5.981-44.366-6.454-66.785c16.879-13.233,34.886-24.766,54.07-34.348
			c12.797,11.258,25.812,22.236,39.472,32.433c-9.872,23.385-21.363,45.972-34.556,67.68
			C240.605,431.143,240.296,431.87,239.996,432.606z M449.361,252.79c-1.534,24.415-8.861,46.687-20.276,66.644
			c-6.465-8.521-13.31-16.717-20.611-24.532c5.296-16.61,8.668-33.561,10.709-50.855c9.902-5.479,19.845-10.918,30.052-15.813
			C449.782,236.408,449.879,244.609,449.361,252.79z M401.044,222.418c-3.112,1.732-5.012,4.078-5.986,6.647
			c-1.417,1.94-2.433,4.291-2.712,7.155c-1.914,19.605-5.9,38.623-12.421,57.224c-1.132,3.225-1.056,6.088-0.178,8.516
			c0.482,2.336,1.62,4.666,3.737,6.799c9.968,10.055,19.094,20.774,27.37,32.266c0.569,0.798,1.204,1.534,1.879,2.215
			c-33.845,41.639-86.305,70.248-137.39,83.146c11.207-20.307,21.023-41.274,29.777-62.825c2.453-6.053,0.406-10.821-3.468-13.67
			c-0.985-2.092-2.479-4.052-4.738-5.651c-17.26-12.243-33.078-26.243-48.875-40.283c-5.373-4.773-11.751-4.388-16.6-1.509
			c-1.265,0.224-2.549,0.563-3.859,1.184c-25.055,11.842-47.733,27.223-69.243,44.614c-4.738,3.829-5.504,8.603-3.992,12.807
			c-0.005,0.234-0.065,0.432-0.061,0.671c0.244,21.308,2.742,42.416,5.642,63.484c-42.376-12.339-79.577-38.1-102.89-75.707
			c0.945-0.528,1.869-1.168,2.757-1.98c18.728-16.95,36.572-34.8,53.522-53.522c2.884-3.179,3.9-6.728,3.667-10.109
			c0.238-1.047,0.386-2.158,0.386-3.372c-0.005-20.332-0.142-40.634-1.849-60.91c-0.498-5.937-3.986-9.847-8.307-11.807
			c-0.655-0.701-1.386-1.371-2.234-1.99c-16.773-12.203-33.393-24.532-49.186-37.953c13.025-25.131,30.91-47.854,52.1-66.181
			c24.572,6.266,49.582,9.704,74.992,9.963c1.163,0.01,2.239-0.106,3.25-0.315c19.001-3.925,20.698-35.602,27.162-50.835
			c0.508-1.198,0.858-2.427,1.132-3.656c1.168-0.051,2.331-0.178,3.504-0.203c5.276-0.117,9.242-2.26,11.887-5.393
			c22.242-1.523,44.443-0.229,65.922,4.184c-1.609,14.127-3.306,28.244-4.885,42.376c-0.198,1.767,0.111,3.463,0.746,5.037
			c0.935,6.099,5.312,11.847,13.097,12.497c22.145,1.849,44.29,3.691,66.435,5.54c0.792,0.066,1.503,0.01,2.225-0.036
			c2.966,0.462,5.991,0.015,8.449-1.858c4.743-3.605,9.187-7.47,13.522-11.461c25.243,25.151,42.274,57.732,49.871,92.389
			C430.115,206.686,415.542,214.37,401.044,222.418z"/>
		<path d="M319.929,174.492c-6.23-9.678-11.359-19.743-16.879-29.812c-12.827-23.404-28.366-21.967-52.862-21.962
			c-10.135,0-20.292-1.859-30.427-1.193c-22.745,1.487-27.371,18.809-28.863,37.856c-1.092,13.939-3.204,27.964-5.86,41.69
			c-0.162,0.869-0.198,1.687-0.233,2.499c-1.544,4.534-0.757,9.693,4.057,13.954c17.961,15.868,36.627,30.884,55.528,45.61
			c0.843,0.66,1.727,1.244,2.63,1.767c5.337,4.657,13.609,6.246,20.388,0.219c14.111-12.553,29.006-24.177,43.879-35.8
			c9.236-7.216,22.744-14.193,22.536-27.126c-0.016-0.833-0.081-1.696-0.219-2.58C332.237,190.503,324.742,181.977,319.929,174.492z
			 M256.759,235.194c-14.107-11.146-28.056-22.485-41.64-34.281c2.757-16.057,4.636-32.235,6.2-48.449h52.277
			c8.395,16.259,17.58,32.072,26.959,47.779C285.87,211.795,271.053,223.169,256.759,235.194z"/>
	</g>
</g>
<g>
</g>
<g>
</g>
<g>
</g>
<g>
</g>
<g>
</g>
<g>
</g>
<g>
</g>
<g>
</g>
<g>
</g>
<g>
</g>
<g>
</g>
<g>
</g>
<g>
</g>
<g>
</g>
<g>
</g>
</svg>
