<?xml version="1.0" encoding="iso-8859-1"?>
<!-- Generator: Adobe Illustrator 16.0.0, SVG Export Plug-In . SVG Version: 6.00 Build 0)  -->
<!DOCTYPE svg PUBLIC "-//W3C//DTD SVG 1.1//EN" "http://www.w3.org/Graphics/SVG/1.1/DTD/svg11.dtd">
<svg version="1.1" id="Capa_1" xmlns="http://www.w3.org/2000/svg" xmlns:xlink="http://www.w3.org/1999/xlink" x="0px" y="0px"
	 width="462.594px" height="462.594px" viewBox="0 0 462.594 462.594" style="enable-background:new 0 0 462.594 462.594;"
	 xml:space="preserve">
<g>
	<g>
		<path d="M434.516,77.627c-4.21-3.333-8.186-6.479-11.263-9.547c-8.79-8.762-16.707-18.496-24.364-27.908
			c-9.917-12.187-20.165-24.793-32.296-35.213c-3.184-2.729-6.814-4.119-10.801-4.119l-1.057-0.109
			c-1.965-0.609-3.854-0.838-5.956-0.686c-53.629,3.691-106.15,4.189-150.46,4.189c-18.776,0-37.557-0.104-56.335-0.208
			C125.953,3.94,109.917,3.852,93.88,3.824c-2.666,0-5.101,0.543-7.274,1.597c-3.41,1.285-6.068,3.473-8.143,6.609
			C59.322,40.941,36.958,69.863,8.072,103.047c-4.72,5.423-4.626,10.999-3.722,14.716l0.089,0.37l-0.021,0.379
			c-0.104,2.023,0.081,3.79,0.586,5.57c36.467,128.414,126.142,251.067,246.033,336.5c1.899,1.351,3.946,2.011,6.267,2.011
			c52.028,0.005,184.747-300.855,200.397-347.461c1.162-3.468,1.34-6.822,0.533-10.232
			C455.772,94.463,444.479,85.521,434.516,77.627z M372.524,63.427l1.817-3.626l2.528,3.171c2.469,3.101,4.941,6.251,7.425,9.412
			c7.078,9.029,14.396,18.362,21.602,26.391l3.61,4.019l-5.398,0.312c-15.924,0.914-33.098,1.623-54.029,2.214l-5.464,0.158
			l3.336-4.337C355.492,91.312,365.095,78.152,372.524,63.427z M277.576,35.914c25.491-0.678,48.169-1.706,69.34-3.146l4.702-0.317
			l-2.646,4.856c-0.152,0.249-0.314,0.503-0.437,0.8c-7.576,17.648-18.29,32.708-27.766,45.108L318.9,85.66l-2.097-2.252
			c-6.17-6.614-12.446-13.114-18.733-19.619c-7.383-7.642-15.021-15.542-22.343-23.519l-3.859-4.208L277.576,35.914z M252.45,63.175
			l1.889,2.044c6.896,7.452,13.965,14.742,21.028,22.034c4.697,4.857,9.409,9.711,14.061,14.617l4.154,4.372l-13.828,0.025
			c-20.012,0-40.958-0.188-62.273-0.556l-6.124-0.109l4.332-4.332c10.222-10.222,20.969-21.345,34.848-36.071L252.45,63.175z
			 M140.039,36.668c28.82,0.155,57.625,0.305,86.437,0.109l6.082-0.043l-4.172,4.425c-13.49,14.315-29.503,31.1-46.009,47.081
			l-1.742,1.688l-1.803-1.623c-19.667-17.699-38.684-33.075-58.13-47.012l-6.635-4.753L140.039,36.668z M55.242,97.426
			C64.631,85.939,74.424,73.237,85.176,58.6l1.826-2.485l2.143,2.217c0.874,0.903,1.871,1.736,2.958,2.468
			c15.948,10.771,32.307,23.384,50.008,38.567l5.563,4.773l-32.837-0.914c-19.215-0.541-38.428-1.082-57.635-1.554l-5.31-0.132
			L55.242,97.426z M220.611,395.341c-82.36-71.468-145.258-163.049-177.112-257.885l-1.181-3.514l3.704,0.086
			c23.158,0.541,46.324,1.19,69.49,1.841c17.902,0.5,35.812,1,53.715,1.452l2.387,0.061l0.14,2.382
			c5.461,91.513,23.285,176.513,52.976,252.662l3.824,9.806L220.611,395.341z M308.176,141.465
			c-1.503,76.657-15.133,156.612-42.909,251.626l-2.062,7.063l-2.833-6.799c-31.481-75.626-50.295-160.565-55.927-252.452
			l-0.173-2.818l2.818,0.056c26.652,0.521,50.681,0.776,73.476,0.776c8.333,0,16.661-0.033,24.989-0.111l2.671-0.021
			L308.176,141.465z M414.722,138.786c-28.021,74.662-62.53,135.831-92.602,185.823l-8.358,13.898l3.595-15.817
			c14.747-64.871,22.425-124.411,23.471-182.051l0.046-2.493l2.493-0.061c26.949-0.67,48.799-1.559,68.761-2.808l4.007-0.249
			L414.722,138.786z"/>
	</g>
</g>
<g>
</g>
<g>
</g>
<g>
</g>
<g>
</g>
<g>
</g>
<g>
</g>
<g>
</g>
<g>
</g>
<g>
</g>
<g>
</g>
<g>
</g>
<g>
</g>
<g>
</g>
<g>
</g>
<g>
</g>
</svg>
