<?xml version="1.0" encoding="iso-8859-1"?>
<!-- Generator: Adobe Illustrator 16.0.0, SVG Export Plug-In . SVG Version: 6.00 Build 0)  -->
<!DOCTYPE svg PUBLIC "-//W3C//DTD SVG 1.1//EN" "http://www.w3.org/Graphics/SVG/1.1/DTD/svg11.dtd">
<svg version="1.1" id="Capa_1" xmlns="http://www.w3.org/2000/svg" xmlns:xlink="http://www.w3.org/1999/xlink" x="0px" y="0px"
	 width="506.478px" height="506.478px" viewBox="0 0 506.478 506.478" style="enable-background:new 0 0 506.478 506.478;"
	 xml:space="preserve">
<g>
	<g>
		<path d="M418.104,7.473c-1.549-4.773-5.865-7.63-10.893-7.312c-1.127-0.185-2.305-0.229-3.58-0.03
			c-24.795,3.852-48.809,13.353-71.386,28.241c-43.31-12.131-89.581-11.41-135.564,2.074c-21.647-16.641-47.677-26.37-79.531-29.729
			c-4.877-0.513-8.652,2.024-9.998,6.414c-0.635,0.98-1.087,2.021-1.389,3.161c-7.368,28.719-7.378,56.594-0.041,82.87
			C67.82,141.519,60.546,191.26,84.115,241.024c18.159,38.351,57.61,67.626,106.026,78.894c-4.009,5.52-7.046,11.521-9.069,17.905
			c-1.569,0.147-3.131,0.224-4.654,0.224c-19.723,0-33.918-12.35-48.957-25.421c-4.232-3.687-8.61-7.49-13.139-11.029
			c-14.353-11.197-29.945-16.641-47.672-16.641c-3.182,0-6.49,0.178-9.641,0.519c-0.67,0-1.335,0.065-1.737,0.162l-0.817,0.081
			c-0.421,0.036-0.846,0.071-1.295,0.127c-4.844,0.686-7.99,4.174-8.028,8.882c-0.036,4.966,3.562,10.674,9.402,11.582
			c24.123,7.465,34.573,26.451,45.638,46.551c4.26,7.743,8.673,15.757,13.962,23.236c12.027,17.006,29.714,25.629,52.549,25.629
			c5.626,0,11.705-0.523,18.096-1.555c1.076,14.98-1.163,39.278-23.585,52.766c-4.177,2.504-5.964,6.957-4.677,11.608
			c1.462,5.276,6.231,8.77,11.38,8.074c0.17,0.021,0.404,0.03,0.825,0.03c16.468,0,31.506-4.58,44.044-13.324
			c-3.22,6.804-7.219,12.893-12.096,18.438c-2.875,3.266-3.537,7.551-1.762,11.472c1.808,4.011,5.72,6.692,9.724,6.692
			c0.79,0,1.579-0.102,1.938-0.219c26.662,0,47.558-13.624,59.445-38.547c9.775,24.969,27.005,40.965,52.506,48.8
			c1.097,0.34,2.188,0.518,3.255,0.518c4.17,0,7.811-2.742,9.268-6.987c1.493-4.342,0.33-9.008-2.89-11.775
			c-4.072-6.022-7.251-12.416-9.617-19.357c7.866,5.672,17.722,8.541,29.427,8.541c6.724,0,14.219-0.954,22.282-2.833
			c4.778-1.117,7.739-4.794,7.733-9.608c-0.01-4.895-3.066-9.227-7.394-10.648c-1.224-1.305-2.762-2.254-4.58-2.818
			c-27.67-8.708-25.812-39.521-24.166-66.709c0.284-4.646,0.549-9.109,0.65-13.273c0.396-16.352-0.438-37.161-10.015-55.594
			c60.505-8.887,97.498-35.892,116.266-84.759c18.438-47.984,6.611-108.115-29.396-150.046
			C427.621,55.904,425.858,31.304,418.104,7.473z M436.044,212.902c-11.237,49.259-50.333,77.284-116.194,83.297
			c-4.031,0.365-7.271,2.681-8.932,6.347c-2.971,4.276-2.707,9.486,0.68,13.36c15.442,17.661,14.488,44.32,13.568,70.111
			c-0.802,22.552-1.63,45.738,8.684,62.942c-5.393-4.905-9.109-12.66-11.42-23.613c-2.94-13.929-4.088-28.522-5.195-42.645
			c-0.903-11.512-1.838-23.42-3.742-34.992c-0.797-4.84-4.388-7.968-9.15-7.968c-3.402,0-6.764,1.564-8.988,4.185
			c-2.082,2.458-2.93,5.606-2.396,8.871c1.701,10.359,2.366,21.327,3.072,32.931c0.386,6.394,0.776,12.848,1.36,19.24
			c-0.157,0.635-0.264,1.25-0.31,1.869c-1.503,18.88-2.174,40.472,3.179,61.083c-19.951-22.896-20.302-60.342-20.611-93.755
			c-0.076-7.82-0.137-15.203-0.447-22.252c-0.305-6.692-5.732-10.191-10.942-10.191c-2.98,0-5.764,1.122-7.647,3.093
			c-1.818,1.894-2.712,4.438-2.58,7.327c0.29,6.566,0.452,13.346,0.62,20.262c0.229,9.628,0.467,19.58,1.061,29.447
			c-0.573,1.365-0.843,2.838-0.797,4.382c0.69,24.481-6.5,52.902-28.059,63.724c14.856-30.371,13.606-65.395,12.4-99.33
			c-0.154-4.464-0.317-8.917-0.437-13.34c-0.188-6.729-5.573-10.248-10.806-10.248c-2.973,0-5.771,1.123-7.678,3.078
			c-1.84,1.889-2.767,4.417-2.694,7.312c0.145,5.343,0.384,10.791,0.627,16.29c0.51,11.608,1.031,23.598,0.713,35.338
			c-0.417,0.746-0.724,1.468-0.952,2.244c-4.228,14.574-12.865,25.975-24.684,32.835c10.057-19.475,9.575-41.051,7.129-56.229
			c-0.104-5.373-4.034-10.933-10.45-10.933c-0.879,0-1.785,0.111-2.689,0.319c-8.267,2.006-15.465,2.971-21.995,2.971
			c-22.354,0-36.384-10.897-51.775-40.207c-3.021-5.769-6.078-10.994-9.204-15.727c3.156,2.574,6.307,5.286,9.531,8.063
			c4.223,3.641,8.595,7.404,13.119,10.948c17.659,13.827,36.736,18.515,59.425,14.518c1.371-0.243,2.615-0.716,3.702-1.396
			c2.998-1.178,5.032-3.687,5.74-7.104c2.397-11.553,8.277-20.754,17.481-27.365c4.009-2.874,5.542-7.627,4.009-12.396
			c-1.673-5.205-6.525-8.374-11.273-7.338c-41.989-5.23-77.805-26.548-100.876-60.08c-27.825-40.408-22.755-91.495,13.545-136.661
			c1.201-1.493,1.986-3.204,2.298-5.001c2.361-2.564,3.09-6.007,1.993-9.595c-6.683-21.833-7.485-44.089-2.455-67.966
			c25.692,3.915,47.172,13.289,63.881,27.875c4.154,3.618,10.273,3.448,14.391-0.134c43.81-12.741,86.702-13.025,127.859-0.828
			c2.944,1.222,6.174,0.823,9.038-1.152c19.312-13.287,39.142-21.955,60.545-26.459c5.032,19.51,5.621,38.303,1.798,57.376
			c-0.244,1.221-0.285,2.471-0.112,3.712c-0.305,2.943,0.69,5.81,2.798,8.112C434.831,124.048,446.221,168.308,436.044,212.902z"/>
		<path d="M325.253,133.396c-4.24,0-8.495,0.238-12.634,0.713c-1.534-0.239-3.189-0.099-4.814,0.452
			c-8.917,3.032-22.576,5.23-40.618,6.521c-0.214,0.015-0.412,0.045-0.666,0.094c-0.218-0.043-0.437-0.074-0.675-0.094
			c-18.035-1.295-31.694-3.489-40.616-6.525c-1.623-0.551-3.283-0.686-4.812-0.452c-4.139-0.475-8.386-0.713-12.634-0.713
			c-28.833,0-55.276,10.483-70.729,28.048c-11.852,13.472-16.815,30.732-14.363,49.904c5.959,46.43,40.423,69.002,105.371,69.002
			c12.276,0,24.158-0.711,35.177-1.473c1.148-0.087,2.245-0.33,3.275-0.742c1.031,0.406,2.128,0.655,3.28,0.742
			c11.01,0.762,22.887,1.473,35.171,1.473c64.932,0,99.406-22.572,105.367-69.002c2.458-19.172-2.508-36.427-14.365-49.899
			C380.522,143.885,354.086,133.396,325.253,133.396z M387.961,216.226c-14.681,38.816-47.073,44.052-76.814,44.052
			c-11.035,0-22.358-0.828-33.312-1.635l-7.658-0.554c-0.279-0.021-0.543-0.03-0.817-0.03c-0.975,0-1.93,0.137-2.828,0.4
			c-1.153-0.34-2.392-0.467-3.641-0.37l-7.663,0.554c-10.951,0.807-22.282,1.635-33.316,1.635c-29.747,0-62.132-5.235-76.812-44.052
			c-5.164-13.66-4.222-25.74,2.798-35.901c14.246-20.632,48.992-28.183,72.396-25.395c0.147,0.015,0.297,0.025,0.551,0.025
			c13.266,4.28,31.803,5.994,45.026,6.931l0.776-0.02l0.93,0.005c12.964-0.927,31.742-2.668,44.62-6.911l0.563-0.03
			c23.435-2.788,58.148,4.763,72.402,25.395C392.181,190.485,393.125,202.566,387.961,216.226z"/>
		<path d="M224.262,190.069c0.005-0.625,0.066-1.242-0.048-1.882c-2.511-14.32-23.262-24.311-32.837-10.971
			c-6.738,9.384-5.319,26.124-2.049,36.47c2.965,9.372,11.481,16.526,21.82,14.343c14.767-3.12,14.013-24.803,13.342-36.467
			C224.465,191.031,224.376,190.544,224.262,190.069z M206.998,212.331c-0.125-0.005-0.259,0.005-0.384-0.005
			c0.145-0.033-0.675-0.183-1.249-0.287c-1.787-7.432-3.796-17.783-1.043-25.052c1.45-3.859,4.626,7.013,4.659,7.434
			C209.483,200.266,208.282,206.646,206.998,212.331z"/>
		<path d="M328.259,190.069c0.005-0.625,0.066-1.247-0.046-1.882c-1.975-11.258-11.836-18.288-23.119-16.775
			c-0.188,0.025-0.361,0.079-0.544,0.109c-2.193-0.149-4.443,0.63-6.267,2.174c-4.493,3.816-7.57,9.933-6.834,15.917
			c0.096,0.744,0.279,1.457,0.497,2.143c-0.649,9.209,0.574,18.304,3.036,27.23c0.26,0.947,0.666,1.722,1.133,2.412
			c0.97,1.925,2.768,3.438,4.967,4.339c5.418,2.219,11.466,2.988,17.143,1.3c0.757-0.231,1.447-0.589,2.082-1.006
			c2.098-0.695,3.895-2.308,4.662-5.091c2.641-9.582,4.088-19.426,3.529-29.373C328.462,191.031,328.376,190.544,328.259,190.069z
			 M310.995,212.331c-0.122-0.005-0.26,0.005-0.381-0.005c0.142-0.033-0.676-0.183-1.265-0.287
			c-5.378-1.008-2.082-21.533-0.808-24.963c1.468,0.493,4.312,2.262,4.372,4.08c0.005,0.142-0.025,0.261-0.015,0.406
			C313.294,198.682,312.543,205.499,310.995,212.331z"/>
	</g>
</g>
<g>
</g>
<g>
</g>
<g>
</g>
<g>
</g>
<g>
</g>
<g>
</g>
<g>
</g>
<g>
</g>
<g>
</g>
<g>
</g>
<g>
</g>
<g>
</g>
<g>
</g>
<g>
</g>
<g>
</g>
</svg>
