<?xml version="1.0" encoding="iso-8859-1"?>
<!-- Generator: Adobe Illustrator 16.0.0, SVG Export Plug-In . SVG Version: 6.00 Build 0)  -->
<!DOCTYPE svg PUBLIC "-//W3C//DTD SVG 1.1//EN" "http://www.w3.org/Graphics/SVG/1.1/DTD/svg11.dtd">
<svg version="1.1" id="Capa_1" xmlns="http://www.w3.org/2000/svg" xmlns:xlink="http://www.w3.org/1999/xlink" x="0px" y="0px"
	 width="485.426px" height="485.426px" viewBox="0 0 485.426 485.426" style="enable-background:new 0 0 485.426 485.426;"
	 xml:space="preserve">
<g>
	<g>
		<path d="M407.975,56.987c-1.727-4.784-4.276-9.615-8.023-14.452c-21.602-27.843-63.887-31.748-96.029-36.292
			c-56.514-7.978-119.341-11.149-174.073,8.125C71.375,34.961,70.134,85.746,76.223,139.362
			c5.964,52.493,7.716,116.275,42.903,158.89c19.573,23.699,52.705,44.422,82.319,52.852c1.371,0.386,2.65,0.508,3.89,0.518
			c6.827,1.473,13.665,2.682,20.518,3.661c0.64,10.583,1.331,21.16,2.158,31.723c0.586,7.47-35.368,16.325-41.967,20.337
			c-32.182,19.576-17.098,52.933,11.367,65.44c25.276,11.11,56.254,14.604,83.543,11.633c0.365-0.04,0.68-0.157,1.025-0.218
			c0.559,0.076,1.081,0.198,1.681,0.218c30.458,0.895,58.569-11.131,72.696-39.242c0.595-1.193,0.955-2.356,1.209-3.514
			c0.559-1.473,0.838-3.042,0.64-4.688c-1.899-15.549-7.094-29.741-19.221-40.248c-11.09-9.607-25.11-13.608-39.41-14.984
			c-0.543-8.439-0.857-16.895-0.949-25.38c127.792-35.922,112.432-185.397,112.432-290.755
			C411.062,61.953,409.838,59.115,407.975,56.987z M178.924,32.354c45.4-6.649,92.381-10.425,137.398,0.787
			c19.844,4.946,82.593,26.368,55.619,57.146c-0.076,0.083-0.147,0.162-0.219,0.246c-19.723,22.114-54.527,24.064-82.035,24.471
			c-34.505,0.508-69.085-1.114-103.425-4.494c-24.788-2.445-53.085-6.551-69.985-26.972
			C85.243,46.031,157.668,35.469,178.924,32.354z M303.51,415.751c-0.381-2.133-0.635-4.275-0.965-6.413
			c14.193,2.585,25.634,10.663,28.209,26.08c-10.223,16.728-26.797,22.374-46.606,21.896c-0.99-0.117-2.052-0.132-3.193-0.005
			c-32.104,3.493-67.804,2.98-85.603-25.71c8.422-10.481,20.388-16.479,34.094-17.656c0.376-0.03,0.698-0.142,1.056-0.198
			c0.104,0.965,0.188,1.94,0.297,2.905c1.945,17.163,29.072,17.351,27.106,0c-2.214-19.571-3.59-39.207-4.793-58.854
			c6.139,0.274,12.294,0.351,18.458,0.234c0.31,21.799,1.95,43.422,5.8,64.932C280.436,440.151,306.562,432.844,303.51,415.751z
			 M292.349,329.923c-0.63-0.025-1.229-0.081-1.914-0.02c-27.162,2.412-53.786,1.046-80.431-4.941
			c-0.769-0.173-1.493-0.219-2.221-0.274c-42.904-12.477-68.215-38.658-83.223-71.503c76.083,34.013,172.826,35.282,247.26-2.422
			C359.388,287.624,335.933,317.305,292.349,329.923z M116.89,220.262c36.066-26.357,84.665-35.208,128.183-37.034
			c41.96-1.757,96.939,4.466,127.234,37.519C297.051,264.996,192.511,262.173,116.89,220.262z M382.854,195.621
			c-33.591-29.109-81.045-37.664-125.127-38.537c-50.675-1.003-106.299,9.869-149.566,38.032
			c-4.301-27.414-5.324-56.305-5.689-84.082c25.859,14.851,62.418,20.716,84.83,24.164c54.012,8.302,110.547,1.528,164.014-7.541
			c11.699-1.985,23.531-6.992,33.524-14.091C385.418,140.185,385.57,168.451,382.854,195.621z"/>
	</g>
</g>
<g>
</g>
<g>
</g>
<g>
</g>
<g>
</g>
<g>
</g>
<g>
</g>
<g>
</g>
<g>
</g>
<g>
</g>
<g>
</g>
<g>
</g>
<g>
</g>
<g>
</g>
<g>
</g>
<g>
</g>
</svg>
