<?xml version="1.0" encoding="iso-8859-1"?>
<!-- Generator: Adobe Illustrator 16.0.0, SVG Export Plug-In . SVG Version: 6.00 Build 0)  -->
<!DOCTYPE svg PUBLIC "-//W3C//DTD SVG 1.1//EN" "http://www.w3.org/Graphics/SVG/1.1/DTD/svg11.dtd">
<svg version="1.1" id="Capa_1" xmlns="http://www.w3.org/2000/svg" xmlns:xlink="http://www.w3.org/1999/xlink" x="0px" y="0px"
	 width="447.321px" height="447.321px" viewBox="0 0 447.321 447.321" style="enable-background:new 0 0 447.321 447.321;"
	 xml:space="preserve">
<g>
	<g>
		<path d="M325.391,31.872C281.075,7.229,229.117,2.912,179.465,0.089c-15.823-0.899-34.688,5.21-49.779,9.787
			c-18.512,5.609-35.993,14.444-51.311,26.273c-35.853,27.681-56.409,69.568-67.2,112.696
			c-9.318,37.272-12.654,79.242-7.424,119.582c-0.178,1.935,0.005,3.895,0.744,5.743c6.238,41.345,21.762,80.638,49.647,110.923
			c89.504,97.213,270.395,73.479,351.063-22.444c50.866-60.479,49.993-140.873,20.489-210.906
			C404.896,102.359,372.824,58.249,325.391,31.872z M63.456,90.337c26.04-41.157,68.035-58.955,113.003-61.982
			c-28.759,20.596-50.505,47.901-65.638,78.846c-21.952,4.55-43.599,10.404-64.711,17.539
			C50.824,112.817,56.529,101.272,63.456,90.337z M29.84,257.453c-3.09-33.657-1.618-68.578,6.431-101.659
			c20.279-7.586,41.178-14.036,62.472-19.2c-15.866,47.22-18.139,100.089-7.67,149.788c-21.19-5.53-41.619-13.401-60.667-24.207
			C30.233,260.602,29.984,259.053,29.84,257.453z M152.354,412.799C89.595,396.463,51.474,352.041,36.339,294.441
			c19.852,9.13,40.75,15.64,62.18,20.154c11.923,37.414,31.428,71.884,58.216,99.249
			C155.281,413.494,153.808,413.18,152.354,412.799z M126.946,319.465c19.649,2.615,39.524,3.859,59.242,4.18
			c0.328,28.757,1.564,57.498,4.237,86.234C161.55,386.789,140.283,355.026,126.946,319.465z M186.129,297.955
			c-22.562-0.233-45.346-1.884-67.649-5.678c-13.484-53.512-10.321-112.398,10.57-162.109c21.035-3.836,42.337-6.411,63.693-7.622
			C190.062,181.029,186.495,239.508,186.129,297.955z M193.848,96.558c-16.76,0.82-33.487,2.438-50.107,4.834
			c13.203-21.371,30.356-40.075,51.62-54.565C195.049,63.398,194.503,79.98,193.848,96.558z M327.6,63.548
			c23.282,15.104,41.984,37.06,56.538,61.713c-28.899-10.999-58.874-18.756-89.372-23.519
			c-14.564-25.126-32.424-48.421-52.09-69.096C272.554,37.731,301.463,46.59,327.6,63.548z M221.333,47.974
			c14.924,15.381,28.488,32.037,40.222,49.774c-13.848-1.181-27.756-1.78-41.687-1.8C220.497,79.952,221.015,63.964,221.333,47.974z
			 M218.766,121.765c19.735-0.076,39.434,1.051,58.938,3.473c15.985,30.826,26.375,64.348,28.787,99.929
			c1.544,22.638-1.138,44.057-7.099,64.196c-25.324,3.91-50.856,6.53-76.462,7.825c-3.588,0.183-7.201,0.319-10.821,0.446
			C212.494,239.03,216.092,180.395,218.766,121.765z M216.039,405.705c-2.417-27.386-3.54-54.781-3.852-82.188
			c25.4-0.543,50.922-2.529,76.312-5.946C272.285,351.563,246.565,381.173,216.039,405.705z M346.154,380.909
			c-31.082,21.043-67.883,33.616-105.566,37.795c34.733-29.955,61.987-64.952,77.587-105.729
			c32.677-5.799,64.906-13.954,96.237-24.014C403.906,325.457,380.446,357.682,346.154,380.909z M419.795,260.099
			c-0.441,0.102-0.868,0.147-1.325,0.305c-29.97,10.146-60.61,18.128-91.647,24.136c3.839-16.433,5.937-33.688,5.932-51.861
			c-0.011-35.536-8.78-70.084-23.303-102.321c29.7,5.949,58.716,15.063,86.416,27.716c1.788,0.814,3.545,1.195,5.241,1.267
			c5.469,13.157,9.958,26.53,13.467,39.618C420.141,219.727,421.709,240.31,419.795,260.099z"/>
	</g>
</g>
<g>
</g>
<g>
</g>
<g>
</g>
<g>
</g>
<g>
</g>
<g>
</g>
<g>
</g>
<g>
</g>
<g>
</g>
<g>
</g>
<g>
</g>
<g>
</g>
<g>
</g>
<g>
</g>
<g>
</g>
</svg>
