<?xml version="1.0" encoding="iso-8859-1"?>
<!-- Generator: Adobe Illustrator 16.0.0, SVG Export Plug-In . SVG Version: 6.00 Build 0)  -->
<!DOCTYPE svg PUBLIC "-//W3C//DTD SVG 1.1//EN" "http://www.w3.org/Graphics/SVG/1.1/DTD/svg11.dtd">
<svg version="1.1" id="Capa_1" xmlns="http://www.w3.org/2000/svg" xmlns:xlink="http://www.w3.org/1999/xlink" x="0px" y="0px"
	 width="92.837px" height="92.837px" viewBox="0 0 92.837 92.837" style="enable-background:new 0 0 92.837 92.837;"
	 xml:space="preserve">
<g>
	<g>
		<path d="M53.657,25.726c-1.522-10.824-10.559-14.68-18.508-14.68c-0.942,0-1.904,0.052-2.824,0.151
			c-5.284,0.185-10.39,2.587-13.658,6.426c-2.761,3.244-3.943,7.156-3.42,11.315c1.127,8.945,8.806,15.192,18.673,15.192
			c0,0,0,0,0.001,0c1.079,0,2.17-0.08,3.241-0.236C45.991,42.605,54.936,34.825,53.657,25.726z M38.235,39.773
			c-1.545,0.447-3.121,0.673-4.686,0.673c-5.967,0-11.229-3.323-13.731-8.672c-1.278-2.731-1.387-5.58-0.312-8.239
			c1.317-3.259,4.351-6.069,8.121-7.53c0.147-0.01,0.285-0.035,0.422-0.076c1.463-0.44,2.951-0.755,4.379-0.933
			c0.176-0.006,0.353-0.012,0.528-0.012h0.087c0.226,0,0.444-0.037,0.651-0.109c0.555-0.04,1.108-0.061,1.656-0.061
			c7.692,0,12.961,3.925,14.457,10.769C50.704,29.683,48.359,36.844,38.235,39.773z"/>
		<path d="M47.621,46.941c8.503-4.314,12.831-10.201,13.603-18.474c0.674-7.238-2.665-14.789-8.941-20.269
			c0.84-2.049,1.424-3.92,1.781-5.709c0.123-0.615-0.022-1.214-0.412-1.688C53.247,0.307,52.606,0,51.982,0
			c-0.601,0-1.106,0.275-1.407,0.759c-1.824,1.477-3.948,2.75-6.664,3.996c-2.409-0.524-4.921-0.791-7.47-0.791
			c-11.271,0-21.689,5.108-27.19,13.33c-3.466,5.177-4.009,12.25-1.419,18.46c3.835,9.197,11.535,12.755,18.562,15.021
			c0.34,0.108,0.684,0.129,1.009,0.058c3.304,0.687,6.354,0.846,9.369,0.489c6.365,5.103,14.599,15.291,13.256,22.303
			c-0.612,3.203-3.177,5.503-7.621,6.837c-4.812,1.444-10.726,0.728-15.135-1.821c-2.688-1.554-4.193-3.529-4.472-5.875
			c-0.623-5.248,4.891-11.363,8.232-14.542c0.812-0.771,0.722-1.784,0.267-2.473c-0.273-0.7-0.857-1.149-1.614-1.237
			c-2.364-0.275-4.712-0.833-7.176-1.703c-0.226-0.078-0.452-0.119-0.672-0.119c-0.982,0-1.629,0.769-1.801,1.574
			c-5.952,6.997-14.285,20.209-4.105,30.846c6.431,6.721,16.359,7.725,21.705,7.726h0.001c1.486,0,2.996-0.074,4.486-0.219
			c8.112-0.79,17.843-4.985,20.817-14.39C66.637,66.548,56.146,54.867,47.621,46.941z M59.646,74.714
			c-0.247,7.759-8.203,12.147-15.566,13.67c-2.103,0.435-4.287,0.654-6.494,0.654c-5.792,0-11.45-1.528-15.932-4.304
			c-3.156-1.955-5.448-4.91-6.454-8.32c-2.036-6.907,2.936-13.975,7.599-19.412c1.028,0.314,2.07,0.587,3.109,0.811
			c-5.033,5.256-10.47,12.9-4.486,20.875c3.021,4.025,8.675,6.334,15.514,6.334c1.515,0,3.025-0.113,4.49-0.342
			c6.393-0.99,12.877-5.511,12.951-13.38c0.09-9.707-9.87-18.905-15.815-23.522c-0.487-0.379-1.063-0.494-1.59-0.325
			c-0.17-0.023-0.347-0.028-0.54-0.001c-2.766,0.376-5.667,0.193-8.867-0.56c-0.207-0.049-0.423-0.063-0.628-0.048
			c-5.921-1.975-11.838-4.766-15.124-11.65c-2.604-5.458-2.142-11.511,1.27-16.609c4.371-6.53,13.538-10.749,23.355-10.749
			c2.416,0,4.739,0.259,6.904,0.77c0.412,0.096,0.82,0.068,1.194-0.081c0.308,0.012,0.612-0.047,0.902-0.179
			c1.116-0.505,2.205-1.059,3.251-1.652c-0.133,0.334-0.266,0.656-0.399,0.969c-0.098,0.224-0.15,0.453-0.159,0.684
			c-0.188,0.79,0.08,1.553,0.721,2.052c5.702,4.439,8.712,10.789,8.475,17.877c-0.237,7.09-4.628,12.268-13.815,16.293
			c-0.43,0.188-0.749,0.49-0.928,0.876c-0.591,0.769-0.503,1.713,0.229,2.372C48.822,53.229,60.012,63.303,59.646,74.714z"/>
		<path d="M86.297,45.521c-0.344-1.055-0.587-3.15-0.605-4.262c-0.017-1.041-0.904-1.51-1.705-1.415
			c-0.133-0.038-0.273-0.065-0.434-0.065c-1.735,0-3.464-0.029-5.188-0.182c-0.3-3.284-0.598-3.506-0.896-6.79
			c-0.089-0.979-0.932-1.451-1.697-1.413c-0.135-0.039-0.277-0.067-0.439-0.067c-2.312,0.001-3.577,0.026-5.871,0.329
			c-1.076,0.142-1.535,1.188-1.372,2c-0.095,0.25-0.127,0.538-0.056,0.861c0.565,2.57,0.053,2.087,0.57,4.667
			c-2.028,0.145-3.987,0.569-5.861,1.455c-0.676,0.32-0.853,0.905-0.718,1.451c-0.005,0.052-0.016,0.101-0.016,0.156
			c0.001,1.905,0.043,3.85,0.711,5.656c0.253,0.687,0.835,0.99,1.417,1.004c0.22,0.063,0.463,0.084,0.732,0.031
			c1.237-0.244,2.474-0.436,3.723-0.535c0.009,2.338,0.056,4.726,0.325,7.052c0.109,0.956,0.934,1.426,1.687,1.409
			c0.138,0.041,0.284,0.072,0.451,0.072h6.908c0.792,0,1.25-0.512,1.385-1.107c0.085-0.195,0.127-0.426,0.095-0.702
			c-0.274-2.386-0.317-3.796-0.325-6.195c2.022-0.178,4.048-0.219,6.082-0.22c1.386,0,1.76-1.555,1.135-2.411
			C86.391,46.068,86.391,45.81,86.297,45.521z M77.961,46.079c-0.089,0.01-0.17,0.032-0.25,0.055
			c-0.767-0.035-1.56,0.437-1.56,1.427c0,2.469,0.016,3.953,0.228,6.414h-4.636c-0.178-2.242-0.196-4.543-0.196-6.794
			c0-0.144-0.021-0.272-0.053-0.395c-0.021-0.724-0.494-1.425-1.429-1.414c-1.628,0.019-3.239,0.221-4.842,0.501
			c-0.2-0.98-0.243-1.977-0.252-2.988c1.624-0.611,3.357-0.786,5.094-0.803c0.083-0.001,0.159-0.014,0.234-0.025
			c0.85-0.035,1.741-0.755,1.522-1.848c-0.589-2.944-0.146-2.825-0.784-5.758c1.543-0.126,2.053-0.153,3.604-0.158
			c0.284,3.124,0.568,3.186,0.853,6.31c0.014,0.149,0.05,0.282,0.096,0.408c0.101,0.656,0.562,1.292,1.385,1.401
			c1.955,0.26,3.916,0.315,5.882,0.324c0.095,0.674,0.249,2.375,0.436,3.03C81.511,45.792,79.734,45.871,77.961,46.079z"/>
	</g>
</g>
<g>
</g>
<g>
</g>
<g>
</g>
<g>
</g>
<g>
</g>
<g>
</g>
<g>
</g>
<g>
</g>
<g>
</g>
<g>
</g>
<g>
</g>
<g>
</g>
<g>
</g>
<g>
</g>
<g>
</g>
</svg>
