<?xml version="1.0" encoding="iso-8859-1"?>
<!-- Generator: Adobe Illustrator 16.0.0, SVG Export Plug-In . SVG Version: 6.00 Build 0)  -->
<!DOCTYPE svg PUBLIC "-//W3C//DTD SVG 1.1//EN" "http://www.w3.org/Graphics/SVG/1.1/DTD/svg11.dtd">
<svg version="1.1" id="Capa_1" xmlns="http://www.w3.org/2000/svg" xmlns:xlink="http://www.w3.org/1999/xlink" x="0px" y="0px"
	 width="465.185px" height="465.185px" viewBox="0 0 465.185 465.185" style="enable-background:new 0 0 465.185 465.185;"
	 xml:space="preserve">
<g>
	<g>
		<path d="M255.183,26.388c-1.259-0.279-2.452-0.355-3.601-0.335c-2.315-1-4.961-1.468-7.921-1.051
			C157.708,37.138,77.984,70.77,6.268,119.203c-10.326,6.972-6.568,20.84,1.716,25.044c1.028,2.184,2.679,4.209,5.21,5.799
			c24.844,15.66,51.1,27.421,78.241,36.435c-0.363,1.782-0.602,3.62-0.606,5.626c0,0.193,0.051,0.371,0.056,0.559
			c-0.711,1.478-1.251,3.108-1.439,4.981c-2.658,26.284-3.953,52.537-2.772,78.947c0.386,8.668,7.17,13.102,13.926,13.33
			c15.998,7.941,32.535,14.249,49.36,19.032c1.473,19.9,2.897,39.807,4.235,59.717c-19.807,10.491-29.906,28.706-25.89,50.638
			c0.076,4.697,2.562,9.212,6.779,11.908c10.229,6.535,22.516,10.231,34.693,8.815c0.114-0.016,0.224-0.051,0.34-0.066
			c1.559,0.132,3.156,0.041,4.725-0.432c12.9-3.864,24.725-11.791,30.439-24.369c1.036-2.275,1.554-4.662,1.603-6.992
			c1.066-1.904,1.731-4.18,1.673-6.922c-0.223-10.704-3.577-21.145-11.671-28.497c-4.436-4.032-9.689-6.632-15.277-8.227
			c-1.115-16.392-2.267-32.778-3.468-49.165c68.223,12.182,139.543-0.279,200.854-36.511c2.976-1.757,4.824-4.077,5.809-6.606
			c2.291-2.219,3.824-5.362,3.824-9.511c0-23.557,0.102-47.108,1.387-70.64c0.076-1.468-0.051-2.803-0.33-4.022
			c0.208-0.945,0.33-1.91,0.33-2.905v-6.926c0-0.355-0.082-0.701-0.112-1.056c22.095-8.871,43.844-18.87,65.277-29.925
			c3.972-2.046,6.073-5.078,6.744-8.343c4.072-4.91,5.017-12.04-1.174-17.564C402.855,69.713,329.961,42.962,255.183,26.388z
			 M114.129,265.799c-0.447-22.643,0.706-45.199,2.978-67.771c0.546-1.127,0.952-2.32,1.17-3.585
			c7.851,2.072,15.777,3.88,23.732,5.581c1.841,26.507,3.786,53.004,5.766,79.506C136.353,275.762,125.095,271.253,114.129,265.799z
			 M178.876,393.922c0.297,0.457,0.579,0.919,0.838,1.396c-0.099,0.035,0.764,2.138,0.848,2.438c0.079,0.426,0.14,0.741,0.188,0.965
			c0.061,0.843,0.109,1.69,0.109,2.539c0.005,0.243,0.066,0.446,0.082,0.686c-0.731,1.497-1.519,2.939-2.438,4.336
			c-0.12,0.132-0.229,0.259-0.412,0.473c-0.706,0.792-1.513,1.487-2.308,2.184c-0.135,0.091-0.234,0.162-0.417,0.289
			c-0.998,0.69-2.069,1.265-3.136,1.844c-0.183,0.096-1.285,0.568-1.871,0.822c-0.51,0.183-1.031,0.346-1.551,0.508
			c-5.122,0.457-9.537-0.219-13.919-2.052c-0.396-8.546,5.195-13.522,13.561-17.899c1.086-0.569,1.975-1.234,2.788-1.935
			c0.759,0.146,2.054,0.35,2.138,0.37c0.17,0.041,1.747,0.614,2.308,0.772c0.815,0.502,1.97,1.233,2.224,1.319
			C178.274,393.338,178.668,393.744,178.876,393.922z M362.308,192.107c-1.178,21.683-1.351,43.376-1.371,65.085
			c-56.619,32.163-122.471,42.827-184.894,29.949c-2.039-27.273-4.044-54.547-5.959-81.826c25.527,4.189,51.407,6.916,77.315,8.851
			c1.249,0.208,2.584,0.3,4.103,0.112c38.349-4.956,75.226-14.219,111.046-26.751c0.086,0.472,0.218,0.929,0.35,1.392
			C362.598,189.904,362.369,190.95,362.308,192.107z M251.501,186.572c-0.421,0.056-0.787,0.193-1.193,0.274
			c-0.522-0.091-1.021-0.233-1.579-0.274c-23.869-1.757-47.689-4.194-71.188-7.921c20.611-18.987,41.553-37.602,62.972-55.695
			c13.665-11.542-6.033-31.037-19.588-19.586c-25.344,21.409-50.166,43.401-74.365,66.09c-1.226,0.681-2.287,1.594-3.196,2.676
			c-36.978-8.272-72.768-20.683-106.178-40.024c63.97-40.339,133.616-68.212,208.816-79.603c0.594,0.208,1.152,0.447,1.817,0.6
			c64.39,14.269,128.138,35.774,180.192,76.896C372.148,157.572,313.636,178.539,251.501,186.572z"/>
	</g>
</g>
<g>
</g>
<g>
</g>
<g>
</g>
<g>
</g>
<g>
</g>
<g>
</g>
<g>
</g>
<g>
</g>
<g>
</g>
<g>
</g>
<g>
</g>
<g>
</g>
<g>
</g>
<g>
</g>
<g>
</g>
</svg>
