<?xml version="1.0" encoding="iso-8859-1"?>
<!-- Generator: Adobe Illustrator 16.0.0, SVG Export Plug-In . SVG Version: 6.00 Build 0)  -->
<!DOCTYPE svg PUBLIC "-//W3C//DTD SVG 1.1//EN" "http://www.w3.org/Graphics/SVG/1.1/DTD/svg11.dtd">
<svg version="1.1" id="Capa_1" xmlns="http://www.w3.org/2000/svg" xmlns:xlink="http://www.w3.org/1999/xlink" x="0px" y="0px"
	 width="484.124px" height="484.124px" viewBox="0 0 484.124 484.124" style="enable-background:new 0 0 484.124 484.124;"
	 xml:space="preserve">
<g>
	<g>
		<path d="M482.959,298.805c-20.556-62.022-40.136-150.404-60.691-212.427c-1.544-4.659-4.353-7.721-7.643-9.531
			c-2.123-5.383-6.673-9.557-13.771-9.574c-90.713-0.19-181.368-4.304-272.081-4.492c-7.835-0.015-12.604,5.035-14.371,11.214
			c-0.427,0.531-0.878,1.006-1.274,1.62C76.557,132.547,41.818,216.717,9.418,276.473c-6.157,2.736-9.089,9.576-8.785,16.31
			c-0.482,1.782-0.747,3.748-0.586,6.003c2.028,28.467,1.881,56.883,0,85.351c-0.198,2.99,0.271,5.524,1.155,7.678
			c-2.211,9.795,2.547,20.545,14.539,20.398c146.454-1.793,293.573,10.607,445.8,8.982c10.146-0.111,15.204-8.633,15.179-17.082
			c6.484-31.926,8.485-64.155,6.875-96.735C484.092,304.828,484.016,301.979,482.959,298.805z M137.733,96.575
			c85.371,0.412,170.697,3.946,256.072,4.316c17.662,53.454,34.703,133.143,52.253,186.642
			c-133.068-9.06-266.403-10.126-399.695-11.913C75.196,223.5,105.75,146.55,137.733,96.575z M447.754,387.528
			c-141.528,0.233-282.082-10.745-415.973-9.933c1.279-22.841,1.414-45.65,0.208-68.481c140.287,1.955,280.634,2.722,420.68,12.537
			C453.061,343.792,451.583,365.693,447.754,387.528z"/>
	</g>
</g>
<g>
</g>
<g>
</g>
<g>
</g>
<g>
</g>
<g>
</g>
<g>
</g>
<g>
</g>
<g>
</g>
<g>
</g>
<g>
</g>
<g>
</g>
<g>
</g>
<g>
</g>
<g>
</g>
<g>
</g>
</svg>
