<?xml version="1.0" encoding="iso-8859-1"?>
<!-- Generator: Adobe Illustrator 16.0.0, SVG Export Plug-In . SVG Version: 6.00 Build 0)  -->
<!DOCTYPE svg PUBLIC "-//W3C//DTD SVG 1.1//EN" "http://www.w3.org/Graphics/SVG/1.1/DTD/svg11.dtd">
<svg version="1.1" id="Capa_1" xmlns="http://www.w3.org/2000/svg" xmlns:xlink="http://www.w3.org/1999/xlink" x="0px" y="0px"
	 width="477.907px" height="477.907px" viewBox="0 0 477.907 477.907" style="enable-background:new 0 0 477.907 477.907;"
	 xml:space="preserve">
<g>
	<g>
		<path d="M238.95,34.706c-86.739-1.96-165.491,30.023-207.166,111.885C-5.785,220.372-1.73,310.944,2.977,391.131
			c1.132,19.343,31.329,19.454,30.184,0c-0.274-4.677-0.536-9.358-0.79-14.051c1.181,0.279,2.435,0.462,3.806,0.462
			c11.576,0,23.12,0.178,34.647,1.133c14.825,39.969,47.984,70.056,98.178,63.774c7.04-0.879,11.491-5.57,13.36-11.004
			c1.059-1.985,1.731-4.326,1.737-7.119c0.056-39.101,0.521-78.211,1.054-117.312c0.444-32.037,15.539-86.45-33.657-88.489
			c-47.667-1.975-79.663,40.979-87.315,83.554H38.99c-0.447-0.046-0.878-0.138-1.331-0.138h-6.941
			c0.874-40.015,5.444-79.78,18.06-118.032c11.146-33.81,32.083-63.645,61.159-84.267c35.079-24.877,76.703-34.23,118.276-34.805
			c1.15,0.214,2.376,0.328,3.712,0.272c2.341-0.104,4.685-0.158,7.031-0.208c2.346,0.051,4.689,0.104,7.033,0.208
			c1.335,0.056,2.559-0.058,3.712-0.272c41.573,0.574,83.197,9.923,118.276,34.805c29.076,20.622,50.008,50.452,61.158,84.267
			c12.614,38.252,17.185,78.018,18.058,118.032h-2.204c-0.99,0-1.955,0.143-2.889,0.366c-0.63-0.071-1.209-0.224-1.884-0.224
			c0,0-26.437,0-26.487,0c0.665,0-11.786-35.485-13.481-38.542c-6.82-12.304-16.077-22.678-27.924-30.315
			c-15.407-9.938-80.075-32.494-80.02,3.956c0.092,62.388,1.417,124.771,1.504,187.159c0.01,2.783,0.68,5.124,1.736,7.109
			c1.868,5.434,6.322,10.126,13.36,11.004c50.195,6.281,83.354-23.801,98.178-63.774c11.531-0.954,23.074-1.127,34.646-1.132
			c1.376,0,2.625-0.188,3.809-0.463c-0.249,4.692-0.518,9.375-0.792,14.051c-1.143,19.454,29.051,19.343,30.184,0
			c4.707-80.186,8.765-170.759-28.798-244.54C404.447,64.729,325.698,32.745,238.95,34.706z M155.357,249.247
			c-0.206,54.421-1.168,108.842-1.376,163.268C72.42,405.537,67.513,251.03,155.357,249.247z M37.665,332.272
			c0.025,0,0.051-0.005,0.079-0.01h24.235c0.152,5.245,0.589,10.496,1.279,15.69c-7.82-0.427-15.655-0.538-23.498-0.568
			c-0.955-0.229-1.94-0.387-2.958-0.387h-5.741c-0.16-4.899-0.287-9.811-0.374-14.726H37.665z M323.925,412.515
			c-0.203-54.431-1.163-108.847-1.376-163.268C410.398,251.03,405.488,405.537,323.925,412.515z M446.842,347.085
			c-0.965,0.056-1.889,0.224-2.787,0.487c-0.742-0.122-1.509-0.213-2.331-0.213c-9.039,0-18.058,0.102-27.071,0.594
			c0.691-5.194,1.128-10.445,1.28-15.69h24.283c0.208,0,0.37-0.062,0.573-0.066c0.244,0.016,0.478,0.076,0.731,0.076h5.702
			C447.127,337.213,447.005,342.149,446.842,347.085z"/>
	</g>
</g>
<g>
</g>
<g>
</g>
<g>
</g>
<g>
</g>
<g>
</g>
<g>
</g>
<g>
</g>
<g>
</g>
<g>
</g>
<g>
</g>
<g>
</g>
<g>
</g>
<g>
</g>
<g>
</g>
<g>
</g>
</svg>
