<?xml version="1.0" encoding="iso-8859-1"?>
<!-- Generator: Adobe Illustrator 16.0.0, SVG Export Plug-In . SVG Version: 6.00 Build 0)  -->
<!DOCTYPE svg PUBLIC "-//W3C//DTD SVG 1.1//EN" "http://www.w3.org/Graphics/SVG/1.1/DTD/svg11.dtd">
<svg version="1.1" id="Capa_1" xmlns="http://www.w3.org/2000/svg" xmlns:xlink="http://www.w3.org/1999/xlink" x="0px" y="0px"
	 width="477.646px" height="477.646px" viewBox="0 0 477.646 477.646" style="enable-background:new 0 0 477.646 477.646;"
	 xml:space="preserve">
<g>
	<g>
		<path d="M364.755,70.016c-4.916-0.619-9.892-0.937-14.803-0.937c-42.954,0-76.164,22.968-98.319,45.318
			c-21.3-43.445-54.601-71.349-94.707-79.049c-6.236-1.196-12.677-1.806-19.162-1.806c-48.233,0-100.47,34.574-124.21,82.215
			c-23.945,48.068-16.14,100.519,23.224,155.887c39.628,55.751,89.083,104.251,136.913,151.161l9.859,9.674
			c3.748,7.108,10.877,11.618,18.573,11.623c3.194,0,6.35-0.767,9.376-2.28l17.288-8.586
			c60.012-29.793,122.064-60.591,177.018-101.332c54.573-40.451,78.247-87.899,70.361-141.027
			C468.229,137.365,424.386,77.523,364.755,70.016z M437.243,220.639c-1.945,45.445-52.948,78.046-86.691,99.627
			c-45.996,29.402-95.421,54.218-143.422,78.125c-38.936-38.272-79.046-77.86-114.204-120.703
			c-25.405-30.961-63.803-77.749-51.577-121.567c11.044-39.577,51.864-81.945,95.017-81.945c2.772,0,5.558,0.183,8.285,0.536
			c49.917,6.515,71.663,56.132,79.094,78.94c-0.322,4.59,1.143,9.084,4.238,12.845c4.103,4.991,10.471,7.975,17.034,7.975
			c6.815,0,12.99-3.296,16.951-9.046c11.496-16.686,43.076-55.51,88.001-55.51c4.737,0,9.536,0.447,14.264,1.338
			C408.344,119.503,439.157,175.812,437.243,220.639z"/>
	</g>
</g>
<g>
</g>
<g>
</g>
<g>
</g>
<g>
</g>
<g>
</g>
<g>
</g>
<g>
</g>
<g>
</g>
<g>
</g>
<g>
</g>
<g>
</g>
<g>
</g>
<g>
</g>
<g>
</g>
<g>
</g>
</svg>
