<?xml version="1.0" encoding="iso-8859-1"?>
<!-- Generator: Adobe Illustrator 16.0.0, SVG Export Plug-In . SVG Version: 6.00 Build 0)  -->
<!DOCTYPE svg PUBLIC "-//W3C//DTD SVG 1.1//EN" "http://www.w3.org/Graphics/SVG/1.1/DTD/svg11.dtd">
<svg version="1.1" id="Capa_1" xmlns="http://www.w3.org/2000/svg" xmlns:xlink="http://www.w3.org/1999/xlink" x="0px" y="0px"
	 width="476.103px" height="476.104px" viewBox="0 0 476.103 476.104" style="enable-background:new 0 0 476.103 476.104;"
	 xml:space="preserve">
<g>
	<g>
		<path d="M462.848,431.474c-10.699,0.03-21.398,0.137-32.093,0.294c-7.159-84.568-11.948-169.3-16.498-254.048
			c1.102-2.643,1.432-5.68,0.868-8.721c-0.822-4.477-1.046-9.225-1.112-13.973c9.166,0.267,18.327,0.655,27.508,1.217
			c7.657,0.47,11.74-4.735,12.365-10.596c1.873-4.177,1.416-9.147-3.194-13.157c-15.265-13.238-31.271-25.354-47.805-36.647
			c0.057-0.441,0.133-0.868,0.133-1.348c-0.092-25.827-1.158-51.638-1.25-77.467c-0.02-6.53-5.158-9.737-10.227-9.65
			c-0.706-0.181-1.463-0.3-2.265-0.343c-22.892-1.171-45.804-1.247-68.726-1.247c-6.393,0-9.607,4.923-9.658,9.885
			c-0.198,0.805-0.335,1.663-0.335,2.61c0,8.086-0.097,16.156-0.406,24.219c-25.466-12.529-51.476-24.084-77.599-35.18
			c-4.862-2.064-9.506-1.171-13.094,1.19c-2.069,0.041-4.248,0.617-6.474,2.049C141.042,56.884,74.236,110.345,5.566,161.251
			c-12.164,9.017-2.326,28.615,9.755,24.154c0.01,0,0.015,0,0.031,0c5.413-0.34,10.821-0.759,16.229-1.15
			c5.667,86.075,1.097,172.441,7.404,258.471c-6.655-0.076-13.317-0.146-19.972-0.294c-17.679-0.386-17.644,27.015,0,27.4
			c67.197,1.463,134.317-0.599,201.431-3.301c63.233-1.31,126.438-3.696,189.614-7.002c17.595-0.371,35.195-0.614,52.801-0.655
			C480.52,458.833,480.52,431.433,462.848,431.474z M330.465,25.789c17.144,0.031,34.287,0.218,51.41,0.927
			c0.223,18.682,0.762,37.356,1.005,56.033c-17.315-10.867-35.109-20.972-53.268-30.419
			C330.211,43.49,330.389,34.645,330.465,25.789z M226.06,438.902c-21.287,0.868-42.577,1.681-63.876,2.341
			c-1.49-15.64-2.26-31.27-2.641-46.9c1.785,1.047,3.915,1.717,6.5,1.717c16.722,0,16.722-25.928,0-25.928
			c-2.674,0-4.877,0.721-6.693,1.833c0.104-15.193,0.536-30.392,1.498-45.616c18.893-12.451,39.789-15.478,60.989-6.672
			C225.697,359.346,227.136,399.04,226.06,438.902z M252,437.826c1.087-42.143-0.513-84.081-4.936-126.03
			c-0.213-2.093-0.843-3.921-1.736-5.484c-0.717-2.895-2.671-5.556-6.3-7.328c-32.161-15.706-66.813-13.562-95.73,8.1
			c-1.335,1-2.333,2.153-3.161,3.367c-2.659,2.076-4.581,5.225-4.877,9.449c-2.877,40.675-2.872,81.188,1.033,121.75
			c-23.818,0.117-47.644,0.097-71.465-0.137c-6.183-85.787-1.661-171.895-7.348-257.72c-0.035-0.556-0.167-1.051-0.259-1.572
			c110.35-9.547,220.188-27.741,330.96-27.578c0.111,4.098,0.305,8.188,0.716,12.266c-0.64,1.582-0.97,3.425-0.854,5.542
			c0.604,11.258,1.234,22.511,1.854,33.769c-3.066-8.935-8.638-17.222-16.381-23.691c-35.546-29.687-97.731-11.149-95.34,39.664
			c0.609,12.9,6.216,33.436,15.26,43.145c24.607,26.391,65.861,10.689,86.722-11.745c5.81-6.256,9.435-13.406,11.191-20.827
			c3.728,66.549,7.896,133.07,13.528,199.49C353.895,433.393,302.954,435.668,252,437.826z M364.584,230.771
			c-0.279,0.609-0.563,1.213-0.898,1.815c-3.809,6.776-10.491,12.515-18.149,16.135v-17.554
			C351.884,230.969,358.232,230.84,364.584,230.771z M345.537,211.17v-14.805c2.479,0.78,4.967,1.821,7.425,3.187
			c4.931,2.747,8.744,6.698,11.1,11.232C357.881,210.858,351.711,210.987,345.537,211.17z M307.777,212.714
			c0.254-0.505,0.503-1.016,0.772-1.503c4.113-7.389,10.104-12.385,16.99-14.805v15.49
			C319.619,212.158,313.698,212.427,307.777,212.714z M325.54,231.891v20.706c-4.184-0.386-8.211-1.574-11.801-3.834
			c-6.17-3.875-9.141-9.623-9.933-15.869C311.057,232.541,318.298,232.208,325.54,231.891z M54.866,156.493
			c56.188-42.416,111.957-85.399,171.199-123.555c0.129-0.081,0.218-0.188,0.343-0.27c62.216,26.606,124.294,55.795,178.644,96.284
			C287.77,126.729,171.606,146.525,54.866,156.493z"/>
	</g>
</g>
<g>
</g>
<g>
</g>
<g>
</g>
<g>
</g>
<g>
</g>
<g>
</g>
<g>
</g>
<g>
</g>
<g>
</g>
<g>
</g>
<g>
</g>
<g>
</g>
<g>
</g>
<g>
</g>
<g>
</g>
</svg>
