<?xml version="1.0" encoding="iso-8859-1"?>
<!-- Generator: Adobe Illustrator 16.0.0, SVG Export Plug-In . SVG Version: 6.00 Build 0)  -->
<!DOCTYPE svg PUBLIC "-//W3C//DTD SVG 1.1//EN" "http://www.w3.org/Graphics/SVG/1.1/DTD/svg11.dtd">
<svg version="1.1" id="Capa_1" xmlns="http://www.w3.org/2000/svg" xmlns:xlink="http://www.w3.org/1999/xlink" x="0px" y="0px"
	 width="451.921px" height="451.922px" viewBox="0 0 451.921 451.922" style="enable-background:new 0 0 451.921 451.922;"
	 xml:space="preserve">
<g>
	<g>
		<path d="M451.874,137.746c-0.005-1.186-0.259-2.232-0.599-3.209c-1.27-6.561-8.917-12.167-16.986-7.502
			c-39.1,22.594-75.448,48.604-113.619,72.351c0.939-23.389,0.223-46.769-1.193-70.183c2.66-8.242-10.451-17.288-19.997-10.077
			c-37.303,28.183-77.886,52.455-117.312,78.15c-1.222-27.061-2.808-54.106-2.976-81.197c-0.005-1.16-0.239-2.184-0.566-3.146
			c-1.559-7.488-12.126-13.198-19.385-5.944c-12.444,12.438-25.885,23.811-39.872,34.602c1.439-38.252,2.724-76.497,2.828-114.777
			c0-1.046-0.16-1.98-0.388-2.864c0.269-5.393-3.047-11.004-10.011-11.004H58.072c-1.064,0-2.011,0.173-2.912,0.411
			c-5.464-0.371-11.131,2.933-10.956,9.988c1.425,58.016-1.704,115.842-6.812,173.619c-10.222,6.426-20.459,12.842-30.625,19.326
			c-1.647,1.057-2.823,2.308-3.656,3.651c-1.351,1.579-2.168,3.639-2.138,6.192C1.775,281.031,0.109,367.103,0,421.996
			c0,1.467,0.317,2.741,0.807,3.884c1.092,4.21,4.695,7.938,10.877,8.247c141.764,7.043,283.702,4.342,425.58,4.342
			c9.069,0,12.645-7.516,10.796-13.518c0.752-9.141,0.427-18.108-1.046-27.157C446.765,321.482,452.499,214.067,451.874,137.746z
			 M101.336,33.749c-0.058,8.668-0.193,17.336-0.343,25.999H65.25c0.051-8.663,0.046-17.331-0.084-25.999H101.336z M64.953,80.547
			h35.571c-0.645,25.598-1.554,51.186-2.542,76.782c-12.588,8.861-25.552,17.331-38.61,25.692
			C62.19,148.895,64.204,114.742,64.953,80.547z M423.635,404.67c0.01,1.955,0.563,3.585,1.422,4.971
			c0.142,2.687,0.173,5.367,0.081,8.049c-133.932,0.132-267.894,2.275-401.696-3.869c0.229-50.679,1.549-132.556,0.935-183.244
			c45.374-28.741,92.094-56.193,131.941-90.825c0.843,26.781,2.544,53.535,3.402,80.318c0.398,12.477,20.741,13.34,23.133,2.516
			c37.912-25.192,77.18-48.729,114.193-74.94c1.031,24.148,1.102,48.271-0.99,72.424c-0.65,7.596,6.591,10.836,13.192,9.8
			c1.727-0.116,3.534-0.604,5.373-1.69c38.958-22.976,75.377-49.117,113.853-72.687C428.195,228.18,423.036,331.974,423.635,404.67z
			"/>
		<path d="M369.098,263.405h-34.084c-5.723,0-9.262,3.001-10.633,6.724c-0.863,1.462-1.32,3.234-1.057,5.408
			c1.864,15.33,1.768,51.394,0,66.729c-0.746,6.52,4.464,9.8,10.166,9.927c1.057,0.279,2.194,0.478,3.474,0.478h33.104
			c6.921,0,10.623-4.388,11.191-9.13c0.29-0.924,0.498-1.899,0.498-3.006v-64.998c0-2.723-0.99-4.865-2.534-6.485
			C377.598,265.857,374.247,263.405,369.098,263.405z M358.383,331.872h-10.775c0.584-8.958,0.579-38.705-0.076-47.667h10.852
			V331.872z"/>
		<path d="M269.762,263.405h-34.083c-5.718,0-9.257,3.001-10.633,6.724c-0.863,1.462-1.315,3.234-1.051,5.408
			c1.861,15.33,1.767,51.394,0,66.729c-0.754,6.52,4.461,9.8,10.161,9.927c1.062,0.279,2.188,0.478,3.474,0.478h33.108
			c6.916,0,10.623-4.388,11.191-9.13c0.284-0.924,0.487-1.899,0.487-3.006v-64.998c0-2.723-0.99-4.865-2.528-6.485
			C278.263,265.857,274.917,263.405,269.762,263.405z M259.053,331.872h-10.775c0.584-8.958,0.573-38.705-0.076-47.667h10.852
			V331.872z"/>
		<path d="M170.432,263.405h-34.086c-5.726,0-9.262,3.001-10.638,6.724c-0.863,1.462-1.315,3.234-1.051,5.408
			c1.861,15.33,1.767,51.394,0,66.729c-0.754,6.52,4.461,9.8,10.161,9.927c1.066,0.279,2.193,0.478,3.479,0.478h33.113
			c6.919,0,10.618-4.388,11.189-9.13c0.292-0.924,0.492-1.899,0.492-3.006v-64.998c0-2.723-0.993-4.865-2.526-6.485
			C178.933,265.857,175.583,263.405,170.432,263.405z M159.72,331.872h-10.775c0.584-8.958,0.579-38.705-0.079-47.667h10.85v47.667
			H159.72z"/>
	</g>
</g>
<g>
</g>
<g>
</g>
<g>
</g>
<g>
</g>
<g>
</g>
<g>
</g>
<g>
</g>
<g>
</g>
<g>
</g>
<g>
</g>
<g>
</g>
<g>
</g>
<g>
</g>
<g>
</g>
<g>
</g>
</svg>
