<?xml version="1.0" encoding="iso-8859-1"?>
<!-- Generator: Adobe Illustrator 16.0.0, SVG Export Plug-In . SVG Version: 6.00 Build 0)  -->
<!DOCTYPE svg PUBLIC "-//W3C//DTD SVG 1.1//EN" "http://www.w3.org/Graphics/SVG/1.1/DTD/svg11.dtd">
<svg version="1.1" id="Capa_1" xmlns="http://www.w3.org/2000/svg" xmlns:xlink="http://www.w3.org/1999/xlink" x="0px" y="0px"
	 width="495.103px" height="495.103px" viewBox="0 0 495.103 495.103" style="enable-background:new 0 0 495.103 495.103;"
	 xml:space="preserve">
<g>
	<g>
		<path d="M494.829,226.13c-5.18-99.655-89.915-177.112-170.944-202.106c-26.386-8.143-54.005-12.274-82.091-12.274
			c-90.192,0-168.528,41.584-209.561,111.236C17.451,148.071,6.6,179.598,2.454,209.464
			c-15.229,109.778,41.817,221.047,132.7,258.817c24.072,9.993,50.892,15.065,79.719,15.071c0.01,0,0.015,0,0.025,0
			c77.213,0,159.74-36.399,215.369-94.999C475.543,340.671,497.866,284.569,494.829,226.13z M450.804,287.733
			c-27.549,83.548-116.672,137.253-192.766,153.4c-14.114,2.996-28.267,4.52-42.063,4.52c-77.566,0-139.667-46.189-166.118-123.558
			c-26.139-76.451-13.556-154.36,33.659-208.402c37.526-42.965,94.72-66.618,161.053-66.618c6.583,0,13.251,0.249,19.847,0.736
			c1.554,0.665,3.077,1.092,4.632,1.305c66.222,8.94,130.93,49.754,164.861,103.992
			C460.167,195.073,466.007,241.625,450.804,287.733z"/>
		<path d="M289.105,188.832c-0.132-3.176-1.234-6.053-3.179-8.346c-2.163-4.893-6.484-7.884-11.924-8.206
			c-17.844-1.092-36.604-0.175-59.711,2.902c-1.27,0.015-2.303,0.145-2.922,0.338c-3.517,0.484-6.34,2.033-8.163,4.481
			c-1.858,2.499-2.589,5.804-2.077,8.826c-0.041,1.15-0.01,2.308,0.158,3.483l3.806,26.535c0.759,22.437,1.826,45.234,2.854,67.277
			c0.983,21.003,2.003,42.727,2.783,64.42c-3.552,6.718-7.65,10.664-14.018,13.538c-1.884,0.853-3.476,2.233-4.42,3.737
			c-3.214,3.315-4.583,8.257-3.656,13.232c0.63,3.402,1.008,6.947,1.384,10.37c0.374,3.519,0.77,7.159,1.43,10.739l0.109,0.438
			c0.718,5.723,4.857,11.39,12.626,11.39l0.81-0.021c26.233-1.32,54.157-2.844,81.786-5.646c2.214-0.224,4.276-0.925,6.16-2.082
			c5.555-1.071,10.755-5.525,10.257-13.335c-1.69-26.183-3.752-52.771-5.737-78.49C294.274,273.276,290.989,230.743,289.105,188.832
			z M236.683,360.395c0.935-2.133,1.44-4.357,1.45-6.19c0.238-1.193,0.333-2.32,0.302-3.453
			c-0.754-21.673-1.785-43.696-2.777-64.988c-1.028-22.068-2.1-44.892-2.854-67.329c-0.038-1.092-0.183-2.135-0.426-3.28
			l-2.029-14.17c10.768-1.038,21.333-1.493,31.616-1.34c1.939,38.775,4.951,78.061,7.86,116.08
			c1.686,21.983,3.366,43.966,4.864,65.969c-20.916,1.858-41.502,3.066-57.703,3.92l-0.119-1.087
			C225.237,378.924,232.229,370.408,236.683,360.395z"/>
		<path d="M245.854,164.768C245.859,164.768,245.859,164.768,245.854,164.768c18.649,0,32.37-8.841,38.641-24.897
			c4.423-11.318,5.23-32.639-0.294-44.229c-9.044-18.987-36.719-30.331-58.239-30.331c-3.095,0-6.033,0.233-8.737,0.695
			c-14.716,2.529-26.817,11.575-33.185,24.813c-6.271,13.033-5.794,27.883,1.305,40.753
			C195.607,150.186,222.195,164.768,245.854,164.768z M210.615,105.957c4.382-11.139,15.912-12.34,20.665-12.34
			c8.445,0,17.293,3.319,22.554,8.45c5.646,5.517,7.683,13.571,5.321,21.028c-2.234,7.056-7.825,11.809-15.335,13.028
			c-10.986,1.777-27.85-3.814-33.189-15.793C208.635,115.841,208.629,111.002,210.615,105.957z"/>
	</g>
</g>
<g>
</g>
<g>
</g>
<g>
</g>
<g>
</g>
<g>
</g>
<g>
</g>
<g>
</g>
<g>
</g>
<g>
</g>
<g>
</g>
<g>
</g>
<g>
</g>
<g>
</g>
<g>
</g>
<g>
</g>
</svg>
