<?xml version="1.0" encoding="iso-8859-1"?>
<!-- Generator: Adobe Illustrator 16.0.0, SVG Export Plug-In . SVG Version: 6.00 Build 0)  -->
<!DOCTYPE svg PUBLIC "-//W3C//DTD SVG 1.1//EN" "http://www.w3.org/Graphics/SVG/1.1/DTD/svg11.dtd">
<svg version="1.1" id="Capa_1" xmlns="http://www.w3.org/2000/svg" xmlns:xlink="http://www.w3.org/1999/xlink" x="0px" y="0px"
	 width="482.301px" height="482.302px" viewBox="0 0 482.301 482.302" style="enable-background:new 0 0 482.301 482.302;"
	 xml:space="preserve">
<g>
	<g>
		<path d="M290.892,179.23c-0.416-5.195-3.931-9.76-10.674-9.075c-26.938,2.752-54,3.85-80.928,6.609
			c-5.319-1.277-11.347,0.787-13.063,7.635c-4.42,17.644-8.886,35.254-11.984,53.189c-0.62,3.59,0.312,6.646,2.08,9.003
			c1.175,4.418,4.575,8.358,10.252,8.968c10.374,1.106,20.764,1.798,31.179,2.092c-1.503,50.658-3.473,101.301-4.923,151.959
			c-1.533,6.479,1.907,14.127,10.456,13.756c15.737-0.695,31.46-0.695,47.198,0c2.793,0.122,5.032-0.63,6.743-1.899
			c3.823-1.411,6.814-4.763,6.738-10.095c-1.127-76.267,6.454-152.263,7.495-228.481
			C291.476,181.527,291.238,180.337,290.892,179.23z M261.47,400.638c-8.628-0.234-17.247-0.325-25.875-0.143
			c1.508-50.566,3.474-101.112,4.913-151.674c0.132-4.499-1.95-7.592-4.883-9.293c-1.792-2.45-4.631-4.172-8.599-4.192
			c-9.798-0.041-19.558-0.457-29.308-1.226c2.361-11.898,5.195-23.687,8.117-35.465c20.947-1.95,41.944-3.166,62.901-4.992
			C267.279,262.689,261.161,331.566,261.47,400.638z"/>
		<path d="M245.083,62.779c-1.008-0.175-1.953-0.198-2.884-0.135c-1.384-0.581-2.882-0.878-4.451-0.878l-0.754,0.02
			c-16.041,0.938-31.656,8.976-41.766,21.498c-9.171,11.354-13.03,25.275-10.872,39.212c3.806,24.577,27.04,43.117,54.037,43.117
			c4.327,0,8.6-0.505,12.708-1.508c20.86-5.081,37.379-25.586,40.188-49.869C294.528,86.194,270.494,67.121,245.083,62.779z
			 M267.498,109.839c0.538,11.037-6.398,22.691-17.26,29.003c-3.631,2.112-7.711,3.179-12.116,3.179
			c-11.101,0-22.749-6.891-28.328-16.754c-4.793-8.465-2.47-16.359,0.328-21.495c5.36-9.844,16.791-17.431,27.185-18.04
			c0.203-0.01,0.394-0.035,0.582-0.066c0.416,0.129,0.853,0.239,1.33,0.32C257.362,89.086,266.874,97.109,267.498,109.839z"/>
		<path d="M242.803,1.844c-46.258,0-91.18,11.75-129.899,33.979c-34.218,19.652-68.408,61.974-87.113,95.2
			c-35.406,62.903-34.276,150.698,2.887,223.669c18.923,37.161,47.948,67.142,83.936,86.691
			c33.169,18.027,86.75,39.075,128.587,39.075c128.815,0,234.615-102.718,240.855-233.846c0.112-2.28,0.183-4.55,0.224-6.82
			c0.727-42.269-18.372-90.759-24.252-104.612C423.183,52.936,340.707,1.844,242.803,1.844z M450.894,245.119
			c-5.449,114.468-97.559,204.135-209.692,204.135c-33.685,0-81.367-17.723-113.696-35.292
			c-30.419-16.523-54.977-41.924-71.023-73.438c-32.552-63.917-33.926-140.152-3.501-194.205
			c16.069-28.546,46.54-66.839,75.467-83.446c33.997-19.52,73.542-29.835,114.361-29.835c85.158,0,156.62,43.802,186.499,114.308
			c10.852,25.603,22.272,63.193,21.774,91.906C451.051,241.209,450.991,243.159,450.894,245.119z"/>
	</g>
</g>
<g>
</g>
<g>
</g>
<g>
</g>
<g>
</g>
<g>
</g>
<g>
</g>
<g>
</g>
<g>
</g>
<g>
</g>
<g>
</g>
<g>
</g>
<g>
</g>
<g>
</g>
<g>
</g>
<g>
</g>
</svg>
