<?xml version="1.0" encoding="iso-8859-1"?>
<!-- Generator: Adobe Illustrator 16.0.0, SVG Export Plug-In . SVG Version: 6.00 Build 0)  -->
<!DOCTYPE svg PUBLIC "-//W3C//DTD SVG 1.1//EN" "http://www.w3.org/Graphics/SVG/1.1/DTD/svg11.dtd">
<svg version="1.1" id="Capa_1" xmlns="http://www.w3.org/2000/svg" xmlns:xlink="http://www.w3.org/1999/xlink" x="0px" y="0px"
	 width="443.737px" height="443.737px" viewBox="0 0 443.737 443.737" style="enable-background:new 0 0 443.737 443.737;"
	 xml:space="preserve">
<g>
	<g>
		<path d="M442.435,17.971c-0.574-5.979-4.692-11.522-12.456-11.471C293.356,7.446,157.091,0.317,20.491,0
			c-0.516,0-0.978,0.073-1.455,0.119C18.65,0.083,18.282,0,17.891,0c-7.086,0-13,5.913-13,12.999v18.2
			c0,0.68,0.104,1.34,0.208,1.996c-0.172,1-0.276,2.044-0.208,3.204c7.195,120.927-6.043,267.721-3.9,388.688
			c0.021,1.336,0.259,2.529,0.582,3.651c0.65,5.941,4.768,11.593,12.418,11.948c136.46,6.267,273.002,1.361,409.488-1.3
			c6.622-0.132,10.593-4.296,11.979-9.242c1.463-1.965,2.352-4.509,2.321-7.657c-0.818-84.66,0.106-192.293,2.031-281.53
			c3.468-4.561,3.59-11.461,0.37-16.196c0.803-34.944,1.747-69.383,2.798-102.662C443.024,20.565,442.791,19.225,442.435,17.971z
			 M147.783,27.964c9.125,0.198,18.258,0.366,27.383,0.571c-0.978,29.244,0.056,58.404,2.125,87.572
			c-10.648-0.36-21.292-0.769-31.936-1.201C146.478,85.932,146.727,56.939,147.783,27.964z M90.678,26.872
			c10.375,0.178,20.746,0.343,31.121,0.546c-1.056,28.767-1.315,57.557-2.407,86.323c-10.415-0.487-20.83-1.062-31.245-1.627
			C90.386,83.738,90.658,55.322,90.678,26.872z M30.89,31.199v-5.085c11.269,0.073,22.526,0.229,33.789,0.373
			c-0.015,28.076-0.297,56.112-2.435,84.114c-9.765-0.604-19.53-1.181-29.295-1.871c-0.01-2.872,0.035-5.769,0.005-8.628
			c0.094-1.066,0.089-2.138-0.046-3.204c-0.241-20.388-0.838-40.599-2.023-60.504c-0.046-0.795-0.239-1.488-0.396-2.204
			C30.735,33.228,30.89,32.229,30.89,31.199z M411.728,413.631c-128.264,2.605-256.592,6.765-384.836,1.519
			c-0.942-85.498,5.258-191.983,6.048-280.426c126.741,8.957,253.774,10.684,380.79,10.836
			C411.937,230.326,411.063,333.455,411.728,413.631z M414.298,119.565c-70.33-0.083-140.671-0.698-210.955-2.699
			c-2.089-29.218-3.141-58.432-2.188-87.722c71.812,1.696,143.615,3.428,215.51,3.369C415.786,60.76,414.999,89.931,414.298,119.565
			z"/>
		<path d="M294.285,98.053c1.153,5.289,5.185,9.844,12.197,9.844h38.999c3.185,0,5.759-0.947,7.734-2.471
			c4.636-2.059,8.398-6.629,7.865-11.829c-1.203-11.674-1.3-23.374-1.3-35.099c0-1.32-0.213-2.496-0.513-3.608
			c-0.406-6.147-4.545-11.992-12.487-11.992h-37.698c-4.778,0-8.15,2.143-10.202,5.164c-4.499,1.6-8.059,5.5-7.998,11.735
			c0.092,10.415,1.204,20.784,1.301,31.199C292.208,93.846,293.026,96.171,294.285,98.053z M333.858,68.897
			c0.061,4.337,0.173,8.668,0.386,13h-16.361c-0.219-4.332-0.467-8.668-0.681-13H333.858z"/>
		<path d="M400.08,92.297V55.898c0-16.765-25.999-16.765-25.999,0v36.399C374.081,109.062,400.08,109.062,400.08,92.297z"/>
		<path d="M223.285,154.695c-2.61-0.259-4.758,0.213-6.545,1.107c-80.136-3.087-143.219,74.352-128.188,154.447
			c11.705,62.342,74.217,95.791,133.261,92.998c55.218-2.61,110.116-36.363,124.619-91.714c8.566-32.682-1.128-68.004-17.326-96.593
			C307.173,176.223,265.635,158.933,223.285,154.695z M320.269,308.781c-10.74,41-54.878,63.911-94.105,68.137
			c-43.355,4.661-85.401-13.498-105.525-53.086c-34.942-68.745,32.91-154.749,106.988-140.995c2.514,0.467,4.783,0.213,6.805-0.467
			C292.299,193.803,336.335,247.475,320.269,308.781z"/>
		<path d="M221.693,202.169c-2.09-0.218-3.94-0.01-5.741,0.541c-23.044-0.437-44.795,9.963-59.979,28.267
			c-15.623,18.819-22.028,43.183-17.593,66.836c5.263,28,31.882,58.128,77.909,58.133h0.005c1.394,0,2.783-0.04,4.171-0.102
			c36.693-1.736,68.121-25.075,76.424-56.781c6.413-24.486-3.753-47.779-10.385-59.489
			C274.537,218.434,251.523,205.155,221.693,202.169z M267.27,293.583c-5.062,19.321-26.542,30.026-45.587,32.077
			c-2.178,0.234-4.382,0.355-6.541,0.355c-19.588,0-36.15-9.587-44.308-25.633c-6.802-13.376-5.721-29.168,2.963-43.326
			c9.267-15.111,24.872-24.506,40.72-24.506c2.465,0,4.951,0.233,7.394,0.681c1.856,0.351,3.578,0.355,5.289,0.065
			c14.563,3.301,27.116,11.969,34.632,23.963C268.733,268.27,270.612,280.832,267.27,293.583z"/>
		<path d="M231.146,243.564c-6.414-3.016-13.97-1.854-17.784,4.667c-3.336,5.697-1.747,14.767,4.664,17.788
			c4.276,2.011,6.98,3.854,10.098,7.379c1.909,2.157,2.889,6.129,2.965,8.693c0.482,16.727,26.482,16.777,26,0
			C256.591,265.212,246.324,250.709,231.146,243.564z"/>
	</g>
</g>
<g>
</g>
<g>
</g>
<g>
</g>
<g>
</g>
<g>
</g>
<g>
</g>
<g>
</g>
<g>
</g>
<g>
</g>
<g>
</g>
<g>
</g>
<g>
</g>
<g>
</g>
<g>
</g>
<g>
</g>
</svg>
