<?xml version="1.0" encoding="iso-8859-1"?>
<!-- Generator: Adobe Illustrator 16.0.0, SVG Export Plug-In . SVG Version: 6.00 Build 0)  -->
<!DOCTYPE svg PUBLIC "-//W3C//DTD SVG 1.1//EN" "http://www.w3.org/Graphics/SVG/1.1/DTD/svg11.dtd">
<svg version="1.1" id="Capa_1" xmlns="http://www.w3.org/2000/svg" xmlns:xlink="http://www.w3.org/1999/xlink" x="0px" y="0px"
	 width="498.251px" height="498.251px" viewBox="0 0 498.251 498.251" style="enable-background:new 0 0 498.251 498.251;"
	 xml:space="preserve">
<g>
	<g>
		<path d="M365.147,0c-17.133,0-32.301,8.797-41.619,24.143c-9.135,15.036-18.326,31.09-27.213,46.611
			c-12.593,21.996-25.526,44.59-38.998,65.589c-26.02-35.944-57.427-75.448-91.673-115.275
			c-12.022-13.977-25.438-16.91-34.568-16.91c-18.877,0-37.415,12.756-46.128,31.735c-8.633,18.809-5.69,39.456,7.878,55.233
			c37.496,43.59,80.067,94.534,112.31,148.955c0.015,2.734,0.028,5.507,0.043,8.3h-10.846c-32.385,0-49.323,25.434-49.323,50.549
			c0,17.859,8.554,35.86,25.126,44.788c-19.03,8.104-28.883,27.436-28.883,46.596c0,25.115,16.945,50.546,49.32,50.546h12.22
			c-0.048,3.392-0.094,6.373-0.147,7.302c-1.043,13.894,2.892,26.07,11.377,35.221c8.772,9.445,22,14.869,36.312,14.869
			c24.704,0,50.957-16.534,53.339-48.13c0.087-1.106,0.132-3.32,0.224-9.262h3.092c14.904,0,28.076-5.773,37.101-16.26
			c7.881-9.171,12.223-21.348,12.223-34.297c0-18.301-8.988-36.765-26.391-45.438c5.911-2.737,11.136-6.657,15.422-11.644
			c7.886-9.166,12.223-21.343,12.223-34.292c0-25.126-16.94-50.554-49.322-50.554h-1.95c-0.015-2.361-0.025-4.697-0.035-7.015
			c29.224-39.54,55.334-83.52,80.598-126.102c7.947-13.391,15.843-26.692,23.755-39.722c9.49-15.625,10.085-33.205,1.635-48.218
			C403.04,10.981,384.114,0,365.147,0z M388.374,62.05c-7.962,13.109-15.898,26.477-23.892,39.948
			c-25.674,43.249-52.212,87.971-81.659,127.292c-1.69,2.263-2.604,5.01-2.595,7.838c0.025,7.881,0.076,16.029,0.138,24.347
			c0.051,7.14,5.854,12.908,12.999,12.908h14.858c17.22,0,23.323,13.223,23.323,24.547c0,11.329-6.108,24.558-23.323,24.558h-14.487
			c-7.17,0-12.984,5.799-13,12.974c-0.01,5.403-0.051,10.791-0.102,16.174c-0.03,3.473,1.325,6.81,3.763,9.272
			c2.448,2.468,5.77,3.849,9.237,3.849h13.335c17.219,0,23.323,13.229,23.323,24.558c0,11.323-6.109,24.547-23.323,24.547h-15.849
			c-6.83,0-12.502,5.301-12.969,12.115c-0.076,1.077-0.152,5.922-0.229,10.883c-0.066,4.494-0.117,9.104-0.193,10.303
			c-1.427,19.022-17.895,24.101-27.408,24.101c-7.097,0-13.383-2.397-17.252-6.562c-3.489-3.763-5.007-9.003-4.507-15.568
			c0.096-1.26,0.145-3.94,0.259-11.903c0.063-4.234,0.109-8.378,0.173-9.48c0.244-3.59-1.01-7.124-3.468-9.765
			c-2.46-2.631-5.903-4.123-9.501-4.123h-25.458c-17.217,0-23.32-13.224-23.32-24.547c0-6.633,2.163-12.959,5.941-17.347
			c4.113-4.783,9.958-7.211,17.385-7.211h27.964c7.134,0,12.931-5.748,13-12.878c0.051-5.453,0.094-10.907,0.104-16.371
			c0.005-3.453-1.363-6.764-3.795-9.212c-2.44-2.437-5.746-3.808-9.204-3.808h-24.308c-17.217,0-23.323-13.229-23.323-24.558
			c0-11.324,6.111-24.547,23.323-24.547h23.935c3.46,0,6.784-1.386,9.224-3.839c2.437-2.458,3.795-5.789,3.775-9.252
			c-0.063-8.48-0.109-16.785-0.137-24.809c-0.005-2.288-0.617-4.54-1.772-6.515c-33.545-57.437-77.888-110.535-116.813-155.787
			c-9.392-10.92-6.513-21.876-3.958-27.436c4.41-9.608,13.868-16.577,22.495-16.577c5.37,0,10.372,2.648,14.855,7.863
			c38.687,44.988,73.656,89.504,101.125,128.731c2.435,3.474,6.406,5.543,10.651,5.543c0.021,0,0.041,0,0.066,0
			c4.261-0.021,8.241-2.131,10.658-5.647c17.834-26,34.409-54.966,50.45-82.979c8.805-15.381,17.91-31.283,26.867-46.04
			c4.688-7.721,11.218-11.636,19.398-11.636c9.719,0,19.769,5.786,24.43,14.071C393.452,46.958,393.046,54.352,388.374,62.05z"/>
	</g>
</g>
<g>
</g>
<g>
</g>
<g>
</g>
<g>
</g>
<g>
</g>
<g>
</g>
<g>
</g>
<g>
</g>
<g>
</g>
<g>
</g>
<g>
</g>
<g>
</g>
<g>
</g>
<g>
</g>
<g>
</g>
</svg>
