<?xml version="1.0" encoding="iso-8859-1"?>
<!-- Generator: Adobe Illustrator 16.0.0, SVG Export Plug-In . SVG Version: 6.00 Build 0)  -->
<!DOCTYPE svg PUBLIC "-//W3C//DTD SVG 1.1//EN" "http://www.w3.org/Graphics/SVG/1.1/DTD/svg11.dtd">
<svg version="1.1" id="Capa_1" xmlns="http://www.w3.org/2000/svg" xmlns:xlink="http://www.w3.org/1999/xlink" x="0px" y="0px"
	 width="480.522px" height="480.522px" viewBox="0 0 480.522 480.522" style="enable-background:new 0 0 480.522 480.522;"
	 xml:space="preserve">
<g>
	<g>
		<path d="M302.241,14.122c-59.479,7.452-92.763,56.919-102.329,112.477c-0.346,2.009-0.262,3.859,0.14,5.54
			c-2.928,14.627-1.409,29.249,3.067,43.496c-53.616,49.945-111.188,94.862-170.94,137.075c-8.762,5.038-17.664,9.821-26.84,14.143
			c-4.768,2.244-5.997,6.378-5.035,10.227c-0.172,0.925-0.264,1.899-0.239,2.956l2.6,101.285c0.16,6.23,3.87,10.029,8.429,11.491
			c0.765,0.579,1.628,1.102,2.631,1.554c19.469,8.801,39.367,13.376,60.781,13.147c3.395-0.036,6.038-1.168,8.008-2.895
			c2.546-0.279,5.111-1.341,7.452-3.443c14.742-13.314,29.369-26.72,42.046-42.056c2.105-2.549,3.017-5.296,3.098-7.967
			c0.967-3.388,0.688-7.069-1.534-9.913c-4.793-6.149-9.254-12.542-13.799-18.88c52.405-43.351,103.56-88.179,155.938-131.555
			c71.954,17.458,149.733,9.247,191.729-58.166c27.096-43.5,8.714-94.054-24.303-127.889
			C407.822,28.568,352.497,7.825,302.241,14.122z M449.233,171.585c-27.767,65.927-108.73,68.55-168.33,53.875
			c-0.863-0.213-1.676-0.302-2.483-0.358c-4.413-1.899-9.79-1.815-14.381,1.96c-22.587,18.598-44.915,37.509-67.197,56.475
			c-5.553-3.153-10.961-6.565-15.978-10.526c-4.446-3.504-10.349-4.357-14.706,0c-3.656,3.656-4.461,11.191,0,14.706
			c4.555,3.595,9.234,6.9,14.061,9.978c-11.502,9.806-23.011,19.616-34.543,29.396c-4.52-4.87-9.511-9.257-15.45-12.375
			c-5.022-2.636-11.268-1.32-14.23,3.728c-2.76,4.723-1.285,11.593,3.732,14.229c3.76,1.97,7.12,4.682,10.156,7.729
			c-11.527,9.714-23.071,19.418-34.708,29.006c-1.15,0.949-1.955,1.955-2.625,2.99c-3.329,4.189-4.509,10.558-1.087,14.944
			c5.37,6.886,10.316,14.082,15.453,21.14c-5.058,5.632-10.352,11.024-15.775,16.301c-8.404-7.312-17.483-13.741-26.776-19.937
			c-11.194-7.47-21.594,10.552-10.496,17.961c7.658,5.108,15.095,10.318,22.051,16.229c-0.942,0.858-1.871,1.727-2.818,2.574
			c-15.661,0.076-30.435-2.939-44.785-9.095l-2.153-84.046c69.875-48.337,137.151-99.984,199.168-158.181
			c0.49-0.462,0.854-0.945,1.244-1.425c3.94-2.739,6.167-7.487,3.857-13.457c-20.782-53.86,14.716-123.352,71.335-135.216
			c39.08-8.19,82.974,9.739,113.021,33.794C443.839,97.248,464.806,134.63,449.233,171.585z"/>
		<path d="M385.773,102.651c-28.817-22.123-71.102-32.121-98.655-6.949c-29.097,26.583-15.554,64.754,12.513,84.754
			c26.421,18.824,69.792,25.329,97.705,6.698C432.064,163.968,416.647,126.35,385.773,102.651z M372.423,170.549
			c-19.754,6.266-43.687-2.288-60.316-12.761c-17.347-10.923-22.79-37.308-0.939-47.027c17.742-7.892,40.101-2.526,56.401,7.203
			C386.296,133.454,403.455,160.705,372.423,170.549z"/>
	</g>
</g>
<g>
</g>
<g>
</g>
<g>
</g>
<g>
</g>
<g>
</g>
<g>
</g>
<g>
</g>
<g>
</g>
<g>
</g>
<g>
</g>
<g>
</g>
<g>
</g>
<g>
</g>
<g>
</g>
<g>
</g>
</svg>
