<?xml version="1.0" encoding="iso-8859-1"?>
<!-- Generator: Adobe Illustrator 16.0.0, SVG Export Plug-In . SVG Version: 6.00 Build 0)  -->
<!DOCTYPE svg PUBLIC "-//W3C//DTD SVG 1.1//EN" "http://www.w3.org/Graphics/SVG/1.1/DTD/svg11.dtd">
<svg version="1.1" id="Capa_1" xmlns="http://www.w3.org/2000/svg" xmlns:xlink="http://www.w3.org/1999/xlink" x="0px" y="0px"
	 width="488.247px" height="488.246px" viewBox="0 0 488.247 488.246" style="enable-background:new 0 0 488.247 488.246;"
	 xml:space="preserve">
<g>
	<g>
		<path d="M12.595,382.023c0.051,0.473,0.181,0.884,0.274,1.326c-0.516,4.728,1.736,9.582,7.744,11.029
			c147.654,35.515,300.309,24.287,450.749,27.7c1.771,0.04,3.315-0.27,4.641-0.843c4.235-1.128,7.882-4.469,8.104-10.08
			c2.778-68.562,6.068-153.508,2.732-222.111c-0.056-1.117-0.284-2.115-0.589-3.062c-0.772-4.768-4.225-9.214-10.339-9.681
			c-70.98-5.428-141.965-17.405-213.001-26.063c4.54-12.39,12.938-22.099,25.237-28.208c0.595-0.083,1.184-0.208,1.763-0.444
			c19.072-7.693,32.331-21.678,35.865-42.36c2.239-13.116-17.809-18.73-20.058-5.53c-2.234,13.093-8.734,22.75-21.338,27.835
			c-0.848,0.345-1.64,0.782-2.396,1.259c-1.295,0.104-2.626,0.427-3.986,1.092c-17.977,8.772-30.605,24.917-36.138,43.886
			c-77.889-8.668-155.855-12.167-233.988,2.524c-7.949,1.495-9.363,9.062-6.53,14.757c0.462,3.224,0.919,6.441,1.381,9.666
			c-0.125,0.774-0.185,1.602-0.14,2.496C5.943,240.041,5.773,319.412,12.595,382.023z M25.338,195.416
			c0.054-8.757,0.6-17.476,1.229-26.203c146.223-23.702,293.03,15.554,438.743,28.053c2.549,62.165-0.046,140.686-2.59,202.81
			c-143.144-2.712-288.389,7.135-428.957-25.151c-5.449-54.061-6.073-124.771-8.476-179.021
			C25.298,195.733,25.338,195.588,25.338,195.416z"/>
		<path d="M49.749,233.26c15.069,4.763,19.941,6.619,35.67,4.94c2.61-0.282,4.73-1.285,6.371-2.719
			c4.205-1.166,7.851-4.489,8.193-10.026c0.912-14.553,1.751-18.182,1.82-32.768c0.01-2.45-0.67-4.446-1.752-6.043
			c-1.15-4.154-4.489-7.612-10.083-7.612h-37.32c-4.834,0-7.97,2.595-9.483,5.974c-0.792,1.394-1.325,3.026-1.437,4.951
			c-0.815,13.949-0.909,16.98-0.909,30.948c0,2.876,0.937,5.134,2.387,6.833C44.355,230.172,46.471,232.226,49.749,233.26z
			 M63.152,200.88h16.605c-0.218,8.95-0.609,6.964-1.135,15.901c-9.104,0.333-7.066-0.571-15.912-2.704
			C62.735,206.034,62.888,208.916,63.152,200.88z"/>
		<path d="M120.746,238.721c15.069,4.766,19.941,6.619,35.67,4.938c2.61-0.279,4.732-1.282,6.37-2.719
			c4.207-1.163,7.851-4.487,8.196-10.024c0.909-14.556,1.752-18.185,1.818-32.771c0.013-2.448-0.67-4.446-1.752-6.041
			c-1.147-4.156-4.486-7.615-10.082-7.615h-37.318c-4.836,0-7.972,2.595-9.485,5.975c-0.79,1.394-1.325,3.026-1.435,4.951
			c-0.817,13.951-0.912,16.983-0.912,30.95c0,2.874,0.937,5.131,2.389,6.832C115.353,235.636,117.471,237.685,120.746,238.721z
			 M134.152,206.341h16.603c-0.218,8.95-0.609,6.962-1.135,15.902c-9.105,0.333-7.066-0.574-15.909-2.704
			C133.741,211.493,133.885,214.379,134.152,206.341z"/>
		<path d="M191.744,244.182c15.069,4.764,19.941,6.617,35.673,4.941c2.61-0.284,4.73-1.285,6.368-2.722
			c4.207-1.163,7.853-4.489,8.195-10.026c0.909-14.554,1.752-18.185,1.821-32.769c0.01-2.45-0.67-4.445-1.752-6.043
			c-1.15-4.153-4.489-7.611-10.083-7.611h-37.32c-4.837,0-7.973,2.595-9.483,5.974c-0.792,1.395-1.328,3.027-1.437,4.949
			c-0.815,13.952-0.909,16.983-0.909,30.951c0,2.876,0.937,5.134,2.387,6.832C186.359,241.097,188.474,243.146,191.744,244.182z
			 M205.155,211.8h16.603c-0.219,8.95-0.607,6.965-1.132,15.902c-9.105,0.333-7.066-0.571-15.912-2.704
			C204.738,216.954,204.891,219.841,205.155,211.8z"/>
		<path d="M262.75,249.646c15.066,4.763,19.941,6.621,35.667,4.94c2.61-0.279,4.733-1.284,6.373-2.722
			c4.205-1.163,7.851-4.484,8.19-10.024c0.914-14.556,1.758-18.184,1.823-32.771c0.011-2.447-0.67-4.445-1.752-6.043
			c-1.152-4.153-4.488-7.611-10.085-7.611h-37.317c-4.835,0-7.973,2.595-9.485,5.974c-0.787,1.394-1.326,3.032-1.433,4.951
			c-0.817,13.952-0.914,16.983-0.914,30.95c0,2.875,0.939,5.132,2.387,6.835C257.356,246.559,259.468,248.61,262.75,249.646z
			 M276.15,217.267h16.605c-0.219,8.947-0.609,6.962-1.133,15.899c-9.104,0.335-7.068-0.571-15.914-2.702
			C275.739,222.418,275.886,225.3,276.15,217.267z"/>
		<path d="M333.745,255.104c15.071,4.764,19.94,6.622,35.673,4.941c2.609-0.279,4.732-1.285,6.367-2.717
			c4.21-1.168,7.855-4.489,8.196-10.029c0.909-14.553,1.752-18.184,1.823-32.771c0.01-2.447-0.676-4.443-1.758-6.04
			c-1.147-4.156-4.483-7.615-10.079-7.615h-37.318c-4.839,0-7.973,2.595-9.485,5.977c-0.793,1.391-1.326,3.026-1.438,4.948
			c-0.812,13.952-0.909,16.983-0.909,30.95c0,2.879,0.935,5.134,2.387,6.835C328.357,252.022,330.469,254.074,333.745,255.104z
			 M347.156,222.725h16.604c-0.219,8.95-0.609,6.962-1.132,15.902c-9.105,0.333-7.069-0.571-15.915-2.704
			C346.739,227.879,346.886,230.764,347.156,222.725z"/>
		<path d="M49.749,298.801c15.069,4.764,19.941,6.622,35.67,4.941c2.61-0.285,4.73-1.285,6.371-2.723
			c4.205-1.162,7.851-4.483,8.193-10.023c0.912-14.554,1.751-18.185,1.82-32.769c0.01-2.452-0.67-4.448-1.752-6.042
			c-1.15-4.154-4.489-7.612-10.083-7.612h-37.32c-4.834,0-7.97,2.595-9.483,5.972c-0.792,1.396-1.325,3.026-1.437,4.951
			c-0.815,13.949-0.909,16.98-0.909,30.95c0,2.874,0.937,5.134,2.387,6.83C44.355,295.714,46.471,297.765,49.749,298.801z
			 M63.152,266.424h16.605c-0.218,8.947-0.609,6.962-1.135,15.899c-9.104,0.329-7.066-0.574-15.912-2.707
			C62.735,271.572,62.888,274.457,63.152,266.424z"/>
		<path d="M59.549,321.55c-0.79,1.392-1.325,3.032-1.435,4.951c-0.817,13.949-0.912,16.981-0.912,30.95
			c0,2.874,0.937,5.129,2.387,6.83c1.155,2.433,3.273,4.489,6.543,5.525c15.069,4.763,19.941,6.616,35.67,4.94
			c2.61-0.284,4.733-1.284,6.371-2.722c4.207-1.163,7.85-4.489,8.193-10.024c0.912-14.559,1.754-18.184,1.821-32.772
			c0.01-2.448-0.67-4.443-1.752-6.038c-1.148-4.159-4.486-7.617-10.083-7.617H69.035C64.198,315.573,61.062,318.163,59.549,321.55z
			 M79.539,337.419h16.602c-0.218,8.952-0.609,6.962-1.135,15.904c-9.105,0.33-7.066-0.574-15.912-2.707
			C79.122,342.573,79.272,345.457,79.539,337.419z"/>
		<path d="M120.746,304.26c15.069,4.763,19.941,6.621,35.67,4.94c2.61-0.279,4.732-1.284,6.37-2.722
			c4.207-1.162,7.851-4.483,8.196-10.023c0.909-14.554,1.752-18.185,1.818-32.769c0.013-2.447-0.67-4.448-1.752-6.043
			c-1.147-4.153-4.486-7.611-10.082-7.611h-37.318c-4.836,0-7.972,2.595-9.485,5.972c-0.79,1.396-1.325,3.031-1.435,4.951
			c-0.817,13.954-0.912,16.985-0.912,30.95c0,2.874,0.937,5.134,2.389,6.835C115.353,301.178,117.471,303.224,120.746,304.26z
			 M134.152,271.883h16.603c-0.218,8.947-0.609,6.962-1.135,15.898c-9.105,0.336-7.066-0.573-15.909-2.701
			C133.741,277.037,133.885,279.921,134.152,271.883z"/>
		<path d="M191.744,309.719c15.069,4.763,19.941,6.621,35.673,4.94c2.61-0.279,4.73-1.284,6.368-2.717
			c4.207-1.168,7.853-4.488,8.195-10.028c0.909-14.554,1.752-18.185,1.821-32.769c0.01-2.447-0.67-4.443-1.752-6.043
			c-1.15-4.153-4.489-7.611-10.083-7.611h-37.32c-4.837,0-7.973,2.595-9.483,5.977c-0.792,1.392-1.328,3.031-1.437,4.951
			c-0.815,13.949-0.909,16.98-0.909,30.944c0,2.88,0.937,5.135,2.387,6.836C186.359,306.637,188.474,308.688,191.744,309.719z
			 M205.155,277.342h16.603c-0.219,8.947-0.607,6.961-1.132,15.898c-9.105,0.335-7.066-0.568-15.912-2.701
			C204.738,282.495,204.891,285.38,205.155,277.342z"/>
		<path d="M262.75,315.188c15.066,4.764,19.941,6.616,35.667,4.936c2.61-0.279,4.733-1.284,6.373-2.717
			c4.205-1.168,7.851-4.488,8.19-10.023c0.914-14.559,1.758-18.185,1.823-32.773c0.011-2.447-0.67-4.443-1.752-6.043
			c-1.152-4.153-4.488-7.611-10.085-7.611h-37.317c-4.835,0-7.973,2.595-9.485,5.977c-0.787,1.392-1.326,3.026-1.433,4.951
			c-0.817,13.949-0.914,16.98-0.914,30.95c0,2.874,0.939,5.129,2.387,6.829C257.356,312.095,259.468,314.151,262.75,315.188z
			 M276.15,282.805h16.605c-0.219,8.948-0.609,6.963-1.133,15.904c-9.104,0.33-7.068-0.573-15.914-2.706
			C275.739,287.959,275.886,290.839,276.15,282.805z"/>
		<path d="M333.745,320.646c15.071,4.763,19.94,6.616,35.673,4.94c2.609-0.284,4.732-1.284,6.367-2.722
			c4.21-1.163,7.855-4.488,8.196-10.023c0.909-14.554,1.752-18.185,1.823-32.769c0.01-2.452-0.676-4.448-1.758-6.043
			c-1.147-4.159-4.483-7.616-10.079-7.616h-37.318c-4.839,0-7.973,2.595-9.485,5.977c-0.793,1.396-1.326,3.026-1.438,4.951
			c-0.812,13.949-0.909,16.98-0.909,30.95c0,2.874,0.935,5.128,2.387,6.829C328.357,317.564,330.469,319.61,333.745,320.646z
			 M347.156,288.264h16.604c-0.219,8.953-0.609,6.962-1.132,15.904c-9.105,0.33-7.069-0.573-15.915-2.706
			C346.739,293.418,346.886,296.303,347.156,288.264z"/>
		<path d="M417.663,331.96h-37.323c-4.834,0-7.967,2.595-9.48,5.977c-0.792,1.392-1.33,3.032-1.437,4.946
			c-0.817,13.954-0.909,16.986-0.909,30.95c0,2.879,0.935,5.134,2.387,6.835c1.152,2.433,3.271,4.489,6.54,5.52
			c15.071,4.764,19.941,6.622,35.673,4.941c2.61-0.279,4.728-1.285,6.368-2.717c4.204-1.168,7.851-4.489,8.196-10.029
			c0.908-14.554,1.752-18.185,1.817-32.768c0.011-2.448-0.67-4.443-1.752-6.043C426.595,335.413,423.253,331.96,417.663,331.96z
			 M406.314,369.705c-9.105,0.335-7.063-0.569-15.909-2.702c0.025-8.043,0.178-5.159,0.441-13.197h16.6
			C407.228,362.753,406.841,360.768,406.314,369.705z"/>
		<path d="M404.745,320.646c15.071,4.763,19.941,6.616,35.673,4.94c2.61-0.284,4.728-1.284,6.367-2.722
			c4.205-1.163,7.852-4.488,8.196-10.023c0.909-14.554,1.752-78.26,1.818-92.851c0.01-2.45-0.671-4.446-1.752-6.043
			c-1.147-4.154-4.489-7.612-10.08-7.612h-37.323c-4.834,0-7.967,2.595-9.48,5.975c-0.792,1.394-1.33,3.026-1.438,4.951
			c-0.817,13.949-0.908,77.056-0.908,91.031c0,2.874,0.934,5.128,2.387,6.829C399.357,317.564,401.474,319.61,404.745,320.646z
			 M418.156,228.184h16.604c-0.218,8.95-0.609,67.042-1.138,75.984c-9.104,0.33-7.062-0.573-15.909-2.706
			C417.739,293.418,417.891,236.225,418.156,228.184z"/>
		<path d="M346.663,331.96H150.958c-4.837,0-7.973,2.595-9.485,5.977c-0.79,1.392-1.326,3.032-1.435,4.946
			c-0.818,13.954-0.909,11.521-0.909,25.491c0,2.874,0.935,5.134,2.387,6.835c1.152,2.433,3.27,4.484,6.54,5.52
			c15.069,4.764,178.326,6.622,194.058,4.941c2.61-0.279,4.732-1.285,6.368-2.722c4.209-1.163,7.855-4.484,8.195-10.024
			c0.909-14.553,1.752-12.72,1.823-27.309c0.01-2.448-0.676-4.443-1.757-6.043C355.589,335.413,352.258,331.96,346.663,331.96z
			 M335.319,364.246c-9.105,0.335-165.456-0.574-174.299-2.702c0.025-8.048,0.175,0.3,0.442-7.738h174.989
			C336.233,362.753,335.841,355.309,335.319,364.246z"/>
	</g>
</g>
<g>
</g>
<g>
</g>
<g>
</g>
<g>
</g>
<g>
</g>
<g>
</g>
<g>
</g>
<g>
</g>
<g>
</g>
<g>
</g>
<g>
</g>
<g>
</g>
<g>
</g>
<g>
</g>
<g>
</g>
</svg>
