<?xml version="1.0" encoding="iso-8859-1"?>
<!-- Generator: Adobe Illustrator 16.0.0, SVG Export Plug-In . SVG Version: 6.00 Build 0)  -->
<!DOCTYPE svg PUBLIC "-//W3C//DTD SVG 1.1//EN" "http://www.w3.org/Graphics/SVG/1.1/DTD/svg11.dtd">
<svg version="1.1" id="Capa_1" xmlns="http://www.w3.org/2000/svg" xmlns:xlink="http://www.w3.org/1999/xlink" x="0px" y="0px"
	 width="468.071px" height="468.071px" viewBox="0 0 468.071 468.071" style="enable-background:new 0 0 468.071 468.071;"
	 xml:space="preserve">
<g>
	<g>
		<path d="M442.038,2.918c-2.204-2.511-5.611-3.791-9.856-2.252c-58.65,21.279-122.684,19.36-180.694,42.899
			c-3.818,1.551-5.921,4.568-6.642,7.833c-0.478,1.057-0.854,2.194-0.996,3.499c-2.482,23.222-3.473,46.321-1.441,69.599
			c-7.666-18.354-9.336-37.78-7.655-57.899c0.718-8.606-7.627-11.595-13.978-9.125c-1.378,0.14-2.818,0.597-4.268,1.445
			c-28.777,16.735-55.213,36.772-80.105,58.826c-4.694,4.159-3.951,9.552-0.838,13.238c6.178,21.871,13,43.544,20.441,65.019
			c-11.393-11.486-18.71-25.499-20.05-42.305c-0.937-11.725-17.252-13.157-20.322-4.118c-0.546,0.785-1.039,1.638-1.409,2.651
			c-20.424,56.825-21.892,117.306-2.194,174.433c-32.92,39.421-63.083,81.37-90.353,125.975
			c-7.015,11.477,10.976,21.917,17.961,10.496c28.698-46.936,60.707-90.886,95.796-132.042c0.952,0.345,1.965,0.619,3.121,0.7
			c88.537,6.099,159.903-36.673,228.842-87.219c9.942-7.287,1.695-23.372-8.222-19.233c-0.767-0.005-1.569,0.063-2.392,0.231
			c-16.555,3.28-33.281,3.166-49.652-0.833c-0.274-0.238-0.538-0.495-0.833-0.719c-2.204-1.663-3.367-3.219-3.311-4.943
			c24.709,2.069,49.185,1.419,73.62-3.349c1.747-0.338,3.139-1.006,4.256-1.869c1.005-0.502,2-1.152,2.935-2.104
			c52.861-53.984,65.019-126.835,64.146-199.752C447.888,7.344,445.334,4.343,442.038,2.918z M370.221,195.813
			c-23.785,4.522-47.733,4.421-71.772,2.08c-0.975-0.094-1.863-0.041-2.701,0.089c-2.296,0.203-4.469,1.106-5.952,2.958
			c-5.326,6.657-8.459,13.505-7.246,22.168c1.041,7.378,5.814,12.87,11.359,17.37c1.193,1.736,3.037,3.148,5.667,3.844
			c8.806,2.325,17.672,3.605,26.578,4.052c-52.75,35.831-107.973,63.633-173.58,63.109C200.253,258.31,253.3,210.034,311.488,166.58
			c1.184-0.879,2.062-1.899,2.753-2.974c0.659-0.34,1.319-0.751,1.949-1.254c28.503-22.417,52.526-49.025,73.128-78.805
			c7.652-11.06-10.384-21.444-17.961-10.496c-19.601,28.328-42.787,53.288-69.873,74.59c-0.862,0.675-1.492,1.409-2.036,2.158
			c-63.119,47.294-120.421,99.894-171.47,158.225c-11.149-39.375-11.786-79.514-2.829-118.977
			c5.512,10.527,13.178,19.921,22.942,27.904c0.135,0.114,0.287,0.178,0.427,0.279c2.511,3.209,6.807,4.656,10.991,3.694
			c9.45-2.163,15.32-9.953,17.664-18.963c0.213-0.812,0.292-1.63,0.312-2.435c0.442-1.668,0.432-3.567-0.312-5.695
			c-7.606-21.739-14.5-43.704-20.804-65.854c18.055-15.612,36.988-29.947,57.089-42.729c0.604,20.213,5.165,39.743,14.909,58.092
			c1.925,3.62,4.941,5.139,8.018,5.179c3.062,1.577,6.835,1.556,10.116-0.15c6.205-3.229,11.09-8.066,14.045-14.289
			c1.94-1.653,3.139-4.202,2.804-7.691c-2.062-21.891-1.382-43.612,0.7-65.424c52.648-19.416,109.786-19.853,163.115-36.673
			C426.606,86.959,415.262,148.951,370.221,195.813z"/>
	</g>
</g>
<g>
</g>
<g>
</g>
<g>
</g>
<g>
</g>
<g>
</g>
<g>
</g>
<g>
</g>
<g>
</g>
<g>
</g>
<g>
</g>
<g>
</g>
<g>
</g>
<g>
</g>
<g>
</g>
<g>
</g>
</svg>
