<?xml version="1.0" encoding="iso-8859-1"?>
<!-- Generator: Adobe Illustrator 16.0.0, SVG Export Plug-In . SVG Version: 6.00 Build 0)  -->
<!DOCTYPE svg PUBLIC "-//W3C//DTD SVG 1.1//EN" "http://www.w3.org/Graphics/SVG/1.1/DTD/svg11.dtd">
<svg version="1.1" id="Capa_1" xmlns="http://www.w3.org/2000/svg" xmlns:xlink="http://www.w3.org/1999/xlink" x="0px" y="0px"
	 width="484.45px" height="484.45px" viewBox="0 0 484.45 484.45" style="enable-background:new 0 0 484.45 484.45;"
	 xml:space="preserve">
<g>
	<g>
		<path d="M163.417,23.125c-25.921,12.131-55.833,30.008-76.167,50.366c-25.037,25.057-54.599,59.705-68.733,92.521
			c-38.836,90.197-15.391,193.834,59.148,258.02c121.476,104.601,340.826,49.586,396.187-101.199
			c26.451-72.026,0.152-153.119-43.122-212.635C371.697,29,258.626-21.426,163.417,23.125z M142.419,263.105
			c-36.201,17.778-71.904,36.541-107.704,55.117c-17.821-57.031-8.925-122.301,24.064-176.191
			c4.42-7.218,9.854-14.429,15.927-21.482c25.979,24.514,51.791,49.196,78.559,72.851c0.041,0.036,0.089,0.059,0.129,0.094
			C142.196,214.476,138.649,239.023,142.419,263.105z M230.177,34.418c45.852-2.688,90.386,11.238,126.886,37.217
			c-0.954,0.904-1.848,1.95-2.6,3.306c-15.676,28.538-33.54,55.64-52.948,81.738c-21.525-14.607-48.743-21.589-77.655-15.251
			c-7.729-34.236-16.046-68.337-23.503-102.634C210.126,36.557,220.069,35.013,230.177,34.418z M168.16,444.029
			c0.264-0.519,0.556-1.001,0.774-1.579c11.893-31.961,24.352-63.709,37.105-95.334c9.942,3.89,20.952,6.342,33.065,6.911
			c8.087,0.381,15.699-0.087,22.889-1.219c9.547,31.225,20.053,62.124,30.727,92.982C251.802,455.785,208.39,455.556,168.16,444.029
			z M244.108,330.018c-40.02,2.422-63.812-29.392-72.45-59.342c-9.074-31.44-1.643-68.458,25.771-91.289
			c56.541-47.096,126.637,11.89,122.829,66.161c-0.117,1.622,0.143,3.029,0.589,4.309
			C317.622,289.135,295.016,326.935,244.108,330.018z M441.946,332.618c-0.706-0.122-1.417-0.224-2.158-0.224h-1.3
			c-0.132,0-0.259,0.036-0.396,0.041c-1.111-0.879-2.417-1.62-3.945-2.179c-32.555-11.755-64.693-24.612-97.151-36.652
			c8.063-17.728,11.953-37.409,11.613-56.277c35.581-5.096,70.929-11.573,106.358-17.6
			C464.686,260.363,458.698,298.946,441.946,332.618z"/>
	</g>
</g>
<g>
</g>
<g>
</g>
<g>
</g>
<g>
</g>
<g>
</g>
<g>
</g>
<g>
</g>
<g>
</g>
<g>
</g>
<g>
</g>
<g>
</g>
<g>
</g>
<g>
</g>
<g>
</g>
<g>
</g>
</svg>
