<?xml version="1.0" encoding="iso-8859-1"?>
<!-- Generator: Adobe Illustrator 16.0.0, SVG Export Plug-In . SVG Version: 6.00 Build 0)  -->
<!DOCTYPE svg PUBLIC "-//W3C//DTD SVG 1.1//EN" "http://www.w3.org/Graphics/SVG/1.1/DTD/svg11.dtd">
<svg version="1.1" id="Capa_1" xmlns="http://www.w3.org/2000/svg" xmlns:xlink="http://www.w3.org/1999/xlink" x="0px" y="0px"
	 width="464.962px" height="464.962px" viewBox="0 0 464.962 464.962" style="enable-background:new 0 0 464.962 464.962;"
	 xml:space="preserve">
<g>
	<g>
		<path d="M246.724,0.028c-1.198-0.084-2.27,0.03-3.275,0.224c-0.838-0.16-1.727-0.239-2.676-0.224
			C162.818,1.17,94.969,37.791,83.406,120.076c-10.483,74.593,22.95,152.458,68.377,210.642c-6.975,5.175-12.583,12.04-13.119,21.13
			c-0.546,9.227,4.268,16.549,10.565,22.516c-5.746,4.91-10.093,11.166-10.565,19.118c-0.77,13.021,9.057,22.287,18.781,29.234
			c0.376,0.269,0.749,0.437,1.122,0.645c-2.795,3.407-4.745,7.394-5.027,12.116c-0.65,10.943,7.617,18.737,15.792,24.577
			c0.556,0.401,1.112,0.69,1.668,0.955c1.597,1.65,3.806,2.787,6.713,2.909c41.553,1.701,82.959,2.605,123.527-7.855
			c2.63-0.686,4.433-2.097,5.58-3.839c0.96-1.041,1.742-2.346,2.245-3.981c3.006-9.892,1.833-19.885-3.266-28.223
			c2.849-0.641,5.692-1.32,8.536-2.052c3.128-0.808,5.266-2.493,6.637-4.565c1.138-1.239,2.067-2.788,2.661-4.737
			c3.717-12.229,2.011-24.558-4.677-34.703c0.787-0.665,1.478-1.392,2.016-2.199c1.138-1.238,2.067-2.787,2.661-4.737
			c4.052-13.314,1.727-26.776-6.53-37.374C406.386,225.223,425.865,12.69,246.724,0.028z M171.159,403.664
			c-0.515-0.523-1.061-1.031-1.706-1.493c-2.292-1.64-4.258-3.474-6.167-5.556c-0.536-0.584-0.67-1.65-0.779-1.884
			c0.774-2.117,3.702-4.042,6.556-5.545c1.021,0.27,2.097,0.457,3.303,0.457c42.211-0.071,84.389-1.046,126.562-2.844
			c2.056,2.966,2.854,6.129,2.716,9.638C258.693,406.385,215.02,405.42,171.159,403.664z M171.159,362.029
			c-0.515-0.522-1.061-1.03-1.706-1.492c-2.292-1.641-4.258-3.474-6.167-5.556c-0.536-0.589-0.67-1.655-0.779-1.889
			c0.774-2.112,3.702-4.037,6.556-5.54c1.021,0.269,2.097,0.457,3.303,0.457c42.211-0.071,84.389-1.047,126.562-2.844
			c2.056,2.96,2.854,6.129,2.716,9.638C258.693,364.746,215.02,363.787,171.159,362.029z M180.855,444.034
			c-0.432-0.437-0.889-0.868-1.435-1.255c-1.93-1.376-3.583-2.92-5.185-4.666c-0.452-0.498-0.561-1.392-0.655-1.59
			c0.655-1.777,3.115-3.392,5.517-4.661c0.858,0.229,1.762,0.386,2.783,0.386c35.492-0.066,70.952-0.879,106.411-2.392
			c1.731,2.488,2.396,5.148,2.285,8.104C254.463,446.324,217.739,445.511,180.855,444.034z M297.798,315.794
			c-1.6,1.808-2.463,3.742-2.854,5.682c-15.925,0.66-31.854,1.128-47.784,1.549c2.144-31.569,2.488-63.17,2.524-94.803
			c21.835-19.467,36.566-44.796,43.208-73.354c3.469-14.927-19.469-21.267-22.942-6.322c-5.428,23.341-16.533,43.175-33.446,59.521
			c-17.92-14.256-30.742-33.139-36.805-55.553c-4.004-14.794-26.957-8.508-22.942,6.322c7.878,29.13,25.319,52.956,49.125,70.833
			c-0.048,31.328-0.412,62.629-2.554,93.889c-15.635,0.295-31.271,0.574-46.908,0.62c-0.426-0.828-0.934-1.646-1.589-2.433
			c-41.663-50.541-70.267-115.824-69.294-182.061c1.15-78.549,62.805-114.808,135.237-115.867c1.173-0.018,2.225-0.208,3.209-0.484
			c0.858,0.243,1.763,0.411,2.742,0.484C405.137,35.018,374.395,229.217,297.798,315.794z"/>
	</g>
</g>
<g>
</g>
<g>
</g>
<g>
</g>
<g>
</g>
<g>
</g>
<g>
</g>
<g>
</g>
<g>
</g>
<g>
</g>
<g>
</g>
<g>
</g>
<g>
</g>
<g>
</g>
<g>
</g>
<g>
</g>
</svg>
