<?xml version="1.0" encoding="iso-8859-1"?>
<!-- Generator: Adobe Illustrator 16.0.0, SVG Export Plug-In . SVG Version: 6.00 Build 0)  -->
<!DOCTYPE svg PUBLIC "-//W3C//DTD SVG 1.1//EN" "http://www.w3.org/Graphics/SVG/1.1/DTD/svg11.dtd">
<svg version="1.1" id="Capa_1" xmlns="http://www.w3.org/2000/svg" xmlns:xlink="http://www.w3.org/1999/xlink" x="0px" y="0px"
	 width="460.631px" height="460.631px" viewBox="0 0 460.631 460.631" style="enable-background:new 0 0 460.631 460.631;"
	 xml:space="preserve">
<g>
	<g>
		<path d="M446.335,422.215c-12.273,0.005-24.547,0.051-36.825,0.07c-0.341-4.976-0.96-9.922-2.123-14.838
			c-1.863-7.835-10.628-12.4-18.184-10.318c-7.968,2.184-12.188,10.344-10.324,18.18c0.361,1.498,0.681,3.001,0.96,4.52
			c0.03,0.167,0.041,0.243,0.061,0.375c0.071,0.711,0.122,1.422,0.168,2.133c-25.532,0.051-51.064,0.087-76.602,0.143v-15.046
			c0-8.059-6.723-14.782-14.776-14.782c-8.059,0-14.782,6.724-14.782,14.782v15.066c-24.958,0.03-49.922,0.106-74.882,0.03v-9.181
			c0-8.06-6.723-14.782-14.777-14.782c-8.056,0-14.779,6.723-14.779,14.782v9.013c-21.018-0.116-42.041-0.218-63.059-0.482v-10.506
			c0-8.054-6.723-14.777-14.777-14.777c-8.056,0-14.779,6.724-14.779,14.777v10.115c-15.61-0.259-31.22-0.543-46.824-0.919
			c0.917-22.435,1.556-44.879,2.084-67.329h16.168c8.054,0,14.777-6.729,14.777-14.782s-6.723-14.776-14.777-14.776h-15.5
			c0.337-19.043,0.508-38.096,0.665-57.147h8.927c8.053,0,14.779-6.724,14.779-14.777s-6.726-14.776-14.779-14.776h-8.729
			c0.114-25.614,0.071-51.234,0.041-76.853h16.577c19.062,0,19.062-29.556,0-29.556H33.681c-0.043-20.363-0.079-40.726-0.114-61.088
			h18.667c19.062,0,19.062-29.557,0-29.557h-18.72V23.18c0-8.057-6.723-14.779-14.777-14.779c-8.059,0-14.777,6.723-14.777,14.779
			v17.732c0,0,0,0,0,0.005C4.01,171.639,5.811,302.415,0.017,433.056c-0.12,2.707,0.421,4.981,1.358,6.917
			c1.757,5.296,6.228,9.643,13.421,9.836c143.821,3.777,287.695,2.021,431.549,1.97
			C465.393,451.769,465.397,422.209,446.335,422.215z"/>
		<path d="M85.725,110.869h24.024c8.3,18.446,16.275,36.97,22.812,56.15c1.772,5.205,5.454,8.193,9.608,9.452
			c6.439,4.555,16.125,4.773,21.34-3.953c5.949-9.953,11.689-20.007,17.27-30.153c13.228,40.741,25.296,81.824,36.508,123.184
			c0.119,0.441,0.312,0.792,0.457,1.198c2.684,10.09,15.437,17.285,24.242,7.292c9.952-11.288,20.372-22.13,30.939-32.834
			c9.313,19.185,17.515,38.831,24.816,58.925c0.157,2.295,0.731,4.52,1.828,6.394c4.388,7.489,12.873,8.606,20.221,5.306
			c11.598-5.22,21.307-13.284,30.417-21.992c11.207,15.736,22.109,31.682,32.128,48.215c1.046,1.727,2.301,3.037,3.642,4.104
			c2.722,3.138,6.688,5.189,11.09,5.189h19.708c8.054,0,14.776-6.724,14.776-14.776c0-8.06-6.723-14.782-14.776-14.782h-12.278
			c-11.883-19.114-24.802-37.521-38.02-55.736c-5.87-8.089-15.808-7.713-22.211-3.306c-3.031,0.224-6.113,1.482-8.881,4.256
			c-4.906,4.905-9.775,9.557-15.036,13.7c-8.988-23.166-19.058-45.877-30.722-67.85c-5.012-9.45-15.234-8.892-21.678-3.621
			c-1.204,0.67-2.382,1.478-3.504,2.595c-8.531,8.528-17.017,17.097-25.347,25.813c-12.375-44.227-25.703-88.153-40.602-131.613
			c-3.633-10.608-15.094-12.195-22.582-8.008c-0.259,0.114-0.5,0.289-0.754,0.426c-0.203,0.129-0.412,0.239-0.609,0.374
			c-1.95,1.211-3.712,3.006-5.038,5.646c-5.7,11.326-11.725,22.457-17.92,33.502c-6.129-15.274-12.797-30.331-19.614-45.326
			c-3.161-6.957-9.15-8.643-14.688-7.119c-0.66-0.076-1.3-0.198-2.014-0.198H85.725C66.662,81.307,66.662,110.869,85.725,110.869z"
			/>
	</g>
</g>
<g>
</g>
<g>
</g>
<g>
</g>
<g>
</g>
<g>
</g>
<g>
</g>
<g>
</g>
<g>
</g>
<g>
</g>
<g>
</g>
<g>
</g>
<g>
</g>
<g>
</g>
<g>
</g>
<g>
</g>
</svg>
