<?xml version="1.0" encoding="iso-8859-1"?>
<!-- Generator: Adobe Illustrator 16.0.0, SVG Export Plug-In . SVG Version: 6.00 Build 0)  -->
<!DOCTYPE svg PUBLIC "-//W3C//DTD SVG 1.1//EN" "http://www.w3.org/Graphics/SVG/1.1/DTD/svg11.dtd">
<svg version="1.1" id="Capa_1" xmlns="http://www.w3.org/2000/svg" xmlns:xlink="http://www.w3.org/1999/xlink" x="0px" y="0px"
	 width="456.935px" height="456.935px" viewBox="0 0 456.935 456.935" style="enable-background:new 0 0 456.935 456.935;"
	 xml:space="preserve">
<g>
	<g>
		<path d="M121.806,192.07c-0.635-5.329-4.504-10.232-11.699-10.232c-23.364,0-46.723-0.043-70.074-0.787
			c-8.102-0.254-11.997,5.825-11.773,11.873c-1.356,1.777-2.163,4.098-2.079,6.957c1.965,70.983,11.034,141.582,12.225,212.602
			c0.099,5.743,3.666,9.303,8.043,10.694c1.623,0.985,3.532,1.681,5.814,1.858c19.827,1.533,39.654,3.113,59.481,4.707
			c2.562,0.209,4.659-0.299,6.385-1.208c6.244,0.173,12.535-3.585,12.355-11.345c-1.717-74.036-5.632-148.002-8.148-222.014
			C122.294,194.045,122.085,193.032,121.806,192.07z M62.549,402.311c-1.775-65.948-9.615-131.575-11.732-197.516
			c15.818,0.363,31.63,0.513,47.449,0.538c2.376,66.804,5.685,133.574,7.432,200.395C91.313,404.581,76.935,403.433,62.549,402.311z
			"/>
		<path d="M66.728,27.292c-0.835,0.089-1.607,0.271-2.354,0.477C28.026,29.42,1.824,58.527,0.067,95.06
			c-1.752,36.438,31.125,65.76,67.479,65.656c34.325-0.1,64.176-26.827,68.914-58.89C142.601,60.296,111.046,22.564,66.728,27.292z
			 M75.797,136.073C16.253,151.736,8.372,52.492,63.171,50.686c1.087,0.188,2.247,0.282,3.562,0.14
			c0.401-0.04,0.765-0.04,1.161-0.071c1.488,0.096,2.986,0.201,4.555,0.437c2.122,0.314,4.062,0.129,5.814-0.386
			C124.12,55.693,122.159,123.873,75.797,136.073z"/>
		<path d="M429.917,204.415c-40.248-60.626-106.729-79.247-176.14-65.227c-0.676-8.559-1.874-17.083-3.133-25.588
			c-0.787-5.327-6.719-8.523-12.035-8.539c-0.935-0.134-1.93-0.188-3.011-0.099c-18.715,1.508-37.45,2.293-56.221,2.356
			c-7.32,0.025-11.194,5.116-11.72,10.549c-0.254,0.869-0.437,1.79-0.505,2.783c-6.375,95.859-8.023,191.887-5.708,287.911
			c0.219,8.836,8.6,12.492,15.496,11.024c24.72,1.457,49.399,2.147,74.141,0.741c4.164-0.233,7.19-2.092,9.15-4.651
			c2.25-1.858,3.59-4.733,3.067-8.684c-6.038-46.083-42.401-188.378,38.557-186.928c0.93,0.167,1.92,0.262,3.001,0.213
			c100.072-4.1,52.187,129.801,56.411,193.28c0.579,8.658,8.887,12.345,15.671,11.061c0.955,0.33,1.96,0.589,3.072,0.705
			c21.13,2.291,42.31,3.859,63.562,4.708c8.089,0.325,11.983-5.708,11.766-11.745c0.34-1.188,0.543-2.474,0.457-3.941
			C451.214,340.908,471.846,267.572,429.917,204.415z M430.781,405.88c-15.254-0.817-30.473-2.051-45.682-3.61
			c-3.701-79.476,36.511-197.855-77.87-205.531c-104.363-0.988-79.56,133.683-69.741,200.549
			c-17.285,0.478-34.553,0.071-51.828-0.787c-1.836-88.651-0.249-177.295,5.324-265.804c12.454-0.241,24.887-0.858,37.315-1.732
			c0.881,7.132,1.521,14.287,1.592,21.49c0.03,3.255,1.224,5.767,3.012,7.622c2.087,4.951,7.164,8.663,14.091,6.86
			c71.6-18.636,132.337,1.392,169.747,63.95C449.087,282.958,426.49,344.194,430.781,405.88z"/>
	</g>
</g>
<g>
</g>
<g>
</g>
<g>
</g>
<g>
</g>
<g>
</g>
<g>
</g>
<g>
</g>
<g>
</g>
<g>
</g>
<g>
</g>
<g>
</g>
<g>
</g>
<g>
</g>
<g>
</g>
<g>
</g>
</svg>
