<?xml version="1.0" encoding="iso-8859-1"?>
<!-- Generator: Adobe Illustrator 16.0.0, SVG Export Plug-In . SVG Version: 6.00 Build 0)  -->
<!DOCTYPE svg PUBLIC "-//W3C//DTD SVG 1.1//EN" "http://www.w3.org/Graphics/SVG/1.1/DTD/svg11.dtd">
<svg version="1.1" id="Capa_1" xmlns="http://www.w3.org/2000/svg" xmlns:xlink="http://www.w3.org/1999/xlink" x="0px" y="0px"
	 width="480.451px" height="480.451px" viewBox="0 0 480.451 480.451" style="enable-background:new 0 0 480.451 480.451;"
	 xml:space="preserve">
<g>
	<g>
		<path d="M240.44,300.532c19.588,0,39.229-2.433,58.374-7.226c9.927-2.488,15.543-10.553,14.305-20.566
			c-1.184-9.617-9.1-19.829-21.444-19.829c-1.808,0-3.661,0.233-5.495,0.695c-14.97,3.748-30.366,5.647-45.77,5.647
			c-39.362,0-78.772-12.33-113.965-35.658c-27.449-18.212-74.793-56.129-83.421-105.558c-3.006-17.202,0.406-31.786,10.133-43.356
			c12.477-14.84,34.929-23.701,60.065-23.701c8.658,0,17.039,1.066,24.928,3.166c47.474,12.642,92.247,52.628,106.452,95.09
			c2.89,8.648,9.942,13.805,18.85,13.805c7.17,0,14.137-3.488,18.184-9.104c3.748-5.2,4.616-11.631,2.448-18.111
			C262.11,70.157,172.703,8.076,100.108,8.076c-50.632,0-85.356,29.354-97.779,82.657c-16.052,68.883,55.004,132.654,86.297,156.871
			c44.729,34.622,97.22,52.928,151.804,52.928C240.435,300.532,240.435,300.532,240.44,300.532z"/>
		<path d="M391.832,232.845c-44.736-34.627-97.232-52.931-151.823-52.931c-19.594,0-39.228,2.435-58.379,7.229
			c-9.92,2.486-15.536,10.555-14.305,20.566c1.186,9.615,9.104,19.827,21.449,19.832l0,0c1.805,0,3.656-0.233,5.492-0.696
			c53.26-13.324,110.789-2.439,159.741,30.011c27.451,18.21,74.793,56.132,83.421,105.551c3.001,17.204-0.411,31.788-10.136,43.366
			c-12.472,14.838-34.927,23.699-60.062,23.699c-8.652,0-17.042-1.066-24.928-3.164c-47.479-12.649-92.251-52.638-106.452-95.09
			c-2.892-8.653-9.942-13.807-18.85-13.807c-7.17,0-14.14,3.483-18.179,9.1c-3.75,5.205-4.619,11.633-2.45,18.113
			c21.97,65.668,111.375,127.751,183.975,127.751c50.628,0,85.356-29.351,97.776-82.659
			C494.174,320.838,423.123,257.064,391.832,232.845z"/>
	</g>
</g>
<g>
</g>
<g>
</g>
<g>
</g>
<g>
</g>
<g>
</g>
<g>
</g>
<g>
</g>
<g>
</g>
<g>
</g>
<g>
</g>
<g>
</g>
<g>
</g>
<g>
</g>
<g>
</g>
<g>
</g>
</svg>
