<?xml version="1.0" encoding="iso-8859-1"?>
<!-- Generator: Adobe Illustrator 16.0.0, SVG Export Plug-In . SVG Version: 6.00 Build 0)  -->
<!DOCTYPE svg PUBLIC "-//W3C//DTD SVG 1.1//EN" "http://www.w3.org/Graphics/SVG/1.1/DTD/svg11.dtd">
<svg version="1.1" id="Capa_1" xmlns="http://www.w3.org/2000/svg" xmlns:xlink="http://www.w3.org/1999/xlink" x="0px" y="0px"
	 width="490.688px" height="490.688px" viewBox="0 0 490.688 490.688" style="enable-background:new 0 0 490.688 490.688;"
	 xml:space="preserve">
<g>
	<g>
		<path d="M115.355,70.646c0.188-3.671-0.696-7.051-2.562-9.818c-2.788-5.256-7.853-8.45-13.946-8.774
			c-26.243-1.433-52.415-1.552-79.148-1.557c-4.575,0-8.541,1.582-11.537,4.588c-6.208,3.877-9.204,10.628-7.835,17.809
			c3.743,19.723,5.548,40.547,5.677,65.559c0.005,1.348,0.188,2.699,0.541,4.113c0.8,8.783,7.29,15.227,15.953,15.729
			c27.561,1.622,52.375,3.209,77,6.162c0.724,0.089,1.419,0.124,2.089,0.124c2.232,0,4.342-0.446,6.282-1.33
			c7.312-2.074,11.441-8.351,10.557-16.141C115.2,118.745,114.202,93.733,115.355,70.646z M83.069,129.081
			c-15.478-1.49-30.506-2.536-43.787-3.369c-0.447-14.479-1.544-28.178-3.329-41.581c17.717,0.076,32.131,0.328,45.463,0.8
			C81.251,99.075,81.797,113.619,83.069,129.081z"/>
		<path d="M133.494,138.447c0.005,1.364,0.175,2.689,0.541,4.124c0.805,8.783,7.29,15.221,15.948,15.729
			c10.374,0.614,59.387,1.229,116.141,1.945c84.787,1.066,190.312,2.392,205.516,4.217c0.727,0.089,1.422,0.125,2.092,0.125
			c2.229,0,4.342-0.447,6.281-1.331c7.312-2.074,11.441-8.351,10.553-16.14c-3.22-28.371-4.225-53.382-3.062-76.464
			c0.184-3.671-0.7-7.051-2.564-9.818c-2.787-5.256-7.851-8.45-13.949-8.774c-27.659-1.508-320.849-1.557-323.81-1.557
			c-4.575,0-8.549,1.582-11.537,4.588c-6.21,3.877-9.204,10.628-7.838,17.809C131.559,92.601,133.359,113.426,133.494,138.447z
			 M455.247,129.353c-24.136-0.947-103.931-1.716-175.257-2.401c-49.842-0.48-97.261-0.942-113.223-1.358
			c-0.452-14.439-1.549-28.099-3.329-41.467l11.575,0.015c161.149,0.198,254.666,0.488,278.553,0.869
			C453.403,99.195,453.957,113.802,455.247,129.353z"/>
		<path d="M487.513,208.452c0.188-3.671-0.701-7.051-2.564-9.815c-2.788-5.258-7.846-8.45-13.949-8.782
			c-27.188-1.483-311.699-1.552-323.8-1.557c-4.581,0-8.559,1.587-11.547,4.588c-6.21,3.877-9.204,10.628-7.838,17.809
			c3.745,19.708,5.545,40.535,5.68,65.544c0.005,1.376,0.175,2.696,0.541,4.129c0.805,8.784,7.29,15.224,15.948,15.731
			c10.384,0.609,59.445,1.229,116.252,1.939c84.741,1.066,190.206,2.396,205.409,4.22c0.727,0.086,1.422,0.127,2.093,0.127
			c2.229,0,4.341-0.447,6.281-1.33c7.312-2.077,11.44-8.354,10.552-16.143C487.355,256.546,486.35,231.534,487.513,208.452z
			 M455.247,267.159c-24.146-0.95-104.007-1.717-175.394-2.407c-49.774-0.482-97.129-0.939-113.086-1.355
			c-0.452-14.447-1.549-28.107-3.329-41.475l11.639,0.015c161.111,0.198,254.607,0.488,278.489,0.869
			C453.403,237.001,453.957,251.605,455.247,267.159z"/>
		<path d="M487.513,346.259c0.188-3.672-0.701-7.049-2.564-9.815c-2.788-5.256-7.846-8.45-13.949-8.78
			c-27.681-1.514-320.845-1.554-323.82-1.554c-4.57,0-8.543,1.584-11.527,4.59c-6.21,3.87-9.204,10.623-7.838,17.804
			c3.745,19.702,5.545,40.532,5.68,65.547c0.005,1.351,0.183,2.701,0.541,4.128c0.805,8.78,7.29,15.229,15.948,15.727
			c10.369,0.609,59.336,1.229,116.029,1.939c84.838,1.066,190.414,2.397,205.628,4.226c0.727,0.091,1.422,0.122,2.092,0.122
			c2.229,0,4.342-0.447,6.281-1.331c7.312-2.071,11.441-8.348,10.553-16.138C487.355,394.347,486.35,369.333,487.513,346.259z
			 M455.247,404.965c-24.146-0.949-104.007-1.716-175.394-2.406c-49.774-0.482-97.129-0.939-113.086-1.356
			c-0.452-14.441-1.549-28.106-3.329-41.477l13.271,0.021c61.624,0.07,241.336,0.294,276.856,0.863
			C453.403,374.807,453.957,389.411,455.247,404.965z"/>
		<path d="M115.355,208.452c0.188-3.671-0.696-7.051-2.562-9.815c-2.788-5.253-7.848-8.45-13.946-8.782
			c-26.208-1.427-52.39-1.552-79.135-1.557c-4.583,0-8.554,1.587-11.55,4.588c-6.203,3.877-9.204,10.628-7.835,17.809
			c3.743,19.728,5.548,40.556,5.677,65.564c0.005,1.346,0.188,2.696,0.541,4.113c0.805,8.779,7.295,15.229,15.948,15.727
			c28.589,1.686,52.41,3.219,77,6.164c0.724,0.092,1.419,0.122,2.09,0.122c2.232,0,4.342-0.447,6.281-1.33
			c7.312-2.072,11.441-8.349,10.558-16.138C115.2,256.551,114.202,231.54,115.355,208.452z M83.069,266.89
			c-15.65-1.503-31.062-2.574-43.787-3.361c-0.447-14.493-1.544-28.188-3.329-41.586c13.178,0.051,29.1,0.223,45.463,0.8
			C81.251,236.882,81.797,251.422,83.069,266.89z"/>
		<path d="M115.355,340.703c0.188-3.676-0.696-7.053-2.562-9.82c-2.788-5.256-7.848-8.45-13.946-8.775
			c-26.202-1.432-52.385-1.554-79.135-1.563c-4.583,0-8.554,1.589-11.55,4.591c-6.208,3.879-9.204,10.623-7.835,17.812
			c3.743,19.719,5.548,40.548,5.677,65.557c0.005,1.352,0.188,2.702,0.541,4.113c0.805,8.785,7.295,15.225,15.953,15.732
			c27.518,1.625,52.301,3.199,77,6.164c0.724,0.086,1.419,0.122,2.089,0.122c2.232,0,4.342-0.447,6.282-1.33
			c7.312-2.072,11.441-8.349,10.557-16.138C115.2,388.792,114.202,363.783,115.355,340.703z M83.069,399.131
			c-15.65-1.504-31.062-2.57-43.787-3.362c-0.447-14.492-1.544-28.183-3.329-41.588c13.188,0.061,29.12,0.223,45.463,0.802
			C81.251,369.13,81.797,383.668,83.069,399.131z"/>
	</g>
</g>
<g>
</g>
<g>
</g>
<g>
</g>
<g>
</g>
<g>
</g>
<g>
</g>
<g>
</g>
<g>
</g>
<g>
</g>
<g>
</g>
<g>
</g>
<g>
</g>
<g>
</g>
<g>
</g>
<g>
</g>
</svg>
