<?xml version="1.0" encoding="iso-8859-1"?>
<!-- Generator: Adobe Illustrator 16.0.0, SVG Export Plug-In . SVG Version: 6.00 Build 0)  -->
<!DOCTYPE svg PUBLIC "-//W3C//DTD SVG 1.1//EN" "http://www.w3.org/Graphics/SVG/1.1/DTD/svg11.dtd">
<svg version="1.1" id="Capa_1" xmlns="http://www.w3.org/2000/svg" xmlns:xlink="http://www.w3.org/1999/xlink" x="0px" y="0px"
	 width="470.684px" height="470.684px" viewBox="0 0 470.684 470.684" style="enable-background:new 0 0 470.684 470.684;"
	 xml:space="preserve">
<g>
	<g>
		<path d="M47.015,458.125c2.557,1.493,5.792,2.118,9.711,1.255c63.381-13.889,126.005-41.162,188.583-58.245
			c0.767,0.488,1.554,0.955,2.473,1.346c53.837,22.547,109.172,51.06,165.126,67.532c2.854,0.838,5.524,0.828,7.987,0.315
			c9.943-0.168,19.697-8.963,14.178-20.435C365.81,305.985,303.478,158.985,246.63,9.748c-2.387-6.276-7.246-9.006-12.337-9.24
			c-6.409-1.658-13.292,0.595-15.892,8.877c-46.088,146.911-93.323,296.061-181.507,424.026
			C29.526,444.106,37.509,455.948,47.015,458.125z M392.734,432.055c-44.92-13.883-89.347-39.521-132.773-57.706
			c-1.021-0.432-2.021-0.711-2.996-0.919c-0.457-88.799-0.152-167.205-1.092-256.004
			C298.344,223.645,343.777,328.632,392.734,432.055z M224.968,89.374c1.432,98.573,1.066,186.758,1.561,285.342
			c-48.525,13.207-97.108,36.521-146.08,47.926C145.371,319.487,187.51,205.09,224.968,89.374z"/>
	</g>
</g>
<g>
</g>
<g>
</g>
<g>
</g>
<g>
</g>
<g>
</g>
<g>
</g>
<g>
</g>
<g>
</g>
<g>
</g>
<g>
</g>
<g>
</g>
<g>
</g>
<g>
</g>
<g>
</g>
<g>
</g>
</svg>
