<?xml version="1.0" encoding="iso-8859-1"?>
<!-- Generator: Adobe Illustrator 16.0.0, SVG Export Plug-In . SVG Version: 6.00 Build 0)  -->
<!DOCTYPE svg PUBLIC "-//W3C//DTD SVG 1.1//EN" "http://www.w3.org/Graphics/SVG/1.1/DTD/svg11.dtd">
<svg version="1.1" id="Capa_1" xmlns="http://www.w3.org/2000/svg" xmlns:xlink="http://www.w3.org/1999/xlink" x="0px" y="0px"
	 width="453.283px" height="453.282px" viewBox="0 0 453.283 453.282" style="enable-background:new 0 0 453.283 453.282;"
	 xml:space="preserve">
<g>
	<g>
		<path d="M371.153,179.128c-1.106-0.335-2.274-0.579-3.574-0.649c-4.692-0.272-9.385-0.559-14.076-0.833
			c3.433,0.203,4.85-61.347,4.494-67.105c-1.3-21.178-5.505-43.079-15.057-62.185c-18.91-37.829-58.381-45.554-96.537-47.842
			c-41.124-2.47-83.441,3.004-110.464,38.339c-28.206,36.876-34.205,84.82-31.247,130.037c-8.079,0.218-16.151,0.396-24.237,0.784
			c-8.792,0.422-13.294,7.297-13.551,14.155c-0.29,1.076-0.493,2.214-0.541,3.463c-3.146,81.009-0.477,162.124-5.281,243.083
			c-0.625,10.471,8.475,14.832,16.503,13.223c1.399,0.487,2.907,0.838,4.634,0.868c98.083,1.828,196.129,5.246,294.159,8.806
			c8.876,0.325,13.37-6.23,13.573-13.097c1.463-2.097,2.347-4.758,2.275-8.038c-1.59-79.896-0.447-159.85-7.049-239.556
			C384.499,184.077,377.826,179.616,371.153,179.128z M136.005,112.059c3.74-17.646,10.781-34.901,20.952-49.836
			c16.846-24.734,52.407-35.302,84.059-35.279c11.039,0.005,21.602,1.3,30.727,3.732c38.115,10.151,56.797,37.519,58.727,75.975
			c1.082,21.533-0.462,45.156-4.661,66.321c-0.213,1.039-0.284,2.034-0.295,2.999c-5.891-0.358-11.78-0.706-17.671-1.066
			c4.469-20.782,4.763-41.67-4.275-61.888c-10.726-23.991-38.537-34.444-62.587-37.963c-1.244-0.183-2.427-0.188-3.569-0.094
			c-1.138-0.264-2.356-0.432-3.707-0.406c-23.298,0.462-46.286,6.683-61.824,25.085c-16.042,19.004-18.464,44.993-15.953,68.854
			c-7.69-0.071-15.381-0.104-23.072-0.061C130.036,168.446,135.012,116.745,136.005,112.059z M279.465,173.24
			c-31.772-1.825-63.543-3.425-95.336-4.237c-1.803-16.047-1.892-32.484,6.2-46.949c8.605-15.381,27.271-19.001,43.384-19.319
			c0.589-0.011,1.086-0.13,1.64-0.198c17.798,2.768,34.769,7.911,43.879,24.699C286.478,140.591,283.528,158.217,279.465,173.24z
			 M89.945,416.439c3.598-72.96,1.861-146.037,4.291-219.036c88.07-3.141,175.846,3.532,263.735,8.683
			c5.25,72.74,4.661,145.659,5.961,218.549C272.621,421.335,181.306,418.228,89.945,416.439z"/>
		<path d="M226.649,239.183c-19.39,0-35.109,15.722-35.109,35.109c0,15.717,10.326,29.016,24.564,33.494
			c-1.005,20.454-1.145,40.924-1.145,61.403c0,13.411,20.799,13.411,20.799,0c0-20.449,0.137-40.894,1.143-61.316
			c14.391-4.388,24.856-17.758,24.856-33.581C261.758,254.904,246.042,239.183,226.649,239.183z"/>
	</g>
</g>
<g>
</g>
<g>
</g>
<g>
</g>
<g>
</g>
<g>
</g>
<g>
</g>
<g>
</g>
<g>
</g>
<g>
</g>
<g>
</g>
<g>
</g>
<g>
</g>
<g>
</g>
<g>
</g>
<g>
</g>
</svg>
