<?xml version="1.0" encoding="iso-8859-1"?>
<!-- Generator: Adobe Illustrator 16.0.0, SVG Export Plug-In . SVG Version: 6.00 Build 0)  -->
<!DOCTYPE svg PUBLIC "-//W3C//DTD SVG 1.1//EN" "http://www.w3.org/Graphics/SVG/1.1/DTD/svg11.dtd">
<svg version="1.1" id="Capa_1" xmlns="http://www.w3.org/2000/svg" xmlns:xlink="http://www.w3.org/1999/xlink" x="0px" y="0px"
	 width="463.372px" height="463.372px" viewBox="0 0 463.372 463.372" style="enable-background:new 0 0 463.372 463.372;"
	 xml:space="preserve">
<g>
	<g>
		<path d="M132.047,82.161c-0.701-0.645-1.43-1.138-2.168-1.554c-3.624-3.964-10.078-5.73-15.298-1.206
			c-13.921,12.073-26.474,25.161-37.544,39.902c-0.16,0.213-0.249,0.427-0.388,0.645c-3.085,3.662-3.72,8.881,1.163,12.766
			c103.54,82.385,226.516,204.645,315.533,302.508c0.229,0.279,0.411,0.568,0.68,0.833l18.388,18.382
			c0.695,0.701,1.422,1.229,2.168,1.676c3.682,3.615,9.669,4.875,14.376,0.168l28.498-28.493c0.771-0.781,1.335-1.594,1.803-2.422
			c4.301-3.56,6.149-10.06,0.954-15.046C357.641,311.99,236.639,178.333,132.047,82.161z M188.101,199.434
			c-28.848-26.114-58.3-51.417-88.375-75.606c6.729-8.17,14.157-15.747,21.962-22.906c27.611,25.537,54.517,51.828,81.078,78.482
			C198.792,187,193.958,193.531,188.101,199.434z"/>
		<path d="M42.375,138.496l-33.553,4.072c-13.317,1.618-10.811,22.265,2.506,20.647l33.553-4.07
			C58.198,157.528,55.692,136.883,42.375,138.496z"/>
		<path d="M64.604,75.577c-11.87-7.99-23.227-16.706-35.099-24.699C18.346,43.365,7.947,61.394,19.009,68.838
			c11.87,7.993,23.227,16.707,35.099,24.699C65.267,101.058,75.662,83.029,64.604,75.577z"/>
		<path d="M85.302,5.379c-5.309,3.11-6.007,9.039-3.73,14.229c4.128,9.427,9.199,18.37,14.3,27.299
			c6.649,11.641,24.621,1.168,17.96-10.499c-5.101-8.93-10.171-17.872-14.299-27.299C97.255,3.919,89.763,2.769,85.302,5.379z"/>
		<path d="M151.994,35.595L146.71,57.05c-3.207,13.028,16.989,17.999,20.198,4.977l5.284-21.459
			C175.398,27.547,155.203,22.571,151.994,35.595z"/>
	</g>
</g>
<g>
</g>
<g>
</g>
<g>
</g>
<g>
</g>
<g>
</g>
<g>
</g>
<g>
</g>
<g>
</g>
<g>
</g>
<g>
</g>
<g>
</g>
<g>
</g>
<g>
</g>
<g>
</g>
<g>
</g>
</svg>
