<?xml version="1.0" encoding="iso-8859-1"?>
<!-- Generator: Adobe Illustrator 16.0.0, SVG Export Plug-In . SVG Version: 6.00 Build 0)  -->
<!DOCTYPE svg PUBLIC "-//W3C//DTD SVG 1.1//EN" "http://www.w3.org/Graphics/SVG/1.1/DTD/svg11.dtd">
<svg version="1.1" id="Capa_1" xmlns="http://www.w3.org/2000/svg" xmlns:xlink="http://www.w3.org/1999/xlink" x="0px" y="0px"
	 width="472.414px" height="472.415px" viewBox="0 0 472.414 472.415" style="enable-background:new 0 0 472.414 472.415;"
	 xml:space="preserve">
<g>
	<g>
		<path d="M446.716,139.529C407.555,57.298,320.889,0.458,236.211,5.257c-84.67-4.798-171.336,52.042-210.5,134.272
			c-20,41.99-23.201,91.34-24.773,137.072c-1.991,58.016-0.66,116.575,2.554,174.51c0.587,10.598,10.4,15.036,18.359,13.365
			c39.807,1.879,79.58,3.514,119.437,2.788c6.251-0.112,10.326-3.515,12.324-7.906c1.191-1.985,1.95-4.383,1.933-7.298
			c-0.27-47.458-4.024-94.693-0.562-142.143c1.851-25.395,6.434-51.495,17.56-74.58c12.835-26.619,36.125-35.906,63.216-36.381
			c0.15,0,0.302-0.005,0.447,0c0.149,0,0.302,0.005,0.447,0c27.098,0.475,50.386,9.762,63.218,36.381
			c11.126,23.085,15.706,49.186,17.56,74.58c3.463,47.449-0.295,94.685-0.563,142.143c-0.016,2.915,0.736,5.307,1.935,7.298
			c2.001,4.392,6.073,7.8,12.324,7.906c39.856,0.721,79.628-0.909,119.434-2.788c7.963,1.676,17.773-2.768,18.362-13.365
			c3.215-57.935,4.545-116.494,2.555-174.51C469.917,230.869,466.713,181.519,446.716,139.529z M31.17,436.375
			c-1.003-17.656-2.026-35.647-2.839-53.791c32.255,1.057,64.541,0.416,96.769,2.128c0.49,19.367,1.318,37.806,1.711,54.101
			C94.911,438.964,63.047,437.827,31.17,436.375z M441.252,436.375c-31.875,1.452-63.733,2.585-95.639,2.438
			c0.376-15.641,1.152-33.266,1.646-51.785h96.634C443.121,403.672,442.176,420.166,441.252,436.375z M445.035,358.519h-97.33
			c0.143-84.787-12.141-177.227-96.685-187.187c-1.025-0.292-2.117-0.49-3.285-0.569c-2.661-0.183-5.154-0.165-7.708-0.213
			c-1.262-0.041-2.512-0.099-3.812-0.104c-1.295,0.005-2.546,0.069-3.811,0.104c-2.549,0.053-5.045,0.038-7.701,0.213
			c-1.175,0.079-2.267,0.282-3.293,0.569c-83.769,9.866-96.586,100.709-96.68,184.855c-32.463-1.706-64.978-1.041-97.461-2.147
			c-1.663-58.229,0.183-117.266,13.535-171.816C62.963,91.743,145.401,32.47,228.713,33.508c1.374,0.338,2.849,0.536,4.535,0.411
			c0.987-0.073,1.975-0.094,2.963-0.145c0.987,0.056,1.975,0.071,2.963,0.145c1.686,0.125,3.164-0.073,4.535-0.411
			c83.313-1.039,165.75,58.234,187.91,148.716C445.319,238.171,446.914,298.848,445.035,358.519z"/>
	</g>
</g>
<g>
</g>
<g>
</g>
<g>
</g>
<g>
</g>
<g>
</g>
<g>
</g>
<g>
</g>
<g>
</g>
<g>
</g>
<g>
</g>
<g>
</g>
<g>
</g>
<g>
</g>
<g>
</g>
<g>
</g>
</svg>
