<?xml version="1.0" encoding="iso-8859-1"?>
<!-- Generator: Adobe Illustrator 16.0.0, SVG Export Plug-In . SVG Version: 6.00 Build 0)  -->
<!DOCTYPE svg PUBLIC "-//W3C//DTD SVG 1.1//EN" "http://www.w3.org/Graphics/SVG/1.1/DTD/svg11.dtd">
<svg version="1.1" id="Capa_1" xmlns="http://www.w3.org/2000/svg" xmlns:xlink="http://www.w3.org/1999/xlink" x="0px" y="0px"
	 width="472.02px" height="472.021px" viewBox="0 0 472.02 472.021" style="enable-background:new 0 0 472.02 472.021;"
	 xml:space="preserve">
<g>
	<g>
		<path d="M435.246,114.308c-0.3-1.155-0.757-2.252-1.396-3.344c-0.071-0.625-0.183-1.265-0.355-1.92
			C408.617,14.165,314.841,0,261.152,0c-42.581,0-79.874,8.152-103.664,14.995C99.566,31.661,58.125,57.904,34.298,93.008
			c-23.112,34.061-18.136,77.541,13.629,119.383c1.3,53.257,15.683,99.955,42.747,138.832
			c25.303,36.338,61.316,63.811,102.438,79.09c2.595,10.369,3.24,20.733,2.168,31.742c-1.295,13.351,19.515,13.224,20.799,0
			c0.81-8.333,0.666-16.579-0.411-24.709c7.467,1.884,15.054,3.387,22.739,4.469c9.166,1.289,18.479,1.944,27.68,1.944
			c25.188,0,49.465-4.829,71.712-13.949c1.447,10.847,5.164,21.292,11.425,30.56c7.47,11.05,25.497,0.65,17.961-10.491
			c-6.261-9.272-8.993-19.164-9.231-29.808c12.735-7.201,24.582-15.945,35.241-26.162c60.26-57.757,61.799-148.459,57.355-197.386
			C448.301,171.803,443.293,144.902,435.246,114.308z M60.491,128.727c-3.288,1.559-5.487,4.56-6.23,8.533
			c-1.603,8.501-2.923,17.228-3.951,26.045c-7.625-23.176-3.707-44.661,11.7-63.998c27.388-34.363,74.476-50.975,107.521-60.481
			c29.707-8.549,62.368-13.249,91.963-13.249c45.939,0,126.086,11.741,146.707,90.373c0.305,1.16,0.762,2.257,1.402,3.344
			c0.07,0.625,0.183,1.265,0.355,1.92c2.519,9.602,4.839,19.44,6.896,29.294c-14.625-2.922-26.898-10.336-37.399-22.602
			c-3.103-3.615-6.53-4.375-8.866-4.375c-2.63,0-5.261,0.952-7.525,2.704c-1.604-0.337-3.21-0.411-4.951-0.162
			c-53.821,7.947-106.525,15.082-159.689,15.082c-46.06,0-86.76-5.482-124.418-16.755C68.748,122.823,63.604,124.514,60.491,128.727
			z M397.125,347.323c-26.705,44.016-76.176,70.3-132.353,70.3l-2.88-0.031c-53.021-0.863-104.55-26.466-141.375-70.243
			c-29.364-34.896-45.453-82.024-46.545-136.323c0.406-1.998,0.386-3.948-0.066-5.794c-0.018-17.298,1.409-34.952,4.248-52.52
			c36.559,9.74,75.761,14.482,119.736,14.482c55.614,0,110.522-7.429,166.557-15.703c0.361-0.051,0.731-0.12,1.087-0.203
			c15.077,15.168,34.454,24.232,56.233,26.321C432.315,247.104,424.247,302.637,397.125,347.323z"/>
		<path d="M176.421,261.414c-0.005-8.379-6.604-12.766-13.114-12.766c-3.375,0-6.543,1.127-8.925,3.168
			c-2.734,2.356-4.184,5.678-4.184,9.598c0,6.256,0.249,14.482,2.199,22.663c1.335,5.621,6.713,9.698,12.781,9.698
			c1.15,0,2.277-0.152,3.364-0.451c6.837-1.879,10.875-8.928,9.184-16.036C176.515,272.174,176.421,267.69,176.421,261.414z"/>
		<path d="M331.914,251.101c-1.127-5.57-6.647-9.775-12.848-9.775c-1.143,0-2.259,0.152-3.32,0.437
			c-6.825,1.879-10.699,8.593-9.207,15.955c1.909,9.42,4.245,17.58,7.135,24.964c2.28,5.789,7.068,9.389,12.513,9.389
			c1.162,0,2.351-0.162,3.534-0.492c3.483-0.955,6.723-3.696,8.454-7.149c1.534-3.058,1.752-6.338,0.615-9.232
			C335.991,268.03,333.802,260.368,331.914,251.101z"/>
		<path d="M173.103,201.28c-13.061-1.622-26.009-0.229-37.313,4.024c-7.368,2.772-9.615,9.816-8.564,15.569
			c1.142,6.259,5.697,10.46,11.352,10.46c1.5,0,3.062-0.302,4.631-0.889c8.945-3.364,18.377-4.332,29.259-2.986
			c0.417,0.054,0.833,0.079,1.239,0.079c3.245,0,6.353-1.544,8.757-4.347c2.184-2.552,3.436-5.761,3.436-8.818
			C185.894,207.384,180.877,202.248,173.103,201.28z"/>
		<path d="M338.504,197.754c-14.279,0-28.273,0.142-42.35,1.767c-8.506,0.985-12.686,8.539-12.305,15.153
			c0.381,6.662,4.891,11.139,11.218,11.139c0.543,0,1.102-0.031,1.686-0.1c13.787-1.589,27.619-1.731,41.746-1.731
			c8.379,0,12.771-6.599,12.767-13.114C351.271,204.348,346.883,197.754,338.504,197.754z"/>
		<path d="M297.958,331.206c-24.674,9.846-47.982,10.39-73.189,1.716c-7.551-2.59-14.746,2.133-16.071,10.075
			c-0.958,5.697,1.398,12.573,8.782,15.111c13.888,4.773,27.997,7.201,41.937,7.201c0,0,0,0,0.005,0
			c15.584,0,31.077-3.026,46.042-8.988c7.343-2.93,9.506-10.085,8.394-15.879C312.369,332.602,305.305,328.307,297.958,331.206z"/>
		<path d="M237.524,305.75c13.396,3.682,27.071,5.134,40.294,0c11.878-4.616,6.718-23.953-5.316-19.276
			c-10.131,3.936-19.398,2.818-29.663,0C230.384,283.057,225.106,302.343,237.524,305.75z"/>
	</g>
</g>
<g>
</g>
<g>
</g>
<g>
</g>
<g>
</g>
<g>
</g>
<g>
</g>
<g>
</g>
<g>
</g>
<g>
</g>
<g>
</g>
<g>
</g>
<g>
</g>
<g>
</g>
<g>
</g>
<g>
</g>
</svg>
