<?xml version="1.0" encoding="iso-8859-1"?>
<!-- Generator: Adobe Illustrator 16.0.0, SVG Export Plug-In . SVG Version: 6.00 Build 0)  -->
<!DOCTYPE svg PUBLIC "-//W3C//DTD SVG 1.1//EN" "http://www.w3.org/Graphics/SVG/1.1/DTD/svg11.dtd">
<svg version="1.1" id="Capa_1" xmlns="http://www.w3.org/2000/svg" xmlns:xlink="http://www.w3.org/1999/xlink" x="0px" y="0px"
	 width="485.887px" height="485.887px" viewBox="0 0 485.887 485.887" style="enable-background:new 0 0 485.887 485.887;"
	 xml:space="preserve">
<g>
	<g>
		<path d="M466.827,35.833c-2.508-1.607-5.383-2.466-8.551-2.542c-70.559-1.774-136.43,22.765-200.032,46.532
			c-60.164,22.485-122.384,45.737-187.585,45.742c-0.005,0-0.01,0-0.021,0c-15.742,0-31.43-1.366-46.634-4.055
			c-5.502-0.982-10.326,0.467-14.241,3.9c-5.096,2.782-8.122,7.81-8.32,13.853c-2.173,66.765-1.434,134.622-0.724,200.245
			c0.333,30.376,0.671,61.788,0.724,92.688c0.011,5.911,2.745,10.877,7.533,13.716c2.933,3.926,7.353,6.2,12.497,6.408
			c5.989,0.244,12.126,0.366,18.225,0.366c0,0,0,0,0.005,0c78.039,0,153.645-20.368,226.752-40.065
			c64.383-17.341,130.961-35.282,198.914-39.217c4.885-0.279,9.008-2.306,11.928-5.855c2.986-3.615,4.434-8.643,3.921-13.527
			c0.401-1.483,0.604-2.829,0.63-4.205c0.446-22.099,1.086-44.198,1.731-66.293c2.219-76.05,4.504-154.692-1.737-232.065
			C481.076,41.995,473.86,36.854,466.827,35.833z M450.278,285.093c-0.538,18.753-1.071,37.511-1.493,56.264
			c-62.718,5.597-124.309,22.166-183.898,38.191c-74.388,20.003-151.507,40.654-230.253,39.807
			c-0.104-26.269-0.374-52.537-0.65-78.8c-0.63-60.362-1.285-122.753,0.282-184.148c12.771,1.508,25.781,2.272,38.722,2.272
			c50.762,0,103.223-11.314,165.095-35.62l15.627-6.167c65.1-25.748,126.614-50.079,195.837-50.354
			C454.442,139.353,452.325,213.435,450.278,285.093z"/>
		<path d="M83.315,347.501c-1.551,0.736-4.276,1.549-6.751,2.199c-2.958,0.781-5.969,1.351-8.97,1.949
			c-5.558,1.112-8.684,7.622-7.264,12.792c1.582,5.753,7.239,8.379,12.792,7.262c7.172-1.433,14.045-3.088,20.685-6.246
			c5.119-2.438,6.414-9.653,3.735-14.229C94.504,346.039,88.437,345.069,83.315,347.501z"/>
		<path d="M137.914,324.102c-4.9,3.545-10.333,5.896-15.716,8.049c-5.255,2.107-8.891,6.865-7.264,12.792
			c1.379,5.001,7.526,9.373,12.792,7.261c7.124-2.854,14.426-5.611,20.685-10.146c4.583-3.321,6.807-8.983,3.735-14.229
			C149.486,323.3,142.514,320.771,137.914,324.102z"/>
		<path d="M191.314,285.103c-5.157-3.021-11.022-0.934-14.231,3.728c-0.083,0.127-0.701,0.939-0.952,1.29
			c-0.69,0.838-1.409,1.655-2.13,2.458c-1.826,2.021-3.766,3.925-5.69,5.85c-4.009,4.012-4.009,10.704,0,14.706
			c4.004,4.006,10.702,4.012,14.706,0c4.337-4.337,8.544-8.729,12.027-13.808C198.258,294.649,195.932,287.81,191.314,285.103z"/>
		<path d="M188.663,235.585c-5.667,0-10.4,4.733-10.4,10.397v10.399c0,5.667,4.733,10.399,10.4,10.399s10.4-4.732,10.4-10.399
			v-10.399C199.063,240.318,194.33,235.585,188.663,235.585z"/>
		<path d="M188.496,167.055c-9.826,3.725-20.091,9.397-23.46,20.124c-3.24,10.306,0.815,20.571,6.848,28.952
			c3.303,4.593,8.991,6.802,14.231,3.735c4.54-2.663,7.048-9.62,3.735-14.226c-2.232-3.1-5.928-7.962-5.149-11.664
			c0.724-3.433,6.241-5.69,9.336-6.858C206.446,182.411,201.063,162.3,188.496,167.055z"/>
		<path d="M228.794,152.756l-11.7,3.899c-5.37,1.79-8.828,7.109-7.264,12.794c1.442,5.246,7.417,9.057,12.792,7.262l11.7-3.9
			c5.373-1.788,8.831-7.106,7.267-12.792C240.146,154.779,234.177,150.968,228.794,152.756z"/>
		<path d="M292.825,148.855c-7.47-2.854-15.579-4.164-23.566-4.268c-13.421-0.178-13.4,20.622,0,20.799
			c6.266,0.083,12.172,1.29,18.031,3.532c5.307,2.021,11.4-2.196,12.797-7.264C301.702,155.787,298.111,150.879,292.825,148.855z"/>
		<path d="M327.807,206.867c4.662-2.729,6.901-9.521,3.737-14.226c-3.29-4.896-6.865-9.585-10.399-14.3
			c-3.397-4.524-8.917-6.845-14.233-3.729c-4.474,2.62-7.14,9.681-3.732,14.226c3.534,4.718,7.109,9.412,10.399,14.3
			C316.732,207.829,322.684,209.868,327.807,206.867z"/>
		<path d="M340.756,231.686c-0.681-5.627-4.215-10.4-10.4-10.4c-5.153,0-11.08,4.758-10.399,10.4
			c1.849,15.257,8.363,28.312,19.946,38.549c10.004,8.852,24.775-5.804,14.706-14.706
			C347.474,249.222,341.934,241.376,340.756,231.686z"/>
		<path d="M429.205,305.902c-5.271-3.493-10.623-6.87-15.95-10.268c3.717-7.231,7.216-14.589,10.334-22.186
			c5.088-12.411-15.041-17.763-20.059-5.53c-2.33,5.692-4.977,11.218-7.764,16.676c-5.312-3.301-10.629-6.605-15.961-9.887
			c-11.45-7.053-21.896,10.943-10.496,17.961c5.403,3.326,10.791,6.683,16.184,10.024c-3.422,5.458-6.977,10.841-10.811,16.041
			c-7.973,10.816,10.09,21.17,17.961,10.496c3.707-5.027,7.124-10.201,10.395-15.452c5.235,3.347,10.496,6.652,15.671,10.09
			C429.92,331.298,440.325,313.275,429.205,305.902z"/>
	</g>
</g>
<g>
</g>
<g>
</g>
<g>
</g>
<g>
</g>
<g>
</g>
<g>
</g>
<g>
</g>
<g>
</g>
<g>
</g>
<g>
</g>
<g>
</g>
<g>
</g>
<g>
</g>
<g>
</g>
<g>
</g>
</svg>
