<?xml version="1.0" encoding="iso-8859-1"?>
<!-- Generator: Adobe Illustrator 16.0.0, SVG Export Plug-In . SVG Version: 6.00 Build 0)  -->
<!DOCTYPE svg PUBLIC "-//W3C//DTD SVG 1.1//EN" "http://www.w3.org/Graphics/SVG/1.1/DTD/svg11.dtd">
<svg version="1.1" id="Capa_1" xmlns="http://www.w3.org/2000/svg" xmlns:xlink="http://www.w3.org/1999/xlink" x="0px" y="0px"
	 width="456.449px" height="456.449px" viewBox="0 0 456.449 456.449" style="enable-background:new 0 0 456.449 456.449;"
	 xml:space="preserve">
<g>
	<g>
		<path d="M231.014,0c-6.553,0-13.385,0.218-19.994,0.635h-8.062c-2.184,0-4.326,0.467-6.378,1.404
			c-50.528,1.008-93.724,28.579-112.916,72.158c-18.829,42.747-9.796,91.305-1.366,124.111
			c19.377,75.426,63.452,156.46,122.164,225.632c-7.582-0.193-15.148-0.391-22.635-0.594c-12.37-0.33-24.74-0.655-37.115-0.95
			h-0.574c-11.101,0-17.004,7.607-17.09,15.122c-0.094,7.79,5.86,15.813,17.417,16.077c12.362,0.29,24.717,0.62,37.077,0.95
			c35.289,0.934,71.779,1.904,107.717,1.904c10.328,0,20.657-0.071,30.995-0.254c11.548-0.203,17.524-8.187,17.448-15.955
			c-0.065-7.576-5.992-15.244-17.626-15.244c0,0-0.005,0-0.01,0c-10.268,0.183-20.545,0.254-30.813,0.254
			c-8.333,0-16.696-0.062-25.074-0.152c62.672-66.75,107.449-162.638,118.139-254.605c4.007-34.408,2.26-83.776-28.776-123.549
			C329.247,15.797,288.02,0,231.014,0z M349.016,180.507c-12.415,82.999-56.146,170.411-114.563,229.418
			c-46.261-53.116-84.277-116.937-110.093-184.89c-17.237-45.377-23.135-83.22-18.024-115.709c7-44.448,45.499-75.497,93.63-75.497
			c0.952,0,1.901,0.01,3.295,0.043c2.257,0,4.4-0.454,6.38-1.353h5.408c1.023,0,2.069-0.114,3.171-0.348
			c4.281-0.183,8.586-0.281,12.89-0.281c45.768,0,78.201,12.037,99.168,36.81C350.271,92.322,356.577,129.938,349.016,180.507z"/>
		<path d="M228.554,50.307c-0.988,0-1.973,0.01-2.623,0.043c-47.131-1.889-81.471,28.119-84.548,73.265
			c-3.532,51.691,43.158,90.035,88.981,93.409c2.021,0.152,4.062,0.224,6.094,0.224c0,0,0,0,0.005,0
			c45.209,0,88.215-35.03,93.917-76.5c2.858-20.804-2.777-40.001-16.306-55.518C295.58,64.015,262.01,50.307,228.554,50.307z
			 M296.388,137.801c-3.818,27.767-36.886,44.958-65.612,44.958c-33.405-0.145-53.301-28.262-53.243-55.363
			c0.041-20.69,11.949-42.8,45.237-42.8c0.629,0,1.259,0.005,2.003,0.025c0.175,0.01,0.353,0.015,0.521,0.01
			c0.929-0.025,1.871-0.041,2.818-0.041c18.533,0,45.238,5.802,59.501,22.161C295.088,115.32,298.033,125.773,296.388,137.801z"/>
	</g>
</g>
<g>
</g>
<g>
</g>
<g>
</g>
<g>
</g>
<g>
</g>
<g>
</g>
<g>
</g>
<g>
</g>
<g>
</g>
<g>
</g>
<g>
</g>
<g>
</g>
<g>
</g>
<g>
</g>
<g>
</g>
</svg>
