<?xml version="1.0" encoding="iso-8859-1"?>
<!-- Generator: Adobe Illustrator 16.0.0, SVG Export Plug-In . SVG Version: 6.00 Build 0)  -->
<!DOCTYPE svg PUBLIC "-//W3C//DTD SVG 1.1//EN" "http://www.w3.org/Graphics/SVG/1.1/DTD/svg11.dtd">
<svg version="1.1" id="Capa_1" xmlns="http://www.w3.org/2000/svg" xmlns:xlink="http://www.w3.org/1999/xlink" x="0px" y="0px"
	 width="491.975px" height="491.974px" viewBox="0 0 491.975 491.974" style="enable-background:new 0 0 491.975 491.974;"
	 xml:space="preserve">
<g>
	<g>
		<path d="M234.061,53.09c2.595-0.059,5.189-0.127,7.784-0.163c1.727-0.025,3.453-0.056,5.18-0.079
			c2.604-0.03,5.21-0.046,7.82-0.066c2.6-0.022,5.194-0.058,7.789-0.068c-0.513-12.162-1.071-24.034-1.722-35.338
			C260.258,5.966,250.965,0,242.129,0c-5.101,0-9.894,1.975-13.144,5.418c-3.146,3.336-4.725,7.901-4.441,12.852
			c0.64,11.184,1.196,22.942,1.701,34.985C228.85,53.176,231.455,53.146,234.061,53.09z"/>
		<path d="M264.213,98.259c-0.273,0.203-0.543,0.412-0.843,0.594c0.36,0.358,0.614,0.759,0.894,1.15
			C264.249,99.419,264.229,98.843,264.213,98.259z"/>
		<path d="M245.214,197.129c1.732,0.021,3.468,0.033,5.197,0.054c2.605,0.035,5.205,0.104,7.811,0.149
			c2.6,0.048,5.194,0.089,7.794,0.15c-0.132-13.556-0.299-27.033-0.513-40.344c-2.6-0.011-5.2-0.036-7.795-0.062
			c-2.604-0.022-5.204-0.048-7.81-0.083c-1.731-0.028-3.468-0.058-5.2-0.089c-2.6-0.048-5.2-0.125-7.795-0.193
			c-2.605-0.074-5.205-0.145-7.81-0.239c0.219,13.368,0.386,26.908,0.521,40.533c2.605,0.01,5.205,0.04,7.81,0.063
			C240.02,197.083,242.619,197.099,245.214,197.129z"/>
		<path d="M250.889,303.764c-1.729,0.03-3.466,0.081-5.197,0.106c-2.6,0.036-5.2,0.057-7.8,0.076c-2.6,0.031-5.2,0.066-7.8,0.082
			c0,33.524-0.104,66.333-0.195,97.232c-0.079,25.715-0.158,50.211-0.168,72.854c0,5.372,2.118,10.155,5.959,13.461
			c3.296,2.839,7.645,4.397,12.235,4.397c10.375,0,18.2-7.672,18.2-17.854c0.01-22.628,0.086-47.113,0.162-72.813
			c0.102-31.112,0.198-64.17,0.198-97.938c-2.601,0.091-5.2,0.152-7.8,0.223C256.084,303.658,253.488,303.713,250.889,303.764z"/>
		<path d="M285.637,192.659c0,0.015-0.005,0.03-0.01,0.045c-0.238,1.805-0.563,3.595-0.843,5.388
			c-0.863,5.469-1.838,10.925-2.757,16.389c-4.159-0.213-9.629-0.427-15.864-0.655c-2.488-0.089-5.078-0.18-7.789-0.269
			c-2.529-0.084-5.134-0.173-7.815-0.262c-1.699-0.056-3.453-0.114-5.2-0.17c-2.562-0.084-5.157-0.173-7.79-0.262
			c-2.59-0.086-5.19-0.175-7.81-0.264c-12.007-0.412-24.164-0.858-34.947-1.356c-10.598-0.49-19.86-1.031-26.172-1.64
			c-6.573-0.635-9.859,4.093-9.948,9.199c-0.229,0.774-0.388,1.603-0.452,2.501c-1.176,17.753-1.341,35.551-2.6,53.299
			c-0.602,8.485,7.521,11.542,13.799,9.272c7.521,0.67,19.116,1.244,32.235,1.727c9.026,0.33,18.771,0.619,28.417,0.863
			c2.623,0.065,5.218,0.127,7.805,0.192c2.638,0.062,5.233,0.117,7.795,0.178c1.747,0.035,3.501,0.076,5.197,0.106
			c2.676,0.056,5.281,0.106,7.805,0.152c2.717,0.051,5.307,0.092,7.795,0.138c6.602,0.111,12.354,0.203,16.727,0.254
			c0.701,4.936,0.944,9.912,1.041,14.908c0.062,2.864,0.081,5.738,0.081,8.612c0.006,10.431,12.543,12.711,18.139,6.927
			c26.487-16.361,50.312-36.186,72.417-58.071c3.839-3.809,3.718-8.44,1.61-12.033c-0.533-1.389-1.442-2.745-2.91-3.979
			c-23.801-19.903-47.012-40.484-70.198-61.098C295.052,175.353,283.459,184.302,285.637,192.659z M304.497,291.735
			c-0.427-5.357-1.107-10.699-2.341-15.99c-0.031-0.127-0.082-0.224-0.122-0.351c-0.519-3.347-2.474-6.434-5.855-7.815
			c-1.178-0.487-2.523-0.771-4.052-0.776c-6.292-0.021-15.336-0.107-25.689-0.26c-2.523-0.035-5.124-0.081-7.795-0.121
			c-2.559-0.041-5.159-0.087-7.805-0.133c-1.714-0.03-3.456-0.07-5.197-0.102c-2.585-0.051-5.18-0.102-7.795-0.162
			c-2.605-0.051-5.205-0.117-7.805-0.178c-9.354-0.229-18.57-0.503-26.941-0.808c-10.503-0.391-19.687-0.838-26.029-1.351
			c0.546-10.806,0.894-21.622,1.424-32.428c9.531,0.822,26.436,1.519,44.5,2.138c2.293,0.079,4.596,0.155,6.917,0.229
			c2.605,0.084,5.205,0.173,7.805,0.249c2.621,0.083,5.215,0.167,7.795,0.246c1.747,0.051,3.483,0.109,5.2,0.16
			c2.656,0.083,5.261,0.162,7.805,0.244c2.687,0.083,5.276,0.167,7.795,0.251c8.871,0.284,16.564,0.561,21.916,0.83
			c0.641,0.033,1.219-0.025,1.798-0.086c0.265,0.025,0.538,0.086,0.803,0.086c0.554,0,1.066-0.081,1.579-0.155
			c0.061-0.015,0.122-0.025,0.183-0.041c0.005,0,0.011-0.008,0.016-0.008c1.229-0.201,2.336-0.597,3.311-1.173
			c3.036-1.806,4.859-5.195,5.316-9.019c0.152-1.311,0.36-2.61,0.549-3.915c0.314-2.179,0.64-4.357,1.011-6.53
			c0.233-1.399,0.462-2.803,0.705-4.202c0.249,0.218,0.508,0.437,0.752,0.66c15.854,14.035,31.793,27.972,47.961,41.652
			C337.255,267.05,321.468,280.111,304.497,291.735z"/>
		<path d="M189.488,172.332c5.593,5.783,18.131,3.501,18.136-6.927c0-4.034,0.011-8.059,0.165-12.067
			c0.147-3.832,0.422-7.655,0.962-11.456c5.081-0.061,12.076-0.165,20.073-0.312c2.511-0.046,5.116-0.091,7.815-0.145
			c2.532-0.048,5.121-0.104,7.78-0.155c1.719-0.038,3.435-0.073,5.195-0.111c2.574-0.056,5.18-0.12,7.814-0.181
			c2.58-0.063,5.18-0.129,7.78-0.198c7.906-0.208,15.787-0.447,23.257-0.713c13.857-0.493,26.197-1.087,34.053-1.788
			c6.281,2.267,14.396-0.785,13.802-9.272c-1.259-17.748-1.427-35.545-2.6-53.298c-0.061-0.899-0.224-1.722-0.452-2.501
			c-0.091-5.111-3.377-9.833-9.947-9.199c-6.937,0.666-17.438,1.254-29.361,1.785c-9.663,0.427-20.241,0.815-30.763,1.181
			c-2.609,0.087-5.199,0.176-7.779,0.264c-2.635,0.089-5.24,0.178-7.807,0.259c-1.742,0.058-3.489,0.117-5.185,0.172
			c-2.661,0.089-5.261,0.178-7.78,0.259c-2.714,0.094-5.319,0.183-7.81,0.271c-6.685,0.239-12.51,0.467-16.91,0.69
			c-0.835-4.964-1.711-9.925-2.521-14.896c-0.376-2.288-0.77-4.576-1.077-6.88c0-0.016-0.005-0.031-0.01-0.046
			c2.173-8.356-9.417-17.311-17.743-9.907c-23.186,20.614-46.397,41.195-70.198,61.098c-1.47,1.234-2.382,2.584-2.912,3.979
			c-2.1,3.587-2.224,8.226,1.612,12.032C139.173,136.146,162.999,155.978,189.488,172.332z M188.452,64.96
			c0.854,4.867,1.686,9.74,2.268,14.647c0.67,5.626,4.222,10.4,10.399,10.4c0.264,0,0.536-0.062,0.8-0.087
			c0.579,0.062,1.161,0.12,1.8,0.087c0.396-0.021,0.899-0.041,1.32-0.062c5.672-0.271,13.479-0.546,22.5-0.833
			c2.516-0.083,5.131-0.16,7.805-0.244c2.547-0.079,5.142-0.163,7.785-0.244c1.709-0.053,3.448-0.112,5.19-0.163
			c2.59-0.084,5.189-0.16,7.805-0.244c2.6-0.084,5.194-0.167,7.784-0.254c2.316-0.079,4.611-0.158,6.892-0.236
			c17.356-0.602,33.448-1.277,42.649-2.069c0.533,10.806,0.879,21.622,1.427,32.428c-6.753,0.546-16.747,1.018-28.102,1.424
			c-6.951,0.249-14.391,0.467-22.013,0.666c-2.585,0.068-5.18,0.129-7.779,0.185c-2.615,0.058-5.226,0.122-7.812,0.172
			c-1.747,0.036-3.468,0.069-5.192,0.104c-2.638,0.053-5.228,0.099-7.785,0.14c-2.668,0.048-5.268,0.089-7.81,0.127
			c-10.313,0.155-19.418,0.254-26.151,0.289c-0.8,0.005-1.684,0.01-2.417,0.016c-5.908,0.022-9.209,4.072-9.912,8.587
			c-0.031,0.124-0.086,0.218-0.12,0.348c-1.231,5.299-1.912,10.633-2.338,15.993c-16.973-11.626-32.761-24.687-47.715-38.867
			C156.162,93.379,172.353,79.224,188.452,64.96z"/>
	</g>
</g>
<g>
</g>
<g>
</g>
<g>
</g>
<g>
</g>
<g>
</g>
<g>
</g>
<g>
</g>
<g>
</g>
<g>
</g>
<g>
</g>
<g>
</g>
<g>
</g>
<g>
</g>
<g>
</g>
<g>
</g>
</svg>
