<?xml version="1.0" encoding="iso-8859-1"?>
<!-- Generator: Adobe Illustrator 16.0.0, SVG Export Plug-In . SVG Version: 6.00 Build 0)  -->
<!DOCTYPE svg PUBLIC "-//W3C//DTD SVG 1.1//EN" "http://www.w3.org/Graphics/SVG/1.1/DTD/svg11.dtd">
<svg version="1.1" id="Capa_1" xmlns="http://www.w3.org/2000/svg" xmlns:xlink="http://www.w3.org/1999/xlink" x="0px" y="0px"
	 width="433.878px" height="433.879px" viewBox="0 0 433.878 433.879" style="enable-background:new 0 0 433.878 433.879;"
	 xml:space="preserve">
<g>
	<g>
		<path d="M3.542,320.51c0.025,1.29,0.198,2.549,0.523,3.89c-0.366,4.896,1.147,9.877,4.144,13.518
			c3.062,3.717,7.531,5.926,12.588,6.216c59.57,3.453,118.083,19.215,174.672,34.459c64.597,17.396,131.397,35.389,200.524,35.394
			c0.005,0,0.015,0,0.025,0c5.372,0,10.739-0.112,16.147-0.33c5.23-0.214,9.755-2.458,12.868-6.353
			c4.823-3.078,7.561-8.217,7.57-14.285c0.041-27.172,0.346-54.807,0.635-81.537c0.63-57.878,1.285-117.725-0.64-176.634
			c-0.203-6.276-3.311-11.53-8.556-14.508c-4.078-3.458-9.055-4.913-14.731-3.91c-13.229,2.338-26.888,3.529-40.604,3.529
			c-3.88,0-7.744-0.114-11.604-0.294c0.457,1.257,0.676,2.62,0.533,4.039c-0.04,0.396-0.111,0.77-0.152,1.161
			c-0.192,1.757-0.452,3.479-0.706,5.2c-0.711,4.809-1.635,9.514-2.787,14.137c-0.432,1.732-0.879,3.458-1.366,5.174
			c-0.487,1.731-1.026,3.463-1.569,5.185c15.828,0.8,31.377,0.389,46.891-1.27c1.279,53.029,0.716,106.879,0.167,159.015
			c-0.233,22.176-0.462,44.346-0.563,66.521c-0.492,0-0.98,0-1.468,0c-67.598,0-133.754-17.793-197.731-34.997
			c-51.8-13.935-105.312-28.325-159.92-33.495c-0.361-15.665-0.808-31.331-1.254-47.001c-1.772-62.167-3.61-126.406,0.457-189.528
			c41.396,0.6,79.79,11.024,118.302,24.813c-0.081-1.856-0.198-3.707-0.178-5.553c0.025-1.811,0.142-3.608,0.259-5.413
			c0.29-4.618,0.823-9.214,1.61-13.779c0.294-1.731,0.62-3.458,0.975-5.185c0.127-0.629,0.223-1.27,0.355-1.896
			c0.249-1.165,0.614-2.196,1.071-3.09C117.508,49.084,73.548,37.499,27.155,38.664c-3.108,0.084-5.961,0.874-8.485,2.366
			c-7.155,1.267-14.315,6.64-15.097,16.315c-5.515,68.327-3.494,137.692-1.539,204.782C2.583,281.592,3.152,301.051,3.542,320.51z"
			/>
		<path d="M269.243,140.221c0.111,0.033,0.219,0.058,0.33,0.089c-0.021-0.358-0.025-0.716-0.046-1.077
			C269.456,139.561,269.324,139.896,269.243,140.221z"/>
		<path d="M205.768,117.063c-0.279,0.134-0.563,0.201-0.853,0.307c0.279,0.106,0.548,0.219,0.823,0.32
			C205.748,117.482,205.758,117.271,205.768,117.063z"/>
		<path d="M172.71,104.817c0.828,7.15,2.204,13.868,3.646,19.799c0.264,1.092,0.528,2.164,0.797,3.199
			c11.298,43.96,38.257,91.475,73.966,130.367c2.052,2.234,4.742,3.463,7.581,3.463c2.793,0,5.521-1.178,7.607-3.26
			c0.146-0.102,0.294-0.203,0.441-0.31c1.519-0.503,2.92-1.356,4.118-2.514c22.241-21.531,40.746-49.947,53.304-80.557
			c2.96-7.229,5.626-14.566,7.891-21.98c0.523-1.696,0.985-3.397,1.463-5.096c0.478-1.701,0.98-3.397,1.427-5.104
			c1.229-4.75,2.26-9.514,3.174-14.282c0.33-1.711,0.676-3.422,0.965-5.129c0.289-1.719,0.513-3.435,0.757-5.157
			c0.259-1.825,0.559-3.651,0.771-5.472c0.208-1.772,0.274-3.488,0.406-5.23c1.844-24.529-3.62-45.862-16.128-61.893
			c-13.34-17.103-35.794-25.771-66.729-25.771c-3.696,0-7.343,0.124-10.572,0.333h-4.261c-1.33,0-2.64,0.254-3.899,0.754
			c-23.917,0.624-44.783,12.146-56.701,30.803c-1.777,2.783-3.372,5.715-4.728,8.803c-1.213,2.762-2.204,5.565-3.021,8.394
			c-0.487,1.679-0.919,3.364-1.28,5.061c-0.365,1.731-0.655,3.468-0.904,5.21c-0.675,4.768-0.914,9.531-0.843,14.206
			c0.03,1.892,0.112,3.775,0.233,5.631C172.33,101.014,172.492,102.934,172.71,104.817z M193.937,87.021
			c0.122-1.812,0.34-3.577,0.589-5.329c0.056-0.378,0.071-0.779,0.132-1.152c0.218-1.374,0.492-2.717,0.828-4.037
			c0.853-3.369,2.117-6.536,3.676-9.511c7.749-14.782,23.669-24.308,42.589-24.308l1.742,0.02c1.355,0,2.65-0.239,3.864-0.711h2.366
			c0.645,0,1.295-0.063,1.965-0.193c2.169-0.094,4.357-0.14,6.541-0.14c23.43,0,39.969,6.083,50.561,18.598
			c9.334,11.029,12.649,28.375,10.034,51.475c-0.121,1.103-0.243,2.199-0.4,3.321c-0.106,0.808-0.163,1.559-0.284,2.376
			c-0.143,0.927-0.325,1.856-0.478,2.783c-0.284,1.706-0.554,3.41-0.879,5.121c-0.935,4.804-2.082,9.62-3.382,14.429
			c-0.457,1.691-0.949,3.382-1.452,5.07c-0.498,1.678-0.985,3.359-1.528,5.035c-5.215,16.112-12.386,31.951-21.063,46.662
			c-8.46,14.337-18.342,27.599-29.26,38.958c-23.49-27.467-42.812-60.205-56.041-95.017c-3.28-8.638-5.748-16.725-7.464-24.347
			c-0.173-0.754-0.3-1.487-0.457-2.229c-0.421-2.034-0.828-4.062-1.132-6.033c-0.315-1.998-0.528-3.938-0.726-5.865
			C193.749,96.776,193.611,91.78,193.937,87.021z"/>
		<path d="M216.518,116.354c2.193,3.126,4.773,5.959,7.607,8.539c9.257,8.424,21.424,13.764,33.52,14.657
			c1.132,0.084,2.27,0.125,3.402,0.125l0,0c1.782,0,3.549-0.125,5.312-0.312c3.65-0.394,7.23-1.211,10.709-2.354
			c2.758-0.906,5.434-2.023,8.013-3.338c5.865-2.996,11.172-6.982,15.574-11.685c1.341-1.43,2.615-2.907,3.783-4.456
			c1.128-1.503,2.153-3.062,3.088-4.664c2.346-4.004,4.057-8.295,5.021-12.746c0.219-0.998,0.447-2,0.59-3.016
			c1.609-11.725-1.569-22.546-9.207-31.3c-10.39-11.913-28.421-19.31-47.072-19.31l-1.29,0.023
			c-22.526-0.927-39.847,11.334-45.433,30.767c-0.396,1.396-0.736,2.833-1.016,4.304c-0.325,1.716-0.579,3.468-0.726,5.279
			c-0.021,0.229-0.061,0.441-0.076,0.67c-0.107,1.638-0.107,3.245-0.046,4.837c0.239,6.01,1.727,11.626,4.118,16.765
			C213.568,111.66,214.929,114.087,216.518,116.354z M233.057,95.936c-0.437-1.909-0.681-3.844-0.706-5.784
			c0-0.145-0.021-0.294-0.021-0.442c0.006-1.574,0.219-3.156,0.528-4.715c1.641-8.123,7.693-15.47,20.941-15.47l0.731-0.005
			l0.351,0.03l1.741-0.03c9.288,0,22.612,2.849,29.62,10.877c3.52,4.037,4.845,8.772,4.058,14.478
			c-0.473,3.428-1.899,6.515-3.986,9.219c-0.777,0.998-1.65,1.94-2.59,2.829c-1.554,1.473-3.301,2.798-5.21,3.953
			c-2.198,1.331-4.585,2.448-7.084,3.321c-4.331,1.519-8.962,2.331-13.38,2.331c-10.862-0.048-18.743-6.241-22.739-14.279
			C234.306,100.24,233.56,98.114,233.057,95.936z"/>
	</g>
</g>
<g>
</g>
<g>
</g>
<g>
</g>
<g>
</g>
<g>
</g>
<g>
</g>
<g>
</g>
<g>
</g>
<g>
</g>
<g>
</g>
<g>
</g>
<g>
</g>
<g>
</g>
<g>
</g>
<g>
</g>
</svg>
