<?xml version="1.0" encoding="iso-8859-1"?>
<!-- Generator: Adobe Illustrator 16.0.0, SVG Export Plug-In . SVG Version: 6.00 Build 0)  -->
<!DOCTYPE svg PUBLIC "-//W3C//DTD SVG 1.1//EN" "http://www.w3.org/Graphics/SVG/1.1/DTD/svg11.dtd">
<svg version="1.1" id="Capa_1" xmlns="http://www.w3.org/2000/svg" xmlns:xlink="http://www.w3.org/1999/xlink" x="0px" y="0px"
	 width="472.315px" height="472.315px" viewBox="0 0 472.315 472.315" style="enable-background:new 0 0 472.315 472.315;"
	 xml:space="preserve">
<g>
	<g>
		<path d="M200.78,117.714c-23.554,0-45.836,5.746-66.214,17.082c-35.921,19.977-69.482,70.406-74.806,112.411
			c-4.986,39.375,10.786,81.167,45.623,120.856c2.143,2.442,4.35,4.829,6.568,7.2c0.675,0.99,1.445,1.849,2.341,2.605l2.453,2.478
			c1.378,1.452,2.98,2.529,4.786,3.209c26.04,19.312,59.021,29.94,92.983,29.94c0,0,0,0,0.005,0
			c34.81,0,68.396-11.472,94.562-32.307c58.575-46.631,70.741-127.879,28.3-188.981C305.46,146.263,253.121,117.714,200.78,117.714z
			 M294.136,359.167c-20.951,17.697-48.764,27.441-78.317,27.441c-30.29,0-60.06-10.217-81.743-28.045
			c-26.512-28.335-41.475-57.371-47.063-91.363c-5.74-34.886,25.776-86.021,56.708-106.731c16.298-10.91,34.492-16.438,54.09-16.438
			c47.81,0,90.698,31.476,114.895,60.928C349.755,250.056,341.422,319.234,294.136,359.167z"/>
		<path d="M468.676,15.99c-0.467-3.202-1.863-5.423-3.727-6.873c-1.925-1.976-4.561-3.382-8.008-3.605
			c-35.806-2.328-62.881,4.981-113.117,7.541c-8.679,0.441-10.182,10.552-7.582,16.727c0.051,2.674,1.057,5.418,3.509,7.869
			c7.323,7.322,14.655,14.627,22.263,21.642c-12.822,14.498-26.045,28.609-39.548,42.478
			c-63.698-43.602-146.614-56.871-217.71-17.331C53.209,113.109,8.33,184.289,1.261,240.058
			C-11.794,343.065,80.782,421.403,82.509,421.89c72.295,54.299,186.958,65.06,264.245,3.529
			c83.233-66.263,95.756-179.349,39.096-260.917c-1.458-2.105-2.986-4.164-4.515-6.223c13.898-14.987,27.735-30.023,41.238-45.364
			c8.389,7.988,16.854,15.896,25.08,24.055c5.108,5.07,11.477,4.139,15.808,0.619c4.84-1.081,8.511-4.816,8.465-11.336
			C471.561,74.12,474.404,55.43,468.676,15.99z M446.064,101.851c-5.47-5.16-10.938-10.319-16.275-15.615
			c-6.973-6.916-16.32-2.722-19.57,4.08c-11.472,13.172-23.227,26.088-35.063,38.933c-3.123,3.389-6.251,6.774-9.384,10.153
			c-3.438,3.709-6.851,7.442-10.299,11.139c-3.727,4.004-3.996,8.701-2.382,12.636c0.63,1.534,1.534,2.948,2.671,4.164
			c0.971,1.041,2.093,1.915,3.316,2.595c1.097,1.285,2.214,2.564,3.28,3.864c56.473,68.741,46.804,177.48-27.578,231.571
			c-65.897,47.921-164.425,44.89-236.827-1.122c-55.69-59.342-60.006-60.129-72.366-135.252
			c-8.891-54.055,38.717-129.791,84.533-160.459c64.277-43.031,140.365-25.258,199.22,16.166c0.035-0.033,0.056-0.068,0.091-0.099
			c0.188,0.178,0.366,0.358,0.554,0.536c0.868,0.848,1.757,1.678,2.615,2.536c1.351,1.349,2.965,2.257,4.682,2.818
			c1.432,0.467,2.93,0.703,4.423,0.635c3.164,0.411,6.535-0.498,9.476-3.458c3.636-3.656,7.125-7.439,10.71-11.144
			c2.478-2.557,4.945-5.126,7.403-7.706c12.816-13.467,25.436-27.116,37.623-41.177c1.66-1.915,2.533-3.974,2.899-6.028
			c1.874-3.956,1.513-8.724-2.895-12.553c-6.454-5.604-12.654-11.481-18.764-17.455c37.552-3.321,54.38-2.161,78.049-2.146
			C449.913,56.373,446.998,62.197,446.064,101.851z"/>
	</g>
</g>
<g>
</g>
<g>
</g>
<g>
</g>
<g>
</g>
<g>
</g>
<g>
</g>
<g>
</g>
<g>
</g>
<g>
</g>
<g>
</g>
<g>
</g>
<g>
</g>
<g>
</g>
<g>
</g>
<g>
</g>
</svg>
