<?xml version="1.0" encoding="iso-8859-1"?>
<!-- Generator: Adobe Illustrator 16.0.0, SVG Export Plug-In . SVG Version: 6.00 Build 0)  -->
<!DOCTYPE svg PUBLIC "-//W3C//DTD SVG 1.1//EN" "http://www.w3.org/Graphics/SVG/1.1/DTD/svg11.dtd">
<svg version="1.1" id="Capa_1" xmlns="http://www.w3.org/2000/svg" xmlns:xlink="http://www.w3.org/1999/xlink" x="0px" y="0px"
	 width="481.072px" height="481.072px" viewBox="0 0 481.072 481.072" style="enable-background:new 0 0 481.072 481.072;"
	 xml:space="preserve">
<g>
	<g>
		<path d="M246.07,332.46c34.257,0.564,63.982-14.721,74.951-49.398c0.757-2.396,0.863-4.585,0.528-6.576
			c0.122-58.47,8.379-118.065,3.555-176.325c-4.286-51.785-28.27-94.902-83.726-100.011c-0.485-0.045-0.907,0.018-1.369,0.013
			c-0.025,0-0.041-0.013-0.066-0.013c-44.62-2.364-78.16,23.308-85.366,67.76c-0.198,1.216-0.236,2.382-0.172,3.499
			c-0.208,0.987-0.333,2.044-0.338,3.169C153.413,152.934,118.537,343.53,246.07,332.46z M175.06,186.171
			c0.165,0.005,0.305,0.045,0.477,0.045c10.91,0,21.632-0.287,32.431-1.944c7.724-1.186,11.882-10.758,10.001-17.605
			c-2.247-8.171-9.902-11.182-17.608-9.996c-7.711,1.181-16.057,0.942-23.996,0.927c0.389-5.449,0.841-10.821,1.32-16.077
			c9.76-0.927,19.535-1.099,29.343-1.104c18.458-0.005,18.458-28.629,0-28.624c-8.887,0-17.752,0.134-26.599,0.848
			c0.571-6.286,1.102-12.573,1.498-18.87c8.326-1.115,16.691-1.93,25.095-2.013c18.448-0.183,18.464-28.808,0-28.625
			c-7.472,0.071-14.904,0.765-22.308,1.663c7.597-25.255,26.129-37.559,55.229-36.013c0.409,0.02,0.764-0.048,1.152-0.054
			c0.099,0.01,0.178,0.043,0.277,0.054c23.248,2.14,36.881,14.647,44.935,31.491h-17.742c-18.459,0-18.459,28.624,0,28.624h26.263
			c1.026,6.135,1.655,12.396,2.093,18.606h-26.924c-18.458,0-18.458,28.625,0,28.625h27.726c-0.01,5.723-0.091,11.448-0.224,17.174
			h-27.502c-18.458,0-18.458,28.625,0,28.625h26.481c-1.406,31.6-3.523,63.208-3.569,94.879
			c-5.667,16.225-33.149,27.487-52.775,29.178c-4.205,0.361-8.049,0.285-11.24-0.284c-19.995-3.524-34.954-17.758-42.084-36.287
			C177.109,244.149,174.595,214.895,175.06,186.171z"/>
		<path d="M353.531,271.159c-15.133,107.693-203.348,98.472-225.739,0c-4.09-17.996-31.691-10.364-27.606,7.611
			c13.241,58.225,71.198,91.805,131.167,97.192v75.789c-11.923,0.371-23.846,0.65-35.779,0.696c-18.454,0.065-18.463,28.69,0,28.624
			c29.607-0.111,59.171-1.457,88.74-2.858c18.378-0.879,18.459-29.509,0-28.63c-8.109,0.386-16.224,0.762-24.328,1.117v-74.397
			c58.479-3.631,112.355-34.947,121.15-97.538C383.664,260.719,356.089,252.939,353.531,271.159z"/>
	</g>
</g>
<g>
</g>
<g>
</g>
<g>
</g>
<g>
</g>
<g>
</g>
<g>
</g>
<g>
</g>
<g>
</g>
<g>
</g>
<g>
</g>
<g>
</g>
<g>
</g>
<g>
</g>
<g>
</g>
<g>
</g>
</svg>
