<?xml version="1.0" encoding="iso-8859-1"?>
<!-- Generator: Adobe Illustrator 16.0.0, SVG Export Plug-In . SVG Version: 6.00 Build 0)  -->
<!DOCTYPE svg PUBLIC "-//W3C//DTD SVG 1.1//EN" "http://www.w3.org/Graphics/SVG/1.1/DTD/svg11.dtd">
<svg version="1.1" id="Capa_1" xmlns="http://www.w3.org/2000/svg" xmlns:xlink="http://www.w3.org/1999/xlink" x="0px" y="0px"
	 width="429.082px" height="429.082px" viewBox="0 0 429.082 429.082" style="enable-background:new 0 0 429.082 429.082;"
	 xml:space="preserve">
<g>
	<g>
		<path d="M426.84,164.158c0-12.812-9.638-17.966-17.89-18.486l-0.594-0.109c-2.341-0.716-4.651-0.963-7.2-0.749
			c-97.33,8.226-195.426,8.914-279.736,8.914c-16.839,0-33.682-0.033-50.526-0.068c-13.513-0.025-27.015-0.051-40.533-0.061
			c-2.275,0-4.474,0.388-6.758,1.193l-0.666,0.236l-0.69-0.137c-1.462-0.279-2.956-0.424-4.443-0.424
			c-5.525,0-10.537,1.97-13.751,5.418c-3.021,3.25-4.367,7.574-3.991,12.853l6.581,92.097c0.869,12.192,10.527,18.118,19.723,18.59
			l0.559,0.092c2.046,0.563,3.833,0.827,5.626,0.827c133.602,0,254.193-0.33,377.07-4.382c8.987-0.3,15.676-5.713,17.895-14.482
			c1.259-2.996,1.727-5.911,1.519-9.059C427.008,225.754,426.84,195.273,426.84,164.158z M387.08,241.896
			c-117.383,3.438-237.432,3.758-340.738,3.788H43.92l-3.813-53.413l27.878,0.043c16.153,0.03,32.311,0.063,48.464,0.063
			c81.11,0,175.47-0.604,268.995-7.77l2.777-0.213l0.021,2.788c0.106,17.128,0.563,34.624,1.351,52.001l0.122,2.641L387.08,241.896z
			"/>
	</g>
</g>
<g>
</g>
<g>
</g>
<g>
</g>
<g>
</g>
<g>
</g>
<g>
</g>
<g>
</g>
<g>
</g>
<g>
</g>
<g>
</g>
<g>
</g>
<g>
</g>
<g>
</g>
<g>
</g>
<g>
</g>
</svg>
