<?xml version="1.0" encoding="iso-8859-1"?>
<!-- Generator: Adobe Illustrator 16.0.0, SVG Export Plug-In . SVG Version: 6.00 Build 0)  -->
<!DOCTYPE svg PUBLIC "-//W3C//DTD SVG 1.1//EN" "http://www.w3.org/Graphics/SVG/1.1/DTD/svg11.dtd">
<svg version="1.1" id="Capa_1" xmlns="http://www.w3.org/2000/svg" xmlns:xlink="http://www.w3.org/1999/xlink" x="0px" y="0px"
	 width="463.457px" height="463.457px" viewBox="0 0 463.457 463.457" style="enable-background:new 0 0 463.457 463.457;"
	 xml:space="preserve">
<g>
	<g>
		<path d="M442.607,28.175c-3.722-7.841-11.156-13.873-22.333-14.201c-126.995-3.712-254.039-3.895-381.077-3.899
			c-2.432-0.77-4.954-1.3-7.612-1.3c-14.175,0-25.999,11.824-25.999,25.999v7.8c0,3.94,0.987,7.66,2.615,11.034
			c-0.825,2.537-1.31,5.345-1.315,8.465c-0.254,120.938-8.777,241.732-6.5,362.689c0.046,2.468,0.401,4.728,0.967,6.835
			c0.805,12.259,9.13,23.644,25.032,23.064c136.882-5.007,273.846-3.931,410.788-3.9c9.277,0,15.976-3.98,20.119-9.739
			c3.493-4.042,5.769-9.445,5.88-16.26c2.209-127.64-8.967-254.833-15.6-382.188C447.268,36.754,445.415,31.97,442.607,28.175z
			 M52.192,401.855c-0.924-113.295,6.454-226.473,6.692-339.772c112.666,0.025,225.33,0.37,337.96,3.285
			c6.2,111.086,15,222.075,14.589,333.374C291.679,398.631,171.897,398.123,52.192,401.855z"/>
		<path d="M358.221,184.508c-2.168-0.587-4.312-0.795-6.683-0.587c-63.181,5.34-126.949,5.787-181.761,5.787
			c-10.984,0-21.97-0.02-32.954-0.041l-26.431-0.041c-1.803,0-3.565,0.244-5.345,0.747c-6.426-0.848-12.87,1.285-16.826,5.545
			c-3.28,3.524-4.816,8.213-4.436,13.571l4.288,60.03c0.838,11.811,10.22,17.793,18.793,18.473c1.711,0.438,3.344,0.65,4.972,0.65
			c87.118,0,165.768-0.213,246.021-2.864c8.83-0.294,15.706-5.732,18.017-14.238c1.061-2.615,1.492-5.454,1.295-8.45
			c-1.315-19.794-1.417-39.529-1.417-59.688C375.755,193.12,368.581,185.429,358.221,184.508z M124.169,228.63l10.788,0.016
			c10.524,0.015,21.061,0.035,31.585,0.035c51.399,0,110.949-0.37,170.32-4.669c0.106,7.757,0.31,15.562,0.609,23.311
			c-72.609,2.046-144.306,2.28-211.807,2.311L124.169,228.63z"/>
	</g>
</g>
<g>
</g>
<g>
</g>
<g>
</g>
<g>
</g>
<g>
</g>
<g>
</g>
<g>
</g>
<g>
</g>
<g>
</g>
<g>
</g>
<g>
</g>
<g>
</g>
<g>
</g>
<g>
</g>
<g>
</g>
</svg>
