<?xml version="1.0" encoding="iso-8859-1"?>
<!-- Generator: Adobe Illustrator 16.0.0, SVG Export Plug-In . SVG Version: 6.00 Build 0)  -->
<!DOCTYPE svg PUBLIC "-//W3C//DTD SVG 1.1//EN" "http://www.w3.org/Graphics/SVG/1.1/DTD/svg11.dtd">
<svg version="1.1" id="Capa_1" xmlns="http://www.w3.org/2000/svg" xmlns:xlink="http://www.w3.org/1999/xlink" x="0px" y="0px"
	 width="479.679px" height="479.68px" viewBox="0 0 479.679 479.68" style="enable-background:new 0 0 479.679 479.68;"
	 xml:space="preserve">
<g>
	<g>
		<path d="M146.048,197.137l-26.431-0.043c-1.805,0-3.567,0.246-5.344,0.749c-6.416-0.848-12.865,1.29-16.829,5.545
			c-3.28,3.524-4.814,8.219-4.428,13.571l4.283,60.034c0.838,11.806,10.217,17.793,18.793,18.464
			c1.708,0.441,3.341,0.649,4.969,0.649c87.125,0,165.773-0.208,246.02-2.864c8.831-0.289,15.707-5.732,18.022-14.233
			c1.056-2.615,1.492-5.459,1.289-8.449c-1.31-19.789-1.416-39.53-1.416-59.692c0-10.278-7.186-17.968-17.534-18.885
			c-2.169-0.586-4.307-0.789-6.684-0.586c-63.18,5.339-126.949,5.786-181.761,5.786
			C168.018,197.178,157.031,197.157,146.048,197.137z M133.386,236.105l10.791,0.015c10.524,0.016,21.059,0.036,31.583,0.036
			c51.396,0,110.953-0.371,170.325-4.669c0.102,7.736,0.305,15.542,0.604,23.31c-72.61,2.047-144.306,2.28-211.8,2.311
			L133.386,236.105z"/>
		<path d="M244.504,17.346c-10.298,0-20.771,0.615-31.237,1.836c-4.911,0.63-9.813,1.363-14.556,2.168
			c-2.999,0.467-5.761,1.363-8.247,2.653C91.751,37.089,16.191,111.047,2.105,208.669
			C-15.137,328.24,75.454,440.905,204.059,459.831c11.309,1.66,22.945,2.503,34.594,2.503c0.005,0,0.005,0,0.015,0
			c118.061,0,220.615-80.257,238.541-186.672c10.323-61.318-12.005-128.617-61.256-184.645
			C374.181,43.513,313.296,17.346,244.504,17.346z M258.185,71.122c46.271,3.214,86.438,22.351,119.449,56.929
			c38.775,40.616,56.065,97.731,45.138,149.054c-13.908,65.323-82.548,131.438-186.834,131.438c-12.106,0-24.024-1.062-35.421-3.148
			c-95.89-17.59-160.728-106.078-144.529-197.256c13.898-78.206,82.708-132.82,167.342-132.82c5.713,0,11.512,0.257,17.227,0.76
			C247.531,76.697,253.447,74.905,258.185,71.122z"/>
	</g>
</g>
<g>
</g>
<g>
</g>
<g>
</g>
<g>
</g>
<g>
</g>
<g>
</g>
<g>
</g>
<g>
</g>
<g>
</g>
<g>
</g>
<g>
</g>
<g>
</g>
<g>
</g>
<g>
</g>
<g>
</g>
</svg>
