<?xml version="1.0" encoding="iso-8859-1"?>
<!-- Generator: Adobe Illustrator 16.0.0, SVG Export Plug-In . SVG Version: 6.00 Build 0)  -->
<!DOCTYPE svg PUBLIC "-//W3C//DTD SVG 1.1//EN" "http://www.w3.org/Graphics/SVG/1.1/DTD/svg11.dtd">
<svg version="1.1" id="Capa_1" xmlns="http://www.w3.org/2000/svg" xmlns:xlink="http://www.w3.org/1999/xlink" x="0px" y="0px"
	 width="482.313px" height="482.313px" viewBox="0 0 482.313 482.313" style="enable-background:new 0 0 482.313 482.313;"
	 xml:space="preserve">
<g>
	<g>
		<path d="M464.823,120.197c-135.806,2.098-313.885,7.068-449.652,2.555c-5.558-0.188-8.747,3.29-9.681,7.441
			c-0.119,0.353-0.277,0.686-0.343,1.059c-0.886,4.667-1.244,9.298-1.244,14.03c-3.503,49.774-2.75,146.446-3.9,196.297
			c-0.041,1.823,0.328,3.372,0.968,4.697c1.107,4.058,4.237,7.688,9.432,8.303c138.367,16.396,319.097,4.123,457.589-3.9
			c2.468-0.146,4.474-0.979,6.032-2.234c4.605-0.584,8.628-3.858,8.267-9.896c-3.265-53.974-3.463-154.812-3.468-208.865
			C478.823,121.396,470.892,118.242,464.823,120.197z M20.927,334.892c0.947-47.626,0.427-142.062,3.775-189.609
			c0-0.5,0.021-0.998,0.025-1.498c130.362,3.91,302.939-0.571,433.321-2.671c0.051,47.484,0.452,141.749,3.053,189.173
			C328.389,338.101,153.528,349.231,20.927,334.892z"/>
		<path d="M284.829,239.426c-10.506-8.392-23.49-12.111-36.749-14.825c-0.437-11.096-0.889-22.193-1.387-33.289
			c5.779,1.269,11.309,3.125,16.006,5.299c11.486,5.304,17.687-13.312,6.343-18.547c-6.729-3.105-14.782-5.522-23.227-6.822
			c-0.036-0.772-0.071-1.541-0.102-2.306c-0.544-12.494-20.109-13.81-19.563-1.186c0.036,0.906,0.076,1.811,0.114,2.714
			c-12.553,1.01-24.41,5.195-32.527,14.091c-14.945,16.387-3.862,44.684,15.47,51.684c6.401,2.318,13.162,3.715,20,4.918
			c0.515,14.98,0.843,29.971,1.038,44.961c-8.962-4.215-17.118-10.436-22.186-15.966c-8.549-9.308-23.234,3.667-14.675,12.995
			c8.574,9.343,22.338,18.661,37.008,23.678c-0.005,2.001,0.051,3.992,0.041,5.987c-0.066,12.589,19.49,13.843,19.571,1.184
			c0.005-1.147-0.03-2.296-0.025-3.443c10.069,0.208,19.682-2.519,27.451-9.698C294.041,285.528,305.872,256.244,284.829,239.426z
			 M219.905,218.969c-12.464-3.12-19.301-18.577-5.418-25.552c3.841-1.93,8.153-2.989,12.642-3.463
			c0.457,10.303,0.874,20.601,1.29,30.905C225.531,220.284,222.688,219.667,219.905,218.969z M263.04,287.148
			c-3.951,2.676-8.466,3.799-13.192,3.844c-0.168-15.401-0.482-30.803-1.001-46.194c8.186,1.89,16.092,4.561,23.171,9.395
			C283.829,262.251,271.235,281.578,263.04,287.148z"/>
		<path d="M87.725,182.837c0-0.173,0.041-0.333,0.025-0.505c-0.521-6.764-2.531-13.401-7.883-17.936
			c-5.583-4.735-12.916-6.139-20.066-5.464c-0.566,0.051-1.122,0.163-1.658,0.302c-6.579,0.69-12.601,3.151-17.504,7.835
			c-0.665,0.635-1.132,1.315-1.508,2.004c-0.442,0.645-0.843,1.335-1.147,2.089c-2.158,5.284-2.668,10.895-1.529,16.448
			c-0.132,1.538,0.175,3.115,1.013,4.512c3.286,5.512,7.924,9.635,13.198,13.197c0.368,0.249,0.77,0.437,1.176,0.6
			c0.586,0.337,1.231,0.635,1.99,0.838c8.351,2.229,16.775,0.998,24.204-3.387c0.843-0.498,1.488-1.092,2.034-1.721
			c0.068-0.051,0.134-0.092,0.198-0.145c5.258-4.59,8.178-11.54,7.482-18.517C87.746,182.931,87.73,182.888,87.725,182.837z
			 M71.76,187.458c-0.01-0.239-0.909,1.513-1.082,1.765c0.599-0.874-0.68,0.477-1.211,1.013c-3.519,1.892-7.066,2.485-10.991,1.554
			c-2.361-1.607-4.816-3.758-6.64-6.281c-0.038-0.233-0.048-0.467-0.109-0.701c-0.64-2.511-0.376-4.669,0.394-7.061
			c2.501-2.188,5.481-3.151,8.985-3.214c0.437-0.01,0.823-0.083,1.221-0.145c2.575-0.048,4.92,0.279,6.703,1.295
			c0.863,0.488,1.349,1.148,1.895,2.037c0.67,1.099,1.097,2.887,1.226,4.613c0.005,0.041,0.015,0.079,0.021,0.114
			c0,0.183-0.041,0.353-0.021,0.536c0.099,0.947,0.104,1.871,0.063,2.818C72.156,185.65,71.907,186.825,71.76,187.458z"/>
		<path d="M446.518,177.637c0-0.172,0.04-0.333,0.025-0.505c-0.523-6.764-2.534-13.401-7.887-17.936
			c-5.58-4.735-12.913-6.14-20.062-5.464c-0.569,0.051-1.123,0.162-1.661,0.302c-6.575,0.691-12.599,3.151-17.504,7.836
			c-0.665,0.635-1.132,1.315-1.508,2.003c-0.441,0.645-0.843,1.335-1.147,2.09c-2.158,5.283-2.666,10.895-1.528,16.447
			c-0.132,1.539,0.178,3.115,1.016,4.512c3.285,5.512,7.921,9.636,13.197,13.198c0.366,0.249,0.767,0.437,1.173,0.599
			c0.59,0.338,1.234,0.635,1.991,0.838c8.353,2.229,16.777,0.998,24.206-3.387c0.844-0.498,1.488-1.092,2.031-1.722
			c0.071-0.051,0.138-0.091,0.198-0.145c5.261-4.591,8.181-11.54,7.485-18.517C446.537,177.731,446.522,177.688,446.518,177.637z
			 M430.552,182.258c-0.01-0.238-0.909,1.513-1.081,1.765c0.599-0.873-0.681,0.478-1.214,1.013
			c-3.52,1.891-7.063,2.486-10.989,1.554c-2.361-1.607-4.818-3.757-6.642-6.282c-0.035-0.233-0.046-0.467-0.106-0.7
			c-0.64-2.511-0.376-4.669,0.391-7.062c2.504-2.188,5.484-3.15,8.988-3.214c0.437-0.01,0.822-0.084,1.219-0.145
			c2.574-0.049,4.921,0.279,6.703,1.294c0.863,0.488,1.351,1.148,1.894,2.037c0.671,1.099,1.097,2.887,1.229,4.613
			c0.005,0.041,0.015,0.079,0.02,0.114c0,0.183-0.04,0.353-0.02,0.536c0.096,0.947,0.102,1.871,0.061,2.818
			C430.948,180.45,430.699,181.626,430.552,182.258z"/>
	</g>
</g>
<g>
</g>
<g>
</g>
<g>
</g>
<g>
</g>
<g>
</g>
<g>
</g>
<g>
</g>
<g>
</g>
<g>
</g>
<g>
</g>
<g>
</g>
<g>
</g>
<g>
</g>
<g>
</g>
<g>
</g>
</svg>
