<?xml version="1.0" encoding="iso-8859-1"?>
<!-- Generator: Adobe Illustrator 16.0.0, SVG Export Plug-In . SVG Version: 6.00 Build 0)  -->
<!DOCTYPE svg PUBLIC "-//W3C//DTD SVG 1.1//EN" "http://www.w3.org/Graphics/SVG/1.1/DTD/svg11.dtd">
<svg version="1.1" id="Capa_1" xmlns="http://www.w3.org/2000/svg" xmlns:xlink="http://www.w3.org/1999/xlink" x="0px" y="0px"
	 width="471.78px" height="471.78px" viewBox="0 0 471.78 471.78" style="enable-background:new 0 0 471.78 471.78;"
	 xml:space="preserve">
<g>
	<g>
		<path d="M121.272,21.354c-16.676,5.345-13.114,28.421,0.427,31.438c1.805,2.58,4.479,4.712,8.145,5.979
			c85.163,29.467,143.153,104.352,115.514,195.888C217.16,348.059,115.531,383.655,26.974,366.309
			c-2.481-0.482-4.778-0.432-6.881,0.016c-13.7-3.118-27.797,14.771-15.183,26.842c66.237,63.398,152.59,89.55,242.372,69.146
			c81.237-18.453,154.035-75.483,195.223-147.221c38.745-67.471,40.802-149.79-4.494-214.48
			C365.061-3.584,234.135-14.837,121.272,21.354z M408.959,308.72c-35.978,59.528-97.853,102.809-164.338,121.135
			c-61.901,17.057-123.837,5.226-175.851-27.4c89.431,0.751,172.341-44.001,205.82-134.014
			c36.063-96.956-20.348-184.226-103.799-226.817c90.83-18.486,185.498-1.876,242.931,80.15
			C454.2,179.586,443.693,251.236,408.959,308.72z"/>
	</g>
</g>
<g>
</g>
<g>
</g>
<g>
</g>
<g>
</g>
<g>
</g>
<g>
</g>
<g>
</g>
<g>
</g>
<g>
</g>
<g>
</g>
<g>
</g>
<g>
</g>
<g>
</g>
<g>
</g>
<g>
</g>
</svg>
