<?xml version="1.0" encoding="iso-8859-1"?>
<!-- Generator: Adobe Illustrator 16.0.0, SVG Export Plug-In . SVG Version: 6.00 Build 0)  -->
<!DOCTYPE svg PUBLIC "-//W3C//DTD SVG 1.1//EN" "http://www.w3.org/Graphics/SVG/1.1/DTD/svg11.dtd">
<svg version="1.1" id="Capa_1" xmlns="http://www.w3.org/2000/svg" xmlns:xlink="http://www.w3.org/1999/xlink" x="0px" y="0px"
	 width="479.255px" height="479.255px" viewBox="0 0 479.255 479.255" style="enable-background:new 0 0 479.255 479.255;"
	 xml:space="preserve">
<g>
	<g>
		<path d="M418.812,10.992c-0.411-6.368-5.737-12.66-13.766-10.59c-40.649,10.471-76.186,33.471-108.228,59.948
			c-27.735,22.928-53.476,40.675-86.15,55.898c-13.032,6.073-26.89,8.737-40.938,11.269c-8.96,1.612-27.632,2.074-27.85,14.776
			c-1.274,74.509,1.112,149.006,1.429,223.515c-0.693-0.172-1.383-0.35-2.168-0.391c-28.127-1.523-55.66,6.424-72.663,29.99
			c-12.614,17.488-13.525,42.823-2.372,61.139c12.725,20.901,37.996,24.775,60.011,18.921c41.543-11.05,66.105-48.749,82.444-85.904
			c0.794-1.803,1.071-3.564,1.003-5.245c0.297-1.021,0.51-2.103,0.51-3.331V269.793c0-23.623-5.705-38.349,18.75-48.249
			c12.792-5.179,25.517-10.524,38.211-15.947c25.426-10.856,51.557-25.885,78.13-33.337c5.169,32.753,3.031,68.568,4.123,101.824
			c1.103,33.56,4.784,68.578,2.479,102.016c0.289-4.184-41.822-3.326-58.392,11.502c-18.713,16.758-24.405,37.771-11.67,59.271
			c9.888,16.676,28.178,29.046,47.373,31.747c25.608,3.61,48.611-8.506,64.993-27.746c9.211-10.821,16.244-23.186,22.038-36.104
			c0.614-1.371,0.894-2.706,0.995-4.012c0.284-0.949,0.493-1.96,0.523-3.082c3.763-135.557,3.544-255.054,2.96-390.616
			C420.584,14.607,419.894,12.604,418.812,10.992z M395.418,406.787c-10.12,21.638-25.156,44.229-48.932,49.663
			c-14.401,3.29-29.965-3.042-40.562-14.178c-4.321-4.54-7.49-10.09-9.064-16.22c-0.93-3.625-0.346-0.502-0.538-3.27
			c-0.046-0.701,0.137-3.829,0.056-4.032c0.259-1.427,0.64-2.828,1.106-4.194c0.006-0.016,0.006-0.016,0.011-0.036
			c0.076-0.127,0.152-0.273,0.289-0.543c0.401-0.812,0.889-1.574,1.371-2.336c0.392-0.619-0.005-0.224,1.833-2.143
			c2.184-2.28,1.229-1.371,3.377-2.828c4.312-2.915,7.308-3.921,12.254-5.322c14.132-4.017,29.492-3.194,43.935-1.828
			c1.721,0.162,3.219-0.03,4.524-0.478c5.067-0.527,9.688-4.052,9.562-10.644c-1.519-77.611-4.428-155.19-7.414-232.756
			c-0.3-7.904-7.241-11.436-13.289-10.598c-1.584-0.02-3.234,0.269-4.926,0.998c-51.399,22.1-102.392,45.161-154.495,65.59
			c-3.306,1.295-5.423,3.621-6.53,6.294c-1.008,1.589-1.648,3.534-1.632,5.911c0.094,15.335,1.378,30.63,1.482,45.956v111.192
			c0,0.213,0.051,0.396,0.061,0.599c-12.847,28.569-29.8,57.163-59.793,69.716c-13.967,5.85-33.106,8.384-42.795-5.977
			c-7.597-11.263-5.418-25.984,1.275-37.034c11.128-18.367,35.079-21.693,54.558-20.642c1.242,0.071,2.333-0.087,3.359-0.335
			c0.831,0.203,1.684,0.335,2.567,0.335H153c1.057,0,2.064-0.198,3.037-0.487c4.997-0.604,9.574-4.129,9.564-10.629
			c-0.099-74.021-2.503-148.025-1.617-222.044c47.593-9.526,84.29-21.523,120.769-53.974
			c35.552-31.616,68.446-59.283,113.641-74.832C398.947,158.055,399.079,274.404,395.418,406.787z"/>
	</g>
</g>
<g>
</g>
<g>
</g>
<g>
</g>
<g>
</g>
<g>
</g>
<g>
</g>
<g>
</g>
<g>
</g>
<g>
</g>
<g>
</g>
<g>
</g>
<g>
</g>
<g>
</g>
<g>
</g>
<g>
</g>
</svg>
