<?xml version="1.0" encoding="iso-8859-1"?>
<!-- Generator: Adobe Illustrator 16.0.0, SVG Export Plug-In . SVG Version: 6.00 Build 0)  -->
<!DOCTYPE svg PUBLIC "-//W3C//DTD SVG 1.1//EN" "http://www.w3.org/Graphics/SVG/1.1/DTD/svg11.dtd">
<svg version="1.1" id="Capa_1" xmlns="http://www.w3.org/2000/svg" xmlns:xlink="http://www.w3.org/1999/xlink" x="0px" y="0px"
	 width="476.175px" height="476.176px" viewBox="0 0 476.175 476.176" style="enable-background:new 0 0 476.175 476.176;"
	 xml:space="preserve">
<g>
	<g>
		<path d="M301.108,181.465c98.178,12.781,182.741-73.557,161.495-173.238c-2.199-10.301-14.025-10.108-19.53-3.94
			c-3.402,1.623-5.946,4.877-5.834,9.849c0.025,1.107-0.011,2.209-0.011,3.311c-1.6,1.221-2.98,2.876-3.88,5.096
			c-6.438,15.952-19.854,18.372-34.718,11.768c-1.854-0.823-3.661-1.112-5.388-1.056c-0.076-0.025-0.137-0.074-0.213-0.099
			c-33.688-11.963-67.827-8.043-94.791,16.26c-25.375,22.874-31.793,59.075-28.01,91.685
			C149.479,214.167,31.698,309.493,11.97,458.019c-0.028,0.203,0.021,0.361,0.005,0.559c-5.845,7.805,4.326,21.597,15.803,16.494
			C159.026,416.761,236.161,304.426,301.108,181.465z M386.936,55.249c1.619,0.576,3.112,0.754,4.504,0.665
			c11.959,4.728,24.607,7.12,37.171,2.506c1.214-0.446,2.331-1.008,3.453-1.554c-16.474,61.837-70.686,108.588-138.649,85.938
			C283.71,83.704,325.823,33.541,386.936,55.249z M264.049,171.773c-8.491,26.576-20.254,51.374-34.429,74.712
			c-12.583-7.787-23.067-17.866-31.252-30.082C219.667,200.487,241.812,185.677,264.049,171.773z M173.023,236.335
			c0.432,1.704,1.254,3.396,2.668,4.981c10.664,11.943,23.43,21.541,36.686,30.433c0.119,0.081,0.239,0.116,0.358,0.188
			C166.323,336.995,101.615,390.386,38.14,438.991C55.182,354.896,108.292,289.628,173.023,236.335z"/>
		<path d="M329.717,101.532c6.17-13.972,16.204-20.845,31.631-20.101c14.771,0.711,14.705-22.199,0-22.912
			c-22.668-1.097-42.214,10.613-51.42,31.45C304.018,103.353,323.75,115.022,329.717,101.532z"/>
	</g>
</g>
<g>
</g>
<g>
</g>
<g>
</g>
<g>
</g>
<g>
</g>
<g>
</g>
<g>
</g>
<g>
</g>
<g>
</g>
<g>
</g>
<g>
</g>
<g>
</g>
<g>
</g>
<g>
</g>
<g>
</g>
</svg>
