<?xml version="1.0" encoding="iso-8859-1"?>
<!-- Generator: Adobe Illustrator 16.0.0, SVG Export Plug-In . SVG Version: 6.00 Build 0)  -->
<!DOCTYPE svg PUBLIC "-//W3C//DTD SVG 1.1//EN" "http://www.w3.org/Graphics/SVG/1.1/DTD/svg11.dtd">
<svg version="1.1" id="Capa_1" xmlns="http://www.w3.org/2000/svg" xmlns:xlink="http://www.w3.org/1999/xlink" x="0px" y="0px"
	 width="497.505px" height="497.505px" viewBox="0 0 497.505 497.505" style="enable-background:new 0 0 497.505 497.505;"
	 xml:space="preserve">
<g>
	<g>
		<path d="M51.656,328.534c5.725-0.33,11.445-0.731,17.163-1.158c0.208,0.011,0.381,0.071,0.6,0.066
			c94.392-3.626,188.71-9.669,283.206-9.826c5.824-0.01,7.962-5.713,6.424-9.917c2.021-12.929,3.052-25.893,3.301-38.974
			c42.446-8.089,84.96-15.803,127.63-22.63c7.932,0.586,10.893-11.867,2.432-13.99c-40.44-10.143-81.344-18.557-120.657-32.674
			c-2.041-2.222-5.291-3.413-8.734-1.75c-10.247,4.956-20.632,9.544-31.062,13.969c0.7-5.943,1.325-11.893,2.117-17.826
			c1.925-4.103-0.127-10.42-6.159-10.816c-41.487-2.729-82.04-12.083-123.172-17.613c-0.337-0.046-0.655-0.03-0.982-0.036
			c-1.805-0.978-4.045-0.972-6.312,0.754C132.337,215.856,69.934,269.106,3.27,316.803c-0.67,0.482-1.186,1.031-1.627,1.609
			c-0.889,0.965-1.331,2.098-1.424,3.286c-0.005,0.03-0.005,0.061-0.01,0.091c-0.01,0.173-0.031,0.346-0.025,0.519
			c-0.031,0.482,0.02,0.965,0.083,1.442c-1.076,4.133,1.107,9.181,6.619,9.049C21.777,332.449,36.731,330.803,51.656,328.534z
			 M345.337,303.382c-63.703,0.31-127.333,3.153-190.955,6.068c30.478-5.779,60.905-11.807,91.335-17.85
			c34.088-6.769,68.177-13.553,102.296-20.124C347.74,282.167,346.932,292.79,345.337,303.382z M317.612,217.63
			c-49.322,19.794-100.331,34.729-151.555,49.099c51.681-19.486,103.207-39.339,152.707-64.018
			c-0.411,3.722-0.817,7.447-1.325,11.159C317.261,215.165,317.323,216.445,317.612,217.63z M203.284,179.52
			c33.185,4.57,66.026,11.357,99.262,15.338c-78.69,38.136-162.18,64.884-243.09,97.871
			C107.846,255.579,154.825,216.6,203.284,179.52z M365.777,212.088c0.563,0.409,1.183,0.779,1.925,1.043
			c28.329,10.187,57.472,17.399,86.686,24.43c-68.791,11.679-137.237,25.298-205.673,38.908
			c-38.473,7.647-76.961,15.238-115.519,22.465c-22.188,4.153-44.871,9.135-67.631,13.075c-2.044,0.147-4.085,0.305-6.134,0.438
			C162.063,280.221,268.091,258.412,365.777,212.088z"/>
	</g>
</g>
<g>
</g>
<g>
</g>
<g>
</g>
<g>
</g>
<g>
</g>
<g>
</g>
<g>
</g>
<g>
</g>
<g>
</g>
<g>
</g>
<g>
</g>
<g>
</g>
<g>
</g>
<g>
</g>
<g>
</g>
</svg>
