<?xml version="1.0" encoding="iso-8859-1"?>
<!-- Generator: Adobe Illustrator 16.0.0, SVG Export Plug-In . SVG Version: 6.00 Build 0)  -->
<!DOCTYPE svg PUBLIC "-//W3C//DTD SVG 1.1//EN" "http://www.w3.org/Graphics/SVG/1.1/DTD/svg11.dtd">
<svg version="1.1" id="Capa_1" xmlns="http://www.w3.org/2000/svg" xmlns:xlink="http://www.w3.org/1999/xlink" x="0px" y="0px"
	 width="418.991px" height="418.992px" viewBox="0 0 418.991 418.992" style="enable-background:new 0 0 418.991 418.992;"
	 xml:space="preserve">
<g>
	<g>
		<path d="M386.051,0c-72.377,0.173-144.713,3.667-217.094,2.6c-1.564-0.021-3.057,0.073-4.471,0.269
			c-2.456,0.345-9.029,0.787-14.774,0.863C78.828,4.695,4.943,44.496,7.876,124.563c2.625,71.574,70.208,118.353,137.682,114.63
			c0.249-0.015,0.49-0.04,0.729-0.071c0.399-0.04,0.681,4.576,0.612,10.313c-0.566,48.165-2.069,96.456-0.041,144.453
			c1.409,33.403,53.413,33.54,51.999,0c-2.44-57.716,0.521-115.879,0.277-173.656c-0.218-51.684-0.719-103.365-0.505-155.046
			c0.025-5.746,4.71-10.399,10.451-10.43c24.268-0.122,48.535-0.584,72.803-1.099c5.743-0.12,10.359,4.436,10.318,10.181
			c-0.762,108.268,1.554,216.588,1.554,324.851c0,33.534,51.999,33.534,51.999,0c0-108.598-2.336-217.251-1.544-325.849
			c0.041-5.741,4.743-10.479,10.486-10.56c10.45-0.147,20.905-0.261,31.356-0.287C419.58,51.92,419.586-0.079,386.051,0z
			 M146.238,187.185c-0.224,0-0.447,0-0.681,0.01c-41.33,2.282-77.119-18.07-85.528-60.35
			c-9.115-45.826,37.206-65.274,76.284-69.921c5.703-0.683,10.326,3.747,10.301,9.493c-0.157,36.79,0.025,73.577,0.254,110.367
			C146.903,182.531,146.624,187.185,146.238,187.185z"/>
	</g>
</g>
<g>
</g>
<g>
</g>
<g>
</g>
<g>
</g>
<g>
</g>
<g>
</g>
<g>
</g>
<g>
</g>
<g>
</g>
<g>
</g>
<g>
</g>
<g>
</g>
<g>
</g>
<g>
</g>
<g>
</g>
</svg>
