<?xml version="1.0" encoding="iso-8859-1"?>
<!-- Generator: Adobe Illustrator 16.0.0, SVG Export Plug-In . SVG Version: 6.00 Build 0)  -->
<!DOCTYPE svg PUBLIC "-//W3C//DTD SVG 1.1//EN" "http://www.w3.org/Graphics/SVG/1.1/DTD/svg11.dtd">
<svg version="1.1" id="Capa_1" xmlns="http://www.w3.org/2000/svg" xmlns:xlink="http://www.w3.org/1999/xlink" x="0px" y="0px"
	 width="468.082px" height="468.081px" viewBox="0 0 468.082 468.081" style="enable-background:new 0 0 468.082 468.081;"
	 xml:space="preserve">
<g>
	<g>
		<path d="M366.55,0.349c-25.232,4.128-51.882,6.119-83.883,6.266c-1.747,0.005-3.443,0.201-5.292,0.597
			c-11.826,0.942-20.529,8.866-21.251,19.469c-0.797,11.626-1.595,76.703-2.509,152.061c-1.365,111.093-3.057,249.352-5.347,265.865
			c-0.544,3.854,0.04,7.459,1.722,10.719c2.691,7.896,9.856,12.756,18.931,12.756c0.858,0,1.752-0.04,2.681-0.127
			c36.607-3.585,68.142-4.671,97.832-3.382c4.881,0.168,9.08-0.767,12.736-2.884c7.292-3.356,11.729-9.603,12.212-17.225
			c1.904-30.214,1.991-416.77,1.991-420.66c0-5.692-2.285-10.783-6.475-14.459C384.709,2.34,375.782-1.169,366.55,0.349z
			 M351.057,43.918l-0.025,17.778c-0.096,80.562-0.381,313.824-1.086,361.272c-17.642-0.111-35.395,0.452-54.426,1.782
			c1.071-28.817,1.939-114.812,3.006-228.841c0.604-65.087,1.183-127.069,1.706-148.475
			C317.893,46.924,334.656,45.764,351.057,43.918z"/>
		<path d="M190.185,0.349c-25.23,4.128-51.879,6.119-83.883,6.266c-1.747,0.005-3.442,0.201-5.289,0.597
			c-11.829,0.942-20.53,8.866-21.251,19.474c-0.797,11.611-1.592,76.594-2.511,151.836c-1.363,111.18-3.055,249.56-5.347,266.084
			c-0.541,3.854,0.043,7.459,1.721,10.719c2.699,7.896,9.859,12.756,18.934,12.756c0.858,0,1.752-0.04,2.679-0.127
			c36.607-3.585,68.159-4.682,97.84-3.382c4.872,0.178,9.079-0.767,12.728-2.884c7.292-3.356,11.733-9.603,12.215-17.225
			c1.904-30.209,1.996-416.76,1.996-420.66c0-5.692-2.288-10.778-6.477-14.459C208.343,2.335,199.394-1.159,190.185,0.349z
			 M174.694,43.918l-0.025,17.94c-0.099,80.52-0.381,313.667-1.082,361.11c-17.659-0.111-35.391,0.452-54.429,1.782
			c1.066-28.797,1.94-114.731,3.001-228.684c0.604-65.161,1.186-127.216,1.706-148.633C141.53,46.924,158.29,45.764,174.694,43.918z
			"/>
	</g>
</g>
<g>
</g>
<g>
</g>
<g>
</g>
<g>
</g>
<g>
</g>
<g>
</g>
<g>
</g>
<g>
</g>
<g>
</g>
<g>
</g>
<g>
</g>
<g>
</g>
<g>
</g>
<g>
</g>
<g>
</g>
</svg>
