<?xml version="1.0" encoding="iso-8859-1"?>
<!-- Generator: Adobe Illustrator 16.0.0, SVG Export Plug-In . SVG Version: 6.00 Build 0)  -->
<!DOCTYPE svg PUBLIC "-//W3C//DTD SVG 1.1//EN" "http://www.w3.org/Graphics/SVG/1.1/DTD/svg11.dtd">
<svg version="1.1" id="Capa_1" xmlns="http://www.w3.org/2000/svg" xmlns:xlink="http://www.w3.org/1999/xlink" x="0px" y="0px"
	 width="477.628px" height="477.628px" viewBox="0 0 477.628 477.628" style="enable-background:new 0 0 477.628 477.628;"
	 xml:space="preserve">
<g>
	<g>
		<path d="M409.478,453.349c2.895-0.188,5.312-1.092,7.327-2.392c7.181-0.503,14.122-5.332,14.396-14.584
			c2.112-72.89,7.444-130.403,11.39-203.201c0.32-5.918-2.249-10.008-5.997-12.339c-8.409,8.465-16.763,16.983-25.126,25.491
			c-3.6,62.281-7.973,112.965-10.156,177.044c-122.988,7.551-246.073-1.066-369.161-0.482
			c-2.283-111.238-2.308-222.484-0.165-333.725c73.613,1.62,140.947,3.085,213.494,3.407c10.236-8.742,20.372-17.601,30.387-26.608
			c-2.397-2.225-5.668-3.697-9.897-3.702c-85.475-0.109-163.328-1.901-248.778-3.796c-8.932-0.198-13.744,6.013-14.528,12.86
			c-0.457,1.444-0.805,2.991-0.843,4.748c-2.428,116.471-2.428,232.952,0,349.425c0.068,3.25,1.021,5.922,2.465,8.095
			c-2.5,8.815,2.128,19.886,13.993,19.759C148.716,451.953,279.146,462.128,409.478,453.349z"/>
		<path d="M473.744,102.161c-23.653-27.574-50.119-54.035-78.663-78.658c-4.656-4.02-11.582-3.677-16.082,0.479
			c-0.883,0.531-1.614,1.097-2.285,1.772c-9.231,9.234-19.133,18.979-30.224,28.386l-1.493-1.267
			c-2.214-1.854-4.834-2.831-7.566-2.831c-5.601,0-10.815,4.088-12.09,9.298c-35.013,32.24-69.422,66.214-102.682,99.084
			c-16.209,16.016-32.416,32.032-48.753,47.905c-0.686,0.66-1.27,1.374-1.498,1.811c-1.465,1.559-2.367,3.552-2.679,5.918
			c-5.334,41.335-6.51,82.197-3.479,121.455c0.074,0.914,0.241,1.798,0.485,2.59c1.191,4.657,5.428,9.658,11.928,9.658
			c0.586,0,1.191-0.04,1.811-0.132c39.303-5.524,77.406-14.822,106.208-22.308c1.687-0.432,3.185-1.183,4.464-2.234
			c2.311-0.619,4.372-2.066,5.916-4.164c0.792-0.513,1.457-1.051,2.062-1.67c24.72-25.365,50.754-50.268,75.936-74.353
			c25.116-24.028,51.095-48.875,75.805-74.207c4.931-5.065,3.788-11.71,0.091-15.777c-0.508-0.828-1.076-1.539-1.701-2.173
			l-0.929-0.922c9.592-10.123,18.393-20.642,26.517-30.554c3.494-4.263,3.682-10.024,0.681-14.325
			C474.993,103.852,474.425,102.974,473.744,102.161z M189.941,240.861c22.048,24.177,46.616,46.504,73.138,66.491
			c-12.68,3.138-24.696,5.9-36.531,8.414c-13.266-13.065-25.573-23.983-37.595-33.362c-0.328-0.259-0.68-0.503-1.056-0.731
			C188.096,267.713,188.781,254.018,189.941,240.861z M364.172,69.388c8.455-7.234,16.433-14.894,23.343-21.719
			c22.547,20.027,43.94,41.52,63.674,63.942c-7.125,8.526-13.34,15.569-19.307,21.866C411.915,113.68,388.516,90.888,364.172,69.388
			z M335.856,96.042c-21.738,21.408-44.219,43.543-64.662,67.011c-3.139,3.592-3.829,8.312-1.869,12.619
			c2.001,4.39,6.267,7.338,10.623,7.338c2.072,0,5.124-0.665,7.881-3.826c20.312-23.323,42.727-45.393,64.399-66.73
			c4.001-3.943,8.003-7.883,11.994-11.832c2.184,2.014,4.347,4.042,6.51,6.068c-23.445,22.536-45.641,46.882-67.131,70.444
			c-14.097,15.453-28.67,31.433-43.432,46.725c-3.296,3.41-4.185,7.982-2.377,12.23c1.899,4.481,6.414,7.614,10.969,7.614
			c2.92,0,5.637-1.219,7.855-3.524c14.808-15.333,29.392-31.333,43.508-46.809c21.603-23.688,43.925-48.17,67.466-70.741
			c3.778,3.623,7.516,7.274,11.259,10.923l0.121,0.119c-9.338,9.219-18.722,18.393-28.111,27.561
			c-19.251,18.791-39.156,38.229-58.255,57.854c-3.301,3.395-4.209,7.955-2.412,12.197c1.899,4.494,6.419,7.635,10.999,7.635
			c2.915,0,5.632-1.206,7.856-3.493c19.067-19.599,38.968-39.027,58.208-57.818c9.436-9.214,18.875-18.428,28.259-27.7
			c3.591,3.552,7.196,7.099,10.771,10.666c-22.13,22.364-45.198,44.458-67.537,65.847c-23.684,22.678-48.154,46.107-71.563,69.934
			c-32.474-23.176-62.446-50.485-89.126-81.235c13.619-13.302,27.165-26.674,40.705-40.052
			c32.521-32.126,66.138-65.323,100.292-96.87c2.651,2.282,5.292,4.583,7.912,6.891C343.271,88.743,339.563,92.391,335.856,96.042z
			 M198.713,321.184c-3.329,0.595-6.649,1.168-9.988,1.717c-0.198-3.707-0.355-7.419-0.49-11.131
			C191.693,314.776,195.2,317.924,198.713,321.184z"/>
	</g>
</g>
<g>
</g>
<g>
</g>
<g>
</g>
<g>
</g>
<g>
</g>
<g>
</g>
<g>
</g>
<g>
</g>
<g>
</g>
<g>
</g>
<g>
</g>
<g>
</g>
<g>
</g>
<g>
</g>
<g>
</g>
</svg>
