<?xml version="1.0" encoding="iso-8859-1"?>
<!-- Generator: Adobe Illustrator 16.0.0, SVG Export Plug-In . SVG Version: 6.00 Build 0)  -->
<!DOCTYPE svg PUBLIC "-//W3C//DTD SVG 1.1//EN" "http://www.w3.org/Graphics/SVG/1.1/DTD/svg11.dtd">
<svg version="1.1" id="Capa_1" xmlns="http://www.w3.org/2000/svg" xmlns:xlink="http://www.w3.org/1999/xlink" x="0px" y="0px"
	 width="478.977px" height="478.976px" viewBox="0 0 478.977 478.976" style="enable-background:new 0 0 478.977 478.976;"
	 xml:space="preserve">
<g>
	<g>
		<path d="M13.612,467.519c1.668,6.525,7.652,12.497,16.145,11.304c53.256-7.484,105.546-19.575,157.565-33.088
			c2.435-0.635,4.316-1.757,5.799-3.144c3.217-0.599,6.005-2.661,7.904-5.51c1.028-0.609,2.044-1.325,2.999-2.315
			c73.517-75.418,152.185-145.58,225.718-220.988c5.901-6.053,4.342-13.67-0.183-18.423c-0.584-0.97-1.27-1.935-2.184-2.849
			c-1.346-1.346-2.706-2.681-4.052-4.032c14.727-15.305,28.401-31.539,41.862-47.966c4.651-5.667,3.819-12.4,0.514-17.194
			c-0.533-1.122-1.179-2.229-2.087-3.291c-35.917-41.878-74.824-80.572-116.601-116.6c-6.419-5.53-14.295-3.717-19.053,0.889
			c-1.031,0.594-2.042,1.3-3.007,2.265c-15.264,15.254-30.655,30.321-47.271,44.118c-0.173,0.142-0.279,0.305-0.441,0.447
			c-1.569-1.326-3.103-2.676-4.683-3.992c-9.449-7.891-21.9-0.34-23.216,8.638C172.019,126.909,98.536,202.022,23.214,275.232
			c-0.853,0.827-1.533,1.69-2.1,2.569c-1.488,1.579-2.584,3.737-2.958,6.642c-7.718,59.788-9.798,119.739-5.159,179.867
			C13.086,465.462,13.31,466.524,13.612,467.519z M38.966,450.366c-0.604-9.896-0.972-19.794-1.244-29.695
			c9.575,8.078,18.87,16.457,27.965,25.08C56.795,447.375,47.898,448.959,38.966,450.366z M338.15,31.154
			c35.484,31.321,68.781,64.708,99.944,100.351c-10.841,13.061-21.952,25.883-33.723,38.115
			c-34.769-34.515-69.908-68.608-106.724-100.919C311.79,56.869,325.069,44.128,338.15,31.154z M266.124,76.678
			c5.886,5.047,11.726,10.135,17.52,15.269c-39.238,38.862-79.161,76.998-115.468,118.688c-11.261,12.923,7.571,31.92,18.908,18.905
			c36.612-42.036,76.903-80.465,116.456-119.663c5.179,4.732,10.288,9.552,15.411,14.34
			c-58.803,56.091-110.905,118.581-167.319,177.013c-11.966,12.391,6.927,31.32,18.905,18.905
			c56.592-58.615,108.837-121.313,167.868-177.536c7.53,7.2,14.979,14.487,22.444,21.764
			c-43.731,43.274-88.311,85.67-131.22,129.773c-12.017,12.35,6.878,31.275,18.905,18.905
			c42.97-44.158,87.615-86.62,131.402-129.956c7.171,7.084,14.346,14.163,21.475,21.287
			c-69.359,70.325-142.777,136.506-211.921,207.055c-51.316-36.257-97.394-78.485-138.337-126.122
			C122.626,215.571,192.669,144.362,266.124,76.678z M41.363,314.703c36.374,40.802,76.718,77.378,120.683,109.807
			c-21.398,5.393-42.873,10.42-64.442,14.959c-18.136-17.95-36.919-35.089-57.059-50.795c-1.003-0.782-2.044-1.355-3.093-1.823
			C37.727,362.771,38.961,338.702,41.363,314.703z"/>
	</g>
</g>
<g>
</g>
<g>
</g>
<g>
</g>
<g>
</g>
<g>
</g>
<g>
</g>
<g>
</g>
<g>
</g>
<g>
</g>
<g>
</g>
<g>
</g>
<g>
</g>
<g>
</g>
<g>
</g>
<g>
</g>
</svg>
