<?xml version="1.0" encoding="iso-8859-1"?>
<!-- Generator: Adobe Illustrator 16.0.0, SVG Export Plug-In . SVG Version: 6.00 Build 0)  -->
<!DOCTYPE svg PUBLIC "-//W3C//DTD SVG 1.1//EN" "http://www.w3.org/Graphics/SVG/1.1/DTD/svg11.dtd">
<svg version="1.1" id="Capa_1" xmlns="http://www.w3.org/2000/svg" xmlns:xlink="http://www.w3.org/1999/xlink" x="0px" y="0px"
	 width="450.835px" height="450.835px" viewBox="0 0 450.835 450.835" style="enable-background:new 0 0 450.835 450.835;"
	 xml:space="preserve">
<g>
	<g>
		<path d="M20.135,450.666c56.579-9.196,110.877-23.542,151.232-66.644c0.759-0.812,1.295-1.635,1.736-2.463
			c80.92-78.759,160.208-159.296,232.051-246.505c5.241,4.758,9.917,9.79,14.005,15.65c-37.028,47.001-75.875,92.449-116.859,136.06
			c-9.841,10.465,8.308,23.455,18.027,13.116c42.686-45.418,83.111-92.795,121.521-141.884c2.255-2.885,3.012-7.881,1.143-11.156
			c-7.647-13.432-17.174-23.349-28.645-33.276c-0.478-0.894-1.071-1.767-1.844-2.58c20.597-31.072,19.53-67.095-9.557-93.191
			C374.103-8.078,330.621-3.604,301,17.535c-0.01,0-0.021-0.005-0.035-0.011c-3.443-2.183-7.881-2.325-11.781,1.519
			c-83.05,81.816-159.261,170.153-231.954,261.216c-0.305,0.376-0.518,0.768-0.754,1.153c-0.556,0.584-1.082,1.254-1.564,2.031
			c-28.744,46.62-41.459,98.305-48.03,152.207c-0.292,2.387,0.125,4.407,0.962,6.108C8.852,447.111,13.199,451.793,20.135,450.666z
			 M395.685,95.898c-24.608-21.978-48.922-44.26-74.81-64.709C366.659,5.784,425.599,45.946,395.685,95.898z M297.954,41.676
			c31.9,24.191,61.159,51.455,91.084,77.998c-69.843,85.031-146.881,163.526-225.604,240.285
			c-27.987-24.039-56.751-47.189-82.382-73.768C149.243,201.129,220.533,118.5,297.954,41.676z M68.084,304.796
			c25.136,25.445,52.897,48.018,80.047,71.3c-25.466,24.471-57.658,36.892-91.343,44.813c-7.041-5.124-14.137-10.263-20.117-16.631
			c-0.645-0.68-1.358-1.259-2.102-1.782C40.915,368.362,50.852,335.355,68.084,304.796z"/>
	</g>
</g>
<g>
</g>
<g>
</g>
<g>
</g>
<g>
</g>
<g>
</g>
<g>
</g>
<g>
</g>
<g>
</g>
<g>
</g>
<g>
</g>
<g>
</g>
<g>
</g>
<g>
</g>
<g>
</g>
<g>
</g>
</svg>
