<?xml version="1.0" encoding="iso-8859-1"?>
<!-- Generator: Adobe Illustrator 16.0.0, SVG Export Plug-In . SVG Version: 6.00 Build 0)  -->
<!DOCTYPE svg PUBLIC "-//W3C//DTD SVG 1.1//EN" "http://www.w3.org/Graphics/SVG/1.1/DTD/svg11.dtd">
<svg version="1.1" id="Capa_1" xmlns="http://www.w3.org/2000/svg" xmlns:xlink="http://www.w3.org/1999/xlink" x="0px" y="0px"
	 width="504.914px" height="504.915px" viewBox="0 0 504.914 504.915" style="enable-background:new 0 0 504.914 504.915;"
	 xml:space="preserve">
<g>
	<g>
		<path d="M64.363,183.425c27.746,38.999,65.107,72.541,104.165,106.31c41.962,36.282,79.042,59.387,116.694,72.712
			c2.306,0.822,4.611,1.016,6.84,0.589c46.093,2.103,84.798-10.953,114.158-38.715c13.122,9.272,25.004,26.533,22.557,38.893
			c-1.488,7.525-8.044,12.416-19.499,14.559c-6.785,1.26-10.761,6.489-10.131,13.305c0.609,6.586,5.794,13.588,14.198,13.588l0,0
			c0.908,0,1.843-0.081,2.812-0.264c26.913-5.018,42.899-24.476,40.735-49.581c-1.681-19.54-13.649-38.639-32.179-51.572
			c1.519-2.092,3.011-4.245,4.464-6.459c3.341-5.094,2.971-10.888-0.914-15.274c-0.65-2.361-2.017-4.469-4.078-6.276
			c-20.403-17.896-42.04-31.156-66.141-40.533c-3.352-1.305-6.667-1.28-9.552,0.053c-22.186,3.564-44.457,2.641-66.598-2.823
			c-0.213-0.178-0.432-0.351-0.675-0.511C238.756,203.729,201.004,169.681,169,130.188c8.861-16.95,15.246-34.99,18.989-53.646
			c0.666-3.329,0.188-6.604-1.231-9.12c-0.68-1.831-1.785-3.517-3.28-5.012c-19.355-19.355-40.233-39.753-63.896-57.767
			c-1.856-1.409-3.859-2.272-5.959-2.562c-5.309-3.266-11.873-2.679-16.506,1.701C50.34,47.98,24.605,125.534,62.273,179.079
			C62.695,180.607,63.391,182.067,64.363,183.425z M142.325,121.951c-1.498,2.653-2.097,5.522-1.742,8.331
			c-0.869,4.207,0.104,8.371,2.77,11.788c34.027,43.612,75.669,81.624,123.771,112.978c0.884,0.579,1.828,1.046,2.879,1.432
			c1.336,0.884,2.747,1.514,4.296,1.899c25.029,6.297,51.049,7.454,77.861,3.483c16.625,6.713,32.661,16.377,47.712,28.762
			c-22.987,29.939-56.213,45.123-98.786,45.123c-3.144,0-6.322-0.081-9.537-0.233c-42.441-15.346-78.31-43.412-110.75-71.468
			c-31.413-27.157-64.14-56.437-88.938-89.606c-0.541-2.183-1.592-4.171-3.115-5.903C55.129,130.355,73.93,69.724,108.953,31.058
			c17.788,13.992,34.099,29.894,50.566,46.331C155.538,93.888,149.906,108.484,142.325,121.951z"/>
		<path d="M446.991,395.301c-2.479,0-6.084,0.848-9.247,4.89c-12.477,15.95-24.507,18.296-39.685,7.938
			c-2.346-1.6-4.799-2.407-7.302-2.407c-5.454,0-10.542,4.144-12.375,10.074c-1.91,6.195,0.192,12.279,5.484,15.895
			c9.973,6.805,20.428,10.247,31.066,10.258c0,0,0,0,0.005,0c16.036,0,31.199-8.095,42.686-22.77
			c3.509-4.5,4.099-10.278,1.564-15.473C456.735,398.683,451.835,395.301,446.991,395.301z"/>
		<path d="M396.222,477.188c5.936,0,11.974-0.863,17.94-2.549c7.774-2.203,10.43-9.09,9.623-14.929
			c-0.844-6.054-5.571-12.178-12.979-12.178c-1.3,0-2.646,0.203-4.002,0.579c-13.121,3.728-24.75,0.833-34.007-8.541
			c-2.646-2.682-5.865-4.103-9.303-4.103c-5.484,0-10.888,3.752-13.132,9.13c-2.098,5.017-0.995,10.399,2.95,14.401
			C365.073,470.902,379.906,477.188,396.222,477.188L396.222,477.188z"/>
		<path d="M331.573,468.79c-14.467-4.174-28.126-8.12-42.065-8.12c-16.234,0-30.001,5.368-43.31,16.885
			c-4.182,3.615-5.596,8.684-3.786,13.558c2.084,5.597,7.919,9.659,13.868,9.659c3.298,0,6.442-1.209,9.097-3.509
			c7.698-6.663,16.859-9.902,28.005-9.902c13.244,0,27.746,4.534,41.767,8.922c12.309,3.854,25.039,7.83,36.698,8.602
			c0.355,0.021,0.701,0.031,1.047,0.031l0,0c8.276,0,12.263-6.5,12.461-12.543c0.229-7.008-4.22-14.406-13.167-15
			C358.126,476.458,344.624,472.563,331.573,468.79z"/>
	</g>
</g>
<g>
</g>
<g>
</g>
<g>
</g>
<g>
</g>
<g>
</g>
<g>
</g>
<g>
</g>
<g>
</g>
<g>
</g>
<g>
</g>
<g>
</g>
<g>
</g>
<g>
</g>
<g>
</g>
<g>
</g>
</svg>
