<?xml version="1.0" encoding="iso-8859-1"?>
<!-- Generator: Adobe Illustrator 16.0.0, SVG Export Plug-In . SVG Version: 6.00 Build 0)  -->
<!DOCTYPE svg PUBLIC "-//W3C//DTD SVG 1.1//EN" "http://www.w3.org/Graphics/SVG/1.1/DTD/svg11.dtd">
<svg version="1.1" id="Capa_1" xmlns="http://www.w3.org/2000/svg" xmlns:xlink="http://www.w3.org/1999/xlink" x="0px" y="0px"
	 width="473.023px" height="473.023px" viewBox="0 0 473.023 473.023" style="enable-background:new 0 0 473.023 473.023;"
	 xml:space="preserve">
<g>
	<g>
		<path d="M462.167,103.039c-0.874-8.465-7.115-13.299-13.767-14.505c-1.468-0.521-3.037-0.912-4.829-0.99
			c-140.447-6.144-281.043-9.072-421.554-3.098c-9.396,0.399-14.314,7.513-14.855,14.825c-0.333,1.168-0.569,2.417-0.645,3.773
			c-4.578,85.19-7.521,170.404-6.2,255.725c0.028,1.676,0.335,3.158,0.754,4.55c-0.955,8.308,3.953,17.879,14.744,18.697
			c148.376,11.242,298.135,16.701,445.824-5.21c8.683-1.285,11.902-7.8,11.12-14.438c0.203-1.122,0.295-2.32,0.254-3.605
			C470.125,273.458,470.937,188.037,462.167,103.039z M31.248,352.151c-1.019-79.145,1.554-158.204,5.651-237.23
			c131.868-5.022,263.809-2.432,395.618,3.166c6.926,76.626,6.829,153.563,9.195,230.423
			C305.882,367.249,167.67,362.14,31.248,352.151z"/>
		<path d="M421.304,309.096c-17.936-31.824-41.101-60.205-69.065-83.729c-6.652-5.596-14.614-4.558-20.18-0.541
			c-1.132,0.607-2.244,1.285-3.29,2.095c-14.787,11.428-29.225,23.29-43.569,35.259c-12.548-23.089-26.502-45.336-42.995-66.26
			c-5.106-6.479-16.664-5.664-21.917,0c-33.492,36.077-60.775,76.736-87.664,117.822c-3.016,4.61-3.115,9.095-1.539,12.872
			c-0.142,7.855,4.829,16.107,14.917,16.651c51.666,2.767,103.301,1.554,154.98,0c0.046,0,0.086-0.011,0.132-0.016
			c35.612-0.03,71.219-0.219,106.811-1.533c11.639-0.432,16.447-11.167,14.497-19.891
			C423.905,318.068,423.869,313.655,421.304,309.096z M170.005,313.255c18.781-28.371,38.101-56.234,60.276-82.051
			c18.159,25.558,32.753,53.37,46.087,81.756C240.899,313.89,205.458,314.366,170.005,313.255z M309.95,312.239
			c-3.367-7.354-6.769-14.681-10.293-21.922c13.583-11.416,27.299-22.658,41.213-33.667c17.529,16.27,32.58,34.556,45.433,54.7
			C360.861,311.99,335.406,312.193,309.95,312.239z"/>
		<path d="M158.832,193.018c3.067-14.31-1.666-28.043-10.537-38.016c-9.905-11.134-24.974-17.585-40.106-14.93
			c-28.437,4.992-45.28,36.046-32.489,63.143c8.95,18.948,42.952,26.903,60.642,19.078
			C147.863,217.202,156.227,205.154,158.832,193.018z M127.851,187.958c-5.159,8.574-15.277,7.061-20.104,0.515
			c-1.688-2.292-2.729-5.2-2.679-8.505C105.375,159.079,136.618,173.379,127.851,187.958z"/>
	</g>
</g>
<g>
</g>
<g>
</g>
<g>
</g>
<g>
</g>
<g>
</g>
<g>
</g>
<g>
</g>
<g>
</g>
<g>
</g>
<g>
</g>
<g>
</g>
<g>
</g>
<g>
</g>
<g>
</g>
<g>
</g>
</svg>
