<?xml version="1.0" encoding="iso-8859-1"?>
<!-- Generator: Adobe Illustrator 16.0.0, SVG Export Plug-In . SVG Version: 6.00 Build 0)  -->
<!DOCTYPE svg PUBLIC "-//W3C//DTD SVG 1.1//EN" "http://www.w3.org/Graphics/SVG/1.1/DTD/svg11.dtd">
<svg version="1.1" id="Capa_1" xmlns="http://www.w3.org/2000/svg" xmlns:xlink="http://www.w3.org/1999/xlink" x="0px" y="0px"
	 width="482.958px" height="482.958px" viewBox="0 0 482.958 482.958" style="enable-background:new 0 0 482.958 482.958;"
	 xml:space="preserve">
<g>
	<g>
		<path d="M272.44,375.07c-1.696-11.375-3.174-22.765-4.524-34.17c-0.122-1.021-0.254-2.031-0.376-3.052
			c-0.112-0.955-0.224-1.904-0.335-2.854c-3.718-32.646-6.262-65.415-8.633-98.216c30.351,11.174,60.788,22.097,91.434,32.399
			c0.858,0.29,1.717,0.579,2.569,0.869c0.914,0.305,1.828,0.619,2.737,0.924c9.572,3.189,19.189,6.276,28.817,9.312
			c6.394,2.012,12.756,4.088,19.175,6.023c0.99,0.294,1.935,0.446,2.864,0.563c1.919,0.238,3.682,0.086,5.307-0.341
			c1.167-0.305,2.265-0.736,3.26-1.32c1.061,0.508,2.107,0.985,3.163,1.488c5.597-11.542,10.309-23.506,13.909-35.825
			C468.226,126.444,373.095,23.298,258.333,3.466c-2.519-1.831-5.697-3.014-9.597-3.113c-5.21-0.129-10.385-0.048-15.539,0.145
			c-9.234-0.586-18.532-0.68-27.855-0.145c-4.715,0.27-8.361,2.115-11.06,4.75C107.388,22.587,35.339,86.633,12.198,175.967
			C-17.023,288.795,62.356,387.521,169.626,414.49c33.05,8.308,66.021,7.379,97.014-0.695c-0.065-0.295-0.121-0.589-0.183-0.884
			c0.817-0.396,1.61-0.853,2.366-1.376c0.808-0.554,1.569-1.184,2.275-1.874c3.499-3.402,5.606-8.322,4.58-14.31
			C274.522,388.592,273.45,381.833,272.44,375.07z M170.565,379.407C78.887,356.352,23.144,270.362,46.871,178.743
			C68.899,93.709,148.004,39.139,232.6,34.837c109.434,7.666,197.795,98.917,164.103,214.024c-0.264,0.914-0.589,1.798-0.868,2.712
			c-51.125-15.98-101.407-34.398-151.639-52.999c-14.135-5.23-22.168,10.438-17.372,21.444c-0.193,1.186-0.277,2.45-0.178,3.833
			c3.791,53.044,7.874,106.008,15.765,158.581C218.847,386.165,194.459,385.409,170.565,379.407z"/>
		<path d="M463.686,331.08c-1.33-0.95-2.818-1.782-4.621-2.341c-3.244-1.006-6.464-2.093-9.698-3.118
			c-0.909-0.284-1.818-0.584-2.728-0.874c-0.99-0.314-1.97-0.64-2.955-0.949c-13.132-4.189-26.232-8.465-39.299-12.842
			c-7.845-2.626-15.686-5.236-23.511-7.912c-2.839-0.965-5.672-1.949-8.511-2.925c-2.604-0.894-5.205-1.798-7.81-2.701
			c-4.291-1.483-8.587-2.956-12.878-4.443c-17.229-5.977-34.459-11.979-51.688-17.956c-10.064-3.488-16.996,3.347-18.524,11.477
			c-0.681,1.731-1.092,3.59-1.092,5.53v4.133c0,3.301,1.097,6.368,2.914,8.896c-0.649,2.29-0.848,4.824-0.294,7.622
			c1.508,7.541,2.991,15.098,4.489,22.643c0.254,1.29,0.508,2.57,0.767,3.859c0.492,2.504,0.99,5.002,1.482,7.5
			c1.315,6.668,2.646,13.33,3.966,19.987c2.306,11.689,4.662,23.364,6.987,35.048c0.97,4.891,1.98,9.78,2.966,14.681
			c0.168,0.863,0.351,1.737,0.523,2.601c1.061,5.291,2.132,10.572,3.204,15.863c2.117,10.455,4.169,20.921,6.332,31.371
			c0.076,9.07,7.673,18.779,19.342,16.352c70.7-14.711,121.815-64.287,143.052-132.718
			C479.301,339.503,471.999,332.419,463.686,331.08z M341.612,448.264c-2.184-10.644-4.296-21.308-6.439-31.961
			c-1.457-7.227-2.924-14.452-4.366-21.684c-0.183-0.914-0.371-1.828-0.554-2.731c-0.168-0.863-0.351-1.737-0.523-2.601
			c-0.197-0.979-0.396-1.96-0.594-2.939c-1.625-8.181-3.26-16.356-4.88-24.532c-0.752-3.783-1.503-7.565-2.255-11.354
			c-1.016-5.148-2.041-10.287-3.062-15.432c-0.173-0.863-0.341-1.727-0.513-2.59c-0.173-0.863-0.346-1.727-0.519-2.59
			c-1.122-5.672-2.244-11.339-3.372-17.016c8.566,2.985,17.144,5.961,25.721,8.937c1.371,0.473,2.742,0.955,4.118,1.433
			c1.376,0.477,2.747,0.944,4.128,1.422c1,0.345,2.006,0.686,3.012,1.03c11.207,3.864,22.435,7.693,33.672,11.486
			c2.478,0.838,4.966,1.661,7.444,2.493c1.787,0.6,3.569,1.199,5.353,1.798c1.776,0.589,3.549,1.193,5.331,1.782
			c12.608,4.185,25.232,8.312,37.902,12.324C422.946,401.18,388.344,433.7,341.612,448.264z"/>
	</g>
</g>
<g>
</g>
<g>
</g>
<g>
</g>
<g>
</g>
<g>
</g>
<g>
</g>
<g>
</g>
<g>
</g>
<g>
</g>
<g>
</g>
<g>
</g>
<g>
</g>
<g>
</g>
<g>
</g>
<g>
</g>
</svg>
