<?xml version="1.0" encoding="iso-8859-1"?>
<!-- Generator: Adobe Illustrator 16.0.0, SVG Export Plug-In . SVG Version: 6.00 Build 0)  -->
<!DOCTYPE svg PUBLIC "-//W3C//DTD SVG 1.1//EN" "http://www.w3.org/Graphics/SVG/1.1/DTD/svg11.dtd">
<svg version="1.1" id="Capa_1" xmlns="http://www.w3.org/2000/svg" xmlns:xlink="http://www.w3.org/1999/xlink" x="0px" y="0px"
	 width="495.359px" height="495.359px" viewBox="0 0 495.359 495.359" style="enable-background:new 0 0 495.359 495.359;"
	 xml:space="preserve">
<g>
	<g>
		<path d="M189.462,12.908C114.367,45.392,75.731,123.318,94.367,202.682c1.239,5.279,4.535,8.272,8.419,9.486
			c7.904,5.131,22.13,1.326,23.146-11.357c3.435-42.937,19.674-83.114,59.476-103.654c29.681-15.312,66.423-12.667,97.02-2.006
			c24.014,8.366,52.436,27.949,54.838,55.586c1.238,14.252-5.937,27.479-14.722,38.141c-21.82,26.472-51.312,34.267-82.075,30.283
			c9.704-15.079,18.083-33.424,9.397-50.333c-9.745-18.972-37.158-16.734-55.386-14.229c-3.856-0.696-8.018,0.327-11.585,4.128
			C126.364,218.952,95.528,297.99,80.438,378.44c-5.111,1.641-9.252,5.921-9.214,12.914c0.14,30.29,2.049,60.479,5.657,90.561
			c1.122,9.343,9.379,13.812,16.711,13.421c0.031,0,0.069-0.005,0.099-0.005c0.848-0.057,1.668-0.168,2.48-0.351
			c0.104-0.021,0.203-0.051,0.308-0.076c0.686-0.173,1.34-0.381,1.98-0.646c0.337-0.137,0.665-0.299,0.998-0.467
			c0.282-0.143,0.556-0.289,0.823-0.457c2.699-1.559,4.986-4.021,6.281-7.657c23.831-66.786,53.562-131.108,82.464-195.792
			c71.044,19.322,156.653,25.385,206.996-37.349c44.173-55.04,32.829-136.115-9.979-188.357
			C339.25,7.083,258.582-16.991,189.462,12.908z M371.699,237.895c-44.082,54.92-129.857,38.514-188.236,20.959
			c-10.311-3.098-17.077,5.093-17.39,13.421c-21.713,48.662-43.912,97.121-63.987,146.464c0.305-0.878,0.551-1.817,0.696-2.863
			c11.824-84.036,39.009-169.844,97.035-233.646c6.863-0.919,13.794-1.242,20.701-0.627c0.733,0.066,4.436,1.45,4.545,1.391
			c0.129,0.079,0.269,0.158,0.368,0.234c-0.025,0.292-0.079,0.807-0.114,1.869c0.01-0.287-1.374,4.852-1.96,6.484
			c-2.684,7.493-7.95,14.508-12.479,20.955c-0.094,0.129-0.135,0.261-0.218,0.391c-13.764,0.432-18.238,22.988-2.643,27.944
			c60.961,19.36,142.184-3.427,156.346-73.963c8.231-41.012-23.201-74.593-57.158-91.741
			c-39.055-19.728-88.288-23.071-128.741-5.735c-20.485,8.777-36.442,22-48.625,38.042c13.081-28.38,36.29-52.077,67.276-67.25
			c59.422-29.112,132.321-4.451,170.686,46.385C401.064,130.687,407.351,193.463,371.699,237.895z"/>
	</g>
</g>
<g>
</g>
<g>
</g>
<g>
</g>
<g>
</g>
<g>
</g>
<g>
</g>
<g>
</g>
<g>
</g>
<g>
</g>
<g>
</g>
<g>
</g>
<g>
</g>
<g>
</g>
<g>
</g>
<g>
</g>
</svg>
