<?xml version="1.0" encoding="iso-8859-1"?>
<!-- Generator: Adobe Illustrator 16.0.0, SVG Export Plug-In . SVG Version: 6.00 Build 0)  -->
<!DOCTYPE svg PUBLIC "-//W3C//DTD SVG 1.1//EN" "http://www.w3.org/Graphics/SVG/1.1/DTD/svg11.dtd">
<svg version="1.1" id="Capa_1" xmlns="http://www.w3.org/2000/svg" xmlns:xlink="http://www.w3.org/1999/xlink" x="0px" y="0px"
	 width="414.312px" height="414.312px" viewBox="0 0 414.312 414.312" style="enable-background:new 0 0 414.312 414.312;"
	 xml:space="preserve">
<g>
	<g>
		<path d="M398.932,139.543l-1.133-0.472l-0.944-0.802c-3.316-2.834-7.495-4.268-12.441-4.268H272.546l-0.346-7.432
			c-0.69-14.637-1.219-29.28-1.741-43.922c-0.736-20.367-1.493-41.423-2.697-62.075c-0.73-12.355-9.855-18.055-18.158-19.266
			l-1.158-0.261C246.12,0.333,244.084,0,242.047,0h-97.71c-10.364,0-15.102,5.949-17.25,10.936l-0.754,1.737l-1.465,1.201
			c-4.192,3.443-6.287,8.336-6.23,14.543c0.35,37.719,4.222,75.309,7.967,107.107l0.957,8.097l-37.133,2.724
			c-19.999,1.47-39.991,2.943-59.991,4.377c-3.389,0.244-6.416,1.161-9.244,2.793l-0.889,0.515l-0.995,0.264
			c-8.765,2.351-15.125,10.494-15.125,19.355v5.583c0,3.031,0.805,6.094,2.397,9.11l0.754,1.427l0.114,1.609
			c2.123,27.218,2.303,54.68,2.308,82.771c0,13.441,10.077,17.356,14.414,18.418l0.937,0.289c2.48,0.954,4.951,1.411,7.561,1.411
			h102.885l0.17,7.622c0.267,11.827,0.665,23.648,1.066,35.465c0.635,18.591,1.29,37.815,1.384,56.803
			c0.066,13.192,9.884,17.219,14.106,18.342l0.919,0.31c2.509,1.01,5.091,1.503,7.889,1.503h94.913c5.474,0,9.973-1.742,13.391-5.18
			l1.538-1.523c3.443-3.423,5.189-7.932,5.189-13.416c-0.005-29.178-0.208-63.576-1.676-97.37l-0.355-8.14h113.128
			c12.659,0,18.098-9.1,18.981-17.616l0.183-1.777l0.935-1.523c1.889-3.062,2.812-6.454,2.812-10.364V156.904
			C410.118,146.396,404.045,141.658,398.932,139.543z M369.885,248.455H253.219c-15.234,0-18.316,12.599-18.905,16.463l-0.3,1.25
			c-0.792,2.427-1.097,4.879-0.935,7.5c2.118,34.042,2.569,67.349,2.722,92.561l0.046,7.846h-57.706l-0.208-7.586
			c-0.262-9.303-0.584-18.616-0.911-27.919c-0.64-18.332-1.305-37.282-1.404-56c-0.01-1.752-0.249-3.483-0.759-5.454l-0.274-1.076
			l0.035-1.112c0.193-6.129-1.825-11.837-5.527-15.665c-3.359-3.474-7.929-5.23-13.591-5.23H49.942l-0.084-7.714
			c-0.17-16.849-0.8-33.301-1.866-48.906l-0.536-7.749l36.409-2.671c19.974-1.473,39.941-2.938,59.908-4.373
			c1.731-0.127,3.458-0.479,5.423-1.109l1.369-0.437l1.439,0.084c6.251,0.375,11.882-1.612,15.059-5.215
			c2.668-3.021,3.687-7.223,3.031-12.484c-5.329-42.754-9.166-78.696-10.555-115.131l-0.312-8.097h69.312l0.319,7.472
			c0.473,11.212,0.869,22.427,1.265,33.644c0.772,21.886,1.579,44.521,2.955,66.702c0.087,1.338,0.311,2.704,0.701,4.296
			l0.233,1.856c0.036,9.968,5.982,20.035,19.195,20.035h116.676V248.455z"/>
	</g>
</g>
<g>
</g>
<g>
</g>
<g>
</g>
<g>
</g>
<g>
</g>
<g>
</g>
<g>
</g>
<g>
</g>
<g>
</g>
<g>
</g>
<g>
</g>
<g>
</g>
<g>
</g>
<g>
</g>
<g>
</g>
</svg>
