<?xml version="1.0" encoding="iso-8859-1"?>
<!-- Generator: Adobe Illustrator 16.0.0, SVG Export Plug-In . SVG Version: 6.00 Build 0)  -->
<!DOCTYPE svg PUBLIC "-//W3C//DTD SVG 1.1//EN" "http://www.w3.org/Graphics/SVG/1.1/DTD/svg11.dtd">
<svg version="1.1" id="Capa_1" xmlns="http://www.w3.org/2000/svg" xmlns:xlink="http://www.w3.org/1999/xlink" x="0px" y="0px"
	 width="479.684px" height="479.684px" viewBox="0 0 479.684 479.684" style="enable-background:new 0 0 479.684 479.684;"
	 xml:space="preserve">
<g>
	<g>
		<path d="M189.779,114.149c-3.438,2.818-5.753,7.117-5.7,12.951c0.208,22.709,2.382,45.229,5.033,67.733
			c-18.608,1.363-37.219,2.752-55.83,4.087c-3.062,0.219-5.667,1.107-7.904,2.397c-7.467,2.003-13.114,8.846-13.114,16.869v3.503
			c0,2.882,0.79,5.581,2.064,8.003c1.34,17.159,1.429,34.353,1.435,51.557c0,9.222,5.86,14.615,12.771,16.311
			c1.919,0.731,4.047,1.204,6.495,1.204h59.772c0.432,19.271,1.439,38.526,1.534,57.802c0.045,9.06,5.736,14.422,12.489,16.22
			c1.983,0.797,4.217,1.3,6.782,1.3h59.555c5.148,0,9.069-1.874,11.872-4.692c0.178-0.152,0.33-0.325,0.513-0.478
			c0.138-0.157,0.3-0.304,0.432-0.467c2.818-2.803,4.697-6.723,4.697-11.883c0-20.453-0.168-40.888-1.057-61.306h65.867
			c10.399,0,15.955-7.43,16.782-15.452c1.519-2.463,2.488-5.444,2.488-9.069v-63.061c0-7.97-4.393-13.068-10.034-15.417
			c-2.737-2.336-6.367-3.854-10.988-3.854h-65.517c-1.046-22.183-1.492-44.392-2.793-66.562c-0.578-9.968-7.819-15.51-15.563-16.646
			c-1.661-0.51-3.433-0.873-5.454-0.873h-61.309C197.224,104.331,192.166,108.612,189.779,114.149z M226.115,211.177
			c-2.981-23.897-5.672-47.776-6.589-71.815h33.713c0.884,21.018,1.351,42.059,2.65,63.059c0.087,1.27,0.305,2.45,0.579,3.575
			c0.03,8.734,5.672,17.442,16.94,17.442h68.313v36.785h-68.309c-9.988,0-15.544,6.85-16.701,14.492
			c-0.625,1.925-0.976,4.067-0.818,6.53c1.204,19.261,1.585,38.526,1.701,57.803h-26.529c-0.48-17.519-1.358-35.022-1.447-52.547
			c-0.005-1.676-0.259-3.188-0.622-4.616c0.284-8.973-5.317-18.158-16.89-18.158h-61.395c-0.104-10.334-0.48-20.652-1.186-30.963
			c18.522-1.358,37.044-2.737,55.571-4.068c1.647-0.12,3.141-0.462,4.55-0.919C218.797,228.264,227.564,222.811,226.115,211.177z"/>
		<path d="M244.504,17.348c-10.303,0-20.776,0.615-31.245,1.836c-4.908,0.63-9.806,1.363-14.553,2.168
			c-3.001,0.467-5.761,1.363-8.247,2.653C91.747,37.091,16.191,111.049,2.105,208.671
			c-17.242,119.571,73.344,232.236,201.951,251.162c11.311,1.66,22.947,2.503,34.596,2.503c0.005,0,0.005,0,0.015,0
			c118.065,0,220.615-80.257,238.546-186.672c10.323-61.318-12.005-128.622-61.261-184.645
			C374.181,43.515,313.296,17.348,244.504,17.348z M258.185,71.124c46.271,3.214,86.442,22.351,119.454,56.929
			c38.771,40.616,56.065,97.731,45.138,149.054c-13.908,65.323-82.553,131.438-186.839,131.438c-12.106,0-24.019-1.062-35.416-3.148
			C104.624,387.807,39.789,299.318,55.985,208.14C69.891,129.935,138.7,75.32,223.332,75.32c5.715,0,11.514,0.257,17.227,0.76
			C247.505,76.699,253.452,74.907,258.185,71.124z"/>
	</g>
</g>
<g>
</g>
<g>
</g>
<g>
</g>
<g>
</g>
<g>
</g>
<g>
</g>
<g>
</g>
<g>
</g>
<g>
</g>
<g>
</g>
<g>
</g>
<g>
</g>
<g>
</g>
<g>
</g>
<g>
</g>
</svg>
