<?xml version="1.0" encoding="iso-8859-1"?>
<!-- Generator: Adobe Illustrator 16.0.0, SVG Export Plug-In . SVG Version: 6.00 Build 0)  -->
<!DOCTYPE svg PUBLIC "-//W3C//DTD SVG 1.1//EN" "http://www.w3.org/Graphics/SVG/1.1/DTD/svg11.dtd">
<svg version="1.1" id="Capa_1" xmlns="http://www.w3.org/2000/svg" xmlns:xlink="http://www.w3.org/1999/xlink" x="0px" y="0px"
	 width="463.456px" height="463.455px" viewBox="0 0 463.456 463.455" style="enable-background:new 0 0 463.456 463.455;"
	 xml:space="preserve">
<g>
	<g>
		<path d="M442.606,28.174c-3.728-7.841-11.156-13.873-22.333-14.201c-127-3.712-254.039-3.895-381.077-3.899
			c-2.435-0.77-4.956-1.3-7.612-1.3c-14.175,0-25.999,11.824-25.999,25.999v7.8c0,3.94,0.987,7.66,2.615,11.034
			c-0.828,2.537-1.31,5.345-1.315,8.465c-0.257,120.938-8.772,241.732-6.5,362.689c0.046,2.468,0.398,4.728,0.965,6.835
			c0.808,12.259,9.133,23.644,25.034,23.064c136.88-5.007,273.84-3.931,410.788-3.9c9.272,0,15.971-3.98,20.114-9.739
			c3.498-4.042,5.764-9.445,5.885-16.26c2.209-127.64-8.973-254.833-15.6-382.188C447.267,36.753,445.414,31.969,442.606,28.174z
			 M52.191,401.854c-0.927-113.295,6.451-226.473,6.692-339.772c112.666,0.025,225.33,0.37,337.955,3.285
			c6.2,111.086,15.005,222.075,14.594,333.374C291.673,398.63,171.902,398.122,52.191,401.854z"/>
		<path d="M353.939,184.783c-2.731-2.336-6.362-3.854-10.983-3.854h-65.526c-1.041-22.183-1.487-44.392-2.787-66.562
			c-0.574-9.968-7.82-15.511-15.56-16.646c-1.66-0.511-3.438-0.874-5.458-0.874H192.32c-7.871,0-12.931,4.278-15.317,9.818
			c-3.438,2.818-5.756,7.117-5.705,12.952c0.213,22.708,2.387,45.229,5.04,67.733c-18.611,1.363-37.222,2.752-55.833,4.087
			c-3.062,0.218-5.672,1.107-7.904,2.397c-7.465,2.003-13.119,8.846-13.119,16.869v3.504c0,2.881,0.797,5.58,2.069,8.003
			c1.343,17.153,1.432,34.347,1.432,51.557c0,9.227,5.86,14.619,12.776,16.305c1.912,0.736,4.045,1.209,6.495,1.209h59.765
			c0.437,19.271,1.447,38.526,1.539,57.798c0.048,9.069,5.73,14.426,12.492,16.219c1.98,0.802,4.217,1.3,6.774,1.3h59.56
			c5.149,0,9.069-1.868,11.867-4.687c0.178-0.152,0.335-0.32,0.513-0.482c0.143-0.152,0.3-0.295,0.432-0.457
			c2.824-2.804,4.703-6.724,4.703-11.893c-0.006-20.444-0.168-40.883-1.057-61.302h65.866c10.399,0,15.95-7.434,16.777-15.447
			c1.519-2.468,2.493-5.443,2.493-9.079V200.2C363.978,192.23,359.582,187.127,353.939,184.783z M328.946,252.744h-68.314
			c-9.993,0-15.544,6.851-16.701,14.493c-0.625,1.925-0.975,4.067-0.817,6.53c1.198,19.261,1.584,38.526,1.701,57.803h-26.53
			c-0.477-17.52-1.358-35.023-1.444-52.547c-0.005-1.676-0.262-3.189-0.625-4.616c0.287-8.973-5.314-18.159-16.895-18.159h-61.395
			c-0.104-10.334-0.472-20.652-1.186-30.963c18.522-1.358,37.043-2.737,55.576-4.067c1.643-0.119,3.141-0.462,4.55-0.919
			c9.148,0.487,17.92-4.972,16.468-16.6c-2.978-23.897-5.672-47.776-6.594-71.815h33.713c0.889,21.018,1.351,42.058,2.656,63.058
			c0.081,1.27,0.299,2.45,0.573,3.575c0.035,8.734,5.678,17.443,16.945,17.443h68.314v36.784H328.946z"/>
	</g>
</g>
<g>
</g>
<g>
</g>
<g>
</g>
<g>
</g>
<g>
</g>
<g>
</g>
<g>
</g>
<g>
</g>
<g>
</g>
<g>
</g>
<g>
</g>
<g>
</g>
<g>
</g>
<g>
</g>
<g>
</g>
</svg>
