<?xml version="1.0" encoding="iso-8859-1"?>
<!-- Generator: Adobe Illustrator 16.0.0, SVG Export Plug-In . SVG Version: 6.00 Build 0)  -->
<!DOCTYPE svg PUBLIC "-//W3C//DTD SVG 1.1//EN" "http://www.w3.org/Graphics/SVG/1.1/DTD/svg11.dtd">
<svg version="1.1" id="Capa_1" xmlns="http://www.w3.org/2000/svg" xmlns:xlink="http://www.w3.org/1999/xlink" x="0px" y="0px"
	 width="495.657px" height="495.656px" viewBox="0 0 495.657 495.656" style="enable-background:new 0 0 495.657 495.656;"
	 xml:space="preserve">
<g>
	<g>
		<path d="M369.543,115.931c-22.368-16.265-49.292-27.868-78.562-34.185c-0.274-16.95-0.568-33.9-0.863-50.856
			c-0.021-1.203-0.173-2.331-0.427-3.387c0.346-4.824-1.681-9.771-7.271-13.041c-21.881-12.781-58.1-19.769-82.179-9.572
			c-23.638,10.009-21.444,34.972-20.03,56.919c0.457,7.059,0.932,14.097,1.404,21.135c-42.432,10.187-79.605,31.575-104.761,61.423
			c-17.877,21.206-32.067,49.317-37.044,73.356c-15.655,75.591,9.026,159.032,64.417,217.77
			c37.104,39.359,86.323,60.163,142.317,60.163c34.627,0,70.609-8.327,104.048-24.079c90.561-42.655,133.825-157.631,96.437-256.296
			C432.109,175.906,406.044,142.479,369.543,115.931z M190.332,240.945c-1.308,4.321-0.277,9.141,4.56,13.121
			c23.232,19.154,53.408,24.694,82.512,14.863c1.27-0.426,2.392-0.97,3.422-1.584c6.378-1.27,11.883-5.865,11.878-13.868
			c-0.016-24.06-0.188-48.113-0.417-72.173c18.378,7.307,34.765,18.067,47.018,31.468c21.14,23.12,31.244,57.864,27.721,95.339
			c-5.591,59.575-65.176,95.177-119.554,95.177c-12.339,0-24.188-1.798-35.218-5.347c-39.436-12.675-80.864-61.418-83.743-130.072
			c-1.161-27.543,11.392-53.553,35.337-73.24c7.196-5.916,15.262-10.78,24.044-14.548
			C188.978,200.296,189.867,220.557,190.332,240.945z M212.144,32.266c8.736-1.543,17.514-2.066,26.108-1.239
			c7.129,0.686,14.132,2.275,20.855,5.124c0.238,13.665,0.467,27.33,0.69,40.989c0.173,10.486,0.325,20.973,0.482,31.458
			c0.162,10.832,0.33,21.658,0.472,32.489c0.127,10.521,0.229,21.038,0.33,31.56c0.117,11.268,0.209,22.536,0.279,33.804
			c0.087,12.03,0.168,24.07,0.198,36.099c-14.063,3.139-28.106,1.722-40.223-6.185c-0.213-9.826-0.416-19.642-0.629-29.463
			c-0.254-11.73-0.541-23.465-0.917-35.185c-0.323-10.415-0.727-20.83-1.236-31.235c-0.531-10.644-1.206-21.281-2.029-31.915
			c-0.795-10.323-1.699-20.637-2.864-30.945c-0.005-0.04-0.02-0.076-0.025-0.122c-0.208-1.711-0.718-3.225-1.363-4.626
			c-1.132-9.577-1.389-19.174-0.967-28.762C211.484,40.157,211.733,36.206,212.144,32.266z M337.298,443.358
			c-29.311,13.808-60.692,21.109-90.754,21.109c-47.192,0-88.552-17.423-119.622-50.374C78.413,362.639,56.74,289.82,70.359,224.051
			c3.93-18.981,15.843-42.365,30.351-59.58c19.911-23.623,49.233-40.893,83.068-49.921c0.749,10.968,1.483,21.927,2.184,32.885
			c-15.496,5.235-29.617,12.974-41.926,23.095c-31.687,26.055-48.269,61.088-46.689,98.649
			c2.63,62.759,39.669,137.35,105.371,158.469c14.117,4.545,29.18,6.84,44.765,6.84c68.342,0,143.364-46.179,150.621-123.466
			c4.347-46.22-8.693-89.703-35.765-119.302c-17.976-19.662-42.863-34.749-70.386-43.559c-0.137-11.385-0.31-22.765-0.478-34.149
			c22.247,5.636,42.655,14.741,59.723,27.157c31.504,22.917,53.934,51.567,66.664,85.173
			C449.603,310.123,413.458,407.478,337.298,443.358z"/>
	</g>
</g>
<g>
</g>
<g>
</g>
<g>
</g>
<g>
</g>
<g>
</g>
<g>
</g>
<g>
</g>
<g>
</g>
<g>
</g>
<g>
</g>
<g>
</g>
<g>
</g>
<g>
</g>
<g>
</g>
<g>
</g>
</svg>
