<?xml version="1.0" encoding="iso-8859-1"?>
<!-- Generator: Adobe Illustrator 16.0.0, SVG Export Plug-In . SVG Version: 6.00 Build 0)  -->
<!DOCTYPE svg PUBLIC "-//W3C//DTD SVG 1.1//EN" "http://www.w3.org/Graphics/SVG/1.1/DTD/svg11.dtd">
<svg version="1.1" id="Capa_1" xmlns="http://www.w3.org/2000/svg" xmlns:xlink="http://www.w3.org/1999/xlink" x="0px" y="0px"
	 width="476.522px" height="476.523px" viewBox="0 0 476.522 476.523" style="enable-background:new 0 0 476.522 476.523;"
	 xml:space="preserve">
<g>
	<g>
		<path d="M218.442,335.463c-8.711,2.55-14.353,9.593-18.258,17.423c-4.065,8.16-7.01,17.529-5.164,26.68
			c1.046,5.18,3.313,11.07,6.205,15.508c12.535,19.23,36.767,21.734,55.969,11.878c19.805-10.166,29.808-33.937,14.468-52.242
			C260.109,340.913,236.538,330.172,218.442,335.463z M247.643,390.605c-10.836,6.475-24.351,3.697-31.229-6.85
			c-4.39-6.733-3.667-16.92,0.536-23.445c4.829-7.5,13.729-6.85,21.32-4.864c5.682,1.487,11.08,4.229,15.594,7.987
			C265.71,373.315,258.972,383.836,247.643,390.605z"/>
		<path d="M174.337,171.161c5.614,8.369,16.732,5.581,20.449-0.97c15.305-12.538,47.032-28.622,57.351-2.684
			c11.339,28.515-25.458,42.216-46.981,45.146c-6.426,0.874-8.787,5.662-8.195,10.56c-0.155,0.854-0.234,1.757-0.196,2.74
			c1.102,27.411,1.137,54.842,1.143,82.273c0,1.198,0.198,2.275,0.48,3.275c-0.604,6.114,3.019,12.726,10.945,12.721
			c17.194-0.011,34.335-0.178,51.422-2.285c1.844-0.229,3.453-0.803,4.829-1.625c5.211-0.559,10.024-4.174,10.024-10.943v-50.53
			c46.382-27.851,92.252-85.887,67.11-141.955c-33.459-74.646-143.585-46.058-197.424-16.199c-3.156,1.747-4.829,4.252-5.396,6.931
			c-3.293,4.134-4.44,10.349-0.345,15.584C151.728,138.763,163.328,154.751,174.337,171.161z M321.573,125.253
			c24.08,46.352-27.07,97.373-63.154,117.115c-4.611,2.524-6.068,6.647-5.505,10.608c-0.066,0.508-0.152,0.995-0.152,1.544v45.346
			c-10.648,0.96-21.315,1.352-32.007,1.447c-0.02-22.708-0.14-45.412-0.904-68.113c19.098-3.974,36.683-12.598,48.48-28.868
			c9.765-13.479,10.831-32.057,4.153-46.997c-6.713-15.023-21.368-24.758-37.58-26.317c-18.04-1.736-34.71,6.246-48.853,16.925
			c-7.333-10.498-14.972-20.773-22.739-30.955C207.905,94.308,292.934,70.125,321.573,125.253z"/>
		<path d="M239.059,474.214c130.938,0,237.464-106.525,237.464-237.456c0-29.546-8.938-67.37-23.917-101.179
			C415.643,52.128,337.03,2.308,242.326,2.308c-42.724,0-85.779,10.648-124.517,30.792C43.701,71.643-2.501,152.743,0.104,239.721
			c1.239,41.367,14.622,81.869,38.714,117.11C92.803,435.82,158.306,474.214,239.059,474.214z M132.203,60.781
			c34.307-17.847,72.387-27.274,110.119-27.274c81.989,0,149.938,42.883,181.756,114.709c13.102,29.582,21.241,63.51,21.241,88.542
			c0,113.731-92.525,206.257-206.265,206.257c-69.678,0-126.747-33.951-174.482-103.783c-20.715-30.316-32.222-65.044-33.284-100.44
			C29.079,164.859,69.632,93.326,132.203,60.781z"/>
	</g>
</g>
<g>
</g>
<g>
</g>
<g>
</g>
<g>
</g>
<g>
</g>
<g>
</g>
<g>
</g>
<g>
</g>
<g>
</g>
<g>
</g>
<g>
</g>
<g>
</g>
<g>
</g>
<g>
</g>
<g>
</g>
</svg>
