<?xml version="1.0" encoding="iso-8859-1"?>
<!-- Generator: Adobe Illustrator 16.0.0, SVG Export Plug-In . SVG Version: 6.00 Build 0)  -->
<!DOCTYPE svg PUBLIC "-//W3C//DTD SVG 1.1//EN" "http://www.w3.org/Graphics/SVG/1.1/DTD/svg11.dtd">
<svg version="1.1" id="Capa_1" xmlns="http://www.w3.org/2000/svg" xmlns:xlink="http://www.w3.org/1999/xlink" x="0px" y="0px"
	 width="481.64px" height="481.64px" viewBox="0 0 481.64 481.64" style="enable-background:new 0 0 481.64 481.64;"
	 xml:space="preserve">
<g>
	<g>
		<path d="M284.225,0.167c-0.406-0.036-0.757,0.015-1.143,0.01c-0.025,0-0.056-0.01-0.081-0.01
			C168.63-3.792,48.421,62.674,58.816,191.276c0.041,0.521,0.17,0.982,0.264,1.468c-0.15,1.33-0.15,2.724,0.173,4.237
			c6.271,29.348-3.354,55.149-27.447,73.141c-1.107,0.827-1.955,1.767-2.686,2.747c-2.435,1.604-4.359,4.058-5.393,7.028
			c-4.514,12.969-1.086,26.172,9.275,35.19c1.711,1.487,3.694,2.498,5.748,3.041c6.69,3.697,13.685,6.154,20.949,7.871
			c-1.493,8.054-0.759,16.199,3.121,23.866c-7.244,14.117-2.435,29.691,11.865,38.192c0.807,0.477,1.612,0.843,2.401,1.122
			c2.43,2.889,2.664,7.53,1.77,11.994c-0.277,1.365-0.312,2.727-0.208,4.057c-0.063,1.214-0.025,2.442,0.208,3.677
			c3.775,19.778,20.657,30.696,39.986,31.047c1.039,0.021,2.001-0.086,2.907-0.27c0.894,0.041,1.831-0.015,2.798-0.167
			c31.037-5.032,66.375-2.225,78.034,31.869c2.328,6.81,8.559,9.12,14.137,8.222c1.879,1.406,4.354,2.214,7.478,1.995
			c56.246-3.931,111.992-12.101,167.835-19.601c1.975-0.265,3.687-0.904,5.159-1.803c6.773-2.113,12.243-9.694,7.865-17.854
			c-37.317-69.568,38.334-145.464,52.685-212.295c0.31-1.444,0.314-2.783,0.192-4.058C473.111,116.221,397.154,10.338,284.225,0.167
			z M434.117,221.092c-0.152,1.016-0.173,1.988-0.111,2.922c-15.595,71.509-83.98,140.64-56.904,215.515
			c-50.855,6.901-101.682,13.995-152.905,17.58c-0.368,0.025-0.681,0.122-1.028,0.178c-18.309-40.751-60.91-48.058-103.06-41.68
			c-0.421-0.046-0.812-0.138-1.265-0.152c-4.798-0.087-7.302-0.584-11.049-2.874c0.327,0.106-1.925-1.691-1.899-1.661
			c-0.322-0.325-0.523-0.518-0.67-0.645c0-0.097-0.129-0.386-0.602-1.153c-0.713-1.143-1.239-2.752-1.676-4.57
			c2.173-15.01-2.089-28.05-14.667-37.647c-1.011-0.767-2.143-1.198-3.313-1.483c-0.363-0.305-0.716-0.599-1.097-0.984
			c0.068,0.03,0.005-0.122-0.214-0.473c0-0.314-0.02-0.411-0.056-0.381c0.15-0.649,0.295-1.3,0.523-1.93
			c0.005-0.025,1.831-2.858,2.435-3.712c1.693-2.382,2.039-5.271,1.503-8.049c0.503-2.747,0.145-5.605-1.503-7.992
			c-4.634-6.713-3.717-12.426,0-19.484c5.329-10.105-4.266-19.321-12.776-18.382c-0.089-0.011-0.167-0.036-0.254-0.051
			c-8.627-1.138-16.968-3.662-24.445-8.13c-0.536-0.315-1.061-0.514-1.587-0.747c-0.373-0.543-0.721-1.097-1.033-1.676
			c-0.053-0.152-0.094-0.289-0.167-0.513c-0.061-0.284-0.104-0.472-0.145-0.655c-0.02-0.563-0.01-1.117,0.021-1.681
			c0.041-0.152,0.119-0.503,0.224-1.051c31.115-24.309,44.48-57.727,36.909-96.786c0.01-0.49,0.066-0.947,0.025-1.468
			C73.974,75.679,181.521,21.154,282.996,24.668c0.325,0.01,0.604-0.046,0.92-0.056c0.106,0.01,0.192,0.045,0.31,0.056
			C380.564,33.346,447.837,127.304,434.117,221.092z"/>
		<path d="M258.328,275.982c-27.668,0-27.668,42.903,0,42.903C285.998,318.886,285.998,275.982,258.328,275.982z"/>
		<path d="M168.848,88.236c-9.26,7.097-14.162,18.309-7.695,29.349c5.357,9.14,20.045,14.83,29.353,7.695
			c28.33-21.716,70.274-29.27,100.234-5.908c6.119,4.773,9.166,8.346,12.426,14.338c1.163,2.13,1.234,5.131,0.895,7.231
			c-0.133-0.612-2.494,4.966-1.28,3.433c-2.422,3.062-5.312,5.373-8.541,7.477c-10.969,7.17-24.202,10.192-36.841,12.881
			c-2.996,0.635-5.443,1.767-7.53,3.166c-8.346,2.148-15.371,8.727-15.371,19.905v35.754c0,27.665,42.909,27.665,42.909,0v-19.449
			c25.11-6.292,51.973-17.699,64.14-41.599c11.852-23.288,3.387-47.926-12.913-66.4C288.886,51.043,213.641,53.902,168.848,88.236z"
			/>
	</g>
</g>
<g>
</g>
<g>
</g>
<g>
</g>
<g>
</g>
<g>
</g>
<g>
</g>
<g>
</g>
<g>
</g>
<g>
</g>
<g>
</g>
<g>
</g>
<g>
</g>
<g>
</g>
<g>
</g>
<g>
</g>
</svg>
