<?xml version="1.0" encoding="iso-8859-1"?>
<!-- Generator: Adobe Illustrator 16.0.0, SVG Export Plug-In . SVG Version: 6.00 Build 0)  -->
<!DOCTYPE svg PUBLIC "-//W3C//DTD SVG 1.1//EN" "http://www.w3.org/Graphics/SVG/1.1/DTD/svg11.dtd">
<svg version="1.1" id="Capa_1" xmlns="http://www.w3.org/2000/svg" xmlns:xlink="http://www.w3.org/1999/xlink" x="0px" y="0px"
	 width="449.739px" height="449.739px" viewBox="0 0 449.739 449.739" style="enable-background:new 0 0 449.739 449.739;"
	 xml:space="preserve">
<g>
	<g>
		<path d="M141.515,27.664C79.523-0.473-13.821,52.658,1.718,126.616c8.724,41.515,46.695,71.556,87.257,79.021
			c35.104,6.465,67.405-8.922,91.041-33.169c-4.888,34.652-19.355,69.388-33.5,98.018c-23.704,47.977-57.701,98.97-102.893,129.184
			c-16.889,11.283-1.051,38.734,15.983,27.35C158.975,360.604,305.617,102.146,141.515,27.664z M174.143,128.183
			c-19.972,34.38-53.052,54.624-92.93,43.084c-34.075-9.859-59.28-47.286-43.617-80.895c29.722-63.784,115.187-40.944,136.75,15.574
			c0.437,7.046,0.556,14.102,0.594,21.17C174.679,127.484,174.384,127.771,174.143,128.183z"/>
		<path d="M375.912,27.664c-61.992-28.137-155.333,24.994-139.797,98.952c8.719,41.515,46.697,71.556,87.26,79.021
			c35.104,6.465,67.405-8.922,91.038-33.169c-4.89,34.652-19.347,69.388-33.499,98.018c-23.704,47.977-57.696,98.97-102.896,129.184
			c-16.889,11.283-1.046,38.734,15.985,27.35C393.375,360.604,540.022,102.146,375.912,27.664z M408.547,128.183
			c-19.972,34.38-53.055,54.624-92.932,43.084c-34.073-9.859-59.28-47.286-43.615-80.895c28.406-60.966,107.699-42.767,133.49,8.3
			c2.493,9.453,3.331,19.037,3.448,28.99C408.812,127.848,408.66,127.979,408.547,128.183z"/>
	</g>
</g>
<g>
</g>
<g>
</g>
<g>
</g>
<g>
</g>
<g>
</g>
<g>
</g>
<g>
</g>
<g>
</g>
<g>
</g>
<g>
</g>
<g>
</g>
<g>
</g>
<g>
</g>
<g>
</g>
<g>
</g>
</svg>
