<?xml version="1.0" encoding="iso-8859-1"?>
<!-- Generator: Adobe Illustrator 16.0.0, SVG Export Plug-In . SVG Version: 6.00 Build 0)  -->
<!DOCTYPE svg PUBLIC "-//W3C//DTD SVG 1.1//EN" "http://www.w3.org/Graphics/SVG/1.1/DTD/svg11.dtd">
<svg version="1.1" id="Capa_1" xmlns="http://www.w3.org/2000/svg" xmlns:xlink="http://www.w3.org/1999/xlink" x="0px" y="0px"
	 width="481.24px" height="481.24px" viewBox="0 0 481.24 481.24" style="enable-background:new 0 0 481.24 481.24;"
	 xml:space="preserve">
<g>
	<g>
		<path d="M181.196,18.086C-1.901,45.537-27.125,307.482,100.791,411.438c-10.895,5.23-21.83,10.385-32.859,15.33
			c-14.683,6.587-18.052,27.63-10.585,40.375c8.772,14.971,25.688,17.164,40.37,10.583c26.911-12.065,53.304-25.177,79.668-38.359
			c6.753-3.371,10.857-8.114,13.04-13.354c6.002-7.19,8.066-17.245,6.416-27.34c-3.862-23.826-6.357-47.738-7.794-71.823
			c-2.26-37.811-61.289-38.034-59.011,0c0.65,10.882,1.6,21.729,2.699,32.56C46.685,277.735,62.467,95.145,196.884,74.99
			C234.42,69.363,218.412,12.508,181.196,18.086z"/>
		<path d="M380.451,69.8c10.897-5.23,21.83-10.384,32.864-15.33c14.681-6.581,18.047-27.627,10.583-40.37
			c-8.775-14.973-25.689-17.166-40.37-10.587c-26.908,12.063-53.299,25.176-79.663,38.359c-6.754,3.374-10.857,8.112-13.046,13.357
			c-6.002,7.188-8.059,17.242-6.418,27.343c3.869,23.82,6.357,47.733,7.8,71.82c2.265,37.808,61.286,38.031,59.011,0
			c-0.65-10.885-1.6-21.731-2.696-32.562c86.041,81.674,70.254,264.271-64.16,284.42c-37.531,5.626-21.525,62.479,15.686,56.898
			C483.142,435.701,508.365,173.762,380.451,69.8z"/>
	</g>
</g>
<g>
</g>
<g>
</g>
<g>
</g>
<g>
</g>
<g>
</g>
<g>
</g>
<g>
</g>
<g>
</g>
<g>
</g>
<g>
</g>
<g>
</g>
<g>
</g>
<g>
</g>
<g>
</g>
<g>
</g>
</svg>
