<?xml version="1.0" encoding="iso-8859-1"?>
<!-- Generator: Adobe Illustrator 16.0.0, SVG Export Plug-In . SVG Version: 6.00 Build 0)  -->
<!DOCTYPE svg PUBLIC "-//W3C//DTD SVG 1.1//EN" "http://www.w3.org/Graphics/SVG/1.1/DTD/svg11.dtd">
<svg version="1.1" id="Capa_1" xmlns="http://www.w3.org/2000/svg" xmlns:xlink="http://www.w3.org/1999/xlink" x="0px" y="0px"
	 width="434.239px" height="434.239px" viewBox="0 0 434.239 434.239" style="enable-background:new 0 0 434.239 434.239;"
	 xml:space="preserve">
<g>
	<g>
		<path d="M89.138,306.817c-23.623-10.481-48.367-13.787-68.816,5.062c-17.88,16.482-23.46,44.539-16.956,67.755
			c8.557,30.519,38.456,51.577,69.909,48.363c36.221-3.697,70.878-37.023,60.692-74.84
			C127.899,330.633,109.496,315.846,89.138,306.817z M69.319,403.699c-19.854,2.026-36.008-12.918-42.132-30.635
			c-4.585-13.264-1.701-26.599,6.099-37.933c18.804-27.33,58.747-3.956,72.864,16.533
			C123.547,376.934,93.282,401.257,69.319,403.699z"/>
		<path d="M190.805,227.753c-49.134-40.05-116.103-49.13-177.369-51.105c-4.794-0.157-7.896,2.318-9.395,5.622
			c-1.152,1.643-1.757,3.806-1.422,6.54c2.595,21.143,2.575,42.289,1.351,63.525c-0.417,7.176,5.119,10.608,10.689,10.385
			c0.874,0.244,1.803,0.406,2.829,0.427c40.979,0.894,84.634,6.87,117.296,33.799c35.124,28.97,39.273,76.708,35.444,118.941
			c-0.294,3.25,0.701,5.702,2.356,7.429c1.706,2.601,4.499,4.53,8.46,4.733c23.866,1.229,47.749,1.351,71.64,1.351
			c7.251,0,10.699-5.84,10.409-11.456c0.274-1.031,0.463-2.143,0.406-3.407C260.377,342.505,249.867,275.887,190.805,227.753z
			 M192.531,406.903c2.63-44.646-5.718-88.955-38.603-121.749c-32.9-32.804-82.923-41.568-127.884-43.355
			c0.528-14.371,0.381-28.706-0.828-43.031c51.927,2.595,103.784,11.789,147.307,42.066c56.229,39.12,65.871,103.788,69.01,166.893
			C225.193,407.671,208.862,407.513,192.531,406.903z"/>
		<path d="M312.042,90.96C225.493,20.424,106.221,7.887,11.979,4.84c-0.01,0-0.025,0-0.036,0c-5.017,0-8.181,1.96-9.927,5.812
			l-0.609,1.066c-1.193,1.706-1.63,3.953-1.3,6.683c4.032,32.89,4.778,67.852,2.356,110.03c-0.188,3.25,0.609,5.834,2.361,7.69
			c1.95,2.064,5.083,3.25,8.597,3.25l1.604-0.053l0.965,0.267c1.193,0.322,2.239,0.482,3.28,0.503
			c63.597,1.398,144.372,9.407,205.008,59.409c51.389,42.379,72.021,110.886,63.083,209.434c-0.294,3.261,0.438,5.754,2.245,7.627
			l0.757,0.95c2.122,3.229,5.286,4.977,9.398,5.189c41.249,2.123,83.097,2.301,122.431,2.306c3.423,0,6.165-1.057,8.135-3.139
			c2.204-2.315,3.407-5.931,3.214-9.658l-0.061-1.025l0.274-0.995c0.376-1.422,0.528-2.621,0.472-3.87
			C429.536,298.093,415.845,175.571,312.042,90.96z M409.915,400.871l-6.855-0.03c-26.512-0.092-55.061-0.32-84.203-1.417
			l-6.632-0.249l0.391-6.621c5.154-87.463-16.457-155.985-64.251-203.655c-44.875-44.76-115.144-68.451-214.824-72.419l-6.469-0.259
			l0.239-6.475c0.975-26.405,0.513-50.267-1.407-72.942l-0.629-7.412l7.434,0.371c112.162,5.599,191.059,28.188,255.818,73.239
			c97.005,67.489,115.514,179.756,121.049,291.019L409.915,400.871z"/>
	</g>
</g>
<g>
</g>
<g>
</g>
<g>
</g>
<g>
</g>
<g>
</g>
<g>
</g>
<g>
</g>
<g>
</g>
<g>
</g>
<g>
</g>
<g>
</g>
<g>
</g>
<g>
</g>
<g>
</g>
<g>
</g>
</svg>
