<?xml version="1.0" encoding="iso-8859-1"?>
<!-- Generator: Adobe Illustrator 16.0.0, SVG Export Plug-In . SVG Version: 6.00 Build 0)  -->
<!DOCTYPE svg PUBLIC "-//W3C//DTD SVG 1.1//EN" "http://www.w3.org/Graphics/SVG/1.1/DTD/svg11.dtd">
<svg version="1.1" id="Capa_1" xmlns="http://www.w3.org/2000/svg" xmlns:xlink="http://www.w3.org/1999/xlink" x="0px" y="0px"
	 width="477.942px" height="477.942px" viewBox="0 0 477.942 477.942" style="enable-background:new 0 0 477.942 477.942;"
	 xml:space="preserve">
<g>
	<g>
		<path d="M462.806,353.096c-3.062-3.955-6.83-7.617-10.461-11.039c-25.989-24.517-65.079-39.578-100.193-27.198
			c-9.577,3.377-19.606,8.755-27.599,15.041c-13.808,10.853-22.541,26.797-25.929,43.915
			c-15.417-23.399-30.229-47.154-44.687-71.138c0.615-1.036,1.239-2.062,1.854-3.093c34.881-58.727,67.766-118.611,101.769-177.846
			c18.961-33.032,38.263-65.872,58.427-98.183c8.78-14.061-12.645-28.274-21.414-14.218
			c-54.74,87.711-103.134,179.212-155.606,268.213C186.487,188.549,138.094,97.049,83.354,9.332
			C74.582-4.724,53.165,9.49,61.942,23.551c36.424,58.351,69.921,118.418,103.794,178.262
			c19.118,33.779,38.201,67.725,58.062,101.178c-14.398,23.872-29.15,47.525-44.496,70.812
			c-3.384-17.117-12.121-33.062-25.925-43.914c-31.73-24.943-75.84-24.745-108.968-2.544c-9.564,6.403-19.296,14.478-26.957,23.09
			C6.572,362.678,0.4,383.355,0.017,399.392c-0.467,19.383,9.011,37.039,22.774,50.363c30.56,29.585,82.637,31.443,117.616,8.76
			c27.657-17.94,43.48-45.047,61.337-71.995c12.771-19.276,25.027-38.902,37.039-58.666c10.687,17.458,21.62,34.754,32.989,51.734
			c17.281,25.816,31.667,52.309,56.671,71.858c23.399,18.28,52.999,28.132,82.364,20.17c7.866-2.133,15.376-5.357,22.603-9.105
			c6.759-3.503,16.239-7.444,21.724-12.756c13.232-12.812,22.47-29.554,22.8-48.189c0.219-12.345-3.387-27.863-9.72-39.948
			C466.589,358.52,464.775,355.63,462.806,353.096z M126.321,423.421c-0.152,0.173-0.244,0.351-0.381,0.522
			c-16.681,10.416-39.748,21.983-59.173,12.122c-14.018-7.114-19.119-23.806-19.068-38.481c0.053-16.052,7.472-32.331,21.226-41.05
			c16.65-10.553,37.45-6.145,55.065,1.3c3.917,3.777,7.571,7.759,10.9,11.983c1.8,3.153,3.514,6.353,5.027,9.653
			C143.652,394.451,138.962,409.157,126.321,423.421z M411.143,429.545c-1.915,0.955-3.829,1.909-5.744,2.869
			c-0.324,0.168-0.599,0.391-0.898,0.6c-24.44,5.123-49.82-0.976-62.819-23.735c-13.716-24.023,5.093-45.366,25.918-55.726
			c4.458-1.36,8.846-2.173,13.37-2.406c15.625,1.391,30.377,7.413,41.965,19.255C442.885,390.774,429.372,414.697,411.143,429.545z"
			/>
	</g>
</g>
<g>
</g>
<g>
</g>
<g>
</g>
<g>
</g>
<g>
</g>
<g>
</g>
<g>
</g>
<g>
</g>
<g>
</g>
<g>
</g>
<g>
</g>
<g>
</g>
<g>
</g>
<g>
</g>
<g>
</g>
</svg>
