<?xml version="1.0" encoding="iso-8859-1"?>
<!-- Generator: Adobe Illustrator 16.0.0, SVG Export Plug-In . SVG Version: 6.00 Build 0)  -->
<!DOCTYPE svg PUBLIC "-//W3C//DTD SVG 1.1//EN" "http://www.w3.org/Graphics/SVG/1.1/DTD/svg11.dtd">
<svg version="1.1" id="Capa_1" xmlns="http://www.w3.org/2000/svg" xmlns:xlink="http://www.w3.org/1999/xlink" x="0px" y="0px"
	 width="498.248px" height="498.248px" viewBox="0 0 498.248 498.248" style="enable-background:new 0 0 498.248 498.248;"
	 xml:space="preserve">
<g>
	<g>
		<path d="M213.396,340.94c21.516,0,42.109-4.006,61.105-11.253c25.821,54.66,54.69,107.801,81.375,162.033
			c3.798,7.719,11.588,7.871,17.184,4.185c27.457-4.062,51.861-14.325,73.493-32.367c0.087-0.071,0.138-0.152,0.219-0.224
			c7.186-2.346,12.441-9.963,6.922-17.884c-37.349-53.654-79.512-103.794-115.28-158.535
			c29.111-30.828,47.012-72.343,47.012-117.986c0-28.465-11.862-60.131-16.966-72.43C343.395,36.066,286.013,0,214.97,0
			c-25.896,0-52.839,4.946-77.914,14.294c-67.781,25.283-96.42,100.254-94.729,163.349
			C44.697,266.157,123.038,340.94,213.396,340.94z M424.469,448.441c-14.934,11.35-32.275,18.596-50.744,21.698
			c-8.937-17.976-18.082-35.84-27.253-53.694c11.425-9.049,23.298-17.418,35.8-24.923
			C396.52,410.351,410.769,429.196,424.469,448.441z M366.56,370.692c-11.12,6.835-21.779,14.33-32.103,22.298
			c-12.578-24.572-24.994-49.227-36.825-74.174c7.565-4.271,14.776-9.1,21.581-14.427
			C334.229,327.042,350.244,348.974,366.56,370.692z M147.951,43.528c21.625-8.064,44.8-12.33,67.019-12.33
			c58.866,0,104.314,28.152,124.682,77.234c9.131,22.008,14.579,44.615,14.579,60.468c0,77.66-63.17,140.835-140.83,140.835
			c-73.895,0-137.953-60.875-139.88-132.929C72.121,124.809,94.599,63.429,147.951,43.528z"/>
		<path d="M213.421,280.802c61.644,0,111.794-50.158,111.794-111.8c0-61.646-50.15-111.797-111.794-111.797
			c-61.639,0-111.792,50.15-111.792,111.797C101.629,230.644,151.777,280.802,213.421,280.802z M213.421,88.405
			c44.439,0,80.595,36.153,80.595,80.598c0,44.442-36.155,80.601-80.595,80.601c-44.438,0-80.593-36.158-80.593-80.601
			C132.828,124.558,168.983,88.405,213.421,88.405z"/>
		<path d="M265.844,177.295c16.768,0,16.768-26,0-26c-34.406,0.005-68.787,0.163-103.126,2.6c-16.623,1.181-16.737,27.19,0,26
			C197.057,177.458,231.438,177.3,265.844,177.295z"/>
	</g>
</g>
<g>
</g>
<g>
</g>
<g>
</g>
<g>
</g>
<g>
</g>
<g>
</g>
<g>
</g>
<g>
</g>
<g>
</g>
<g>
</g>
<g>
</g>
<g>
</g>
<g>
</g>
<g>
</g>
<g>
</g>
</svg>
