<?xml version="1.0" encoding="iso-8859-1"?>
<!-- Generator: Adobe Illustrator 16.0.0, SVG Export Plug-In . SVG Version: 6.00 Build 0)  -->
<!DOCTYPE svg PUBLIC "-//W3C//DTD SVG 1.1//EN" "http://www.w3.org/Graphics/SVG/1.1/DTD/svg11.dtd">
<svg version="1.1" id="Capa_1" xmlns="http://www.w3.org/2000/svg" xmlns:xlink="http://www.w3.org/1999/xlink" x="0px" y="0px"
	 width="480.307px" height="480.307px" viewBox="0 0 480.307 480.307" style="enable-background:new 0 0 480.307 480.307;"
	 xml:space="preserve">
<g>
	<g>
		<path d="M205.968,55.213c-59.798,0-108.443,48.649-108.443,108.442s48.65,108.442,108.443,108.442
			c59.791,0,108.443-48.649,108.443-108.442S265.763,55.213,205.968,55.213z M205.968,240.904
			c-42.591,0-77.244-34.652-77.244-77.244c0-42.591,34.652-77.243,77.244-77.243s77.244,34.652,77.244,77.243
			C283.211,206.252,248.565,240.904,205.968,240.904z"/>
		<path d="M326.913,277.907c28.244-29.854,45.615-70.097,45.615-114.341c0-27.576-11.481-58.219-16.417-70.114
			C331.833,34.937,276.265,0,207.466,0c-25.06,0-51.13,4.783-75.398,13.832c-65.671,24.491-93.417,97.091-91.784,158.179
			c2.292,85.727,78.155,158.144,165.651,158.144c20.853,0,40.807-3.885,59.219-10.912c16.098,34.215,33.19,68.034,50.841,101.447
			c8.663,16.402,15.336,36.059,26.056,51.171c17.433,24.567,73.427-10.993,88.936-23.922c0.081-0.071,0.127-0.147,0.208-0.214
			c6.937-2.274,12.004-9.617,6.678-17.265C401.934,378.816,361.372,330.556,326.913,277.907z M71.473,171.173
			c-1.335-49.998,20.249-108.999,71.493-128.107c20.814-7.765,43.117-11.868,64.5-11.868c56.586,0,100.262,27.05,119.828,74.207
			c8.79,21.178,14.035,42.914,14.035,58.156c0,74.648-60.732,135.389-135.389,135.389C134.907,298.95,73.329,240.432,71.473,171.173
			z M287.477,308.746c7.327-4.134,14.305-8.801,20.896-13.96c14.401,21.709,29.757,42.722,45.397,63.541
			c-10.729,6.597-21.023,13.827-30.986,21.521C310.734,356.291,298.827,332.658,287.477,308.746z M360.691,454.306
			c-8.627-17.346-17.452-34.596-26.304-51.836c11.024-8.724,22.485-16.803,34.551-24.049c13.756,18.179,27.502,36.368,40.73,54.938
			C395.252,444.322,378.51,451.31,360.691,454.306z"/>
	</g>
</g>
<g>
</g>
<g>
</g>
<g>
</g>
<g>
</g>
<g>
</g>
<g>
</g>
<g>
</g>
<g>
</g>
<g>
</g>
<g>
</g>
<g>
</g>
<g>
</g>
<g>
</g>
<g>
</g>
<g>
</g>
</svg>
