<?xml version="1.0" encoding="iso-8859-1"?>
<!-- Generator: Adobe Illustrator 16.0.0, SVG Export Plug-In . SVG Version: 6.00 Build 0)  -->
<!DOCTYPE svg PUBLIC "-//W3C//DTD SVG 1.1//EN" "http://www.w3.org/Graphics/SVG/1.1/DTD/svg11.dtd">
<svg version="1.1" id="Capa_1" xmlns="http://www.w3.org/2000/svg" xmlns:xlink="http://www.w3.org/1999/xlink" x="0px" y="0px"
	 width="498.247px" height="498.248px" viewBox="0 0 498.247 498.248" style="enable-background:new 0 0 498.247 498.248;"
	 xml:space="preserve">
<g>
	<g>
		<path d="M213.398,340.94c21.515,0,42.107-4.006,61.108-11.253c25.822,54.654,54.686,107.801,81.37,162.033
			c3.804,7.719,11.593,7.871,17.188,4.185c27.452-4.062,51.861-14.325,73.494-32.367c0.081-0.071,0.132-0.152,0.213-0.224
			c7.19-2.346,12.437-9.963,6.922-17.884c-37.354-53.654-79.512-103.794-115.28-158.524c29.106-30.834,47.012-72.349,47.012-117.992
			c0-28.464-11.862-60.131-16.971-72.43C343.399,36.066,286.019,0,214.972,0c-25.895,0-52.841,4.946-77.919,14.294
			C69.272,39.578,40.643,114.549,42.326,177.643C44.697,266.157,123.041,340.94,213.398,340.94z M424.475,448.441
			c-14.935,11.35-32.276,18.596-50.744,21.698c-8.942-17.976-18.088-35.84-27.254-53.694c11.426-9.049,23.293-17.418,35.795-24.923
			C396.525,410.351,410.773,429.196,424.475,448.441z M366.564,370.692c-11.125,6.835-21.784,14.33-32.107,22.298
			c-12.578-24.572-24.994-49.227-36.825-74.174c7.571-4.271,14.781-9.1,21.581-14.427
			C334.229,327.042,350.244,348.974,366.564,370.692z M147.953,43.528c21.625-8.064,44.8-12.33,67.019-12.33
			c58.869,0,104.312,28.152,124.679,77.234c9.131,22.008,14.584,44.615,14.584,60.468c0,77.66-63.175,140.835-140.832,140.835
			c-73.895,0-137.954-60.875-139.883-132.929C72.124,124.809,94.602,63.429,147.953,43.528z"/>
		<path d="M213.423,280.802c61.641,0,111.796-50.158,111.796-111.8c0-61.646-50.155-111.797-111.796-111.797
			c-61.644,0-111.796,50.15-111.796,111.797C101.627,230.644,151.779,280.802,213.423,280.802z M213.423,88.405
			c44.443,0,80.598,36.153,80.598,80.598c0,44.442-36.155,80.601-80.598,80.601c-44.442,0-80.598-36.158-80.598-80.601
			C132.826,124.558,168.981,88.405,213.423,88.405z"/>
		<path d="M170.321,180.758c11.611-0.65,23.212-1.43,34.817-2.194c0.749,12.292,1.503,24.585,2.45,36.861
			c1.279,16.603,27.289,16.727,25.999,0c-0.987-12.822-1.762-25.661-2.546-38.493c11.824-0.78,23.646-1.577,35.477-2.237
			c16.671-0.937,16.758-26.941,0-25.999c-12.396,0.695-24.783,1.528-37.173,2.346c-0.754-10.904-1.586-21.8-2.694-32.677
			c-1.686-16.508-27.7-16.676-25.999,0c1.165,11.421,2.023,22.864,2.803,34.31c-11.044,0.721-22.084,1.47-33.139,2.09
			C153.65,155.696,153.562,181.7,170.321,180.758z"/>
	</g>
</g>
<g>
</g>
<g>
</g>
<g>
</g>
<g>
</g>
<g>
</g>
<g>
</g>
<g>
</g>
<g>
</g>
<g>
</g>
<g>
</g>
<g>
</g>
<g>
</g>
<g>
</g>
<g>
</g>
<g>
</g>
</svg>
