<?xml version="1.0" encoding="iso-8859-1"?>
<!-- Generator: Adobe Illustrator 16.0.0, SVG Export Plug-In . SVG Version: 6.00 Build 0)  -->
<!DOCTYPE svg PUBLIC "-//W3C//DTD SVG 1.1//EN" "http://www.w3.org/Graphics/SVG/1.1/DTD/svg11.dtd">
<svg version="1.1" id="Capa_1" xmlns="http://www.w3.org/2000/svg" xmlns:xlink="http://www.w3.org/1999/xlink" x="0px" y="0px"
	 width="491.935px" height="491.935px" viewBox="0 0 491.935 491.935" style="enable-background:new 0 0 491.935 491.935;"
	 xml:space="preserve">
<g>
	<g>
		<path d="M389.039,366.325c-17.123,0-32.814,4.875-44.641,13.792c-14.31-9.384-28.554-18.859-42.797-28.335
			c-43.031-28.63-87.504-58.209-133.196-84.518c1.879-8.506,1.483-17.51-1.186-26.851c-0.919-3.239-2.12-6.446-3.583-9.587
			c50.506-27.784,97.111-62.749,142.214-96.593c12.004-9.006,24.009-18.017,36.089-26.903
			c13.441,11.691,31.951,18.323,51.496,18.323l1.011-0.005c24.222-0.287,47.926-11.278,60.387-28.002
			c9.852-13.213,12.508-29.135,7.684-46.035C452.336,15.963,417.44,0,387.368,0c-21.562,0-40.827,7.79-52.877,21.366
			c-10.867,12.25-15.422,28.625-13.177,47.35c0.035,0.307,0.076,0.614,0.127,0.917c-12.894,9.458-25.685,19.068-38.477,28.67
			c-47.469,35.646-96.529,72.486-149.937,100.613c-12.18-6.53-26.614-10.098-40.987-10.098c-21.549,0-40.807,7.785-52.844,21.351
			c-10.864,12.24-15.419,28.614-13.172,47.336c4.481,37.38,39.685,56.939,72.138,56.939l0.998-0.005
			c15.391-0.183,31.075-4.794,43.564-12.726c46.897,26.746,92.579,57.143,136.783,86.555c14.457,9.622,28.919,19.24,43.442,28.756
			c-0.762,5.713-0.771,11.74-0.021,17.977c4.479,37.374,39.685,56.935,72.138,56.935h0.99c24.227-0.295,47.926-11.283,60.393-28.011
			c9.846-13.213,12.502-29.138,7.673-46.026C453.945,382.28,419.08,366.325,389.039,366.325z M369.24,414.465
			c4.479-5.789,11.171-9.247,17.899-9.247c0.95,0,1.915,0.076,2.874,0.218l0.589,0.092l0.595-0.051
			c13.07-1.036,23.82,11.131,30.392,21.257c3.859,5.94,2.239,9.16,1.711,10.217c-3.601,7.149-18.356,11.755-27.624,12.329
			c-0.797,0.056-1.604,0.081-2.407,0.081c-10.734,0-24.517-4.764-28-18.18C363.832,425.667,365.284,419.583,369.24,414.465z
			 M72.338,236.966c4.479-5.787,11.171-9.245,17.9-9.245c0.949,0,1.912,0.074,2.874,0.219l0.589,0.089l0.592-0.048
			c13.068-1.003,23.815,11.128,30.389,21.247c3.862,5.951,2.239,9.17,1.708,10.227c-3.598,7.15-18.354,11.75-27.626,12.329
			c-0.795,0.051-1.6,0.081-2.402,0.081c-10.737,0-24.512-4.763-28-18.179C66.933,248.181,68.382,242.083,72.338,236.966z
			 M421.68,70.66c-3.595,7.149-18.352,11.758-27.619,12.334c-0.797,0.051-1.594,0.079-2.396,0.079
			c-10.745,0-24.526-4.763-28.01-18.179c-1.432-5.512,0.021-11.595,3.976-16.719c4.479-5.786,11.167-9.244,17.905-9.244
			c0.949,0,1.909,0.073,2.874,0.218l0.589,0.089l0.589-0.045c13.071-0.98,23.816,11.125,30.392,21.251
			C423.833,66.387,422.219,69.604,421.68,70.66z"/>
	</g>
</g>
<g>
</g>
<g>
</g>
<g>
</g>
<g>
</g>
<g>
</g>
<g>
</g>
<g>
</g>
<g>
</g>
<g>
</g>
<g>
</g>
<g>
</g>
<g>
</g>
<g>
</g>
<g>
</g>
<g>
</g>
</svg>
