<?xml version="1.0" encoding="iso-8859-1"?>
<!-- Generator: Adobe Illustrator 16.0.0, SVG Export Plug-In . SVG Version: 6.00 Build 0)  -->
<!DOCTYPE svg PUBLIC "-//W3C//DTD SVG 1.1//EN" "http://www.w3.org/Graphics/SVG/1.1/DTD/svg11.dtd">
<svg version="1.1" id="Capa_1" xmlns="http://www.w3.org/2000/svg" xmlns:xlink="http://www.w3.org/1999/xlink" x="0px" y="0px"
	 width="463.547px" height="463.547px" viewBox="0 0 463.547 463.547" style="enable-background:new 0 0 463.547 463.547;"
	 xml:space="preserve">
<g>
	<g>
		<path d="M450.08,301.987C348.928,312.773,246.743,329.2,145.016,316.49c-0.602-0.305-1.206-0.619-1.851-0.858
			c-9.298-3.488-12.418-9.282-12.339-17.869c8.653-12.37,27.139-11.567,40.09-10.562c18.124,1.396,36.11,1.225,54.281,1.036
			c47.18-0.503,94.512-3.691,141.305-9.729c25.929-3.346,51.745-7.073,77.47-11.745c7.987-1.447,10.847-7.688,10.014-13.848
			c0.152-0.812,0.295-1.64,0.315-2.539c1.422-54.994,3.107-109.936,8.449-164.714c0.833-8.562-5.053-12.975-11.654-13.406
			c-1.549-0.505-3.265-0.792-5.24-0.675C327.128,78.472,208.217,80.001,89.326,81.4c-0.691-0.805-1.483-1.569-2.392-2.272
			c-20.967-16.135-44.12-27.83-69.528-35.208c-17.48-5.075-24.892,22.1-7.492,27.149c65.404,18.994,94.783,75.527,107.305,138.626
			c3.763,18.934,5.624,38.166,7.112,57.396c0.094,1.193-16.41,14.081-18.23,17.372c-4.035,7.312-4.728,15.762-2.808,23.815
			c5.761,24.187,25.517,34.17,48.266,38.156c-3.994,5.286-7.218,11.445-9.521,18.438c-0.843,2.555-0.901,4.865-0.48,6.932
			c-0.031,13.035,3.735,25.599,13.251,34.921c9.889,9.694,24.064,12.797,37.407,13.513c1.539,0.081,2.902-0.111,4.179-0.411
			c0.48-0.035,0.942-0.01,1.442-0.086c24.58-3.997,42.478-22.155,44.707-47.012c0.817-9.064-1.544-17.256-5.954-24.212
			c38.519-0.63,76.391-3.87,114.75-7.668c-3.707,4.829-6.612,10.141-8.359,15.798c-9.703,31.442,20.861,53.582,50.085,55.151
			c1.538,0.081,2.899-0.111,4.179-0.411c0.478-0.035,0.939-0.01,1.442-0.086c24.577-3.997,42.478-22.155,44.706-47.013
			c1.143-12.74-3.986-23.739-12.258-32.031c6.322-0.711,12.634-1.438,18.956-2.112C467.939,328.241,468.128,300.063,450.08,301.987z
			 M426.402,241.291c-22.617,3.92-45.301,7.216-68.03,9.927c-0.116-10.577-0.269-21.154-0.579-31.719
			c23.085-0.312,46.18-0.396,69.27-0.134C426.839,226.668,426.59,233.978,426.402,241.291z M428.032,191.216
			c-23.801-0.277-47.581-0.152-71.346,0.218c-0.381-8.351-0.854-16.696-1.366-25.037c24.583-0.401,49.15-0.676,73.737-0.521
			C428.656,174.322,428.357,182.767,428.032,191.216z M433.272,100.397c-1.066,12.431-1.944,24.879-2.712,37.328
			c-25.689-0.178-51.384,0.114-77.073,0.551c-0.873-11.393-1.879-22.775-2.976-34.157
			C378.11,103.088,405.694,101.91,433.272,100.397z M330.256,254.234c-26.391,2.56-52.842,4.362-79.344,5.307
			c-1.63-11.903-3.301-23.801-4.951-35.701c27.853-1.929,55.767-3.12,83.695-3.836C329.991,231.398,330.148,242.814,330.256,254.234
			z M328.55,191.991c-28.823,0.805-57.61,2.117-86.361,4.182c-1.219-9.069-2.377-18.148-3.517-27.233
			c29.506-0.655,59.014-1.435,88.532-2.059C327.701,175.246,328.169,183.62,328.55,191.991z M322.44,105.106
			c1.077,11.217,2.072,22.437,2.931,33.665c-30.017,0.645-60.043,1.45-90.059,2.11c-1.234-11.126-2.404-22.264-3.369-33.428
			C262.109,106.853,292.282,106.079,322.44,105.106z M222.826,260.256c-23.638,0.33-47.307,0.03-70.978-0.955
			c-0.749-8.592-1.663-17.173-2.75-25.729c22.942-3.108,45.936-5.614,68.959-7.609C219.649,237.39,221.252,248.821,222.826,260.256z
			 M214.267,198.346c-23.202,2.044-46.372,4.57-69.505,7.663c-2.288-12.142-5.096-24.136-8.632-35.846
			c24.793,0.082,49.576-0.192,74.364-0.64C211.7,179.136,212.967,188.741,214.267,198.346z M108.643,109.324
			c31.729-0.386,63.459-0.817,95.179-1.363c0.978,11.182,2.115,22.335,3.359,33.481c-27.086,0.475-54.172,0.744-81.268,0.543
			C121.061,130.689,115.384,119.754,108.643,109.324z M192.548,392.136c-0.119-0.01-0.218-0.046-0.333-0.051
			c-15.533-0.833-22.62-6.108-22.5-20.981c4.52-12.188,13.693-17.413,25.38-18.337c10.636,2.387,19.504,7.703,19.299,19.962
			C214.186,384.433,202.463,390.065,192.548,392.136z M393.396,383.692c-0.117-0.01-0.219-0.046-0.33-0.051
			c-15.534-0.833-22.623-6.109-22.501-20.982c4.52-12.188,13.69-17.412,25.375-18.336c10.638,2.387,19.51,7.703,19.301,19.961
			C415.032,375.984,403.312,381.615,393.396,383.692z"/>
	</g>
</g>
<g>
</g>
<g>
</g>
<g>
</g>
<g>
</g>
<g>
</g>
<g>
</g>
<g>
</g>
<g>
</g>
<g>
</g>
<g>
</g>
<g>
</g>
<g>
</g>
<g>
</g>
<g>
</g>
<g>
</g>
</svg>
