<?xml version="1.0" encoding="iso-8859-1"?>
<!-- Generator: Adobe Illustrator 16.0.0, SVG Export Plug-In . SVG Version: 6.00 Build 0)  -->
<!DOCTYPE svg PUBLIC "-//W3C//DTD SVG 1.1//EN" "http://www.w3.org/Graphics/SVG/1.1/DTD/svg11.dtd">
<svg version="1.1" id="Capa_1" xmlns="http://www.w3.org/2000/svg" xmlns:xlink="http://www.w3.org/1999/xlink" x="0px" y="0px"
	 width="453.183px" height="453.183px" viewBox="0 0 453.183 453.183" style="enable-background:new 0 0 453.183 453.183;"
	 xml:space="preserve">
<g>
	<g>
		<path d="M386.471,73.171c-1.158-5.162-4.804-7.606-8.78-7.959c-1.695-1.305-3.904-2.11-6.646-2.105
			c-17.144,0.03-35.525,0.206-54.573,0.462c-17.905-97.174-138.606-72.173-169.384,2.829c-18.334,0.239-36.036,0.406-52.585,0.437
			c-0.416,0-0.759,0.119-1.16,0.16c-5.979-0.67-11.605-0.03-17.644,1.17c-3.204,0.64-5.616,2.966-6.967,5.825
			c-0.754,1.077-1.404,2.292-1.77,3.844C42.202,182.089,34.705,279.38,3.655,382.301c-0.63,2.071-0.63,3.94-0.244,5.616
			c-2.361,3.523-3.121,8.363-0.49,11.837c9.158,12.105,18.974,23.603,29.676,34.383c0.719,0.721,1.457,1.279,2.216,1.757
			c1.31,1.249,3.098,2.179,5.51,2.519c121.328,16.828,244.081,18.585,366.099,8.774c1.27-0.102,2.387-0.421,3.438-0.832
			c2.514,0.005,5.089-1.103,7.262-3.84c10.934-13.761,21.063-27.999,29.736-43.284c3.037-2.071,4.646-5.57,4.779-9.13
			c0.35-1.514,0.391-3.199,0.015-5.007C429.33,277.512,410.515,180.397,386.471,73.171z M293.702,63.901
			c-40.015,0.635-82.078,1.508-122.082,2.138C198.337,16.125,277.28-0.427,293.702,63.901z M137.879,206.902l10.811-15.138
			c5.111,6.459,10.778,12.454,16.587,18.324c0.828,10.598,1.107,21.203,1.171,31.826c-9.537-0.254-19.058-0.792-28.569-1.544
			V206.902z M402.528,425.128c-118.317,9.277-237.771,8.095-355.428-8.165c-5.99-6.104-11.794-12.411-17.273-18.981
			c120.77,5.428,267.469,6.449,389.448,3.646C414.049,409.717,408.474,417.547,402.528,425.128z M28.791,375.567
			c27.117-97.446,35.917-188.284,58.587-286.713c0.322-0.016,0.645-0.051,0.967-0.061c0.274-0.013,3.623,0.374,1.325-0.018
			c1.107,0.188,2.204,0.214,3.286,0.163c0.53,0.068,0.978,0.238,1.551,0.238c9.656-0.021,19.733-0.084,30.08-0.178
			c0.665,27.794,4.369,55.048,12.365,81.791c0.122,0.409,0.312,0.752,0.464,1.127l-17.613,24.659c-0.477,0.665-0.8,1.386-1.043,2.13
			c-1.031,1.514-1.681,3.402-1.681,5.716v42.896c0,1.225,0.223,2.296,0.536,3.291c0.597,4.702,3.879,9.222,9.864,9.709
			c15.147,1.26,30.29,2.498,45.499,2.6c1.097,0.011,2.064-0.162,2.98-0.416c5.489,0.427,11.319-2.874,11.319-9.983
			c0-14.746-0.059-29.485-1.3-44.196c-0.036-0.406-0.14-0.764-0.213-1.15c0.582-2.9-0.099-6.068-2.833-8.803
			c-8.295-8.297-16.702-16.577-23.077-26.492c-0.714-1.109-1.549-1.95-2.44-2.658c0.109-1.227,0.016-2.537-0.409-3.958
			c-7.51-25.098-10.994-50.432-11.628-76.49c72.376-0.914,155.643-3.047,220.935-3.27c22.486,101.158,40.522,192.051,61.343,293.55
			C305.853,382.107,150.515,381.153,28.791,375.567z"/>
	</g>
</g>
<g>
</g>
<g>
</g>
<g>
</g>
<g>
</g>
<g>
</g>
<g>
</g>
<g>
</g>
<g>
</g>
<g>
</g>
<g>
</g>
<g>
</g>
<g>
</g>
<g>
</g>
<g>
</g>
<g>
</g>
</svg>
