<?xml version="1.0" encoding="iso-8859-1"?>
<!-- Generator: Adobe Illustrator 16.0.0, SVG Export Plug-In . SVG Version: 6.00 Build 0)  -->
<!DOCTYPE svg PUBLIC "-//W3C//DTD SVG 1.1//EN" "http://www.w3.org/Graphics/SVG/1.1/DTD/svg11.dtd">
<svg version="1.1" id="Capa_1" xmlns="http://www.w3.org/2000/svg" xmlns:xlink="http://www.w3.org/1999/xlink" x="0px" y="0px"
	 width="471.851px" height="471.851px" viewBox="0 0 471.851 471.851" style="enable-background:new 0 0 471.851 471.851;"
	 xml:space="preserve">
<g>
	<g>
		<path d="M263.682,355.864c-5.713,0-11.024,2.163-14.584,5.931c-3.438,3.646-5.088,8.511-4.763,14.062
			c1.092,18.824,1.376,37.409,1.447,54.908c-24.7,0.37-48.759,0.559-71.595,0.559c-42.14,0-81.266-0.614-119.437-1.869
			c-0.317-75.316-2.133-151.74-3.89-225.688C49.615,151.031,48.32,96.55,47.576,42.868c29.216-1.643,60.624-2.382,100.935-2.382
			c18.641,0,37.282,0.15,55.924,0.302c9.953,0.083,19.911,0.16,29.861,0.218c0.546,11.664,1.473,23.242,2.524,35.884
			c0.036,0.421,0.099,0.817,0.19,1.3c-0.135,0.937-0.206,1.871-0.206,2.798v12.022c0,11.153,9.069,20.228,20.231,20.228
			c11.15,0,20.225-9.074,20.225-20.228V80.988c0-0.317-0.02-0.625-0.061-0.932c0.143-1.341,0.157-2.656,0.041-4.009
			c-1.407-16.994-2.864-34.559-2.986-52.207c-0.03-4.522-1.401-8.65-3.976-11.989c-3.185-7.02-9.76-11.191-17.743-11.212
			c-16.559-0.03-33.115-0.17-49.677-0.317C183.973,0.162,165.08,0,146.2,0C113.623,0,70.609,0.416,26.708,3.661
			c-6.792,0.5-12.438,3.885-15.932,9.546c-2.61,3.379-3.961,7.597-3.91,12.23c0.686,59.674,2.143,120.32,3.552,178.963
			c1.901,79.254,3.874,161.193,3.966,241.791c0.01,8.206,4.296,14.828,11.534,17.936c3.474,3.28,7.945,5.098,13.01,5.291
			c42.924,1.635,87.039,2.433,134.874,2.433c0,0,0.005,0,0.01,0c29.488,0,59.694-0.3,92.354-0.919
			c8.709-0.168,15.757-5.312,18.469-13.457c1.102-2.519,1.66-5.307,1.66-8.277c0-26.242-0.111-49.916-1.513-73.95
			C284.034,362.526,273.6,355.864,263.682,355.864z"/>
		<path d="M453.126,215.461c-41.36-45.956-82.721-91.912-124.086-137.867c-12.015-13.35-29.757-1.457-30.554,12.659
			c-0.203,0.863-0.441,1.706-0.533,2.644c-1.711,16.562-2.204,33.159-2.356,49.776H177.76c-8.805,0-14.312,5.119-16.511,11.52
			c-2.496,2.854-4.124,6.66-4.124,11.547v62.045v13.226v62.048c0,4.89,1.627,8.693,4.124,11.547
			c2.199,6.403,7.706,11.522,16.511,11.522h117.837c0.152,16.615,0.646,33.21,2.356,49.774c0.092,0.944,0.33,1.777,0.533,2.641
			c0.797,14.116,18.539,26.02,30.554,12.664c41.36-45.956,82.726-91.911,124.086-137.867c6.997-3.148,12.299-10.847,11.831-18.946
			C465.43,226.302,460.123,218.606,453.126,215.461z M332.148,333.399c-0.138-8.49-0.193-16.98-0.193-25.481
			c-0.005-11.791-9.191-17.656-18.336-17.605c-1.468-0.36-3.017-0.604-4.738-0.604H193.545v-48.688v-13.226v-48.69h115.336
			c1.722,0,3.271-0.247,4.738-0.604c9.145,0.053,18.331-5.814,18.336-17.608c0-8.495,0.056-16.985,0.193-25.479
			c29.695,32.999,59.392,65.996,89.093,98.995C391.54,267.406,361.844,300.402,332.148,333.399z"/>
	</g>
</g>
<g>
</g>
<g>
</g>
<g>
</g>
<g>
</g>
<g>
</g>
<g>
</g>
<g>
</g>
<g>
</g>
<g>
</g>
<g>
</g>
<g>
</g>
<g>
</g>
<g>
</g>
<g>
</g>
<g>
</g>
</svg>
