<?xml version="1.0" encoding="iso-8859-1"?>
<!-- Generator: Adobe Illustrator 16.0.0, SVG Export Plug-In . SVG Version: 6.00 Build 0)  -->
<!DOCTYPE svg PUBLIC "-//W3C//DTD SVG 1.1//EN" "http://www.w3.org/Graphics/SVG/1.1/DTD/svg11.dtd">
<svg version="1.1" id="Capa_1" xmlns="http://www.w3.org/2000/svg" xmlns:xlink="http://www.w3.org/1999/xlink" x="0px" y="0px"
	 width="472.608px" height="472.607px" viewBox="0 0 472.608 472.607" style="enable-background:new 0 0 472.608 472.607;"
	 xml:space="preserve">
<g>
	<g>
		<path d="M418.865,304.217c1.285-6.992,5.124-19.302,6.957-25.191c1.976-6.348,3.128-10.075,3.697-12.873
			c8.155-39.74,3.682-75.682-14.076-113.102C389.032,97.409,348.16,61.045,297.238,47.906c-21.023-5.424-41.782-8.231-61.939-8.336
			c-5.771,0-12.167,1.087-18.943,2.242c-6.322,1.076-12.857,2.184-17.877,2.184c-1.251,0-2.163-0.074-2.791-0.152
			c-0.972-1.387-2.257-3.494-3.12-4.903c-2.372-3.879-4.822-7.883-7.909-10.951C166.739,10.207,142.067,0.005,116.962,0
			C74.891,0,37.709,28.506,26.556,69.33c-3.436,12.583-7.899,37.163,0.868,60.4c3.474,9.214,9.501,16.404,14.82,22.75
			c4.832,5.761,9.392,11.204,9.963,15.917c0.724,5.964-2.382,13.997-5.667,22.5c-3.151,8.153-6.406,16.587-7.467,25.781
			c-2.48,21.602-0.927,44.127,4.628,66.938c11.885,48.805,37.417,89.129,71.881,113.544c22.973,16.27,49.32,28.66,70.48,33.149
			c11.798,2.508,24.689,3.722,39.405,3.722c3.156,0,6.307-0.051,9.458-0.147c7.056-0.224,14.158-1.889,21.017-3.498
			c8.766-2.062,18.373-3.956,22.476-2.174c2.986,1.285,6.967,6.276,10.476,10.689c3.926,4.926,8.384,10.511,14.087,14.807
			c12.364,9.293,25.298,15.219,38.43,17.601c4.743,0.863,9.618,1.3,14.498,1.3l0,0c21.053,0,42.259-8.018,59.696-22.576
			c22.806-19.032,35.439-47.261,34.647-77.439C449.567,345.887,438.217,321.37,418.865,304.217z M395.633,426.083
			c-11.847,9.882-25.948,15.325-39.71,15.325l0,0c-3.011,0-6.012-0.264-8.922-0.792c-8.424-1.533-16.691-5.403-25.253-11.842
			c-2.533-1.904-5.402-5.505-8.439-9.312c-5.799-7.277-12.37-15.523-22.536-19.901c-5.199-2.239-10.847-3.326-17.275-3.326
			c-8.571,0-17.128,2.012-24.674,3.783c-5.616,1.32-10.915,2.564-14.845,2.687c-2.829,0.097-5.662,0.138-8.496,0.138
			c-12.512,0-23.28-0.99-32.925-3.042c-20.274-4.302-43.737-17.331-58.93-28.092c-28.33-20.058-49.497-53.969-59.6-95.461
			c-4.682-19.215-6.012-38.06-3.948-55.997c0.599-5.233,3.016-11.481,5.57-18.09c4.309-11.159,9.196-23.806,7.533-37.5
			c-1.684-13.901-10.182-24.05-17.014-32.2c-4.083-4.873-7.935-9.473-9.542-13.726c-4.134-10.953-4.119-25.958,0.036-41.167
			c7.576-27.726,31.813-46.352,60.303-46.352c16.93,0,33.596,6.906,45.593,18.801c0.69,0.785,2.318,3.453,3.395,5.21
			c3.938,6.439,8.008,13.104,14.894,16.453c4.882,2.376,10.654,3.531,17.644,3.531c7.652,0,15.858-1.398,23.102-2.625
			c5.2-0.886,10.57-1.8,13.784-1.8c17.342,0.094,35.53,2.564,54.065,7.343c52.648,13.586,82.248,55.527,97.812,88.313
			c14.909,31.417,18.524,60.234,11.7,93.46c-0.289,1.406-1.747,6.094-2.92,9.856c-8.592,27.568-11.725,40.659-5.683,50.379
			l1.544,2.488l2.341,1.752c15.274,11.445,24.329,29.319,24.842,49.048C419.622,394,411.076,413.195,395.633,426.083z"/>
		<path d="M282.456,234.39c-17.372-5.819-68.121-13.063-81.001-31.382c24.428-33.113,74.162-10.423,106.61,5.408
			c3.707,1.808,7.281,1.658,10.303,0.373c3.55-0.556,6.855-2.476,8.506-5.792c4.397-8.866,8.511-17.87,13.279-26.558
			c15.01-27.385-57.107-45.326-71.407-49.434c-31.869-9.15-69.403-11.451-99.426,5.22c-16.067,8.922-28.967,25.497-35.764,42.498
			c-12.042,30.112,6.946,63.129,30.851,80.222c27.284,19.52,63.251,22.643,90.858,41.121c-17.712,5.972-70.658-0.005-86.694-13.329
			c-5.25-4.362-11.517-3.56-15.922-0.422c-1.186,0.589-2.348,1.351-3.453,2.463c-8.163,8.272-15.338,17.392-22.468,26.553
			c-4.098,5.266-5.159,12.172,0,17.331c0.609,0.604,1.32,1.122,2.084,1.59c0.688,0.843,1.468,1.645,2.44,2.366
			c39.088,28.833,129.827,45.285,175.782,24.191c25.146-11.537,57.747-49.942,43.971-79.445
			C339.278,252.264,306.561,242.469,282.456,234.39z M316.889,317.206c-5.951,6.368-13.278,11.502-19.251,14.274
			c-14.995,6.946-32.036,9.892-48.453,10.309c-17.989,0.446-36.125-2.067-53.535-6.5c-3.227-0.822-43.965-16.27-42.909-17.564
			c2.803-3.438,5.705-6.795,8.673-10.09c20.253,13.451,49.061,16.412,72.716,15.289c14.648-0.69,57.292-6.586,53.708-28.183
			c-4.759-28.63-68.002-35.876-88.824-46.464c-14.018-7.129-34.51-22.619-40.72-37.727c-13.218-32.151,17.768-52.658,43.737-61.946
			c20.571-7.355,42.68-5.39,63.312,0.64c4.193,1.229,51.652,18.542,49.591,22.61c-1.777,3.509-3.509,7.041-5.226,10.582
			c2.285-4.722-72.574-19.007-80.066-18.539c-12.766,0.802-25.215,5.207-35.904,12.237c-53.456,35.155,26.961,67.7,55.269,75.627
			c20.859,5.84,74.676,12.202,78.744,39.45C329.102,300.332,323.962,309.641,316.889,317.206z"/>
	</g>
</g>
<g>
</g>
<g>
</g>
<g>
</g>
<g>
</g>
<g>
</g>
<g>
</g>
<g>
</g>
<g>
</g>
<g>
</g>
<g>
</g>
<g>
</g>
<g>
</g>
<g>
</g>
<g>
</g>
<g>
</g>
</svg>
