<?xml version="1.0" encoding="iso-8859-1"?>
<!-- Generator: Adobe Illustrator 16.0.0, SVG Export Plug-In . SVG Version: 6.00 Build 0)  -->
<!DOCTYPE svg PUBLIC "-//W3C//DTD SVG 1.1//EN" "http://www.w3.org/Graphics/SVG/1.1/DTD/svg11.dtd">
<svg version="1.1" id="Capa_1" xmlns="http://www.w3.org/2000/svg" xmlns:xlink="http://www.w3.org/1999/xlink" x="0px" y="0px"
	 width="428.691px" height="428.691px" viewBox="0 0 428.691 428.691" style="enable-background:new 0 0 428.691 428.691;"
	 xml:space="preserve">
<g>
	<g>
		<path d="M40.415,140.195c1.404,92.658,4.867,190.445,12.979,273.55c1.935,19.835,33.149,20.022,31.199,0
			c-8.013-82.09-11.486-178.506-12.926-270.158C61.328,145.151,50.481,143.734,40.415,140.195z"/>
		<path d="M41.283,32.379c1.915-0.711,3.931-1.234,6.053-1.462c8.29-0.894,16.13-0.346,23.415,1.427
			c-0.01-5.789-0.021-11.588-0.025-17.255c-0.005-20.119-31.205-20.119-31.199,0c0,5.738,0.01,11.613,0.025,17.483
			C40.146,32.466,40.707,32.45,41.283,32.379z"/>
		<path d="M205.286,365.291c1.216,16.585,2.58,32.784,4.108,48.454c1.935,19.835,33.148,20.022,31.199,0
			c-1.509-15.422-2.849-31.361-4.048-47.672C226.4,368.658,215.582,368.109,205.286,365.291z"/>
		<path d="M201.059,255.973c1.915-0.711,3.936-1.234,6.053-1.463c8.315-0.894,16.17-0.34,23.478,1.447
			c-3.123-82.476-3.839-167.293-3.869-240.868c-0.005-20.119-31.205-20.119-31.199,0c0.03,73.641,0.749,158.529,3.879,241.066
			C199.967,256.064,200.508,256.039,201.059,255.973z"/>
		<path d="M360.19,245.314c2.071,58.655,5.321,116.428,10.395,168.431c1.935,19.835,33.148,20.022,31.198,0
			c-4.971-50.942-8.186-107.43-10.257-164.846C381.146,250.417,370.274,248.914,360.19,245.314z"/>
		<path d="M359.515,137.844c0.65-0.137,1.249-0.132,1.879-0.213c1.914-0.706,3.93-1.229,6.053-1.458
			c7.495-0.807,14.619-0.421,21.308,0.96c-0.625-42.452-0.823-83.771-0.838-122.044c-0.005-20.119-31.204-20.119-31.199,0
			c0.015,38.623,0.218,80.359,0.858,123.212C358.22,138.159,358.864,137.986,359.515,137.844z"/>
		<path d="M28.913,123.214c3.468,2.569,7.299,4.834,11.356,6.713c9.74,4.509,20.774,6.713,31.266,5.403
			c2.419-0.305,4.816-0.751,7.149-1.442c22.6-6.723,30.757-29.802,32.185-51.176c0.441-2.234,0.383-4.544-0.49-6.764
			c-7.353-18.707-21.49-31.676-39.618-35.652c-5.865-1.29-12.146-1.646-18.756-0.935c-1.803,0.193-3.519,0.64-5.146,1.244
			c-0.536,0.066-1.046,0.061-1.597,0.178c-1.915,0.411-3.806,0.904-5.69,1.438C20.983,47.476,4.437,58.846,2.741,79.792
			C1.286,97.778,15.621,113.363,28.913,123.214z M33.93,81.646c-0.01-0.213,0.023-0.426,0.023-0.64
			c0.046-0.208,0.12-0.563,0.201-0.965c0.114-0.229,0.256-0.513,0.406-0.822c0.312-0.335,0.863-0.99,1.348-1.534
			c0.482-0.401,1.127-0.939,1.404-1.112c0.779-0.513,1.594-0.97,2.422-1.396c0.838-0.432,1.684-0.838,2.532-1.239
			c-2.298,1.082,3.344-1.066,3.933-1.244c2.412-0.757,4.893-1.295,7.363-1.828c0.586-0.122,1.069-0.34,1.604-0.513
			c5.784-0.274,11.228,0.579,15.757,3.077c3.608,1.99,6.645,5.007,8.719,9.501c-0.472,6.388-1.698,11.852-4.06,16.066
			c-0.147,0.259-0.703,1.046-1.077,1.59c-0.467,0.528-0.972,1.021-1.488,1.503c-0.348,0.224-1.206,0.863-1.851,1.3
			c-0.224,0.152-0.427,0.284-0.562,0.36c-0.035,0.021-0.035,0.021-0.068,0.041c-0.259,0.061-0.63,0.162-1.147,0.32
			c-0.396,0.117-0.812,0.167-1.214,0.259c-0.264-0.036-2.468,0.208-3.171,0.208c-0.457,0-1.747-0.143-2.575-0.224
			c-1.112-0.218-2.229-0.447-3.332-0.741c-1.135-0.295-2.247-0.676-3.354-1.051c-0.5-0.172-0.854-0.29-1.125-0.375
			c-0.046-0.041-0.19-0.132-0.65-0.346c-2.917-1.361-5.667-3.052-8.331-4.864c-0.18-0.127-0.632-0.473-1.059-0.803
			c-1.082-0.894-2.133-1.833-3.151-2.803c-0.554-0.519-1.062-1.082-1.582-1.63c-0.277-0.299-0.566-0.574-0.843-0.868
			c-0.467-0.508-0.744-0.787-0.942-0.985c-0.056-0.082-0.081-0.122-0.17-0.244c-1.107-1.508-2.034-3.138-2.892-4.793
			c-0.145-0.452-0.774-2.031-0.947-2.635c-0.056-0.219-0.086-0.3-0.134-0.468C33.925,81.696,33.93,81.696,33.93,81.646z"/>
		<path d="M183.494,346.808c6.183,4.58,13.525,8.125,21.231,10.272c9.407,2.625,19.365,3.133,28.545,0.396
			c0.914-0.27,1.758-0.609,2.621-0.93c20.591-7.688,28.197-29.731,29.563-50.252c0.442-2.233,0.386-4.544-0.487-6.764
			c-6.581-16.731-18.591-28.857-34.013-34.083c-7.408-2.509-15.597-3.453-24.364-2.503c-1.803,0.192-3.519,0.64-5.146,1.238
			c-0.536,0.071-1.046,0.066-1.597,0.183c-0.041,0.011-0.089,0.021-0.129,0.031c-20.733,4.479-40.522,15.954-42.391,38.974
			C155.867,321.372,170.197,336.956,183.494,346.808z M188.506,305.239c-0.01-0.213,0.021-0.427,0.021-0.64
			c0.048-0.208,0.122-0.563,0.203-0.965c0.114-0.229,0.256-0.513,0.406-0.822c0.312-0.336,0.863-0.99,1.346-1.534
			c0.485-0.401,1.13-0.939,1.404-1.112c1.571-1.025,3.268-1.838,4.956-2.641c-2.298,1.082,3.344-1.066,3.93-1.244
			c0.117-0.04,0.241-0.065,0.355-0.102c2.303-0.695,4.659-1.219,7.007-1.727c0.589-0.121,1.072-0.34,1.607-0.513
			c9.402-0.446,17.969,1.971,22.985,9.938c0.523,0.838,1.051,1.671,1.498,2.636c-0.188,2.555-0.543,4.916-0.995,7.15
			c-0.681,3.356-1.65,6.383-3.067,8.916c-0.147,0.26-0.7,1.047-1.076,1.59c-0.468,0.528-0.97,1.021-1.488,1.503
			c-0.467,0.3-1.863,1.361-2.417,1.661c-0.035,0.02-0.035,0.02-0.065,0.04c-0.26,0.062-0.63,0.163-1.148,0.32
			c-0.396,0.116-0.812,0.167-1.213,0.259c-0.265-0.035-2.471,0.208-3.174,0.208c-0.457,0-1.747-0.142-2.575-0.224
			c-1.112-0.218-2.229-0.446-3.332-0.741c-1.135-0.294-2.247-0.675-3.354-1.056c-0.5-0.168-0.854-0.285-1.125-0.371
			c-0.046-0.041-0.193-0.132-0.65-0.346c-2.1-0.979-4.098-2.168-6.058-3.412c-0.759-0.482-1.528-0.944-2.272-1.447
			c-0.18-0.127-0.635-0.473-1.059-0.803c-1.082-0.894-2.133-1.833-3.153-2.803c-0.841-0.802-1.633-1.65-2.422-2.498
			c-0.467-0.508-0.744-0.787-0.942-0.985c-0.056-0.081-0.081-0.122-0.17-0.243c-1.107-1.509-2.034-3.139-2.892-4.794
			c-0.145-0.452-0.774-2.031-0.947-2.636c-0.056-0.218-0.086-0.3-0.134-0.467C188.501,305.29,188.506,305.29,188.506,305.239z"/>
		<path d="M343.823,228.471c4.789,3.544,10.278,6.475,16.082,8.627c10.05,3.742,21.049,4.977,31.28,2.564
			c0.803-0.188,1.625-0.289,2.412-0.522c22.603-6.724,30.758-29.808,32.185-51.176c0.441-2.239,0.386-4.544-0.487-6.769
			c-6.911-17.569-19.825-30.051-36.384-34.799c-6.774-1.945-14.147-2.625-21.993-1.782c-1.803,0.188-3.519,0.64-5.144,1.239
			c-0.538,0.071-1.046,0.066-1.6,0.183c-0.822,0.178-1.635,0.386-2.458,0.584c-19.865,4.819-38.268,16.265-40.06,38.42
			C316.194,203.035,330.529,218.619,343.823,228.471z M348.836,186.902c-0.011-0.214,0.02-0.427,0.02-0.64
			c0.046-0.208,0.117-0.563,0.203-0.97c0.112-0.229,0.254-0.508,0.406-0.818c0.311-0.335,0.863-0.99,1.346-1.538
			c0.482-0.396,1.128-0.935,1.401-1.112c1.574-1.021,3.271-1.833,4.957-2.636c-1.229,0.584-0.173,0.229,1.157-0.244
			c1.147-0.411,2.499-0.914,2.772-1c2.417-0.751,4.896-1.295,7.363-1.823c0.589-0.127,1.071-0.345,1.609-0.513
			c7.485-0.355,14.442,1.117,19.505,5.738c1.96,1.788,3.666,4.007,4.972,6.835c-0.473,6.388-1.701,11.847-4.062,16.067
			c-0.051,0.096-0.203,0.305-0.335,0.508c-0.234,0.345-0.508,0.736-0.742,1.077c-0.467,0.528-0.97,1.021-1.487,1.503
			c-0.467,0.294-1.863,1.355-2.417,1.66c-0.036,0.021-0.036,0.021-0.066,0.041c-0.259,0.061-0.63,0.162-1.152,0.314
			c-0.392,0.122-0.808,0.173-1.209,0.265c-0.264-0.041-2.473,0.208-3.174,0.208c-0.457,0-1.747-0.143-2.574-0.224
			c-1.112-0.218-2.229-0.452-3.331-0.741c-1.133-0.295-2.244-0.676-3.352-1.057c-0.503-0.172-0.854-0.284-1.127-0.37
			c-0.046-0.046-0.193-0.132-0.65-0.346c-2.915-1.361-5.667-3.052-8.328-4.87c-0.183-0.122-0.635-0.472-1.061-0.797
			c-0.219-0.183-0.427-0.386-0.646-0.574c-0.853-0.726-1.696-1.462-2.509-2.229c-0.838-0.803-1.63-1.65-2.422-2.504
			c-0.467-0.502-0.741-0.782-0.939-0.979c-0.056-0.087-0.081-0.122-0.173-0.244c-1.106-1.508-2.031-3.138-2.889-4.793
			c-0.147-0.457-0.777-2.031-0.95-2.641c-0.056-0.218-0.086-0.294-0.132-0.462C348.836,186.953,348.841,186.953,348.836,186.902z"/>
	</g>
</g>
<g>
</g>
<g>
</g>
<g>
</g>
<g>
</g>
<g>
</g>
<g>
</g>
<g>
</g>
<g>
</g>
<g>
</g>
<g>
</g>
<g>
</g>
<g>
</g>
<g>
</g>
<g>
</g>
<g>
</g>
</svg>
