<?xml version="1.0" encoding="iso-8859-1"?>
<!-- Generator: Adobe Illustrator 16.0.0, SVG Export Plug-In . SVG Version: 6.00 Build 0)  -->
<!DOCTYPE svg PUBLIC "-//W3C//DTD SVG 1.1//EN" "http://www.w3.org/Graphics/SVG/1.1/DTD/svg11.dtd">
<svg version="1.1" id="Capa_1" xmlns="http://www.w3.org/2000/svg" xmlns:xlink="http://www.w3.org/1999/xlink" x="0px" y="0px"
	 width="467.276px" height="467.276px" viewBox="0 0 467.276 467.276" style="enable-background:new 0 0 467.276 467.276;"
	 xml:space="preserve">
<g>
	<g>
		<path d="M379.281,51.144C348.254,24.297,309.565,13.46,269.577,8.672C163.068-25.3,68.062,44.959,26.578,142.38
			c-44.714,105.002-23.44,222.217,73.516,287.698c98.985,66.846,235.019,39.369,310.95-48.627
			C494.023,285.274,473.539,132.719,379.281,51.144z M196.847,432.703C140.695,424.71,86.21,390.16,57.756,340.898
			c-25.438-44.047-25.225-99.203-13.822-147.312c17.529-73.96,70.568-140.71,139.888-156.686c0.104,0.005,0.19,0.035,0.295,0.035
			c24.95,0.739,51.292,0.782,77.046,3.567c2.438,0.764,4.88,1.523,7.332,2.42c4.062,1.48,7.612,1.29,10.588,0.071
			c27.781,4.677,54.313,13.579,76.951,31.392c50.079,39.405,76.479,110.461,75.032,172.696
			C428.354,364.389,307.965,448.516,196.847,432.703z"/>
		<path d="M169.276,211.913c23.28,0,23.28-36.104,0-36.104C145.999,175.808,145.999,211.913,169.276,211.913z"/>
		<path d="M293.833,213.715c23.277,0,23.277-36.102,0-36.102C270.551,177.613,270.551,213.715,293.833,213.715z"/>
		<path d="M302.731,274.966c-43.25,42.975-99.046,38.689-142.352-1.808c-16.98-15.879-42.566,9.598-25.529,25.532
			c57.625,53.893,136.062,58.787,193.407,1.802C344.792,284.065,319.254,258.544,302.731,274.966z"/>
	</g>
</g>
<g>
</g>
<g>
</g>
<g>
</g>
<g>
</g>
<g>
</g>
<g>
</g>
<g>
</g>
<g>
</g>
<g>
</g>
<g>
</g>
<g>
</g>
<g>
</g>
<g>
</g>
<g>
</g>
<g>
</g>
</svg>
