<?xml version="1.0" encoding="iso-8859-1"?>
<!-- Generator: Adobe Illustrator 16.0.0, SVG Export Plug-In . SVG Version: 6.00 Build 0)  -->
<!DOCTYPE svg PUBLIC "-//W3C//DTD SVG 1.1//EN" "http://www.w3.org/Graphics/SVG/1.1/DTD/svg11.dtd">
<svg version="1.1" id="Capa_1" xmlns="http://www.w3.org/2000/svg" xmlns:xlink="http://www.w3.org/1999/xlink" x="0px" y="0px"
	 width="478.848px" height="478.848px" viewBox="0 0 478.848 478.848" style="enable-background:new 0 0 478.848 478.848;"
	 xml:space="preserve">
<g>
	<g>
		<path d="M368.447,200.412C352.091,136.526,318.5,72.917,265.766,5.954c-3.255-4.141-7.901-6.177-12.619-5.644
			C251.517,0.104,249.998,0,248.5,0c-4.682,0-9.216,2.168-12.286,5.829c-0.477,0.363-0.944,0.752-1.409,1.211
			c-61.202,60.688-101.76,120.219-123.984,181.995c-1.026,2.849-1.249,5.677-0.655,8.417c0.099,4.578,0.498,8.691,1.216,12.558
			c1.326,7.124,8.485,12.459,16.369,12.2l0.817,0.051c22.572,0,45.54,0.421,67.748,0.833c22.249,0.412,45.26,0.833,67.91,0.833
			c0.005,0,0.005,0,0.011,0c22.541,0,42.431-0.427,60.793-1.295l0.96-0.021c1.899,0,4.266,0.176,6.881,0.363
			c3.438,0.244,7.332,0.531,11.486,0.531c0.005,0,0.005,0,0.01,0c20.362-0.074,24.639-9.476,24.639-17.346
			c0-0.343-0.025-0.684-0.076-1.031C368.995,203.459,368.833,201.91,368.447,200.412z M331.997,190.043
			c-20.799,1.206-42.949,1.777-69.065,1.777c-22.904,0-46.228-0.447-68.784-0.878c-16.196-0.312-32.872-0.63-49.414-0.78
			c19.847-50.708,54.296-100.704,105.051-152.458C288.713,88.953,316.342,140.145,331.997,190.043z"/>
		<path d="M367.467,268.828c-1.33-7.114-8.521-12.426-16.371-12.197l-0.817-0.051c-22.577,0-45.545-0.422-67.761-0.833
			c-22.257-0.406-45.273-0.833-67.928-0.833c-22.536,0-42.417,0.427-60.766,1.3l-0.962,0.021c-1.899,0-4.268-0.183-6.88-0.365
			c-3.435-0.254-7.33-0.528-11.486-0.528c-0.005,0-0.005,0-0.01,0c-20.363,0.071-24.636,9.471-24.636,17.347
			c0,0.34,0.025,0.68,0.073,1.025c-0.063,1.671,0.092,3.22,0.478,4.718c16.359,63.881,49.944,127.492,102.682,194.45
			c3.26,4.144,7.904,6.186,12.619,5.657c1.627,0.203,3.146,0.305,4.618,0.31h0.021c4.674,0,9.209-2.163,12.284-5.829
			c0.477-0.36,0.944-0.757,1.409-1.204c61.21-60.702,101.768-120.236,123.989-182.005c1.031-2.854,1.249-5.687,0.655-8.419
			C368.584,276.811,368.183,272.697,367.467,268.828z M334.104,288.693c-19.85,50.708-54.304,100.701-105.05,152.455
			c-38.925-51.252-66.552-102.447-82.21-152.344c20.789-1.209,42.932-1.777,69.035-1.777c22.909,0,46.235,0.447,68.792,0.873
			C300.869,288.216,317.556,288.53,334.104,288.693z"/>
	</g>
</g>
<g>
</g>
<g>
</g>
<g>
</g>
<g>
</g>
<g>
</g>
<g>
</g>
<g>
</g>
<g>
</g>
<g>
</g>
<g>
</g>
<g>
</g>
<g>
</g>
<g>
</g>
<g>
</g>
<g>
</g>
</svg>
