<?xml version="1.0" encoding="iso-8859-1"?>
<!-- Generator: Adobe Illustrator 16.0.0, SVG Export Plug-In . SVG Version: 6.00 Build 0)  -->
<!DOCTYPE svg PUBLIC "-//W3C//DTD SVG 1.1//EN" "http://www.w3.org/Graphics/SVG/1.1/DTD/svg11.dtd">
<svg version="1.1" id="Capa_1" xmlns="http://www.w3.org/2000/svg" xmlns:xlink="http://www.w3.org/1999/xlink" x="0px" y="0px"
	 width="497.434px" height="497.433px" viewBox="0 0 497.434 497.433" style="enable-background:new 0 0 497.434 497.433;"
	 xml:space="preserve">
<g>
	<g>
		<path d="M350.497,256.427c-0.355-0.188-0.722-0.36-1.103-0.518c1.361-38.577-0.142-73.021-4.58-105.218
			C338.645,106,324.949,41.995,277.379,2.351C275.505,0.79,273.342,0,270.96,0c-26.04,0-73.295,104.7-73.732,105.754
			c-19.038,46.227-29.955,90.758-33.368,136.133c-0.264,3.428-0.446,6.858-0.599,10.295c-0.635,0.183-1.244,0.411-1.838,0.69
			c-51.75,24.42-82.421,80.313-84.172,153.411l-0.742,1.696c-1.412,3.498-1.168,6.951,0.706,9.725
			c2.077,3.087,6.008,5.006,10.248,5.006c4.839,0,9.014-2.442,11.217-6.55c0.975-1.274,1.65-2.747,2.021-4.397
			c13.675-31.271,40.644-56.569,76.007-71.336c0.543,0.097,1.152,0.163,1.828,0.163c4.428-0.006,8.851-0.057,13.273-0.102
			l3.164-0.031v27.681c0,0.898,0.102,1.782,0.305,2.696c-0.386,5.819,2.94,10.562,8.576,12.167c1.559,0.441,3.128,0.822,4.688,1.198
			l0.157,0.04c-2.341,35.983,16.849,61.312,37.15,88.094c4.55,6.002,9.247,12.207,13.975,18.869c1.858,3.788,6.14,6.23,10.974,6.23
			c5.316,0,9.795-3.036,11.699-7.927c3.981-10.252,8.725-19.864,13.32-29.178c11.115-22.501,21.632-43.803,20.367-71.122
			c5.058-0.762,10.304-4.443,10.938-11.309c1.193-12.888,1.513-25.588,1.568-40.416l2.271-0.07c0.294-0.011,0.573-0.051,0.929-0.112
			c40.929,6.235,59.773,41.903,63.759,73.285c0.935,7.317,7.262,11.142,13.041,11.142c5.377,0,9.582-3.113,10.607-7.8
			c0.722-1.392,1.179-2.92,1.351-4.55C427.87,341.027,401.647,283.854,350.497,256.427z M107.16,359.978
			c6.972-27.584,22.317-60.672,55.883-80.812c0.351,13.03,1.361,26.487,3.001,40.086C142.67,329.49,122.912,343.16,107.16,359.978z
			 M272.895,454.022c-1.522,3.036-3.052,6.083-4.56,9.176c-1.006-1.27-2.011-2.539-3.026-3.813
			c-16.849-21.165-34.246-43.031-33.302-70.106c2.905,0.478,5.946,0.919,9.212,1.335c2.742,13.457,8.516,26.096,17.59,38.553
			c1.833,4.818,6.591,8.276,11.481,8.276c2.991,0,5.783-1.244,8.074-3.59c2.691-2.747,5.256-5.646,7.738-8.724
			C282.518,434.847,277.8,444.251,272.895,454.022z M266.39,392.604c4.291,0.097,8.577,0.076,12.883-0.046
			c-2.452,4.458-5.026,8.551-7.784,12.37C269.432,400.977,267.726,396.854,266.39,392.604z M303.652,366.64
			c-27.554,3.793-56.076,2.173-84.442-4.743v-21.643c28.701-0.437,57.828-1.229,85.224-2.051
			C304.394,346.348,304.246,356.382,303.652,366.64z M321.222,314.368c-3.447,0.807-18.123,2.432-80.13,2.432
			c-23.567,0-44.534-0.259-51.049-0.421c-11.583-101.9,15.366-198.674,80.13-287.706c36.892,37.63,47.312,93.196,52.242,137.662
			C327.174,209.21,326.793,256.306,321.222,314.368z M345.312,316.155c1.087-11.294,1.996-22.455,2.712-33.271
			c22.14,14.736,37.069,35.865,44.504,62.977C380.051,331.399,363.948,321.243,345.312,316.155z"/>
		<path d="M299.772,150.379c-7.876-10.405-18.971-16.136-31.229-16.136c-18.331,0-36.511,12.771-46.321,32.527
			c-5.012,10.098-7.749,21.995-8.14,35.363c-0.437,15.231,5.911,31.501,16.559,42.462c8.251,8.495,18.144,12.984,28.61,12.984
			c4.148,0,8.378-0.727,12.553-2.153c12.867-4.402,23.988-15.287,31.305-30.653c9.101-19.093,10.959-42.363,4.743-59.272
			C305.734,159.761,303.018,154.67,299.772,150.379z M284.311,204.807c-2.412,10.986-11.7,21.485-21.607,24.413
			c-8.647,2.549-16.153-1.264-20.86-10.791c-5.408-10.951-3.133-28.406,1.757-39.273c3.133-6.977,14.391-19.791,23.379-19.791
			c1.051,0,2.062,0.183,3.001,0.541C284.346,165.392,287.57,189.934,284.311,204.807z"/>
	</g>
</g>
<g>
</g>
<g>
</g>
<g>
</g>
<g>
</g>
<g>
</g>
<g>
</g>
<g>
</g>
<g>
</g>
<g>
</g>
<g>
</g>
<g>
</g>
<g>
</g>
<g>
</g>
<g>
</g>
<g>
</g>
</svg>
