<?xml version="1.0" encoding="iso-8859-1"?>
<!-- Generator: Adobe Illustrator 16.0.0, SVG Export Plug-In . SVG Version: 6.00 Build 0)  -->
<!DOCTYPE svg PUBLIC "-//W3C//DTD SVG 1.1//EN" "http://www.w3.org/Graphics/SVG/1.1/DTD/svg11.dtd">
<svg version="1.1" id="Capa_1" xmlns="http://www.w3.org/2000/svg" xmlns:xlink="http://www.w3.org/1999/xlink" x="0px" y="0px"
	 width="414.951px" height="414.951px" viewBox="0 0 414.951 414.951" style="enable-background:new 0 0 414.951 414.951;"
	 xml:space="preserve">
<g>
	<g>
		<path d="M409.275,40.212l-0.015-3.093c-0.016-1.727-0.219-3.433-0.609-5.18c-1.387-11.913-10.71-20.913-22.628-21.617
			c-10.115-0.597-63.378-1.158-130.818-1.866C164.814,7.499,41.021,6.194,27.091,4.526c-4.331-0.531-8.097,0.051-11.669,1.559
			C4.992,9.31-1.101,18.711,0.166,29.901C2.74,52.587,4.342,356.907,3.037,383.013c-0.261,5.099,0.973,9.877,3.567,13.894
			c4.004,7.216,11.298,11.766,19.712,12.223c25.766,1.401,348.164,1.483,361.875,1.488h0.005c6.129,0,11.725-2.144,15.985-6.073
			c8.146-5.505,12.177-15,10.323-24.74C412.312,368.008,410.255,234.711,409.275,40.212z M49.737,54.12
			c29.879,0.724,99.939,1.333,190.549,2.062c50.606,0.409,99.025,0.795,121.282,1.148c0.076,9.666,0.173,24.128,0.289,41.469
			c0.899,134.201,1.742,228.112,2.92,263.78l-7.713-0.01c-168.45-0.173-270.928-0.422-305.689-0.736
			C51.524,307.555,50.928,111.085,49.737,54.12z"/>
	</g>
</g>
<g>
</g>
<g>
</g>
<g>
</g>
<g>
</g>
<g>
</g>
<g>
</g>
<g>
</g>
<g>
</g>
<g>
</g>
<g>
</g>
<g>
</g>
<g>
</g>
<g>
</g>
<g>
</g>
<g>
</g>
</svg>
