<?xml version="1.0" encoding="iso-8859-1"?>
<!-- Generator: Adobe Illustrator 16.0.0, SVG Export Plug-In . SVG Version: 6.00 Build 0)  -->
<!DOCTYPE svg PUBLIC "-//W3C//DTD SVG 1.1//EN" "http://www.w3.org/Graphics/SVG/1.1/DTD/svg11.dtd">
<svg version="1.1" id="Capa_1" xmlns="http://www.w3.org/2000/svg" xmlns:xlink="http://www.w3.org/1999/xlink" x="0px" y="0px"
	 width="482.821px" height="482.821px" viewBox="0 0 482.821 482.821" style="enable-background:new 0 0 482.821 482.821;"
	 xml:space="preserve">
<g>
	<g>
		<path d="M475.743,177.824c-2.26-2.892-5.743-4.883-10.527-4.883H315.293c-20.048-50.403-40.497-100.633-56.776-152.418
			c-4.845-15.419-27.051-11.077-27.686,2.453c-23.354,49.835-44.788,100.399-57.262,154.094
			c-53.354-0.338-106.673-2.564-160.03-2.725c-16.214-0.048-17.847,22.422-5.002,27.137c39.093,35.828,80.379,68.967,125.332,97.159
			c-14.82,50.318-30.976,100.194-48.287,149.715c-3.171,9.074,2.958,15.34,10.296,16.747c3.671,2.233,8.34,2.498,13.108-0.909
			c43.445-31.026,88.065-60.352,132.005-90.678c44.427,32.646,87.859,66.618,134.384,96.289
			c10.313,6.581,20.027-2.316,20.632-11.781c0.513-2.062,0.594-4.347-0.025-6.865c-12.284-49.982-26.726-99.224-48.906-145.677
			c47.728-30.504,86.336-72.39,130.864-107.191C486.29,191.765,482.836,182.326,475.743,177.824z M323.474,287.079
			c-2.96,1.747-4.834,4.042-5.84,6.546c-2.498,3.844-3.27,8.841-0.594,14.051c19.397,37.795,32.575,77.855,43.568,118.662
			c-37.394-25.726-73.295-53.532-109.947-80.344c-1.047-0.762-2.082-1.3-3.108-1.727c-3.78-2.641-8.752-3.22-13.857,0.325
			c-35.909,24.923-72.346,49.084-108.286,73.955c13.368-39.694,25.989-79.617,37.714-119.83c1.871-6.423-0.645-11.466-4.799-14.421
			c-0.952-2.671-2.798-5.149-5.857-7.038c-35.632-21.963-68.735-47.162-100.282-74.408c42.756,0.759,85.505,2.224,128.274,2.356
			c1.231,0.005,2.366-0.147,3.438-0.386c6.208,0.898,12.629-1.919,14.299-9.912c9.567-45.907,26.05-89.261,45.009-131.809
			c14.919,42.533,31.966,84.279,48.581,126.201c0.051,0.134,0.127,0.233,0.183,0.363c1.016,6.012,5.459,11.336,13.34,11.336h125.649
			C396.226,231.168,363.346,263.512,323.474,287.079z"/>
		<path d="M250.514,134.473c-2.585-8.206-14.404-5.898-14.736,1.305c-12.434,26.53-23.844,53.443-30.483,82.027
			c-28.396-0.178-56.782-1.368-85.183-1.452c-8.632-0.025-9.501,11.936-2.664,14.447c20.805,19.068,42.785,36.708,66.715,51.719
			c-7.889,26.786-16.488,53.339-25.702,79.693c-1.691,4.835,1.574,8.166,5.484,8.917c1.95,1.188,4.441,1.331,6.98-0.478
			c23.123-16.523,46.877-32.133,70.264-48.271c23.65,17.377,46.771,35.459,71.536,51.252c5.494,3.498,10.658-1.234,10.983-6.271
			c0.274-1.097,0.32-2.315-0.01-3.656c-6.54-26.599-14.229-52.821-26.03-77.541c25.405-16.239,45.956-38.541,69.655-57.066
			c4.448-3.473,2.61-8.496-1.168-10.892c-1.204-1.541-3.052-2.6-5.606-2.6h-79.806C270.064,188.78,259.182,162.042,250.514,134.473z
			"/>
	</g>
</g>
<g>
</g>
<g>
</g>
<g>
</g>
<g>
</g>
<g>
</g>
<g>
</g>
<g>
</g>
<g>
</g>
<g>
</g>
<g>
</g>
<g>
</g>
<g>
</g>
<g>
</g>
<g>
</g>
<g>
</g>
</svg>
