<?xml version="1.0" encoding="iso-8859-1"?>
<!-- Generator: Adobe Illustrator 16.0.0, SVG Export Plug-In . SVG Version: 6.00 Build 0)  -->
<!DOCTYPE svg PUBLIC "-//W3C//DTD SVG 1.1//EN" "http://www.w3.org/Graphics/SVG/1.1/DTD/svg11.dtd">
<svg version="1.1" id="Capa_1" xmlns="http://www.w3.org/2000/svg" xmlns:xlink="http://www.w3.org/1999/xlink" x="0px" y="0px"
	 width="452.362px" height="452.361px" viewBox="0 0 452.362 452.361" style="enable-background:new 0 0 452.362 452.361;"
	 xml:space="preserve">
<g>
	<g>
		<path d="M423.859,8.48c-23.592,3.869-48.53,5.73-78.49,5.865c-1.665,0.01-3.275,0.188-5.022,0.563
			c-11.323,0.914-19.636,8.516-20.326,18.697c-0.655,9.566-1.311,57.708-2.052,117.06c-9.136-5.631-18.545-10.603-26.721-14.903
			c-6.159-3.24-11.476-6.043-15.046-8.277c-26.142-16.384-54.223-32.517-83.467-47.934c-27.398-14.444-56.142-28.441-85.444-41.614
			c-7.554-3.395-14.835-7.68-22.536-12.215C71.996,18.215,58.803,10.451,43.552,6.479C29.351,2.778,17.844,5.221,10.2,13.244
			C0.071,23.882-0.523,41.028,0.226,56.391c1.25,25.408,1.554,51.397,1.846,76.528c0.14,12.067,0.287,24.138,0.525,36.195
			c0.447,22.224,0.686,44.448,0.919,66.669C4.136,293.291,4.771,352.76,9.138,411.38c0.152,1.995,0.551,3.95,1.211,5.956
			c1.864,11.73,10.859,20.109,21.825,20.109c0,0,0,0,0.005,0c2.943,0,5.949-0.6,8.922-1.772
			c56.185-22.216,112.972-55.051,173.613-100.356c25.753-19.24,52.103-40.527,78.321-63.266c4.783-4.149,11.182-8.633,17.95-13.386
			c1.874-1.32,3.772-2.656,5.677-4.012c-1.086,81.801-2.387,158.702-4.012,170.376c-0.508,3.641,0.066,7.176,1.641,10.288
			c2.6,7.587,9.485,12.253,18.189,12.253c0.822,0,1.676-0.04,2.554-0.122c34.297-3.356,63.836-4.372,91.577-3.163l1.183,0.025
			c4.103,0,7.8-0.935,10.994-2.777c6.987-3.22,11.242-9.217,11.704-16.539c1.783-28.254,1.869-390.4,1.869-394.054
			c0-5.461-2.193-10.339-6.195-13.881C441.22,10.41,433.116,6.978,423.859,8.48z M360.714,192.212
			c0.563-60.542,1.102-118.208,1.595-138.664c16.193-0.478,31.569-1.534,46.621-3.215l-0.021,15.092
			c-0.092,75.413-0.351,293.312-1.011,338.907c-16.214-0.117-32.524,0.421-49.973,1.63
			C358.912,378.408,359.729,298.253,360.714,192.212z M299.038,201.218C238.122,257.177,150.74,331.229,55.823,376.18
			c-3.151-57.915-3.634-116.692-4.108-173.688c-0.363-44.745-0.749-90.853-2.412-136.521
			C144.621,106.15,230.424,152.616,299.038,201.218z"/>
	</g>
</g>
<g>
</g>
<g>
</g>
<g>
</g>
<g>
</g>
<g>
</g>
<g>
</g>
<g>
</g>
<g>
</g>
<g>
</g>
<g>
</g>
<g>
</g>
<g>
</g>
<g>
</g>
<g>
</g>
<g>
</g>
</svg>
