<?xml version="1.0" encoding="iso-8859-1"?>
<!-- Generator: Adobe Illustrator 16.0.0, SVG Export Plug-In . SVG Version: 6.00 Build 0)  -->
<!DOCTYPE svg PUBLIC "-//W3C//DTD SVG 1.1//EN" "http://www.w3.org/Graphics/SVG/1.1/DTD/svg11.dtd">
<svg version="1.1" id="Capa_1" xmlns="http://www.w3.org/2000/svg" xmlns:xlink="http://www.w3.org/1999/xlink" x="0px" y="0px"
	 width="452.352px" height="452.353px" viewBox="0 0 452.352 452.353" style="enable-background:new 0 0 452.352 452.353;"
	 xml:space="preserve">
<g>
	<g>
		<path d="M408.808,6.482c-15.255,3.971-28.447,11.74-41.213,19.248c-7.699,4.534-14.971,8.815-22.526,12.21
			c-29.29,13.167-58.041,27.17-85.447,41.614c-29.239,15.417-57.317,31.549-83.461,47.933c-3.578,2.24-8.892,5.038-15.059,8.282
			c-8.17,4.301-17.575,9.267-26.708,14.899c-0.731-59.367-1.386-107.498-2.049-117.065c-0.69-10.181-9.006-17.783-20.325-18.697
			c-1.747-0.376-3.359-0.554-5.024-0.564c-29.955-0.134-54.898-1.995-78.49-5.865c-9.239-1.503-17.352,1.929-22.308,8.574
			C2.188,20.594,0,25.472,0,30.938c0.005,14.922,0.089,365.873,1.866,394.046c0.462,7.317,4.715,13.319,11.7,16.539
			c3.191,1.839,6.886,2.778,10.991,2.778l1.181-0.025c27.764-1.214,57.297-0.193,91.581,3.163c0.884,0.086,1.737,0.122,2.557,0.122
			c8.706,0,15.589-4.667,18.189-12.253c1.582-3.123,2.148-6.657,1.633-10.294c-1.617-11.669-2.917-88.585-4.009-170.371
			c1.904,1.352,3.806,2.687,5.68,4.007c6.774,4.753,13.17,9.242,17.954,13.391c26.212,22.734,52.567,44.026,78.317,63.267
			c60.631,45.301,117.413,78.125,173.611,100.356c2.97,1.173,5.977,1.771,8.927,1.771c10.974,0,19.972-8.378,21.83-20.113
			c0.665-2.017,1.062-3.981,1.209-5.972c4.367-58.61,5.007-118.099,5.626-175.622c0.233-22.203,0.467-44.407,0.914-66.615
			c0.244-12.078,0.386-24.169,0.528-36.265c0.294-25.11,0.599-51.077,1.838-76.464c0.757-15.366,0.162-32.504-9.973-43.147
			C434.523,5.213,422.97,2.78,408.808,6.482z M403.064,65.968c-1.66,45.643-2.046,91.726-2.412,136.438
			c-0.472,57.026-0.965,115.833-4.112,173.774c-94.928-44.961-182.302-119.008-243.202-174.955
			C221.938,152.624,307.746,106.158,403.064,65.968z M94.45,405.962c-15.965-1.107-31.049-1.646-45.854-1.646
			c-1.376,0-2.745,0.005-4.123,0.016c-0.655-45.611-0.919-263.58-1.008-339.024l-0.02-14.972
			c15.054,1.681,30.435,2.737,46.626,3.214c0.49,20.447,1.025,78.051,1.592,138.52C92.64,298.177,93.45,378.389,94.45,405.962z"/>
	</g>
</g>
<g>
</g>
<g>
</g>
<g>
</g>
<g>
</g>
<g>
</g>
<g>
</g>
<g>
</g>
<g>
</g>
<g>
</g>
<g>
</g>
<g>
</g>
<g>
</g>
<g>
</g>
<g>
</g>
<g>
</g>
</svg>
