<?xml version="1.0" encoding="iso-8859-1"?>
<!-- Generator: Adobe Illustrator 16.0.0, SVG Export Plug-In . SVG Version: 6.00 Build 0)  -->
<!DOCTYPE svg PUBLIC "-//W3C//DTD SVG 1.1//EN" "http://www.w3.org/Graphics/SVG/1.1/DTD/svg11.dtd">
<svg version="1.1" id="Capa_1" xmlns="http://www.w3.org/2000/svg" xmlns:xlink="http://www.w3.org/1999/xlink" x="0px" y="0px"
	 width="457.553px" height="457.552px" viewBox="0 0 457.553 457.552" style="enable-background:new 0 0 457.553 457.552;"
	 xml:space="preserve">
<g>
	<g>
		<path d="M456.368,221.367c-0.203-21.688-0.711-43.432-0.26-65.122c0.244-12.012,1.168-24.799,0.452-37.039
			c-4.347-74.263-94.191-59.912-146.018-59.869c0.818,0-13.964-23.864-16.386-26.113c-7.317-6.792-15.98-11.312-25.562-13.873
			c-21.825-5.845-45.628-2.372-67.857-1.542c-31.93,1.191-56.98,9.902-63.708,44.907C117.118,63.34,97.215,64,77.31,64.78
			c-24.019-2.023-50.838,3.547-66.963,22.927c-11.192,13.452-8.716,33.017-9.115,49.548c-0.594,24.521-1.161,49.041-1.224,73.572
			c-0.071,27.729,0.366,55.454,1.295,83.17c0.792,23.633-3.052,48.845,5.482,71.467c16.597,43.985,74.212,37.028,112.213,38.466
			c0,0.168-0.043,0.305-0.043,0.478c0.574,45.656,74.682,52.745,69.893,1.203c32.258,0.457,64.513,0.315,96.774-0.254
			c-0.102,19.378,14.167,34.063,33.047,35.516c22.877,1.767,36.049-13.386,40.386-34.789c0.198-0.99,0.289-1.976,0.31-2.956
			c0.01-0.411,44.641-2,50.054-2.803c15.351-2.279,27.761-8.668,37.368-21.084c14.33-18.539,10.223-44.396,10.223-66.282
			C456.997,282.429,456.652,251.901,456.368,221.367z M49.975,373.421c-0.967-0.583-1.983-1.111-3.085-1.503
			c-1.335-0.467-2.079-0.746-4.491-2.097c-1-0.554-1.93-1.214-2.867-1.869c0.442,0.224-1.901-1.711-1.935-1.736
			c-2.463-2.321-4.159-4.682-5.974-7.892c-0.005-0.162,0.025-0.299,0.015-0.467c-5.474-83.563-5.558-167.175-2.135-250.814
			c8.813-9.417,19.489-14.493,31.651-15.739c5.631,93.97,11.085,187.946,13.165,282.077c0.01,0.482,0.114,0.903,0.168,1.366
			C66.315,374.305,58.148,373.924,49.975,373.421z M124.794,376.961c-7.835-0.279-15.676-0.533-23.514-0.874
			c0.134-0.863,0.229-1.752,0.208-2.711c-2.08-94.044-7.523-187.934-13.149-281.818c8.297-0.312,16.598-0.546,24.897-0.833
			C114.354,186.296,127.389,281.307,124.794,376.961z M175.634,46.746c17.227-1.579,34.541-2.275,51.846-1.927
			c10.301,0.208,21.589-1.894,31.729,0.399c5.814,1.315,19.84,14.497,22.049,14.472c-38.598,0.473-77.183,1.15-115.76,2.204
			C167.631,56.152,170.892,51.135,175.634,46.746z M161.541,412.471c-0.18,0.482-0.482,1.29-0.67,1.61
			c-0.021,0.03-0.021,0.035-0.036,0.065c-0.134,0.117-0.312,0.265-0.582,0.544c-0.038,0.03-0.038,0.04-0.073,0.076
			c-0.173,0.076-0.432,0.213-0.808,0.441c-0.175,0.102-0.238,0.152-0.363,0.229c-0.208,0.046-0.482,0.127-0.903,0.259
			c-0.62,0.198-1.27,0.284-1.91,0.406c-0.134-0.005-0.249-0.041-0.383-0.046c-0.163-0.005-2.023-0.152-2.569-0.147
			c-0.889-0.183-1.78-0.386-2.653-0.64c-0.086-0.025-0.109-0.025-0.186-0.051c-0.152-0.102-0.337-0.218-0.673-0.4
			c-0.238-0.158-0.383-0.249-0.528-0.341c-0.297-0.279-0.609-0.548-0.891-0.843c-0.051-0.051-0.061-0.061-0.104-0.102
			c-0.081-0.152-0.16-0.3-0.337-0.579c-0.218-0.365-0.399-0.756-0.597-1.137c-0.063-0.184-0.152-0.447-0.282-0.803
			c-0.302-0.93-0.478-1.895-0.666-2.854c0.167,0.457-0.094-2.144-0.188-3.286c5.185,0.152,10.37,0.152,15.549,0.27
			c0.219,1.99,0.274,3.966,0.181,5.956C161.812,411.141,161.672,411.836,161.541,412.471z M151.948,377.825
			c2.709-96.253-10.524-191.846-11.575-288.003c51.046-1.579,102.105-2.635,153.175-3.171c0.005,0.505-0.041,0.978,0.015,1.518
			c10.68,96.182,10.146,192.965,15.168,289.503C256.474,379.063,204.206,379.215,151.948,377.825z M329.967,410.232
			c-0.335,1.006-1.112,2.417-2.092,3.885h-10.38c-0.573-0.365-1.716-1.102-1.919-1.152c-0.254-0.233-0.498-0.478-0.747-0.722
			c0.468,0.381-1.173-1.579-1.355-1.898c-0.716-1.422-0.767-1.534-0.152-0.351c-0.046-0.106-0.482-2.28-0.614-2.55
			c-0.071-0.898-0.107-1.792-0.076-2.696c6.362-0.173,12.715-0.457,19.072-0.66C331.201,406.155,330.652,408.211,329.967,410.232z
			 M335.862,376.905c-4.981-96.278-4.489-192.811-15.132-288.736c-0.071-0.62-0.239-1.17-0.371-1.742
			c7.947-0.053,15.894-0.084,23.841-0.119c3.225,96.794,1.452,193.689,17.275,289.546
			C352.935,376.219,344.398,376.595,335.862,376.905z M426.042,354.587c-5.007,12.304-15.584,20.322-37.247,19.459
			c-8.023-0.325-13.015-124.608-13.532-136.912c-2.082-50.206-2.245-100.455-3.905-150.677c-0.076-2.338,37.312,5.675,41.132,8.196
			c13.132,8.668,15.533,24.517,16.752,39.103c4.362,52.139,0.188,106.79,0.188,159.164
			C429.435,313.75,432.78,338.043,426.042,354.587z"/>
	</g>
</g>
<g>
</g>
<g>
</g>
<g>
</g>
<g>
</g>
<g>
</g>
<g>
</g>
<g>
</g>
<g>
</g>
<g>
</g>
<g>
</g>
<g>
</g>
<g>
</g>
<g>
</g>
<g>
</g>
<g>
</g>
</svg>
