<?xml version="1.0" encoding="iso-8859-1"?>
<!-- Generator: Adobe Illustrator 16.0.0, SVG Export Plug-In . SVG Version: 6.00 Build 0)  -->
<!DOCTYPE svg PUBLIC "-//W3C//DTD SVG 1.1//EN" "http://www.w3.org/Graphics/SVG/1.1/DTD/svg11.dtd">
<svg version="1.1" id="Capa_1" xmlns="http://www.w3.org/2000/svg" xmlns:xlink="http://www.w3.org/1999/xlink" x="0px" y="0px"
	 width="481.378px" height="481.378px" viewBox="0 0 481.378 481.378" style="enable-background:new 0 0 481.378 481.378;"
	 xml:space="preserve">
<g>
	<g>
		<path d="M385.464,228.53c-16.072-92.163-108.923-135.712-194.218-112.427c-6.865,1.871-10.049,7.051-10.379,12.51
			c-52.537,28.812-82.4,88.857-72.224,150.523c12.812,77.633,96.807,115.601,167.406,98.559
			C340.722,362.075,397.484,297.479,385.464,228.53z M274.088,347.685c-57.091,19.068-118.712-11.725-135.638-69.857
			c-17.661-60.629,29.331-121.712,87.047-134.861c2.905-0.66,5.093-1.97,6.759-3.603c57.163-2.382,109.309,29.554,123.786,90.756
			C368.935,284.606,321.522,331.842,274.088,347.685z"/>
		<path d="M255.381,58.286V14.211c0-18.949-29.381-18.949-29.381,0v44.074C226,77.234,255.381,77.234,255.381,58.286z"/>
		<path d="M384.763,109.807c9.425-11.004,18.773-22.068,27.274-33.824c4.696-6.505,1.132-16.349-5.276-20.099
			c-7.414-4.342-15.417-1.206-20.094,5.273c-7.022,9.717-14.884,18.781-22.679,27.876c-5.204,6.073-5.986,14.787,0,20.773
			C369.321,115.142,379.548,115.896,384.763,109.807z"/>
		<path d="M461.049,236.043h-35.261c-18.946,0-18.946,29.379,0,29.379h35.261C479.996,265.427,479.996,236.043,461.049,236.043z"/>
		<path d="M399.454,378.442c-13.324-13.503-34.094,7.281-20.773,20.773c11.74,11.903,22.059,25.015,32.316,38.196
			c4.925,6.333,15.64,5.134,20.773,0c6.18-6.18,4.91-14.462,0-20.773C421.518,403.451,411.2,390.345,399.454,378.442z"/>
		<path d="M227.468,424.088c-0.005,14.219-0.025,28.437-1.467,42.599c-0.818,7.983,7.302,14.691,14.69,14.691
			c8.622,0,13.878-6.729,14.69-14.691c1.442-14.162,1.463-28.38,1.468-42.599C256.849,405.137,227.473,405.137,227.468,424.088z"/>
		<path d="M115.717,387.257c-8.582,10.004-17.159,20.013-26.441,29.377c-13.345,13.467,7.424,34.245,20.774,20.773
			c9.283-9.363,17.864-19.372,26.441-29.376c5.205-6.073,5.982-14.797,0-20.774C131.154,381.921,120.932,381.174,115.717,387.257z"
			/>
		<path d="M67.339,238.98H20.332c-18.951,0-18.951,29.381,0,29.381h47.012C86.285,268.366,86.285,238.98,67.339,238.98z"/>
		<path d="M98.122,141.488c16.844,8.574,31.717-16.775,14.828-25.369c-13.131-6.688-25.512-14.519-36.688-24.148
			c-14.279-12.297-35.155,8.394-20.774,20.773C68.568,124.018,82.73,133.653,98.122,141.488z"/>
	</g>
</g>
<g>
</g>
<g>
</g>
<g>
</g>
<g>
</g>
<g>
</g>
<g>
</g>
<g>
</g>
<g>
</g>
<g>
</g>
<g>
</g>
<g>
</g>
<g>
</g>
<g>
</g>
<g>
</g>
<g>
</g>
</svg>
