<?xml version="1.0" encoding="iso-8859-1"?>
<!-- Generator: Adobe Illustrator 16.0.0, SVG Export Plug-In . SVG Version: 6.00 Build 0)  -->
<!DOCTYPE svg PUBLIC "-//W3C//DTD SVG 1.1//EN" "http://www.w3.org/Graphics/SVG/1.1/DTD/svg11.dtd">
<svg version="1.1" id="Capa_1" xmlns="http://www.w3.org/2000/svg" xmlns:xlink="http://www.w3.org/1999/xlink" x="0px" y="0px"
	 width="466.196px" height="466.197px" viewBox="0 0 466.196 466.197" style="enable-background:new 0 0 466.196 466.197;"
	 xml:space="preserve">
<g>
	<g>
		<path d="M124.215,311.507c7.208,13.959,16.438,26.761,27.498,38.501c0.353,0.371,0.729,0.63,1.092,0.945
			c0.779,1.467,1.929,2.879,3.567,4.163c43.927,34.429,86.521,70.503,129.984,105.505c0.502,0.406,1.025,0.691,1.549,1.016
			c4.859,5.251,12.812,6.982,18.336-0.34c46.941-62.175,86.458-128.976,124.497-196.843c1.184-2.112,1.696-4.169,1.767-6.124
			c1.666-5.357,0.133-11.268-6.702-14.162c-52.618-22.247-103.423-48.31-154.843-73.128c-1.833-0.884-3.615-1.3-5.332-1.409
			c-1-0.338-2.066-0.594-3.215-0.719c-22.855-2.485-45.209-2.204-67.948,1.274c-0.124,0.021-0.223,0.069-0.348,0.089
			c-3.021,0.094-6.109,1.211-8.861,3.87c-5.423,5.235-10.54,10.709-15.511,16.3c-13.949-11.74-18.905-27.81-16.534-45.39
			c2.475-18.375,9.884-33.179,18.235-49.408c8.485-16.504,12.652-38.542,7.83-56.612c-3.743-14.028-11.481-30.163-25.857-35.726
			c-8.399-3.25-20.068-4.062-28.939-2.633C83.871,7.235,50.945,50.154,41.211,87.505c-0.229,0.873-0.322,1.701-0.396,2.516
			c-0.17,0.412-0.383,0.77-0.53,1.206C21.15,149.954,42.1,232.669,79.644,280.044C91.221,294.679,106.719,306.542,124.215,311.507z
			 M201.495,196.359c0.099-0.018,0.183,0,0.282-0.018c19.246-2.938,38.72-2.511,58.026-0.566
			c46.788,22.615,93.119,46.164,140.767,66.928c-32.778,58.153-66.796,115.601-106.333,169.442
			c-39.715-32.235-78.889-65.141-119.155-96.695c-0.704-0.548-1.422-0.97-2.143-1.365c-0.614-1.29-1.394-2.56-2.516-3.753
			c-5.357-5.683-10.12-11.669-14.337-17.956c12.278-2.777,24.069-8.181,34.647-15.238c5.418,2.772,11.461,4.361,17.699,4.361
			c7.041,0,13.967-1.93,20.025-5.57c8.901-5.357,15.188-13.857,17.696-23.938c2.509-10.085,0.939-20.541-4.412-29.442
			c-6.998-11.626-19.779-18.85-33.36-18.85c-7.041,0-13.967,1.93-20.025,5.568c-8.902,5.354-15.188,13.855-17.694,23.94
			c-1.96,7.891-1.394,16,1.503,23.424c-0.35,0.224-0.667,0.442-1.025,0.676c-8.491,5.469-18.293,9.095-28.338,9.435
			c-0.688-1.797-1.369-3.6-1.988-5.438C157.245,250.166,176.567,221.307,201.495,196.359z M219.321,248.149
			c1.81,1.371,3.375,3.093,4.596,5.119c2.491,4.144,3.224,9.008,2.054,13.7c-1.163,4.692-4.091,8.647-8.231,11.142
			c-2.517,1.513-5.35,2.351-8.247,2.523C216.244,271.199,217.985,260.235,219.321,248.149z M66.616,97.795
			c0.337-1.041,0.551-2.039,0.655-2.991c0.079-0.254,0.203-0.467,0.272-0.734c7.165-27.475,26.415-50.368,51.612-63.203
			c7.084-3.603,16.021-6.941,23.343-2.267c10.91,6.967,12.324,23.582,11.289,35.282c-0.442,4.997-3.121,9.407-5.017,13.944
			c-2.118,5.065-4.088,10.187-6.246,15.241c-4.258,10.001-8.663,19.969-11.694,30.425c-5.383,18.585-7.348,40.481,0.343,58.717
			c4.504,10.669,12.824,21.444,21.597,28.995c-13.812,18.364-25.844,38.052-36.577,58.547c-1.731,1.6-3.021,3.646-3.613,6.037
			c-10.682-8.876-18.813-21.713-25.115-33.088C65.291,202.656,52.083,142.411,66.616,97.795z"/>
	</g>
</g>
<g>
</g>
<g>
</g>
<g>
</g>
<g>
</g>
<g>
</g>
<g>
</g>
<g>
</g>
<g>
</g>
<g>
</g>
<g>
</g>
<g>
</g>
<g>
</g>
<g>
</g>
<g>
</g>
<g>
</g>
</svg>
