<?xml version="1.0" encoding="iso-8859-1"?>
<!-- Generator: Adobe Illustrator 16.0.0, SVG Export Plug-In . SVG Version: 6.00 Build 0)  -->
<!DOCTYPE svg PUBLIC "-//W3C//DTD SVG 1.1//EN" "http://www.w3.org/Graphics/SVG/1.1/DTD/svg11.dtd">
<svg version="1.1" id="Capa_1" xmlns="http://www.w3.org/2000/svg" xmlns:xlink="http://www.w3.org/1999/xlink" x="0px" y="0px"
	 width="490.797px" height="490.797px" viewBox="0 0 490.797 490.797" style="enable-background:new 0 0 490.797 490.797;"
	 xml:space="preserve">
<g>
	<g>
		<path d="M56.879,450.427c9.517,1.554,20.216,3.072,32.626,4.621c0.508,1.838,1.041,3.661,1.569,5.484
			c1.153,3.966,2.351,8.059,3.22,12.115c1.412,6.607,7.978,11.583,15.279,11.583c1.356,0,2.691-0.178,3.961-0.522
			c8.079-2.225,12.781-10.42,10.938-19.062c-0.432-2.026-0.939-4.022-1.453-5.911c46.662,4.397,99.148,6.622,156.087,6.622
			c29.071,0,58.971-0.59,88.91-1.752c-0.396,2.392-1.025,4.656-1.985,7.17c-1.314,3.468-1.03,7.378,0.817,11.014
			c2.093,4.123,5.84,7.271,10.009,8.42c1.402,0.386,2.813,0.589,4.199,0.589l0,0c6.571,0,12.289-4.316,14.925-11.253
			c1.909-5.018,3.011-10.45,3.514-17.387c15.991-0.838,31.347-1.788,45.682-2.839c9.485-0.69,14.619-8.439,14.904-15.899
			c32.245-93.363,31.478-201.943-2.225-314.032c-2.026-6.743-7.643-10.933-14.665-10.933c-0.828,0-1.66,0.061-2.488,0.175
			c-1.514-0.437-2.925-0.645-4.383-0.645c-32.772-0.084-68.237-0.734-105.784-1.424c-39.166-0.719-79.587-1.462-119.602-1.597
			c26.334-17.189,52.131-35.561,76.779-54.692c4.946-3.836,6.713-9.161,4.845-14.609c-2.229-6.51-9.283-11.42-16.402-11.42
			c-3.595,0-7.063,1.216-10.034,3.521c-35.688,27.677-74.326,53.771-114.869,77.538l-4.108,0.063
			c-7.003-37.315-16.595-71.648-29.29-104.901C115.388,4.009,109.502,0,102.49,0c-5.535,0-10.705,2.501-13.472,6.535
			c-2.478,3.596-2.869,8.107-1.112,12.7c11.811,30.922,20.886,62.657,27.695,96.918c-26.096,0.868-48.982,2.178-69.873,3.994
			c-5.967,0.516-10.75,3.895-13.213,9.303c-1.742,1.785-3.011,3.94-3.773,6.421c-32.575,106.863-28.335,212.94,12.258,306.75
			C43.87,449.259,50.192,452.296,56.879,450.427z M57.032,150.517c37.923-2.93,84.092-4.354,141.051-4.354
			c44.26,0,89.327,0.822,132.916,1.617c35.476,0.645,69.025,1.259,100.006,1.394c28.386,101.054,28.701,195.174,0.925,279.825
			c-50.582,3.478-104.114,5.321-154.935,5.321c-82.177,0-155.305-4.834-211.614-13.995
			C32.226,338.899,29.342,245.688,57.032,150.517z"/>
		<path d="M99.306,407.589c43.6,7.114,89.738,10.572,140.995,10.572c0,0,0,0,0.005,0c32.662,0,67.853-1.411,107.577-4.326
			c8.506-0.625,13.208-7.363,13.686-14.005c23.008-66.994,22.424-144.794-1.701-225.025c-2.037-6.762-8.171-10.766-15.168-10.096
			c-1.123-0.269-2.229-0.403-3.352-0.403c-24.359-0.063-49.155-0.584-73.128-1.087c-25.634-0.541-52.136-1.092-78.216-1.092
			c-38.156,0-69.639,1.191-99.061,3.743c-5.215,0.452-9.592,3.433-11.908,8.039c-1.417,1.571-2.452,3.417-3.092,5.507
			c-23.41,76.8-20.353,153.061,8.851,220.547C87.373,405.913,93.223,408.95,99.306,407.589z M101.85,193.971
			c26.472-1.983,54.761-2.913,88.626-2.913c25.908,0,52.278,0.546,77.784,1.082c21.876,0.452,44.448,0.924,66.75,1.049
			c19.104,69.464,19.342,134.208,0.717,192.554c-35.871,2.438-67.599,3.621-96.888,3.621c-47.931,0-90.896-3.144-131.235-9.613
			C85.23,323.579,83.24,259.495,101.85,193.971z"/>
		<path d="M411.912,232.147c4.672,0,8.617-1.722,11.415-4.972c2.433-2.828,3.773-6.608,3.773-10.638
			c0-7.759-5.216-15.61-15.188-15.61c-4.672,0-8.617,1.722-11.415,4.972c-2.433,2.828-3.773,6.609-3.773,10.638
			C396.723,224.294,401.938,232.147,411.912,232.147z"/>
		<path d="M413.537,249.715c-4.667,0-8.612,1.727-11.41,4.977c-2.433,2.823-3.778,6.606-3.778,10.633
			c0,7.759,5.215,15.61,15.184,15.61c4.672,0,8.617-1.717,11.41-4.967c2.432-2.834,3.777-6.611,3.777-10.644
			C428.725,257.575,423.504,249.715,413.537,249.715z"/>
	</g>
</g>
<g>
</g>
<g>
</g>
<g>
</g>
<g>
</g>
<g>
</g>
<g>
</g>
<g>
</g>
<g>
</g>
<g>
</g>
<g>
</g>
<g>
</g>
<g>
</g>
<g>
</g>
<g>
</g>
<g>
</g>
</svg>
