<?xml version="1.0" encoding="iso-8859-1"?>
<!-- Generator: Adobe Illustrator 16.0.0, SVG Export Plug-In . SVG Version: 6.00 Build 0)  -->
<!DOCTYPE svg PUBLIC "-//W3C//DTD SVG 1.1//EN" "http://www.w3.org/Graphics/SVG/1.1/DTD/svg11.dtd">
<svg version="1.1" id="Capa_1" xmlns="http://www.w3.org/2000/svg" xmlns:xlink="http://www.w3.org/1999/xlink" x="0px" y="0px"
	 width="492.016px" height="492.016px" viewBox="0 0 492.016 492.016" style="enable-background:new 0 0 492.016 492.016;"
	 xml:space="preserve">
<g>
	<g>
		<path d="M477.462,82.391c-0.29-5.324-3.829-10.598-10.659-10.915c-151.607-7.041-303.394-14.99-455.162-8.326
			c-6.769,0.297-10.3,5.461-10.648,10.732c-0.267,0.967-0.452,1.993-0.452,3.148v20.815c0,0.523,0.089,0.988,0.145,1.47
			c-0.051,0.432-0.14,0.838-0.145,1.305c-1.354,105.168-1.14,210.538,12.489,315.008c0.083,0.645,0.254,1.233,0.421,1.822
			c-0.213,5.703,3.338,11.74,10.681,12.056c151.253,6.505,302.503-6.484,453.775-1.387c1.29,0.041,2.418-0.152,3.474-0.441
			c5.235-0.376,10.263-3.905,10.399-10.659c2.225-110.791-12.06-220.971-13.878-331.66
			C477.889,84.272,477.711,83.305,477.462,82.391z M469.703,405.685c-145.145-4.271-290.263,7.394-435.384,1.971
			C21.693,305.792,21.429,203.11,22.744,100.611c0.005-0.525-0.079-0.993-0.129-1.48c0.041-0.432,0.129-0.833,0.129-1.29V84.927
			c144.425-5.672,288.86,1.508,433.137,8.242C458.13,197.453,470.774,301.318,469.703,405.685z"/>
		<path d="M444.501,114.161c-0.249-4.293-3.28-8.543-9.141-8.797c-130.017-5.672-260.183-12.078-390.336-6.708
			c-5.802,0.238-8.833,4.4-9.13,8.647c-0.229,0.78-0.389,1.607-0.389,2.531v16.775c0,0.421,0.076,0.795,0.125,1.186
			c-0.043,0.348-0.119,0.676-0.125,1.051c-1.155,84.741-0.979,169.658,10.71,253.835c0.073,0.523,0.218,0.995,0.365,1.468
			c-0.183,4.596,2.859,9.46,9.156,9.714c129.712,5.24,259.418-5.226,389.146-1.117c1.106,0.035,2.076-0.122,2.98-0.355
			c4.489-0.3,8.805-3.144,8.917-8.592c1.909-89.276-10.339-178.057-11.903-267.251C444.861,115.679,444.709,114.895,444.501,114.161
			z M64.467,376.263c-10.826-82.08-11.055-164.828-9.927-247.417c0.005-0.426-0.066-0.802-0.109-1.196
			c0.038-0.348,0.109-0.673,0.109-1.041v-10.405c123.857-4.57,247.722,1.211,371.446,6.639
			c1.93,84.036,12.771,167.733,11.857,251.835C313.377,371.231,188.921,380.63,64.467,376.263z"/>
		<path d="M136.953,163.103c10.062,0,10.062-15.6,0-15.6S126.891,163.103,136.953,163.103z"/>
		<path d="M138.685,176.102c-10.062,0-10.062,15.6,0,15.6S148.747,176.102,138.685,176.102z"/>
		<path d="M181.35,139.236c-9.724,20.909-20.992,40.954-32.931,60.667c-5.225,8.625,8.267,16.463,13.467,7.871
			c11.938-19.713,23.207-39.758,32.931-60.667C199.034,138.045,185.587,130.122,181.35,139.236z"/>
		<path d="M108.879,185.916c-10.092,1.366-18.755-1.181-19.593-12.413c-0.01-0.162-0.059-0.302-0.079-0.457
			c0.021-0.142,0.063-0.271,0.079-0.411c1.419-10.951,8.945-13.957,19.067-13c10.014,0.947,9.928-14.662,0-15.6
			c-7.954-0.749-16.483,0.338-23.003,5.31c-7.051,5.372-10.021,12.969-11.362,21.365c-0.163,0.541-0.251,1.13-0.277,1.762
			c-0.005,0.058-0.021,0.112-0.025,0.167c-0.025,0.198,0.01,0.381,0.005,0.571c0.005,0.104-0.015,0.188-0.005,0.297
			c0.005,0.041,0.01,0.079,0.01,0.114c0.015,0.297,0.036,0.582,0.099,0.869c0.868,9.245,4.148,16.884,11.824,22.546
			c7.701,5.685,18.492,5.134,27.403,3.928c4.222-0.574,6.459-5.918,5.449-9.595C117.235,186.855,113.092,185.342,108.879,185.916z"
			/>
	</g>
</g>
<g>
</g>
<g>
</g>
<g>
</g>
<g>
</g>
<g>
</g>
<g>
</g>
<g>
</g>
<g>
</g>
<g>
</g>
<g>
</g>
<g>
</g>
<g>
</g>
<g>
</g>
<g>
</g>
<g>
</g>
</svg>
