<?xml version="1.0" encoding="iso-8859-1"?>
<!-- Generator: Adobe Illustrator 16.0.0, SVG Export Plug-In . SVG Version: 6.00 Build 0)  -->
<!DOCTYPE svg PUBLIC "-//W3C//DTD SVG 1.1//EN" "http://www.w3.org/Graphics/SVG/1.1/DTD/svg11.dtd">
<svg version="1.1" id="Capa_1" xmlns="http://www.w3.org/2000/svg" xmlns:xlink="http://www.w3.org/1999/xlink" x="0px" y="0px"
	 width="439.164px" height="439.165px" viewBox="0 0 439.164 439.165" style="enable-background:new 0 0 439.164 439.165;"
	 xml:space="preserve">
<g>
	<g>
		<path d="M182.466,29.83c0.213-4.174-0.726-7.751-2.79-10.633c-3.199-6.282-8.623-9.76-15.485-10.138
			C117.546,6.519,70.951,6.306,23.348,6.295c-5.264,0-9.704,1.856-12.845,5.368l-0.655,0.531
			c-7.503,4.253-11.05,11.745-9.473,20.027c6.832,35.975,10.123,73.902,10.361,119.363c0.01,1.65,0.256,3.298,0.774,5.185
			l0.089,0.525c0.546,8.465,6.147,17.311,17.42,17.976c49.478,2.917,94.039,5.756,138.377,11.07
			c3.479,0.417,6.485-0.066,9.153-1.419l0.541-0.203c3.727-0.93,12.256-4.372,10.907-16.234
			C182.182,117.115,180.366,71.769,182.466,29.83z M146.603,147.852c-34.827-3.608-68.829-5.88-97.497-7.622l-2.392-0.147
			l-0.051-2.392c-0.688-32.479-3.156-62.606-7.556-92.1l-0.442-2.991l3.021,0.005c41.053,0.083,72.366,0.64,101.537,1.82l2.56,0.104
			l-0.063,2.559c-0.744,31.052,0.48,63.089,3.74,97.939l0.294,3.15L146.603,147.852z"/>
		<path d="M182.466,276.21c0.213-4.174-0.726-7.754-2.79-10.634c-3.199-6.286-8.623-9.77-15.485-10.135
			c-46.68-2.539-93.26-2.753-140.848-2.763c-5.263,0-9.704,1.854-12.845,5.362l-0.655,0.528c-7.503,4.26-11.05,11.75-9.476,20.042
			c6.835,35.968,10.125,73.896,10.364,119.358c0.01,1.646,0.254,3.29,0.774,5.18l0.089,0.522c0.546,8.476,6.146,17.316,17.42,17.977
			c49.477,2.92,94.039,5.764,138.377,11.075c3.484,0.416,6.49-0.071,9.153-1.422l0.541-0.198c3.727-0.93,12.255-4.372,10.907-16.234
			C182.182,363.491,180.366,318.144,182.466,276.21z M146.603,394.233c-34.776-3.605-68.799-5.881-97.497-7.627l-2.392-0.152
			l-0.051-2.387c-0.688-32.479-3.156-62.602-7.556-92.095l-0.442-2.99l3.021,0.005c41.058,0.081,72.376,0.64,101.537,1.817
			l2.56,0.112l-0.063,2.549c-0.744,31.062,0.48,63.099,3.74,97.944l0.294,3.153L146.603,394.233z"/>
		<path d="M433.483,29.83c0.208-4.174-0.731-7.751-2.793-10.633c-3.199-6.282-8.623-9.76-15.488-10.138
			c-46.641-2.539-93.236-2.752-140.843-2.763c-5.261,0-9.704,1.856-12.842,5.368l-0.655,0.531
			c-7.506,4.253-11.045,11.745-9.471,20.027c6.83,35.975,10.126,73.902,10.364,119.363c0.011,1.65,0.254,3.298,0.771,5.185
			l0.092,0.525c0.543,8.465,6.145,17.311,17.417,17.976c49.48,2.917,94.039,5.756,138.381,11.07
			c3.483,0.411,6.484-0.066,9.155-1.419l0.543-0.203c3.728-0.93,12.248-4.372,10.907-16.234
			C433.193,117.1,431.381,71.75,433.483,29.83z M397.612,147.852c-34.83-3.608-68.832-5.88-97.497-7.622l-2.392-0.147l-0.051-2.392
			c-0.686-32.479-3.159-62.606-7.557-92.1l-0.441-2.991l3.021,0.005c41.05,0.083,72.366,0.64,101.534,1.82l2.559,0.104l-0.061,2.559
			c-0.746,31.052,0.478,63.089,3.737,97.939l0.295,3.15L397.612,147.852z"/>
		<path d="M433.483,276.21c0.208-4.174-0.731-7.754-2.793-10.634c-3.199-6.286-8.623-9.77-15.488-10.135
			c-46.677-2.539-93.257-2.753-140.848-2.763c-5.261,0-9.704,1.854-12.842,5.362l-0.655,0.528
			c-7.506,4.26-11.045,11.75-9.471,20.037c6.83,35.973,10.126,73.905,10.364,119.363c0.01,1.646,0.254,3.29,0.771,5.18l0.092,0.522
			c0.543,8.476,6.145,17.316,17.417,17.977c49.48,2.92,94.039,5.764,138.38,11.075c3.489,0.416,6.49-0.071,9.156-1.422l0.543-0.198
			c3.728-0.93,12.248-4.372,10.907-16.234C433.193,363.481,431.381,318.124,433.483,276.21z M397.612,394.233
			c-34.779-3.605-68.802-5.881-97.497-7.627l-2.392-0.152l-0.051-2.387c-0.686-32.479-3.159-62.602-7.557-92.095l-0.441-2.99
			l3.021,0.005c41.061,0.081,72.376,0.64,101.534,1.817l2.559,0.112l-0.061,2.549c-0.746,31.062,0.478,63.099,3.737,97.944
			l0.295,3.153L397.612,394.233z"/>
	</g>
</g>
<g>
</g>
<g>
</g>
<g>
</g>
<g>
</g>
<g>
</g>
<g>
</g>
<g>
</g>
<g>
</g>
<g>
</g>
<g>
</g>
<g>
</g>
<g>
</g>
<g>
</g>
<g>
</g>
<g>
</g>
</svg>
