<?xml version="1.0" encoding="iso-8859-1"?>
<!-- Generator: Adobe Illustrator 16.0.0, SVG Export Plug-In . SVG Version: 6.00 Build 0)  -->
<!DOCTYPE svg PUBLIC "-//W3C//DTD SVG 1.1//EN" "http://www.w3.org/Graphics/SVG/1.1/DTD/svg11.dtd">
<svg version="1.1" id="Capa_1" xmlns="http://www.w3.org/2000/svg" xmlns:xlink="http://www.w3.org/1999/xlink" x="0px" y="0px"
	 width="449.604px" height="449.604px" viewBox="0 0 449.604 449.604" style="enable-background:new 0 0 449.604 449.604;"
	 xml:space="preserve">
<g>
	<g>
		<path d="M127.361,33.2c0.203-3.969-0.754-7.622-2.77-10.603c-3.006-5.682-8.478-9.14-15.064-9.499
			c-29.193-1.587-58.359-1.722-88.154-1.727c-4.966,0-9.272,1.722-12.497,4.987c-6.738,4.179-9.998,11.486-8.521,19.263
			c4.174,22,6.192,45.245,6.337,73.158c0.005,1.485,0.198,2.928,0.594,4.492c0.853,9.516,7.866,16.483,17.222,17.037
			c30.714,1.812,58.379,3.575,85.838,6.868c0.785,0.094,1.539,0.134,2.262,0.134c2.417,0,4.7-0.487,6.797-1.45
			c7.876-2.217,12.325-8.97,11.373-17.359C127.191,86.861,126.072,58.966,127.361,33.2z M92.633,99.003
			c-17.727-1.719-34.909-2.91-50.028-3.852c-0.5-16.557-1.752-32.187-3.811-47.492c14.965,0.059,33.2,0.247,51.935,0.917
			C90.526,64.701,91.15,81.299,92.633,99.003z"/>
		<path d="M127.361,186.768c0.203-3.968-0.754-7.625-2.77-10.603c-3.006-5.685-8.473-9.143-15.064-9.501
			c-29.282-1.592-58.407-1.727-88.159-1.731c-4.966,0-9.268,1.722-12.497,4.987c-6.738,4.182-9.999,11.486-8.521,19.266
			c4.174,22,6.193,45.248,6.337,73.161c0.005,1.468,0.203,2.94,0.594,4.489c0.853,9.517,7.866,16.488,17.222,17.037
			c25.032,1.473,56.183,3.311,85.833,6.86c0.79,0.096,1.543,0.137,2.277,0.137c2.412,0,4.694-0.487,6.792-1.447
			c7.871-2.224,12.325-8.983,11.373-17.366C127.191,240.425,126.072,212.521,127.361,186.768z M92.633,252.565
			c-17.664-1.716-34.871-2.909-50.028-3.854c-0.5-16.555-1.752-32.187-3.811-47.489c20.299,0.084,36.722,0.371,51.935,0.914
			C90.526,218.262,91.15,234.869,92.633,252.565z"/>
		<path d="M127.361,334.134c0.203-3.972-0.754-7.627-2.77-10.604c-3.006-5.688-8.473-9.14-15.064-9.495
			c-29.244-1.595-58.389-1.727-88.159-1.731c-4.966,0-9.268,1.721-12.497,4.986c-6.744,4.184-9.999,11.491-8.521,19.261
			c4.174,21.997,6.193,45.244,6.337,73.163c0.005,1.482,0.198,2.925,0.594,4.489c0.853,9.506,7.861,16.483,17.222,17.031
			c25.032,1.483,56.183,3.316,85.843,6.865c0.78,0.097,1.528,0.138,2.252,0.138l0,0c2.417,0,4.7-0.488,6.802-1.447
			c7.876-2.219,12.33-8.973,11.377-17.367C127.191,387.792,126.072,359.889,127.361,334.134z M92.633,399.934
			c-17.915-1.736-35.569-2.955-50.028-3.849c-0.5-16.56-1.752-32.194-3.811-47.5c14.975,0.062,33.215,0.254,51.935,0.914
			C90.526,365.627,91.15,382.232,92.633,399.934z"/>
		<path d="M283.809,33.2c0.203-3.974-0.751-7.627-2.768-10.608c-3.006-5.682-8.47-9.135-15.061-9.493
			c-29.198-1.592-58.359-1.727-88.159-1.731c-4.966,0-9.267,1.719-12.494,4.986c-6.746,4.18-10.001,11.486-8.523,19.264
			c4.182,22.018,6.192,45.26,6.34,73.158c0.005,1.48,0.195,2.922,0.592,4.491c0.853,9.517,7.863,16.483,17.222,17.034
			c30.722,1.815,58.384,3.578,85.841,6.871c0.782,0.094,1.533,0.134,2.26,0.134c2.422,0,4.702-0.487,6.799-1.449
			c7.876-2.217,12.324-8.971,11.37-17.359C283.642,86.861,282.52,58.96,283.809,33.2z M249.081,99.003
			c-17.723-1.719-34.906-2.91-50.028-3.852c-0.5-16.557-1.752-32.187-3.812-47.492c14.965,0.059,33.195,0.247,51.94,0.917
			C246.974,64.696,247.598,81.293,249.081,99.003z"/>
		<path d="M283.809,186.768c0.203-3.974-0.751-7.629-2.768-10.603c-3.001-5.685-8.465-9.143-15.061-9.501
			c-29.28-1.592-58.41-1.727-88.159-1.731c-4.966,0-9.267,1.722-12.494,4.987c-6.746,4.182-10.001,11.486-8.523,19.266
			c4.182,22.016,6.192,45.268,6.34,73.161c0.005,1.483,0.195,2.92,0.592,4.494c0.853,9.512,7.863,16.483,17.222,17.032
			c25.032,1.473,56.19,3.315,85.836,6.86c0.787,0.096,1.543,0.137,2.274,0.137c2.417,0,4.697-0.487,6.795-1.447
			c7.87-2.219,12.324-8.983,11.369-17.361C283.642,240.425,282.52,212.521,283.809,186.768z M249.081,252.565
			c-17.659-1.716-34.871-2.909-50.028-3.854c-0.5-16.555-1.752-32.187-3.812-47.489c20.299,0.084,36.722,0.371,51.94,0.914
			C246.974,218.257,247.598,234.859,249.081,252.565z"/>
		<path d="M283.809,334.134c0.203-3.977-0.751-7.633-2.768-10.604c-3.006-5.688-8.47-9.14-15.061-9.495
			c-29.249-1.595-58.39-1.727-88.159-1.731c-4.966,0-9.267,1.721-12.494,4.986c-6.746,4.179-10.001,11.486-8.523,19.261
			c4.182,22.013,6.192,45.265,6.34,73.163c0.005,1.478,0.195,2.92,0.592,4.489c0.853,9.506,7.863,16.483,17.222,17.031
			c25.032,1.483,56.19,3.321,85.846,6.865c0.782,0.097,1.528,0.138,2.25,0.138c2.417,0,4.702-0.488,6.804-1.447
			c7.876-2.219,12.33-8.973,11.375-17.361C283.642,387.792,282.52,359.889,283.809,334.134z M249.081,399.934
			c-17.91-1.736-35.562-2.955-50.028-3.849c-0.5-16.56-1.752-32.194-3.812-47.5c14.975,0.062,33.215,0.254,51.94,0.914
			C246.974,365.622,247.598,382.232,249.081,399.934z"/>
		<path d="M446.05,33.2c0.203-3.974-0.751-7.627-2.772-10.608c-3.006-5.682-8.475-9.135-15.061-9.493
			c-29.193-1.592-58.356-1.727-88.154-1.731c-4.971,0-9.272,1.719-12.497,4.986c-6.738,4.18-9.998,11.486-8.521,19.264
			c4.174,22,6.195,45.245,6.337,73.158c0.006,1.49,0.198,2.933,0.6,4.497c0.854,9.511,7.861,16.478,17.225,17.029
			c30.717,1.815,58.382,3.578,85.838,6.871c0.782,0.094,1.539,0.134,2.26,0.134c2.417,0,4.702-0.487,6.805-1.449
			c7.871-2.217,12.319-8.971,11.369-17.359C445.878,86.846,444.761,58.945,446.05,33.2z M411.322,99.003
			c-17.728-1.719-34.906-2.91-50.028-3.852c-0.498-16.557-1.752-32.187-3.813-47.492c14.97,0.059,33.199,0.247,51.942,0.917
			C409.22,64.716,409.845,81.313,411.322,99.003z"/>
		<path d="M446.05,186.768c0.203-3.974-0.751-7.629-2.772-10.608c-3.001-5.685-8.47-9.138-15.061-9.501
			c-29.28-1.592-58.407-1.727-88.154-1.731c-4.971,0-9.272,1.722-12.497,4.986c-6.738,4.182-9.998,11.486-8.521,19.266
			c4.174,22,6.195,45.252,6.337,73.161c0.006,1.468,0.203,2.945,0.6,4.494c0.854,9.511,7.861,16.483,17.225,17.026
			c25.029,1.483,56.188,3.321,85.833,6.865c0.787,0.092,1.544,0.138,2.274,0.138c2.412,0,4.697-0.493,6.795-1.447
			c7.871-2.225,12.319-8.979,11.369-17.361C445.888,240.409,444.761,212.506,446.05,186.768z M411.322,252.565
			c-17.667-1.716-34.871-2.909-50.028-3.854c-0.498-16.555-1.752-32.187-3.813-47.489c20.302,0.084,36.724,0.371,51.942,0.914
			C409.215,218.279,409.845,234.88,411.322,252.565z"/>
		<path d="M446.05,334.134c0.203-3.977-0.751-7.633-2.772-10.613c-3.001-5.678-8.47-9.13-15.061-9.485
			c-29.244-1.595-58.392-1.727-88.154-1.731c-4.971,0-9.272,1.721-12.497,4.986c-6.743,4.184-9.998,11.491-8.521,19.261
			c4.174,21.997,6.195,45.244,6.337,73.163c0.006,1.488,0.198,2.93,0.6,4.494c0.854,9.506,7.861,16.479,17.225,17.026
			c25.029,1.483,56.188,3.321,85.843,6.865c0.777,0.097,1.528,0.138,2.25,0.138c2.417,0,4.707-0.488,6.805-1.447
			c7.876-2.219,12.324-8.973,11.374-17.361C445.878,387.777,444.761,359.879,446.05,334.134z M411.322,399.934
			c-17.915-1.736-35.566-2.955-50.028-3.849c-0.498-16.56-1.752-32.194-3.813-47.5c14.979,0.062,33.225,0.254,51.942,0.914
			C409.215,365.643,409.845,382.242,411.322,399.934z"/>
	</g>
</g>
<g>
</g>
<g>
</g>
<g>
</g>
<g>
</g>
<g>
</g>
<g>
</g>
<g>
</g>
<g>
</g>
<g>
</g>
<g>
</g>
<g>
</g>
<g>
</g>
<g>
</g>
<g>
</g>
<g>
</g>
</svg>
