<?xml version="1.0" encoding="iso-8859-1"?>
<!-- Generator: Adobe Illustrator 16.0.0, SVG Export Plug-In . SVG Version: 6.00 Build 0)  -->
<!DOCTYPE svg PUBLIC "-//W3C//DTD SVG 1.1//EN" "http://www.w3.org/Graphics/SVG/1.1/DTD/svg11.dtd">
<svg version="1.1" id="Capa_1" xmlns="http://www.w3.org/2000/svg" xmlns:xlink="http://www.w3.org/1999/xlink" x="0px" y="0px"
	 width="475.126px" height="475.127px" viewBox="0 0 475.126 475.127" style="enable-background:new 0 0 475.126 475.127;"
	 xml:space="preserve">
<g>
	<g>
		<path d="M452.062,155.449c-13.497-0.863-27.116,2.456-40.472,3.89c-41.386,4.446-83.233,7.665-108.476-30.768
			C282.534,97.238,275.161,62.17,274.16,25.24c-0.04-1.534-0.34-2.89-0.736-4.164c0.158-5.87-2.717-11.893-9.739-14.351
			C172.735-25.078,165.436,97.903,183,157.963c-2.517,0.186-5.027,0.29-7.546,0.384c-0.102-2.595-0.513-5.152-0.879-7.727
			c-0.086-0.551-0.18-1.102-0.269-1.655c0.046,0.143,0.036-0.224-0.03-1.241c-0.063-1.648-0.432-3.22-0.967-4.7
			c-0.208-4.093-2.029-8.181-6.102-11.187c-38.499-28.478-85.297-32.669-131.098-22.841c-1.971,0.422-3.583,1.168-4.957,2.085
			c-1.726,0.784-3.389,2.049-4.908,3.96c-23.227,29.308-23.795,63.802-5.502,94.748c-28.957,32.126-27.261,74.223,2.98,105.944
			c-6.683,29.563,2.892,56.127,25.651,76.099c-1.955,14.903-0.609,29.767,7.482,43.143c9.265,15.314,26.497,23.287,43.43,26.837
			c1.346,0.782,2.895,1.411,4.783,1.722c29.26,4.793,58.592,8.597,88.22,10.019c1.44,0.071,2.729-0.092,3.94-0.355
			c0.734-0.025,1.458-0.025,2.232-0.152c38.506-6.413,77.013-12.969,115.128-21.429c36.043-8.003,71.294-20.556,108.084-24.766
			c15.473-1.777,50.922,0.473,51.258-22.271c1.117-74.916,1.188-149.831,1.193-224.749c0-1.76-0.33-3.293-0.803-4.723
			C469.82,161.513,468.728,156.516,452.062,155.449z M383.336,403.907c-61.794,19.51-125.38,30.59-189.177,41.233
			c-0.297-0.03-0.556-0.111-0.863-0.127c-26.515-1.27-52.732-4.489-78.922-8.739c-1.196-0.625-2.514-1.158-4.093-1.452
			c-10.557-1.96-22.239-4.941-28.782-14.249c-6.37-9.069-5.136-21.028-2.869-31.22c1.643-7.403-2.102-12.994-7.322-15.812
			c-0.516-0.513-1.003-1.031-1.618-1.493c-19.464-14.716-23.439-35.175-16.036-57.614c2.531-7.673-1.32-13.411-6.941-15.985
			c-24.372-23.791-24.679-51.78,0.889-75.233c3.567-3.27,4.763-7.065,4.4-10.663c0.795-3.105,0.323-6.622-2.168-10.199
			c-14.378-20.652-20.296-44.905-4.057-66.25c35.49-7.208,69.99-3.775,100.326,15.77c0.157,1.219,0.34,2.435,0.51,3.656
			c0.089,0.551,0.183,1.102,0.272,1.653c-0.033-0.104-0.038,0.122,0,0.666c-9.422-0.676-18.85-1.866-28.277-3.669
			c-17.981-3.438-25.651,24.064-7.586,27.518c37.973,7.259,75.642,7.243,113.419-1.191c17.958-4.009,10.341-31.522-7.586-27.518
			c-1.742,0.388-3.491,0.675-5.233,1.023c-11.362-35.297-20.185-131.207,34.251-122.379
			c3.931,81.793,40.984,162.543,129.712,158.608c-5.469,71.409,1,142.302,9.526,213.288
			C384.525,403.648,383.957,403.709,383.336,403.907z M445.501,393.614c-10.923,0.701-21.841,1.417-32.764,2.138
			c-8.135-68.872-13.984-137.689-8.516-206.991c14.076-1.79,28.183-2.976,42.355-3.13
			C446.573,254.96,446.441,324.29,445.501,393.614z"/>
	</g>
</g>
<g>
</g>
<g>
</g>
<g>
</g>
<g>
</g>
<g>
</g>
<g>
</g>
<g>
</g>
<g>
</g>
<g>
</g>
<g>
</g>
<g>
</g>
<g>
</g>
<g>
</g>
<g>
</g>
<g>
</g>
</svg>
