<?xml version="1.0" encoding="iso-8859-1"?>
<!-- Generator: Adobe Illustrator 16.0.0, SVG Export Plug-In . SVG Version: 6.00 Build 0)  -->
<!DOCTYPE svg PUBLIC "-//W3C//DTD SVG 1.1//EN" "http://www.w3.org/Graphics/SVG/1.1/DTD/svg11.dtd">
<svg version="1.1" id="Capa_1" xmlns="http://www.w3.org/2000/svg" xmlns:xlink="http://www.w3.org/1999/xlink" x="0px" y="0px"
	 width="480.523px" height="480.523px" viewBox="0 0 480.523 480.523" style="enable-background:new 0 0 480.523 480.523;"
	 xml:space="preserve">
<g>
	<g>
		<path d="M96.397,207.214c2.56,1.346,5.159,2.031,7.734,2.031c4.595,0,8.053-2.125,10.143-3.915l0.698-0.426l1.176,2.346l0,0
			l-0.66-2.517c6.228-2.744,13.04-5.898,21.246-9.849l1.678-0.808l1.305,1.333c20.492,20.939,36.016,39.118,48.832,57.209
			c1.077,1.518,2.367,2.798,4.06,4.026l1.826,1.32l-1.049,1.996c-7.681,14.589-12.86,30.346-15.409,46.839l-0.208,0.695
			c-1.876,4.073-1.221,9.278,1.744,13.909c4.819,7.521,13.967,10.639,22.041,7.003c28.683-12.954,56.446-26.197,82.522-39.365
			l2.031-1.021l1.284,1.863c11.588,16.809,19.978,28.731,27.162,38.934c15.133,21.495,25.131,35.698,48.541,72.406
			c7.916,12.421,66.755,76.048,77.906,79.298c0.243-10.658-36.648-74.275-50.079-95.334c-22.719-35.622-32.352-49.307-46.936-70.025
			c-7.252-10.293-15.712-22.317-27.6-39.607l-1.645-2.397l2.569-1.371c28.843-15.381,54.948-30.371,79.831-45.829
			c5.093-3.161,7.769-8.003,7.545-13.629c-0.248-6.276-4.021-12.354-9.379-15.127l-0.64-0.333l-0.381-0.611
			c-1.909-3.085-4.666-5.368-8.19-6.771c-24.938-9.953-51.922-13.16-78.48-9.354l-1.736,0.249l-0.879-1.518
			c-7.383-12.761-14.67-25.573-21.962-38.384c-4.946-8.706-9.897-17.415-14.879-26.104l-1.102-1.919l1.722-1.394
			c6.794-5.507,15.721-12.832,24.512-20.67c4.666-4.169,6.18-9.468,4.25-14.921l-0.122-0.546c-0.274-2.176-0.889-4.349-1.849-6.459
			c-11.496-25.323-25.648-46.745-42.056-63.667c-5.556-5.73-13.109-6.287-19.449-1.891l-0.863,0.388
			c-1.439,0.35-2.719,0.817-3.92,1.427c-49.939,25.38-98.62,54.936-145.695,83.52c-10.445,6.343-20.894,12.688-31.364,18.989
			c-4.321,2.6-6.906,6.411-7.477,11.017l-0.114,0.922l-0.673,0.64c-4.02,3.847-5.37,9.141-3.811,14.914
			C48.753,166.474,69.25,192.895,96.397,207.214z M329.007,211.061c6.348,0,12.786,0.49,19.144,1.452l7.292,1.103l-6.378,3.712
			c-38.379,22.363-79.424,43.838-125.494,65.653l-6.614,3.138l3.156-6.611C240.3,237.289,282.03,211.061,329.007,211.061z
			 M272.312,186.384l1.482,2.577l-2.758,1.125c-21.449,8.744-40.887,22.303-56.205,39.197l-2.128,2.343l-1.886-2.542
			c-11.931-16.074-25.506-32.215-40.347-47.974l-2.292-2.435l2.927-1.622c22.818-12.629,45.648-27.162,67.88-43.198l2.344-1.696
			l11.661,20.421C259.418,163.858,265.847,175.132,272.312,186.384z M96.685,117.854c45.255-27.424,92.048-55.784,139.87-80.633
			l1.889-0.977l1.335,1.652c8.092,10.024,15.338,21.335,22.163,34.568l0.939,1.826l-1.56,1.335
			c-45.722,39.255-98.002,72.336-155.371,98.32l-1.358,0.617l-1.216-0.868c-13.675-9.734-23.666-23.013-29.681-39.461l-0.739-2.011
			L96.685,117.854z"/>
	</g>
</g>
<g>
</g>
<g>
</g>
<g>
</g>
<g>
</g>
<g>
</g>
<g>
</g>
<g>
</g>
<g>
</g>
<g>
</g>
<g>
</g>
<g>
</g>
<g>
</g>
<g>
</g>
<g>
</g>
<g>
</g>
</svg>
