<?xml version="1.0" encoding="iso-8859-1"?>
<!-- Generator: Adobe Illustrator 16.0.0, SVG Export Plug-In . SVG Version: 6.00 Build 0)  -->
<!DOCTYPE svg PUBLIC "-//W3C//DTD SVG 1.1//EN" "http://www.w3.org/Graphics/SVG/1.1/DTD/svg11.dtd">
<svg version="1.1" id="Capa_1" xmlns="http://www.w3.org/2000/svg" xmlns:xlink="http://www.w3.org/1999/xlink" x="0px" y="0px"
	 width="494.936px" height="494.936px" viewBox="0 0 494.936 494.936" style="enable-background:new 0 0 494.936 494.936;"
	 xml:space="preserve">
<g>
	<g>
		<path d="M493.136,300.335c0.046-0.695,0-1.336-0.071-1.96c0.021-0.214,0.071-0.422,0.071-0.64v-10.4
			c0-1.868-0.554-3.615-1.452-5.148c-1.051-2.469-3.052-4.596-6.19-5.744c-10.674-3.914-19.753-10.566-22.729-21.951
			c-3.042-11.619,7.521-20.569,16.539-25.685c4.656-0.564,8.83-3.85,8.627-9.933c-0.853-25.309-2.341-66.179-3.94-91.449
			c4.002-6.34,1.331-16.631-8.176-16.011c-2.569-0.716-5.337-0.577-7.678,0.421c-143.782,8.638-309.522-7.898-453.387-8.231
			c-3.483-0.01-6.043,1.404-7.719,3.479c-1.604,1.658-2.676,3.94-2.681,6.921c-0.071,24.59-0.914,64.734-2.6,89.266
			c-0.142,2.074,0.279,3.785,1.021,5.215c0.65,2.054,1.95,3.989,4.128,5.497c23.694,16.483,27,45.272,0,60.039
			c-0.203,0.106-0.351,0.244-0.538,0.366c-3.717,1.188-6.627,4.326-6.343,9.48c1.615,29.736,1.843,64.729,3.468,94.466
			c0.102,1.898,0.645,3.493,1.437,4.854c0.833,4.348,4.093,8.15,9.826,8.146c149.079-0.102,318.922-4.605,467.986-5.2
			c1.122-0.005,2.122-0.197,3.057-0.472c5.094-0.097,9.765-3.382,9.074-9.928C492.405,352.344,491.597,323.816,493.136,300.335z
			 M23.926,370.493c-1.188-25.197-1.62-55.614-2.849-80.806c35.276-22.217,31.605-64.531,1.66-89.522
			c1.315-20.002,1.98-55.622,2.219-75.667c138.969,1.039,299.687,16.211,438.565,8.387c1.31,21.17,2.508,57.937,3.306,79.132
			c-15.184,9.209-26.375,23.897-24.934,42.602c1.417,18.316,14.874,31.082,30.443,38.623v4.488c0,0.544,0.081,1.077,0.167,1.6
			c-0.056,0.341-0.142,0.65-0.167,1.001c-1.311,20.022-0.838,45.138,0.832,65.063C330.352,366.116,166.754,370.228,23.926,370.493z"
			/>
		<path d="M435.938,299.467c0.229-3.479-1.021-6.028-2.985-7.693c-0.604-0.767-1.29-1.503-2.164-2.153
			c-24.312-18.037-21.419-46.656,0.371-65.13c0.31-0.264,0.523-0.546,0.787-0.817c0.173-0.155,0.32-0.333,0.487-0.498
			c0.132-0.157,0.295-0.307,0.422-0.47c1.563-1.787,2.528-4.019,2.219-6.437c-1.665-12.959-2.595-41.568-3.468-54.598
			c-0.057-0.838-0.193-1.627-0.396-2.361c0.046-5.23-3.271-10.248-10.004-9.775c-110.796,7.86-243.468-6.932-354.458-6.932
			c-7.566,0-10.861,6.619-9.892,12.391c-0.294,0.978-0.508,2.023-0.508,3.209c0,10.702-0.041,36.993-0.868,47.667
			c-0.036,0.493,0.01,0.937,0.03,1.394c-0.279,2.013,0.081,4.207,1.386,6.457c13.086,22.475,9.354,46.565-7.038,66.263
			c-0.112,0.132-0.172,0.274-0.274,0.406c-2.153,1.665-3.641,4.255-3.641,7.814c0,15.899-0.056,36.988-0.868,52.867
			c-0.066,1.254,0.106,2.351,0.381,3.372c0.203,5.021,3.519,9.811,10.019,9.628c116.687-3.21,254.259,1.457,370.92-3.469
			c2.737-0.116,4.886-1.106,6.506-2.564c3.742-2.071,6.423-6.124,5.255-11.466C435.857,326.02,435.227,310.238,435.938,299.467z
			 M66.134,333.052c0.432-11.969,0.584-29.143,0.594-41.126c19.966-25.654,25.207-56.828,9.552-86.046c0-0.005,0-0.01,0-0.015
			c0.69-8.917,0.828-33.446,0.853-42.384c104.337,0.831,230.2,13.592,334.359,7.419c0.64,8.585,1.351,32.761,2.356,41.307
			c-28.519,26.542-27.097,65.897,1.143,91.012c-0.244,7.272,0.142,19.724,1.086,26.913
			C306.404,334.256,175.839,330.473,66.134,333.052z"/>
		<path d="M246.144,205.001v93.598c0,13.41,20.799,13.41,20.799,0v-93.598C266.943,191.59,246.144,191.59,246.144,205.001z"/>
	</g>
</g>
<g>
</g>
<g>
</g>
<g>
</g>
<g>
</g>
<g>
</g>
<g>
</g>
<g>
</g>
<g>
</g>
<g>
</g>
<g>
</g>
<g>
</g>
<g>
</g>
<g>
</g>
<g>
</g>
<g>
</g>
</svg>
