<?xml version="1.0" encoding="iso-8859-1"?>
<!-- Generator: Adobe Illustrator 16.0.0, SVG Export Plug-In . SVG Version: 6.00 Build 0)  -->
<!DOCTYPE svg PUBLIC "-//W3C//DTD SVG 1.1//EN" "http://www.w3.org/Graphics/SVG/1.1/DTD/svg11.dtd">
<svg version="1.1" id="Capa_1" xmlns="http://www.w3.org/2000/svg" xmlns:xlink="http://www.w3.org/1999/xlink" x="0px" y="0px"
	 width="479.684px" height="479.684px" viewBox="0 0 479.684 479.684" style="enable-background:new 0 0 479.684 479.684;"
	 xml:space="preserve">
<g>
	<g>
		<path d="M195.586,122.157c-6.441-6.375-14.251-6.146-20.299-2.638c-1.965,0.838-3.9,2.059-5.715,3.874l-42.114,42.114
			c-3.639,3.646-5.091,7.736-5.081,11.71c-0.02,0.233-0.01,0.467-0.025,0.701c0.016,0.208,0.005,0.421,0.025,0.629
			c-0.015,3.979,1.432,8.082,5.081,11.73c14.467,14.462,29.03,28.792,44.1,42.604l-46.581,46.575
			c-7.353,7.353-6.02,16.534-0.939,22.784c0.67,2.818,2.09,5.611,4.659,8.182l44.587,44.589c5.636,5.637,12.344,6.135,17.996,3.804
			c3.583-0.279,7.224-1.772,10.494-5.042l46.336-46.332c16.423,14.95,32.443,30.336,49.043,45.093
			c7.46,6.642,16.499,5.438,22.775,0.762c1.533-0.808,3.046-1.812,4.468-3.24l43.352-43.346c5.56-5.565,6.124-12.177,3.89-17.783
			c0.437-4.422-0.965-9.1-5.124-13.182c-16.209-15.909-33.672-30.295-51.46-44.336c12.202-14.122,24.379-28.262,36.592-42.368
			c2.011-2.318,3.225-4.789,3.89-7.279c3.864-6.693,3.021-15.533-2.65-21.206l-2.483-2.476c-2.042-2.039-4.504-3.384-7.114-4.192
			c-13.081-11.185-25.304-23.277-37.471-35.441c-6.525-6.521-14.477-6.193-20.565-2.496c-1.874,0.838-3.723,2.008-5.443,3.74
			l-42.27,42.264C223.614,148.629,209.284,135.729,195.586,122.157z M293.497,155.54c7.379,7.231,14.939,14.269,22.734,21.059
			c-12.142,14.056-24.263,28.132-36.419,42.172c-1.082,1.247-1.895,2.546-2.569,3.867c-6.82,6.127-9.161,16.191,0.091,23.382
			c19.002,14.792,37.796,29.771,55.441,46.128l-23.836,23.836c-15.487-14.238-30.696-28.781-46.469-42.716
			c-0.959-0.843-1.939-1.518-2.935-2.112c-6.2-6.159-16.349-8.328-24.316-0.36l-48.307,48.307l-26.009-26.01l48.307-48.307
			c7.061-7.063,6.146-15.833,1.559-22.054c-0.914-1.805-2.188-3.562-4.034-5.194c-14.465-12.771-28.361-26.119-42.076-39.669
			l18.755-18.756c12.723,12.048,25.717,23.803,38.181,36.132c1.191,1.181,2.44,2.069,3.702,2.818
			c6.146,6.543,16.6,9.08,24.788,0.901L293.497,155.54z"/>
		<path d="M244.504,17.348c-10.303,0-20.776,0.615-31.245,1.836c-4.908,0.63-9.806,1.363-14.553,2.168
			c-3.001,0.467-5.761,1.363-8.247,2.653C91.747,37.091,16.191,111.049,2.105,208.671
			c-17.242,119.571,73.344,232.236,201.951,251.162c11.311,1.66,22.947,2.503,34.596,2.503c0.005,0,0.005,0,0.015,0
			c118.065,0,220.615-80.257,238.546-186.672c10.323-61.318-12.005-128.622-61.261-184.645
			C374.181,43.515,313.296,17.348,244.504,17.348z M258.185,71.124c46.271,3.214,86.442,22.351,119.454,56.929
			c38.771,40.616,56.065,97.731,45.138,149.054c-13.908,65.323-82.553,131.438-186.839,131.438c-12.106,0-24.019-1.062-35.416-3.148
			C104.624,387.807,39.789,299.318,55.985,208.14C69.891,129.935,138.7,75.32,223.332,75.32c5.715,0,11.514,0.257,17.227,0.76
			C247.526,76.699,253.447,74.907,258.185,71.124z"/>
	</g>
</g>
<g>
</g>
<g>
</g>
<g>
</g>
<g>
</g>
<g>
</g>
<g>
</g>
<g>
</g>
<g>
</g>
<g>
</g>
<g>
</g>
<g>
</g>
<g>
</g>
<g>
</g>
<g>
</g>
<g>
</g>
</svg>
