<?xml version="1.0" encoding="iso-8859-1"?>
<!-- Generator: Adobe Illustrator 16.0.0, SVG Export Plug-In . SVG Version: 6.00 Build 0)  -->
<!DOCTYPE svg PUBLIC "-//W3C//DTD SVG 1.1//EN" "http://www.w3.org/Graphics/SVG/1.1/DTD/svg11.dtd">
<svg version="1.1" id="Capa_1" xmlns="http://www.w3.org/2000/svg" xmlns:xlink="http://www.w3.org/1999/xlink" x="0px" y="0px"
	 width="463.456px" height="463.455px" viewBox="0 0 463.456 463.455" style="enable-background:new 0 0 463.456 463.455;"
	 xml:space="preserve">
<g>
	<g>
		<path d="M442.606,28.174c-3.728-7.841-11.156-13.873-22.333-14.201c-127-3.712-254.039-3.895-381.077-3.899
			c-2.435-0.77-4.956-1.3-7.612-1.3c-14.175,0-25.999,11.824-25.999,25.999v7.8c0,3.94,0.987,7.66,2.615,11.034
			c-0.828,2.537-1.31,5.345-1.315,8.465c-0.257,120.938-8.772,241.732-6.5,362.689c0.046,2.468,0.398,4.728,0.965,6.835
			c0.808,12.259,9.133,23.644,25.034,23.064c136.88-5.007,273.84-3.931,410.788-3.9c9.272,0,15.971-3.98,20.114-9.739
			c3.498-4.042,5.764-9.445,5.885-16.26c2.209-127.64-8.973-254.833-15.6-382.188C447.267,36.753,445.414,31.969,442.606,28.174z
			 M52.191,401.854c-0.927-113.295,6.451-226.473,6.692-339.772c112.666,0.025,225.33,0.37,337.955,3.285
			c6.2,111.086,15.005,222.075,14.594,333.374C291.673,398.63,171.902,398.122,52.191,401.854z"/>
		<path d="M353.726,268.268c-16.204-15.909-33.667-30.295-51.455-44.335c12.192-14.122,24.374-28.261,36.592-42.368
			c2.006-2.318,3.225-4.789,3.89-7.279c3.864-6.693,3.021-15.534-2.661-21.206l-2.473-2.476c-2.041-2.039-4.509-3.385-7.124-4.192
			c-13.071-11.184-25.299-23.277-37.466-35.442c-6.525-6.52-14.482-6.192-20.565-2.496c-1.869,0.838-3.717,2.008-5.443,3.74
			l-42.267,42.264c-13.932-13.317-28.262-26.217-41.959-39.789c-6.437-6.375-14.247-6.146-20.294-2.638
			c-1.965,0.838-3.899,2.059-5.715,3.874l-42.112,42.114c-3.641,3.646-5.091,7.736-5.081,11.71
			c-0.028,0.233-0.018,0.467-0.028,0.701c0.01,0.208,0.005,0.421,0.023,0.63c-0.013,3.979,1.429,8.082,5.085,11.73
			c14.459,14.462,29.023,28.792,44.094,42.604l-46.575,46.575c-7.353,7.353-6.022,16.533-0.941,22.785
			c0.665,2.817,2.084,5.61,4.659,8.18l44.59,44.59c5.636,5.637,12.344,6.135,17.997,3.804c3.582-0.279,7.221-1.772,10.493-5.042
			l46.339-46.342c16.423,14.949,32.443,30.336,49.038,45.092c7.47,6.643,16.504,5.438,22.78,0.762
			c1.533-0.807,3.041-1.812,4.469-3.239l43.355-43.346c5.561-5.565,6.114-12.177,3.89-17.783
			C359.296,277.027,357.895,272.351,353.726,268.268z M296.152,308.506c-15.492-14.238-30.691-28.782-46.469-42.716
			c-0.954-0.843-1.939-1.519-2.93-2.112c-6.2-6.16-16.354-8.328-24.316-0.361l-48.307,48.308l-26.009-26.01l48.302-48.307
			c7.066-7.063,6.152-15.833,1.566-22.054c-0.922-1.806-2.191-3.562-4.037-5.195c-14.465-12.771-28.358-26.119-42.076-39.669
			l18.756-18.755c12.72,12.047,25.72,23.803,38.184,36.132c1.191,1.181,2.433,2.069,3.702,2.818
			c6.139,6.543,16.597,9.079,24.785,0.901l43.407-43.414c7.383,7.233,14.944,14.269,22.733,21.059
			c-12.136,14.056-24.257,28.132-36.414,42.172c-1.087,1.247-1.889,2.546-2.569,3.867c-6.814,6.127-9.161,16.188,0.097,23.382
			c19.001,14.792,37.79,29.772,55.441,46.128L296.152,308.506z"/>
	</g>
</g>
<g>
</g>
<g>
</g>
<g>
</g>
<g>
</g>
<g>
</g>
<g>
</g>
<g>
</g>
<g>
</g>
<g>
</g>
<g>
</g>
<g>
</g>
<g>
</g>
<g>
</g>
<g>
</g>
<g>
</g>
</svg>
