<?xml version="1.0" encoding="iso-8859-1"?>
<!-- Generator: Adobe Illustrator 16.0.0, SVG Export Plug-In . SVG Version: 6.00 Build 0)  -->
<!DOCTYPE svg PUBLIC "-//W3C//DTD SVG 1.1//EN" "http://www.w3.org/Graphics/SVG/1.1/DTD/svg11.dtd">
<svg version="1.1" id="Capa_1" xmlns="http://www.w3.org/2000/svg" xmlns:xlink="http://www.w3.org/1999/xlink" x="0px" y="0px"
	 width="453.139px" height="453.139px" viewBox="0 0 453.139 453.139" style="enable-background:new 0 0 453.139 453.139;"
	 xml:space="preserve">
<g>
	<g>
		<path d="M319.167,200.075c-6.2-9.372-12.756-18.768-19.099-27.85c-13.309-19.068-27.061-38.775-38.526-59.653
			c-9.033-16.438-15.772-34.398-20.037-53.393c-1.301-5.761-1.798-12.24-2.321-19.093c-0.827-10.826-1.686-22.018-5.845-29.391
			C229.617,4.098,222.508,0,214.792,0c-7.856,0-17.258,4.639-17.923,17.689c-2.798,54.896-32.194,100.513-60.621,144.633
			c-24.61,38.205-50.063,77.703-57.739,122.796c-14.444,84.884,57.615,148.241,132.746,164.75
			c9.859,2.168,19.954,3.271,29.996,3.271c36.779,0,72.549-14.787,98.146-40.563c24.156-24.318,37.328-56.508,37.09-90.662
			c-0.27-37.953-25.396-74.844-47.561-107.389C325.561,209.588,322.27,204.77,319.167,200.075z M328.46,374.338
			c-21.587,29.006-64.272,39.299-94.263,39.299c-9.293,0-18.075-0.898-26.104-2.661c-44.318-9.739-79.511-42.538-91.827-85.584
			c-12.246-42.808,16.112-88.961,36.825-122.666l3.019-4.928c4.37-7.134,8.777-14.196,13.182-21.236
			c14.566-23.298,28.317-45.304,39.718-68.708l4.659-9.557l4.685,9.537c10.003,20.352,23.049,40.195,35.663,59.387
			c8.069,12.269,16.401,24.951,24.034,37.856c5.951,10.072,12.451,19.957,18.737,29.516c15.661,23.815,31.85,48.438,40.583,77.581
			C344.379,335.588,341.302,357.083,328.46,374.338z"/>
		<path d="M262.853,298.758c16.153,18.575,18.204,35.941-3.575,50.287c-22.19,14.619-1.473,50.48,20.896,35.749
			c19.058-12.558,35.023-29.641,37.182-53.364c2.184-24.009-10.039-44.463-25.237-61.941
			C274.577,249.298,245.425,278.71,262.853,298.758z"/>
	</g>
</g>
<g>
</g>
<g>
</g>
<g>
</g>
<g>
</g>
<g>
</g>
<g>
</g>
<g>
</g>
<g>
</g>
<g>
</g>
<g>
</g>
<g>
</g>
<g>
</g>
<g>
</g>
<g>
</g>
<g>
</g>
</svg>
