<?xml version="1.0" encoding="iso-8859-1"?>
<!-- Generator: Adobe Illustrator 16.0.0, SVG Export Plug-In . SVG Version: 6.00 Build 0)  -->
<!DOCTYPE svg PUBLIC "-//W3C//DTD SVG 1.1//EN" "http://www.w3.org/Graphics/SVG/1.1/DTD/svg11.dtd">
<svg version="1.1" id="Capa_1" xmlns="http://www.w3.org/2000/svg" xmlns:xlink="http://www.w3.org/1999/xlink" x="0px" y="0px"
	 width="477.137px" height="477.137px" viewBox="0 0 477.137 477.137" style="enable-background:new 0 0 477.137 477.137;"
	 xml:space="preserve">
<g>
	<g>
		<path d="M431.553,354.332c-20.963-27.878-41.238-56.229-60.449-85.335h35.922c6.17,0,10.258-3.189,12.345-7.43
			c4.062-4.082,5.865-10.257,2.062-16.727C373.882,163.893,320.416,86.669,271.104,6.815c-5.764-9.328-16.783-8.079-22.871-2.252
			c-2.549,0.937-4.951,2.569-6.906,5.144C184.146,84.907,137.832,167.5,82.322,243.871c-8.351,11.497,4.182,22.546,15.429,20.622
			c0.312,0.045,0.586,0.137,0.909,0.167c7.957,0.701,15.922,1.229,23.894,1.671c-28.505,23.211-53.684,50.201-79.407,76.759
			c-17.222,17.788,15.277,29.396,27.642,30.564c7.541,0.716,97.736-7.673,97.736-3.362c0.01,27.432,0.163,54.857,1.442,82.273
			c0.076,1.742,0.473,3.271,1.003,4.683c-2.044,8.262,2.407,18.402,13.447,18.442c30.361,0.107,60.708,1.346,91.068,1.447
			c4.2,0.016,7.399-1.482,9.699-3.742c4.174-2.133,7.373-6.17,7.647-12.156c1.3-28.803,2.447-57.6,2.763-86.422
			c-0.025,2.351,117.169,9.1,128.69,6.352c3.773-0.898,11.197-1.492,13.543-5.047C441.022,371.288,436.65,356.82,431.553,354.332z
			 M264.497,448.082c-21.942-0.244-43.879-0.838-65.828-1.127c-1.039-25.253-1.211-50.511-1.231-75.784
			c23.097,0.686,46.194,1.438,69.273,2.356C266.457,398.388,265.578,423.235,264.497,448.082z M90.467,339.824
			c-1.78-0.025-3.334,0.29-4.773,0.747c26.337-27.289,53.271-53.853,85.788-74.027c11.273-6.997,7.086-21.683-1.993-25.974
			c-1.986-1.163-4.362-1.919-7.234-1.93c-13.373-0.046-26.73-0.487-40.062-1.239c45.907-65.754,86.618-135.023,134.18-199.625
			c42.417,67.707,87.266,133.871,128.503,202.307h-38.566c-8.547,0-13.122,6.083-13.833,12.664
			c-1.437,3.524-1.366,7.688,1.361,11.979c18.712,29.493,38.658,58.107,59.341,86.224
			C292.365,344.999,191.453,341.225,90.467,339.824z"/>
		<path d="M213.329,180.823c-18.641,0-18.641,28.911,0,28.911C231.975,209.734,231.975,180.823,213.329,180.823z"/>
		<path d="M291.39,261.77c-18.646,0-18.646,28.909,0,28.909C310.031,290.679,310.031,261.77,291.39,261.77z"/>
		<path d="M277.897,144.206c-18.641,0-18.641,28.911,0,28.911C296.539,173.117,296.539,144.206,277.897,144.206z"/>
		<path d="M199.839,296.463c-18.646,0-18.646,28.914,0,28.914C218.476,325.373,218.476,296.463,199.839,296.463z"/>
	</g>
</g>
<g>
</g>
<g>
</g>
<g>
</g>
<g>
</g>
<g>
</g>
<g>
</g>
<g>
</g>
<g>
</g>
<g>
</g>
<g>
</g>
<g>
</g>
<g>
</g>
<g>
</g>
<g>
</g>
<g>
</g>
</svg>
