<?xml version="1.0" encoding="iso-8859-1"?>
<!-- Generator: Adobe Illustrator 16.0.0, SVG Export Plug-In . SVG Version: 6.00 Build 0)  -->
<!DOCTYPE svg PUBLIC "-//W3C//DTD SVG 1.1//EN" "http://www.w3.org/Graphics/SVG/1.1/DTD/svg11.dtd">
<svg version="1.1" id="Capa_1" xmlns="http://www.w3.org/2000/svg" xmlns:xlink="http://www.w3.org/1999/xlink" x="0px" y="0px"
	 width="478.436px" height="478.435px" viewBox="0 0 478.436 478.435" style="enable-background:new 0 0 478.436 478.435;"
	 xml:space="preserve">
<g>
	<g>
		<path d="M471.006,166.46c-16.965-16.894-34.54-33.128-52.592-48.842c-2.255-1.955-4.688-2.933-7.1-3.179
			c-1.279-0.363-2.666-0.587-4.26-0.493c-19.805,1.161-39.562,2.034-59.388,1.399c-0.249-8.813-0.518-17.633-0.726-26.446
			c-0.214-9.079-8.247-13.058-15.158-11.913c-1.224-0.375-2.539-0.629-4.042-0.609c-104.099,1.582-208.202-0.03-312.25-3.333
			c-5.042-0.16-8.505,2.173-10.399,5.472c-3.25,1.866-5.454,5.319-5.042,10.395c5.749,71.315,1.468,142.724,1.25,214.149
			c-0.01,1.757,0.33,3.29,0.858,4.671c0.736,3.382,2.681,6.536,5.784,8.466c2.016,2.417,5.083,4.026,9.217,3.976
			c10.877-0.152,21.744-0.163,32.61-0.163c3.042,0.173,6.089,0.346,9.13,0.579c0.787,0.062,1.508,0.021,2.219-0.046
			c-10.832,12.66-16.194,28.849-9.374,46.449c12.091,31.158,56.442,39.872,84.838,28.518c24.46-9.775,38.963-34.398,34.042-60.413
			c-0.95-5.037-2.757-9.419-5.098-13.319c56.005,1.412,112.005,3.189,168.03,3.372c1.036,0.264,2.133,0.446,3.361,0.446h6.581
			c-10.866,16.026-15.274,38.096-6.713,55.025c13.497,26.689,56.767,31.402,79.008,16.153c21.49-14.736,29.138-38.512,23.583-58.864
			c-1.174-4.301-2.971-8.435-5.322-12.314h27.065c7.363,2.661,17.316-1.086,17.316-11.263V182.829c0-3.974-1.523-6.951-3.809-8.97
			C474.403,171.333,473.327,168.768,471.006,166.46z M131.457,370.372c-15.056,9.059-43.563,6.205-54.283-8.43
			c-12.015-16.382,7.302-32.474,21.962-38.847c0.757,0.051,1.514,0.081,2.352-0.01c14.375-1.447,37.323-1.885,43.848,14.675
			C150.423,350.684,142.451,363.759,131.457,370.372z M49.199,294.963c-7.586-0.422-15.178-0.762-22.77-1.147
			c0.492-65.171,3.742-130.337-0.727-195.424c98.817,3.026,197.676,4.489,296.528,3.101c1.701,66.199,4.327,132.367,5.987,198.569
			C235.2,299.594,142.232,294.938,49.199,294.963z M388.591,380.69c-0.122,0-0.239-0.03-0.366-0.021
			c-13.456,0.619-24.033-3.834-31.747-14.619c-2.991-18.835,5.789-32.23,22.095-39.289c15.132-2.361,33.275,0.747,38.439,17.316
			C422.735,362.47,403.348,375.439,388.591,380.69z M453.391,300.549H353.289c-1.341-53.39-3.326-106.755-4.941-160.132
			c18.88,0.569,37.709-0.218,56.568-1.305c16.57,14.548,32.764,29.498,48.389,45.057c0.03,0.03,0.061,0.048,0.091,0.074v116.306
			H453.391z"/>
		<path d="M436.07,186.031c-11.137-6.833-21.48-15.902-31.611-27.718c-0.229-0.267-0.467-0.49-0.649-0.62
			c-1.854-2.222-4.591-3.443-7.698-3.443h-23.399c-0.868,0-1.711,0.109-2.615,0.337l-0.243-0.005c-5.078,0-10.491,3.39-10.999,9.859
			c-1.625,20.264-1.625,40.814,0,61.083c0.051,0.625,0.152,1.206,0.294,1.772c0.254,4.883,3.712,9.864,9.979,10.151l54.812,2.49
			l2.854,0.122c0.93,0,1.839-0.127,2.772-0.386c4.505-0.422,9.431-3.636,9.872-9.844c0.401-5.652,0.635-11.316,0.868-16.979
			c0.233-5.611,0.462-11.222,0.863-16.82c0.111-1.696-0.137-3.283-0.67-4.494C439.757,189.265,438.228,187.364,436.07,186.031z
			 M420.104,200.31c-0.284,4.694-0.503,9.401-0.721,14.102l-0.214,4.504l-40.029-1.826c-0.808-13.873-0.854-27.99-0.122-42.041
			h12.558C400.321,184.883,409.898,193.368,420.104,200.31z M426.782,237.463l-0.005-0.056h0.005V237.463z"/>
		<path d="M264.774,150.018c-8.603-5.434-17.691-9.516-25.385-11.938c-30.057-9.486-63.226-5.66-94.1-3.496
			c-30.843,2.158-77.866,10.235-90.296,43.915c-10.501,28.457,17.788,55.472,41,64.995c49.942,20.5,168.005,31.646,195.782-30.854
			C301.341,191.116,283.218,161.674,264.774,150.018z M262.312,203.638c-21.617,24.298-67.303,27.612-97.264,26.946
			c-21.145-0.47-56.629-4.354-72.904-19.075c-8.765-7.917-9.75-21.683-2.407-31.651c20.317-27.604,66.852-26.237,96.918-22.978
			C203.036,158.66,290.54,171.904,262.312,203.638z"/>
	</g>
</g>
<g>
</g>
<g>
</g>
<g>
</g>
<g>
</g>
<g>
</g>
<g>
</g>
<g>
</g>
<g>
</g>
<g>
</g>
<g>
</g>
<g>
</g>
<g>
</g>
<g>
</g>
<g>
</g>
<g>
</g>
</svg>
