<?xml version="1.0" encoding="iso-8859-1"?>
<!-- Generator: Adobe Illustrator 16.0.0, SVG Export Plug-In . SVG Version: 6.00 Build 0)  -->
<!DOCTYPE svg PUBLIC "-//W3C//DTD SVG 1.1//EN" "http://www.w3.org/Graphics/SVG/1.1/DTD/svg11.dtd">
<svg version="1.1" id="Capa_1" xmlns="http://www.w3.org/2000/svg" xmlns:xlink="http://www.w3.org/1999/xlink" x="0px" y="0px"
	 width="487.682px" height="487.682px" viewBox="0 0 487.682 487.682" style="enable-background:new 0 0 487.682 487.682;"
	 xml:space="preserve">
<g>
	<g>
		<path d="M477.956,143.961c-8.551-4.23-17.153-8.363-25.588-12.822c6.357-10.12,11.969-20.652,16.981-31.539
			c2.838-6.17,1.808-13.375-4.475-17.057c-4.24-2.483-10.48-2.087-14.386,1.122c-14.279,4.448-28.127,10.054-41.776,16.127
			c-3.514-4.966-7.571-9.694-12.304-14.096c-64.19-59.707-168.538-4.921-196.784,60.148c-55.299-2.473-101.969-30.62-140.203-65.196
			c-1.643-1.487-3.423-2.376-5.226-2.869c-6.558-2.965-15.325-1.523-17.031,6.713c-7.716,37.232,2.813,72.335,29.12,99.503
			c-5.25-0.167-10.504-0.381-15.75-0.711c-2.277-0.147-4.197,0.213-5.834,0.878c-8.559-1.742-18.834,3.966-15.074,13.391
			c10.275,25.75,28.51,45.696,52.628,57.965c-2.6,0.025-5.21,0-7.848-0.102c-1.618-0.065-3.027,0.157-4.322,0.513
			c-7.84,1.275-14.523,8.644-9.036,16.443c17.024,24.201,40.527,42.111,69.142,53.349c-16.831,16.834-40.687,22.896-67.087,20.982
			c-1.036-0.071-1.998-0.046-2.902,0.061c-1.98,0.025-4.004,0.452-5.954,1.479c-5.562,2.925-8.419,10.364-4.509,15.416
			c0.505,0.65,1.061,1.244,1.582,1.869c-10.795-1.071-21.538-2.656-32.286-4.845C7.37,354.926-7.125,369.215,3.965,378.34
			c21.731,17.88,46.159,31.189,73.389,41.218c2.633,0.97,4.977,1.062,7.016,0.584c151.191,36.922,287.02-68.375,330.868-193.593
			c4.062-11.598,7.292-24.1,9.298-36.881c18.499-6.302,36.668-13.487,54.812-20.744
			C492.214,163.776,488.945,144.728,477.956,143.961z M382.505,242.165c-46.494,106.561-168.17,190.063-298.474,154.527
			c-1.46-0.4-2.813-0.508-4.108-0.482c-5.553-2.168-10.981-4.529-16.275-7.094c10.648,0.614,21.35,0.757,32.113,0.411
			c14.632-0.478,16.011-18.961,4.098-22.059c-0.297-0.162-0.556-0.351-0.868-0.478c25.339-5.342,47.185-18.844,61.649-40.521
			c4.461-6.688,0.302-12.995-5.781-15.555c-1.175-0.873-2.554-1.619-4.243-2.127c-21.175-6.403-39.385-17.021-53.954-31.393
			c14.84-1.219,29.44-4.006,43.907-7.733c14.582-3.748,9.666-23.11-3.875-22.19c-1.335-0.549-2.808-0.945-4.491-1.072
			c-30.971-2.274-55.957-17.072-70.688-40.024c12.662,0.513,25.334,0.574,38.021,0.579c14.388,0,15.97-17.737,4.798-21.719
			c-27.038-18.895-43.589-44.265-44.75-73.442c41.116,32.651,90.302,56.477,146.741,56.843c3.329,0.021,5.934-0.939,7.894-2.438
			c2.988-1.143,5.522-3.387,6.733-6.962c14.939-43.925,65.227-82.354,118.642-74.59c21.018,3.062,38.588,13.035,49.592,29.407
			C414.46,151.665,398.948,204.496,382.505,242.165z M423.266,132.399c-0.879-3.56-1.899-7.079-3.148-10.521
			c3.915-1.732,7.851-3.393,11.801-5.018c-2.097,3.402-4.271,6.754-6.545,10.06C424.079,128.789,423.454,130.631,423.266,132.399z
			 M426.658,162.546c-0.04-6.327-0.411-12.629-1.31-18.834c0.868,1.011,1.894,1.96,3.25,2.757
			c5.509,3.255,11.156,6.241,16.854,9.135C439.216,157.997,432.95,160.302,426.658,162.546z"/>
		<path d="M310.438,121.994c-16.767,0-16.767,26,0,26C327.21,147.993,327.21,121.994,310.438,121.994z"/>
	</g>
</g>
<g>
</g>
<g>
</g>
<g>
</g>
<g>
</g>
<g>
</g>
<g>
</g>
<g>
</g>
<g>
</g>
<g>
</g>
<g>
</g>
<g>
</g>
<g>
</g>
<g>
</g>
<g>
</g>
<g>
</g>
</svg>
