<?xml version="1.0" encoding="iso-8859-1"?>
<!-- Generator: Adobe Illustrator 16.0.0, SVG Export Plug-In . SVG Version: 6.00 Build 0)  -->
<!DOCTYPE svg PUBLIC "-//W3C//DTD SVG 1.1//EN" "http://www.w3.org/Graphics/SVG/1.1/DTD/svg11.dtd">
<svg version="1.1" id="Capa_1" xmlns="http://www.w3.org/2000/svg" xmlns:xlink="http://www.w3.org/1999/xlink" x="0px" y="0px"
	 width="461.453px" height="461.453px" viewBox="0 0 461.453 461.453" style="enable-background:new 0 0 461.453 461.453;"
	 xml:space="preserve">
<g>
	<g>
		<path d="M436.594,222.171C420.791,111.618,342.637,29.314,227.986,36.855c-0.51-9.049-1.881-18.037-3.628-26.923
			c-1.432-7.267-9.98-11.339-16.714-9.486c-7.528,2.067-10.92,9.45-9.483,16.707c1.237,6.287,2.199,12.522,2.641,18.854
			C92.094,31.676,10.907,110.928,26.669,224.304c1.181,8.495,8.094,11.009,14.548,9.358c3.468,1.909,7.8,1.971,12.2-1.244
			c35.987-26.314,72.541-26.314,108.534,0c0.335,0.244,0.667,0.381,1,0.589c3.4,5.901,10.471,9.384,17.804,4.505
			c14.439-9.618,28.975-16.047,43.627-18.937c5.522,49.317,18.34,97.559,18.781,147.5c0.295,32.524-13.774,57.798-45.847,68.827
			c-36.249,12.456-55.596-26.146-61.256-54.827c-3.379-17.179-29.563-9.887-26.189,7.221
			c15.541,78.871,92.516,99.945,144.951,38.258c20.342-23.938,16.32-64.033,13.822-92.693c-3.372-38.801-12.888-76.8-17.235-115.428
			c13.635,1.574,27.396,6.414,41.284,14.985c1.036,0.635,2.057,1.087,3.067,1.427c3.839,3.839,9.648,5.535,15.742,1.971
			c34.469-20.19,68.856-20.891,100.69,4.672c10.653,8.551,24.856-1.488,23.745-11.507
			C436.645,226.939,436.955,224.679,436.594,222.171z M157.658,197.893c-34.583-17.742-71.982-16.61-106.203,3.443
			c-3.877-84.563,59.836-136.715,139.83-138.192C164.232,102.98,153.258,149.012,157.658,197.893z M185.399,203.489
			c-5.438-48.007,3.88-93.267,32.821-131.646c44.463,29.219,66.694,75.753,69.223,127.401
			C253.482,184.919,218.513,187.143,185.399,203.489z M314.85,203.809c-1.183-54.446-22.038-104.581-62.291-139.827
			c80.953,5.017,134.287,62.154,153.156,140.949C376.572,190.845,345.744,190.651,314.85,203.809z"/>
	</g>
</g>
<g>
</g>
<g>
</g>
<g>
</g>
<g>
</g>
<g>
</g>
<g>
</g>
<g>
</g>
<g>
</g>
<g>
</g>
<g>
</g>
<g>
</g>
<g>
</g>
<g>
</g>
<g>
</g>
<g>
</g>
</svg>
