<?xml version="1.0" encoding="iso-8859-1"?>
<!-- Generator: Adobe Illustrator 16.0.0, SVG Export Plug-In . SVG Version: 6.00 Build 0)  -->
<!DOCTYPE svg PUBLIC "-//W3C//DTD SVG 1.1//EN" "http://www.w3.org/Graphics/SVG/1.1/DTD/svg11.dtd">
<svg version="1.1" id="Capa_1" xmlns="http://www.w3.org/2000/svg" xmlns:xlink="http://www.w3.org/1999/xlink" x="0px" y="0px"
	 width="487.398px" height="487.398px" viewBox="0 0 487.398 487.398" style="enable-background:new 0 0 487.398 487.398;"
	 xml:space="preserve">
<g>
	<g>
		<path d="M379.227,46.251c-87.844-58.98-208.23-27.888-274.96,49.48c-24.682,28.62-38.25,60.702-44.468,94.257
			c-3.618-3.712-7.3-7.373-11.113-10.933c-24.557-22.917-65.833,11.293-41.025,34.449c12.921,12.055,24.667,25.049,35.79,38.557
			c3.423,4.159,6.812,8.348,10.108,12.613c3.037,3.926,6.086,7.841,9.034,11.837c4.316,5.85,11.512,8.485,18.89,8.541
			c9.179,1.925,19.002-1.041,25.23-11.725c1.284-2.204,2.668-4.316,4.014-6.454c6.157-9.75,12.984-18.819,20.508-27.249
			c12.458-13.949,26.763-26.243,43.195-37.023c12.271-8.048,11.601-26.979,2.862-36.516c-10.489-11.445-25.895-10.115-38.164-2.071
			c-7.835,5.139-15.318,10.714-22.452,16.655c1.513-5.149,3.265-10.268,5.309-15.366c19.573-48.855,72.996-85.503,125.134-96.466
			c87.351-18.377,157.087,55.421,178.049,128.534c24.277,84.701-12.121,201.844-113.93,220.704
			c-61.601,11.405-120.907-18.062-160.149-63.012c-0.124,0.065-0.267,0.132-0.391,0.203c-0.287-0.655-0.701-1.229-1.034-1.854
			c-1.513-2.772-3.506-5.221-5.913-7.257c-6.073-5.134-14.462-7.703-22.978-6.058c-14.508,2.798-24.387,16.66-21.726,30.478
			l0.49,2.529c0.582,3.026,1.815,5.783,3.395,8.287c0.708,1.127,1.518,2.158,2.392,3.153c0.719,0.812,1.43,1.604,2.247,2.326
			c39.689,45.112,96.441,76.25,159.555,83.675c115.864,13.629,199.021-80.197,216.916-181.609
			C500.138,197.752,457.244,98.63,379.227,46.251z"/>
	</g>
</g>
<g>
</g>
<g>
</g>
<g>
</g>
<g>
</g>
<g>
</g>
<g>
</g>
<g>
</g>
<g>
</g>
<g>
</g>
<g>
</g>
<g>
</g>
<g>
</g>
<g>
</g>
<g>
</g>
<g>
</g>
</svg>
