<?xml version="1.0" encoding="iso-8859-1"?>
<!-- Generator: Adobe Illustrator 16.0.0, SVG Export Plug-In . SVG Version: 6.00 Build 0)  -->
<!DOCTYPE svg PUBLIC "-//W3C//DTD SVG 1.1//EN" "http://www.w3.org/Graphics/SVG/1.1/DTD/svg11.dtd">
<svg version="1.1" id="Capa_1" xmlns="http://www.w3.org/2000/svg" xmlns:xlink="http://www.w3.org/1999/xlink" x="0px" y="0px"
	 width="447.843px" height="447.843px" viewBox="0 0 447.843 447.843" style="enable-background:new 0 0 447.843 447.843;"
	 xml:space="preserve">
<g>
	<g>
		<path d="M151.071,313.587c-1.005,20.459-1.145,40.924-1.145,61.408c0,13.411,20.799,13.411,20.799,0
			c0-20.454,0.14-40.893,1.145-61.316c14.386-4.388,24.854-17.758,24.854-33.581c0-19.393-15.719-35.108-35.109-35.108
			s-35.109,15.716-35.109,35.108C126.506,295.81,136.832,309.114,151.071,313.587z"/>
		<path d="M317.624,3.207c-0.417,0.015-0.777,0.109-1.168,0.167c-0.473-0.069-0.924-0.158-1.432-0.167
			c-44.656-0.696-83.665,13.908-108.847,52.034c-22.417,33.946-26.108,78.805-25.35,119.025
			c-54.009-2.798-108.042-4.367-162.198-1.777c-8.444,0.404-12.766,7.002-13.01,13.586c-0.276,1.031-0.472,2.127-0.521,3.323
			c-3.021,77.777-0.452,155.658-5.07,233.381c-0.597,10.055,8.138,14.244,15.846,12.695c1.341,0.467,2.791,0.808,4.446,0.838
			c94.173,1.757,188.301,5.037,282.424,8.455c8.521,0.31,12.838-5.987,13.03-12.578c1.406-2.016,2.255-4.57,2.188-7.719
			c-1.523-76.708-0.432-153.467-6.764-229.997c-0.676-8.155-7.068-12.433-13.477-12.908c-1.066-0.314-2.189-0.551-3.434-0.622
			c-13.583-0.774-27.156-1.602-40.73-2.439c0.686-35.858,19.911-74.05,57.732-81.778c0.827-0.005,1.69-0.084,2.6-0.297
			c19.113-4.522,37.587,7.561,51.628,22.351c13.767,14.508,14.386,37.49,11.902,56.018c-0.233,1.747-0.061,3.245,0.396,4.524
			c-0.31,5.418,3.001,11.075,10.003,11.075c16.646-0.005,33.084-0.432,49.566-2.971c0.056-0.01,0.102-0.03,0.157-0.041
			c4.967-0.302,9.831-3.607,10.075-9.983C450.93,91.728,418.02-1.051,317.624,3.207z M285.074,207.458
			c5.042,69.833,4.469,139.843,5.718,209.822c-87.667-3.169-175.34-6.154-263.052-7.86c3.453-70.056,1.79-140.208,4.119-210.3
			C116.409,196.106,200.688,202.512,285.074,207.458z M427.023,167.984c-9.394,1.141-18.849,1.498-28.31,1.587
			c2.133-23.686-2.874-46.852-18.483-65.493c-22.744-27.164-61.876-36.143-93.755-20.987
			c-34.226,16.278-52.943,57.392-53.715,94.148c-10.369-0.627-20.733-1.236-31.095-1.828c-0.65-34.07,2.245-68.784,17.019-99.922
			c7.751-16.349,33.129-34.197,48.657-42.394c19.18-10.125,41.07-13.565,62.52-10.765c42.411,5.54,75.616,33.426,87.723,74.339
			C419.386,102.798,430.411,167.573,427.023,167.984z"/>
	</g>
</g>
<g>
</g>
<g>
</g>
<g>
</g>
<g>
</g>
<g>
</g>
<g>
</g>
<g>
</g>
<g>
</g>
<g>
</g>
<g>
</g>
<g>
</g>
<g>
</g>
<g>
</g>
<g>
</g>
<g>
</g>
</svg>
