<?xml version="1.0" encoding="iso-8859-1"?>
<!-- Generator: Adobe Illustrator 16.0.0, SVG Export Plug-In . SVG Version: 6.00 Build 0)  -->
<!DOCTYPE svg PUBLIC "-//W3C//DTD SVG 1.1//EN" "http://www.w3.org/Graphics/SVG/1.1/DTD/svg11.dtd">
<svg version="1.1" id="Capa_1" xmlns="http://www.w3.org/2000/svg" xmlns:xlink="http://www.w3.org/1999/xlink" x="0px" y="0px"
	 width="441.624px" height="441.624px" viewBox="0 0 441.624 441.624" style="enable-background:new 0 0 441.624 441.624;"
	 xml:space="preserve">
<g>
	<g>
		<path d="M287.059,0.305c-24.872,2.729-46.25,24.229-48.367,48.96c-2.382,27.809,18.854,43.467,43.274,46.405
			c7.571,75.995-55.579,118.078-125.479,118.342V94.94c10.057-1.589,20.149-4.809,27.81-10.488
			c14.756-10.956,19.905-23.897,18.641-36.315c-2.724-26.799-35.312-51.155-65.575-47.832c-24.867,2.729-46.242,24.229-48.365,48.96
			c-2.234,26.088,16.323,41.469,38.791,45.701V347.75c-20.571,6.419-36.945,25.451-38.791,46.931
			c-2.671,31.21,24.387,47.154,52.336,46.941c14.16-0.106,31.362-3.148,42.962-11.751c14.756-10.958,19.905-23.902,18.641-36.317
			c-2.153-21.155-22.917-40.721-46.451-46.423V242.763c88.486,0.254,160.248-57.609,153.733-148.566
			c8.673-1.772,17.138-4.829,23.765-9.745c14.757-10.956,19.9-23.897,18.642-36.315C349.905,21.338,317.319-3.019,287.059,0.305z
			 M142.007,29.209c29.721-3.077,45.217,31.861,10.009,38.788c-0.462-0.008-0.884-0.074-1.374-0.043
			C120.499,69.939,103.183,33.235,142.007,29.209z M152.016,413.419c-0.462-0.011-0.884-0.076-1.374-0.041
			c-28.878,1.895-45.946-31.696-13.19-38.054c3.669,1.106,7.772,0.853,11.25-0.722C173.828,376.878,184.461,407.03,152.016,413.419z
			 M301.709,67.997c-0.463-0.008-0.884-0.074-1.377-0.043c-30.143,1.98-47.458-34.726-8.632-38.745
			C321.422,26.126,336.915,61.07,301.709,67.997z"/>
	</g>
</g>
<g>
</g>
<g>
</g>
<g>
</g>
<g>
</g>
<g>
</g>
<g>
</g>
<g>
</g>
<g>
</g>
<g>
</g>
<g>
</g>
<g>
</g>
<g>
</g>
<g>
</g>
<g>
</g>
<g>
</g>
</svg>
