<?xml version="1.0" encoding="iso-8859-1"?>
<!-- Generator: Adobe Illustrator 16.0.0, SVG Export Plug-In . SVG Version: 6.00 Build 0)  -->
<!DOCTYPE svg PUBLIC "-//W3C//DTD SVG 1.1//EN" "http://www.w3.org/Graphics/SVG/1.1/DTD/svg11.dtd">
<svg version="1.1" id="Capa_1" xmlns="http://www.w3.org/2000/svg" xmlns:xlink="http://www.w3.org/1999/xlink" x="0px" y="0px"
	 width="501.953px" height="501.953px" viewBox="0 0 501.953 501.953" style="enable-background:new 0 0 501.953 501.953;"
	 xml:space="preserve">
<g>
	<g>
		<path d="M270.192,103.7c-4.772-0.16-9.587-0.269-14.401-0.269c-6.281,0-11.946,0.183-17.311,0.551
			c-9.77,0.67-17.384,8.912-17.331,18.766c0.155,27.87-0.688,58.089-2.663,95.085c-0.541,9.91,7.051,18.621,16.91,19.41
			c10.488,0.849,20.82,1.135,30.77,1.315c9.942,0,18.012-7.779,18.372-17.699c1.203-32.761,2.325-65.519,3.336-98.302
			C288.168,112.5,280.242,104.038,270.192,103.7z M258.833,212.399c-4.588-0.119-9.277-0.297-14-0.561
			c1.582-31.232,2.331-57.719,2.336-82.263c4.486-0.155,9.501-0.175,14.478-0.086C260.783,157.125,259.848,184.762,258.833,212.399z
			"/>
		<path d="M353.746,316.642c-0.493-2.488-2.021-6.886-4.2-10.644c-6.459-11.12-16.412-19.448-29.579-24.765
			c-2.097-0.849-4.291-1.28-6.494-1.28c-9.06,0-16.169,7.023-16.55,16.326c-1.143,28.467-2.325,56.919-3.529,85.381
			c-0.197,4.834,1.463,9.349,4.688,12.715c3.158,3.291,7.449,5.099,12.065,5.099c1.452,0,2.914-0.188,4.367-0.549
			c14.02-3.564,24.699-9.186,31.727-16.706c4.921-5.261,9.78-12.075,11.929-26.192c1.452-9.506-1.56-28.061-4.164-38.191
			C353.913,317.455,353.827,317.069,353.746,316.642z M332.473,352.097c-1.233,8.124-3.255,10.277-5.21,12.369
			c-1.701,1.818-4.194,3.534-7.332,5.078c0.797-18.869,1.579-37.729,2.346-56.599c1.889,1.843,3.488,3.89,4.789,6.129
			c0.559,0.96,1.106,2.427,1.168,2.59c0.172,0.868,0.37,1.747,0.599,2.641C331.453,334.497,333.057,348.333,332.473,352.097z"/>
		<path d="M182.082,118.454c-34.949,18.588-39.804,45.946-37.739,65.491l0.041,0.609c0.079,2.328,0.5,6.911,2.48,11.377
			c5.756,12.972,19.952,21.231,33.07,27.591c2.44,1.184,4.992,1.788,7.586,1.788c8.732,0,15.658-6.802,16.115-15.828
			c1.473-29.468,2.193-53.804,2.272-76.579c0.015-4.619-1.663-8.856-4.733-11.933C196.331,116.098,188.513,115.031,182.082,118.454z
			 M178.385,192.94c-4.171-2.798-6.759-5.314-7.736-7.522c-0.109-0.287-0.251-1.077-0.271-1.707
			c-0.025-0.744-0.079-1.488-0.16-2.372c-1.27-11.997,1.703-21.51,9.478-29.457C179.457,164.633,179.025,178.13,178.385,192.94z"/>
		<path d="M264.571,273.764c-11.791-0.762-21.36-1.585-30.127-2.59c-10.491-1.147-19.446,6.683-19.987,16.899
			c-1.107,21.165-2.049,42.34-2.981,63.516l-1.211,27.086c-0.432,9.455,6.226,17.914,15.476,19.682
			c10.988,2.103,22.048,3.539,32.88,4.256c0.284,0.02,0.919,0.04,1.203,0.04c9.75,0,17.718-7.652,18.144-17.438
			c1.3-30.777,2.58-61.556,3.809-92.333C282.171,283,274.458,274.424,264.571,273.764z M252.333,376.003
			c-5.253-0.538-10.537-1.244-15.835-2.133l0.952-21.129c0.808-18.281,1.623-36.557,2.539-54.837c4.819,0.462,9.93,0.894,15.511,1.3
			C254.468,324.813,253.41,350.411,252.333,376.003z"/>
		<path d="M415.691,308.269c-0.223-1.523-0.432-2.931-0.614-3.956c-0.375-2.148-0.959-4.28-1.731-6.357
			c-15.106-40.218-46.026-68.269-87.402-79.488c1.011-27.746,1.971-55.492,2.844-83.241c3.524,0.807,7.384,1.742,10.481,2.499
			c7.221,1.752,11.42,2.76,13.888,3.092c2.818,0.386,5.643,0.576,8.395,0.576c22.104,0,38.552-11.829,44-31.646
			c3.296-11.984,0.798-26.321-6.53-37.412c-6.316-9.566-15.503-15.614-25.887-17.029c-4.565-0.625-13.046-2.435-21.241-4.182
			c-7.521-1.607-14.752-3.146-20.611-4.174c0.116-4.56,0.238-9.122,0.34-13.688c0.213-9.209-2.834-17.311-8.811-23.425
			C316.702,3.587,307.825,0,298.457,0c-19.027,0-33.703,14.045-34.129,32.662l-0.234,9.14c-6.888-0.068-13.794,0.041-20.215,0.323
			c-0.028-0.437-0.058-0.828-0.083-1.15c-1.866-20.784-19.246-31.656-35.447-31.656c-9.532,0-18.367,3.687-24.243,10.11
			c-4.009,4.388-8.563,12.093-7.51,23.856c0.213,2.382,0.381,6.01,0.548,9.641c-59.798,19.565-97.893,68.959-95.268,124.261
			c0.079,1.6,0.183,3.229,0.267,4.534c0.056,0.848,0.104,1.528,0.114,1.851c0.01,0.696,0.041,1.404,0.099,2.158
			c4.329,58.3,50.812,86.105,90.979,99.267c-1.196,22.638-2.224,45.539-3.212,67.78c-7.541-3.585-15.272-7.479-19.746-10.004
			c-6.987-3.93-14.277-5.926-21.683-5.926c-19.446,0-37.402,14.63-42.69,34.789c-5.047,19.267,2.747,37.39,20.347,47.297
			c16.39,9.227,40.482,20.261,59.06,27.127c-0.383,6.225-0.79,12.461-1.231,18.691c-0.65,9.298,2.08,17.509,7.904,23.755
			c5.944,6.378,14.792,10.034,24.273,10.034c16.311,0,33.596-10.974,35.073-31.977c0.104-1.473,0.201-2.955,0.3-4.438
			c5.71,0.762,11.451,1.371,17.207,1.828c-0.031,2.082-0.056,3.803-0.094,4.504c-0.388,9.252,2.524,17.402,8.435,23.572
			c6.045,6.307,14.912,9.922,24.326,9.922c16.468,0,33.616-11.126,34.536-32.372c0.051-1.214,0.106-4.443,0.152-7.962
			c35.479-5.891,64.281-22.206,83.415-47.297c19.429-25.466,25.086-59.438,16.804-100.949
			C416.209,311.889,415.94,309.99,415.691,308.269z M379.029,398.56c-19.495,25.553-48.424,34.652-69.244,37.775
			c-1.249,0.188-2.498,0.35-3.772,0.513c-8.77,1.076-15.493,9.014-15.635,18.464l-0.071,4.52c-0.056,3.706-0.106,7.353-0.157,8.627
			c-0.3,6.962-6.617,7.5-8.557,7.5c-2.29,0-4.418-0.731-5.55-1.909c-0.33-0.346-1.361-1.422-1.229-4.448
			c0.056-1.193,0.106-5.281,0.163-9.303l0.04-3.118c0.132-9.933-7.53-18.139-17.448-18.697c-10.245-0.573-20.541-1.696-30.628-3.341
			c-0.988-0.157-1.97-0.233-2.927-0.233c-9.468,0-17.06,7.149-17.659,16.63c-0.279,4.413-0.556,8.815-0.869,13.213
			c-0.521,7.419-7.701,7.795-9.135,7.795c-2.232,0-4.238-0.676-5.259-1.762c-0.784-0.849-1.117-2.26-0.978-4.21
			c0.546-7.83,1.051-15.671,1.523-23.501c0.536-8.704-5.09-17.123-13.373-20.018c-17.476-6.124-42.909-17.631-59.159-26.776
			c-9.138-5.134-9.366-12.654-7.952-18.047c1.955-7.46,8.768-15.386,17.54-15.386c2.882,0,5.888,0.868,8.93,2.579
			c7.866,4.438,24.034,12.314,34.588,16.874c2.247,0.97,4.575,1.452,6.932,1.452c8.896,0,15.922-6.896,16.333-16.057l0.531-11.811
			c1.086-24.39,2.214-49.612,3.554-74.362c0.5-8.917-5.37-17.296-13.977-19.926c-49.241-14.982-74.522-40.431-77.299-77.762
			l-0.031-0.785c-0.01-0.477-0.073-1.582-0.162-2.996c-0.079-1.191-0.17-2.677-0.244-4.124
			c-2.445-51.43,39.113-87.054,81.388-99.551c8.589-2.542,14.522-10.852,14.102-19.764l-0.15-3.379
			c-0.208-4.52-0.426-9.278-0.69-12.279c-0.172-1.881,0.104-3.23,0.8-4.004c0.919-1.003,2.907-1.652,5.055-1.652
			c0.904,0,8.854,0.223,9.552,7.982c0.114,1.305,0.198,3.862,0.29,6.391l0.053,1.424c0.337,9.78,8.305,17.44,18.131,17.44
			c0.297,0,0.957-0.021,1.244-0.043c7.15-0.482,14.698-0.726,22.445-0.726c3.682,0,7.368,0.051,11.558,0.16
			c9.982,0,18.006-7.81,18.266-17.773l0.432-16.899c0.152-6.561,5.742-7.264,8.14-7.264c2.376,0,4.534,0.754,5.764,2.013
			c0.36,0.374,1.482,1.519,1.411,4.649c-0.157,6.67-0.33,13.342-0.513,20.017c-0.254,9.643,7.059,18.04,16.65,19.121
			c5.165,0.586,15.534,2.803,24.685,4.758c9.069,1.935,17.641,3.765,23.166,4.512c3.636,0.495,6.189,3.318,7.697,5.596
			c3.164,4.789,4.454,11.451,3.154,16.193c-2.285,8.323-8.658,12.548-18.937,12.548c-1.584,0-3.229-0.117-4.874-0.34
			c-1.407-0.208-7.104-1.59-11.273-2.6c-10.304-2.501-17.94-4.311-22.455-4.814c-10.598-1.155-19.524,6.833-19.85,17.227
			c-1.006,32.702-2.128,65.394-3.336,98.083c-0.336,9.069,6.129,17.458,15.025,19.51c35.276,8.176,61.637,31.128,74.209,64.617
			c0.214,0.563,0.366,1.152,0.482,1.757c0.147,0.833,0.305,1.95,0.482,3.159c0.32,2.168,0.671,4.56,1.041,6.448
			C397.761,352.34,393.74,379.285,379.029,398.56z"/>
	</g>
</g>
<g>
</g>
<g>
</g>
<g>
</g>
<g>
</g>
<g>
</g>
<g>
</g>
<g>
</g>
<g>
</g>
<g>
</g>
<g>
</g>
<g>
</g>
<g>
</g>
<g>
</g>
<g>
</g>
<g>
</g>
</svg>
