<?xml version="1.0" encoding="iso-8859-1"?>
<!-- Generator: Adobe Illustrator 16.0.0, SVG Export Plug-In . SVG Version: 6.00 Build 0)  -->
<!DOCTYPE svg PUBLIC "-//W3C//DTD SVG 1.1//EN" "http://www.w3.org/Graphics/SVG/1.1/DTD/svg11.dtd">
<svg version="1.1" id="Capa_1" xmlns="http://www.w3.org/2000/svg" xmlns:xlink="http://www.w3.org/1999/xlink" x="0px" y="0px"
	 width="473.167px" height="473.167px" viewBox="0 0 473.167 473.167" style="enable-background:new 0 0 473.167 473.167;"
	 xml:space="preserve">
<g>
	<g>
		<path d="M108.262,196.284c14.137,10.019,30.132,15.313,46.263,15.313c21.127,0,41.941-8.887,58.603-25.027
			c4.461-4.321,9.12-9.361,10.369-10.852c0.513-0.619,0.993-1.343,1.419-2.138c15.988-30.211,13.322-61.456-7.322-85.724
			c-4.918-5.784-9.277-10.682-10.847-12.195c-0.774-0.744-1.721-1.409-2.818-1.97c-14.398-7.404-28.979-11.159-43.325-11.159
			c-19.723,0-38.77,6.993-56.606,20.794c-0.774,0.597-1.435,1.242-1.96,1.917c-1.277,1.65-5.414,7.297-9.082,12.69
			C69.268,132.663,75.564,173.108,108.262,196.284z M117.892,101.916c0.348-0.368,0.66-0.754,0.939-1.143
			c1.473-2.039,6.995-6.688,13.137-9.771c13.84-6.959,29.331-8.449,44.755-4.336c7.259,1.935,17.293,8.132,22.363,13.815
			c13.083,14.652,17.217,31.714,11.943,49.342c-1.855,6.198-5.078,12.39-6.396,13.764c-11.923,16.031-28.708,24.765-47.421,24.765
			c-22.838,0-44.511-13.299-52.707-32.342C100.096,145.756,95.963,125.081,117.892,101.916z"/>
		<path d="M318.914,115.156c10.587,7.498,22.576,11.464,34.672,11.464c15.828,0,31.412-6.645,43.874-18.718
			c3.361-3.25,6.748-6.921,7.698-8.061c0.437-0.526,0.838-1.123,1.183-1.777c11.989-22.645,9.974-46.083-5.524-64.302
			c-3.631-4.268-6.865-7.904-8.044-9.042c-0.649-0.629-1.447-1.186-2.361-1.655c-10.744-5.525-21.637-8.328-32.366-8.328
			c-14.762,0-28.995,5.22-42.315,15.521c-0.649,0.505-1.203,1.051-1.65,1.627c-0.949,1.216-4.001,5.388-6.718,9.374
			C289.589,67.342,294.331,97.731,318.914,115.156z M327.577,45.707c0.299-0.32,0.559-0.64,0.797-0.97
			c0.884-1.221,4.712-4.55,9.201-6.794c9.902-4.972,20.962-6.038,32.002-3.095c5.128,1.368,12.228,5.75,15.827,9.777
			c9.44,10.575,12.31,22.374,8.511,35.066c-1.441,4.811-3.742,8.919-4.407,9.615c-8.622,11.57-20.597,17.808-33.941,17.808
			c-16.295,0-31.747-9.463-37.577-23.008C314.861,76.853,311.952,62.215,327.577,45.707z"/>
		<path d="M466.962,161.305c-0.152-1.378-0.604-2.709-1.346-3.963c-8.089-13.729-21.957-20.571-38.653-18.527
			c-0.061,0.005-0.117,0.016-0.168,0.025c-0.233-0.025-0.472-0.045-0.73-0.045c-12.197,0-24.421-0.134-36.653-0.272
			c-12.264-0.134-24.542-0.269-36.811-0.269c-22.637,0-52.455,0.406-82.456,3.577c-1.219-0.099-2.523,0.041-3.803,0.432
			c-11.67,3.562-21.079,11.626-25.822,22.13c-0.47,1.036-0.792,2.112-0.967,3.199c-0.566,1.241-0.869,2.6-0.896,4.034
			c-0.119,6.229-0.269,12.459-0.414,18.682c-0.213,9.049-0.396,18.214-0.536,27.414c0.858,0.007,1.722,0.018,2.58,0.022
			c0.874,0.005,1.747,0.016,2.62,0.025c3.22,0.03,6.435,0.084,9.648,0.15c0.863,0.02,1.727,0.069,2.585,0.089
			c0.868,0.02,1.741,0.063,2.609,0.089c0.133-9.521,0.325-19.007,0.539-28.366c0.132-5.631,0.259-11.268,0.375-16.899
			c2.778-5.454,6.947-9.163,12.4-11.029c29.676-3.115,59.215-3.514,81.659-3.514c12.233,0,24.476,0.134,36.704,0.269
			c12.02,0.135,24.028,0.252,35.703,0.252c0.771,0.091,1.604,0.114,2.488,0c1.513-0.183,2.976-0.287,4.393-0.287
			c7.53,0,12.715,2.844,16.315,8.955c0.188,0.314,0.386,0.606,0.589,0.884c2.554,33.352,3.91,67.897,4.148,105.505
			c-8.368,0.021-17.828,0.122-27.299,0.549c-0.574-21.521-1.676-49.242-2.666-67.035c-0.355-6.307-5.515-9.61-10.431-9.61
			c-2.823,0-5.464,1.072-7.226,2.933c-1.706,1.805-2.523,4.212-2.377,6.962c1.188,21.155,2.636,58.564,3.007,82.507
			c-15.895-0.071-31.794-0.224-47.688-0.371c-11.091-0.111-22.181-0.183-33.281-0.264c0.097,0.868,0.183,1.736,0.274,2.609
			c0.081,0.863,0.147,1.731,0.224,2.601c0.243,2.863,0.441,5.738,0.584,8.617c0.046,0.868,0.106,1.731,0.142,2.6
			c0.036,0.868,0.051,1.731,0.087,2.6c10.669,0.087,21.343,0.117,32.017,0.229c19.845,0.203,39.679,0.406,59.523,0.432h0.016
			c3.453,0,6.357-1.64,7.973-4.499c1.609-2.854,1.681-6.591,0.224-9.531l-0.021-1.798c10.75-0.482,21.454-0.548,31.479-0.548
			c1.854,0,3.564-0.487,5.012-1.401c0.178,0.005,0.355,0.01,0.533,0.01c2.803,0,5.464-1.051,7.292-2.895
			c1.777-1.777,2.712-4.153,2.706-6.875c-0.086-40.975-1.503-78.648-4.331-115.161C468.688,164.595,468.044,162.8,466.962,161.305z
			 M426.12,141.394v0.005l0,0V141.394z"/>
		<path d="M294.017,226.384c3.615,2.48,6.84,5.248,9.699,8.279c0.878,0.93,1.808,1.836,2.62,2.813
			c0.938,1.132,1.771,2.336,2.63,3.529c-0.102-12.197-0.188-23.674-0.203-32.243c-0.021-10.026-12.232-11.976-17.331-6.875
			c-1.772,1.779-2.706,4.161-2.701,6.886c0.01,4.174,0.03,9.056,0.065,14.36c0.895,0.495,1.758,1.005,2.61,1.531
			C292.3,225.213,293.158,225.797,294.017,226.384z"/>
		<path d="M311.17,314.998c-0.051-2.184-0.106-4.357-0.168-6.53c-0.025-0.874-0.046-1.737-0.071-2.601
			c-0.025-0.873-0.076-1.736-0.106-2.6c-0.106-2.879-0.203-5.753-0.36-8.622c-0.046-0.874-0.137-1.732-0.188-2.601
			c-0.051-0.873-0.138-1.746-0.193-2.609c-0.157-2.214-0.279-4.429-0.492-6.632c-0.076-0.833-0.203-1.687-0.29-2.529
			c-0.437-4.052-0.985-8.186-1.909-12.248c-0.229-1.016-0.538-2.011-0.812-3.006c-0.716-2.59-1.563-5.129-2.66-7.551
			c-1.407-3.098-3.144-6.028-5.368-8.658c-1.239-1.463-2.757-2.844-4.377-4.169c-0.843-0.69-1.696-1.376-2.615-2.026
			c-0.843-0.584-1.722-1.147-2.615-1.691c-1.868-1.143-3.823-2.188-5.845-3.11c-3.225-1.483-6.561-2.638-9.831-3.443
			c-2.401-0.592-4.769-1.033-6.987-1.19c-2.863-0.198-5.753-0.265-8.647-0.312c-0.854-0.016-1.706-0.051-2.56-0.051
			c-0.884-0.005-1.767,0.021-2.65,0.021c-3.225,0.015-6.444,0.045-9.674,0.124c-0.863,0.021-1.731,0.041-2.595,0.063
			c-0.868,0.021-1.737,0.041-2.605,0.061c-4.298,0.099-8.589,0.183-12.842,0.147c-7.467-0.068-14.935-0.152-22.406-0.23
			c-7.399-0.082-14.795-0.16-22.193-0.229c-29.745-0.259-59.512-0.254-89.235,1.081c-16.687,0.749-33.353,1.915-49.965,3.677
			c-1.274-0.145-2.664-0.041-4.159,0.416c-14.446,4.413-26.708,14.33-32.979,28.219c-0.577,1.279-0.952,2.61-1.112,3.94
			c-0.655,1.279-1.076,2.772-1.107,4.52c-0.947,48.297-2.956,96.532,0,144.793c0.254,4.159,2.521,6.973,5.438,8.46
			c1.493,1.422,3.542,2.366,6.208,2.366c19.111,0,38.214-0.086,57.307-0.97c0.043,6.403,0.069,12.354,0.079,17.489
			c0.005,1.782,0.411,3.295,1.066,4.59c1.147,3.275,3.979,5.891,8.495,5.896c54.027,0.062,108.049,1.117,162.074,1.179
			c8.452,0.01,10.996-9.12,7.655-14.65c-0.016-2.133-0.046-4.397-0.076-6.743c15.472-0.787,30.955-0.914,46.453-0.92
			c2.447,0,4.377-0.792,5.834-2.011c5.556,0.818,11.812-2.376,11.797-9.638c-0.071-31.62-1.331-63.14-2.311-94.734
			C311.394,324.829,311.286,319.913,311.17,314.998z M249.392,418.258c-0.793-31.561-2.397-71.133-3.723-94.812
			c-0.721-12.948-20.937-13.02-20.203,0c1.643,29.422,3.737,83.513,4.149,116.123c-46.289-0.173-92.58-0.894-138.868-1.056
			c-0.145-32.489-0.759-84.782-0.81-113.381c-0.028-13.03-20.233-13.03-20.208,0c0.043,21.286,0.391,55.726,0.63,85.351
			c-16.328,0.751-32.662,0.924-49.002,0.949c-2.29-45.361-0.531-90.713,0.368-136.104c4.113-8.48,10.613-14.66,19.66-17.642
			c28.647-3.021,57.449-4.255,86.247-4.672c18.177-0.264,36.361-0.183,54.54-0.021c10.722,0.102,21.444,0.224,32.162,0.33
			c7.794,0.087,15.589,0.021,23.384-0.04c0.858-0.005,1.716-0.011,2.58-0.016c0.874-0.005,1.747-0.01,2.621-0.021
			c2.838-0.01,5.672-0.04,8.511-0.04c0.381,0,0.767,0,1.147-0.011c0.884,0,1.762,0,2.655-0.01c0.849,0,1.706,0.01,2.564,0.021
			c3.809,0.03,7.647,0.269,11.309,1.056c4.276,0.925,8.293,2.621,11.629,5.881c1.777,1.736,3.128,3.564,4.215,5.469
			c0.635,1.107,1.173,2.239,1.62,3.407c0.314,0.833,0.589,1.676,0.822,2.534c0.238,0.854,0.432,1.722,0.604,2.605
			c0.416,2.203,0.67,4.498,0.802,6.931c0.031,0.533,0.066,1.071,0.097,1.61c0.056,0.863,0.112,1.727,0.163,2.59
			c0.051,0.883,0.111,1.757,0.167,2.641c0.025,0.462,0.056,0.924,0.087,1.381c0.259,4.133,0.497,8.262,0.762,12.4
			c0.248,3.91,0.502,7.83,0.7,11.75c0.005,0.107,0.016,0.214,0.021,0.33c1.076,22.019,1.777,44.042,2.315,66.07
			c0.305,12.481,0.416,24.963,0.478,37.444C278.844,417.338,264.112,417.497,249.392,418.258z"/>
	</g>
</g>
<g>
</g>
<g>
</g>
<g>
</g>
<g>
</g>
<g>
</g>
<g>
</g>
<g>
</g>
<g>
</g>
<g>
</g>
<g>
</g>
<g>
</g>
<g>
</g>
<g>
</g>
<g>
</g>
<g>
</g>
</svg>
