<?xml version="1.0" encoding="iso-8859-1"?>
<!-- Generator: Adobe Illustrator 16.0.0, SVG Export Plug-In . SVG Version: 6.00 Build 0)  -->
<!DOCTYPE svg PUBLIC "-//W3C//DTD SVG 1.1//EN" "http://www.w3.org/Graphics/SVG/1.1/DTD/svg11.dtd">
<svg version="1.1" id="Capa_1" xmlns="http://www.w3.org/2000/svg" xmlns:xlink="http://www.w3.org/1999/xlink" x="0px" y="0px"
	 width="475.873px" height="475.873px" viewBox="0 0 475.873 475.873" style="enable-background:new 0 0 475.873 475.873;"
	 xml:space="preserve">
<g>
	<g>
		<path d="M120.261,169.681c15.843,11.233,33.784,17.167,51.882,17.167c23.684,0,47.017-9.958,65.688-28.043
			c4.982-4.827,10.192-10.468,11.588-12.131c0.609-0.729,1.168-1.566,1.646-2.476c17.939-33.883,14.938-68.928-8.227-96.151
			c-5.495-6.457-10.37-11.933-12.122-13.627c-0.899-0.868-2.005-1.645-3.28-2.3c-16.123-8.292-32.453-12.5-48.53-12.5
			c-22.099,0-43.442,7.836-63.418,23.285c-0.899,0.696-1.666,1.455-2.28,2.247c-1.427,1.836-6.033,8.127-10.146,14.157
			C76.489,98.287,83.568,143.672,120.261,169.681z M131.763,64.493c0.406-0.432,0.772-0.883,1.102-1.34
			c1.407-1.945,7.429-7.185,14.417-10.697c15.29-7.681,32.387-9.328,49.434-4.783c7.993,2.133,19.042,8.955,24.623,15.208
			c14.426,16.161,18.981,34.974,13.177,54.398c-2.184,7.305-5.748,13.784-6.967,15.068c-13.238,17.778-31.768,27.424-52.415,27.424
			c-25.212,0-49.129-14.665-58.168-35.668C112.116,112.815,107.571,90.051,131.763,64.493z"/>
		<path d="M344.85,260.631c-0.386-3.977-0.944-8.069-1.67-12.137c-7.506,0.04-15.133,0.076-22.912,0.097
			c0.822,3.173,1.233,6.535,1.427,10.15c0.655,12.151,1.62,24.283,2.219,36.43c1.199,24.521,1.976,49.048,2.58,73.59
			c0.34,13.903,0.462,27.807,0.533,41.711c-16.417,0.015-32.824,0.188-49.226,1.035c-0.884-35.159-2.671-79.236-4.149-105.602
			c-0.802-14.432-23.312-14.513-22.505,0c1.838,32.764,4.169,93.019,4.626,129.347c-51.562-0.193-103.119-1.006-154.681-1.184
			c-0.162-36.19-0.843-94.439-0.904-126.294c-0.025-14.513-22.531-14.513-22.505,0c0.045,23.714,0.437,62.083,0.701,95.075
			C60.199,403.688,42,403.87,23.8,403.9c-2.544-50.525-0.589-101.042,0.422-151.604c4.58-9.449,11.826-16.328,21.896-19.646
			c31.91-3.361,63.988-4.74,96.06-5.21c32.194-0.467,64.394,0.016,96.578,0.355c3.118,0.031,6.23-0.005,9.344-0.005
			c-0.025-0.262-0.102-0.5-0.117-0.764l-1.549-21.658c-15.274-0.147-30.544-0.338-45.818-0.475
			c-33.134-0.29-66.288-0.279-99.396,1.206c-18.58,0.838-37.15,2.128-55.649,4.093c-1.422-0.16-2.966-0.046-4.636,0.465
			c-16.087,4.913-29.742,15.957-36.729,31.428c-0.645,1.432-1.062,2.909-1.244,4.387c-0.731,1.422-1.198,3.088-1.234,5.037
			c-1.056,53.797-3.291,107.521,0,161.277c0.29,4.631,2.808,7.759,6.058,9.43c1.666,1.579,3.94,2.635,6.911,2.635
			c21.287,0,42.568-0.096,63.83-1.076c0.046,7.14,0.076,13.762,0.086,19.479c0.005,1.98,0.457,3.666,1.188,5.113
			c1.275,3.651,4.428,6.565,9.46,6.571c60.179,0.065,120.353,1.238,180.527,1.314c9.42,0.011,12.243-10.155,8.526-16.32
			c-0.021-2.376-0.051-4.895-0.092-7.516c17.234-0.878,34.484-1.016,51.745-1.025c2.727,0,4.874-0.873,6.499-2.239
			c6.186,0.919,13.152-2.646,13.137-10.729c-0.076-35.216-1.482-70.32-2.574-105.511
			C346.495,295.496,346.521,277.986,344.85,260.631z"/>
		<path d="M463.573,159.807c-1.031-0.312-2.153-0.505-3.402-0.505c-0.34,0-0.695,0.018-1.057,0.048
			c-50.713,4.283-92.652,4.852-139.136,4.852c-15.128,0-30.732-0.063-47.281-0.074c0,0-0.005,0-0.011,0
			c-1.549,0-2.909,0.297-4.144,0.734c-0.889-0.173-1.797-0.262-2.696-0.262c-5.956,0-11.629,3.801-11.085,11.481l2.092,29.274
			l1.498,20.937c0.036,0.531,0.157,1.003,0.249,1.498c1.168,6.348,6.5,9.681,11.842,9.953c1.062,0.294,2.184,0.502,3.448,0.502
			c14.376,0,28.035-0.005,41.319-0.035c8.643-0.021,17.128-0.056,25.512-0.097c40.202-0.216,78.368-0.776,123.166-2.254
			c6.226-0.203,9.897-4.258,11.086-8.965c0.66-1.518,1.01-3.295,0.868-5.38c-1.107-16.725-1.193-33.456-1.193-50.206
			C474.653,163.966,469.245,160.165,463.573,159.807z M322.278,214.261c-13.056,0.041-26.532,0.061-40.867,0.061
			c-0.224-3.116-0.447-6.228-0.666-9.343c-0.405-5.647-0.807-11.289-1.213-16.93c13.365,0.015,26.015,0.051,38.252,0.051
			c44.834,0,84.147-0.493,133.003-4.238c0.061,9.476,0.305,18.938,0.736,28.401C403.963,213.656,365.589,214.113,322.278,214.261z"
			/>
	</g>
</g>
<g>
</g>
<g>
</g>
<g>
</g>
<g>
</g>
<g>
</g>
<g>
</g>
<g>
</g>
<g>
</g>
<g>
</g>
<g>
</g>
<g>
</g>
<g>
</g>
<g>
</g>
<g>
</g>
<g>
</g>
</svg>
