<?xml version="1.0" encoding="iso-8859-1"?>
<!-- Generator: Adobe Illustrator 16.0.0, SVG Export Plug-In . SVG Version: 6.00 Build 0)  -->
<!DOCTYPE svg PUBLIC "-//W3C//DTD SVG 1.1//EN" "http://www.w3.org/Graphics/SVG/1.1/DTD/svg11.dtd">
<svg version="1.1" id="Capa_1" xmlns="http://www.w3.org/2000/svg" xmlns:xlink="http://www.w3.org/1999/xlink" x="0px" y="0px"
	 width="483.708px" height="483.708px" viewBox="0 0 483.708 483.708" style="enable-background:new 0 0 483.708 483.708;"
	 xml:space="preserve">
<g>
	<g>
		<path d="M174.828,165.844c17.499,12.4,37.313,18.958,57.307,18.958c26.17,0,51.925-10.999,72.547-30.965
			c5.489-5.319,11.228-11.532,12.776-13.373c0.69-0.828,1.32-1.775,1.868-2.818c19.81-37.425,16.488-76.142-9.109-106.229
			c-6.038-7.096-11.405-13.129-13.355-15.013c-1.021-0.982-2.274-1.866-3.732-2.615C275.341,4.639,257.325,0,239.572,0
			c-24.41,0-47.959,8.648-70.002,25.697c-1.023,0.792-1.902,1.653-2.61,2.564c-1.574,2.033-6.66,8.985-11.159,15.584
			C126.432,86.92,134.257,137.088,174.828,165.844z M188.14,50.183c0.467-0.493,0.883-1.008,1.257-1.523
			c1.513-2.1,8.046-7.779,15.653-11.595c16.686-8.381,35.353-10.187,53.96-5.221c8.699,2.318,20.724,9.75,26.812,16.562
			c15.727,17.615,20.697,38.12,14.37,59.288c-2.387,7.978-6.235,14.998-7.546,16.364c-14.477,19.443-34.688,29.968-57.216,29.968
			c-27.5,0-53.588-15.991-63.441-38.88C166.69,102.847,161.755,78.062,188.14,50.183z"/>
		<path d="M423.69,243.058c-0.031-1.93-0.523-3.964-1.742-6.038c-12.888-21.855-35.149-31.849-60.139-28.792
			c-0.224,0.025-0.416,0.104-0.635,0.14c-0.472-0.046-0.919-0.14-1.422-0.14c-86.549,0-173.707-4.07-259.921,5.086
			c-1.562-0.178-3.255-0.051-5.091,0.51c-17.687,5.398-32.687,17.54-40.362,34.53c-0.706,1.574-1.166,3.204-1.361,4.824
			c-0.807,1.564-1.318,3.397-1.358,5.54c-1.16,59.113-3.618,118.149,0,177.231c0.312,5.083,3.083,8.526,6.66,10.359
			c1.831,1.736,4.332,2.89,7.6,2.89c23.389,0,46.775-0.097,70.145-1.179c0.048,7.846,0.083,15.122,0.099,21.409
			c0.005,2.173,0.5,4.031,1.3,5.616c1.409,4.012,4.872,7.216,10.399,7.226c66.133,0.076,132.253,1.361,198.384,1.438
			c10.349,0.01,13.456-11.162,9.368-17.936c-0.02-2.61-0.061-5.383-0.102-8.257c18.941-0.97,37.893-1.127,56.863-1.127
			c2.991,0,5.353-0.965,7.14-2.463c6.795,1.011,14.452-2.91,14.432-11.797c-0.127-63.972-2.265-127.863-7.21-191.652
			C426.488,247.404,425.34,244.941,423.69,243.058z M249.84,236.994c5.342,6.229,10.582,12.527,15.32,19.221
			c-4.175,5.743-8.501,11.374-12.792,17.036c-5.85-4.61-11.326-9.714-16.859-14.727C240.512,251.492,245.379,244.378,249.84,236.994
			z M160.841,459.323c-0.178-39.771-0.927-103.778-0.993-138.781c-0.033-15.949-24.763-15.949-24.732,0
			c0.053,26.051,0.48,68.218,0.772,104.475c-19.984,0.924-39.979,1.133-59.981,1.163c-2.793-55.538-0.645-111.03,0.462-166.604
			c5.035-10.385,12.995-17.938,24.064-21.589c42.516-4.484,85.257-5.761,128.041-5.914c-4.144,6.421-8.564,12.665-13.004,18.88
			c-1.242,1.736-1.663,3.809-1.465,5.85c-2.315,3.59-2.46,8.277,1.793,11.953c8.226,7.119,16.115,14.563,24.633,21.308
			c-9.262,25.399-20.695,49.678-34.924,72.686c-0.721,1.168-1.127,2.326-1.36,3.448c-1.092,2.569-1.181,5.621,0.498,8.78
			c14.86,28.03,29.774,56.02,42.71,84.995C218.511,459.699,189.679,459.425,160.841,459.323z M225.458,369.91
			c11.799-19.555,21.591-40.085,29.988-61.271c8.765,19.072,16.747,38.42,22.668,58.66c0.025,0.092,0.071,0.163,0.097,0.254
			c-0.025,0.102-0.071,0.184-0.097,0.285c-5.367,22.516-12.537,44.488-19.748,66.45C248.038,412.51,236.759,391.207,225.458,369.91z
			 M355.03,434.532c-0.975-38.623-2.939-87.066-4.555-116.047c-0.889-15.858-25.618-15.939-24.729,0
			c2.011,36.014,4.575,102.215,5.073,142.138c-19.678-0.071-39.35-0.274-59.027-0.457c9.263-28.802,19.353-57.33,26.381-86.803
			c0.467-1.97,0.36-3.747-0.092-5.342c0.66-1.788,0.782-3.9,0.092-6.256c-7.607-25.975-18.489-50.638-30.098-75.022
			c5.327-7.14,10.837-14.157,16.047-21.398c0.497-0.69,0.822-1.442,1.071-2.214c3.144-2.905,4.55-7.455,1.528-12.177
			c-4.174-6.536-8.887-12.678-13.792-18.672c28.62,0.256,57.229,0.655,85.772,0.665c0.96,0.114,1.98,0.142,3.103,0.005
			c16.483-2.016,30.016,1.676,38.78,16.549c0.447,0.757,0.955,1.407,1.473,2.012c4.672,60.539,6.754,121.165,7.059,181.872
			C391.079,433.415,373.047,433.599,355.03,434.532z"/>
	</g>
</g>
<g>
</g>
<g>
</g>
<g>
</g>
<g>
</g>
<g>
</g>
<g>
</g>
<g>
</g>
<g>
</g>
<g>
</g>
<g>
</g>
<g>
</g>
<g>
</g>
<g>
</g>
<g>
</g>
<g>
</g>
</svg>
