<?xml version="1.0" encoding="iso-8859-1"?>
<!-- Generator: Adobe Illustrator 16.0.0, SVG Export Plug-In . SVG Version: 6.00 Build 0)  -->
<!DOCTYPE svg PUBLIC "-//W3C//DTD SVG 1.1//EN" "http://www.w3.org/Graphics/SVG/1.1/DTD/svg11.dtd">
<svg version="1.1" id="Capa_1" xmlns="http://www.w3.org/2000/svg" xmlns:xlink="http://www.w3.org/1999/xlink" x="0px" y="0px"
	 width="477.558px" height="477.557px" viewBox="0 0 477.558 477.557" style="enable-background:new 0 0 477.558 477.557;"
	 xml:space="preserve">
<g>
	<g>
		<path d="M120.247,170.523c15.843,11.233,33.784,17.167,51.879,17.167c23.686,0,47.017-9.958,65.688-28.043
			c4.984-4.827,10.194-10.468,11.591-12.131c0.609-0.729,1.162-1.566,1.645-2.476c17.941-33.883,14.935-68.928-8.226-96.151
			c-5.497-6.457-10.37-11.933-12.121-13.627c-0.901-0.868-2.009-1.645-3.283-2.3c-16.123-8.292-32.451-12.5-48.53-12.5
			c-22.099,0-43.439,7.836-63.416,23.285c-0.899,0.696-1.668,1.455-2.283,2.247c-1.424,1.836-6.033,8.127-10.146,14.157
			C76.475,99.129,83.551,144.514,120.247,170.523z M131.748,65.335c0.406-0.432,0.77-0.883,1.102-1.34
			c1.404-1.945,7.427-7.185,14.417-10.697c15.287-7.681,32.387-9.328,49.434-4.783c7.993,2.133,19.042,8.955,24.621,15.208
			c14.429,16.161,18.984,34.974,13.177,54.398c-2.184,7.305-5.746,13.784-6.964,15.068c-13.238,17.778-31.771,27.424-52.417,27.424
			c-25.209,0-49.129-14.665-58.166-35.668C112.099,113.658,107.554,90.893,131.748,65.335z"/>
		<path d="M346.466,292.062c-0.564,0.305-1.103,0.6-1.671,0.904c-6.743,3.677-13.609,7.389-20.576,10.806
			c0.995,21.942,1.727,43.884,2.265,65.841c0.335,13.894,0.462,27.803,0.528,41.706c-16.412,0.015-32.819,0.188-49.221,1.035
			c-0.884-35.154-2.671-79.236-4.148-105.606c-0.803-14.427-23.318-14.503-22.506,0c1.838,32.773,4.164,93.019,4.621,129.347
			c-51.56-0.193-103.116-1-154.678-1.178c-0.16-36.191-0.843-94.44-0.904-126.295c-0.025-14.513-22.531-14.513-22.505,0
			c0.048,23.709,0.437,62.078,0.703,95.075c-18.184,0.833-36.383,1.025-54.583,1.056c-2.544-50.535-0.589-101.041,0.421-151.607
			c4.581-9.445,11.824-16.329,21.896-19.647c31.91-3.362,63.987-4.74,96.06-5.21c32.194-0.467,64.391,0.018,96.578,0.355
			c13.771,0.145,27.543-0.142,41.314-0.125c2.387,0,4.85-0.022,7.322,0.01c-2.747-4.385-7.108-8.767-11.39-13.058
			c-2.473-2.471-5.021-5.027-7.256-7.602c-0.514-0.582-1.128-1.216-1.707-1.831c-5.605,0.135-11.201,0.272-16.747,0.219
			c-16.559-0.15-33.116-0.368-49.672-0.516c-33.134-0.289-66.288-0.279-99.396,1.209c-18.583,0.835-37.153,2.125-55.652,4.09
			c-1.419-0.16-2.966-0.045-4.634,0.465c-16.09,4.913-29.744,15.958-36.727,31.428c-0.645,1.427-1.061,2.909-1.244,4.388
			c-0.731,1.427-1.196,3.092-1.231,5.042c-1.056,53.786-3.291,107.511,0,161.276c0.287,4.626,2.808,7.76,6.058,9.425
			c1.663,1.584,3.94,2.63,6.911,2.63c21.287,0,42.566-0.091,63.828-1.076c0.046,7.14,0.079,13.767,0.089,19.479
			c0.005,1.99,0.457,3.671,1.186,5.118c1.28,3.651,4.431,6.566,9.463,6.571c60.179,0.071,120.351,1.239,180.532,1.31
			c9.415,0.011,12.238-10.146,8.521-16.315c-0.02-2.376-0.051-4.899-0.091-7.51c17.234-0.884,34.479-1.026,51.744-1.026
			c2.722,0,4.875-0.883,6.5-2.244c6.185,0.924,13.152-2.646,13.132-10.725c-0.071-35.221-1.478-70.325-2.569-105.521
			C346.796,306.535,346.658,299.298,346.466,292.062z"/>
		<path d="M468.058,159.334c-3.991-0.76-8.196-1.831-12.659-2.963c-4.596-1.171-9.354-2.382-14.152-3.309
			c-8.521-1.638-17.144-2.981-25.477-4.281c-2.331-0.363-4.667-0.726-7.003-1.092c-2.274-4.372-4.523-9.051-6.875-13.924
			c-7.617-15.808-15.488-32.146-26.837-44.48c-1.742-1.897-4.058-3.108-6.556-3.557c-0.604-0.106-1.209-0.206-1.828-0.224
			c-3.169-0.046-6.267,1.186-8.521,3.443c-11.72,11.778-20.18,29.597-27.645,45.315c-2.442,5.149-4.772,10.08-7.094,14.525
			c-1.949,0.305-4.504,0.597-6.972,0.841c-2.98,0.297-5.84,0.536-7.363,0.655c-2.274,0.188-4.017,0.345-4.794,0.455l-5.047,0.695
			c-11.715,1.607-23.831,3.271-35.805,6.645c-1.6,0.452-3.052,1.244-4.301,2.285c-1.158,0.96-2.133,2.131-2.854,3.479
			c-1.36,2.547-1.665,5.484-0.985,8.272c0.071,0.292,0.102,0.591,0.193,0.878c2.986,9.075,11.131,16.875,18.312,23.752
			c2.173,2.084,4.245,4.052,5.885,5.85c0.96,1.056,2.011,2.123,3.098,3.204c1.224,1.211,2.493,2.438,3.809,3.687
			c5.667,5.403,12.091,11.522,12.538,16.592c0.096,1.056,0.116,2.173,0.172,3.265c0.011,0.084,0.011,0.173,0.011,0.254
			c0.7,15.066-2.098,33.357-4.632,49.678l-0.914,5.932c-0.497,3.25,0.468,6.474,2.479,8.998c0.411,0.518,0.808,1.046,1.311,1.492
			c2.173,1.93,4.945,2.961,7.779,2.961c1.035,0,2.071-0.137,3.098-0.416c3.412-0.935,6.778-2.057,10.125-3.286
			c1.727-0.635,3.448-1.305,5.164-2.011c7.622-3.098,15.087-6.754,22.42-10.506c2.279-1.168,4.56-2.342,6.814-3.515
			c3.138-1.63,6.113-3.122,9.109-4.636c1.453-0.736,2.971-1.544,4.397-2.239l11.284,5.215c8.632,3.981,17.27,7.968,25.893,12.005
			c1.487,0.695,2.985,1.528,4.504,2.355c4.926,2.707,11.039,5.972,18.209,6.611c0.315,0.025,0.59,0.122,0.904,0.143
			c3.88,0.152,7.435-1.564,9.729-4.397c1.157-1.438,2.021-3.139,2.392-5.062c3.072-15.879-0.3-34.521-3.28-50.973
			c-0.767-4.265-1.478-8.31-2.082-12.195c-0.178-1.135-0.381-2.318-0.533-3.41c2.782-3.219,8.562-8.612,10.989-10.89
			c2.193-2.049,3.899-3.681,4.631-4.481c2.528-2.788,5.098-5.555,7.678-8.326c6.083-6.538,12.37-13.302,18.185-20.477
			c0.599-0.739,1.071-1.549,1.467-2.387c1.315-2.793,1.519-6.027,0.427-9.001C475.451,162.937,472.1,160.104,468.058,159.334z
			 M341.789,164.008c3.361-6.038,6.51-12.677,9.856-19.708c4.306-9.067,8.719-18.26,13.532-26.124
			c0.366-0.594,0.716-1.236,1.087-1.815c5.281,8.325,9.963,18.055,14.543,27.561c3.271,6.769,6.643,13.774,10.166,20.091
			c1.737,3.115,4.794,5.263,8.312,5.845c4.291,0.708,8.587,1.378,12.883,2.049c8.136,1.264,16.55,2.575,24.644,4.133
			c2.453,0.473,4.937,1.046,7.49,1.671c-0.446,0.487-0.914,0.982-1.371,1.47c-1.087,1.176-2.173,2.352-3.29,3.547
			c-2.641,2.838-5.281,5.677-7.851,8.511c-0.579,0.614-1.788,1.726-3.291,3.13c-13.975,13.053-19.581,19.157-18.718,27.04
			c0.051,0.457,0.143,0.952,0.193,1.415c0.741,6.142,1.863,12.533,3.088,19.301c1.706,9.415,3.442,19.022,3.976,27.726
			c-0.949-0.503-1.889-0.975-2.823-1.422c-0.224-0.111-0.452-0.233-0.676-0.345c-8.652-4.048-17.326-8.049-25.999-12.045
			l-16.244-7.516c-1.56-0.727-3.245-1.087-4.926-1.087s-3.356,0.36-4.921,1.087c-5.707,2.65-11.486,5.616-17.143,8.546
			c-0.706,0.371-1.433,0.736-2.133,1.097c-6.592,3.418-13.295,6.841-19.977,9.907c-0.782,0.355-1.569,0.772-2.347,1.117
			c0.584-4.153,1.117-8.424,1.585-12.715c1.213-11.075,1.879-22.333,0.984-32.436c-0.335-3.812-1.391-7.285-2.858-10.524
			c-3.88-8.544-10.867-15.272-16.844-20.967c-2.062-1.965-4.062-3.862-5.769-5.723c-1.95-2.138-4.388-4.494-6.978-6.975
			c-0.949-0.899-1.995-1.902-3.066-2.953c5.047-0.843,10.206-1.549,15.497-2.277l1.92-0.264l3.153-0.437
			c0.62-0.078,1.874-0.172,3.489-0.307c0.914-0.074,1.665-0.147,2.523-0.219C331.277,171.882,338.179,170.513,341.789,164.008z"/>
	</g>
</g>
<g>
</g>
<g>
</g>
<g>
</g>
<g>
</g>
<g>
</g>
<g>
</g>
<g>
</g>
<g>
</g>
<g>
</g>
<g>
</g>
<g>
</g>
<g>
</g>
<g>
</g>
<g>
</g>
<g>
</g>
</svg>
