<?xml version="1.0" encoding="iso-8859-1"?>
<!-- Generator: Adobe Illustrator 16.0.0, SVG Export Plug-In . SVG Version: 6.00 Build 0)  -->
<!DOCTYPE svg PUBLIC "-//W3C//DTD SVG 1.1//EN" "http://www.w3.org/Graphics/SVG/1.1/DTD/svg11.dtd">
<svg version="1.1" id="Capa_1" xmlns="http://www.w3.org/2000/svg" xmlns:xlink="http://www.w3.org/1999/xlink" x="0px" y="0px"
	 width="474.049px" height="474.049px" viewBox="0 0 474.049 474.049" style="enable-background:new 0 0 474.049 474.049;"
	 xml:space="preserve">
<g>
	<g>
		<path d="M120.271,168.769c15.846,11.232,33.784,17.166,51.879,17.166c23.687,0,47.017-9.958,65.687-28.043
			c4.981-4.827,10.191-10.469,11.593-12.132c0.604-0.729,1.163-1.566,1.646-2.485c17.936-33.878,14.935-68.918-8.231-96.146
			c-5.482-6.441-10.354-11.918-12.121-13.629c-0.899-0.869-2.001-1.638-3.28-2.298c-16.125-8.292-32.454-12.5-48.53-12.5
			c-22.1,0-43.439,7.836-63.414,23.285c-0.904,0.701-1.673,1.46-2.288,2.247c-1.439,1.856-6.063,8.173-10.143,14.157
			C76.494,97.375,83.573,142.759,120.271,168.769z M131.771,63.581c0.414-0.437,0.774-0.883,1.102-1.34
			c1.399-1.94,7.409-7.181,14.409-10.697c15.287-7.686,32.39-9.328,49.434-4.783c7.993,2.133,19.038,8.955,24.621,15.208
			c14.432,16.161,18.986,34.975,13.177,54.398c-2.039,6.81-5.547,13.586-6.972,15.079c-13.228,17.768-31.755,27.413-52.404,27.413
			c-25.21,0-49.13-14.665-58.166-35.667C112.114,111.903,107.574,89.139,131.771,63.581z"/>
		<path d="M346.938,307.842h-8.501c-2.514,0-4.961-0.447-7.276-1.341c-2.636-0.736-4.921-1.95-6.881-3.488
			c0.975,21.606,1.69,43.218,2.219,64.84c0.346,13.894,0.462,27.803,0.533,41.706c-16.417,0.015-32.824,0.188-49.221,1.035
			c-0.884-35.154-2.676-79.236-4.148-105.606c-0.803-14.427-23.313-14.503-22.501,0c1.828,32.773,4.164,93.019,4.621,129.347
			c-51.564-0.193-103.121-1.006-154.683-1.178c-0.16-36.191-0.84-94.44-0.904-126.295c-0.025-14.513-22.531-14.513-22.506,0
			c0.048,23.709,0.437,62.078,0.704,95.075c-18.185,0.833-36.384,1.025-54.583,1.056c-2.546-50.525-0.586-101.031,0.417-151.603
			c4.58-9.45,11.824-16.328,21.896-19.646c31.907-3.362,63.99-4.74,96.062-5.21c32.192-0.468,64.389,0.018,96.575,0.355
			c2.981,0.03,5.962-0.005,8.942-0.005c-0.264-1.32-0.441-2.684-0.441-4.118c0-6.023-0.025-12.142-0.122-18.293
			c-15.508-0.145-31.014-0.343-46.524-0.48c-33.134-0.29-66.288-0.279-99.394,1.208c-18.586,0.835-37.153,2.125-55.655,4.09
			c-1.419-0.16-2.963-0.045-4.634,0.464c-16.087,4.913-29.742,15.958-36.731,31.428c-0.645,1.427-1.062,2.91-1.242,4.388
			c-0.733,1.427-1.196,3.093-1.234,5.042c-1.056,53.786-3.291,107.511,0,161.276c0.282,4.627,2.808,7.76,6.058,9.425
			c1.663,1.585,3.94,2.631,6.911,2.631c21.287,0,42.566-0.092,63.828-1.076c0.048,7.14,0.079,13.766,0.089,19.479
			c0.005,1.991,0.457,3.672,1.186,5.119c1.28,3.65,4.431,6.565,9.463,6.57c60.179,0.071,120.351,1.239,180.532,1.311
			c9.41,0.01,12.238-10.146,8.521-16.315c-0.021-2.377-0.051-4.9-0.087-7.511c17.235-0.884,34.479-1.025,51.74-1.025
			c2.727,0,4.874-0.884,6.494-2.245c6.19,0.925,13.157-2.646,13.137-10.725c-0.071-35.221-1.482-70.324-2.574-105.515
			C347.003,310.615,346.973,309.233,346.938,307.842z"/>
		<path d="M468.057,149.521l-1.178-0.719c-1.777-1.519-4.021-2.288-6.678-2.288h-61.148l-0.198-4.212
			c-0.371-7.962-0.66-15.922-0.944-23.889c-0.401-11.121-0.812-22.623-1.473-33.901c-0.341-5.893-3.153-11.92-21.389-11.92
			c-3.859,0-7.86,0.251-11.385,0.475c-3.164,0.198-6.068,0.378-8.485,0.378c-2.98-0.02-5.418-0.094-7.714-0.16
			c-2.224-0.069-4.311-0.129-6.291-0.129c-8.501,0-14.3,1.211-22.358,7.825c-2.25,1.841-3.367,4.466-3.336,7.794
			c0.192,20.548,2.305,41.048,4.347,58.379l0.538,4.585l-18.682,1.374c-11.481,0.845-22.968,1.688-34.449,2.511
			c-1.828,0.129-3.453,0.625-4.972,1.503l-1.071,0.442c-7.394,1.98-7.693,7.226-6.602,18.715l0.198,2.12
			c0.771,8.742,1.071,17.44,1.208,26.04c0.092,6.165,0.117,12.289,0.117,18.312c0,1.627,0.305,2.963,0.762,4.113
			c1.554,3.93,5.175,5.319,6.973,5.761l0.533,0.165c1.335,0.511,2.66,0.759,4.057,0.759h43.143H324.7l0.097,4.324
			c0.147,6.424,0.366,12.857,0.584,19.286c0.346,10.146,0.701,20.652,0.757,31.021c0.03,7.073,5.302,9.237,7.566,9.841l0.492,0.173
			c1.355,0.544,2.747,0.812,4.24,0.812h8.277h43.478c2.935,0,5.353-0.939,7.186-2.777l3.579,2.701l0,0l-3.011-3.25
			c2.117-2.122,3.047-4.54,3.047-7.475c0-16.737-0.112-34.743-0.914-53.08l-0.203-4.613h61.85c6.794,0,9.714-4.883,10.182-9.458
			l0.106-1.003l0.528-0.863c1.016-1.643,1.508-3.468,1.508-5.57v-54.789C474.049,153.197,470.789,150.653,468.057,149.521z
			 M452.452,208.918h-63.784c-8.165,0-9.826,6.759-10.141,8.833l-0.163,0.704c-0.426,1.305-0.589,2.625-0.502,4.034
			c0.908,14.498,1.365,30.064,1.487,50.478l0.025,4.438h-31.793l-0.117-4.296c-0.142-5.099-0.314-10.197-0.492-15.295
			c-0.351-9.974-0.706-20.282-0.767-30.463c0-0.937-0.127-1.866-0.406-2.933l-0.152-0.609l0.021-0.627
			c0.102-3.298-0.98-6.371-2.971-8.419c-1.798-1.856-4.256-2.803-7.292-2.803h-15.438h-42.289l-0.041-4.377
			c-0.01-1.181-0.061-2.315-0.086-3.486c-0.132-7.959-0.427-15.759-0.935-23.158l-0.3-4.395l19.805-1.45
			c10.958-0.807,21.916-1.617,32.88-2.396c0.929-0.068,1.854-0.262,2.92-0.604l0.776-0.244l1.549,0.061
			c3.088,0,5.764-1.019,7.343-2.808c1.422-1.612,1.96-3.852,1.61-6.67c-2.905-23.3-4.997-42.899-5.754-62.79l-0.173-4.585h38.126
			l0.178,4.232c0.259,6.108,0.472,12.225,0.69,18.339c0.427,11.934,0.863,24.273,1.609,36.369c0.056,0.82,0.203,1.587,0.381,2.313
			l0.132,1.051c0.016,3.994,2.199,10.753,10.293,10.753h63.785v40.804H452.452z"/>
	</g>
</g>
<g>
</g>
<g>
</g>
<g>
</g>
<g>
</g>
<g>
</g>
<g>
</g>
<g>
</g>
<g>
</g>
<g>
</g>
<g>
</g>
<g>
</g>
<g>
</g>
<g>
</g>
<g>
</g>
<g>
</g>
</svg>
