<?xml version="1.0" encoding="iso-8859-1"?>
<!-- Generator: Adobe Illustrator 16.0.0, SVG Export Plug-In . SVG Version: 6.00 Build 0)  -->
<!DOCTYPE svg PUBLIC "-//W3C//DTD SVG 1.1//EN" "http://www.w3.org/Graphics/SVG/1.1/DTD/svg11.dtd">
<svg version="1.1" id="Capa_1" xmlns="http://www.w3.org/2000/svg" xmlns:xlink="http://www.w3.org/1999/xlink" x="0px" y="0px"
	 width="487.64px" height="487.64px" viewBox="0 0 487.64 487.64" style="enable-background:new 0 0 487.64 487.64;"
	 xml:space="preserve">
<g>
	<g>
		<path d="M241.617,0.818c-4.104-0.264-8.211-0.419-12.319-0.551c-0.919-0.206-1.899-0.333-3.011-0.233
			c-0.355,0.033-0.706,0.084-1.062,0.114c-1.31-0.036-2.62-0.076-3.93-0.114c-1.909-0.051-3.499,0.406-4.839,1.16
			C139.682,12.104,74.653,71.433,65.102,155.621c-10.288,90.652,50.688,166.822,134.51,181.934c2.554,0.457,5.119,0.853,7.678,1.213
			v41.016h-23.892c-1.092,0-2.057,0.183-2.965,0.446c-5.19-0.208-10.222,2.961-9.607,9.613c1.157,12.553,1.254,25.125,1.259,37.724
			c0,0.234,0.051,0.432,0.061,0.66c-0.015,0.198-0.061,0.401-0.061,0.6c0,5.91,4.606,9.496,10.06,10.06
			c8.363,0.863,16.742,1.143,25.126,1.224c-0.046,14.695-0.259,18.977-1.234,33.646c-0.091,1.361,0.091,2.539,0.417,3.61
			c0.437,4.637,3.625,8.963,9.638,8.963c13.015,0,26.01,0.056,38.979,1.259c3.981,0.371,6.719-1.289,8.231-3.793
			c3.164-1.381,5.601-4.28,5.601-8.779c0-15.098,0.057-19.794,0.844-34.865h26.812c1.132,0,2.117-0.198,3.052-0.473
			c4.367-0.681,8.272-3.875,8.267-9.582c0-13.432-0.03-26.853-1.259-40.238c-0.03-0.319-0.122-0.604-0.173-0.909
			c0.102-0.538,0.173-1.071,0.173-1.604c0-5.91-4.605-9.49-10.064-10.06c-8.155-0.843-16.326-1.127-24.507-1.219
			c0.808-12.872,1.63-25.745,2.468-38.618c65.694-11.801,124.807-54.156,144.093-121.779c13.873-48.645-2.077-119.03-31.605-157.136
			C352.754,14.298,292.26,4.117,241.617,0.818z M400.756,204.28c-12.649,63.884-67.745,99.12-127.3,110.388
			c-1.107,0.168-2.214,0.325-3.331,0.473c-1.244,0.172-2.488,0.355-3.737,0.513c-1.001,0.122-1.96,0.365-2.88,0.675
			c-2.422,0.818-4.494,2.26-5.773,4.337c-1.457,1.564-2.483,3.646-2.661,6.302c-0.289,4.367-0.553,8.734-0.838,13.102
			c-0.264,4.113-0.522,8.226-0.792,12.334c-0.716,11.223-1.441,22.439-2.143,33.662c-0.416,6.616,4.631,9.815,9.775,9.663
			c0.863,0.229,1.771,0.396,2.798,0.396c7.692,0,15.381,0.086,23.054,0.518c0.498,7.784,0.757,15.574,0.812,23.374h-27.64
			c-6.662,0-9.871,5.302-9.698,10.461c-0.173,0.665-0.305,1.36-0.361,2.112c-1.056,14.935-1.219,19.499-1.244,34.464
			c-7.408-0.487-14.827-0.756-22.256-0.812c0.777-15.513,0.868-20.637,0.868-36.165c0-6.444-4.961-9.679-9.953-9.725
			c-0.808-0.203-1.671-0.34-2.625-0.34c-7.576,0-15.137-0.087-22.683-0.498c-0.051-6.545-0.147-13.081-0.493-19.621h25.695
			c6.438,0,9.668-4.956,9.724-9.947c0.198-0.808,0.335-1.671,0.335-2.626v-34.835v-11.882v-11.126c0-2.753-0.939-4.886-2.372-6.475
			c-1.513-2.438-4.032-4.139-6.941-4.626c-0.523-0.086-1.041-0.219-1.584-0.219h-0.417h-1.676c-2.072-0.146-4.149-0.299-6.2-0.502
			c-75.931-7.444-130.327-78.562-123.705-157.159c6.52-77.337,70.208-132.591,140.619-139.25
			c45.199,1.439,91.287,6.989,129.58,34.464C392.89,83.102,409.941,157.896,400.756,204.28z"/>
		<path d="M242.627,46.962c-2.772-0.175-5.545-0.289-8.323-0.378c-1.071-0.203-2.148-0.249-3.128-0.16l-0.518,0.051l-2.742-0.073
			c-1.666,0-3.25,0.327-4.732,0.982c-58.702,8.701-102.52,53.664-109.156,112.124c-7.287,64.193,34.865,121.188,98.05,132.578
			c8.734,1.574,17.732,2.372,26.746,2.372c0.005,0,0,0,0.005,0c73.163,0,118.962-45.743,131.896-91.079
			c9.729-34.099-0.559-85.322-22.933-114.188C322.189,56.161,278.138,49.272,242.627,46.962z M348.163,193.022
			c-11.4,57.546-75.845,80.082-128.656,74.903c-49.409-4.845-86.011-51.489-81.593-103.982c4.103-48.69,43.208-87.48,93.043-92.343
			c29.985,0.973,61.267,4.471,87.164,23.052C342.542,112.174,354.317,161.917,348.163,193.022z"/>
	</g>
</g>
<g>
</g>
<g>
</g>
<g>
</g>
<g>
</g>
<g>
</g>
<g>
</g>
<g>
</g>
<g>
</g>
<g>
</g>
<g>
</g>
<g>
</g>
<g>
</g>
<g>
</g>
<g>
</g>
<g>
</g>
</svg>
