<?xml version="1.0" encoding="iso-8859-1"?>
<!-- Generator: Adobe Illustrator 16.0.0, SVG Export Plug-In . SVG Version: 6.00 Build 0)  -->
<!DOCTYPE svg PUBLIC "-//W3C//DTD SVG 1.1//EN" "http://www.w3.org/Graphics/SVG/1.1/DTD/svg11.dtd">
<svg version="1.1" id="Capa_1" xmlns="http://www.w3.org/2000/svg" xmlns:xlink="http://www.w3.org/1999/xlink" x="0px" y="0px"
	 width="497.459px" height="497.459px" viewBox="0 0 497.459 497.459" style="enable-background:new 0 0 497.459 497.459;"
	 xml:space="preserve">
<g>
	<g>
		<path d="M471.79,151.657c-17.352,13.411-35.927,25.105-54.559,36.676c-0.096-23.176-0.386-46.347-1.249-69.513
			c-0.045-1.295-0.289-2.447-0.619-3.542c-0.898-5.626-5.027-10.679-12.38-10.758c-105.744-1.132-284.692,2.47-390.431,2.595
			c-16.478,0.02-16.722,25.085-0.8,25.92c-1.379,16.938-3.194,33.832-4.4,50.777c-0.188,2.651,0.358,4.832,1.331,6.64
			c-2.039,62.058,1.811,124.105,1.27,186.184c-0.041,4.692,1.996,8.019,4.903,10.085c2.084,2.209,5.05,3.712,8.96,3.783
			c102.842,1.793,278.964,4.946,381.768,0c1.143-0.056,2.184-0.249,3.169-0.518c6.18-0.346,11.933-4.469,11.562-12.481
			c-0.447-9.704-0.646-19.408-0.747-29.117c17.438,11.836,34.973,23.516,53.116,34.276c0.975,0.583,1.949,0.995,2.904,1.305
			c7.48,6.688,22.425,3.717,21.855-9.064c-3.092-69.959-0.381-140.002-3.377-209.956C497.85,154.907,482.896,143.078,471.79,151.657
			z M413.018,312.548c-8.069-5.479-15.783-0.198-18.189,7.028c-0.849,1.67-1.377,3.631-1.377,5.931
			c0,13.157,0.147,26.31,0.519,39.451c-94.893,4.017-263.09,1.513-358.013-0.229c0.01-62.2-3.745-124.362-0.868-186.553
			c0.099-2.064-0.224-3.869-0.843-5.423c1.125-13.259,2.435-26.5,3.511-39.758c93.112-0.546,259.452-3.225,352.577-2.555
			c0.782,26.718,0.939,53.44,0.949,80.171c-0.035,0.609-0.04,1.206,0,1.811c0,0.427,0,0.854,0,1.285
			c0,14.378,19.083,16.384,24.527,6.099c17.844-11.205,35.703-22.288,53.004-34.251c1.568,55.088,0.294,110.22,1.802,165.306
			C451.087,338.598,432.095,325.522,413.018,312.548z"/>
	</g>
</g>
<g>
</g>
<g>
</g>
<g>
</g>
<g>
</g>
<g>
</g>
<g>
</g>
<g>
</g>
<g>
</g>
<g>
</g>
<g>
</g>
<g>
</g>
<g>
</g>
<g>
</g>
<g>
</g>
<g>
</g>
</svg>
