<?xml version="1.0" encoding="iso-8859-1"?>
<!-- Generator: Adobe Illustrator 16.0.0, SVG Export Plug-In . SVG Version: 6.00 Build 0)  -->
<!DOCTYPE svg PUBLIC "-//W3C//DTD SVG 1.1//EN" "http://www.w3.org/Graphics/SVG/1.1/DTD/svg11.dtd">
<svg version="1.1" id="Capa_1" xmlns="http://www.w3.org/2000/svg" xmlns:xlink="http://www.w3.org/1999/xlink" x="0px" y="0px"
	 width="459.798px" height="459.799px" viewBox="0 0 459.798 459.799" style="enable-background:new 0 0 459.798 459.799;"
	 xml:space="preserve">
<g>
	<g>
		<path d="M428.496,26.623c-26.776-23.046-63.2-17.237-93.409-4.987c-14.854,6.028-28.203,14.607-42.468,21.777
			c-13.385,6.723-29.092,11.108-31.519,27.86c-2.6,17.945,4.007,39.618,17.356,51.917c11.771,10.852,27.64,14.345,43.381,14.444
			c-10.536,68.21-22.343,138.326-54.542,199.684c-24.374-47.84-25.878-107.379-33.446-159.116
			c-7.751-53.001-21.36-114.1-72.907-140.993c-14.822-7.739-31.417,7.866-44.031,15.895C99.981,63.88,83.528,75.392,66.619,86.202
			c-15.173,9.699-31.689,17.187-46.004,28.236c-6.469,4.997-14.518,11.139-18.309,18.608c-6.018,11.857,1.16,14.061,5.408,23.93
			c2.123,4.926,6.629,8.706,13.649,8.643c30.445-0.269,60.626-3.493,90.378-9.582c1.701-0.348,29.889,120.051,32.732,131.142
			c11.535,44.899,26.594,87.29,47.304,128.884c8.892,17.859,37.829,32.926,56.962,32.845c25.964-0.102,50.399-16.823,69.939-32.291
			c45.133-35.719,78.703-83.481,101.158-136.187c12.578-29.533,22.485-60.813,29.711-92.097
			C460.868,139.268,472.13,64.159,428.496,26.623z M421.467,169.26c-9.063,47.728-26.445,94.408-50.389,136.63
			c-13.289,23.44-30.706,43.793-47.875,64.445c-13.106,15.762-28.3,29.254-47.113,37.719c-32.788,14.757-51.777,8.089-66.961-25.948
			c-16.216-36.349-29.145-75.683-38.15-114.428c-5.2-22.358-10.336-44.727-15.615-67.069c-5.159-21.841-10.583-43.638-17.103-65.118
			c-0.046-0.16-0.125-0.282-0.178-0.437c-1.704-7.945-8.792-14.985-18.999-12.538c-22.006,5.284-44.141,8.731-66.517,10.509
			c32.425-22.952,67.121-42.383,100.196-64.368c43.752,29.478,48.228,95.547,54.588,143.453
			c5.22,39.339,9.189,79.537,22.214,117.286c5.464,15.834,13.965,39.938,29.686,48.652c43.295,23.988,74.565-136.06,79.639-159.469
			c4.564-21.086,8.135-42.338,11.562-63.647c1.792-11.179,14.142-52.882-11.015-49.599c-12.822,1.673-27.02,3.067-38.537-3.958
			c-6.651-4.06-8.46-12.339-8.703-20.378c30.057-20.317,87.783-58.686,119.038-27.918
			C438.047,79.474,427.541,137.244,421.467,169.26z"/>
	</g>
</g>
<g>
</g>
<g>
</g>
<g>
</g>
<g>
</g>
<g>
</g>
<g>
</g>
<g>
</g>
<g>
</g>
<g>
</g>
<g>
</g>
<g>
</g>
<g>
</g>
<g>
</g>
<g>
</g>
<g>
</g>
</svg>
