<?xml version="1.0" encoding="iso-8859-1"?>
<!-- Generator: Adobe Illustrator 16.0.0, SVG Export Plug-In . SVG Version: 6.00 Build 0)  -->
<!DOCTYPE svg PUBLIC "-//W3C//DTD SVG 1.1//EN" "http://www.w3.org/Graphics/SVG/1.1/DTD/svg11.dtd">
<svg version="1.1" id="Capa_1" xmlns="http://www.w3.org/2000/svg" xmlns:xlink="http://www.w3.org/1999/xlink" x="0px" y="0px"
	 width="470.152px" height="470.152px" viewBox="0 0 470.152 470.152" style="enable-background:new 0 0 470.152 470.152;"
	 xml:space="preserve">
<g>
	<g>
		<path d="M284.398,44.207c-1.544-1.077-3.067-1.696-4.545-2.026c-3.382-2.28-7.764-2.646-12.223,0.741
			c-50.112,38.039-104.21,70.147-156.803,104.546c-32.263,0.015-64.493,0.264-96.69,2.554c-0.198,0.016-0.371,0.061-0.561,0.086
			c-1.354-0.086-2.732-0.015-4.123,0.371c-6.574,1.813-11.004,9.085-8.945,15.752c1.567,5.083,1.96,10.131,2.064,15.381
			c-2.224,39.877-1.138,79.673,1.32,119.52c0.594,9.618,9.63,13.584,16.818,11.934c28.259,2.985,56.454,3.072,84.792,1.066
			c54.865,33.626,103.088,76.479,155.729,113.31c4.037,2.829,7.998,2.804,11.223,1.179c1.914-0.514,3.813-1.498,5.575-3.185
			c7.647-7.332,14.868-15.152,21.729-23.303c3.271-1.487,5.145-4.093,5.851-7.073C388.735,290.067,405.468,128.76,284.398,44.207z
			 M118.458,292.042c-1.726-2.092-4.286-3.478-7.66-3.666c-1.493-0.259-2.917-0.208-4.273,0.097
			c-25.994,1.895-51.854,2.041-77.759-0.208c-1.757-32.642-2.356-65.262-0.922-97.929c0.231-0.985,0.376-2.031,0.376-3.174
			c0-1.625-0.031-3.25-0.059-4.88c0.028-0.508,0.033-1.016,0.059-1.523c0.066-1.214-0.031-2.311-0.239-3.331
			c-0.043-0.854-0.084-1.701-0.142-2.555c28.703-1.559,57.427-1.797,86.178-1.797c2.521,0,4.611-0.65,6.36-1.661
			c0.879-0.34,1.768-0.787,2.661-1.366c44.688-29.259,90.451-56.874,133.975-87.824c-35.157,29.579-44.381,102.139-46.555,141.579
			c-2.054,37.282-0.764,77.83,10.801,113.66c3.771,11.68,6.853,24.994,11.387,37.222
			C195.26,346.173,158.622,316.655,118.458,292.042z M235.851,228.999c0.269-8.475,0.924-20.921,2.483-34.83
			c35.939,20.52,40.022,68.979-1.767,85.406C235.276,262.697,235.32,245.66,235.851,228.999z M287.12,376.793
			c-3.148,0.229-5.642,1.406-7.47,3.179c-15.168,1.412-19.57-3.971-24.501-22.146c-3.707-13.629-9.491-26.466-12.832-40.191
			c-0.97-3.996-1.788-8.033-2.519-12.091c72.468-23.598,64.729-107.988,2.478-137.644c7.846-40.573,25.04-81.151,62.805-71.178
			C372.963,175.482,350.133,295.272,287.12,376.793z"/>
		<path d="M417.695,97.428c41.375,91.693,29.854,194.314-28.081,275.988c-10.501,14.812,13.862,28.812,24.247,14.178
			c64.089-90.357,73.458-203.779,28.081-304.338C434.498,66.778,410.307,81.067,417.695,97.428z"/>
		<path d="M391.696,109.697c-6.145-13.609-26.116-1.808-20.022,11.7c34.159,75.692,24.648,160.423-23.182,227.858
			c-8.668,12.223,11.446,23.78,20.022,11.7C421.428,286.355,429.161,192.717,391.696,109.697z"/>
	</g>
</g>
<g>
</g>
<g>
</g>
<g>
</g>
<g>
</g>
<g>
</g>
<g>
</g>
<g>
</g>
<g>
</g>
<g>
</g>
<g>
</g>
<g>
</g>
<g>
</g>
<g>
</g>
<g>
</g>
<g>
</g>
</svg>
