<?xml version="1.0" encoding="iso-8859-1"?>
<!-- Generator: Adobe Illustrator 16.0.0, SVG Export Plug-In . SVG Version: 6.00 Build 0)  -->
<!DOCTYPE svg PUBLIC "-//W3C//DTD SVG 1.1//EN" "http://www.w3.org/Graphics/SVG/1.1/DTD/svg11.dtd">
<svg version="1.1" id="Capa_1" xmlns="http://www.w3.org/2000/svg" xmlns:xlink="http://www.w3.org/1999/xlink" x="0px" y="0px"
	 width="461.93px" height="461.93px" viewBox="0 0 461.93 461.93" style="enable-background:new 0 0 461.93 461.93;"
	 xml:space="preserve">
<g>
	<g>
		<path d="M307.652,274.504c7.281,7.1,14.559,14.193,21.845,21.292c35.231-30.138,34.602-80.046,5.774-115.483
			c-6.998,6.759-13.97,13.541-20.911,20.35C332.234,223.987,331.67,255.706,307.652,274.504z"/>
		<path d="M35.094,323.497c22.734,2.407,45.43,3.199,68.169,2.732c10.359-10.582,20.715-21.175,31.064-31.768
			c-29.968,2.062-59.793,2.198-89.667-0.392c-2.084-38.729-2.793-77.431-1.087-116.187c0.272-1.17,0.442-2.412,0.442-3.77
			c0-1.922-0.036-3.857-0.071-5.787c0.03-0.604,0.035-1.206,0.071-1.81c0.084-1.435-0.036-2.74-0.279-3.951
			c-0.048-1.008-0.099-2.019-0.167-3.026c20.099-1.092,40.205-1.607,60.324-1.866c-9.387-9.897-18.709-19.85-27.964-29.869
			c-16.214,0.442-32.42,1.097-48.624,2.252c-0.234,0.015-0.437,0.071-0.666,0.099c-1.602-0.099-3.24-0.01-4.893,0.441
			c-7.8,2.144-13.053,10.778-10.613,18.692c1.861,6.032,2.328,12.022,2.447,18.253c-2.64,47.319-1.351,94.531,1.567,141.808
			C15.843,320.755,26.57,325.458,35.094,323.497z"/>
		<path d="M403.625,116.204c31.605,71.985,18.839,159.048-20.002,232.485c7.591,7.46,15.162,14.929,22.724,22.409
			c48.24-86.377,61.859-190.932,20.51-275.693C419.067,102.288,411.324,109.219,403.625,116.204z"/>
		<path d="M273.558,241.183c5.499,5.393,11.009,10.775,16.514,16.158c-0.188-11.04-0.056-22.059,0.279-32.938
			C284.745,229.986,279.139,235.572,273.558,241.183z"/>
		<path d="M315.482,49.599c-27.787,23.384-41.914,69.398-49.018,111.35c12.685-12.475,25.425-24.893,38.277-37.201
			c10.791-35.114,29.579-63.412,62.337-58.082c8.231-7.455,16.524-14.855,24.857-22.204c-12.513-14.069-27.071-27.175-43.976-38.976
			c-1.823-1.274-3.636-2.014-5.393-2.399c-4.007-2.709-9.206-3.141-14.503,0.881c-55.903,42.444-115.968,78.679-174.822,116.784
			c7.099,7.459,14.234,14.891,21.399,22.29C221.852,111.596,269.714,82.154,315.482,49.599z"/>
		<path d="M342.334,402.886c-17.997,1.676-23.217-4.712-29.072-26.273c-1.305-4.804-2.849-9.526-4.448-14.219
			c-14.634-14.305-29.279-28.599-43.914-42.903c2.036,11.237,4.713,22.277,8.165,32.961c4.469,13.863,8.125,29.655,13.508,44.163
			c-31.62-24.104-62.81-48.784-95.359-71.569c-7.165,7.349-14.325,14.701-21.49,22.054c51.544,35.536,99.407,76.2,150.75,112.117
			c4.794,3.356,9.491,3.326,13.325,1.396c2.27-0.609,4.524-1.768,6.611-3.773c9.074-8.698,17.646-17.98,25.78-27.649
			c2.52-1.152,4.276-2.895,5.479-4.92c-8.16-8.11-16.341-16.199-24.536-24.269C345.264,400.657,343.639,401.626,342.334,402.886z"/>
		<path d="M397.364,386.241c-7.327-7.587-14.726-15.112-22.099-22.658c-19.292-19.753-38.705-39.364-58.245-58.854
			c-7.484-7.475-14.939-14.98-22.449-22.425c-1.214-1.193-2.428-2.387-3.641-3.579c-9.187-9.09-18.418-18.145-27.64-27.193
			c-1.315-1.3-2.631-2.59-3.946-3.89c-3.031-2.971-6.053-5.967-9.084-8.937c3.164-3.22,6.337-6.439,9.501-9.659
			c0.238-0.243,0.478-0.484,0.716-0.724c10.476-10.648,20.957-21.294,31.483-31.897c2.991-3.009,6.002-6,8.993-9.006
			c6.932-6.962,13.878-13.918,20.84-20.855c23.699-23.623,47.576-47.081,71.701-70.297c7.338-7.062,14.736-14.056,22.12-21.071
			c6.814-6.467,13.553-13.01,20.413-19.441c12.253-11.486-6.17-29.838-18.388-18.387c-5.758,5.397-11.41,10.895-17.133,16.318
			c-7.282,6.898-14.548,13.799-21.779,20.741c-26.67,25.616-53.04,51.511-79.181,77.614c-12.35,12.327-24.694,24.667-36.968,37.074
			c-6.881,6.957-13.726,13.952-20.592,20.924c-3.438,3.494-6.886,6.985-10.315,10.484c-4.21-4.113-8.427-8.221-12.639-12.334
			c-19.495-19.007-38.994-38.006-58.508-56.995c-8.27-8.049-16.531-16.11-24.793-24.169c-30.227-29.452-60.397-58.988-90.337-88.778
			c-11.893-11.834-30.28,6.548-18.387,18.388c23.821,23.701,47.792,47.22,71.81,70.693c10.275,10.044,20.546,20.096,30.836,30.123
			c23.701,23.082,47.405,46.148,71.086,69.236c4.238,4.133,8.48,8.267,12.718,12.406c-4.948,5.058-9.884,10.136-14.825,15.203
			c-14.949,15.315-29.899,30.641-44.826,45.986c-8.066,8.292-16.13,16.579-24.202,24.861
			C94.049,361.664,58.43,398.138,22.452,434.298c-3.984,4.002-4.492,8.724-3.032,12.797c1.925,5.362,7.302,9.516,13.035,9.374
			c2.852-0.076,5.779-1.163,8.384-3.783c38.176-38.369,75.949-77.094,113.668-115.854c7.186-7.383,14.373-14.767,21.559-22.149
			c13.665-14.046,27.353-28.071,41.038-42.097c4.981-5.108,9.953-10.217,14.939-15.32c4.334,4.25,8.645,8.516,12.977,12.771
			c5.189,5.099,10.374,10.202,15.559,15.306c11.964,11.796,23.882,23.643,35.779,35.505c21.627,21.557,43.122,43.26,64.455,65.136
			c7.256,7.449,14.513,14.894,21.724,22.378c13.873,14.406,27.705,28.854,41.396,43.463c5.733,6.119,13.188,4.585,17.778,0
			c0.02-0.021,0.04-0.046,0.061-0.066c0.34-0.345,0.63-0.73,0.935-1.097c0.269-0.335,0.528-0.681,0.787-1.025
			c3.143-4.611,3.717-10.958-1.179-16.188C427.452,417.577,412.446,401.871,397.364,386.241z"/>
	</g>
</g>
<g>
</g>
<g>
</g>
<g>
</g>
<g>
</g>
<g>
</g>
<g>
</g>
<g>
</g>
<g>
</g>
<g>
</g>
<g>
</g>
<g>
</g>
<g>
</g>
<g>
</g>
<g>
</g>
<g>
</g>
</svg>
