<?xml version="1.0" encoding="iso-8859-1"?>
<!-- Generator: Adobe Illustrator 16.0.0, SVG Export Plug-In . SVG Version: 6.00 Build 0)  -->
<!DOCTYPE svg PUBLIC "-//W3C//DTD SVG 1.1//EN" "http://www.w3.org/Graphics/SVG/1.1/DTD/svg11.dtd">
<svg version="1.1" id="Capa_1" xmlns="http://www.w3.org/2000/svg" xmlns:xlink="http://www.w3.org/1999/xlink" x="0px" y="0px"
	 width="484.356px" height="484.355px" viewBox="0 0 484.356 484.355" style="enable-background:new 0 0 484.356 484.355;"
	 xml:space="preserve">
<g>
	<g>
		<path d="M259.683,67.889c-1.407-0.982-2.799-1.549-4.149-1.846c-3.087-2.084-7.089-2.417-11.161,0.675
			c-45.758,34.741-95.156,64.054-143.179,95.463c-29.462,0.018-58.884,0.241-88.286,2.331c-0.178,0.01-0.34,0.058-0.508,0.079
			c-1.234-0.079-2.493-0.01-3.768,0.343c-6.002,1.648-10.044,8.292-8.17,14.383c1.432,4.644,1.792,9.25,1.884,14.043
			c-2.031,36.414-1.041,72.755,1.208,109.139c0.538,8.779,8.79,12.405,15.356,10.892c25.806,2.732,51.541,2.809,77.424,0.971
			c50.094,30.706,94.13,69.842,142.193,103.469c3.691,2.584,7.302,2.559,10.253,1.076c1.746-0.472,3.478-1.366,5.088-2.904
			c6.982-6.698,13.578-13.838,19.845-21.287c2.976-1.355,4.691-3.737,5.337-6.454C354.956,292.389,370.23,145.102,259.683,67.889z
			 M108.156,294.191c-1.574-1.904-3.91-3.174-6.992-3.347c-1.361-0.238-2.666-0.188-3.905,0.087
			c-23.729,1.727-47.347,1.863-71.005-0.193c-1.605-29.803-2.143-59.585-0.833-89.41c0.208-0.899,0.34-1.856,0.34-2.902
			c0-1.48-0.031-2.968-0.051-4.456c0.025-0.462,0.025-0.924,0.051-1.394c0.061-1.107-0.031-2.105-0.218-3.042
			c-0.036-0.774-0.071-1.554-0.127-2.328c26.207-1.427,52.435-1.64,78.688-1.646c2.3,0,4.21-0.591,5.809-1.518
			c0.797-0.305,1.61-0.711,2.433-1.247c40.802-26.718,82.593-51.93,122.333-80.194c-32.098,27.01-40.522,93.268-42.508,129.28
			c-1.874,34.051-0.696,71.074,9.867,103.792c3.443,10.663,6.256,22.82,10.395,33.986
			C178.288,343.631,144.834,316.672,108.156,294.191z M215.352,236.625c0.249-7.744,0.843-19.106,2.27-31.804
			c32.814,18.735,36.541,62.995-1.614,77.99C214.829,267.405,214.87,251.841,215.352,236.625z M262.166,371.585
			c-2.879,0.208-5.148,1.279-6.819,2.904c-13.853,1.29-17.87-3.631-22.369-20.221c-3.382-12.446-8.663-24.171-11.715-36.708
			c-0.894-3.651-1.635-7.333-2.305-11.04c66.176-21.546,59.107-98.609,2.265-125.685c7.165-37.044,22.866-74.098,57.351-64.993
			C340.554,187.762,319.705,297.142,262.166,371.585z"/>
		<path d="M403.537,103.549c-6.794-15.054-28.889-2.001-22.14,12.944c37.78,83.723,27.253,177.429-25.644,252.009
			c-9.588,13.523,12.664,26.31,22.14,12.944C436.417,298.939,444.973,195.374,403.537,103.549z"/>
		<path d="M426.027,89.16c46.007,101.956,33.195,216.07-31.229,306.891c-11.674,16.463,15.422,32.037,26.964,15.762
			c71.265-100.478,81.685-226.595,31.225-338.412C444.714,55.077,417.816,70.961,426.027,89.16z"/>
		<path d="M357.658,127.692c-5.606-12.426-23.847-1.653-18.276,10.687c31.194,69.121,22.506,146.484-21.17,208.064
			c-7.922,11.162,10.45,21.719,18.275,10.685C384.804,289.002,391.868,203.501,357.658,127.692z"/>
	</g>
</g>
<g>
</g>
<g>
</g>
<g>
</g>
<g>
</g>
<g>
</g>
<g>
</g>
<g>
</g>
<g>
</g>
<g>
</g>
<g>
</g>
<g>
</g>
<g>
</g>
<g>
</g>
<g>
</g>
<g>
</g>
</svg>
