<?xml version="1.0" encoding="iso-8859-1"?>
<!-- Generator: Adobe Illustrator 16.0.0, SVG Export Plug-In . SVG Version: 6.00 Build 0)  -->
<!DOCTYPE svg PUBLIC "-//W3C//DTD SVG 1.1//EN" "http://www.w3.org/Graphics/SVG/1.1/DTD/svg11.dtd">
<svg version="1.1" id="Capa_1" xmlns="http://www.w3.org/2000/svg" xmlns:xlink="http://www.w3.org/1999/xlink" x="0px" y="0px"
	 width="461.919px" height="461.919px" viewBox="0 0 461.919 461.919" style="enable-background:new 0 0 461.919 461.919;"
	 xml:space="preserve">
<g>
	<g>
		<path d="M347.958,4.484c-1.828-1.272-3.636-2.011-5.393-2.397c-4.012-2.709-9.212-3.141-14.503,0.878
			c-59.463,45.141-123.656,83.23-186.055,124.05c-38.28,0.021-76.52,0.31-114.724,3.024c-0.233,0.018-0.437,0.073-0.665,0.099
			c-1.602-0.099-3.24-0.01-4.893,0.442c-7.8,2.143-13.05,10.781-10.613,18.695c1.861,6.032,2.331,12.021,2.45,18.252
			c-2.643,47.317-1.353,94.532,1.564,141.808c0.708,11.415,11.431,16.117,19.952,14.157c33.535,3.549,66.986,3.65,100.612,1.264
			c65.097,39.898,122.316,90.749,184.78,134.45c4.794,3.352,9.485,3.326,13.319,1.396c2.275-0.614,4.525-1.772,6.617-3.773
			c9.074-8.698,17.641-17.98,25.781-27.654c3.874-1.762,6.104-4.854,6.941-8.395C471.754,296.204,491.608,104.814,347.958,4.484z
			 M151.062,298.544c-2.049-2.479-5.081-4.123-9.084-4.352c-1.767-0.305-3.463-0.244-5.075,0.116
			c-30.839,2.239-61.53,2.417-92.265-0.243c-2.087-38.73-2.793-77.432-1.086-116.187c0.269-1.17,0.447-2.412,0.442-3.771
			c0-1.924-0.038-3.857-0.074-5.787c0.031-0.604,0.036-1.206,0.074-1.81c0.081-1.435-0.038-2.74-0.282-3.951
			c-0.045-1.011-0.099-2.019-0.165-3.026c34.053-1.851,68.139-2.133,102.253-2.138c2.991,0,5.471-0.77,7.551-1.971
			c1.046-0.401,2.095-0.932,3.161-1.622c53.024-34.716,107.325-67.479,158.969-104.2c-41.716,35.094-52.659,121.188-55.238,167.987
			c-2.442,44.239-0.909,92.348,12.816,134.86c4.469,13.858,8.125,29.655,13.508,44.163
			C242.188,362.781,198.719,327.757,151.062,298.544z M290.354,223.746c0.319-10.055,1.097-24.824,2.945-41.327
			c42.645,24.347,47.484,81.85-2.093,101.339C289.668,263.735,289.724,243.509,290.354,223.746z M351.188,399.103
			c-3.737,0.274-6.688,1.671-8.861,3.778c-18.001,1.676-23.222-4.718-29.076-26.273c-4.393-16.173-11.258-31.407-15.219-47.697
			c-1.152-4.737-2.122-9.531-2.991-14.346c85.991-28,76.81-128.132,2.945-163.32c9.313-48.134,29.706-96.286,74.52-84.449
			C453.047,160.246,425.945,302.378,351.188,399.103z"/>
	</g>
</g>
<g>
</g>
<g>
</g>
<g>
</g>
<g>
</g>
<g>
</g>
<g>
</g>
<g>
</g>
<g>
</g>
<g>
</g>
<g>
</g>
<g>
</g>
<g>
</g>
<g>
</g>
<g>
</g>
<g>
</g>
</svg>
