<?xml version="1.0" encoding="iso-8859-1"?>
<!-- Generator: Adobe Illustrator 16.0.0, SVG Export Plug-In . SVG Version: 6.00 Build 0)  -->
<!DOCTYPE svg PUBLIC "-//W3C//DTD SVG 1.1//EN" "http://www.w3.org/Graphics/SVG/1.1/DTD/svg11.dtd">
<svg version="1.1" id="Capa_1" xmlns="http://www.w3.org/2000/svg" xmlns:xlink="http://www.w3.org/1999/xlink" x="0px" y="0px"
	 width="447.491px" height="447.491px" viewBox="0 0 447.491 447.491" style="enable-background:new 0 0 447.491 447.491;"
	 xml:space="preserve">
<g>
	<g>
		<path d="M301.986,21.066c-1.641-1.143-3.261-1.797-4.83-2.148c-3.585-2.422-8.241-2.808-12.979,0.787
			C230.965,60.101,173.523,94.191,117.676,130.72c-34.256,0.021-68.482,0.276-102.672,2.709c-0.208,0.016-0.389,0.068-0.592,0.089
			c-1.434-0.089-2.902-0.01-4.377,0.396c-6.979,1.919-11.679,9.646-9.496,16.727c1.663,5.398,2.085,10.76,2.189,16.333
			c-2.367,42.348-1.211,84.602,1.404,126.911c0.63,10.218,10.227,14.427,17.857,12.675c30.008,3.174,59.943,3.266,90.04,1.133
			c58.25,35.708,109.451,81.217,165.349,120.322c4.291,2.996,8.49,2.971,11.918,1.249c2.031-0.543,4.052-1.584,5.916-3.377
			c8.125-7.784,15.787-16.092,23.074-24.75c3.468-1.579,5.459-4.347,6.21-7.505C412.777,282.135,430.54,110.852,301.986,21.066z
			 M125.777,284.232c-1.831-2.22-4.55-3.692-8.132-3.896c-1.582-0.274-3.1-0.218-4.54,0.102
			c-27.602,2.011-55.061,2.163-82.568-0.218c-1.866-34.657-2.501-69.292-0.973-103.982c0.244-1.043,0.394-2.158,0.394-3.37
			c0-1.719-0.03-3.45-0.061-5.177c0.031-0.541,0.031-1.082,0.061-1.617c0.074-1.285-0.036-2.45-0.254-3.537
			c-0.041-0.903-0.089-1.805-0.15-2.709c30.476-1.658,60.979-1.909,91.51-1.914c2.679,0,4.896-0.691,6.756-1.762
			c0.935-0.358,1.876-0.833,2.829-1.45c47.454-31.07,96.047-60.388,142.259-93.255c-37.328,31.407-47.124,108.453-49.432,150.339
			c-2.184,39.591-0.812,82.646,11.469,120.695c4.007,12.4,7.276,26.533,12.091,39.518
			C207.332,341.72,168.427,310.379,125.777,284.232z M250.435,217.287c0.284-9,0.979-22.213,2.635-36.986
			c38.161,21.787,42.498,73.25-1.879,90.693C249.825,253.078,249.865,234.986,250.435,217.287z M304.875,374.229
			c-3.352,0.239-5.992,1.498-7.937,3.383c-16.103,1.498-20.774-4.226-26.015-23.517c-3.931-14.467-10.074-28.102-13.624-42.686
			c-1.026-4.24-1.895-8.525-2.677-12.837c76.957-25.06,68.736-114.673,2.636-146.165c8.338-43.079,26.589-86.166,66.694-75.578
			C396.035,160.464,371.782,287.665,304.875,374.229z"/>
		<path d="M398.924,96.301c38.309,84.894,27.64,179.913-25.999,255.539c-9.724,13.706,12.837,26.675,22.45,13.127
			c59.336-83.665,68.009-188.68,25.999-281.782C414.483,67.923,392.084,81.151,398.924,96.301z"/>
	</g>
</g>
<g>
</g>
<g>
</g>
<g>
</g>
<g>
</g>
<g>
</g>
<g>
</g>
<g>
</g>
<g>
</g>
<g>
</g>
<g>
</g>
<g>
</g>
<g>
</g>
<g>
</g>
<g>
</g>
<g>
</g>
</svg>
