<?xml version="1.0" encoding="iso-8859-1"?>
<!-- Generator: Adobe Illustrator 16.0.0, SVG Export Plug-In . SVG Version: 6.00 Build 0)  -->
<!DOCTYPE svg PUBLIC "-//W3C//DTD SVG 1.1//EN" "http://www.w3.org/Graphics/SVG/1.1/DTD/svg11.dtd">
<svg version="1.1" id="Capa_1" xmlns="http://www.w3.org/2000/svg" xmlns:xlink="http://www.w3.org/1999/xlink" x="0px" y="0px"
	 width="484.947px" height="484.947px" viewBox="0 0 484.947 484.947" style="enable-background:new 0 0 484.947 484.947;"
	 xml:space="preserve">
<g>
	<g>
		<path d="M232.983,345.007c-6.142,1.803-11.093,6.398-14.727,13.67c-3.725,7.475-4.936,14.076-3.702,20.195
			c0.815,4.042,2.557,8.379,4.659,11.598c5.558,8.536,14.787,13.427,25.311,13.427c5.688,0,11.481-1.427,16.758-4.134
			c8.434-4.331,14.487-11.938,16.188-20.367c1.482-7.317-0.452-14.625-5.438-20.581
			C262.872,347.871,245.251,341.417,232.983,345.007z M255.534,374.743c-0.102,1.265-1.787,3.499-5.316,5.606
			c-4.388,2.631-9.991,1.438-12.695-2.701c-1.513-2.315-1.348-6.505,0.353-9.146c0.51-0.792,1.279-1.519,3.483-1.519
			c1.181,0,2.62,0.219,4.283,0.655c2.879,0.752,5.591,2.143,7.835,4.007C254.285,372.326,255.621,373.621,255.534,374.743z"/>
		<path d="M214.715,156.729c-2.11,0-4.119,0.495-5.865,1.43c-5.677,1.394-9.486,6.116-9.595,12.065
			c-0.536,30.605,4.583,60.905,9.531,90.206c3.578,21.195,7.282,43.106,8.757,64.779c0.287,4.194,2.397,7.8,5.83,9.998
			c2.272,2.113,5.19,3.225,8.496,3.225h22.077c5.656,0,10.242-3.366,11.902-8.657c0.894-1.585,1.452-3.301,1.646-5.124
			c2.122-19.778,4.458-39.532,6.794-59.28c3.515-29.706,7.15-60.433,9.963-90.764c0.325-3.494-0.68-6.729-2.838-9.095
			c-2.229-2.447-5.591-3.852-9.212-3.856c-0.522-0.132-1.062-0.231-1.63-0.303c-18.312-2.231-36.886-3.78-55.21-4.603
			L214.715,156.729z M257.494,185.589c-2.609,26.383-5.758,53.075-8.805,78.933c-1.899,16.087-3.788,32.174-5.573,48.281h-0.993
			c-1.82-18.205-4.882-36.404-7.851-54.061c-4.171-24.801-8.473-50.384-9.267-75.827
			C235.801,183.561,246.683,184.454,257.494,185.589z"/>
		<path d="M259.871,34.656c-0.787-2.6-2.301-4.897-4.266-6.769c-3.082-3.593-7.114-5.012-11.126-4.853
			c-4.019-0.16-8.043,1.26-11.128,4.853c-1.971,1.871-3.484,4.169-4.269,6.769c-2.008,6.667-7.967,13.848-11.491,19.875
			c-3.968,6.784-8.013,13.525-12.037,20.279c-8.041,13.489-16.214,26.898-24.43,40.278c-16.427,26.764-33.233,53.293-49.673,80.047
			c-32.87,53.477-65.14,107.211-93.806,163.09c-8.046,15.681-16.168,31.482-23.239,47.621c-5.527,12.613-29.249,46.788-0.348,49.805
			c151.813,15.822,303.823-3.134,455.832-4.337c9.729-0.076,14.564-7.424,14.731-14.965c0.63-3.057,0.386-6.419-1.092-9.861
			C423.956,287.661,334.562,165.267,259.871,34.656z M39.205,426.809C95.494,301.326,175.119,188.697,244.479,70.329
			c68.192,116.382,146.343,227.188,202.449,350.146C310.965,422.995,175.015,437.594,39.205,426.809z"/>
	</g>
</g>
<g>
</g>
<g>
</g>
<g>
</g>
<g>
</g>
<g>
</g>
<g>
</g>
<g>
</g>
<g>
</g>
<g>
</g>
<g>
</g>
<g>
</g>
<g>
</g>
<g>
</g>
<g>
</g>
<g>
</g>
</svg>
