<?xml version="1.0" encoding="iso-8859-1"?>
<!-- Generator: Adobe Illustrator 16.0.0, SVG Export Plug-In . SVG Version: 6.00 Build 0)  -->
<!DOCTYPE svg PUBLIC "-//W3C//DTD SVG 1.1//EN" "http://www.w3.org/Graphics/SVG/1.1/DTD/svg11.dtd">
<svg version="1.1" id="Capa_1" xmlns="http://www.w3.org/2000/svg" xmlns:xlink="http://www.w3.org/1999/xlink" x="0px" y="0px"
	 width="484.332px" height="484.333px" viewBox="0 0 484.332 484.333" style="enable-background:new 0 0 484.332 484.333;"
	 xml:space="preserve">
<g>
	<g>
		<path d="M177.121,165.027c0-0.193,0.031-0.396,0.031-0.589c-0.071,0.172-0.17,0.35-0.244,0.513
			C176.981,164.976,177.048,165.011,177.121,165.027z"/>
		<path d="M427.605,138.185c27.248-43.635,7.108-107.237-50.069-113.478c-47.397-5.174-92.231,25.06-101.463,70.487
			c-23.48-19.373-53.667-20.175-78.615-7.663c9.651,4.128,18.672,9.384,26.893,15.615c18.278-4.743,38.417-0.274,53.737,16.737
			c1.94,6.556,13.314,5.906,13.33-2.006c0.086-38.516,34.17-67.709,72.935-66.369c50.811,1.757,69.808,60.159,33.027,94.313
			c-5.362,4.981,0.538,12.391,6.348,11.187c0.584,0.147,1.198,0.254,1.884,0.254c1.311,0,2.402-0.325,3.316-0.827
			c0.604-0.005,1.233-0.061,1.904-0.249c0.584-0.163,1.183-0.264,1.771-0.401c0.265,0.031,0.493,0.112,0.777,0.112
			c1.366,0,2.493-0.345,3.474-0.863c19.007-2.381,40.253,7.683,40.096,29.447c-0.163,22.048-20.119,31.58-39.816,32.408
			c2.64,6.353,4.717,12.837,6.23,19.383c30.519-0.96,65.298-17.367,60.524-53.055C479.888,153.287,455.352,136.072,427.605,138.185z
			"/>
		<path d="M406.13,217.543c-0.183-0.406-0.4-0.782-0.583-1.188c-17.54-37.476-54.279-60.428-91.14-60.428
			c-19.251,0-38.521,6.246-55.111,19.936c-5.85-28.782-23.214-52.618-46.604-68.284c-8.158-5.469-17.034-9.942-26.441-13.269
			c-12.657-4.474-26.208-6.927-40.141-6.927c-4.352,0-8.742,0.234-13.147,0.722c-71.186,7.769-96.258,86.955-62.33,141.279
			c-1.91-0.147-3.806-0.219-5.69-0.219c-32.159,0-59.682,21.068-64.394,56.29c-6.124,45.812,40.096,66.13,78.881,66.13
			c5.012,0,9.892-0.34,14.528-1.005c0.426,0.051,0.837,0.132,1.3,0.132c12.279,0,24.555-0.011,36.831-0.016
			c-0.884,1.788-1.277,3.545-1.227,5.205c0.063,1.884,0.65,3.641,1.628,5.2c4.425,7.058,16.701,9.963,23.117,0.792
			c0.188-0.265,0.36-0.538,0.546-0.808c1.191-1.722,2.356-3.458,3.506-5.205c1.132-1.721,2.229-3.463,3.316-5.21
			c25.017-0.035,50.023-0.116,75.035-0.238c-1.077,1.752-2.148,3.509-3.265,5.24c-1.14,1.757-2.326,3.483-3.509,5.215
			c-0.516,0.757-1.005,1.528-1.536,2.28c-9.641,13.771,12.908,26.746,22.444,13.127c3.561-5.084,6.886-10.288,10.055-15.58
			c1.036-1.727,2.041-3.473,3.037-5.22c0.99-1.731,1.96-3.479,2.92-5.23c9.739-0.071,19.483-0.173,29.224-0.264
			c-0.787,1.752-1.579,3.504-2.382,5.25c-0.803,1.747-1.625,3.483-2.447,5.221c-8.044,17.057-16.869,33.672-27.721,49.18
			c-9.639,13.767,12.908,26.741,22.444,13.122c13.649-19.489,24.105-40.73,33.799-62.398c0.03-0.066,0.041-0.132,0.066-0.203
			c0.767-1.777,1.143-3.529,1.183-5.215c0.046-1.838-0.299-3.596-0.949-5.215c5.814-0.066,11.629-0.107,17.442-0.188
			c0.894-0.01,1.691-0.152,2.448-0.351c0.589,0.102,1.193,0.168,1.833,0.168c0.533,0,1.076-0.046,1.64-0.143
			c56.387-9.795,80.959-62.605,67.867-113.264C411.011,229.766,408.878,223.596,406.13,217.543z M329.885,325.273
			c-0.487-0.076-0.99-0.138-1.539-0.138c-0.03,0-0.065,0-0.097,0c-15.898,0.214-31.793,0.36-47.687,0.498
			c0.802-1.737,1.62-3.469,2.417-5.21c0.797-1.737,1.584-3.479,2.371-5.221c0.198-0.437,0.396-0.873,0.594-1.314
			c6.79-15.168-15.614-28.401-22.444-13.127c-2.198,4.915-4.448,9.806-6.754,14.66c-0.827,1.746-1.675,3.479-2.523,5.215
			c-0.848,1.736-1.696,3.474-2.569,5.2c-24.956,0.152-49.922,0.243-74.88,0.279c0.878-1.727,1.747-3.453,2.605-5.19
			c0.853-1.731,1.711-3.458,2.542-5.199c2.569-5.367,5.061-10.781,7.487-16.229c6.792-15.168-15.609-28.401-22.442-13.121
			c-4.441,9.933-9.067,19.763-14.066,29.391c-0.904,1.742-1.823,3.474-2.755,5.2c-0.937,1.736-1.861,3.479-2.833,5.189
			c-14.31,0.016-28.625,0.021-42.937,0.021c-0.741,0-1.424,0.087-2.069,0.233c-0.31-0.025-0.617-0.045-0.939-0.045
			c-0.441,0-0.901,0.035-1.373,0.106c-4.124,0.649-8.445,0.985-12.807,0.985c-25.606,0-52.882-11.659-53.096-40.432
			c-0.178-24.501,21.421-37.089,43.059-37.089c2.293,0,4.593,0.137,6.858,0.426c1.214,0.646,2.628,1.071,4.327,1.071
			c0.355,0,0.64-0.102,0.967-0.137c0.739,0.173,1.483,0.295,2.207,0.498c0.835,0.233,1.622,0.31,2.371,0.314
			c1.143,0.63,2.501,1.025,4.128,1.025c0.858,0,1.623-0.127,2.344-0.319c0.536,0.106,1.061,0.162,1.592,0.162
			c6.649,0,12.5-8.348,6.312-14.091c-45.788-42.523-22.14-115.235,41.116-117.423c1.066-0.036,2.138-0.061,3.197-0.061
			c3.046,0,6.063,0.167,9.049,0.467c9.501,0.939,18.596,3.397,27.065,7.043c29.831,12.837,51.425,41.025,51.499,75.185
			c0.015,5.373,4.237,8.054,8.47,8.054c3.517,0,7.031-1.854,8.122-5.555c14.392-15.976,32.189-23.09,49.841-23.09
			c22.973,0,45.656,12.086,60.215,32.372c3.59,5.018,6.718,10.512,9.201,16.468c0.452,1.092,0.782,2.179,1.193,3.271
			C392.11,275.702,374.688,317.204,329.885,325.273z"/>
		<path d="M71.111,378.906c-9.696,21.668-20.154,42.909-33.799,62.398c-9.641,13.767,12.908,26.74,22.445,13.127
			c13.649-19.489,24.105-40.73,33.799-62.398C100.345,376.86,77.943,363.626,71.111,378.906z"/>
		<path d="M175.108,378.769c-9.696,21.668-20.155,42.909-33.799,62.398c-9.64,13.771,12.908,26.745,22.445,13.126
			c13.65-19.489,24.105-40.73,33.799-62.397C204.342,376.722,181.94,363.49,175.108,378.769z"/>
	</g>
</g>
<g>
</g>
<g>
</g>
<g>
</g>
<g>
</g>
<g>
</g>
<g>
</g>
<g>
</g>
<g>
</g>
<g>
</g>
<g>
</g>
<g>
</g>
<g>
</g>
<g>
</g>
<g>
</g>
<g>
</g>
</svg>
