<?xml version="1.0" encoding="iso-8859-1"?>
<!-- Generator: Adobe Illustrator 16.0.0, SVG Export Plug-In . SVG Version: 6.00 Build 0)  -->
<!DOCTYPE svg PUBLIC "-//W3C//DTD SVG 1.1//EN" "http://www.w3.org/Graphics/SVG/1.1/DTD/svg11.dtd">
<svg version="1.1" id="Capa_1" xmlns="http://www.w3.org/2000/svg" xmlns:xlink="http://www.w3.org/1999/xlink" x="0px" y="0px"
	 width="491.928px" height="491.928px" viewBox="0 0 491.928 491.928" style="enable-background:new 0 0 491.928 491.928;"
	 xml:space="preserve">
<g>
	<g>
		<path d="M485.053,365.406c-69.431-46.921-155.061,30.909-217.926-19.794c65.739-24.06,95.76-117.182,85.812-184.953
			C340.666,77.098,266.629,8.45,183.365,0.614C90.74-8.102,13.984,77.466,3.346,163.696
			c-11.113,90.02,57.973,164.488,139.226,189.432c0.292,12.461,1.062,59.468,1.965,71.909
			c-22.473,6.042-39.019,21.261-46.133,45.087c-0.785,2.656-0.681,5.022-0.016,7.074c-0.071,6.226,3.895,12.42,11.929,12.258
			c49.408-1.011,98.771,1.163,148.162,2.468c1.488,0.041,2.788-0.198,3.996-0.554c6.068-0.102,11.645-3.996,10.821-11.791
			c-3.057-28.965-19.342-52.262-46.638-60.367c-1.46-11.131-2.262-56.888-2.567-68.105c6.4,0.559,12.562,0.503,18.517-0.025
			c27.561,30.204,61.167,38.344,101.501,32.631c44.285-6.276,89.099-28.294,130.448-0.345
			C485.703,390.902,496.093,372.875,485.053,365.406z M234.709,451.467c4.735,3.915,8.49,8.846,10.153,15.066
			c-18.677,1.234-37.595-0.848-56.292-1.305c-7.505-0.184-57.267-5.865-60.682-0.686c4.73-7.165,11.428-12.411,19.822-15.193
			C176.733,445.028,205.912,446.151,234.709,451.467z M235.285,327.727c-10.763,1.762-36.166-3.631-36.077,13.568
			c0.114,20.611,0.77,41.248,1.881,61.835c0.511,9.43,0.208,17.224,1.915,23.622c-11.403-0.716-22.823-0.787-34.271-0.152
			c4.367-26.897-1.577-71.33-1.628-81.603c-0.005-1.026-0.117-1.98-0.317-2.874c-0.322-4.53-3.006-8.78-8.747-10.268
			C84.525,312.772,26.349,254,27.271,175.109C28.154,98.947,96.24,26.416,172.61,24.902c70.276-1.389,130.737,55.949,151.232,119.69
			c18.245,56.724,0.522,152.484-61.073,176.361C253.949,324.371,244.593,326.204,235.285,327.727z"/>
		<path d="M282.6,111.395c-36.552-52.861-112.135-58.29-166.594-30.813c-1.076,0.378-2.163,0.883-3.26,1.579
			c-0.198,0.127-0.366,0.267-0.556,0.391c-5.487,2.98-10.737,6.292-15.678,9.942c-2.729,2.011-4.451,4.502-5.418,7.15
			C53.91,137.026,47.332,192.96,74.577,241.704c34.19,61.177,114.763,74.182,171.405,38.474
			C303.419,243.976,321.232,167.248,282.6,111.395z M238.853,248.84c-40.487,36.506-104.056,26.172-135.222-16.48
			c-29.937-40.964-18.745-96.24,22.526-123.641c38.676-20.769,89.581-21.95,123.266,8.886
			C290.811,155.485,276.114,215.243,238.853,248.84z"/>
		<path d="M243.646,141.467c-0.457-0.719-0.843-1.468-1.335-2.174c-22.125-31.996-67.88-35.287-100.836-18.651
			c-0.65,0.229-1.31,0.536-1.97,0.955c-0.12,0.073-0.224,0.162-0.338,0.241c-3.323,1.802-6.5,3.806-9.491,6.015
			c-1.647,1.219-2.699,2.724-3.28,4.326c-22.506,22.625-26.489,56.482-9.996,85.99c20.69,37.029,69.462,44.899,103.748,23.291
			c31.283-19.718,43.054-59.268,28.084-91.632C248.145,146.189,246.251,143.308,243.646,141.467z M204.259,135.077
			c0.83-0.62,1.49-1.315,2.079-2.039c5.713,2.346,11.096,5.621,15.889,10.009c2.019,1.848,3.735,3.798,5.314,5.799
			c-1.896,9.244-5.291,19.677-12.781,24.019c-0.868,0.503-1.231,0.625-3.359,1.128c0.246-0.056-3.509,0.03-2.422,0.178
			c-4.306-0.589-5.091-1.171-8.688-3.616c-4.062-2.754-7.701-9.557-7.998-14.746C191.851,148.106,197.03,140.426,204.259,135.077z
			 M215.826,222.486c-24.506,22.095-62.979,15.844-81.844-9.978c-18.116-24.798-11.352-58.254,13.634-74.842
			c10.356-5.563,22.166-8.792,33.88-9.059c-5.941,7.302-9.795,15.907-10.029,26.068c-0.308,13.155,7.076,25.624,17.476,33.22
			c10.011,7.312,23.072,9.023,34.388,3.859c5.746-2.621,10.268-6.77,13.835-11.726C236.227,195.748,228.072,211.447,215.826,222.486
			z"/>
	</g>
</g>
<g>
</g>
<g>
</g>
<g>
</g>
<g>
</g>
<g>
</g>
<g>
</g>
<g>
</g>
<g>
</g>
<g>
</g>
<g>
</g>
<g>
</g>
<g>
</g>
<g>
</g>
<g>
</g>
<g>
</g>
</svg>
