<?xml version="1.0" encoding="iso-8859-1"?>
<!-- Generator: Adobe Illustrator 16.0.0, SVG Export Plug-In . SVG Version: 6.00 Build 0)  -->
<!DOCTYPE svg PUBLIC "-//W3C//DTD SVG 1.1//EN" "http://www.w3.org/Graphics/SVG/1.1/DTD/svg11.dtd">
<svg version="1.1" id="Capa_1" xmlns="http://www.w3.org/2000/svg" xmlns:xlink="http://www.w3.org/1999/xlink" x="0px" y="0px"
	 width="486.787px" height="486.787px" viewBox="0 0 486.787 486.787" style="enable-background:new 0 0 486.787 486.787;"
	 xml:space="preserve">
<g>
	<g>
		<path d="M244.188,343.719c-4.832,0-9.567,0.756-14.081,2.26c-11.601,3.849-20.119,12.115-26.035,25.268
			c-3.735,8.297-4.024,17.296-0.869,26.761c-1.109,3.026-0.759,6.267,1.013,9.247c7.909,13.269,25.017,28.757,47.189,28.757l0,0
			c4.245,0,8.501-0.595,12.665-1.763c11.196-3.148,19.854-10.445,25.039-21.108c5.932-12.197,6.495-27.36,1.457-39.562
			C283.554,356.556,263.608,343.719,244.188,343.719z M264.05,403.411c-2.098,4.316-5.226,7.078-9.288,8.227
			c-5.312,1.503-10.813-0.011-16.341-4.418c-0.365-1.052-0.858-2.006-1.498-2.905c-5.23-7.312-9.661-18.859-7.041-26.903
			c1.394-4.275,4.733-7.312,9.917-9.038c1.559-0.519,3.171-0.777,4.793-0.777c8.757,0,17.415,7.836,20.406,15.097
			C267.082,387.74,267.427,396.474,264.05,403.411z"/>
		<path d="M343.704,294.066c-51.074-39.983-125.229-36.779-187.67-16.265c-7.348,2.418-10.217,7.815-9.82,12.843
			c-0.059,1.884,0.432,3.874,1.812,5.91c7.79,11.522,15.295,23.161,23.395,34.562c9.973,14.03,37.579-3.362,50.5-6.19
			c22.963-5.027,47.162-1.909,67.154,8.201c1.487,0.756,2.955,1.193,4.397,1.498c0.863,0.66,1.919,1.147,2.909,1.706
			c4.682,3.549,12.64,5.169,18.093,1.939c13.249-7.86,23.567-17.804,31.57-29.219c1.392-1.985,1.925-3.925,1.919-5.769
			C348.477,300.215,347.365,296.935,343.704,294.066z M306.009,313.206c-0.573-0.112-1.127-0.26-1.716-0.325
			c-0.041-0.021-0.071-0.041-0.112-0.071c-35.281-17.834-76.857-17.691-113.556-3.266c-3.204-4.696-6.36-9.419-9.526-14.142
			c44.947-12.142,94.909-14.97,133.177,9.466C311.789,307.812,309.067,310.656,306.009,313.206z"/>
		<path d="M81.177,207.837c-7.348,2.785-10.217,9.026-9.821,14.838c-0.058,2.181,0.432,4.479,1.813,6.835
			c7.79,13.314,15.295,26.771,23.394,39.938c7.478,12.151,29.676,1.665,37.803-2.569c17.207-8.963,34.309-15.595,54.121-20.277
			c36.315-8.581,71.16-10.016,107.605-0.629c21.724,5.596,42.056,15.111,60.347,25.801c1.487,0.868,2.955,1.376,4.397,1.731
			c0.863,0.762,1.92,1.331,2.909,1.971c4.677,4.103,12.64,5.981,18.093,2.239c13.249-9.074,23.567-20.571,31.57-33.764
			c1.392-2.295,1.925-4.537,1.92-6.67c0.513-3.557-0.6-7.345-4.261-10.658C317.664,142.121,185.954,168.041,81.177,207.837z
			 M373.374,248.746c-0.573-0.132-1.127-0.3-1.716-0.371c-0.041-0.025-0.066-0.056-0.112-0.086
			c-87.641-51.196-166.725-44.245-255.777-3.773c-3.204-5.433-6.36-10.892-9.526-16.343
			c96.726-30.201,185.352-55.512,275.399,10.941C379.158,242.509,376.436,245.79,373.374,248.746z"/>
		<path d="M260.592,50.775c-73.265,0-154.944,17.496-249.707,53.489c-10.813,4.108-11.04,13.454-10.852,16.219
			c-0.056,2.968,0.566,5.293,1.919,7.602c3.641,6.231,7.244,12.474,10.842,18.725c7.383,12.812,15.018,26.068,22.899,38.885
			c2.376,3.859,6.485,5.73,12.568,5.73c8.811,0,20.987-3.915,35.221-11.332c26.327-13.715,51.559-23.168,79.394-29.747
			c29.496-6.975,56.726-10.364,83.256-10.364c25.499,0,49.939,3.1,74.71,9.48c28.604,7.368,57.559,19.738,88.509,37.818
			c1.463,0.853,3.042,1.47,4.972,1.944l1.249,0.305l0.96,0.854c0.695,0.614,1.519,1.087,2.325,1.592l1.854,1.249
			c5.521,4.834,14.681,6.353,19.784,2.859c17.585-12.048,32.418-27.924,44.103-47.195c1.365-2.245,2.025-4.507,2.021-6.926
			l0.051-0.754c0.574-3.946-0.939-7.582-4.499-10.798C423.762,77.569,349.208,50.775,260.592,50.775z M447.334,147.663
			c-4.199,5.731-8.297,10.499-12.532,14.582l-2.036,1.955l-3.488-0.817c-0.401-0.104-0.803-0.214-1.219-0.265l-1.052-0.129
			l-1.36-0.818c-59.448-34.677-117.662-51.537-177.966-51.537c-57.462,0-116.73,14.774-186.524,46.486l-4.252,1.935l-2.376-4.024
			c-4.014-6.812-7.98-13.645-11.943-20.477l-5.106-8.792l6.218-1.945c81.628-25.483,149.534-44.983,218.297-44.983
			c67.826,0,128.092,20.145,184.233,61.571l4.175,3.077L447.334,147.663z"/>
	</g>
</g>
<g>
</g>
<g>
</g>
<g>
</g>
<g>
</g>
<g>
</g>
<g>
</g>
<g>
</g>
<g>
</g>
<g>
</g>
<g>
</g>
<g>
</g>
<g>
</g>
<g>
</g>
<g>
</g>
<g>
</g>
</svg>
