<?xml version="1.0" encoding="iso-8859-1"?>
<!-- Generator: Adobe Illustrator 16.0.0, SVG Export Plug-In . SVG Version: 6.00 Build 0)  -->
<!DOCTYPE svg PUBLIC "-//W3C//DTD SVG 1.1//EN" "http://www.w3.org/Graphics/SVG/1.1/DTD/svg11.dtd">
<svg version="1.1" id="Capa_1" xmlns="http://www.w3.org/2000/svg" xmlns:xlink="http://www.w3.org/1999/xlink" x="0px" y="0px"
	 width="438.311px" height="438.312px" viewBox="0 0 438.311 438.312" style="enable-background:new 0 0 438.311 438.312;"
	 xml:space="preserve">
<g>
	<g>
		<path d="M39.155,215.367c45.311,3.361,90.645,5.941,136.064,6.932c1.607,0.035,3.001-0.233,4.296-0.635
			c5.911-0.579,11.095-4.659,10.435-12.365c-3.905-45.852-2.828-91.845-4.331-137.796c-0.759-23.176-40.111-4.399-50.958-1.434
			c-31.641,8.658-63.83,15.412-96.37,19.634c-3.567,0.462-6.312,2.089-8.34,4.276c-3.22,2.021-5.527,5.484-5.527,10.455v93.598
			c0,3.577,1.221,6.342,3.09,8.394C29.114,211.041,32.993,214.91,39.155,215.367z M50.423,113.996
			c37.153-5.424,73.593-13.551,109.674-24.065c0.734,35.353,0.569,70.713,2.887,106.005c-37.564-1.062-75.076-3.12-112.556-5.789
			v-76.151H50.423z"/>
		<path d="M222.889,221.431c46.621,0.949,93.912,4.921,140.716,8.287c11.415,0.822,22.668,2.935,34.043,4.021
			c8.155,0.782,16.082-3.011,15.904-12.309c-1.412-73.28-2.854-135.509-2.601-208.862c0.036-9.476-8.251-13.589-15.478-12.354
			c-1.863-0.041-3.818,0.284-5.819,1.127c-54.969,23.25-120.109,36.513-178.021,51.557c-8.277,2.148-10.509,9.729-8.574,16.08
			c-0.094,0.8-0.15,1.627-0.104,2.521c2.569,43.584,2.56,87.341,6.068,130.865c0.149,1.881,0.655,3.519,1.368,4.976
			C210.006,214.103,214.15,221.253,222.889,221.431z M385.243,31.225c1.376,61.654-0.6,112.495,1.757,174.106
			c-50.811-3.354-101.534-8.006-152.446-9.557c-2.925-40.185-3.164-80.545-5.413-120.772
			C279.178,61.04,337.454,51.463,385.243,31.225z"/>
		<path d="M191.688,341.896c0-0.229-0.063-0.442-0.074-0.665c0.016-0.366,0.084-0.686,0.074-1.066
			c-0.993-30.356-3.344-60.642-4.336-90.998c-0.229-7.108-5.07-11.171-10.509-12.242c-1.28-0.432-2.653-0.742-4.223-0.757
			c-46.184-0.538-91.83-7.505-137.801-11.269c-17.248-1.406-10.567,26.843-10.131,37.074c0.292,6.917,0.495,13.833,0.546,20.754
			c0.089,9.882,2.133,19.743,0.817,29.615c-1.231,9.262-6.792,21.662,6.178,24.75c48.276,11.512,96.192,24.339,143.864,38.131
			c6.753,1.954,11.844-1.326,14.345-6.119c1.551-2.098,2.424-4.606,2.107-7.287C191.776,355.199,191.688,348.562,191.688,341.896z
			 M165.734,345.262c-38.245-10.861-76.66-21.073-115.3-30.468c1.31-20.87,0.883-41.69-0.259-62.53
			c37.229,3.52,74.316,8.399,111.708,9.603c1.138,26.106,2.943,52.182,3.801,78.298c0.01,0.269,0.079,0.497,0.104,0.756
			c-0.025,0.325-0.104,0.646-0.104,0.976C165.688,343.018,165.729,344.14,165.734,345.262z"/>
		<path d="M412.856,267.641c-0.914-5.688-5.021-10.999-12.309-11.543c-49.186-3.671-99.341-7.541-148.571-14.34
			c-10.207-1.406-42-13.629-41.226,6.54c1.678,43.604,2.595,87.235,3.468,130.864c0.188,9.42,8.503,13.554,15.674,12.375
			c56.015,14.376,112.086,28.519,167.202,46.094c8.409,2.681,14.224-2.977,15.609-9.674c0.498-1.366,0.838-2.869,0.844-4.596
			c0.218-49.992,3.097-99.944,0.868-149.928C414.309,271.194,413.74,269.285,412.856,267.641z M387.7,407.498
			c-48.819-14.955-98.294-27.538-147.743-40.223c-0.711-33.855-1.509-67.71-2.666-101.555
			c50.226,7.332,100.767,11.639,151.374,15.478C390.123,323.3,388.279,365.391,387.7,407.498z"/>
	</g>
</g>
<g>
</g>
<g>
</g>
<g>
</g>
<g>
</g>
<g>
</g>
<g>
</g>
<g>
</g>
<g>
</g>
<g>
</g>
<g>
</g>
<g>
</g>
<g>
</g>
<g>
</g>
<g>
</g>
<g>
</g>
</svg>
