<?xml version="1.0" encoding="iso-8859-1"?>
<!-- Generator: Adobe Illustrator 16.0.0, SVG Export Plug-In . SVG Version: 6.00 Build 0)  -->
<!DOCTYPE svg PUBLIC "-//W3C//DTD SVG 1.1//EN" "http://www.w3.org/Graphics/SVG/1.1/DTD/svg11.dtd">
<svg version="1.1" id="Capa_1" xmlns="http://www.w3.org/2000/svg" xmlns:xlink="http://www.w3.org/1999/xlink" x="0px" y="0px"
	 width="474.832px" height="474.832px" viewBox="0 0 474.832 474.832" style="enable-background:new 0 0 474.832 474.832;"
	 xml:space="preserve">
<g>
	<g>
		<path d="M393.941,294.117c-10.552,0-21.738,1.99-32.737,5.788c-13.762-15.599-28.203-30.741-42.229-45.427
			c-15.209-15.94-30.94-32.423-45.55-49.267c-6.606-7.602-13.314-15.094-20.013-22.582c-15.53-17.341-31.59-35.282-45.706-54.157
			c-0.482-0.645-1.623-2.039-3.103-3.833c-2.008-2.428-7.328-8.864-9.97-12.629c9.465-33.411,2.315-63.959-19.894-84.317
			C154.97,9.577,128.206,0,97.345,0c-5.479,0-11.126,0.308-16.791,0.899c-7.414,0.779-12.89,6.042-13.944,13.4
			c-0.983,6.843,2.135,13.898,7.523,17.877c2.028,2.72,4.857,4.773,8.241,5.934c15.173,5.162,31.07,12.213,33.923,25.332
			c2.024,9.292-8.719,18.601-12.058,21.23c-8.47,6.673-21.053,9.417-31.463,6.808C56.37,87.356,47.156,69.937,42.85,58.847
			c-0.294-3.854-1.861-7.462-4.544-10.38c-3.405-3.696-8.188-5.819-13.114-5.819c-7.368,0-13.461,4.718-15.521,12.007l-0.203,0.765
			c-0.13,0.416-0.239,0.848-0.338,1.29c-10.44,38.953-4.212,74.374,17.555,99.77c13.571,15.828,32.306,24.196,54.187,24.196
			c10.473,0,21.582-1.955,32.504-5.695c14.944,17.072,30.633,33.69,45.859,49.82c13.294,14.079,27.043,28.643,40.081,43.287
			c5.23,5.88,10.499,11.71,15.76,17.529c17.648,19.54,35.901,39.74,51.942,61.073c0.482,0.64,1.614,2.016,3.087,3.793
			c2.021,2.427,7.368,8.866,10.034,12.624c-9.368,33.433-2.127,63.967,20.145,84.253c19.723,17.977,46.367,27.473,77.043,27.473
			c5.616,0,11.405-0.32,17.215-0.95c7.413-0.797,12.872-6.078,13.908-13.441c0.96-6.845-2.179-13.888-7.576-17.854
			c-2.041-2.728-4.88-4.773-8.262-5.911c-15.188-5.118-31.108-12.126-33.997-25.237c-2.057-9.288,8.663-18.626,11.994-21.267
			c8.455-6.698,21.033-9.486,31.438-6.896c16.422,4.073,25.689,21.465,30.026,32.551c0.305,3.839,1.884,7.443,4.565,10.349
			c3.401,3.687,8.18,5.799,13.096,5.799l0,0c7.394,0,13.497-4.737,15.528-12.024l0.208-0.803c0.127-0.406,0.239-0.833,0.335-1.27
			c10.329-38.988,3.997-74.402-17.849-99.731C434.393,302.435,415.711,294.117,393.941,294.117z M448.21,400.815
			c-9.653-20.221-24.034-33.464-41.167-37.72c-16.534-4.088-35.993,0.184-49.368,10.786c-15.508,12.288-22.577,27.619-19.393,42.046
			c4.926,22.322,26.72,32.828,40.893,38.095c-26.583,0.533-48.459-7.054-64.896-22.039c-23.998-21.86-17.174-53.847-13.127-66.592
			c2.209-6.978-1.858-12.33-15.061-28.208c-1.174-1.407-2.088-2.494-2.463-3.002c-16.605-22.068-35.176-42.624-53.129-62.505
			c-5.228-5.783-10.463-11.582-15.658-17.422c-13.238-14.868-27.096-29.549-40.497-43.739
			c-16.687-17.674-33.949-35.962-49.98-54.608l-4.925-5.726l-6.962,2.907c-10.644,4.44-21.569,6.787-31.605,6.787
			c-15.843,0-28.759-5.7-38.395-16.938c-18.903-22.046-19.108-49.573-15.818-69.116c9.605,20.243,23.935,33.535,41.058,37.831
			c16.519,4.159,35.993-0.074,49.403-10.636c15.542-12.246,22.65-27.559,19.504-41.998c-4.862-22.34-26.634-32.91-40.776-38.209
			c26.591-0.391,48.431,7.186,64.831,22.219c23.94,21.937,17.019,53.908,12.936,66.636c-2.229,6.957,1.82,12.314,14.95,28.221
			c1.181,1.424,2.097,2.516,2.485,3.037c14.67,19.613,31.039,37.902,46.873,55.581c6.629,7.403,13.266,14.82,19.801,22.343
			c14.935,17.209,30.839,33.865,46.21,49.982c15.487,16.229,31.504,33.012,46.347,50.171l4.94,5.707l6.957-2.919
			c10.699-4.494,21.683-6.871,31.773-6.871c15.762,0,28.629,5.657,38.257,16.818C451.165,353.732,451.449,381.265,448.21,400.815z"
			/>
	</g>
</g>
<g>
</g>
<g>
</g>
<g>
</g>
<g>
</g>
<g>
</g>
<g>
</g>
<g>
</g>
<g>
</g>
<g>
</g>
<g>
</g>
<g>
</g>
<g>
</g>
<g>
</g>
<g>
</g>
<g>
</g>
</svg>
